<?xml version="1.0" encoding="utf-8"?>
<!-- Generator: Adobe Illustrator 15.0.0, SVG Export Plug-In  -->
<!DOCTYPE svg PUBLIC "-//W3C//DTD SVG 1.1//EN" "http://www.w3.org/Graphics/SVG/1.1/DTD/svg11.dtd" [
	<!ENTITY ns_flows "http://ns.adobe.com/Flows/1.0/">
]>
<svg version="1.1"
	 xmlns="http://www.w3.org/2000/svg" xmlns:xlink="http://www.w3.org/1999/xlink" xmlns:a="http://ns.adobe.com/AdobeSVGViewerExtensions/3.0/"
	 x="0px" y="0px" width="971px" height="551px" viewBox="-9.7 -13.4 971 551" enable-background="new -9.7 -13.4 971 551"
	 xml:space="preserve">
<defs>
</defs>
<g>
	
		<image overflow="visible" opacity="0.5"  a:adobe-blending-mode="screen"  a:adobe-opacity-share="1" width="3966" height="2185" xlink:href="4B342373.png"  transform="matrix(0.24 0 0 0.24 0 0)">
	</image>
	<g>
		<path fill-rule="evenodd" clip-rule="evenodd" fill="#FFFFFF" d="M914.6,15.1c12.2,0,22,9.9,22,22v450c0,12.2-9.8,22-22,22H37.1
			c-12.2,0-22-9.8-22-22v-450c0-12.2,9.8-22,22-22H914.6z"/>
		<path fill="none" stroke="#FFFFFF" stroke-width="0.216" stroke-miterlimit="2.4142" d="M914.6,15.1c12.2,0,22,9.9,22,22v450
			c0,12.2-9.8,22-22,22H37.1c-12.2,0-22-9.8-22-22v-450c0-12.2,9.8-22,22-22H914.6z"/>
	</g>
</g>
<path fill="#EB2227" d="M97.8,97.8c-0.4,0-0.9-0.2-1.6-0.6c-0.7-0.4-1.7-1.1-3.1-2c-1.3-0.9-2.8-2-4.5-3.1L64.3,75.7l-7.2,9.5
	c0,0.8-0.1,1.5-0.3,1.8c-0.2,0.4-0.7,1-1.4,1.7c-1.7,1.7-3.1,3-4.2,3.9C50,93.5,49,94,48.1,94c-0.5,0-0.8-0.2-1.2-0.5
	c-0.3-0.4-0.5-0.8-0.5-1.4c0-0.7,0.4-1.7,1.2-2.9l13.2-16.4c-0.8-1.2-1.2-2.5-1.2-3.8s0.4-2.5,1.1-3.4c0.8-0.9,1.6-1.7,2.5-2.2
	c1-0.5,3.6-2,8-4.3c6.2-8.3,9.3-12.9,9.3-13.9c0-0.7-0.4-1-1.2-1c-0.8,0-2.6,0.5-5.4,1.5c-2.8,0.9-6.4,2.5-11,4.5
	c-4.5,2-9.8,4.5-16,7.7c-0.5,0.3-1.1,0.4-1.8,0.3c-0.6-0.1-1.2-0.3-1.6-0.8c-0.5-0.5-0.7-1.1-0.7-1.8c0-0.2,0.1-0.5,0.2-0.8
	s0.3-0.8,0.5-1.5c0.2-0.7,0.5-1.3,0.6-1.8c0.1-0.2,0.2-0.8,0.5-1.9c0.2-1.2,0.6-2.1,1.2-3.1c0.5-0.9,1.5-1.9,2.8-3.1
	c1.3-1.1,3.1-2.3,5.6-3.5c0.5-0.2,0.8-0.5,1.2-0.5s0.6,0,0.6,0.3c0,0.1-0.5,0.5-1.3,1.1c-0.8,0.6-1.8,1.7-2.9,3.1
	c8.8-3.1,15.2-5.2,19.4-6.5c4.1-1.2,7.4-1.8,10-1.8c1.4,0,2.5,0.9,3.5,2.8c0.9,1.8,1.4,3.1,1.4,3.7c0,0.8-0.3,1.8-1,2.8l-7.2,10.8
	c5.7-2.8,10.1-5.1,13.3-6.8c3.1-1.7,6.6-3.5,10.3-5.5c3.7-2,6.1-3.2,7.1-3.7c1-0.5,1.6-0.8,1.9-0.8c0.7,0,1,0.3,1,0.9
	c0,0.4-0.5,1.4-1.5,2.9c-1,1.6-2.2,3.1-3.5,4.3c-1.2,1.3-2.3,1.9-3.1,1.9c-0.2,0-0.5-0.1-0.8-0.2c-0.3-0.1-0.6-0.2-0.8-0.3
	c-4.1,2.1-9,4.6-14.9,7.4c-5.8,2.9-10.5,5.1-13.9,6.8l-3.8,5.8l22.8,15.5c2.1,1.4,3.6,2.5,4.6,3.4c0.9,0.8,1.6,1.8,2.1,2.8
	c0.5,1,0.7,2.2,0.7,3.8C99.4,96.5,98.9,97.8,97.8,97.8z"/>
<path fill="#231F20" d="M111.3,66.4v2.4c-1.5,1.4-2.8,2.4-3.8,2.8c-0.9,0.5-2.3,0.7-4.1,0.5c-3.1,3.6-5.8,5.5-8.1,5.5
	c-1.3,0-2.5-0.5-3.6-1.3c-1.1-0.8-2-2.1-2.6-3.6c-0.6-1.5-1-3.2-1-5.1c0-1.5,0.5-3.2,1.5-5c1.1-1.8,2.3-3.5,3.9-5.1
	c1.6-1.6,3.3-2.8,5.1-3.8c1.8-1,3.5-1.5,5.1-1.5c1.1,0,2,0.2,2.6,0.5c0.6,0.4,0.9,0.8,0.9,1.5c0,0.5-0.2,1-0.8,1.6
	c0.9,0.2,1.5,0.5,1.8,0.9c0.3,0.5,0.5,1.2,0.5,2.4s-0.2,2.5-0.8,4.3c-0.5,1.7-1.2,3.3-2.1,4.8l0.6,0.6h0.5c0.4,0,0.8-0.1,1.2-0.3
	c0.4-0.2,0.8-0.4,1.1-0.6C109.6,67.7,110.2,67.1,111.3,66.4L111.3,66.4z M104,57.1c-1.9,1.2-3.6,2.2-5,3.2c-1.4,0.9-2.6,1.9-3.5,2.9
	c-1,1-1.6,2-1.9,3c-0.6,2.6-0.9,4.1-0.9,4.3c0,1.5,1.1,2.3,3.2,2.3c1,0,2.7-0.8,5.1-2.6c-0.4-1.1-0.6-2.1-0.6-3.2
	c0-1.5,0.3-3,0.9-4.5C101.9,60.8,102.8,59.1,104,57.1z"/>
<path fill="#231F20" d="M134.1,66.4v2.4c-1.5,1.4-2.8,2.4-3.8,2.8c-0.9,0.5-2.3,0.7-4.1,0.5c-3.1,3.6-5.8,5.5-8.1,5.5
	c-1.3,0-2.5-0.5-3.6-1.3c-1.1-0.8-1.9-2.1-2.6-3.6c-0.7-1.5-1-3.2-1-5.1c0-1.5,0.5-3.2,1.5-5c1-1.8,2.3-3.5,3.9-5.1
	c1.6-1.6,3.3-2.8,5.1-3.8c1.8-1,3.5-1.5,5.1-1.5c1.1,0,2,0.2,2.6,0.5c0.6,0.4,0.9,0.8,0.9,1.5c0,0.5-0.2,1-0.8,1.6
	c0.9,0.2,1.5,0.5,1.8,0.9c0.3,0.5,0.5,1.2,0.5,2.4s-0.2,2.5-0.8,4.3c-0.5,1.7-1.2,3.3-2.1,4.8l0.6,0.6h0.5c0.4,0,0.8-0.1,1.2-0.3
	c0.4-0.2,0.8-0.4,1.1-0.6C132.3,67.7,133,67.1,134.1,66.4L134.1,66.4z M126.8,57.1c-1.9,1.2-3.6,2.2-5,3.2c-1.4,0.9-2.6,1.9-3.5,2.9
	c-1,1-1.6,2-1.9,3c-0.6,2.6-0.8,4.1-0.8,4.3c0,1.5,1.1,2.3,3.2,2.3c1,0,2.7-0.8,5.1-2.6c-0.4-1.1-0.6-2.1-0.6-3.2
	c0-1.5,0.3-3,0.9-4.5C124.6,60.8,125.5,59.1,126.8,57.1z"/>
<path fill="#231F20" d="M150.9,66.1v2.6c-4.9,6.5-8.9,9.8-12.1,9.8c-1.7,0-3-0.9-3.9-2.8c-0.9-1.8-1.5-4.2-1.5-7.2
	c0-2.4,0.5-5.3,1.7-8.6c1.2-3.3,2.6-6.7,4.5-10.1c1.9-3.4,3.8-6.4,5.9-8.9s3.9-4.3,5.7-5.3c0.7-0.5,1.2-0.6,1.7-0.6
	c0.5,0,0.8,0.2,1,0.7c0.2,0.5,0.2,1.2,0.2,2.2c0,3.3-1.3,7.3-4,12.1c-2.7,4.8-6.4,9.7-11.1,14.7c-0.2,1.2-0.4,2.1-0.4,2.8
	c0,1.5,0.3,2.8,1,3.7c0.7,0.9,1.5,1.4,2.7,1.4c0.6,0,1.2-0.2,1.9-0.7s1.4-1.1,2.1-1.7C147.2,69.4,148.6,68.1,150.9,66.1L150.9,66.1z
	 M140.3,59.7c1.2-1.2,2.4-2.6,3.5-4.1c1.2-1.5,2.2-3.1,3.2-4.9c1-1.8,1.8-3.3,2.4-4.7c0.6-1.4,0.8-2.5,0.8-3.1
	c0-0.5-0.2-0.8-0.5-0.8c-0.2,0-0.4,0.2-0.8,0.4c-1.5,1.2-3.1,3.5-4.8,6.9C142.3,52.7,141,56.2,140.3,59.7z"/>
<path fill="#231F20" d="M154.7,60.1c3.6-3.2,7.1-5.7,10.4-7.3s6-2.4,7.8-2.4c0.5,0,0.9,0.2,1.4,0.6s0.8,0.9,1,1.5s0.4,0.9,0.4,1.2
	c0,0.5-0.2,0.8-0.5,0.9c-0.3,0.2-0.9,0.5-1.8,0.7c0.2,0.4,0.4,0.8,0.6,1.5s0.5,1.1,0.6,1.5c0.2,0.4,0.2,0.7,0.2,1
	c0,0.5-0.5,1.6-1.7,3.1c-1.2,1.5-1.9,2.7-2.4,3.4c-0.5,0.8-0.7,1.6-0.7,2.7c0,1.8,0.8,2.6,2.4,2.6c1.7,0,4.2-1.5,7.8-4.6v2.1
	c-6,6.6-10.2,10-12.8,10c-0.9,0-1.5-0.3-2-0.9c-0.4-0.6-0.6-1.5-0.6-2.7c0-1.8,0.7-4.5,2-8.1c-3.5,3.8-6,6.5-7.7,8.1
	s-3.1,2.5-4.1,2.5c-0.5,0-1.2-0.5-1.9-1.3c-0.8-0.9-1.5-2.1-2.1-3.5c-0.6-1.5-0.9-2.9-0.9-4.5c0-1.1,0.1-2.1,0.3-2.8
	c0.2-0.8,0.6-1.5,1.2-2.3C152.4,62.4,153.4,61.4,154.7,60.1L154.7,60.1z M171.7,56.2c-6.1,2.8-10.5,5.2-13.1,7.1
	c-2.6,1.9-3.9,4-3.9,6.1c0,0.8,0.2,1.4,0.4,1.8c0.2,0.5,0.6,0.7,1.1,0.7c0.2,0,0.7-0.2,1.4-0.5c2.5-1.5,4.8-3.4,6.8-5.7
	C166.3,63.4,168.8,60.2,171.7,56.2z"/>
<path fill="#231F20" d="M203.5,66.5v2.3c-2.5,1.5-4.4,2.4-5.8,2.4c-0.8,0-1.6-0.2-2.5-0.4c-2.2,2.7-3.9,4.7-5.5,5.9
	s-3.1,1.8-4.6,1.8c-1.8,0-3.1-0.9-4.1-2.8c-0.9-1.8-1.5-4.1-1.5-7c0-3.8,1.2-7.8,3.4-12.3c2.3-4.5,5-8.6,8.2-12.4
	c3.2-3.8,6.3-7.1,9.3-9.6c3-2.5,5-3.8,6.1-3.8c1,0,1.5,0.7,1.5,2.1c0,6.2-7.9,17-23.8,32.3c-0.1,0.5-0.1,1.3-0.1,2.5
	c0,3.2,0.8,4.9,2.6,4.9c0.7,0,1.4-0.3,2.1-0.8s1.8-1.6,3.2-3.1c-0.5-1.3-0.8-2.2-0.8-2.8c0-1.3,0.5-2.7,1.6-4.2
	c1.1-1.5,2.3-2.8,3.6-3.9c1.4-1.1,2.4-1.6,3-1.6c1,0,1.5,0.7,1.5,2.1c0,1.1-0.3,2.3-0.8,3.8c-0.5,1.5-1.4,3.2-2.5,5.1
	c0.4,0.3,0.7,0.5,1,0.7c0.2,0.2,0.6,0.2,1.1,0.2C200.7,68,202,67.5,203.5,66.5L203.5,66.5z M185.4,61.2c1.2-1.1,2.5-2.3,3.7-3.8
	s3.1-3.7,5.5-6.7c2.3-2.8,4.1-5.3,5.4-7.2c1.3-1.9,2.3-3.5,3-4.8c0.7-1.3,1-2.2,1-2.6c0-0.4-0.1-0.5-0.3-0.5c-0.5,0-1.6,0.8-3.2,2.5
	c-1.6,1.7-3.5,4.1-5.6,7.1c-2.9,4.1-5,7.2-6.3,9.3C187.2,56.5,186.2,58.8,185.4,61.2z"/>
<path fill="#231F20" d="M220.1,64.1c-3.5,4.5-6.1,7.8-7.8,9.7c-1.8,1.9-3.2,2.8-4.4,2.8c-0.9,0-1.7-0.4-2.5-1.1
	c-0.8-0.8-1.3-1.8-1.8-3c-0.4-1.3-0.6-2.6-0.6-4.1c0-0.9,0.1-1.8,0.2-2.5c0.2-0.8,0.5-1.6,1-2.5c0.5-0.9,1.2-1.9,2-3
	c0.8-1.1,1.8-2.3,3-3.6c0.7-0.8,1.3-1.5,1.8-2.1c0.5-0.5,0.9-0.9,1.4-1.2c0.5-0.2,1.2-0.3,2.2-0.3c0.8,0,1.5,0.1,2.1,0.3
	c0.7,0.2,1,0.4,1,0.6c0,0.5-0.4,1.2-1.1,2.3c-0.7,1.1-1.8,2.5-3.4,4.1c-1.5,1.6-3.3,3.1-5.4,4.7c-0.5,1.4-0.7,2.5-0.7,3.2
	c0,1,0.4,1.5,1.2,1.5c0.3,0,0.8-0.2,1.4-0.7c0.6-0.5,1.8-1.4,3.4-2.8c1.5-1.4,3-2.6,4.2-3.7c0.9-0.8,2-2,3.2-3.6
	c1.2-1.6,2.2-2.8,2.9-3.6c1.8-1.8,2.9-3.1,3.6-3.6c0.6-0.5,1.2-0.8,1.8-0.8c0.5,0,0.9,0.2,1.2,0.5s0.3,1.1,0.3,2.2
	c0,0.5-0.1,0.9-0.2,1.2c-0.1,0.3-0.3,0.7-0.6,1.2c-0.3,0.5-0.9,1.4-1.8,2.7c-0.9,1.3-2,2.8-3.2,4.6c-0.7,0.9-1.2,2-1.8,3.1
	c-0.5,1.2-0.8,2-0.8,2.5c0,1.2,0.5,1.8,1.5,1.8c0.8,0,1.8-0.3,2.8-1c1.1-0.7,2.7-1.8,4.9-3.6v2.3c-2.8,2.5-4.8,4.4-6.1,5.5
	c-1.3,1.2-2.5,2-3.5,2.6c-1,0.6-1.9,0.9-2.8,0.9c-2,0-3-1.2-3-3.5c0-0.9,0.3-2.2,0.8-3.6C217.8,69.1,218.8,66.9,220.1,64.1z"/>
<path fill="#231F20" d="M255.2,60.1c-4.1,4.6-6.2,7.8-6.2,9.7c0,1,0.4,1.5,1.2,1.5c0.7,0,1.6-0.4,2.7-1.1s2.8-2,5.1-3.8v2.4
	c-3.4,3.3-5.9,5.7-7.7,7.1c-1.8,1.5-3.2,2.2-4.4,2.2c-1.9,0-2.9-1.3-2.9-3.8c0-0.8,0.2-1.5,0.4-2.2c0.2-0.8,0.5-1.5,1-2.3
	c0.4-0.8,1.1-1.9,1.9-3.4s1.8-3.1,2.9-5c-1.3,0.7-3.1,2.1-5.1,4.1c-1.3,1.3-2.5,2.5-3.4,3.6s-1.9,2.4-2.9,3.8
	c-1.1,1.4-1.8,2.4-2.3,2.8c-0.5,0.5-1,0.7-1.5,0.7c-0.8,0-1.5-0.8-2.1-2.4c-0.6-1.6-0.9-3.5-0.9-5.5c0-1.3,0.2-2.3,0.5-3.1
	c0.3-0.8,0.8-1.8,1.8-3.1c1.6-2.5,3.1-4.4,4.2-5.5c1.2-1.2,2.3-1.8,3.4-1.8c0.8,0,1.4,0.2,1.8,0.4c0.5,0.2,0.7,0.6,0.7,1.2
	c0,0.2-0.1,0.5-0.2,0.8c-0.2,0.2-0.3,0.5-0.5,0.7c-0.2,0.2-0.5,0.6-1.1,1.2c-3.8,4.1-5.6,6.8-5.6,8.1c0,0.7,0.2,1,0.7,1
	c0.3,0,0.8-0.5,1.6-1.4c0.8-0.9,1.8-2.1,3.1-3.6c1.3-1.5,2.8-3,4.6-4.6c1.8-1.6,3.8-3.1,6-4.6c1.2-0.8,2.3-1.3,3.1-1.3
	c0.4,0,0.8,0.5,1.2,1.5c0.4,1.1,0.5,2.1,0.5,3.1C256.8,58.2,256.2,59,255.2,60.1z"/>
<path fill="#231F20" d="M285.9,68.8l-11.7,9.7c-3.3,5.7-6.3,10-9.1,12.8c-2.8,2.8-4.8,4.2-6.1,4.2c-0.7,0-1.1-0.5-1.1-1.3
	c0-1.7,0.8-3.9,2.6-6.5c0.7-1.1,1.5-2.1,2.4-3.1c0.8-1,1.7-1.8,2.5-2.6c0.8-0.7,1.8-1.6,3.1-2.7c1.3-1.1,2.2-1.8,2.7-2.2
	c2.4-4.8,4.1-8.5,5.1-11.1c-2.2,2.4-4.1,4.3-5.8,5.8c-1.6,1.5-3.1,2.7-4.5,3.5c-1.4,0.8-2.6,1.2-3.8,1.2c-1.2,0-2.3-1-3.3-2.9
	c-1-1.9-1.5-3.9-1.5-5.9c0-0.9,0.2-1.9,0.6-3c0.5-1.1,1.2-2.2,2.1-3.3c0.9-1.2,2.2-2.4,3.5-3.6c1.5-1.2,3.1-2.5,5.1-3.6
	c3.7-2.3,6.5-3.5,8.5-3.5c1.5,0,2.3,0.5,2.3,1.7c0,1.5-1.6,3.1-4.9,4.5c-2,0.8-4,2-6,3.5c-2,1.5-3.5,3-4.8,4.6
	c-1.2,1.6-1.8,3.1-1.8,4.4c0,0.6,0.2,1.2,0.5,1.5c0.3,0.4,0.7,0.5,1.2,0.5c0.8,0,1.8-0.4,2.8-1.2c1.1-0.8,2.6-2.1,4.7-4
	c0.9-0.8,2.2-2.3,3.8-4.2c1.5-1.9,2.8-3.5,3.9-4.5c1-1,2-1.5,2.8-1.5c0.5,0,0.8,0.2,1.2,0.5s0.5,0.7,0.5,1.3c0,1.1-0.5,2.7-1.3,4.7
	c-0.8,2.1-2.4,5.5-4.7,10.1l8.6-6.2V68.8L285.9,68.8z"/>
<polygon fill="#EB2227" points="169.7,85.1 169.7,102 179.2,102 179.2,105.5 165.8,105.5 165.8,85.1 "/>
<path fill="#EB2227" d="M194.3,85.1h3.8v13.5c0,2.8-0.5,4.7-1.6,5.6c-1.1,0.9-3.3,1.4-6.7,1.4c-3.5,0-5.9-0.5-7-1.3
	c-1.1-0.8-1.7-2.7-1.7-5.5V85.1h3.8v13.7c0,1.5,0.3,2.5,0.8,2.8c0.5,0.4,1.8,0.6,3.8,0.6c2.1,0,3.3-0.2,3.8-0.6
	c0.5-0.4,0.8-1.4,0.8-3V85.1H194.3z"/>
<path fill="#EB2227" d="M201.7,105.5V85.1h10.1c2.5,0,4.2,0.5,5.1,1.3c0.9,0.8,1.4,2.5,1.4,4.7c0,2.1-0.2,3.5-0.7,4.2
	c-0.5,0.8-1.5,1.3-2.9,1.5V97c2.2,0.2,3.4,1.5,3.4,4v4.5h-3.8v-3.7c0-2.1-1-3.1-3.1-3.1h-5.5v6.8H201.7L201.7,105.5z M205.5,95.3
	h5.5c1.3,0,2.2-0.2,2.6-0.7c0.5-0.5,0.6-1.5,0.6-2.8c0-1.5-0.2-2.4-0.5-2.8c-0.4-0.4-1.2-0.6-2.5-0.6h-5.8L205.5,95.3L205.5,95.3z"
	/>
<polygon fill="#EB2227" points="224.9,88.3 224.9,93.6 234.4,93.6 234.4,96.5 224.9,96.5 224.9,102.2 235,102.2 235,105.5 
	221,105.5 221,85.1 235,85.1 235,88.3 "/>
<path fill="#EB2227" d="M253,91h-3.8c0-0.2,0-0.3,0-0.4c-0.1-1.2-0.3-1.8-0.8-2.2c-0.4-0.3-1.4-0.5-2.9-0.5c-1.8,0-3,0.2-3.6,0.5
	c-0.5,0.3-0.8,1.1-0.8,2.2c0,1.3,0.2,2.1,0.7,2.3c0.5,0.2,2,0.5,4.5,0.6c3.1,0.2,5,0.6,5.9,1.3c0.9,0.7,1.3,2.1,1.3,4.4
	c0,2.7-0.5,4.5-1.5,5.2c-1.1,0.8-3.4,1.2-6.9,1.2c-3.2,0-5.3-0.4-6.4-1.2c-1.1-0.8-1.6-2.4-1.6-4.7v-0.8h3.8v0.5
	c0,1.5,0.2,2.3,0.8,2.6c0.5,0.3,1.8,0.5,4.1,0.5c1.8,0,2.8-0.2,3.3-0.5c0.5-0.4,0.7-1.2,0.7-2.5c0-1-0.2-1.6-0.5-2
	c-0.4-0.3-1.2-0.5-2.4-0.6l-2.1-0.2c-3.2-0.2-5.3-0.6-6.1-1.3c-0.9-0.7-1.4-2.2-1.4-4.5c0-2.4,0.5-4,1.6-4.8
	c1.1-0.8,3.2-1.2,6.5-1.2c3.1,0,5.1,0.4,6.2,1.1c1.1,0.7,1.6,2.1,1.6,4.2V91z"/>
<g>
	<defs>
		<rect id="SVGID_3_" x="671.6" y="22.8" width="245.9" height="100.5"/>
	</defs>
	<clipPath id="SVGID_4_">
		<use xlink:href="#SVGID_3_"  overflow="visible"/>
	</clipPath>
	<g transform="matrix(1 0 0 1 2.635596e-005 2.285776e-007)" clip-path="url(#SVGID_4_)">
		
			<image overflow="visible" enable-background="new    " width="1115" height="458" xlink:href="../../../koolabunglures_2012/gfx/svg/CBinfoSVG_1200/B0C7A322.jpg"  transform="matrix(0.2204 0 0 0.2205 671.7061 22.5063)">
		</image>
	</g>
</g>
<path fill="#2BACE2" stroke="#231F20" stroke-width="1.008" stroke-miterlimit="22.9256" d="M742,75.4c0,0.8-0.2,1.5-0.5,2.4
	c-0.4,0.8-0.9,1.7-1.7,2.5c-0.8,0.8-1.8,1.5-2.9,2c-1.2,0.5-2.6,0.8-4.1,0.8c-1.2,0-2.3-0.1-3.3-0.3c-1-0.2-1.8-0.6-2.7-1.1
	c-0.8-0.5-1.6-1.2-2.3-2.2c-0.5-0.5-1-1.2-1.5-2.1c-0.5-0.9-0.8-1.8-0.9-2.8c-0.2-1-0.3-2.1-0.3-3.1c0-1.8,0.2-3.5,0.8-4.9
	c0.5-1.5,1.3-2.7,2.3-3.7c1-1,2.1-1.8,3.5-2.4c1.3-0.5,2.8-0.8,4.3-0.8c1.8,0,3.5,0.4,4.9,1.1c1.5,0.8,2.5,1.7,3.3,2.8
	s1.2,2.2,1.2,3.1c0,0.6-0.2,1.2-0.6,1.6c-0.4,0.5-0.9,0.7-1.5,0.7c-0.7,0-1.2-0.2-1.5-0.5c-0.3-0.3-0.5-0.8-0.5-1.4
	c-0.9-1.2-1.8-2-2.5-2.5c-0.8-0.5-1.7-0.8-2.8-0.8c-1.8,0-3.1,0.7-4.1,2s-1.5,3.2-1.5,5.8c0,1.7,0.2,3.1,0.7,4.1
	c0.5,1.1,1.1,1.9,1.9,2.5c0.8,0.5,1.8,0.8,2.9,0.8c1.2,0,2.2-0.3,3.1-0.9c0.8-0.6,1.5-1.5,1.9-2.8c0.2-0.5,0.5-1.1,0.8-1.5
	c0.3-0.4,0.8-0.6,1.6-0.6c0.6,0,1.2,0.2,1.6,0.6C741.8,74.3,742,74.8,742,75.4L742,75.4z M755.9,59.6c2.4,0,4.4,0.5,6.1,1.5
	s3,2.3,3.8,4.1c0.8,1.8,1.3,3.8,1.3,6.2c0,1.8-0.2,3.3-0.7,4.8c-0.5,1.5-1.2,2.7-2.1,3.8s-2.1,1.8-3.5,2.5c-1.4,0.5-3,0.8-4.8,0.8
	s-3.4-0.3-4.8-0.8c-1.4-0.5-2.6-1.4-3.5-2.5s-1.7-2.3-2.1-3.8c-0.5-1.5-0.7-3.1-0.7-4.8c0-1.8,0.2-3.3,0.8-4.8
	c0.5-1.5,1.2-2.7,2.1-3.7c0.9-1,2.2-1.8,3.5-2.4C752.7,59.9,754.2,59.6,755.9,59.6L755.9,59.6z M761.9,71.3c0-1.5-0.2-2.9-0.8-4.1
	c-0.5-1.2-1.2-2-2.1-2.5c-0.9-0.6-2-0.8-3.1-0.8c-0.8,0-1.6,0.2-2.4,0.5c-0.7,0.3-1.3,0.8-1.8,1.4c-0.5,0.6-0.9,1.4-1.2,2.4
	c-0.3,1-0.5,2.1-0.5,3.3c0,1.2,0.2,2.3,0.5,3.3c0.3,1,0.7,1.8,1.3,2.5c0.5,0.6,1.2,1.1,1.8,1.4c0.7,0.3,1.5,0.5,2.4,0.5
	c1.1,0,2.1-0.2,3-0.8c0.9-0.5,1.6-1.4,2.2-2.5C761.7,74.4,761.9,73,761.9,71.3L761.9,71.3z M773.9,60h5.8c1.5,0,2.8,0.2,4,0.5
	c1.2,0.3,2.2,0.9,3.1,1.8c2.3,1.9,3.5,4.9,3.5,9.1c0,1.3-0.2,2.6-0.4,3.7c-0.2,1.2-0.6,2.1-1.1,3.1s-1.1,1.7-1.8,2.2
	c-0.7,0.7-1.4,1.2-2.1,1.5c-0.8,0.3-1.5,0.5-2.3,0.7c-0.8,0.2-1.8,0.2-2.8,0.2H774c-0.8,0-1.5-0.2-2-0.5c-0.5-0.3-0.8-0.7-0.9-1.2
	c-0.2-0.5-0.2-1.2-0.2-1.8V63.1c0-1.1,0.2-1.8,0.8-2.3C772.1,60.2,772.8,60,773.9,60L773.9,60z M776,64.1v14.4h3.1
	c0.8,0,1.3,0,1.7-0.1c0.4,0,0.8-0.2,1.2-0.3c0.5-0.2,0.8-0.3,1-0.5c1.5-1.3,2.2-3.5,2.2-6.5c0-2.2-0.3-3.7-0.9-4.7
	c-0.6-1-1.4-1.7-2.3-2c-0.9-0.3-2.1-0.4-3.4-0.4L776,64.1L776,64.1z M803.9,82.7h-6.8c-1.1,0-1.8-0.2-2.3-0.8
	c-0.5-0.5-0.7-1.3-0.7-2.3V63.1c0-1.1,0.2-1.8,0.8-2.3c0.5-0.5,1.2-0.8,2.3-0.8h7.1c1.1,0,2,0.1,2.8,0.2c0.8,0.2,1.6,0.5,2.3,1
	c0.5,0.2,0.9,0.5,1.3,1.1c0.5,0.5,0.8,1.1,1,1.7c0.2,0.6,0.3,1.2,0.3,1.9c0,2.4-1.1,3.9-3.3,4.8c2.9,0.8,4.4,2.6,4.4,5.5
	c0,1.3-0.3,2.5-1,3.5c-0.7,1.1-1.6,1.8-2.8,2.4c-0.6,0.3-1.4,0.5-2.2,0.6C806.2,82.6,805.1,82.7,803.9,82.7L803.9,82.7z M803.6,72.9
	h-4.4v5.8h4.5c2.8,0,4.2-1,4.2-3c0-1-0.4-1.8-1.1-2.1C806.2,73.1,805.1,72.9,803.6,72.9L803.6,72.9z M799.3,64v5.1h3.8
	c1.1,0,1.9-0.1,2.5-0.3c0.5-0.2,1-0.5,1.2-1.1c0.2-0.4,0.3-0.8,0.3-1.2c0-1-0.4-1.6-1.1-2c-0.7-0.3-1.8-0.5-3.5-0.5H799.3L799.3,64z
	 M829.8,80.2l-1-2.7h-8.5l-1,2.6c-0.5,1.2-0.8,1.9-1.2,2.4c-0.3,0.5-0.8,0.7-1.6,0.7c-0.6,0-1.2-0.2-1.7-0.7c-0.5-0.5-0.8-1-0.8-1.6
	c0-0.3,0.1-0.7,0.2-1c0.1-0.3,0.3-0.8,0.5-1.4l5.7-14.4c0.2-0.4,0.4-0.9,0.6-1.5c0.2-0.6,0.5-1.1,0.8-1.5s0.6-0.8,1.2-1
	c0.5-0.2,1-0.4,1.7-0.4c0.7,0,1.2,0.2,1.7,0.4c0.5,0.2,0.8,0.6,1.2,1c0.3,0.4,0.5,0.8,0.7,1.2c0.2,0.4,0.4,0.9,0.6,1.6l5.8,14.4
	c0.5,1.2,0.7,1.9,0.7,2.5c0,0.6-0.2,1.2-0.8,1.6c-0.5,0.5-1.1,0.8-1.8,0.8c-0.4,0-0.8-0.1-1.1-0.2c-0.3-0.2-0.5-0.3-0.8-0.6
	c-0.2-0.2-0.4-0.6-0.6-1.2C830.1,80.7,829.9,80.3,829.8,80.2L829.8,80.2z M821.5,73.4h6l-3-8.5L821.5,73.4L821.5,73.4z M838.5,80
	V62.6c0-1,0.2-1.8,0.7-2.2c0.5-0.5,1.1-0.8,1.8-0.8c0.8,0,1.4,0.2,1.8,0.8c0.5,0.5,0.7,1.2,0.7,2.2V80c0,1-0.2,1.8-0.7,2.3
	c-0.5,0.5-1.1,0.8-1.8,0.8c-0.8,0-1.4-0.2-1.8-0.8C838.7,81.8,838.5,81,838.5,80L838.5,80z M862.8,64.3h-4.6V80c0,1-0.2,1.8-0.7,2.3
	c-0.5,0.5-1.1,0.8-1.8,0.8c-0.8,0-1.4-0.2-1.8-0.8c-0.5-0.5-0.7-1.3-0.7-2.3V64.3h-4.6c-0.8,0-1.5-0.2-1.9-0.6
	c-0.5-0.4-0.6-0.9-0.6-1.5c0-0.7,0.2-1.2,0.7-1.6c0.5-0.4,1.1-0.6,1.9-0.6h14.2c0.8,0,1.5,0.2,1.9,0.6c0.5,0.4,0.7,0.9,0.7,1.5
	s-0.2,1.2-0.7,1.5C864.3,64.1,863.7,64.3,862.8,64.3z"/>
<g>
	<defs>
		<rect id="SVGID_2_" x="46.7" y="141.5" width="445.4" height="183.5"/>
	</defs>
	<clipPath id="SVGID_5_">
		<use xlink:href="#SVGID_2_"  overflow="visible"/>
	</clipPath>
	<g transform="matrix(1 0 0 1 -3.700643e-008 1.537981e-005)" clip-path="url(#SVGID_5_)">
		
			<image overflow="visible" enable-background="new    " width="1678" height="693" xlink:href="../../../koolabunglures_2012/gfx/svg/CBinfoSVG_1200/B0C7A326.jpg"  transform="matrix(0.2653 0 0 0.2652 46.7456 141.3476)">
		</image>
	</g>
</g>
<polygon fill="#231F20" points="137.3,226.1 137.3,234.7 135.6,234.7 135.6,227.5 133.4,229.8 132.4,228.7 135.2,226.1 "/>
<path fill="#231F20" d="M146.9,233.4v1.3h-6.5v-1.8c0-0.9,0.2-1.5,0.5-1.8c0.3-0.3,1.1-0.5,2.3-0.8c1-0.2,1.6-0.4,1.8-0.5
	c0.2-0.2,0.3-0.5,0.3-1.2s-0.1-1-0.3-1.2c-0.2-0.2-0.6-0.2-1.3-0.2c-0.7,0-1.2,0.1-1.4,0.2c-0.2,0.2-0.3,0.5-0.3,1.2v0.4h-1.6v-0.4
	c0-1.1,0.2-1.8,0.7-2.1c0.5-0.4,1.3-0.5,2.6-0.5c1.2,0,2.1,0.2,2.5,0.5s0.7,1.1,0.7,2.1c0,1-0.2,1.7-0.5,2c-0.3,0.3-1.2,0.6-2.4,0.8
	c-1,0.2-1.6,0.3-1.8,0.5c-0.2,0.2-0.2,0.5-0.2,1.1v0.2L146.9,233.4L146.9,233.4z"/>
<path fill="#231F20" d="M151.8,226c1.6,0,2.5,0.2,2.9,0.7c0.4,0.5,0.5,1.7,0.5,3.7c0,2-0.2,3.2-0.5,3.7s-1.4,0.7-2.9,0.7
	c-1.6,0-2.5-0.2-2.9-0.7s-0.5-1.7-0.5-3.7c0-2,0.2-3.2,0.5-3.7C149.3,226.2,150.2,226,151.8,226L151.8,226z M151.6,227.5
	c-0.8,0-1.2,0.1-1.5,0.3s-0.3,0.7-0.3,1.5v1.2v1.1c0,0.8,0.1,1.4,0.3,1.6c0.2,0.2,0.7,0.3,1.5,0.3s1.4-0.2,1.6-0.5
	c0.2-0.3,0.2-1.2,0.2-2.6c0-1.5-0.1-2.3-0.2-2.5C153.3,227.5,152.6,227.5,151.6,227.5z"/>
<path fill="#231F20" d="M156.6,228.7h1.5v0.9l0,0c0.3-0.7,0.9-1,1.8-1c1.1,0,1.7,0.4,1.8,1.2l0,0c0.3-0.8,0.9-1.2,1.8-1.2
	c1.4,0,2.1,0.7,2.1,2.1v4h-1.5V231c0-0.8-0.4-1.3-1.1-1.3c-0.8,0-1.3,0.5-1.3,1.5v3.5h-1.5v-3.8c0-0.5-0.1-0.8-0.2-1
	c-0.2-0.2-0.4-0.2-0.8-0.2c-0.9,0-1.3,0.5-1.3,1.5v3.5h-1.5L156.6,228.7L156.6,228.7z"/>
<path fill="#231F20" d="M167.1,228.7h1.5l-0.1,0.9l0,0c0.3-0.7,0.9-1,1.8-1c1.1,0,1.7,0.4,1.8,1.2l0,0c0.3-0.8,0.9-1.2,1.8-1.2
	c1.4,0,2.1,0.7,2.1,2.1v4h-1.5V231c0-0.8-0.4-1.3-1.1-1.3c-0.8,0-1.3,0.5-1.3,1.5v3.5h-1.5v-3.8c0-0.5-0.1-0.8-0.2-1
	c-0.2-0.2-0.4-0.2-0.8-0.2c-0.9,0-1.3,0.5-1.3,1.5v3.5h-1.5v-5.9H167.1z"/>
<path fill="#231F20" d="M191,226.1v8.6h-1.6V230c0-0.4,0-0.8,0-1.3v-0.6v-0.6h-0.1l-0.2,0.6l-0.2,0.6c-0.2,0.5-0.3,0.9-0.4,1.2
	l-1.9,4.8h-1.5l-1.9-4.8c-0.1-0.2-0.2-0.7-0.4-1.2l-0.2-0.6l-0.2-0.6h-0.1v0.6v0.6c0,0.5,0,0.9,0,1.2v4.7h-1.6V226h2.7l1.5,4
	c0.1,0.3,0.2,0.7,0.4,1.2l0.2,0.6l0.2,0.6h0.1l0.2-0.6l0.2-0.6c0.2-0.5,0.3-0.9,0.4-1.2l1.5-4H191z"/>
<path fill="#231F20" d="M196,226c1.5,0,2.5,0.2,3,0.8c0.5,0.5,0.7,1.7,0.7,3.5c0,2-0.2,3.2-0.7,3.7c-0.5,0.5-1.5,0.8-3.3,0.8
	c-1.5,0-2.6-0.2-3-0.8c-0.5-0.5-0.7-1.6-0.7-3.4c0-2.1,0.2-3.3,0.7-3.8C193.2,226.3,194.3,226,196,226L196,226z M195.9,227.4
	c-1.1,0-1.8,0.2-1.9,0.4c-0.2,0.3-0.3,1.2-0.3,2.9c0,1.2,0.1,2,0.3,2.2c0.2,0.2,0.8,0.4,1.9,0.4c1,0,1.6-0.2,1.8-0.5
	c0.2-0.3,0.3-1.2,0.3-2.6s-0.1-2.3-0.3-2.5C197.6,227.5,196.9,227.4,195.9,227.4z"/>
<path fill="#231F20" d="M200.9,234.7v-8.6h4.2c1.2,0,2.1,0.2,2.5,0.8c0.5,0.5,0.7,1.5,0.7,2.8c0,2.1-0.2,3.5-0.6,4.1
	s-1.2,0.9-2.6,0.9H200.9L200.9,234.7z M202.5,233.3h2.3c0.8,0,1.3-0.2,1.5-0.5c0.2-0.4,0.3-1.2,0.3-2.4c0-1.3-0.1-2.1-0.3-2.5
	c-0.2-0.3-0.7-0.5-1.5-0.5h-2.5L202.5,233.3L202.5,233.3z"/>
<polygon fill="#231F20" points="210.9,227.5 210.9,229.7 215,229.7 215,230.9 210.9,230.9 210.9,233.3 215.2,233.3 215.2,234.7 
	209.3,234.7 209.3,226.1 215.2,226.1 215.2,227.5 "/>
<polygon fill="#231F20" points="218.1,226.1 218.1,233.2 222.1,233.2 222.1,234.7 216.4,234.7 216.4,226.1 "/>
<g>
	<defs>
		<rect id="SVGID_1_" x="551.5" y="210.3" width="327.3" height="134.9"/>
	</defs>
	<clipPath id="SVGID_6_">
		<use xlink:href="#SVGID_1_"  overflow="visible"/>
	</clipPath>
	<g transform="matrix(1 0 0 1 -7.520503e-007 -6.064167e-006)" clip-path="url(#SVGID_6_)">
		
			<image overflow="visible" enable-background="new    " width="1236" height="511" xlink:href="../../../koolabunglures_2012/gfx/svg/CBinfoSVG_1200/B0C7A321.jpg"  transform="matrix(0.2647 0 0 0.2649 551.627 210.0894)">
		</image>
	</g>
</g>
<path fill="#231F20" d="M610.1,281.8h1.6c0,0.5,0.1,0.8,0.2,1c0.2,0.2,0.6,0.2,1.4,0.2c0.8,0,1.3-0.1,1.5-0.2
	c0.2-0.2,0.2-0.7,0.2-1.5v-1.2l0,0c-0.3,0.5-0.9,0.8-2,0.8c-1.2,0-2-0.2-2.4-0.5c-0.4-0.3-0.6-1-0.6-1.9c0-1.2,0.2-1.9,0.6-2.3
	c0.5-0.4,1.2-0.6,2.5-0.6c1.6,0,2.6,0.2,2.9,0.7c0.4,0.5,0.5,1.6,0.5,3.5c0,2.1-0.2,3.3-0.5,3.8c-0.4,0.5-1.3,0.7-2.9,0.7
	c-1.2,0-2.1-0.2-2.5-0.5c-0.5-0.3-0.7-0.9-0.7-1.8v-0.3H610.1z M613.4,276.9c-0.7,0-1.1,0.1-1.3,0.2c-0.2,0.2-0.3,0.5-0.3,1.2
	c0,0.6,0.1,1,0.3,1.1c0.2,0.2,0.6,0.2,1.4,0.2s1.2-0.1,1.5-0.2c0.2-0.2,0.3-0.5,0.3-1.1c0-0.6-0.1-1-0.3-1.2
	C614.7,277,614.2,276.9,613.4,276.9z"/>
<path fill="#231F20" d="M621.7,275.6c1.6,0,2.5,0.2,2.9,0.7c0.4,0.5,0.5,1.7,0.5,3.7c0,2-0.2,3.2-0.5,3.7c-0.4,0.5-1.3,0.7-2.9,0.7
	c-1.6,0-2.5-0.2-2.9-0.7c-0.4-0.5-0.5-1.7-0.5-3.7c0-2,0.2-3.2,0.5-3.7C619.1,275.8,620.1,275.6,621.7,275.6L621.7,275.6z
	 M621.5,277c-0.8,0-1.2,0.1-1.5,0.3c-0.2,0.2-0.3,0.7-0.3,1.5v1.2v1.1c0,0.8,0.1,1.4,0.3,1.6s0.7,0.3,1.5,0.3s1.4-0.2,1.6-0.5
	c0.2-0.3,0.2-1.2,0.2-2.6c0-1.5-0.1-2.3-0.2-2.5C623.1,277.1,622.5,277,621.5,277z"/>
<path fill="#231F20" d="M626.4,278.2h1.5v0.9l0,0c0.3-0.7,0.9-1,1.8-1c1.1,0,1.7,0.4,1.8,1.1l0,0c0.3-0.8,0.9-1.1,1.8-1.1
	c1.4,0,2.1,0.7,2.1,2.1v4H634v-3.7c0-0.8-0.4-1.3-1.1-1.3c-0.8,0-1.3,0.5-1.3,1.5v3.5h-1.5v-3.8c0-0.5-0.1-0.8-0.2-1
	s-0.4-0.2-0.8-0.2c-0.9,0-1.3,0.5-1.3,1.5v3.5h-1.5L626.4,278.2L626.4,278.2z"/>
<path fill="#231F20" d="M636.9,278.2h1.5v0.9l0,0c0.3-0.7,0.9-1,1.8-1c1.1,0,1.7,0.4,1.8,1.1l0,0c0.3-0.8,0.9-1.1,1.8-1.1
	c1.4,0,2.1,0.7,2.1,2.1v4h-1.5v-3.7c0-0.8-0.4-1.3-1.1-1.3c-0.8,0-1.3,0.5-1.3,1.5v3.5h-1.5v-3.8c0-0.5-0.1-0.8-0.2-1
	s-0.4-0.2-0.8-0.2c-0.9,0-1.3,0.5-1.3,1.5v3.5h-1.5L636.9,278.2L636.9,278.2z"/>
<path fill="#231F20" d="M660.8,275.7v8.6h-1.6v-4.7c0-0.4,0-0.8,0-1.3v-0.6v-0.6h-0.1l-0.2,0.6l-0.2,0.6c-0.2,0.5-0.3,0.9-0.4,1.2
	l-1.9,4.8H655l-1.9-4.8c-0.1-0.2-0.2-0.7-0.4-1.2l-0.2-0.6l-0.2-0.6h-0.1v0.6v0.6c0,0.5,0.1,0.9,0.1,1.2v4.7h-1.6v-8.6h2.7l1.5,4
	c0.1,0.3,0.2,0.7,0.4,1.2l0.2,0.6l0.2,0.6h0.1l0.2-0.6l0.2-0.6c0.2-0.5,0.3-0.9,0.4-1.2l1.5-4L660.8,275.7L660.8,275.7z"/>
<path fill="#231F20" d="M665.9,275.6c1.5,0,2.5,0.2,3,0.8c0.5,0.5,0.7,1.7,0.7,3.5c0,2-0.2,3.2-0.7,3.7c-0.5,0.5-1.5,0.8-3.3,0.8
	c-1.5,0-2.6-0.2-3-0.8c-0.4-0.5-0.7-1.6-0.7-3.4c0-2.1,0.2-3.3,0.7-3.8C663,275.8,664.1,275.6,665.9,275.6L665.9,275.6z M665.8,277
	c-1.1,0-1.8,0.2-1.9,0.4c-0.2,0.3-0.3,1.2-0.3,2.9c0,1.2,0.1,2,0.3,2.2s0.8,0.4,1.9,0.4c1,0,1.6-0.2,1.8-0.5
	c0.2-0.3,0.3-1.2,0.3-2.6s-0.1-2.3-0.3-2.5C667.5,277.1,666.8,277,665.8,277z"/>
<path fill="#231F20" d="M670.7,284.3v-8.6h4.2c1.2,0,2.1,0.2,2.5,0.8c0.5,0.5,0.7,1.5,0.7,2.8c0,2.2-0.2,3.5-0.6,4.1
	s-1.2,0.9-2.6,0.9H670.7L670.7,284.3z M672.3,282.9h2.3c0.8,0,1.3-0.2,1.5-0.5s0.3-1.2,0.3-2.4c0-1.3-0.1-2.1-0.3-2.4
	s-0.7-0.5-1.5-0.5h-2.5L672.3,282.9L672.3,282.9z"/>
<polygon fill="#231F20" points="680.9,277.1 680.9,279.3 684.9,279.3 684.9,280.5 680.9,280.5 680.9,282.9 685.1,282.9 685.1,284.3 
	679.2,284.3 679.2,275.7 685.1,275.7 685.1,277.1 "/>
<polygon fill="#231F20" points="687.9,275.7 687.9,282.8 692,282.8 692,284.3 686.3,284.3 686.3,275.7 "/>
<path fill="#B9D5EF" d="M178.7,370.4h599.8c15.5,0,28.3,8.4,28.3,18.7v83.2c0,10.3-12.7,18.7-28.3,18.7H178.7
	c-15.5,0-28.3-8.4-28.3-18.7v-83.2C150.5,378.8,163.2,370.4,178.7,370.4z"/>
<path fill="#231F20" d="M168.5,380.4v10.4h-1.3v-10.4h-3.8v-1.2h8.8v1.2H168.5L168.5,380.4z M182.7,379.2v11.6h-1.3v-5.4h-6.8v5.4
	h-1.3v-11.6h1.3v5.1h6.8v-5.1H182.7L182.7,379.2z M185.7,380.3v3.9h5.8v1.1h-5.8v4.3h6.1v1.1h-7.4V379h7.4v1.1h-6.1V380.3z
	 M208.4,386.9h1.3v0.5c0,1.6-0.3,2.5-0.8,2.9c-0.5,0.4-1.9,0.6-4.1,0.6c-1.9,0-3.1-0.4-3.7-1.1c-0.5-0.7-0.8-2.3-0.8-4.9
	c0-2,0.1-3.3,0.2-3.8s0.5-1,1-1.4c0.7-0.5,2.1-0.7,4.2-0.7c1.5,0,2.5,0.2,3,0.7c0.5,0.5,0.8,1.3,0.8,2.7v0.3h-1.3v-0.4
	c0-0.9-0.2-1.5-0.5-1.8c-0.3-0.2-1-0.4-2.1-0.4c-1.8,0-3,0.2-3.4,0.5c-0.4,0.3-0.6,1.2-0.6,2.6c0,3.2,0.2,5.1,0.4,5.7
	c0.3,0.5,1.2,0.8,2.8,0.8c1.5,0,2.5-0.2,2.8-0.4c0.4-0.2,0.5-0.8,0.5-1.8L208.4,386.9L208.4,386.9z M215.4,379
	c2.1,0,3.5,0.3,4.1,0.9c0.5,0.6,0.8,2.2,0.8,4.8c0,2.8-0.2,4.5-0.8,5.1s-1.9,1-4.1,1s-3.6-0.3-4.1-0.9c-0.5-0.6-0.8-2.3-0.8-4.9
	v-0.8V383c0-1.5,0.3-2.6,1-3.1C212.2,379.4,213.5,379,215.4,379L215.4,379z M215.4,380.2c-1.8,0-2.9,0.2-3.2,0.6
	c-0.3,0.4-0.5,1.8-0.5,4.1c0,2.4,0.2,3.8,0.5,4.2c0.3,0.4,1.4,0.6,3.2,0.6s2.9-0.2,3.2-0.6c0.3-0.4,0.5-1.8,0.5-4.2v-0.8v-1.1
	c0-1.3-0.2-2.1-0.6-2.5C218,380.4,217,380.2,215.4,380.2L215.4,380.2z M221.8,390.7v-11.6h5.4c1.7,0,2.8,0.4,3.4,1.1
	c0.6,0.7,0.8,2.2,0.8,4.1c0,2.5-0.2,4.1-0.8,5c-0.5,0.8-1.5,1.2-3.1,1.2h-5.7V390.7z M223.1,389.6h3.8c1.4,0,2.3-0.3,2.7-0.8
	c0.4-0.5,0.6-1.8,0.6-3.7c0-2.1-0.2-3.5-0.5-4c-0.4-0.5-1.2-0.8-2.5-0.8h-4.1V389.6L223.1,389.6z M233.1,390.7v-11.6h5.1
	c1.4,0,2.4,0.2,2.8,0.6c0.5,0.4,0.7,1.2,0.7,2.5c0,1.3-0.5,2.1-1.5,2.5l0,0c1.2,0.3,1.8,1.2,1.8,2.7c0,1.2-0.2,2.1-0.7,2.6
	c-0.5,0.5-1.3,0.8-2.5,0.8H233.1L233.1,390.7z M234.4,384.3h3.5c1.1,0,1.8-0.2,2.1-0.4c0.3-0.2,0.5-0.8,0.5-1.8
	c0-0.8-0.2-1.3-0.4-1.5c-0.3-0.2-0.8-0.3-1.8-0.3h-3.8V384.3L234.4,384.3z M234.4,389.6h2.8h1.2c1,0,1.6-0.2,1.9-0.4
	s0.5-0.8,0.5-1.6c0-1-0.2-1.7-0.5-1.9c-0.3-0.2-1.2-0.4-2.5-0.4h-3.4L234.4,389.6L234.4,389.6z M250.9,388.3h-5.8l-0.9,2.5h-1.4
	l4.2-11.6h1.8l4.3,11.6h-1.3L250.9,388.3L250.9,388.3z M250.5,387.3l-2.5-7.1l-2.5,7.1H250.5L250.5,387.3z M255.7,379.2v11.6h-1.3
	v-11.6H255.7L255.7,379.2z M262,380.4v10.4h-1.3v-10.4h-3.8v-1.2h8.8v1.2H262L262,380.4z M275.4,379.2v10.4h5.9v1.2h-7.2v-11.6
	H275.4L275.4,379.2z M290.4,379.2h1.3v8.1c0,1.5-0.3,2.5-0.9,2.9c-0.6,0.5-1.8,0.7-3.7,0.7c-1.8,0-3-0.2-3.6-0.7
	c-0.6-0.5-0.9-1.3-0.9-2.5v-0.4v-8.1h1.3v8.1c0,1.1,0.2,1.8,0.5,2.1c0.4,0.3,1.2,0.4,2.6,0.4c1.5,0,2.5-0.2,2.8-0.4
	c0.4-0.3,0.5-1,0.5-2.1V379.2L290.4,379.2z M293.9,390.7v-11.6h5.5c1.2,0,2.1,0.2,2.6,0.8c0.5,0.5,0.8,1.4,0.8,2.5
	c0,1.1-0.2,1.8-0.4,2.2c-0.3,0.4-0.8,0.7-1.6,0.8l0,0c1.2,0.1,1.8,0.8,1.8,2.2v2.9h-1.3V388c0-1.4-0.6-2-1.8-2h-0.5h-3.9v4.7
	L293.9,390.7L293.9,390.7z M295.2,385h3.8c1,0,1.7-0.2,2-0.5c0.4-0.3,0.5-0.8,0.5-1.7c0-1.1-0.2-1.7-0.4-2.1
	c-0.3-0.3-0.8-0.5-1.7-0.5h-4.2V385L295.2,385z M305.5,380.3v3.9h5.8v1.1h-5.8v4.3h6.1v1.1h-7.4V379h7.4v1.1h-6.1V380.3z M330,379.2
	v11.6h-1.3v-5.4H322v5.4h-1.3v-11.6h1.3v5.1h6.8v-5.1H330L330,379.2z M339.3,388.3h-5.8l-0.9,2.5h-1.4l4.2-11.6h1.8l4.3,11.6h-1.4
	L339.3,388.3L339.3,388.3z M338.9,387.3l-2.5-7.1l-2.5,7.1H338.9L338.9,387.3z M350.7,382.3h-1.3c0-0.9-0.2-1.5-0.5-1.8
	c-0.3-0.2-1.1-0.4-2.2-0.4c-1.4,0-2.2,0.2-2.6,0.4c-0.4,0.2-0.6,0.8-0.6,1.6c0,0.9,0.2,1.5,0.5,1.7c0.3,0.2,1.2,0.3,2.8,0.4
	c1.8,0.1,2.9,0.3,3.5,0.7c0.5,0.4,0.8,1.2,0.8,2.5c0,1.5-0.3,2.4-0.8,2.8c-0.5,0.4-1.8,0.6-3.7,0.6c-1.7,0-2.8-0.2-3.3-0.6
	s-0.8-1.3-0.8-2.5v-0.5h1.3v0.3c0,1,0.2,1.7,0.5,1.9c0.3,0.2,1.2,0.4,2.5,0.4c1.5,0,2.4-0.2,2.8-0.4c0.3-0.2,0.5-0.9,0.5-2
	c0-0.7-0.2-1.2-0.4-1.4c-0.2-0.2-0.7-0.4-1.5-0.4l-1.4-0.1l-1.3-0.1c-2-0.2-2.9-1.2-2.9-3.1c0-1.3,0.3-2.2,0.8-2.6
	c0.5-0.5,1.7-0.7,3.4-0.7c1.7,0,2.8,0.2,3.4,0.6C350.4,380.1,350.7,381,350.7,382.3L350.7,382.3z M359.7,390.7v-11.6h5.1
	c1.4,0,2.4,0.2,2.8,0.6c0.5,0.4,0.7,1.2,0.7,2.5c0,1.3-0.5,2.1-1.5,2.5l0,0c1.2,0.3,1.8,1.2,1.8,2.7c0,1.2-0.2,2.1-0.7,2.6
	c-0.5,0.5-1.3,0.8-2.5,0.8H359.7L359.7,390.7z M361,384.3h3.5c1.1,0,1.8-0.2,2.1-0.4c0.3-0.2,0.5-0.8,0.5-1.8c0-0.8-0.2-1.3-0.4-1.5
	c-0.3-0.2-0.8-0.3-1.8-0.3H361V384.3L361,384.3z M361,389.6h2.8h1.2c1,0,1.6-0.2,1.9-0.4c0.3-0.2,0.5-0.8,0.5-1.6
	c0-1-0.2-1.7-0.5-1.9c-0.3-0.2-1.2-0.4-2.5-0.4H361L361,389.6L361,389.6z M371.3,380.3v3.9h5.8v1.1h-5.8v4.3h6.1v1.1H370V379h7.4
	v1.1h-6.1V380.3z M379.9,380.3v3.9h5.8v1.1h-5.8v4.3h6.1v1.1h-7.4V379h7.4v1.1h-6.1V380.3z M397.6,379.2v11.6h-2.2l-4.8-7.8
	l-0.8-1.3l-0.4-0.6l-0.4-0.6l0,0v0.5v0.5v0.8v8.7h-1.3v-11.6h2.2l4.2,6.9l1.1,1.8l0.5,0.9l0.5,0.9l0,0v-0.5V389v-0.8v-8.8h1.3V379.2
	z M407.1,390.7v-11.6h5.4c1.7,0,2.8,0.4,3.4,1.1c0.6,0.7,0.8,2.2,0.8,4.1c0,2.5-0.2,4.1-0.8,5s-1.5,1.2-3.1,1.2h-5.7V390.7z
	 M408.4,389.6h3.8c1.4,0,2.3-0.3,2.7-0.8c0.4-0.5,0.6-1.8,0.6-3.7c0-2.1-0.2-3.5-0.5-4c-0.4-0.5-1.2-0.8-2.5-0.8h-4.1V389.6
	L408.4,389.6z M419.3,380.3v3.9h5.8v1.1h-5.8v4.3h6.1v1.1H418V379h7.4v1.1h-6.1V380.3z M435,382.3h-1.3c0-0.9-0.2-1.5-0.5-1.8
	c-0.3-0.2-1.1-0.4-2.2-0.4c-1.4,0-2.2,0.2-2.6,0.4c-0.4,0.2-0.6,0.8-0.6,1.6c0,0.9,0.2,1.5,0.5,1.7c0.3,0.2,1.2,0.3,2.8,0.4
	c1.8,0.1,2.9,0.3,3.5,0.7c0.5,0.4,0.8,1.2,0.8,2.5c0,1.5-0.3,2.4-0.8,2.8c-0.5,0.4-1.8,0.6-3.7,0.6c-1.7,0-2.8-0.2-3.3-0.6
	c-0.5-0.4-0.8-1.3-0.8-2.5v-0.5h1.3v0.3c0,1,0.2,1.7,0.5,1.9c0.3,0.2,1.2,0.4,2.5,0.4c1.5,0,2.4-0.2,2.8-0.4c0.3-0.2,0.5-0.9,0.5-2
	c0-0.7-0.2-1.2-0.4-1.4c-0.2-0.2-0.7-0.4-1.5-0.4l-1.4-0.1l-1.3-0.1c-2-0.2-2.9-1.2-2.9-3.1c0-1.3,0.3-2.2,0.8-2.6
	c0.5-0.5,1.7-0.7,3.4-0.7c1.7,0,2.8,0.2,3.4,0.6C434.8,380.1,435,381,435,382.3L435,382.3z M438.1,379.2v11.6h-1.3v-11.6H438.1
	L438.1,379.2z M444.4,385h5c0,0.3,0,0.7,0,1.2c0,2.1-0.2,3.4-0.8,3.8s-1.8,0.8-4,0.8c-2.1,0-3.4-0.3-3.9-0.8
	c-0.6-0.6-0.8-1.9-0.8-3.9v-1.7v-1c0-1.7,0.3-2.8,1-3.4c0.6-0.5,1.9-0.8,3.9-0.8c2,0,3.2,0.2,3.8,0.5c0.5,0.4,0.8,1.2,0.8,2.5v0.5
	h-1.3v-0.3c0-0.9-0.2-1.5-0.6-1.8c-0.4-0.2-1.4-0.3-3-0.3c-1.5,0-2.5,0.2-2.8,0.5c-0.4,0.4-0.5,1.2-0.5,2.7v1.5v1.6
	c0,1.5,0.2,2.4,0.6,2.7c0.4,0.3,1.5,0.5,3.4,0.5c1.4,0,2.2-0.2,2.6-0.5c0.3-0.3,0.5-1.2,0.5-2.5c0-0.1,0-0.3-0.1-0.7h-3.7L444.4,385
	L444.4,385z M460.9,379.2v11.6h-2.1L454,383l-0.8-1.3l-0.4-0.6l-0.4-0.6l0,0v0.5v0.5v0.8v8.7h-1.3v-11.6h2.1l4.2,6.9l1.1,1.8
	l0.5,0.9l0.5,0.9l0,0v-0.5V389v-0.8v-8.8h1.3V379.2z M463.9,380.3v3.9h5.8v1.1h-5.8v4.3h6.1v1.1h-7.4V379h7.4v1.1h-6.1V380.3z
	 M471.8,390.7v-11.6h5.4c1.7,0,2.8,0.4,3.4,1.1c0.6,0.7,0.8,2.2,0.8,4.1c0,2.5-0.2,4.1-0.8,5c-0.5,0.8-1.5,1.2-3.1,1.2h-5.7V390.7z
	 M473.1,389.6h3.8c1.4,0,2.3-0.3,2.7-0.8c0.4-0.5,0.6-1.8,0.6-3.7c0-2.1-0.2-3.5-0.5-4c-0.4-0.5-1.2-0.8-2.5-0.8h-4.1V389.6
	L473.1,389.6z M498.3,382.3H497c0-0.9-0.2-1.5-0.5-1.8c-0.3-0.2-1.1-0.4-2.2-0.4c-1.4,0-2.2,0.2-2.6,0.4c-0.4,0.2-0.6,0.8-0.6,1.6
	c0,0.9,0.2,1.5,0.5,1.7c0.3,0.2,1.2,0.3,2.8,0.4c1.8,0.1,2.9,0.3,3.5,0.7c0.5,0.4,0.8,1.2,0.8,2.5c0,1.5-0.3,2.4-0.8,2.8
	c-0.5,0.4-1.8,0.6-3.7,0.6c-1.7,0-2.8-0.2-3.3-0.6s-0.8-1.3-0.8-2.5v-0.5h1.3v0.3c0,1,0.2,1.7,0.5,1.9c0.3,0.2,1.2,0.4,2.5,0.4
	c1.5,0,2.4-0.2,2.8-0.4c0.3-0.2,0.5-0.9,0.5-2c0-0.7-0.2-1.2-0.4-1.4c-0.2-0.2-0.7-0.4-1.5-0.4l-1.4-0.1l-1.3-0.1
	c-2-0.2-2.9-1.2-2.9-3.1c0-1.3,0.3-2.2,0.8-2.6c0.5-0.5,1.7-0.7,3.4-0.7c1.7,0,2.8,0.2,3.4,0.6C498,380.1,498.3,381,498.3,382.3
	L498.3,382.3z M500.1,390.7v-11.6h4.8h0.5c1.3,0,2.2,0.2,2.7,0.8c0.5,0.5,0.7,1.5,0.7,2.8c0,1.3-0.2,2.2-0.8,2.7
	c-0.5,0.5-1.5,0.7-2.8,0.7h-0.5h-3.3v4.5L500.1,390.7L500.1,390.7z M501.4,385.1h3.1c1.3,0,2.2-0.2,2.5-0.4c0.4-0.2,0.5-0.8,0.5-1.8
	c0-1.2-0.2-1.8-0.4-2.1c-0.2-0.3-0.8-0.5-1.8-0.5h-0.5h-3.4V385.1L501.4,385.1z M511.2,380.3v3.9h5.8v1.1h-5.8v4.3h6.1v1.1h-7.4V379
	h7.4v1.1h-6.1V380.3z M526.5,386.9h1.3v0.5c0,1.6-0.2,2.5-0.8,2.9c-0.5,0.4-1.9,0.6-4.1,0.6c-1.9,0-3.1-0.4-3.7-1.1
	c-0.5-0.7-0.8-2.3-0.8-4.9c0-2,0.1-3.3,0.2-3.8c0.2-0.5,0.5-1,1-1.4c0.7-0.5,2.1-0.7,4.2-0.7c1.5,0,2.5,0.2,3,0.7
	c0.5,0.5,0.8,1.3,0.8,2.7v0.3h-1.3v-0.4c0-0.9-0.2-1.5-0.5-1.8c-0.3-0.2-1-0.4-2.1-0.4c-1.8,0-3,0.2-3.4,0.5
	c-0.4,0.3-0.6,1.2-0.6,2.6c0,3.2,0.2,5.1,0.4,5.7c0.3,0.5,1.2,0.8,2.8,0.8c1.5,0,2.5-0.2,2.8-0.4c0.4-0.2,0.5-0.8,0.5-1.8
	L526.5,386.9L526.5,386.9z M530.6,379.2v11.6h-1.3v-11.6H530.6L530.6,379.2z M534.1,380.3v4.1h5.6v1.1h-5.6v5.3h-1.3v-11.6h7.1v1.1
	L534.1,380.3L534.1,380.3z M542.6,379.2v11.6h-1.3v-11.6H542.6L542.6,379.2z M552.5,386.9h1.3v0.5c0,1.6-0.3,2.5-0.8,2.9
	c-0.5,0.4-1.9,0.6-4.1,0.6c-1.9,0-3.1-0.4-3.7-1.1c-0.5-0.7-0.8-2.3-0.8-4.9c0-2,0.1-3.3,0.2-3.8c0.1-0.5,0.5-1,1-1.4
	c0.7-0.5,2.1-0.7,4.2-0.7c1.5,0,2.5,0.2,3,0.7c0.5,0.5,0.8,1.3,0.8,2.7v0.3h-1.3v-0.4c0-0.9-0.2-1.5-0.5-1.8c-0.3-0.2-1-0.4-2.1-0.4
	c-1.8,0-3,0.2-3.4,0.5c-0.4,0.3-0.6,1.2-0.6,2.6c0,3.2,0.2,5.1,0.4,5.7c0.3,0.5,1.2,0.8,2.8,0.8c1.5,0,2.5-0.2,2.8-0.4
	c0.4-0.2,0.5-0.8,0.5-1.8L552.5,386.9L552.5,386.9z M562.3,388.3h-5.8l-0.9,2.5h-1.4l4.2-11.6h1.8l4.3,11.6h-1.4L562.3,388.3
	L562.3,388.3z M561.9,387.3l-2.5-7.1l-2.5,7.1H561.9L561.9,387.3z M567.1,379.2v10.4h5.9v1.2h-7.2v-11.6H567.1L567.1,379.2z
	 M575.4,379.2v10.4h5.9v1.2h-7.2v-11.6H575.4L575.4,379.2z M591.3,379.2h-1.5l-2.5,3.9l-0.5,0.8l-0.2,0.4c-0.1,0.1-0.2,0.2-0.2,0.4
	l0,0l-0.2-0.4c-0.1-0.2-0.2-0.3-0.2-0.4l-0.5-0.8l-2.5-3.9h-1.5l4.2,6.8v4.8h1.3v-4.9L591.3,379.2L591.3,379.2z M600.9,380.3v4.1
	h5.6v1.1h-5.6v5.3h-1.3v-11.6h7.1v1.1L600.9,380.3L600.9,380.3z M612.4,379c2.1,0,3.5,0.3,4.1,0.9c0.5,0.6,0.8,2.2,0.8,4.8
	c0,2.8-0.2,4.5-0.8,5.1c-0.5,0.6-1.9,1-4.1,1c-2.2,0-3.6-0.3-4.1-0.9c-0.5-0.6-0.8-2.3-0.8-4.9v-0.8V383c0-1.5,0.3-2.6,1-3.1
	C609.1,379.4,610.4,379,612.4,379L612.4,379z M612.3,380.2c-1.8,0-2.9,0.2-3.2,0.6c-0.3,0.4-0.5,1.8-0.5,4.1c0,2.4,0.2,3.8,0.5,4.2
	c0.3,0.4,1.4,0.6,3.2,0.6c1.8,0,2.9-0.2,3.2-0.6c0.3-0.4,0.5-1.8,0.5-4.2v-0.8v-1.1c0-1.3-0.2-2.1-0.6-2.5
	C614.9,380.4,613.9,380.2,612.3,380.2L612.3,380.2z M618.7,390.7v-11.6h5.5c1.2,0,2.1,0.2,2.6,0.8c0.5,0.5,0.8,1.4,0.8,2.5
	c0,1.1-0.2,1.8-0.4,2.2c-0.3,0.4-0.8,0.7-1.6,0.8l0,0c1.2,0.1,1.8,0.8,1.8,2.2v2.9h-1.3V388c0-1.4-0.6-2-1.8-2H624H620v4.7
	L618.7,390.7L618.7,390.7z M620,385h3.8c1,0,1.7-0.2,2-0.5c0.4-0.3,0.5-0.8,0.5-1.7c0-1.1-0.2-1.7-0.4-2.1c-0.3-0.3-0.8-0.5-1.7-0.5
	H620V385L620,385z M649.5,379.2v11.6h-1.3v-9.2v-0.7v-0.4v-0.4l0,0l-0.1,0.3c-0.1,0.2-0.1,0.2-0.1,0.2l-0.2,0.5l-3.9,9.6h-1.3
	l-3.9-9.4l-0.2-0.5l-0.1-0.3c0-0.1-0.1-0.2-0.1-0.2l0,0v0.3v0.3v0.6v9.2H637v-11.6h2.2l3.1,7.4l0.5,1.2l0.2,0.6l0.2,0.6l0,0l0.2-0.6
	c0.2-0.3,0.2-0.5,0.2-0.6l0.5-1.2l3.1-7.4L649.5,379.2L649.5,379.2z M659.6,379.2h1.3v8.1c0,1.5-0.3,2.5-0.9,2.9
	c-0.6,0.5-1.8,0.7-3.7,0.7c-1.8,0-3-0.2-3.6-0.7c-0.6-0.5-0.9-1.3-0.9-2.5v-0.4v-8.1h1.3v8.1c0,1.1,0.2,1.8,0.5,2.1
	c0.4,0.3,1.2,0.4,2.6,0.4c1.5,0,2.5-0.2,2.8-0.4c0.4-0.3,0.5-1,0.5-2.1V379.2L659.6,379.2z M663,390.7v-11.6h5.5
	c1.2,0,2.2,0.2,2.6,0.8c0.5,0.5,0.8,1.4,0.8,2.5c0,1.1-0.2,1.8-0.4,2.2c-0.3,0.4-0.8,0.7-1.6,0.8l0,0c1.2,0.1,1.8,0.8,1.8,2.2v2.9
	h-1.3V388c0-1.4-0.6-2-1.8-2h-0.5h-3.9v4.7L663,390.7L663,390.7z M664.3,385h3.8c1,0,1.7-0.2,2-0.5c0.4-0.3,0.5-0.8,0.5-1.7
	c0-1.1-0.2-1.7-0.4-2.1c-0.3-0.3-0.8-0.5-1.7-0.5h-4.2V385L664.3,385z M673.9,390.7v-11.6h5.5c1.2,0,2.2,0.2,2.6,0.8
	c0.5,0.5,0.8,1.4,0.8,2.5c0,1.1-0.2,1.8-0.4,2.2c-0.3,0.4-0.8,0.7-1.6,0.8l0,0c1.2,0.1,1.8,0.8,1.8,2.2v2.9h-1.3V388
	c0-1.4-0.6-2-1.8-2h-0.5h-3.9v4.7L673.9,390.7L673.9,390.7z M675.2,385h3.8c1,0,1.7-0.2,2-0.5c0.4-0.3,0.5-0.8,0.5-1.7
	c0-1.1-0.2-1.7-0.4-2.1c-0.3-0.3-0.8-0.5-1.7-0.5h-4.2V385L675.2,385z M691.8,388.3h-5.8l-0.9,2.5h-1.4l4.2-11.6h1.8l4.3,11.6h-1.4
	L691.8,388.3L691.8,388.3z M691.4,387.3l-2.5-7.1l-2.5,7.1H691.4L691.4,387.3z M704,379.2h-1.5l-2.5,3.9l-0.5,0.8l-0.2,0.4
	c-0.1,0.1-0.2,0.2-0.2,0.4l0,0l-0.2-0.4c-0.1-0.2-0.2-0.3-0.2-0.4l-0.5-0.8l-2.5-3.9h-1.5l4.2,6.8v4.8h1.3v-4.9L704,379.2L704,379.2
	z M719.9,386.9h1.3v0.5c0,1.6-0.3,2.5-0.8,2.9c-0.5,0.4-1.9,0.6-4.1,0.6c-1.9,0-3.1-0.4-3.7-1.1c-0.5-0.7-0.8-2.3-0.8-4.9
	c0-2,0.1-3.3,0.2-3.8c0.1-0.5,0.5-1,1-1.4c0.7-0.5,2.1-0.7,4.2-0.7c1.5,0,2.5,0.2,3,0.7c0.5,0.5,0.8,1.3,0.8,2.7v0.3h-1.3v-0.4
	c0-0.9-0.2-1.5-0.5-1.8c-0.3-0.2-1-0.4-2.1-0.4c-1.8,0-3,0.2-3.4,0.5c-0.4,0.3-0.6,1.2-0.6,2.6c0,3.2,0.2,5.1,0.4,5.7
	c0.3,0.5,1.2,0.8,2.8,0.8c1.5,0,2.5-0.2,2.8-0.4c0.4-0.2,0.5-0.8,0.5-1.8L719.9,386.9L719.9,386.9z M726.9,379
	c2.2,0,3.5,0.3,4.1,0.9c0.5,0.6,0.8,2.2,0.8,4.8c0,2.8-0.2,4.5-0.8,5.1c-0.5,0.6-1.9,1-4.1,1s-3.6-0.3-4.1-0.9
	c-0.5-0.6-0.8-2.3-0.8-4.9v-0.8V383c0-1.5,0.3-2.6,1-3.1C723.7,379.4,724.9,379,726.9,379L726.9,379z M726.9,380.2
	c-1.8,0-2.9,0.2-3.2,0.6c-0.3,0.4-0.5,1.8-0.5,4.1c0,2.4,0.2,3.8,0.5,4.2c0.3,0.4,1.4,0.6,3.2,0.6s2.9-0.2,3.2-0.6
	c0.3-0.4,0.5-1.8,0.5-4.2v-0.8v-1.1c0-1.3-0.2-2.1-0.6-2.5C729.5,380.4,728.5,380.2,726.9,380.2L726.9,380.2z M733.3,390.7v-11.6
	h5.4c1.7,0,2.8,0.4,3.4,1.1c0.6,0.7,0.8,2.2,0.8,4.1c0,2.5-0.2,4.1-0.8,5c-0.5,0.8-1.5,1.2-3.1,1.2h-5.7V390.7z M734.6,389.6h3.8
	c1.4,0,2.3-0.3,2.7-0.8c0.4-0.5,0.6-1.8,0.6-3.7c0-2.1-0.2-3.5-0.5-4c-0.4-0.5-1.2-0.8-2.5-0.8h-4.1V389.6L734.6,389.6z
	 M745.9,389.2v1.7c0,1.1-0.4,1.6-1.2,1.6c-0.1,0-0.2,0-0.3,0v-0.6c0.5,0,0.7-0.3,0.7-0.8v-0.3h-0.5v-1.5L745.9,389.2L745.9,389.2z
	 M771.5,379.2l-3.6,11.6h-2l-2.5-8.3l-0.3-1.1c0-0.1-0.1-0.2-0.2-0.5l-0.2-0.5l0,0l-0.2,0.5l-0.2,0.5l-0.3,1.1l-2.5,8.3h-1.9
	l-3.5-11.6h1.3l2.5,8.3l0.3,1.2c0,0.1,0.1,0.3,0.2,0.5l0.2,0.5l0,0l0.2-0.5l0.2-0.5l0.3-1.2l2.5-8.3h1.9l2.5,8.3l0.3,1.1l0.2,0.5
	l0.2,0.5l0,0l0.2-0.5l0.2-0.5l0.4-1.2l2.5-8.3L771.5,379.2L771.5,379.2z M773.9,379.2v11.6h-1.3v-11.6H773.9L773.9,379.2z
	 M780.2,380.4v10.4h-1.3v-10.4h-3.8v-1.2h8.8v1.2H780.2L780.2,380.4z M794.5,379.2v11.6h-1.3v-5.4h-6.8v5.4h-1.3v-11.6h1.3v5.1h6.8
	v-5.1H794.5L794.5,379.2z M171.5,406h-5.8l-0.9,2.5h-1.4l4.2-11.6h1.8l4.3,11.6h-1.4L171.5,406L171.5,406z M171.1,405l-2.5-7.1
	l-2.5,7.1H171.1L171.1,405z M184.9,408.5v-11.6h5.5c1.2,0,2.1,0.2,2.6,0.8c0.5,0.5,0.8,1.4,0.8,2.5c0,1.1-0.2,1.8-0.4,2.2
	c-0.3,0.4-0.8,0.7-1.6,0.8l0,0c1.2,0.1,1.8,0.8,1.8,2.2v2.9h-1.3v-2.7c0-1.4-0.6-2-1.8-2h-0.5h-3.9v4.7L184.9,408.5L184.9,408.5z
	 M186.2,402.7h3.8c1,0,1.7-0.2,2-0.5c0.4-0.3,0.5-0.8,0.5-1.7c0-1.1-0.2-1.7-0.4-2.1c-0.3-0.3-0.8-0.5-1.7-0.5h-4.2V402.7
	L186.2,402.7z M202.9,406H197l-0.9,2.5h-1.4l4.2-11.6h1.8l4.3,11.6h-1.4L202.9,406L202.9,406z M202.5,405l-2.5-7.1l-2.5,7.1H202.5
	L202.5,405z M216.1,396.9v11.6H214l-4.8-7.8l-0.8-1.3l-0.4-0.6l-0.4-0.6l0,0v0.5v0.5v0.8v8.7h-1.3V397h2.1l4.2,6.9l1.1,1.8l0.5,0.9
	l0.5,0.9l0,0v-0.5v-0.5v-0.8v-8.8h1.3V396.9z M222.4,402.7h5c0,0.3,0,0.7,0,1.2c0,2.1-0.2,3.4-0.8,3.8c-0.5,0.5-1.8,0.8-4,0.8
	c-2.1,0-3.4-0.3-3.9-0.8c-0.6-0.6-0.8-1.9-0.8-3.9v-1.7v-1c0-1.7,0.3-2.8,1-3.4c0.6-0.5,1.9-0.8,3.9-0.8c2,0,3.2,0.2,3.8,0.5
	c0.5,0.4,0.8,1.2,0.8,2.5v0.5h-1.3V400c0-0.9-0.2-1.5-0.6-1.8c-0.4-0.2-1.4-0.3-3-0.3c-1.5,0-2.5,0.2-2.8,0.5
	c-0.4,0.4-0.5,1.2-0.5,2.7v1.5v1.6c0,1.5,0.2,2.4,0.6,2.7c0.4,0.3,1.5,0.5,3.4,0.5c1.4,0,2.2-0.2,2.6-0.5c0.3-0.3,0.5-1.2,0.5-2.5
	c0-0.1,0-0.3-0.1-0.7h-3.7L222.4,402.7L222.4,402.7z M230,398v3.9h5.8v1.1H230v4.3h6.1v1.1h-7.4v-11.6h7.4v1.1H230V398z
	 M251.9,396.8c2.2,0,3.5,0.3,4.1,0.9c0.5,0.6,0.8,2.2,0.8,4.8c0,2.8-0.2,4.5-0.8,5.1c-0.5,0.6-1.9,1-4.1,1c-2.2,0-3.6-0.3-4.1-0.9
	c-0.5-0.6-0.8-2.3-0.8-4.9v-0.8v-1.1c0-1.5,0.3-2.6,1-3.1C248.7,397.1,250,396.8,251.9,396.8L251.9,396.8z M251.9,397.9
	c-1.8,0-2.9,0.2-3.2,0.6c-0.3,0.4-0.5,1.8-0.5,4.1c0,2.4,0.2,3.8,0.5,4.2c0.3,0.4,1.4,0.6,3.2,0.6c1.8,0,2.9-0.2,3.2-0.6
	c0.3-0.4,0.5-1.8,0.5-4.2v-0.8v-1.1c0-1.3-0.2-2.1-0.6-2.5C254.5,398.1,253.5,397.9,251.9,397.9L251.9,397.9z M259.6,398v4.1h5.6
	v1.1h-5.6v5.3h-1.3v-11.6h7.1v1.1L259.6,398L259.6,398z M284.3,404.6h1.3v0.5c0,1.6-0.3,2.5-0.8,2.9c-0.5,0.4-1.9,0.6-4.1,0.6
	c-1.9,0-3.1-0.4-3.7-1.1c-0.5-0.7-0.8-2.3-0.8-4.9c0-2,0.1-3.2,0.2-3.8c0.1-0.5,0.5-1,1-1.4c0.7-0.5,2.1-0.7,4.2-0.7
	c1.5,0,2.5,0.2,3,0.7s0.8,1.3,0.8,2.7v0.3h-1.3v-0.4c0-0.9-0.2-1.5-0.5-1.8s-1-0.4-2.1-0.4c-1.8,0-3,0.2-3.4,0.5
	c-0.4,0.3-0.6,1.2-0.6,2.6c0,3.2,0.2,5.1,0.4,5.7c0.3,0.5,1.2,0.8,2.8,0.8c1.5,0,2.5-0.2,2.8-0.4c0.4-0.2,0.5-0.8,0.5-1.8
	L284.3,404.6L284.3,404.6z M291.3,396.8c2.2,0,3.5,0.3,4.1,0.9s0.8,2.2,0.8,4.8c0,2.8-0.2,4.5-0.8,5.1c-0.5,0.6-1.9,1-4.1,1
	c-2.2,0-3.6-0.3-4.1-0.9c-0.5-0.6-0.8-2.3-0.8-4.9v-0.8v-1.1c0-1.5,0.3-2.6,1-3.1C288.2,397.1,289.5,396.8,291.3,396.8L291.3,396.8z
	 M291.3,397.9c-1.8,0-2.9,0.2-3.2,0.6c-0.3,0.4-0.5,1.8-0.5,4.1c0,2.4,0.2,3.8,0.5,4.2c0.3,0.4,1.4,0.6,3.2,0.6
	c1.8,0,2.9-0.2,3.2-0.6c0.3-0.4,0.5-1.8,0.5-4.2v-0.8v-1.1c0-1.3-0.2-2.1-0.6-2.5C293.9,398.1,292.9,397.9,291.3,397.9L291.3,397.9z
	 M299.1,396.9v10.4h5.9v1.2h-7.2v-11.6H299.1L299.1,396.9z M310.4,396.8c2.2,0,3.5,0.3,4.1,0.9c0.5,0.6,0.8,2.2,0.8,4.8
	c0,2.8-0.2,4.5-0.8,5.1c-0.5,0.6-1.9,1-4.1,1c-2.2,0-3.6-0.3-4.1-0.9c-0.5-0.6-0.8-2.3-0.8-4.9v-0.8v-1.1c0-1.5,0.3-2.6,1-3.1
	C307.2,397.1,308.5,396.8,310.4,396.8L310.4,396.8z M310.4,397.9c-1.8,0-2.9,0.2-3.2,0.6c-0.3,0.4-0.5,1.8-0.5,4.1
	c0,2.4,0.2,3.8,0.5,4.2c0.3,0.4,1.4,0.6,3.2,0.6c1.8,0,2.9-0.2,3.2-0.6c0.3-0.4,0.5-1.8,0.5-4.2v-0.8v-1.1c0-1.3-0.2-2.1-0.6-2.5
	C313,398.1,312,397.9,310.4,397.9L310.4,397.9z M324.6,396.9h1.3v8.1c0,1.5-0.3,2.5-0.9,2.9s-1.8,0.7-3.7,0.7c-1.8,0-3-0.2-3.6-0.7
	s-0.9-1.3-0.9-2.5V405v-8.1h1.3v8.1c0,1.1,0.2,1.8,0.5,2.1c0.4,0.3,1.2,0.4,2.6,0.4c1.5,0,2.5-0.2,2.8-0.4c0.4-0.3,0.5-1,0.5-2.1
	V396.9L324.6,396.9z M328.2,408.5v-11.6h5.5c1.2,0,2.2,0.2,2.6,0.8c0.5,0.5,0.8,1.4,0.8,2.5c0,1.1-0.2,1.8-0.4,2.2
	c-0.3,0.4-0.8,0.7-1.6,0.8l0,0c1.2,0.1,1.8,0.8,1.8,2.2v2.9h-1.4v-2.7c0-1.4-0.6-2-1.8-2h-0.5h-3.9v4.7L328.2,408.5L328.2,408.5z
	 M329.5,402.7h3.8c1,0,1.7-0.2,2-0.5c0.4-0.3,0.5-0.8,0.5-1.7c0-1.1-0.2-1.7-0.4-2.1c-0.3-0.3-0.8-0.5-1.7-0.5h-4.2V402.7
	L329.5,402.7z M346.9,400h-1.3c0-0.9-0.2-1.5-0.5-1.8c-0.3-0.2-1.1-0.4-2.2-0.4c-1.4,0-2.2,0.2-2.6,0.4c-0.4,0.2-0.6,0.8-0.6,1.6
	c0,0.9,0.2,1.5,0.5,1.7c0.3,0.2,1.2,0.3,2.8,0.4c1.8,0.1,2.9,0.3,3.5,0.7c0.5,0.4,0.8,1.2,0.8,2.5c0,1.5-0.3,2.4-0.8,2.8
	c-0.5,0.4-1.8,0.6-3.7,0.6c-1.7,0-2.8-0.2-3.3-0.6c-0.5-0.4-0.8-1.3-0.8-2.5v-0.5h1.3v0.3c0,1,0.2,1.7,0.5,1.9
	c0.3,0.2,1.2,0.4,2.5,0.4c1.5,0,2.4-0.2,2.8-0.4c0.3-0.2,0.5-0.9,0.5-2c0-0.7-0.2-1.2-0.4-1.4s-0.7-0.4-1.5-0.4l-1.4-0.1l-1.3-0.1
	c-2-0.2-2.9-1.2-2.9-3.1c0-1.3,0.3-2.2,0.8-2.6c0.5-0.5,1.7-0.7,3.4-0.7c1.7,0,2.8,0.2,3.4,0.6C346.6,397.8,346.9,398.7,346.9,400z"
	/>
<path fill="#231F20" d="M358.6,408.5v-11.6h5.4c1.7,0,2.8,0.4,3.4,1.1c0.6,0.7,0.8,2.1,0.8,4.1c0,2.5-0.2,4.1-0.8,5
	c-0.5,0.8-1.5,1.2-3.1,1.2h-5.7V408.5z M359.9,407.4h3.8c1.4,0,2.3-0.3,2.7-0.8c0.4-0.5,0.6-1.8,0.6-3.7c0-2.1-0.2-3.5-0.5-4
	c-0.4-0.5-1.2-0.8-2.5-0.8h-4.1V407.4L359.9,407.4z M370.8,398v3.9h5.8v1.1h-5.8v4.3h6.1v1.1h-7.4v-11.6h7.4v1.1h-6.1V398z
	 M386.1,396.9h1.4l-4.1,11.6h-1.8l-4.1-11.6h1.4l3.1,8.8l0.3,0.9c0.1,0.3,0.2,0.6,0.3,0.9l0,0c0.2-0.5,0.4-1.2,0.5-1.8L386.1,396.9
	L386.1,396.9z M389.3,398v3.9h5.8v1.1h-5.8v4.3h6.1v1.1H388v-11.6h7.4v1.1h-6.1V398z M398.4,396.9v10.4h5.9v1.2h-7.2v-11.6H398.4
	L398.4,396.9z M409.8,396.8c2.1,0,3.5,0.3,4.1,0.9c0.5,0.6,0.8,2.2,0.8,4.8c0,2.8-0.2,4.5-0.8,5.1c-0.5,0.6-1.9,1-4.1,1
	c-2.2,0-3.6-0.3-4.1-0.9c-0.5-0.6-0.8-2.3-0.8-4.9v-0.8v-1.1c0-1.5,0.3-2.6,1-3.1C406.6,397.1,407.9,396.8,409.8,396.8L409.8,396.8z
	 M409.7,397.9c-1.8,0-2.9,0.2-3.2,0.6c-0.3,0.4-0.5,1.8-0.5,4.1c0,2.4,0.2,3.8,0.5,4.2c0.3,0.4,1.4,0.6,3.2,0.6
	c1.8,0,2.9-0.2,3.2-0.6c0.3-0.4,0.5-1.8,0.5-4.2v-0.8v-1.1c0-1.3-0.2-2.1-0.6-2.5C412.3,398.1,411.3,397.9,409.7,397.9L409.7,397.9z
	 M416.2,408.5v-11.6h4.8h0.5c1.3,0,2.2,0.2,2.7,0.8c0.5,0.5,0.7,1.5,0.7,2.8c0,1.3-0.2,2.2-0.8,2.7c-0.5,0.5-1.5,0.7-2.8,0.7h-0.5
	h-3.3v4.5L416.2,408.5L416.2,408.5z M417.5,402.8h3.1c1.3,0,2.2-0.2,2.5-0.4c0.4-0.2,0.5-0.8,0.5-1.8c0-1.2-0.2-1.8-0.4-2.1
	c-0.2-0.3-0.8-0.5-1.8-0.5h-0.5h-3.5v4.8H417.5z M427.2,398v3.9h5.8v1.1h-5.8v4.3h6.1v1.1h-7.4v-11.6h7.4v1.1h-6.1V398z
	 M435.1,408.5v-11.6h5.4c1.7,0,2.8,0.4,3.4,1.1c0.6,0.7,0.8,2.1,0.8,4.1c0,2.5-0.2,4.1-0.8,5c-0.5,0.8-1.5,1.2-3.1,1.2h-5.7V408.5z
	 M436.4,407.4h3.8c1.4,0,2.3-0.3,2.7-0.8c0.4-0.5,0.6-1.8,0.6-3.7c0-2.1-0.2-3.5-0.5-4c-0.4-0.5-1.2-0.8-2.5-0.8h-4.1V407.4
	L436.4,407.4z M463.5,406h-5.8l-0.9,2.5h-1.4l4.2-11.6h1.8l4.3,11.6h-1.4L463.5,406L463.5,406z M463.1,405l-2.5-7.1L458,405H463.1
	L463.1,405z M476.8,396.9v11.6h-2.2l-4.8-7.8l-0.8-1.3l-0.4-0.6l-0.4-0.6l0,0v0.5v0.5v0.8v8.7h-1.4V397h2.1l4.2,6.9l1.1,1.8l0.5,0.9
	l0.5,0.9l0,0v-0.5v-0.5v-0.8v-8.8h1.4V396.9z M479,408.5v-11.6h5.4c1.7,0,2.8,0.4,3.4,1.1c0.6,0.7,0.8,2.1,0.8,4.1
	c0,2.5-0.2,4.1-0.8,5c-0.5,0.8-1.5,1.2-3.1,1.2H479V408.5z M480.3,407.4h3.8c1.4,0,2.3-0.3,2.7-0.8c0.4-0.5,0.6-1.8,0.6-3.7
	c0-2.1-0.2-3.5-0.5-4c-0.4-0.5-1.2-0.8-2.5-0.8h-4.1V407.4L480.3,407.4z M504.2,398.1v10.4h-1.3v-10.4h-3.8v-1.2h8.8v1.2H504.2
	L504.2,398.1z M510,398v3.9h5.8v1.1H510v4.3h6.1v1.1h-7.4v-11.6h7.4v1.1H510V398z M525.7,400h-1.3c0-0.9-0.2-1.5-0.5-1.8
	c-0.3-0.2-1.1-0.4-2.2-0.4c-1.4,0-2.2,0.2-2.6,0.4c-0.4,0.2-0.6,0.8-0.6,1.6c0,0.9,0.2,1.5,0.5,1.7c0.3,0.2,1.2,0.3,2.8,0.4
	c1.8,0.1,2.9,0.3,3.5,0.7c0.5,0.4,0.8,1.2,0.8,2.5c0,1.5-0.3,2.4-0.8,2.8c-0.5,0.4-1.8,0.6-3.7,0.6c-1.7,0-2.8-0.2-3.3-0.6
	c-0.5-0.4-0.8-1.3-0.8-2.5v-0.5h1.3v0.3c0,1,0.2,1.7,0.5,1.9c0.3,0.2,1.2,0.4,2.5,0.4c1.5,0,2.4-0.2,2.8-0.4c0.3-0.2,0.5-0.9,0.5-2
	c0-0.7-0.2-1.2-0.4-1.4s-0.7-0.4-1.5-0.4l-1.4-0.1l-1.3-0.1c-2-0.2-2.9-1.2-2.9-3.1c0-1.3,0.3-2.2,0.8-2.6c0.5-0.5,1.7-0.7,3.4-0.7
	s2.8,0.2,3.4,0.6C525.4,397.8,525.7,398.7,525.7,400L525.7,400z M531.5,398.1v10.4h-1.3v-10.4h-3.8v-1.2h8.8v1.2H531.5L531.5,398.1z
	 M537.3,398v3.9h5.8v1.1h-5.8v4.3h6.1v1.1H536v-11.6h7.4v1.1h-6.1V398z M545.1,408.5v-11.6h5.4c1.7,0,2.8,0.4,3.4,1.1
	c0.6,0.7,0.8,2.1,0.8,4.1c0,2.5-0.2,4.1-0.8,5c-0.5,0.8-1.5,1.2-3.1,1.2h-5.7V408.5z M546.4,407.4h3.8c1.4,0,2.3-0.3,2.7-0.8
	c0.4-0.5,0.6-1.8,0.6-3.7c0-2.1-0.2-3.5-0.5-4c-0.4-0.5-1.2-0.8-2.5-0.8h-4.1V407.4L546.4,407.4z M567.7,396.9v11.6h-1.3v-11.6
	H567.7L567.7,396.9z M579.8,396.9v11.6h-2.1l-4.8-7.8l-0.8-1.3l-0.4-0.6l-0.4-0.6l0,0v0.5v0.5v0.8v8.7H570V397h2.2l4.2,6.9l1.1,1.8
	l0.5,0.9l0.5,0.9l0,0v-0.5v-0.5v-0.8v-8.8h1.3V396.9z M599.5,404.6h1.3v0.5c0,1.6-0.2,2.5-0.8,2.9c-0.5,0.4-1.9,0.6-4.1,0.6
	c-1.9,0-3.1-0.4-3.7-1.1c-0.5-0.7-0.8-2.3-0.8-4.9c0-2,0.1-3.2,0.2-3.8c0.2-0.5,0.5-1,1-1.4c0.7-0.5,2.1-0.7,4.2-0.7
	c1.5,0,2.5,0.2,3,0.7c0.5,0.5,0.8,1.3,0.8,2.7v0.3h-1.3v-0.4c0-0.9-0.2-1.5-0.5-1.8s-1-0.4-2.1-0.4c-1.8,0-3,0.2-3.4,0.5
	c-0.4,0.3-0.6,1.2-0.6,2.6c0,3.2,0.2,5.1,0.4,5.7c0.3,0.5,1.2,0.8,2.8,0.8c1.5,0,2.5-0.2,2.8-0.4c0.4-0.2,0.5-0.8,0.5-1.8
	L599.5,404.6L599.5,404.6z M606.5,396.8c2.1,0,3.5,0.3,4.1,0.9c0.5,0.6,0.8,2.2,0.8,4.8c0,2.8-0.2,4.5-0.8,5.1c-0.5,0.6-1.9,1-4.1,1
	c-2.2,0-3.6-0.3-4.1-0.9c-0.5-0.6-0.8-2.3-0.8-4.9v-0.8v-1.1c0-1.5,0.3-2.6,1-3.1C603.3,397.1,604.6,396.8,606.5,396.8L606.5,396.8z
	 M606.5,397.9c-1.8,0-2.9,0.2-3.2,0.6c-0.3,0.4-0.5,1.8-0.5,4.1c0,2.4,0.2,3.8,0.5,4.2c0.3,0.4,1.4,0.6,3.2,0.6
	c1.8,0,2.9-0.2,3.2-0.6c0.3-0.4,0.5-1.8,0.5-4.2v-0.8v-1.1c0-1.3-0.2-2.1-0.6-2.5C609.1,398.1,608.1,397.9,606.5,397.9L606.5,397.9z
	 M622.8,396.9v11.6h-2.2l-4.8-7.8l-0.8-1.3l-0.4-0.6l-0.4-0.6l0,0v0.5v0.5v0.8v8.7H613V397h2.1l4.2,6.9l1.1,1.8l0.5,0.9l0.5,0.9l0,0
	v-0.5v-0.5v-0.8v-8.8h1.3V396.9z M631.5,396.9v8.1c0,1.4-0.2,2.3-0.8,2.8c-0.5,0.5-1.5,0.8-2.8,0.8c-1.4,0-2.3-0.2-2.8-0.6
	c-0.5-0.4-0.8-1.2-0.8-2.3c0-0.5,0-1,0-1.4h1.3v0.2v0.9c0,0.9,0.2,1.5,0.4,1.8c0.2,0.2,0.8,0.4,1.9,0.4c1,0,1.6-0.2,1.9-0.5
	c0.2-0.3,0.4-1,0.4-2.2v-7.9h1.2V396.9z M641.5,396.9h1.3v8.1c0,1.5-0.3,2.5-0.9,2.9s-1.8,0.7-3.7,0.7c-1.8,0-3-0.2-3.6-0.7
	c-0.6-0.5-0.9-1.3-0.9-2.5V405v-8.1h1.3v8.1c0,1.1,0.2,1.8,0.5,2.1c0.4,0.3,1.2,0.4,2.6,0.4c1.5,0,2.5-0.2,2.8-0.4
	c0.4-0.2,0.5-1,0.5-2.1V396.9L641.5,396.9z M654.9,396.9v11.6h-2.2l-4.8-7.8l-0.8-1.3l-0.4-0.6l-0.4-0.6l0,0v0.5v0.5v0.8v8.7h-1.3
	V397h2.2l4.2,6.9l1.1,1.8l0.5,0.9l0.5,0.9l0,0v-0.5v-0.5v-0.8v-8.8h1.3V396.9z M664.7,404.6h1.3v0.5c0,1.6-0.3,2.5-0.8,2.9
	c-0.5,0.4-1.9,0.6-4.1,0.6c-1.9,0-3.1-0.4-3.7-1.1c-0.5-0.7-0.8-2.3-0.8-4.9c0-2,0.1-3.2,0.2-3.8c0.1-0.5,0.5-1,1-1.4
	c0.7-0.5,2.1-0.7,4.2-0.7c1.5,0,2.5,0.2,3,0.7c0.5,0.5,0.8,1.3,0.8,2.7v0.3h-1.3v-0.4c0-0.9-0.2-1.5-0.5-1.8c-0.3-0.2-1-0.4-2.1-0.4
	c-1.8,0-3,0.2-3.4,0.5c-0.4,0.3-0.6,1.2-0.6,2.6c0,3.2,0.2,5.1,0.4,5.7c0.3,0.5,1.2,0.8,2.8,0.8c1.5,0,2.5-0.2,2.8-0.4
	c0.4-0.2,0.5-0.8,0.5-1.8L664.7,404.6L664.7,404.6z M671.5,398.1v10.4h-1.3v-10.4h-3.8v-1.2h8.8v1.2H671.5L671.5,398.1z
	 M677.7,396.9v11.6h-1.3v-11.6H677.7L677.7,396.9z M684.2,396.8c2.2,0,3.5,0.3,4.1,0.9c0.5,0.6,0.8,2.2,0.8,4.8
	c0,2.8-0.2,4.5-0.8,5.1c-0.5,0.6-1.9,1-4.1,1c-2.2,0-3.6-0.3-4.1-0.9c-0.5-0.6-0.8-2.3-0.8-4.9v-0.8v-1.1c0-1.5,0.3-2.6,1-3.1
	C681,397.1,682.2,396.8,684.2,396.8L684.2,396.8z M684.2,397.9c-1.8,0-2.9,0.2-3.2,0.6c-0.3,0.4-0.5,1.8-0.5,4.1
	c0,2.4,0.2,3.8,0.5,4.2c0.3,0.4,1.4,0.6,3.2,0.6c1.8,0,2.9-0.2,3.2-0.6c0.3-0.4,0.5-1.8,0.5-4.2v-0.8v-1.1c0-1.3-0.2-2.1-0.6-2.5
	C686.8,398.1,685.8,397.9,684.2,397.9L684.2,397.9z M700.4,396.9v11.6h-2.1l-4.8-7.8l-0.8-1.3l-0.4-0.6l-0.4-0.6l0,0v0.5v0.5v0.8
	v8.7h-1.3V397h2.1l4.2,6.9l1.1,1.8l0.5,0.9l0.5,0.9l0,0v-0.5v-0.5v-0.8v-8.8h1.3V396.9z M728.8,396.9l-3.6,11.6h-2l-2.5-8.3
	l-0.3-1.1c0-0.1-0.1-0.2-0.2-0.5l-0.2-0.5l0,0l-0.2,0.5l-0.2,0.5l-0.3,1.1l-2.5,8.3h-1.9l-3.5-11.6h1.3l2.5,8.3l0.3,1.2
	c0,0.1,0.1,0.3,0.2,0.5l0.2,0.5l0,0l0.2-0.5l0.2-0.5l0.3-1.2l2.5-8.3h1.9l2.5,8.3l0.3,1.1l0.2,0.5l0.2,0.5l0,0l0.2-0.5l0.2-0.5
	l0.4-1.2l2.5-8.3L728.8,396.9L728.8,396.9z M731.2,396.9v11.6h-1.3v-11.6H731.2L731.2,396.9z M737.5,398.1v10.4h-1.3v-10.4h-3.8
	v-1.2h8.8v1.2H737.5L737.5,398.1z M751.7,396.9v11.6h-1.3v-5.4h-6.8v5.4h-1.3v-11.6h1.3v5.1h6.8v-5.1H751.7L751.7,396.9z
	 M763.9,408.5v-11.6h5.5c1.2,0,2.1,0.2,2.6,0.8c0.5,0.5,0.8,1.4,0.8,2.5c0,1.1-0.2,1.8-0.4,2.2c-0.3,0.4-0.8,0.7-1.6,0.8l0,0
	c1.2,0.1,1.8,0.8,1.8,2.2v2.9h-1.3v-2.7c0-1.4-0.6-2-1.8-2h-0.5h-3.9v4.7L763.9,408.5L763.9,408.5z M765.2,402.7h3.8
	c1,0,1.7-0.2,2-0.5c0.4-0.3,0.5-0.8,0.5-1.7c0-1.1-0.2-1.7-0.4-2.1c-0.3-0.3-0.8-0.5-1.7-0.5h-4.2V402.7L765.2,402.7z M778.9,396.8
	c2.1,0,3.5,0.3,4.1,0.9c0.5,0.6,0.8,2.2,0.8,4.8c0,2.8-0.2,4.5-0.8,5.1c-0.5,0.6-1.9,1-4.1,1s-3.6-0.3-4.1-0.9
	c-0.5-0.6-0.8-2.3-0.8-4.9v-0.8v-1.1c0-1.5,0.3-2.6,1-3.1C775.8,397.1,777.1,396.8,778.9,396.8L778.9,396.8z M778.9,397.9
	c-1.8,0-2.9,0.2-3.2,0.6c-0.3,0.4-0.5,1.8-0.5,4.1c0,2.4,0.2,3.8,0.5,4.2c0.3,0.4,1.4,0.6,3.2,0.6s2.9-0.2,3.2-0.6
	c0.3-0.4,0.5-1.8,0.5-4.2v-0.8v-1.1c0-1.3-0.2-2.1-0.6-2.5C781.5,398.1,780.5,397.9,778.9,397.9L778.9,397.9z M785.4,408.5v-11.6
	h5.4c1.7,0,2.8,0.4,3.4,1.1c0.6,0.7,0.8,2.1,0.8,4.1c0,2.5-0.2,4.1-0.8,5c-0.5,0.8-1.5,1.2-3.1,1.2h-5.7V408.5z M786.7,407.4h3.8
	c1.4,0,2.3-0.3,2.7-0.8c0.4-0.5,0.6-1.8,0.6-3.7c0-2.1-0.2-3.5-0.5-4c-0.4-0.5-1.2-0.8-2.5-0.8h-4.1V407.4L786.7,407.4z
	 M177.1,414.6v11.6h-1.3V417v-0.7v-0.4v-0.4l0,0l-0.1,0.3c-0.1,0.2-0.1,0.2-0.1,0.2l-0.2,0.5l-3.9,9.6h-1.3l-3.9-9.4l-0.2-0.5
	l-0.1-0.3c0-0.1-0.1-0.2-0.1-0.2l0,0v0.3v0.3v0.6v9.2h-1.3v-11.6h2.2l3.1,7.4l0.5,1.2l0.2,0.6l0.2,0.6l0,0l0.2-0.6
	c0.2-0.3,0.2-0.5,0.2-0.6l0.5-1.2l3.1-7.4L177.1,414.6L177.1,414.6z M186.4,423.7h-5.8l-0.9,2.5h-1.4l4.2-11.6h1.8l4.3,11.6h-1.4
	L186.4,423.7L186.4,423.7z M186,422.7l-2.5-7.1l-2.5,7.1H186L186,422.7z M197.4,422.3h1.3v0.5c0,1.6-0.3,2.5-0.8,2.9
	c-0.5,0.4-1.9,0.6-4.1,0.6c-1.9,0-3.1-0.4-3.7-1.1c-0.5-0.7-0.8-2.3-0.8-4.9c0-2,0.1-3.3,0.2-3.8c0.2-0.5,0.5-1,1-1.4
	c0.7-0.5,2.1-0.7,4.2-0.7c1.5,0,2.5,0.2,3,0.7c0.5,0.5,0.8,1.3,0.8,2.7v0.3h-1.3v-0.4c0-0.9-0.2-1.5-0.5-1.8c-0.3-0.2-1-0.4-2.1-0.4
	c-1.8,0-3,0.2-3.4,0.5c-0.4,0.3-0.6,1.2-0.6,2.6c0,3.2,0.2,5.1,0.4,5.7c0.3,0.5,1.2,0.8,2.8,0.8c1.5,0,2.5-0.2,2.8-0.4
	s0.5-0.8,0.5-1.8L197.4,422.3L197.4,422.3z M201.5,414.6v5.1h1.2l4.8-5.1h1.7l-5.3,5.6l5.9,6h-1.8l-5.3-5.4h-1.2v5.4h-1.3v-11.6
	H201.5L201.5,414.6z M211.5,415.8v3.9h5.8v1.1h-5.8v4.3h6.1v1.1h-7.4v-11.6h7.4v1.1h-6.1V415.8z M229.1,414.6v11.6H227l-4.8-7.8
	l-0.8-1.3l-0.4-0.6l-0.4-0.6l0,0v0.5v0.5v0.8v8.7h-1.3v-11.6h2.1l4.2,6.9l1.1,1.8l0.5,0.9l0.5,0.9l0,0v-0.5v-0.5v-0.8v-8.8h1.3
	V414.6z M239.5,414.6v1.1l-7.3,9.4l0,0h7.4v1.1h-9V425l7.2-9.3l0,0h-7.1v-1.1L239.5,414.6L239.5,414.6z M242.5,414.6v11.6h-1.3
	v-11.6H242.5L242.5,414.6z M245.5,415.8v3.9h5.8v1.1h-5.8v4.3h6.1v1.1h-7.4v-11.6h7.4v1.1h-6.1V415.8z M261.4,415.8v4.1h5.6v1.1
	h-5.6v5.3h-1.3v-11.6h7.1v1.1L261.4,415.8L261.4,415.8z M268.7,426.2v-11.6h5.5c1.2,0,2.1,0.2,2.6,0.8c0.5,0.5,0.8,1.4,0.8,2.5
	c0,1.1-0.2,1.8-0.4,2.2c-0.3,0.4-0.8,0.7-1.6,0.8l0,0c1.2,0.1,1.8,0.8,1.8,2.2v2.9h-1.3v-2.6c0-1.4-0.6-2-1.8-2h-0.5H270v4.7H268.7
	L268.7,426.2z M270,420.4h3.8c1,0,1.7-0.2,2-0.5c0.4-0.3,0.5-0.8,0.5-1.7c0-1.1-0.2-1.7-0.4-2.1c-0.3-0.3-0.8-0.5-1.7-0.5H270V420.4
	L270,420.4z M283.7,414.5c2.1,0,3.5,0.3,4.1,0.9c0.5,0.6,0.8,2.2,0.8,4.8c0,2.8-0.2,4.5-0.8,5.1c-0.5,0.6-1.9,1-4.1,1
	c-2.2,0-3.6-0.3-4.1-0.9c-0.5-0.6-0.8-2.3-0.8-4.9v-0.8v-1.1c0-1.5,0.3-2.6,1-3.1C280.5,414.8,281.8,414.5,283.7,414.5L283.7,414.5z
	 M283.6,415.6c-1.8,0-2.9,0.2-3.2,0.6s-0.5,1.8-0.5,4.1c0,2.4,0.2,3.8,0.5,4.2s1.4,0.6,3.2,0.6s2.9-0.2,3.2-0.6
	c0.3-0.4,0.5-1.8,0.5-4.2v-0.8v-1.1c0-1.3-0.2-2.1-0.6-2.5C286.2,415.8,285.2,415.6,283.6,415.6L283.6,415.6z M302.8,414.6v11.6
	h-1.3V417v-0.7v-0.4v-0.4l0,0l-0.1,0.3c-0.1,0.2-0.1,0.2-0.1,0.2l-0.2,0.5l-3.9,9.6h-1.3l-3.9-9.4l-0.2-0.5l-0.1-0.3
	c0-0.1-0.1-0.2-0.1-0.2l0,0v0.3v0.3v0.6v9.2h-1.3v-11.6h2.2l3.1,7.4l0.5,1.2l0.2,0.6l0.2,0.6l0,0l0.2-0.6c0.2-0.3,0.2-0.5,0.2-0.6
	l0.5-1.2l3.1-7.4L302.8,414.6L302.8,414.6z M319.3,422.3h1.3v0.5c0,1.6-0.3,2.5-0.8,2.9c-0.5,0.4-1.9,0.6-4.1,0.6
	c-1.9,0-3.1-0.4-3.7-1.1c-0.5-0.7-0.8-2.3-0.8-4.9c0-2,0.1-3.3,0.2-3.8c0.2-0.5,0.5-1,1-1.4c0.7-0.5,2.1-0.7,4.2-0.7
	c1.5,0,2.5,0.2,3,0.7c0.5,0.5,0.8,1.3,0.8,2.7v0.3h-1.3v-0.4c0-0.9-0.2-1.5-0.5-1.8c-0.3-0.2-1-0.4-2.1-0.4c-1.8,0-3,0.2-3.4,0.5
	c-0.4,0.3-0.6,1.2-0.6,2.6c0,3.2,0.2,5.1,0.4,5.7c0.3,0.5,1.2,0.8,2.8,0.8c1.5,0,2.5-0.2,2.8-0.4s0.5-0.8,0.5-1.8L319.3,422.3
	L319.3,422.3z M326.3,414.5c2.1,0,3.5,0.3,4.1,0.9c0.5,0.6,0.8,2.2,0.8,4.8c0,2.8-0.2,4.5-0.8,5.1c-0.5,0.6-1.9,1-4.1,1
	c-2.2,0-3.6-0.3-4.1-0.9c-0.5-0.6-0.8-2.3-0.8-4.9v-0.8v-1.1c0-1.5,0.3-2.6,1-3.1C323.2,414.8,324.5,414.5,326.3,414.5L326.3,414.5z
	 M326.3,415.6c-1.8,0-2.9,0.2-3.2,0.6c-0.3,0.4-0.5,1.8-0.5,4.1c0,2.4,0.2,3.8,0.5,4.2c0.3,0.4,1.4,0.6,3.2,0.6
	c1.8,0,2.9-0.2,3.2-0.6c0.3-0.4,0.5-1.8,0.5-4.2v-0.8v-1.1c0-1.3-0.2-2.1-0.6-2.5C328.9,415.8,327.9,415.6,326.3,415.6L326.3,415.6z
	 M332.8,426.2v-11.6h5.4c1.7,0,2.8,0.4,3.4,1.1c0.6,0.7,0.8,2.2,0.8,4.1c0,2.5-0.2,4.1-0.8,5c-0.5,0.8-1.5,1.2-3.1,1.2h-5.7V426.2z
	 M334.1,425h3.8c1.4,0,2.3-0.3,2.7-0.8c0.4-0.5,0.6-1.8,0.6-3.7c0-2.1-0.2-3.5-0.5-4c-0.4-0.5-1.2-0.8-2.5-0.8h-4.1V425L334.1,425z
	 M356.8,414.6v11.6h-1.3V417v-0.7v-0.4v-0.4l0,0l-0.1,0.3c-0.1,0.2-0.1,0.2-0.1,0.2l-0.2,0.5l-3.9,9.6h-1.3l-3.9-9.4l-0.2-0.5
	l-0.1-0.3c0-0.1-0.1-0.2-0.1-0.2l0,0v0.3v0.3v0.6v9.2h-1.3v-11.6h2.2l3.1,7.4l0.5,1.2l0.2,0.6l0.2,0.6l0,0l0.2-0.6
	c0.2-0.3,0.2-0.5,0.2-0.6l0.5-1.2l3.1-7.4L356.8,414.6L356.8,414.6z M366.1,423.7h-5.8l-0.9,2.5H358l4.2-11.6h1.8l4.3,11.6H367
	L366.1,423.7L366.1,423.7z M365.7,422.7l-2.5-7.1l-2.5,7.1H365.7L365.7,422.7z M377.1,422.3h1.3v0.5c0,1.6-0.3,2.5-0.8,2.9
	c-0.5,0.4-1.9,0.6-4.1,0.6c-1.9,0-3.1-0.4-3.7-1.1c-0.5-0.7-0.8-2.3-0.8-4.9c0-2,0.1-3.3,0.2-3.8c0.1-0.5,0.5-1,1-1.4
	c0.7-0.5,2.1-0.7,4.2-0.7c1.5,0,2.5,0.2,3,0.7c0.5,0.5,0.8,1.3,0.8,2.7v0.3h-1.3v-0.4c0-0.9-0.2-1.5-0.5-1.8c-0.3-0.2-1-0.4-2.1-0.4
	c-1.8,0-3,0.2-3.4,0.5c-0.4,0.3-0.6,1.2-0.6,2.6c0,3.2,0.2,5.1,0.4,5.7c0.3,0.5,1.2,0.8,2.8,0.8c1.5,0,2.5-0.2,2.8-0.4
	s0.5-0.8,0.5-1.8L377.1,422.3L377.1,422.3z M381.2,424.6v1.5h-1.3v-1.5H381.2L381.2,424.6z M401,415.8v10.4h-1.3v-10.4h-3.8v-1.2
	h8.8v1.2H401L401,415.8z M415.2,414.6v11.6h-1.3v-5.4h-6.8v5.4h-1.3v-11.6h1.3v5.1h6.8v-5.1H415.2L415.2,414.6z M418.2,415.8v3.9
	h5.8v1.1h-5.8v4.3h6.1v1.1h-7.4v-11.6h7.4v1.1h-6.1V415.8z M434.8,414.6l-4.4,6.8v4.8h-1.3v-4.8l-4.2-6.8h1.5l2.5,3.9l0.5,0.8
	c0.1,0.1,0.2,0.2,0.2,0.4l0.2,0.4l0,0c0.1-0.2,0.2-0.3,0.2-0.4l0.2-0.4l0.5-0.8l2.5-3.9H434.8L434.8,414.6z M449.7,423.7h-5.8
	l-0.9,2.5h-1.4l4.2-11.6h1.8l4.3,11.6h-1.4L449.7,423.7L449.7,423.7z M449.3,422.7l-2.5-7.1l-2.5,7.1H449.3L449.3,422.7z
	 M453.2,426.2v-11.6h5.5c1.2,0,2.1,0.2,2.6,0.8c0.5,0.5,0.8,1.4,0.8,2.5c0,1.1-0.2,1.8-0.4,2.2c-0.3,0.4-0.8,0.7-1.6,0.8l0,0
	c1.2,0.1,1.8,0.8,1.8,2.2v2.9h-1.3v-2.6c0-1.4-0.6-2-1.8-2h-0.5h-3.9v4.7H453.2L453.2,426.2z M454.5,420.4h3.8c1,0,1.7-0.2,2-0.5
	c0.4-0.3,0.5-0.8,0.5-1.7c0-1.1-0.2-1.7-0.4-2.1c-0.3-0.3-0.8-0.5-1.7-0.5h-4.2V420.4L454.5,420.4z M464.8,415.8v3.9h5.8v1.1h-5.8
	v4.3h6.1v1.1h-7.4v-11.6h7.4v1.1h-6.1V415.8z M486.5,423.7h-5.8l-0.9,2.5h-1.4l4.2-11.6h1.8l4.3,11.6h-1.4L486.5,423.7L486.5,423.7z
	 M486.1,422.7l-2.5-7.1l-2.5,7.1H486.1L486.1,422.7z M497.5,414.6l-3,8.8c-0.2,0.6-0.4,1.2-0.5,1.8l0,0c-0.1-0.2-0.2-0.5-0.3-0.9
	l-0.3-0.9l-3.1-8.8h-1.4l4.1,11.6h1.8l4.1-11.6L497.5,414.6L497.5,414.6z M507,423.7h-5.8l-0.9,2.5h-1.4l4.2-11.6h1.8l4.3,11.6h-1.4
	L507,423.7L507,423.7z M506.6,422.7l-2.5-7.1l-2.5,7.1H506.6L506.6,422.7z M511.8,414.6v11.6h-1.3v-11.6H511.8L511.8,414.6z
	 M515.3,414.6V425h5.9v1.2H514v-11.6H515.3L515.3,414.6z M529.5,423.7h-5.8l-0.9,2.5h-1.4l4.2-11.6h1.8l4.3,11.6h-1.4L529.5,423.7
	L529.5,423.7z M529.1,422.7l-2.5-7.1l-2.5,7.1H529.1L529.1,422.7z M533,426.2v-11.6h5.1c1.4,0,2.4,0.2,2.8,0.6
	c0.5,0.4,0.7,1.2,0.7,2.5c0,1.3-0.5,2.1-1.5,2.5l0,0c1.2,0.3,1.8,1.2,1.8,2.7c0,1.2-0.2,2.1-0.7,2.6c-0.5,0.5-1.3,0.8-2.5,0.8H533
	L533,426.2z M534.3,419.7h3.5c1.1,0,1.8-0.2,2.1-0.4s0.5-0.8,0.5-1.8c0-0.8-0.2-1.3-0.4-1.5c-0.3-0.2-0.8-0.3-1.8-0.3h-3.8V419.7
	L534.3,419.7z M534.3,425h2.8h1.2c1,0,1.6-0.2,1.9-0.4c0.3-0.2,0.5-0.8,0.5-1.6c0-1-0.2-1.7-0.5-1.9c-0.3-0.2-1.2-0.4-2.5-0.4h-3.4
	L534.3,425L534.3,425z M544.9,414.6V425h5.9v1.2h-7.2v-11.6H544.9L544.9,414.6z M552.9,415.8v3.9h5.8v1.1h-5.8v4.3h6.1v1.1h-7.4
	v-11.6h7.4v1.1h-6.1V415.8z M568.8,414.6v11.6h-1.3v-11.6H568.8L568.8,414.6z M580.9,414.6v11.6h-2.1l-4.8-7.8l-0.8-1.3l-0.4-0.6
	l-0.4-0.6l0,0v0.5v0.5v0.8v8.7h-1.3v-11.6h2.2l4.2,6.9l1.1,1.8l0.5,0.9l0.5,0.9l0,0v-0.5v-0.5v-0.8v-8.8h1.3V414.6z M589.9,426.2
	v-11.6h5.1c1.4,0,2.4,0.2,2.8,0.6c0.5,0.4,0.7,1.2,0.7,2.5c0,1.3-0.5,2.1-1.5,2.5l0,0c1.2,0.3,1.8,1.2,1.8,2.7
	c0,1.2-0.2,2.1-0.7,2.6c-0.5,0.5-1.3,0.8-2.5,0.8H589.9L589.9,426.2z M591.2,419.7h3.5c1.1,0,1.8-0.2,2.1-0.4
	c0.3-0.2,0.5-0.8,0.5-1.8c0-0.8-0.2-1.3-0.4-1.5c-0.3-0.2-0.8-0.3-1.8-0.3h-3.8V419.7L591.2,419.7z M591.2,425h2.8h1.2
	c1,0,1.6-0.2,1.9-0.4c0.3-0.2,0.5-0.8,0.5-1.6c0-1-0.2-1.7-0.5-1.9c-0.3-0.2-1.2-0.4-2.5-0.4h-3.3V425L591.2,425z M604.8,414.5
	c2.1,0,3.5,0.3,4.1,0.9c0.5,0.6,0.8,2.2,0.8,4.8c0,2.8-0.2,4.5-0.8,5.1c-0.5,0.6-1.9,1-4.1,1c-2.2,0-3.6-0.3-4.1-0.9
	c-0.5-0.6-0.8-2.3-0.8-4.9v-0.8v-1.1c0-1.5,0.3-2.6,1-3.1C601.7,414.8,603,414.5,604.8,414.5L604.8,414.5z M604.8,415.6
	c-1.8,0-2.9,0.2-3.2,0.6s-0.5,1.8-0.5,4.1c0,2.4,0.2,3.8,0.5,4.2c0.3,0.4,1.4,0.6,3.2,0.6c1.8,0,2.9-0.2,3.2-0.6
	c0.3-0.4,0.5-1.8,0.5-4.2v-0.8v-1.1c0-1.3-0.2-2.1-0.6-2.5C607.4,415.8,606.5,415.6,604.8,415.6L604.8,415.6z M615.3,415.8v10.4H614
	v-10.4h-3.8v-1.2h8.8v1.2H615.3L615.3,415.8z M629.6,414.6v11.6h-1.3v-5.4h-6.8v5.4h-1.3v-11.6h1.3v5.1h6.8v-5.1H629.6L629.6,414.6z
	 M644.4,414.6v11.6h-1.3v-10.6l-2.9,3.3l-0.8-0.8l3.2-3.5L644.4,414.6L644.4,414.6z M657.4,425v1.1h-8.3V424c0-1.2,0.2-2,0.7-2.4
	c0.5-0.4,1.6-0.7,3.4-0.8c1.5-0.2,2.3-0.4,2.6-0.6c0.3-0.3,0.5-1,0.5-2.1c0-1-0.2-1.6-0.5-1.9c-0.3-0.3-1.1-0.5-2.2-0.5
	c-1.4,0-2.3,0.2-2.6,0.4c-0.4,0.2-0.5,0.8-0.5,1.8v0.8h-1.3v-0.6c0-1.4,0.3-2.3,0.8-2.8c0.6-0.5,1.8-0.7,3.5-0.7
	c1.5,0,2.6,0.2,3.1,0.8c0.5,0.5,0.8,1.5,0.8,2.9c0,1.4-0.2,2.3-0.8,2.8c-0.5,0.5-1.6,0.8-3.2,0.9c-1.5,0.2-2.4,0.4-2.6,0.6
	c-0.3,0.2-0.5,1-0.5,2.2v0.4h7V425z M664.1,414.5c2.1,0,3.5,0.3,3.8,0.8c0.5,0.5,0.7,2.2,0.7,5.1c0,2.7-0.2,4.3-0.6,4.8
	c-0.5,0.7-1.8,1.1-3.9,1.1c-2.1,0-3.4-0.4-3.9-1.1c-0.4-0.5-0.6-2.3-0.6-5.2c0-2.5,0.2-4.1,0.7-4.6
	C660.7,414.8,662,414.5,664.1,414.5L664.1,414.5z M664.1,415.6c-1.6,0-2.6,0.2-2.8,0.6c-0.3,0.4-0.5,1.8-0.5,4.1
	c0,2.4,0.2,3.8,0.5,4.1c0.3,0.4,1.2,0.6,2.8,0.6s2.5-0.2,2.8-0.6s0.5-1.8,0.5-4.1c0-2.4-0.2-3.8-0.5-4.1S665.7,415.6,664.1,415.6
	L664.1,415.6z M670.4,418.1h1.2v1.2l0,0c0.5-0.9,1.3-1.4,2.6-1.4c1.4,0,2.2,0.5,2.5,1.4l0,0c0.5-0.9,1.5-1.4,2.8-1.4
	c1.9,0,2.8,1,2.8,2.9v5.3h-1.2v-5.4c0-0.7-0.2-1.2-0.4-1.5c-0.2-0.2-0.8-0.4-1.5-0.4c-0.9,0-1.6,0.2-1.9,0.5c-0.3,0.4-0.5,1-0.5,2
	v4.7h-1.2v-5.3v-0.4c0-1.1-0.6-1.5-1.8-1.5c-1.6,0-2.5,0.8-2.5,2.6v4.6h-1.2L670.4,418.1L670.4,418.1z M684.8,418.1h1.2v1.2l0,0
	c0.5-0.9,1.3-1.4,2.6-1.4c1.4,0,2.2,0.5,2.5,1.4l0,0c0.5-0.9,1.5-1.4,2.8-1.4c1.9,0,2.8,1,2.8,2.9v5.3h-1.2v-5.4
	c0-0.7-0.2-1.2-0.4-1.5c-0.2-0.2-0.8-0.4-1.5-0.4c-0.9,0-1.6,0.2-1.9,0.5c-0.3,0.4-0.5,1-0.5,2v4.7h-1.2v-5.3v-0.4
	c0-1.1-0.6-1.5-1.8-1.5c-1.6,0-2.5,0.8-2.5,2.6v4.6h-1.2L684.8,418.1L684.8,418.1z M713.1,423.7h-5.9l-0.9,2.5h-1.4l4.2-11.6h1.8
	l4.3,11.6h-1.4L713.1,423.7L713.1,423.7z M712.7,422.7l-2.5-7.1l-2.5,7.1H712.7L712.7,422.7z M726.4,414.6v11.6h-2.2l-4.8-7.8
	l-0.8-1.3l-0.4-0.6l-0.4-0.6l0,0v0.5v0.5v0.8v8.7h-1.3v-11.6h2.1l4.2,6.9l1.1,1.8l0.5,0.9l0.5,0.9l0,0v-0.5v-0.5v-0.8v-8.8h1.3
	V414.6z M728.6,426.2v-11.6h5.4c1.7,0,2.8,0.4,3.4,1.1c0.6,0.7,0.8,2.2,0.8,4.1c0,2.5-0.2,4.1-0.8,5c-0.5,0.8-1.5,1.2-3.1,1.2h-5.7
	V426.2z M729.9,425h3.8c1.4,0,2.3-0.3,2.7-0.8c0.4-0.5,0.6-1.8,0.6-3.7c0-2.1-0.2-3.5-0.5-4c-0.4-0.5-1.2-0.8-2.5-0.8h-4.1V425
	L729.9,425z M746.5,423.2h1.2v0.3c0,0.7,0.2,1.2,0.5,1.4c0.3,0.2,1.2,0.3,2.4,0.3c1.5,0,2.4-0.2,2.7-0.5c0.3-0.3,0.5-1.1,0.5-2.4
	v-1.8l0,0c-0.5,0.7-1.6,1-3.5,1c-1.5,0-2.5-0.2-3-0.7c-0.5-0.5-0.8-1.4-0.8-2.7c0-1.5,0.2-2.5,0.8-3.1c0.5-0.5,1.7-0.7,3.4-0.7
	c1.8,0,2.9,0.2,3.5,0.8c0.5,0.5,0.8,1.5,0.8,3.1v3.1v1.2c0,1.5-0.3,2.5-0.8,2.9c-0.5,0.5-1.7,0.7-3.5,0.7c-1.7,0-2.8-0.2-3.5-0.5
	s-0.9-1.1-0.9-2.1C746.5,423.6,746.5,423.4,746.5,423.2L746.5,423.2z M750.7,415.6c-1.2,0-2.1,0.2-2.4,0.4c-0.3,0.3-0.5,1-0.5,2.1
	s0.2,1.8,0.5,2.1s1,0.5,2.1,0.5c1.5,0,2.5-0.2,2.8-0.4c0.4-0.2,0.5-0.8,0.5-1.8c0-1.3-0.2-2.1-0.5-2.4
	C753,415.8,752.1,415.6,750.7,415.6L750.7,415.6z M761.6,414.5c2.2,0,3.5,0.3,3.8,0.8c0.5,0.5,0.7,2.2,0.7,5.1
	c0,2.7-0.2,4.3-0.6,4.8c-0.5,0.7-1.8,1.1-3.9,1.1c-2.1,0-3.4-0.4-3.9-1.1c-0.4-0.5-0.6-2.3-0.6-5.2c0-2.5,0.2-4.1,0.7-4.6
	C758.3,414.8,759.5,414.5,761.6,414.5L761.6,414.5z M761.6,415.6c-1.6,0-2.6,0.2-2.8,0.6c-0.3,0.4-0.5,1.8-0.5,4.1
	c0,2.4,0.2,3.8,0.5,4.1c0.3,0.4,1.2,0.6,2.8,0.6s2.5-0.2,2.8-0.6c0.3-0.4,0.5-1.8,0.5-4.1c0-2.4-0.2-3.8-0.5-4.1
	C764.2,415.8,763.3,415.6,761.6,415.6z"/>
<path fill="#231F20" d="M768,418.1h1.2v1.2l0,0c0.5-0.9,1.3-1.4,2.6-1.4c1.4,0,2.2,0.5,2.5,1.4l0,0c0.5-0.9,1.5-1.4,2.8-1.4
	c1.9,0,2.8,1,2.8,2.9v5.3h-1.2v-5.4c0-0.7-0.2-1.2-0.4-1.5c-0.2-0.2-0.8-0.4-1.5-0.4c-0.9,0-1.6,0.2-1.9,0.5c-0.3,0.4-0.5,1-0.5,2
	v4.7h-1.2v-5.3v-0.4c0-1.1-0.6-1.5-1.8-1.5c-1.6,0-2.5,0.8-2.5,2.6v4.6h-1.2L768,418.1L768,418.1z M782.3,418.1h1.2v1.2l0,0
	c0.5-0.9,1.3-1.4,2.6-1.4c1.4,0,2.2,0.5,2.5,1.4l0,0c0.5-0.9,1.5-1.4,2.8-1.4c1.9,0,2.8,1,2.8,2.9v5.3H793v-5.4
	c0-0.7-0.2-1.2-0.4-1.5c-0.2-0.2-0.8-0.4-1.5-0.4c-0.9,0-1.6,0.2-1.9,0.5c-0.3,0.4-0.5,1-0.5,2v4.7h-1.2v-5.3v-0.4
	c0-1.1-0.6-1.5-1.8-1.5c-1.6,0-2.5,0.8-2.5,2.6v4.6h-1.2L782.3,418.1L782.3,418.1z M177.1,432.3v11.6h-1.3v-9.2V434v-0.4v-0.4l0,0
	l-0.1,0.3c-0.1,0.2-0.1,0.2-0.1,0.2l-0.2,0.5l-3.9,9.6h-1.3l-3.9-9.4l-0.2-0.5l-0.1-0.3c0-0.1-0.1-0.2-0.1-0.2l0,0v0.3v0.3v0.6v9.2
	h-1.3v-11.6h2.2l3.1,7.4l0.5,1.2l0.2,0.6l0.2,0.6l0,0l0.2-0.6c0.2-0.3,0.2-0.5,0.2-0.6l0.5-1.2l3.1-7.4L177.1,432.3L177.1,432.3z
	 M183.5,432.2c2.1,0,3.5,0.3,4.1,0.9c0.5,0.6,0.8,2.2,0.8,4.8c0,2.8-0.2,4.5-0.8,5.1c-0.5,0.6-1.9,1-4.1,1s-3.6-0.3-4.1-0.9
	c-0.5-0.6-0.8-2.3-0.8-4.9v-0.8v-1.1c0-1.5,0.3-2.6,1-3.1C180.4,432.5,181.6,432.2,183.5,432.2L183.5,432.2z M183.5,433.3
	c-1.8,0-2.9,0.2-3.2,0.6s-0.5,1.8-0.5,4.1c0,2.4,0.2,3.8,0.5,4.2c0.3,0.5,1.4,0.6,3.2,0.6c1.8,0,2.9-0.2,3.2-0.6
	c0.3-0.4,0.5-1.8,0.5-4.2v-0.8v-1.1c0-1.3-0.2-2.1-0.6-2.5C186.1,433.5,185.1,433.3,183.5,433.3L183.5,433.3z M190,443.9v-11.6h5.4
	c1.7,0,2.8,0.4,3.4,1.1c0.6,0.7,0.8,2.2,0.8,4.1c0,2.5-0.2,4.1-0.8,5s-1.5,1.2-3.1,1.2H190V443.9z M191.3,442.8h3.8
	c1.4,0,2.3-0.3,2.7-0.8c0.4-0.5,0.6-1.8,0.6-3.7c0-2.1-0.2-3.5-0.5-4c-0.4-0.5-1.2-0.8-2.5-0.8h-4.1V442.8L191.3,442.8z
	 M202.1,433.4v3.9h5.8v1.1h-5.8v4.3h6.1v1.1h-7.4v-11.6h7.4v1.1h-6.1V433.4z M211.2,432.3v10.4h5.9v1.2h-7.2v-11.6H211.2
	L211.2,432.3z M226.2,435.5h-1.3c0-0.9-0.2-1.5-0.5-1.8c-0.3-0.2-1.1-0.4-2.2-0.4c-1.4,0-2.2,0.2-2.6,0.4c-0.4,0.2-0.6,0.8-0.6,1.6
	c0,0.9,0.2,1.5,0.5,1.7c0.3,0.2,1.2,0.3,2.8,0.4c1.8,0.1,2.9,0.3,3.5,0.7c0.5,0.4,0.8,1.2,0.8,2.5c0,1.5-0.3,2.4-0.8,2.8
	c-0.5,0.4-1.8,0.6-3.7,0.6c-1.7,0-2.8-0.2-3.3-0.6c-0.5-0.4-0.8-1.3-0.8-2.5v-0.5h1.3v0.3c0,1,0.2,1.7,0.5,1.9
	c0.3,0.2,1.2,0.4,2.5,0.4c1.5,0,2.4-0.2,2.8-0.4c0.3-0.2,0.5-0.9,0.5-2c0-0.7-0.2-1.2-0.4-1.4c-0.2-0.2-0.7-0.4-1.5-0.4l-1.4-0.1
	l-1.3-0.1c-2-0.2-2.9-1.2-2.9-3.1c0-1.3,0.3-2.2,0.8-2.6c0.5-0.5,1.7-0.7,3.4-0.7c1.7,0,2.8,0.2,3.4,0.6S226.2,434.1,226.2,435.5
	L226.2,435.5z M239.4,441.5h-5.8l-0.9,2.5h-1.4l4.2-11.6h1.8l4.3,11.6h-1.3L239.4,441.5L239.4,441.5z M239,440.5l-2.5-7.1l-2.5,7.1
	H239L239,440.5z M252.8,432.3v11.6h-2.2l-4.8-7.8l-0.8-1.3l-0.4-0.6l-0.4-0.6l0,0v0.5v0.5v0.8v8.7h-1.3v-11.6h2.2l4.2,6.9l1.1,1.8
	l0.5,0.9l0.5,0.9l0,0v-0.5v-0.5v-0.8v-8.8h1.3V432.3z M255,443.9v-11.6h5.4c1.7,0,2.8,0.4,3.4,1.1c0.6,0.7,0.8,2.2,0.8,4.1
	c0,2.5-0.2,4.1-0.8,5s-1.5,1.2-3.1,1.2H255V443.9z M256.3,442.8h3.8c1.4,0,2.3-0.3,2.7-0.8c0.4-0.5,0.6-1.8,0.6-3.7
	c0-2.1-0.2-3.5-0.5-4s-1.2-0.8-2.5-0.8h-4.1V442.8L256.3,442.8z M277.7,441.5h-5.8l-0.9,2.5h-1.4l4.2-11.6h1.8l4.3,11.6h-1.4
	L277.7,441.5L277.7,441.5z M277.3,440.5l-2.5-7.1l-2.5,7.1H277.3L277.3,440.5z M281.2,443.9v-11.6h5.5c1.2,0,2.2,0.2,2.6,0.8
	c0.5,0.5,0.8,1.4,0.8,2.5c0,1.1-0.2,1.8-0.4,2.2c-0.3,0.4-0.8,0.7-1.6,0.8l0,0c1.2,0.1,1.8,0.8,1.8,2.2v2.9h-1.3v-2.7
	c0-1.4-0.6-2-1.8-2h-0.5h-3.9v4.7L281.2,443.9L281.2,443.9z M282.5,438.1h3.8c1,0,1.7-0.2,2-0.5c0.4-0.3,0.5-0.8,0.5-1.7
	c0-1.1-0.2-1.7-0.4-2.1c-0.3-0.3-0.8-0.5-1.7-0.5h-4.2V438.1L282.5,438.1z M292.9,433.4v3.9h5.8v1.1h-5.8v4.3h6.1v1.1h-7.4v-11.6
	h7.4v1.1h-6.1V433.4z M306.3,433.4v4.1h5.6v1.1h-5.6v5.3H305v-11.6h7.1v1.1L306.3,433.4L306.3,433.4z M314.7,432.3v11.6h-1.3v-11.6
	H314.7L314.7,432.3z M321,433.6v10.4h-1.3v-10.4h-3.8v-1.2h8.8v1.2H321L321,433.6z M329.9,433.6v10.4h-1.3v-10.4h-3.8v-1.2h8.8v1.2
	H329.9L329.9,433.6z M335.6,433.4v3.9h5.8v1.1h-5.8v4.3h6.1v1.1h-7.4v-11.6h7.4v1.1h-6.1V433.4z M343.5,443.9v-11.6h5.4
	c1.7,0,2.8,0.4,3.4,1.1c0.6,0.7,0.8,2.2,0.8,4.1c0,2.5-0.2,4.1-0.8,5c-0.5,0.8-1.5,1.2-3.1,1.2h-5.7V443.9z M344.8,442.8h3.8
	c1.4,0,2.3-0.3,2.7-0.8c0.4-0.5,0.6-1.8,0.6-3.7c0-2.1-0.2-3.5-0.5-4c-0.4-0.5-1.2-0.8-2.5-0.8h-4.1V442.8L344.8,442.8z
	 M375.3,432.3l-3.6,11.6h-2l-2.5-8.3l-0.3-1.1c0-0.1-0.1-0.2-0.2-0.5l-0.2-0.5l0,0l-0.2,0.5l-0.2,0.5l-0.3,1.1l-2.5,8.3h-1.9
	l-3.5-11.6h1.3l2.5,8.3l0.3,1.2c0,0.1,0.1,0.3,0.2,0.5l0.2,0.5l0,0l0.2-0.5l0.2-0.5l0.3-1.2l2.5-8.3h1.9l2.5,8.3l0.3,1.1l0.2,0.5
	l0.2,0.5l0,0l0.2-0.5l0.2-0.5l0.4-1.2l2.5-8.3L375.3,432.3L375.3,432.3z M377.7,432.3v11.6h-1.3v-11.6H377.7L377.7,432.3z
	 M384,433.6v10.4h-1.3v-10.4h-3.8v-1.2h8.8v1.2H384L384,433.6z M398.3,432.3v11.6H397v-5.4h-6.8v5.4h-1.3v-11.6h1.3v5.1h6.8v-5.1
	H398.3L398.3,432.3z M414.2,432.3v11.6h-1.3v-5.4h-6.8v5.4h-1.3v-11.6h1.3v5.1h6.8v-5.1H414.2L414.2,432.3z M417.2,433.4v3.9h5.8
	v1.1h-5.8v4.3h6.1v1.1h-7.4v-11.6h7.4v1.1h-6.1V433.4z M432.1,441.5h-5.8l-0.9,2.5h-1.4l4.2-11.6h1.8l4.3,11.6h-1.4L432.1,441.5
	L432.1,441.5z M431.7,440.5l-2.5-7.1l-2.5,7.1H431.7L431.7,440.5z M443,432.3l-3,8.8c-0.2,0.6-0.4,1.2-0.5,1.8l0,0
	c-0.1-0.2-0.2-0.5-0.3-0.9l-0.3-0.9l-3.1-8.8h-1.4l4.1,11.6h1.8l4.1-11.6L443,432.3L443,432.3z M454.2,432.3l-4.4,6.8v4.8h-1.3v-4.8
	l-4.2-6.8h1.5l2.5,3.9l0.5,0.8c0.1,0.1,0.2,0.2,0.2,0.4l0.2,0.4l0,0c0.1-0.2,0.2-0.3,0.2-0.4l0.2-0.4l0.5-0.8l2.5-3.9H454.2
	L454.2,432.3z M459.6,443.9v-11.6h5.4c1.7,0,2.8,0.4,3.4,1.1c0.6,0.7,0.8,2.2,0.8,4.1c0,2.5-0.2,4.1-0.8,5s-1.5,1.2-3.1,1.2h-5.7
	V443.9z M460.9,442.8h3.8c1.4,0,2.3-0.3,2.7-0.8c0.4-0.5,0.6-1.8,0.6-3.7c0-2.1-0.2-3.5-0.5-4s-1.2-0.8-2.5-0.8h-4.1V442.8
	L460.9,442.8z M478.8,432.3h1.3v8.1c0,1.5-0.3,2.5-0.9,2.9s-1.8,0.7-3.7,0.7c-1.8,0-3-0.2-3.6-0.7s-0.9-1.3-0.9-2.5v-0.4v-8.1h1.3
	v8.1c0,1.1,0.2,1.8,0.5,2.1c0.4,0.3,1.2,0.4,2.6,0.4c1.5,0,2.5-0.2,2.8-0.4c0.4-0.3,0.5-1,0.5-2.1V432.3L478.8,432.3z M486.3,433.6
	v10.4H485v-10.4h-3.8v-1.2h8.8v1.2H486.3L486.3,433.6z M499.9,432.3h-1.5l-2.5,3.9l-0.5,0.8l-0.2,0.4c-0.1,0.1-0.2,0.2-0.2,0.4l0,0
	l-0.2-0.4c-0.1-0.2-0.2-0.3-0.2-0.4l-0.5-0.8l-2.5-3.9H490l4.2,6.8v4.8h1.3v-4.8L499.9,432.3L499.9,432.3z M513.2,435.5h-1.3
	c0-0.9-0.2-1.5-0.5-1.8c-0.3-0.2-1.1-0.4-2.2-0.4c-1.4,0-2.2,0.2-2.6,0.4c-0.4,0.2-0.6,0.8-0.6,1.6c0,0.9,0.2,1.5,0.5,1.7
	c0.3,0.2,1.2,0.3,2.8,0.4c1.8,0.1,2.9,0.3,3.5,0.7c0.5,0.4,0.8,1.2,0.8,2.5c0,1.5-0.3,2.4-0.8,2.8s-1.8,0.6-3.7,0.6
	c-1.7,0-2.8-0.2-3.3-0.6s-0.8-1.3-0.8-2.5v-0.5h1.3v0.3c0,1,0.2,1.7,0.5,1.9c0.3,0.2,1.2,0.4,2.5,0.4c1.5,0,2.4-0.2,2.8-0.4
	c0.3-0.2,0.5-0.9,0.5-2c0-0.7-0.2-1.2-0.4-1.4c-0.2-0.2-0.7-0.4-1.5-0.4l-1.4-0.1l-1.3-0.1c-2-0.2-2.9-1.2-2.9-3.1
	c0-1.3,0.3-2.2,0.8-2.6c0.5-0.5,1.7-0.7,3.4-0.7c1.7,0,2.8,0.2,3.4,0.6C512.9,433.3,513.2,434.1,513.2,435.5L513.2,435.5z
	 M514.9,443.9v-11.6h4.8h0.5c1.3,0,2.2,0.2,2.7,0.8c0.5,0.5,0.7,1.5,0.7,2.8c0,1.3-0.2,2.2-0.8,2.7c-0.5,0.5-1.5,0.7-2.8,0.7h-0.5
	h-3.3v4.5L514.9,443.9L514.9,443.9z M516.2,438.3h3.1c1.3,0,2.2-0.2,2.5-0.4c0.4-0.2,0.5-0.8,0.5-1.8c0-1.2-0.2-1.8-0.4-2.1
	c-0.2-0.3-0.8-0.5-1.8-0.5h-0.5h-3.5v4.8H516.2z M526.4,432.3v10.4h5.9v1.2h-7.2v-11.6H526.4L526.4,432.3z M534.9,432.3v11.6h-1.3
	v-11.6H534.9L534.9,432.3z M541.1,433.6v10.4h-1.3v-10.4H536v-1.2h8.8v1.2H541.1L541.1,433.6z M550.4,443.9v-11.6h5.5
	c1.2,0,2.1,0.2,2.6,0.8c0.5,0.5,0.8,1.4,0.8,2.5c0,1.1-0.2,1.8-0.4,2.2c-0.3,0.4-0.8,0.7-1.6,0.8l0,0c1.2,0.1,1.8,0.8,1.8,2.2v2.9
	h-1.3v-2.7c0-1.4-0.6-2-1.8-2h-0.5h-3.9v4.7L550.4,443.9L550.4,443.9z M551.7,438.1h3.8c1,0,1.7-0.2,2-0.5c0.4-0.3,0.5-0.8,0.5-1.7
	c0-1.1-0.2-1.7-0.4-2.1c-0.3-0.3-0.8-0.5-1.7-0.5h-4.2V438.1L551.7,438.1z M562.5,432.3v11.6h-1.3v-11.6H562.5L562.5,432.3z
	 M574.6,432.3v11.6h-2.2l-4.8-7.8l-0.8-1.3l-0.4-0.6l-0.4-0.6l0,0v0.5v0.5v0.8v8.7h-1.3v-11.6h2.1l4.2,6.9l1.1,1.8l0.5,0.9l0.5,0.9
	l0,0v-0.5v-0.5v-0.8v-8.8h1.3V432.3z M580.9,438.2h5c0,0.3,0,0.7,0,1.2c0,2.1-0.2,3.4-0.8,3.8c-0.5,0.5-1.8,0.8-4,0.8
	c-2.1,0-3.4-0.3-3.9-0.8c-0.6-0.6-0.8-1.9-0.8-3.9v-1.7v-1c0-1.7,0.3-2.8,1-3.4c0.6-0.5,1.9-0.8,3.9-0.8s3.2,0.2,3.8,0.5
	c0.5,0.4,0.8,1.2,0.8,2.5v0.5h-1.3v-0.3c0-0.9-0.2-1.5-0.6-1.8c-0.4-0.2-1.4-0.3-3-0.3c-1.5,0-2.5,0.2-2.8,0.5s-0.5,1.2-0.5,2.7v1.5
	v1.6c0,1.5,0.2,2.4,0.6,2.7c0.4,0.3,1.5,0.5,3.4,0.5c1.4,0,2.2-0.2,2.6-0.5c0.3-0.3,0.5-1.2,0.5-2.5c0-0.1,0-0.3-0.1-0.7H581
	L580.9,438.2L580.9,438.2z M595.5,435.5h-1.3c0-0.9-0.2-1.5-0.5-1.8c-0.3-0.2-1.1-0.4-2.2-0.4c-1.4,0-2.2,0.2-2.6,0.4
	c-0.4,0.2-0.6,0.8-0.6,1.6c0,0.9,0.2,1.5,0.5,1.7c0.3,0.2,1.2,0.3,2.8,0.4c1.8,0.1,2.9,0.3,3.5,0.7c0.5,0.4,0.8,1.2,0.8,2.5
	c0,1.5-0.3,2.4-0.8,2.8c-0.5,0.4-1.8,0.6-3.7,0.6c-1.7,0-2.8-0.2-3.3-0.6s-0.8-1.3-0.8-2.5v-0.5h1.3v0.3c0,1,0.2,1.7,0.5,1.9
	c0.3,0.2,1.2,0.4,2.5,0.4c1.5,0,2.4-0.2,2.8-0.4c0.3-0.2,0.5-0.9,0.5-2c0-0.7-0.2-1.2-0.4-1.4c-0.2-0.2-0.7-0.4-1.5-0.4l-1.4-0.1
	l-1.3-0.1c-2-0.2-2.9-1.2-2.9-3.1c0-1.3,0.3-2.2,0.8-2.6c0.5-0.5,1.7-0.7,3.4-0.7c1.7,0,2.8,0.2,3.4,0.6
	C595.2,433.3,595.5,434.1,595.5,435.5L595.5,435.5z M608.7,441.5h-5.9l-0.9,2.5h-1.4l4.2-11.6h1.8l4.3,11.6h-1.4L608.7,441.5
	L608.7,441.5z M608.3,440.5l-2.5-7.1l-2.5,7.1H608.3L608.3,440.5z M622,432.3v11.6h-2.2l-4.8-7.8l-0.8-1.3l-0.4-0.6l-0.4-0.6l0,0
	v0.5v0.5v0.8v8.7h-1.3v-11.6h2.1l4.2,6.9l1.1,1.8l0.5,0.9l0.5,0.9l0,0v-0.5v-0.5v-0.8v-8.8h1.3V432.3z M624.2,443.9v-11.6h5.4
	c1.7,0,2.8,0.4,3.4,1.1c0.6,0.7,0.8,2.2,0.8,4.1c0,2.5-0.2,4.1-0.8,5c-0.5,0.8-1.5,1.2-3.1,1.2h-5.7V443.9z M625.5,442.8h3.8
	c1.4,0,2.3-0.3,2.7-0.8c0.4-0.5,0.6-1.8,0.6-3.7c0-2.1-0.2-3.5-0.5-4s-1.2-0.8-2.5-0.8h-4.1V442.8L625.5,442.8z M649.2,432.3v11.6
	h-1.3v-5.4h-6.8v5.4h-1.3v-11.6h1.3v5.1h6.8v-5.1H649.2L649.2,432.3z M652.2,433.4v3.9h5.8v1.1h-5.8v4.3h6.1v1.1h-7.4v-11.6h7.4v1.1
	h-6.1V433.4z M667.1,441.5h-5.8l-0.9,2.5H659l4.2-11.6h1.8l4.3,11.6H668L667.1,441.5L667.1,441.5z M666.7,440.5l-2.5-7.1l-2.5,7.1
	H666.7L666.7,440.5z M678.1,432.3l-3,8.8c-0.2,0.6-0.4,1.2-0.5,1.8l0,0c-0.1-0.2-0.2-0.5-0.3-0.9l-0.3-0.9l-3.1-8.8h-1.4l4.1,11.6
	h1.8l4.1-11.6L678.1,432.3L678.1,432.3z M689.2,432.3l-4.4,6.8v4.8h-1.3v-4.8l-4.2-6.8h1.5l2.5,3.9l0.5,0.8c0.1,0.1,0.2,0.2,0.2,0.4
	l0.2,0.4l0,0c0.1-0.2,0.2-0.3,0.2-0.4l0.2-0.4l0.5-0.8l2.5-3.9H689.2L689.2,432.3z M694.6,443.9v-11.6h5.4c1.7,0,2.8,0.4,3.4,1.1
	c0.6,0.7,0.8,2.2,0.8,4.1c0,2.5-0.2,4.1-0.8,5c-0.5,0.8-1.5,1.2-3.1,1.2h-5.7V443.9z M695.9,442.8h3.8c1.4,0,2.3-0.3,2.7-0.8
	c0.4-0.5,0.6-1.8,0.6-3.7c0-2.1-0.2-3.5-0.5-4s-1.2-0.8-2.5-0.8h-4.1V442.8L695.9,442.8z M713.8,432.3h1.3v8.1
	c0,1.5-0.3,2.5-0.9,2.9s-1.8,0.7-3.7,0.7c-1.8,0-3-0.2-3.6-0.7c-0.6-0.5-0.9-1.3-0.9-2.5v-0.4v-8.1h1.3v8.1c0,1.1,0.2,1.8,0.5,2.1
	c0.4,0.3,1.2,0.4,2.6,0.4c1.5,0,2.5-0.2,2.8-0.4c0.4-0.3,0.5-1,0.5-2.1V432.3L713.8,432.3z M721.3,433.6v10.4H720v-10.4h-3.8v-1.2
	h8.8v1.2H721.3L721.3,433.6z M734.9,432.3h-1.5l-2.5,3.9l-0.5,0.8l-0.2,0.3c-0.1,0.1-0.2,0.2-0.2,0.4l0,0l-0.2-0.4
	c-0.1-0.2-0.2-0.3-0.2-0.4l-0.5-0.8l-2.5-3.9h-1.5l4.2,6.8v4.8h1.3V439L734.9,432.3L734.9,432.3z M749.7,432.3v11.6h-1.3v-5.4h-6.8
	v5.4h-1.3v-11.6h1.3v5.1h6.8v-5.1H749.7L749.7,432.3z M756.1,432.2c2.1,0,3.5,0.3,4.1,0.9c0.5,0.6,0.8,2.2,0.8,4.8
	c0,2.8-0.2,4.5-0.8,5.1c-0.5,0.6-1.9,1-4.1,1c-2.2,0-3.6-0.3-4.1-0.9c-0.5-0.6-0.8-2.3-0.8-4.9v-0.8v-1.1c0-1.5,0.3-2.6,1-3.1
	S754.2,432.2,756.1,432.2L756.1,432.2z M756,433.3c-1.8,0-2.9,0.2-3.2,0.6c-0.3,0.4-0.5,1.8-0.5,4.1c0,2.4,0.2,3.8,0.5,4.2
	c0.3,0.5,1.4,0.6,3.2,0.6c1.8,0,2.9-0.2,3.2-0.6c0.3-0.4,0.5-1.8,0.5-4.2v-0.8v-1.1c0-1.3-0.2-2.1-0.6-2.5
	C758.6,433.5,757.6,433.3,756,433.3L756,433.3z M766.7,432.2c2.2,0,3.5,0.3,4.1,0.9c0.5,0.6,0.8,2.2,0.8,4.8c0,2.8-0.2,4.5-0.8,5.1
	c-0.5,0.6-1.9,1-4.1,1c-2.2,0-3.6-0.3-4.1-0.9c-0.5-0.6-0.8-2.3-0.8-4.9v-0.8v-1.1c0-1.5,0.3-2.6,1-3.1
	C763.6,432.5,764.8,432.2,766.7,432.2L766.7,432.2z M766.7,433.3c-1.8,0-2.9,0.2-3.2,0.6c-0.3,0.4-0.5,1.8-0.5,4.1
	c0,2.4,0.2,3.8,0.5,4.2c0.3,0.5,1.4,0.6,3.2,0.6c1.8,0,2.9-0.2,3.2-0.6c0.3-0.4,0.5-1.8,0.5-4.2v-0.8v-1.1c0-1.3-0.2-2.1-0.6-2.5
	C769.3,433.5,768.3,433.3,766.7,433.3L766.7,433.3z M774.5,432.3v5.1h1.2l4.8-5.1h1.7l-5.3,5.6l5.9,6h-1.8l-5.3-5.4h-1.2v5.4h-1.3
	v-11.6H774.5L774.5,432.3z M791.5,435.5h-1.3c0-0.9-0.2-1.5-0.5-1.8c-0.3-0.2-1.1-0.4-2.2-0.4c-1.4,0-2.2,0.2-2.6,0.4
	c-0.4,0.2-0.6,0.8-0.6,1.6c0,0.9,0.2,1.5,0.5,1.7c0.3,0.2,1.2,0.3,2.8,0.4c1.8,0.1,2.9,0.3,3.5,0.7c0.5,0.4,0.8,1.2,0.8,2.5
	c0,1.5-0.3,2.4-0.8,2.8c-0.5,0.4-1.8,0.6-3.7,0.6c-1.7,0-2.8-0.2-3.3-0.6c-0.5-0.4-0.8-1.3-0.8-2.5v-0.5h1.3v0.3
	c0,1,0.2,1.7,0.5,1.9c0.3,0.2,1.2,0.4,2.5,0.4c1.5,0,2.4-0.2,2.8-0.4c0.3-0.2,0.5-0.9,0.5-2c0-0.7-0.2-1.2-0.4-1.4
	c-0.2-0.2-0.7-0.4-1.5-0.4l-1.4-0.1l-1.3-0.1c-2-0.2-2.9-1.2-2.9-3.1c0-1.3,0.3-2.2,0.8-2.6c0.5-0.5,1.7-0.7,3.4-0.7
	c1.7,0,2.8,0.2,3.4,0.6S791.5,434.1,791.5,435.5L791.5,435.5z M794.5,442.3v1.5h-1.3v-1.5H794.5z"/>
<path fill="#231F20" d="M265.8,453.3v11.6h-1.3v-10.6l-2.9,3.3l-0.8-0.8l3.2-3.5L265.8,453.3L265.8,453.3z M278.9,463.7v1.1h-8.3
	v-2.1c0-1.2,0.2-2,0.7-2.4c0.5-0.4,1.6-0.7,3.4-0.8c1.5-0.2,2.3-0.4,2.6-0.6c0.3-0.3,0.5-1,0.5-2.1c0-1-0.2-1.6-0.5-1.9
	c-0.3-0.3-1.1-0.5-2.2-0.5c-1.4,0-2.3,0.2-2.6,0.4c-0.4,0.2-0.5,0.8-0.5,1.8v0.8h-1.3v-0.6c0-1.4,0.3-2.3,0.8-2.8
	c0.6-0.5,1.8-0.7,3.5-0.7c1.5,0,2.6,0.2,3.1,0.8c0.5,0.5,0.8,1.5,0.8,2.9c0,1.4-0.2,2.3-0.8,2.8c-0.5,0.5-1.6,0.8-3.2,0.9
	c-1.5,0.2-2.4,0.4-2.6,0.6c-0.3,0.2-0.5,1-0.5,2.2v0.4h7V463.7z M285.6,453.2c2.2,0,3.5,0.3,3.8,0.8c0.5,0.6,0.7,2.2,0.7,5.1
	c0,2.7-0.2,4.3-0.6,4.8c-0.5,0.7-1.8,1.1-3.9,1.1c-2.1,0-3.4-0.4-3.9-1.1c-0.4-0.5-0.6-2.3-0.6-5.2c0-2.5,0.2-4.1,0.7-4.6
	C282.2,453.5,283.5,453.2,285.6,453.2L285.6,453.2z M285.6,454.3c-1.6,0-2.6,0.2-2.8,0.6c-0.3,0.4-0.5,1.8-0.5,4.1
	c0,2.4,0.2,3.8,0.5,4.1c0.3,0.4,1.2,0.6,2.8,0.6s2.5-0.2,2.8-0.6s0.5-1.8,0.5-4.1c0-2.4-0.2-3.8-0.5-4.1
	C288.2,454.5,287.2,454.3,285.6,454.3L285.6,454.3z M291.9,456.8h1.2v1.2l0,0c0.5-0.9,1.3-1.4,2.6-1.4c1.4,0,2.2,0.5,2.5,1.4l0,0
	c0.5-0.9,1.5-1.4,2.8-1.4c1.9,0,2.8,1,2.8,2.9v5.3h-1.2v-5.4c0-0.7-0.2-1.2-0.4-1.5c-0.2-0.2-0.8-0.4-1.5-0.4
	c-0.9,0-1.6,0.2-1.9,0.5c-0.3,0.4-0.5,1-0.5,2v4.7h-1.2v-5.2v-0.4c0-1.1-0.6-1.5-1.8-1.5c-1.6,0-2.5,0.8-2.5,2.6v4.6h-1.2
	L291.9,456.8L291.9,456.8z M306.3,456.8h1.2v1.2l0,0c0.5-0.9,1.3-1.4,2.6-1.4c1.4,0,2.2,0.5,2.5,1.4l0,0c0.5-0.9,1.5-1.4,2.8-1.4
	c1.9,0,2.8,1,2.8,2.9v5.3h-1.1v-5.4c0-0.7-0.2-1.2-0.4-1.5s-0.8-0.4-1.5-0.4c-0.9,0-1.6,0.2-1.9,0.5c-0.3,0.4-0.5,1-0.5,2v4.7h-1.2
	v-5.2v-0.4c0-1.1-0.6-1.5-1.8-1.5c-1.6,0-2.5,0.8-2.5,2.6v4.6h-1.2V456.8L306.3,456.8z M337.7,453.3v11.6h-1.3v-9.2V455v-0.4v-0.4
	l0,0l-0.1,0.3c-0.1,0.2-0.1,0.2-0.1,0.2l-0.2,0.5l-3.9,9.6h-1.3l-3.9-9.4l-0.2-0.5l-0.1-0.3c0-0.1-0.1-0.2-0.1-0.2l0,0v0.3v0.3v0.6
	v9.2h-1.3v-11.6h2.2l3.1,7.4l0.5,1.2l0.2,0.6l0.2,0.6l0,0l0.2-0.6c0.2-0.3,0.2-0.5,0.2-0.6l0.5-1.2l3.1-7.4L337.7,453.3L337.7,453.3
	z M344.1,453.2c2.2,0,3.5,0.3,4.1,0.9c0.5,0.6,0.8,2.2,0.8,4.8c0,2.8-0.2,4.5-0.8,5.1c-0.5,0.6-1.9,1-4.1,1c-2.2,0-3.6-0.3-4.1-0.9
	c-0.5-0.6-0.8-2.3-0.8-4.9v-0.8v-1.1c0-1.5,0.3-2.6,1-3.1C340.9,453.5,342.2,453.2,344.1,453.2L344.1,453.2z M344.1,454.3
	c-1.8,0-2.9,0.2-3.2,0.6c-0.3,0.4-0.5,1.8-0.5,4.1s0.2,3.8,0.5,4.2c0.3,0.4,1.4,0.6,3.2,0.6c1.8,0,2.9-0.2,3.2-0.6
	c0.3-0.4,0.5-1.8,0.5-4.2v-0.8v-1.1c0-1.3-0.2-2.1-0.6-2.5C346.7,454.5,345.7,454.3,344.1,454.3L344.1,454.3z M350.5,464.9v-11.6
	h5.4c1.7,0,2.8,0.4,3.4,1.1c0.6,0.7,0.8,2.2,0.8,4.1c0,2.5-0.2,4.1-0.8,5c-0.5,0.8-1.5,1.2-3.1,1.2h-5.7V464.9z M351.8,463.7h3.8
	c1.4,0,2.3-0.3,2.7-0.8c0.4-0.5,0.6-1.8,0.6-3.7c0-2.1-0.2-3.5-0.5-4c-0.4-0.5-1.2-0.8-2.5-0.8h-4.1V463.7L351.8,463.7z
	 M362.7,454.5v3.9h5.8v1.1h-5.8v4.3h6.1v1.1h-7.4v-11.6h7.4v1.1h-6.1V454.5z M371.8,453.3v10.4h5.9v1.2h-7.2v-11.6H371.8
	L371.8,453.3z M380.1,463.3v1.5h-1.3v-1.5H380.1L380.1,463.3z M380.1,456.8v1.5h-1.3v-1.5H380.1L380.1,456.8z M407.1,453.3
	l-3.6,11.6h-2l-2.5-8.3l-0.3-1.1c0-0.1-0.1-0.2-0.2-0.5l-0.2-0.5l0,0l-0.2,0.5l-0.2,0.5l-0.3,1.1l-2.5,8.3h-1.9l-3.5-11.6h1.3
	l2.5,8.3l0.3,1.2c0,0.1,0.1,0.3,0.2,0.5l0.2,0.5l0,0l0.2-0.5l0.2-0.5l0.3-1.2l2.5-8.3h1.9l2.5,8.3l0.3,1.1l0.2,0.5l0.2,0.5l0,0
	l0.2-0.5l0.2-0.5l0.4-1.2l2.5-8.3L407.1,453.3L407.1,453.3z M409.1,454.5v3.9h5.8v1.1h-5.8v4.3h6.1v1.1h-7.4v-11.6h7.4v1.1h-6.1
	V454.5z M418.2,453.3v11.6h-1.3v-11.6H418.2L418.2,453.3z M424.5,459.1h5c0,0.3,0,0.7,0,1.2c0,2.1-0.2,3.4-0.8,3.8
	c-0.5,0.5-1.8,0.8-4,0.8c-2.1,0-3.4-0.3-3.9-0.8c-0.6-0.6-0.8-1.9-0.8-3.9v-1.7v-1c0-1.7,0.3-2.8,1-3.4c0.6-0.5,1.9-0.8,3.9-0.8
	c2,0,3.2,0.2,3.8,0.5c0.5,0.4,0.8,1.2,0.8,2.5v0.5h-1.3v-0.3c0-0.9-0.2-1.5-0.6-1.8c-0.4-0.2-1.4-0.3-3-0.3c-1.5,0-2.5,0.2-2.8,0.5
	s-0.5,1.2-0.5,2.7v1.5v1.6c0,1.5,0.2,2.4,0.6,2.7c0.4,0.3,1.5,0.5,3.4,0.5c1.4,0,2.2-0.2,2.6-0.5c0.3-0.3,0.5-1.2,0.5-2.5
	c0-0.1,0-0.3-0.1-0.7h-3.7L424.5,459.1L424.5,459.1z M440.5,453.3v11.6h-1.3v-5.4h-6.8v5.4h-1.3v-11.6h1.3v5.1h6.8v-5.1H440.5
	L440.5,453.3z M446.7,454.5v10.4h-1.3v-10.4h-3.8v-1.2h8.8v1.2H446.7L446.7,454.5z M464,453.3v1.1h-6.4l-0.1,3.5l0,0
	c0.5-0.6,1.5-0.9,3.1-0.9c1.5,0,2.5,0.2,3.1,0.8c0.5,0.5,0.8,1.5,0.8,3c0,1.8-0.2,2.9-0.8,3.5c-0.5,0.5-1.7,0.8-3.4,0.8
	c-1.7,0-2.8-0.2-3.5-0.6c-0.6-0.4-0.8-1.2-0.8-2.4v-0.5h1.2c0,1.1,0.2,1.7,0.5,1.9c0.3,0.2,1.2,0.4,2.5,0.4c1.4,0,2.2-0.2,2.5-0.5
	c0.3-0.3,0.5-1.2,0.5-2.6c0-1.2-0.2-1.9-0.5-2.2c-0.4-0.3-1.2-0.5-2.4-0.5c-1.8,0-2.7,0.4-2.9,1.1h-1.2v-5.8L464,453.3L464,453.3z
	 M470.8,453.2c2.2,0,3.5,0.3,3.8,0.8c0.5,0.6,0.7,2.2,0.7,5.1c0,2.7-0.2,4.3-0.6,4.8c-0.5,0.7-1.8,1.1-3.9,1.1
	c-2.1,0-3.4-0.4-3.9-1.1c-0.4-0.5-0.6-2.3-0.6-5.2c0-2.5,0.2-4.1,0.7-4.6C467.5,453.5,468.7,453.2,470.8,453.2L470.8,453.2z
	 M470.8,454.3c-1.6,0-2.6,0.2-2.8,0.6c-0.3,0.4-0.5,1.8-0.5,4.1c0,2.4,0.2,3.8,0.5,4.1c0.3,0.4,1.2,0.6,2.8,0.6s2.5-0.2,2.8-0.6
	c0.3-0.4,0.5-1.8,0.5-4.1c0-2.4-0.2-3.8-0.5-4.1C473.4,454.5,472.5,454.3,470.8,454.3L470.8,454.3z M484,456.8v8.6
	c0,1.2-0.2,2-0.8,2.5c-0.5,0.5-1.5,0.7-2.8,0.7c-1.2,0-2-0.2-2.5-0.5c-0.5-0.4-0.7-1.1-0.7-2.1h1.2c0,0.7,0.2,1.2,0.4,1.4
	s0.8,0.3,1.7,0.3c0.9,0,1.5-0.2,1.8-0.4c0.3-0.2,0.5-0.8,0.5-1.6V464l0,0c-0.3,0.8-1.2,1.2-2.6,1.2c-1.2,0-2-0.3-2.5-0.9
	c-0.5-0.6-0.7-1.7-0.7-3.2c0-1.6,0.2-2.8,0.7-3.3c0.5-0.6,1.3-0.9,2.5-0.9c1.3,0,2.2,0.4,2.6,1.2l0,0l-0.1-1.1h1.2V456.8z
	 M480.4,457.7c-0.9,0-1.5,0.2-1.8,0.6c-0.3,0.4-0.4,1.2-0.4,2.6c0,1.3,0.2,2.2,0.4,2.6c0.3,0.4,0.8,0.6,1.8,0.6
	c0.9,0,1.5-0.2,1.8-0.7c0.3-0.5,0.5-1.4,0.5-2.8c0-1.2-0.2-2-0.5-2.4C482,457.8,481.4,457.7,480.4,457.7L480.4,457.7z M489.4,460.1
	h3.6v1.1h-3.6V460.1L489.4,460.1z M506.6,463.7v1.1h-8.3v-2.1c0-1.2,0.2-2,0.7-2.4c0.5-0.4,1.6-0.7,3.4-0.8c1.5-0.2,2.3-0.4,2.6-0.6
	c0.3-0.3,0.5-1,0.5-2.1c0-1-0.2-1.6-0.5-1.9c-0.3-0.3-1.1-0.5-2.2-0.5c-1.4,0-2.3,0.2-2.6,0.4c-0.4,0.2-0.5,0.8-0.5,1.8v0.8h-1.3
	v-0.6c0-1.4,0.3-2.3,0.8-2.8c0.6-0.5,1.8-0.7,3.5-0.7c1.5,0,2.6,0.2,3.1,0.8c0.5,0.5,0.8,1.5,0.8,2.9c0,1.4-0.2,2.3-0.8,2.8
	c-0.5,0.5-1.6,0.8-3.2,0.9c-1.5,0.2-2.4,0.4-2.6,0.6c-0.3,0.2-0.5,1-0.5,2.2v0.4h7V463.7z M517.9,453.3l-10.1,15.1h-1l10.1-15.1
	H517.9L517.9,453.3z M524.4,453.2c2.1,0,3.5,0.3,3.8,0.8c0.5,0.6,0.7,2.2,0.7,5.1c0,2.7-0.2,4.3-0.6,4.8c-0.5,0.7-1.8,1.1-3.9,1.1
	s-3.4-0.4-3.9-1.1c-0.4-0.5-0.6-2.3-0.6-5.2c0-2.5,0.2-4.1,0.7-4.6C521.1,453.5,522.3,453.2,524.4,453.2L524.4,453.2z M524.4,454.3
	c-1.6,0-2.6,0.2-2.8,0.6c-0.3,0.4-0.5,1.8-0.5,4.1c0,2.4,0.2,3.8,0.5,4.1c0.3,0.4,1.2,0.6,2.8,0.6s2.5-0.2,2.8-0.6
	c0.3-0.4,0.5-1.8,0.5-4.1c0-2.4-0.2-3.8-0.5-4.1C527,454.5,526.1,454.3,524.4,454.3L524.4,454.3z M544.6,453.3v11.6h-1.3v-5.4h-6.8
	v5.4h-1.3v-11.6h1.3v5.1h6.8v-5.1H544.6L544.6,453.3z M550.9,453.2c2.2,0,3.5,0.3,4.1,0.9c0.5,0.6,0.8,2.2,0.8,4.8
	c0,2.8-0.2,4.5-0.8,5.1c-0.5,0.6-1.9,1-4.1,1s-3.6-0.3-4.1-0.9s-0.8-2.3-0.8-4.9v-0.8v-1.1c0-1.5,0.3-2.6,1-3.1
	C547.8,453.5,549.1,453.2,550.9,453.2L550.9,453.2z M550.9,454.3c-1.8,0-2.9,0.2-3.2,0.6s-0.5,1.8-0.5,4.1s0.2,3.8,0.5,4.2
	s1.4,0.6,3.2,0.6c1.8,0,2.9-0.2,3.2-0.6c0.3-0.4,0.5-1.8,0.5-4.2v-0.8v-1.1c0-1.3-0.2-2.1-0.6-2.5
	C553.5,454.5,552.5,454.3,550.9,454.3L550.9,454.3z M561.6,453.2c2.2,0,3.5,0.3,4.1,0.9c0.5,0.6,0.8,2.2,0.8,4.8
	c0,2.8-0.2,4.5-0.8,5.1c-0.5,0.6-1.9,1-4.1,1s-3.6-0.3-4.1-0.9c-0.5-0.6-0.8-2.3-0.8-4.9v-0.8v-1.1c0-1.5,0.3-2.6,1-3.1
	C558.4,453.5,559.7,453.2,561.6,453.2L561.6,453.2z M561.6,454.3c-1.8,0-2.9,0.2-3.2,0.6c-0.3,0.4-0.5,1.8-0.5,4.1s0.2,3.8,0.5,4.2
	c0.3,0.5,1.4,0.6,3.2,0.6s2.9-0.2,3.2-0.6c0.3-0.4,0.5-1.8,0.5-4.2v-0.8v-1.1c0-1.3-0.2-2.1-0.6-2.5
	C564.2,454.5,563.1,454.3,561.6,454.3L561.6,454.3z M569.3,453.3v5.1h1.2l4.8-5.1h1.7l-5.3,5.6l5.9,6h-1.8l-5.3-5.4h-1.2v5.4H568
	v-11.6H569.3L569.3,453.3z M586.4,456.4h-1.3c0-0.9-0.2-1.5-0.5-1.8c-0.3-0.2-1.1-0.4-2.2-0.4c-1.4,0-2.2,0.2-2.6,0.4
	c-0.4,0.2-0.6,0.8-0.6,1.6c0,0.9,0.2,1.5,0.5,1.7s1.2,0.3,2.8,0.4c1.8,0.1,2.9,0.3,3.5,0.7c0.5,0.4,0.8,1.2,0.8,2.5
	c0,1.5-0.3,2.4-0.8,2.8c-0.5,0.4-1.8,0.6-3.7,0.6c-1.7,0-2.8-0.2-3.3-0.6c-0.5-0.4-0.8-1.3-0.8-2.5v-0.5h1.3v0.3
	c0,1,0.2,1.7,0.5,1.9c0.3,0.2,1.2,0.4,2.5,0.4c1.5,0,2.4-0.2,2.8-0.4c0.3-0.2,0.5-0.9,0.5-2c0-0.7-0.2-1.2-0.4-1.4
	c-0.2-0.2-0.7-0.4-1.5-0.4l-1.4-0.1l-1.3-0.1c-2-0.2-2.9-1.2-2.9-3.1c0-1.3,0.3-2.2,0.8-2.6c0.5-0.5,1.7-0.7,3.4-0.7
	s2.8,0.2,3.4,0.6C586.1,454.2,586.4,455.1,586.4,456.4L586.4,456.4z M591.4,460.1h3.6v1.1h-3.6V460.1L591.4,460.1z M600.5,464.9
	v-11.6h5.4c1.7,0,2.8,0.4,3.4,1.1c0.6,0.7,0.8,2.2,0.8,4.1c0,2.5-0.2,4.1-0.8,5c-0.5,0.8-1.5,1.2-3.1,1.2h-5.7V464.9z M601.8,463.7
	h3.8c1.4,0,2.3-0.3,2.7-0.8c0.4-0.5,0.6-1.8,0.6-3.7c0-2.1-0.2-3.5-0.5-4c-0.4-0.5-1.2-0.8-2.5-0.8h-4.1V463.7L601.8,463.7z
	 M613.1,453.3v11.6h-1.3v-11.6H613.1L613.1,453.3z M622.8,453.3h1.4l-4.1,11.6h-1.8l-4.1-11.6h1.4l3.1,8.8l0.3,0.9
	c0.1,0.3,0.2,0.6,0.3,0.9l0,0c0.2-0.5,0.4-1.2,0.5-1.8L622.8,453.3L622.8,453.3z M626,454.5v3.9h5.8v1.1H626v4.3h6.1v1.1h-7.4v-11.6
	h7.4v1.1H626V454.5z M641.8,456.4h-1.3c0-0.9-0.2-1.5-0.5-1.8c-0.3-0.2-1.1-0.4-2.2-0.4c-1.4,0-2.2,0.2-2.6,0.4
	c-0.4,0.2-0.6,0.8-0.6,1.6c0,0.9,0.2,1.5,0.5,1.7c0.3,0.2,1.2,0.3,2.8,0.4c1.8,0.1,2.9,0.3,3.5,0.7c0.5,0.4,0.8,1.2,0.8,2.5
	c0,1.5-0.3,2.4-0.8,2.8c-0.5,0.4-1.8,0.6-3.7,0.6c-1.7,0-2.8-0.2-3.3-0.6c-0.5-0.4-0.8-1.3-0.8-2.5v-0.5h1.3v0.3
	c0,1,0.2,1.7,0.5,1.9c0.3,0.2,1.2,0.4,2.5,0.4c1.5,0,2.4-0.2,2.8-0.4c0.3-0.2,0.5-0.9,0.5-2c0-0.7-0.2-1.2-0.4-1.4s-0.7-0.4-1.5-0.4
	l-1.4-0.1l-1.3-0.1c-2-0.2-2.9-1.2-2.9-3.1c0-1.3,0.3-2.2,0.8-2.6c0.5-0.5,1.7-0.7,3.4-0.7s2.8,0.2,3.4,0.6
	C641.5,454.2,641.8,455.1,641.8,456.4L641.8,456.4z M651.9,454.5v10.4h-1.3v-10.4h-3.8v-1.2h8.8v1.2H651.9L651.9,454.5z M661,453.2
	c2.1,0,3.5,0.3,4.1,0.9c0.5,0.6,0.8,2.2,0.8,4.8c0,2.8-0.2,4.5-0.8,5.1c-0.5,0.6-1.9,1-4.1,1s-3.6-0.3-4.1-0.9
	c-0.5-0.6-0.8-2.3-0.8-4.9v-0.8v-1.1c0-1.5,0.3-2.6,1-3.1C657.8,453.5,659.1,453.2,661,453.2L661,453.2z M661,454.3
	c-1.8,0-2.9,0.2-3.2,0.6c-0.3,0.4-0.5,1.8-0.5,4.1s0.2,3.8,0.5,4.2c0.3,0.5,1.4,0.6,3.2,0.6s2.9-0.2,3.2-0.6
	c0.3-0.4,0.5-1.8,0.5-4.2v-0.8v-1.1c0-1.3-0.2-2.1-0.6-2.5C663.7,454.5,662.6,454.3,661,454.3L661,454.3z M678.2,458.9L678.2,458.9
	c0.8,0.2,1.4,0.5,1.6,0.8c0.2,0.3,0.4,1,0.4,1.9c0,1.4-0.2,2.3-0.8,2.8c-0.5,0.5-1.7,0.7-3.4,0.7c-1.9,0-3.1-0.2-3.6-0.6
	c-0.5-0.4-0.8-1.3-0.8-2.7c0-1,0.2-1.7,0.4-2.1c0.2-0.4,0.8-0.6,1.6-0.8l0,0c-0.8-0.2-1.2-0.4-1.5-0.8c-0.2-0.3-0.4-1-0.4-1.9
	c0-1.2,0.2-2,0.8-2.4c0.5-0.4,1.6-0.5,3.3-0.5c1.8,0,3,0.2,3.5,0.5c0.5,0.4,0.8,1.2,0.8,2.5c0,0.8-0.2,1.5-0.4,1.8
	C679.5,458.4,678.9,458.7,678.2,458.9L678.2,458.9z M675.8,454.3c-1.3,0-2.2,0.1-2.4,0.3c-0.3,0.2-0.4,0.8-0.4,1.8
	c0,0.9,0.2,1.5,0.5,1.7c0.4,0.2,1.3,0.3,2.9,0.3c1.1,0,1.7-0.2,2-0.4s0.5-0.8,0.5-1.8c0-0.8-0.2-1.4-0.5-1.6
	C678,454.4,677.2,454.3,675.8,454.3L675.8,454.3z M675.8,459.4c-1.3,0-2.2,0.2-2.5,0.4c-0.3,0.2-0.5,0.8-0.5,1.8
	c0,0.9,0.2,1.5,0.4,1.8c0.2,0.3,0.8,0.5,1.5,0.5h1.6l1.1-0.1c0.6-0.1,1.1-0.3,1.2-0.6c0.2-0.3,0.3-0.9,0.3-1.8
	c0-0.8-0.2-1.4-0.5-1.6C678,459.6,677.2,459.4,675.8,459.4L675.8,459.4z M695.1,453.3v11.6h-1.3v-9.2V455v-0.4v-0.4l0,0l-0.1,0.3
	c-0.1,0.2-0.1,0.2-0.1,0.2l-0.2,0.5l-3.9,9.6h-1.3l-3.9-9.4l-0.2-0.5l-0.1-0.3c0-0.1-0.1-0.2-0.1-0.2l0,0v0.3v0.3v0.6v9.2h-1.3
	v-11.6h2.2l3.1,7.4l0.5,1.2l0.2,0.6l0.2,0.6l0,0l0.2-0.6c0.2-0.3,0.2-0.5,0.2-0.6l0.5-1.2l3.1-7.4L695.1,453.3L695.1,453.3z
	 M698.5,463.3v1.5h-1.3v-1.5H698.5L698.5,463.3z M273,479.6h1.2v0.3c0,0.7,0.2,1.2,0.5,1.4c0.3,0.2,1.2,0.3,2.5,0.3
	c1.5,0,2.4-0.2,2.7-0.5c0.3-0.3,0.5-1.1,0.5-2.4V477l0,0c-0.5,0.7-1.6,1-3.5,1c-1.5,0-2.5-0.2-3-0.7c-0.5-0.5-0.8-1.4-0.8-2.7
	c0-1.5,0.3-2.5,0.8-3.1c0.5-0.5,1.7-0.7,3.4-0.7c1.8,0,2.9,0.2,3.5,0.8c0.5,0.5,0.8,1.5,0.8,3.1v3.1v1.2c0,1.5-0.3,2.5-0.8,2.9
	s-1.7,0.7-3.5,0.7c-1.7,0-2.8-0.2-3.5-0.5c-0.6-0.4-0.9-1.1-0.9-2.1C273,480,273,479.9,273,479.6L273,479.6z M277.1,472
	c-1.2,0-2.1,0.2-2.4,0.4c-0.3,0.3-0.5,1-0.5,2.1c0,1.1,0.2,1.8,0.5,2.1c0.3,0.3,1,0.5,2.1,0.5c1.5,0,2.5-0.2,2.8-0.4
	c0.4-0.2,0.5-0.8,0.5-1.8c0-1.3-0.2-2.1-0.5-2.4C279.4,472.2,278.6,472,277.1,472L277.1,472z M288,470.9c2.1,0,3.5,0.3,3.8,0.8
	c0.5,0.5,0.7,2.2,0.7,5.1c0,2.7-0.2,4.3-0.6,4.8c-0.5,0.7-1.8,1.1-3.9,1.1c-2.1,0-3.4-0.4-3.9-1.1c-0.4-0.5-0.6-2.3-0.6-5.2
	c0-2.5,0.2-4.1,0.7-4.6C284.6,471.2,285.9,470.9,288,470.9L288,470.9z M288,472c-1.6,0-2.6,0.2-2.8,0.6c-0.3,0.4-0.5,1.8-0.5,4.1
	c0,2.4,0.2,3.8,0.5,4.1c0.3,0.4,1.2,0.6,2.8,0.6c1.6,0,2.5-0.2,2.8-0.6c0.3-0.4,0.5-1.8,0.5-4.1c0-2.4-0.2-3.8-0.5-4.1
	C290.6,472.2,289.6,472,288,472L288,472z M294.4,474.5h1.2v1.2l0,0c0.5-0.9,1.3-1.4,2.6-1.4c1.4,0,2.2,0.5,2.5,1.4l0,0
	c0.5-0.9,1.5-1.4,2.8-1.4c1.9,0,2.8,1,2.8,2.9v5.3h-1.2v-5.4c0-0.7-0.2-1.2-0.4-1.5s-0.8-0.4-1.5-0.4c-0.9,0-1.6,0.2-1.9,0.5
	c-0.3,0.4-0.5,1-0.5,2v4.7h-1.2v-5.3v-0.4c0-1.1-0.6-1.5-1.8-1.5c-1.6,0-2.5,0.8-2.5,2.6v4.6h-1.2L294.4,474.5L294.4,474.5z
	 M308.7,474.5h1.2v1.2l0,0c0.5-0.9,1.3-1.4,2.6-1.4c1.4,0,2.2,0.5,2.5,1.4l0,0c0.5-0.9,1.5-1.4,2.8-1.4c1.9,0,2.8,1,2.8,2.9v5.3
	h-1.2v-5.4c0-0.7-0.2-1.2-0.4-1.5c-0.2-0.2-0.8-0.4-1.5-0.4c-0.9,0-1.6,0.2-1.9,0.5c-0.3,0.4-0.5,1-0.5,2v4.7H314v-5.3v-0.4
	c0-1.1-0.6-1.5-1.8-1.5c-1.6,0-2.5,0.8-2.5,2.6v4.6h-1.2L308.7,474.5L308.7,474.5z M340.2,471v11.6h-1.3v-9.2v-0.8v-0.4v-0.4l0,0
	l-0.1,0.3c-0.1,0.2-0.1,0.2-0.1,0.2l-0.2,0.5l-3.9,9.6h-1.3l-3.9-9.4l-0.2-0.5l-0.1-0.3c0-0.1-0.1-0.2-0.1-0.2l0,0v0.3v0.3v0.6v9.2
	h-1.3v-11.6h2.2l3.1,7.4l0.5,1.2l0.2,0.6l0.2,0.6l0,0l0.2-0.6c0.2-0.3,0.2-0.5,0.2-0.6l0.5-1.2l3.1-7.4h2.3V471z M346.5,470.9
	c2.1,0,3.5,0.3,4.1,0.9c0.5,0.6,0.8,2.2,0.8,4.8c0,2.8-0.2,4.5-0.8,5.1c-0.5,0.6-1.9,1-4.1,1s-3.6-0.3-4.1-0.9
	c-0.5-0.6-0.8-2.3-0.8-4.9V476v-1.1c0-1.5,0.3-2.6,1-3.1C343.4,471.2,344.7,470.9,346.5,470.9L346.5,470.9z M346.5,472
	c-1.8,0-2.9,0.2-3.2,0.6c-0.3,0.4-0.5,1.8-0.5,4.1c0,2.4,0.2,3.8,0.5,4.2c0.3,0.4,1.4,0.6,3.2,0.6s2.9-0.2,3.2-0.6
	c0.3-0.4,0.5-1.8,0.5-4.2V476V475c0-1.3-0.2-2.1-0.6-2.5C349.1,472.2,348.1,472,346.5,472L346.5,472z M353,482.6V471h5.4
	c1.7,0,2.8,0.4,3.4,1.1c0.6,0.7,0.8,2.2,0.8,4.1c0,2.5-0.2,4.1-0.8,5c-0.5,0.8-1.5,1.2-3.1,1.2H353V482.6z M354.3,481.5h3.8
	c1.4,0,2.3-0.3,2.7-0.8c0.4-0.5,0.6-1.8,0.6-3.7c0-2.1-0.2-3.5-0.5-4c-0.4-0.5-1.2-0.8-2.5-0.8h-4.1V481.5L354.3,481.5z
	 M365.1,472.1v3.9h5.8v1.1h-5.8v4.3h6.1v1.1h-7.4v-11.6h7.4v1.1h-6.1V472.1z M374.2,471v10.4h5.9v1.2h-7.2V471H374.2L374.2,471z
	 M382.5,481v1.5h-1.3V481H382.5L382.5,481z M382.5,474.5v1.5h-1.3v-1.5H382.5L382.5,474.5z M409.6,471l-3.6,11.6h-2l-2.5-8.3
	l-0.3-1.1c0-0.1-0.1-0.2-0.2-0.5l-0.2-0.5l0,0l-0.2,0.5l-0.2,0.5l-0.3,1.1l-2.5,8.3h-1.9l-3.5-11.6h1.3l2.5,8.3l0.3,1.2
	c0,0.1,0.1,0.3,0.2,0.5l0.2,0.5l0,0l0.2-0.5l0.2-0.5l0.3-1.2l2.5-8.3h1.9l2.5,8.3l0.3,1.1l0.2,0.5l0.2,0.5l0,0l0.2-0.5l0.2-0.5
	l0.4-1.2l2.5-8.3L409.6,471L409.6,471z M411.6,472.1v3.9h5.8v1.1h-5.8v4.3h6.1v1.1h-7.4v-11.6h7.4v1.1h-6.1V472.1z M420.6,471v11.6
	h-1.3V471H420.6L420.6,471z M427,476.9h5c0,0.3,0,0.7,0,1.2c0,2.1-0.2,3.4-0.8,3.8c-0.5,0.5-1.8,0.8-4,0.8c-2.1,0-3.4-0.3-3.9-0.8
	c-0.6-0.6-0.8-1.9-0.8-3.9v-1.7v-1c0-1.7,0.3-2.8,1-3.4c0.6-0.5,1.9-0.8,3.9-0.8c2,0,3.2,0.2,3.8,0.5c0.5,0.4,0.8,1.2,0.8,2.5v0.5
	h-1.3v-0.3c0-0.9-0.2-1.5-0.6-1.8c-0.5-0.2-1.4-0.3-3-0.3c-1.5,0-2.5,0.2-2.8,0.5c-0.4,0.4-0.5,1.2-0.5,2.7v1.5v1.6
	c0,1.5,0.2,2.4,0.6,2.7c0.4,0.3,1.5,0.5,3.4,0.5c1.4,0,2.2-0.2,2.6-0.5c0.3-0.3,0.5-1.2,0.5-2.5c0-0.1,0-0.3-0.1-0.7h-3.7L427,476.9
	L427,476.9z M443,471v11.6h-1.3v-5.4h-6.8v5.4h-1.3V471h1.3v5.1h6.8V471H443L443,471z M449.2,472.3v10.4h-1.3v-10.4h-3.8V471h8.8
	v1.2H449.2L449.2,472.3z M466.6,481.5v1.1h-8.3v-2.2c0-1.2,0.2-2,0.7-2.4c0.5-0.4,1.6-0.7,3.4-0.8c1.5-0.2,2.3-0.4,2.6-0.6
	c0.3-0.3,0.5-1,0.5-2.1c0-1-0.2-1.6-0.5-1.9c-0.3-0.3-1.1-0.5-2.1-0.5c-1.4,0-2.3,0.2-2.6,0.4c-0.4,0.2-0.5,0.8-0.5,1.8v0.8h-1.3
	v-0.6c0-1.4,0.3-2.3,0.8-2.8c0.6-0.5,1.8-0.7,3.5-0.7c1.5,0,2.6,0.2,3.1,0.8c0.5,0.5,0.8,1.5,0.8,2.9c0,1.4-0.2,2.3-0.8,2.8
	c-0.5,0.5-1.6,0.8-3.2,0.9c-1.5,0.2-2.4,0.4-2.6,0.6c-0.3,0.2-0.5,1-0.5,2.2v0.4h7V481.5z M477.2,471v1.7l-5.6,9.9h-1.5l6.1-10.4
	h-7.4v-1.1L477.2,471L477.2,471z M486.4,474.5v8.6c0,1.2-0.2,2-0.8,2.5c-0.5,0.5-1.5,0.7-2.8,0.7c-1.2,0-2-0.2-2.5-0.5
	c-0.5-0.4-0.7-1.1-0.7-2.1h1.2c0,0.7,0.2,1.2,0.4,1.4s0.8,0.3,1.7,0.3c0.9,0,1.5-0.2,1.8-0.4c0.3-0.3,0.5-0.8,0.5-1.6v-1.6l0,0
	c-0.3,0.8-1.2,1.2-2.6,1.2c-1.2,0-2-0.3-2.5-0.9c-0.5-0.6-0.7-1.7-0.7-3.2c0-1.6,0.2-2.8,0.7-3.3c0.5-0.6,1.3-0.9,2.5-0.9
	c1.3,0,2.2,0.4,2.6,1.2l0,0l-0.1-1.1h1.2V474.5z M482.9,475.3c-0.9,0-1.5,0.2-1.8,0.6c-0.3,0.4-0.4,1.2-0.4,2.6
	c0,1.3,0.2,2.2,0.4,2.6c0.3,0.4,0.8,0.6,1.8,0.6c0.9,0,1.5-0.2,1.8-0.7c0.3-0.5,0.5-1.4,0.5-2.8c0-1.2-0.2-2-0.5-2.4
	C484.4,475.6,483.8,475.3,482.9,475.3L482.9,475.3z M491.8,477.8h3.6v1.1h-3.6V477.8L491.8,477.8z M509,478.1l-0.2,0.8h-2l-0.5,3.7
	h-0.9l0.6-3.7h-2.6l-0.5,3.7h-0.9l0.6-3.7h-2l0.2-0.8h2l0.4-2.7h-2l0.2-0.8h2l0.5-3.6h0.9l-0.5,3.6h2.5l0.6-3.6h0.9l-0.5,3.6h2
	l-0.2,0.8h-2l-0.4,2.7H509L509,478.1z M506.6,475.4H504l-0.4,2.7h2.5L506.6,475.4z"/>
<path fill="#231F20" d="M519.6,481.5v1.1h-8.3v-2.2c0-1.2,0.2-2,0.7-2.4c0.5-0.4,1.6-0.7,3.4-0.8c1.5-0.2,2.3-0.4,2.6-0.6
	c0.3-0.3,0.5-1,0.5-2.1c0-1-0.2-1.6-0.5-1.9c-0.3-0.3-1.1-0.5-2.1-0.5c-1.4,0-2.3,0.2-2.6,0.4c-0.4,0.2-0.5,0.8-0.5,1.8v0.8h-1.3
	v-0.6c0-1.4,0.3-2.3,0.8-2.8c0.6-0.5,1.8-0.7,3.5-0.7c1.5,0,2.6,0.2,3.1,0.8c0.5,0.5,0.8,1.5,0.8,2.9c0,1.4-0.2,2.3-0.8,2.8
	c-0.5,0.5-1.6,0.8-3.2,0.9c-1.5,0.2-2.4,0.4-2.6,0.6c-0.3,0.2-0.5,1-0.5,2.2v0.4h7V481.5z M535.8,471v11.6h-1.3v-5.4h-6.8v5.4h-1.3
	V471h1.3v5.1h6.8V471H535.8L535.8,471z M542.2,470.9c2.2,0,3.5,0.3,4.1,0.9c0.5,0.6,0.8,2.2,0.8,4.8c0,2.8-0.2,4.5-0.8,5.1
	c-0.5,0.6-1.9,1-4.1,1c-2.2,0-3.6-0.3-4.1-0.9s-0.8-2.3-0.8-4.9V476v-1.1c0-1.5,0.3-2.6,1-3.1C539,471.2,540.3,470.9,542.2,470.9
	L542.2,470.9z M542.2,472c-1.8,0-2.9,0.2-3.2,0.6c-0.3,0.4-0.5,1.8-0.5,4.1c0,2.4,0.2,3.8,0.5,4.2c0.3,0.4,1.4,0.6,3.2,0.6
	c1.8,0,2.9-0.2,3.2-0.6c0.3-0.4,0.5-1.8,0.5-4.2V476V475c0-1.3-0.2-2.1-0.6-2.5C544.8,472.2,543.8,472,542.2,472L542.2,472z
	 M552.9,470.9c2.2,0,3.5,0.3,4.1,0.9c0.5,0.6,0.8,2.2,0.8,4.8c0,2.8-0.2,4.5-0.8,5.1c-0.5,0.6-1.9,1-4.1,1s-3.6-0.3-4.1-0.9
	s-0.8-2.3-0.8-4.9V476v-1.1c0-1.5,0.3-2.6,1-3.1C549.6,471.2,550.9,470.9,552.9,470.9L552.9,470.9z M552.9,472
	c-1.8,0-2.9,0.2-3.2,0.6c-0.3,0.4-0.5,1.8-0.5,4.1c0,2.4,0.2,3.8,0.5,4.2c0.3,0.4,1.4,0.6,3.2,0.6s2.9-0.2,3.2-0.6
	c0.3-0.4,0.5-1.8,0.5-4.2V476V475c0-1.3-0.2-2.1-0.6-2.5C555.5,472.2,554.4,472,552.9,472L552.9,472z M560.5,471v5.1h1.2l4.8-5.1
	h1.7l-5.3,5.6l5.9,6H567l-5.3-5.4h-1.2v5.4h-1.3V471H560.5L560.5,471z M577.7,474.2h-1.3c0-0.9-0.2-1.5-0.5-1.8
	c-0.3-0.2-1.1-0.4-2.2-0.4c-1.4,0-2.2,0.2-2.6,0.4c-0.4,0.2-0.6,0.8-0.6,1.6c0,0.9,0.2,1.5,0.5,1.7c0.3,0.2,1.2,0.3,2.8,0.4
	c1.8,0.1,2.9,0.3,3.5,0.7c0.5,0.4,0.8,1.2,0.8,2.5c0,1.5-0.3,2.4-0.8,2.8c-0.5,0.4-1.8,0.6-3.7,0.6c-1.7,0-2.8-0.2-3.3-0.6
	c-0.5-0.5-0.8-1.3-0.8-2.5V479h1.3v0.3c0,1,0.2,1.7,0.5,1.9c0.3,0.2,1.2,0.4,2.5,0.4c1.5,0,2.4-0.2,2.8-0.4c0.3-0.2,0.5-0.9,0.5-2
	c0-0.7-0.2-1.2-0.4-1.4c-0.2-0.2-0.7-0.4-1.5-0.4l-1.4-0.1l-1.3-0.1c-2-0.2-2.9-1.2-2.9-3.1c0-1.3,0.3-2.2,0.8-2.6
	c0.5-0.5,1.7-0.7,3.4-0.7s2.8,0.2,3.4,0.6C577.3,472,577.7,472.8,577.7,474.2L577.7,474.2z M582.6,477.8h3.6v1.1h-3.6V477.8
	L582.6,477.8z M591.7,482.6V471h5.4c1.7,0,2.8,0.4,3.4,1.1c0.6,0.7,0.8,2.2,0.8,4.1c0,2.5-0.2,4.1-0.8,5c-0.5,0.8-1.5,1.2-3.1,1.2
	h-5.7V482.6z M593,481.5h3.8c1.4,0,2.3-0.3,2.7-0.8c0.4-0.5,0.6-1.8,0.6-3.7c0-2.1-0.2-3.5-0.5-4c-0.4-0.5-1.2-0.8-2.5-0.8H593
	V481.5L593,481.5z M604.3,471v11.6H603V471H604.3L604.3,471z M614.1,471h1.4l-4.1,11.6h-1.8l-4.1-11.6h1.4l3.1,8.8l0.3,0.9
	c0.1,0.3,0.2,0.6,0.3,0.9l0,0c0.2-0.5,0.4-1.2,0.5-1.8L614.1,471L614.1,471z M617.3,472.1v3.9h5.8v1.1h-5.8v4.3h6.1v1.1H616v-11.6
	h7.4v1.1h-6.1V472.1z M633,474.2h-1.3c0-0.9-0.2-1.5-0.5-1.8c-0.3-0.2-1.1-0.4-2.2-0.4c-1.4,0-2.2,0.2-2.6,0.4
	c-0.4,0.2-0.6,0.8-0.6,1.6c0,0.9,0.2,1.5,0.5,1.7c0.3,0.2,1.2,0.3,2.8,0.4c1.8,0.1,2.9,0.3,3.5,0.7c0.5,0.4,0.8,1.2,0.8,2.5
	c0,1.5-0.3,2.4-0.8,2.8s-1.8,0.6-3.7,0.6c-1.7,0-2.8-0.2-3.3-0.6c-0.5-0.5-0.8-1.3-0.8-2.5V479h1.3v0.3c0,1,0.2,1.7,0.5,1.9
	c0.3,0.2,1.2,0.4,2.5,0.4c1.5,0,2.4-0.2,2.8-0.4c0.3-0.2,0.5-0.9,0.5-2c0-0.7-0.2-1.2-0.4-1.4c-0.2-0.2-0.7-0.4-1.5-0.4l-1.4-0.1
	l-1.3-0.1c-2-0.2-2.9-1.2-2.9-3.1c0-1.3,0.3-2.2,0.8-2.6c0.5-0.5,1.7-0.7,3.4-0.7c1.7,0,2.8,0.2,3.4,0.6S633,472.8,633,474.2
	L633,474.2z M643.2,472.3v10.4h-1.3v-10.4h-3.8V471h8.8v1.2H643.2L643.2,472.3z M652.3,470.9c2.2,0,3.5,0.3,4.1,0.9
	c0.5,0.6,0.8,2.2,0.8,4.8c0,2.8-0.2,4.5-0.8,5.1c-0.5,0.6-1.9,1-4.1,1c-2.2,0-3.6-0.3-4.1-0.9c-0.5-0.6-0.8-2.3-0.8-4.9V476v-1.1
	c0-1.5,0.3-2.6,1-3.1C649.1,471.2,650.4,470.9,652.3,470.9L652.3,470.9z M652.3,472c-1.8,0-2.9,0.2-3.2,0.6
	c-0.3,0.4-0.5,1.8-0.5,4.1c0,2.4,0.2,3.8,0.5,4.2c0.3,0.5,1.4,0.6,3.2,0.6c1.8,0,2.9-0.2,3.2-0.6c0.3-0.4,0.5-1.8,0.5-4.2V476V475
	c0-1.3-0.2-2.1-0.6-2.5C654.9,472.2,653.9,472,652.3,472L652.3,472z M671,471v1.1h-6.4l-0.1,3.5l0,0c0.5-0.6,1.5-0.9,3.1-0.9
	c1.5,0,2.5,0.2,3.1,0.8c0.5,0.5,0.8,1.5,0.8,3c0,1.8-0.2,2.9-0.8,3.5c-0.5,0.5-1.7,0.8-3.4,0.8s-2.8-0.2-3.5-0.6s-0.8-1.2-0.8-2.4
	v-0.5h1.2c0,1.1,0.2,1.7,0.5,1.9c0.3,0.2,1.2,0.4,2.5,0.4c1.4,0,2.2-0.2,2.5-0.5c0.3-0.3,0.5-1.2,0.5-2.6c0-1.2-0.2-1.9-0.5-2.2
	c-0.4-0.3-1.2-0.5-2.4-0.5c-1.8,0-2.7,0.4-2.9,1.1h-1.2v-5.8L671,471L671,471z M686.4,471v11.6h-1.3v-9.2v-0.8v-0.4v-0.4l0,0
	l-0.1,0.3c-0.1,0.2-0.1,0.2-0.1,0.2l-0.2,0.5l-3.9,9.6h-1.3l-3.9-9.4l-0.2-0.5l-0.1-0.3c0-0.1-0.1-0.2-0.1-0.2l0,0v0.3v0.3v0.6v9.2
	h-1.3v-11.6h2.2l3.1,7.4l0.5,1.2l0.2,0.6l0.2,0.6l0,0l0.2-0.6c0.2-0.3,0.2-0.5,0.2-0.6l0.5-1.2l3.1-7.4h2.3V471z M689.8,481v1.5
	h-1.3V481H689.8z"/>
</svg>
