<?xml version="1.0" encoding="utf-8"?>
<!-- Generator: Adobe Illustrator 13.0.0, SVG Export Plug-In  -->
<!DOCTYPE svg PUBLIC "-//W3C//DTD SVG 1.1//EN" "http://www.w3.org/Graphics/SVG/1.1/DTD/svg11.dtd" [
	<!ENTITY ns_flows "http://ns.adobe.com/Flows/1.0/">
	<!ENTITY st0 "fill:#00A551;stroke:#000000;">
]>
<svg version="1.1"
	 xmlns="http://www.w3.org/2000/svg" xmlns:xlink="http://www.w3.org/1999/xlink" xmlns:a="http://ns.adobe.com/AdobeSVGViewerExtensions/3.0/"
	 x="0px" y="0px" width="320px" height="25px" viewBox="-10.6 -2.8 320 25" style="enable-background:new -10.6 -2.8 320 25;"
	 xml:space="preserve">
<defs>
</defs>
<path style="&st0;" d="M4.7,3.1L9,16L13.4,3c0.2-0.7,0.4-1.2,0.5-1.4c0.1-0.3,0.3-0.5,0.6-0.7c0.3-0.2,0.6-0.3,1.1-0.3
	c0.3,0,0.6,0.1,0.9,0.3c0.3,0.2,0.5,0.4,0.7,0.7c0.2,0.3,0.2,0.6,0.2,0.8c0,0.2,0,0.4-0.1,0.6c0,0.2-0.1,0.4-0.2,0.7
	C17.1,3.8,17,4,16.9,4.2l-4.7,12.6c-0.2,0.5-0.3,0.9-0.5,1.4c-0.2,0.4-0.4,0.8-0.6,1.1c-0.2,0.3-0.5,0.6-0.9,0.8
	c-0.4,0.2-0.8,0.3-1.3,0.3s-1-0.1-1.3-0.3C7.3,20,7,19.7,6.7,19.4c-0.2-0.3-0.4-0.7-0.6-1.2c-0.2-0.4-0.3-0.9-0.5-1.4L1,4.3
	C1,4.1,0.9,3.9,0.8,3.6C0.7,3.4,0.6,3.2,0.6,2.9S0.5,2.5,0.5,2.3c0-0.4,0.2-0.9,0.5-1.2c0.4-0.4,0.8-0.6,1.4-0.6
	c0.7,0,1.1,0.2,1.4,0.6C4.1,1.5,4.4,2.2,4.7,3.1z"/>
<path style="&st0;" d="M20.5,18.1V2.9c0-0.8,0.2-1.4,0.5-1.8c0.4-0.4,0.8-0.6,1.4-0.6c0.6,0,1.1,0.2,1.4,0.6c0.4,0.4,0.6,1,0.6,1.8
	v15.2c0,0.8-0.2,1.4-0.6,1.8c-0.4,0.4-0.8,0.6-1.4,0.6c-0.6,0-1-0.2-1.4-0.6C20.7,19.5,20.5,18.9,20.5,18.1z"/>
<path style="&st0;" d="M41.6,3.8h-8.8v4.7h8.1c0.6,0,1,0.1,1.3,0.4c0.3,0.3,0.4,0.6,0.4,1.1c0,0.4-0.1,0.8-0.4,1.1
	c-0.3,0.3-0.7,0.4-1.3,0.4h-8.1V17h9.1c0.6,0,1.1,0.1,1.4,0.4c0.3,0.3,0.5,0.7,0.5,1.1c0,0.5-0.2,0.8-0.5,1.1
	c-0.3,0.3-0.8,0.4-1.4,0.4H31.2c-0.9,0-1.5-0.2-1.8-0.6c-0.4-0.4-0.6-1-0.6-1.8V3.2c0-0.6,0.1-1,0.3-1.4c0.2-0.4,0.4-0.6,0.8-0.8
	c0.4-0.2,0.8-0.2,1.4-0.2h10.3c0.6,0,1.1,0.1,1.4,0.4c0.3,0.3,0.5,0.6,0.5,1.1c0,0.5-0.2,0.8-0.5,1.1C42.7,3.7,42.2,3.8,41.6,3.8z"
	/>
<path style="&st0;" d="M60.5,17.1L57.4,5.5l-3.2,11.6C54,18,53.8,18.6,53.6,19c-0.1,0.4-0.4,0.7-0.8,1c-0.4,0.3-0.8,0.5-1.4,0.5
	c-0.5,0-0.9-0.1-1.2-0.3c-0.3-0.2-0.6-0.4-0.8-0.8s-0.3-0.7-0.5-1.2c-0.1-0.5-0.2-0.9-0.3-1.3L45.5,4c-0.2-0.8-0.3-1.3-0.3-1.7
	c0-0.5,0.2-0.9,0.5-1.3c0.4-0.3,0.8-0.5,1.3-0.5c0.7,0,1.2,0.2,1.4,0.7c0.2,0.5,0.5,1.1,0.6,2l2.5,11.3l2.8-10.6
	c0.2-0.8,0.4-1.4,0.6-1.8c0.2-0.4,0.4-0.8,0.8-1.1c0.4-0.3,0.9-0.5,1.5-0.5c0.7,0,1.2,0.2,1.5,0.5c0.4,0.3,0.6,0.7,0.8,1
	c0.1,0.4,0.3,1,0.6,1.9l2.9,10.6l2.5-11.3c0.1-0.6,0.2-1.1,0.4-1.4c0.1-0.3,0.3-0.6,0.6-0.9c0.3-0.3,0.7-0.4,1.2-0.4
	c0.5,0,0.9,0.2,1.3,0.5c0.4,0.3,0.5,0.8,0.5,1.3c0,0.4-0.1,0.9-0.3,1.7l-3.2,13c-0.2,0.9-0.4,1.5-0.5,1.9c-0.1,0.4-0.4,0.8-0.7,1.1
	c-0.3,0.3-0.8,0.5-1.5,0.5c-0.6,0-1.1-0.1-1.4-0.4c-0.4-0.3-0.6-0.6-0.8-1C61,18.7,60.8,18,60.5,17.1z"/>
<path style="&st0;" d="M95.4,14.1c0,0.6-0.1,1.3-0.5,2c-0.3,0.7-0.8,1.4-1.4,2.1c-0.6,0.7-1.5,1.3-2.5,1.7c-1,0.4-2.2,0.6-3.5,0.6
	c-1,0-1.9-0.1-2.8-0.3c-0.8-0.2-1.6-0.5-2.3-0.9c-0.7-0.4-1.3-0.9-1.9-1.6c-0.5-0.6-0.9-1.3-1.3-2c-0.4-0.8-0.6-1.6-0.8-2.4
	c-0.2-0.8-0.3-1.8-0.3-2.7c0-1.6,0.2-3,0.7-4.2c0.5-1.2,1.1-2.3,1.9-3.2c0.8-0.9,1.8-1.5,3-2c1.1-0.5,2.3-0.7,3.6-0.7
	c1.6,0,3,0.3,4.2,0.9c1.2,0.6,2.2,1.4,2.8,2.3c0.6,0.9,1,1.8,1,2.6c0,0.4-0.2,0.8-0.5,1.2s-0.7,0.5-1.1,0.5c-0.5,0-0.9-0.1-1.1-0.4
	c-0.3-0.2-0.5-0.6-0.8-1.2c-0.5-1-1.1-1.7-1.8-2.2c-0.7-0.5-1.5-0.7-2.6-0.7c-1.6,0-2.9,0.6-3.8,1.8c-1,1.2-1.4,3-1.4,5.2
	c0,1.5,0.2,2.8,0.6,3.7c0.4,1,1,1.7,1.8,2.2s1.7,0.7,2.7,0.7c1.1,0,2.1-0.3,2.9-0.8c0.8-0.6,1.4-1.4,1.8-2.5
	c0.2-0.5,0.4-0.9,0.6-1.2c0.2-0.3,0.6-0.5,1.2-0.5c0.5,0,0.9,0.2,1.2,0.5C95.2,13.2,95.4,13.6,95.4,14.1z"/>
<path style="&st0;" d="M107.4,0.5c2,0,3.7,0.4,5.2,1.2c1.4,0.8,2.5,2,3.3,3.5c0.7,1.5,1.1,3.3,1.1,5.3c0,1.5-0.2,2.8-0.6,4.1
	c-0.4,1.2-1,2.3-1.8,3.2c-0.8,0.9-1.8,1.6-3,2.1c-1.2,0.5-2.5,0.7-4,0.7c-1.5,0-2.9-0.2-4.1-0.7c-1.2-0.5-2.2-1.2-3-2.1
	s-1.4-2-1.8-3.2c-0.4-1.2-0.6-2.6-0.6-4c0-1.5,0.2-2.8,0.6-4.1c0.4-1.2,1-2.3,1.9-3.2c0.8-0.9,1.8-1.5,3-2
	C104.6,0.7,105.9,0.5,107.4,0.5L107.4,0.5z M113,10.4c0-1.4-0.2-2.6-0.7-3.7c-0.5-1-1.1-1.8-2-2.4c-0.8-0.5-1.8-0.8-2.9-0.8
	c-0.8,0-1.5,0.1-2.2,0.4c-0.7,0.3-1.2,0.7-1.7,1.3c-0.5,0.6-0.9,1.3-1.1,2.2c-0.3,0.9-0.4,1.9-0.4,2.9c0,1.1,0.1,2.1,0.4,3
	c0.3,0.9,0.7,1.6,1.2,2.2c0.5,0.6,1.1,1,1.7,1.3c0.7,0.3,1.4,0.4,2.2,0.4c1,0,1.9-0.3,2.8-0.8s1.5-1.3,2-2.3
	C112.7,13.3,113,12,113,10.4z"/>
<path style="&st0;" d="M124.1,2.9v14.1h7.9c0.6,0,1.1,0.2,1.5,0.5c0.3,0.3,0.5,0.7,0.5,1.2c0,0.5-0.2,0.9-0.5,1.2
	c-0.3,0.3-0.8,0.4-1.5,0.4h-9.5c-0.9,0-1.5-0.2-1.8-0.6c-0.4-0.4-0.6-1-0.6-1.8V2.9c0-0.8,0.2-1.4,0.5-1.8c0.4-0.4,0.8-0.6,1.4-0.6
	c0.6,0,1.1,0.2,1.4,0.6C123.9,1.5,124.1,2.1,124.1,2.9z"/>
<path style="&st0;" d="M143.8,0.5c2,0,3.7,0.4,5.2,1.2c1.4,0.8,2.5,2,3.3,3.5c0.7,1.5,1.1,3.3,1.1,5.3c0,1.5-0.2,2.8-0.6,4.1
	c-0.4,1.2-1,2.3-1.8,3.2c-0.8,0.9-1.8,1.6-3,2.1c-1.2,0.5-2.5,0.7-4,0.7c-1.5,0-2.9-0.2-4.1-0.7c-1.2-0.5-2.2-1.2-3-2.1
	c-0.8-0.9-1.4-2-1.8-3.2c-0.4-1.2-0.6-2.6-0.6-4c0-1.5,0.2-2.8,0.6-4.1c0.4-1.2,1-2.3,1.9-3.2c0.8-0.9,1.8-1.5,3-2
	C141,0.7,142.3,0.5,143.8,0.5L143.8,0.5z M149.3,10.4c0-1.4-0.2-2.6-0.7-3.7c-0.5-1-1.1-1.8-2-2.4c-0.8-0.5-1.8-0.8-2.9-0.8
	c-0.8,0-1.5,0.1-2.2,0.4c-0.7,0.3-1.2,0.7-1.7,1.3c-0.5,0.6-0.9,1.3-1.1,2.2c-0.3,0.9-0.4,1.9-0.4,2.9c0,1.1,0.1,2.1,0.4,3
	c0.3,0.9,0.7,1.6,1.2,2.2c0.5,0.6,1.1,1,1.7,1.3c0.7,0.3,1.4,0.4,2.2,0.4c1,0,1.9-0.3,2.8-0.8c0.8-0.5,1.5-1.3,2-2.3
	C149.1,13.3,149.3,12,149.3,10.4z"/>
<path style="&st0;" d="M156.7,12.2V2.9c0-0.8,0.2-1.4,0.5-1.8c0.4-0.4,0.8-0.6,1.4-0.6c0.6,0,1.1,0.2,1.4,0.6c0.4,0.4,0.5,1,0.5,1.8
	v9.5c0,1.1,0.1,2,0.4,2.7c0.2,0.7,0.7,1.3,1.3,1.7c0.6,0.4,1.5,0.6,2.6,0.6c1.5,0,2.6-0.4,3.2-1.2c0.6-0.8,1-2,1-3.7V2.9
	c0-0.8,0.2-1.4,0.5-1.8c0.4-0.4,0.8-0.6,1.4-0.6c0.6,0,1.1,0.2,1.4,0.6c0.4,0.4,0.5,1,0.5,1.8v9.3c0,1.5-0.1,2.8-0.4,3.8
	c-0.3,1-0.9,1.9-1.7,2.7c-0.7,0.7-1.5,1.1-2.5,1.4c-0.9,0.3-2,0.4-3.3,0.4c-1.5,0-2.8-0.2-3.8-0.5c-1.1-0.3-1.9-0.8-2.6-1.5
	c-0.7-0.7-1.2-1.5-1.5-2.6C156.8,14.9,156.7,13.6,156.7,12.2z"/>
<path style="&st0;" d="M182.4,11.9H181v6.2c0,0.8-0.2,1.4-0.5,1.8c-0.4,0.4-0.8,0.6-1.4,0.6c-0.6,0-1.1-0.2-1.4-0.6
	c-0.3-0.4-0.5-1-0.5-1.8V3.2c0-0.8,0.2-1.5,0.6-1.8c0.4-0.4,1-0.6,1.8-0.6h6.4c0.9,0,1.6,0,2.3,0.1c0.6,0.1,1.2,0.2,1.7,0.5
	c0.6,0.3,1.1,0.6,1.6,1.1c0.5,0.5,0.8,1,1.1,1.7c0.2,0.6,0.4,1.3,0.4,2c0,1.4-0.4,2.6-1.2,3.5c-0.8,0.9-2,1.5-3.7,1.8
	c0.7,0.4,1.4,0.9,2,1.6c0.6,0.7,1.2,1.5,1.7,2.3c0.5,0.8,0.9,1.5,1.2,2.2c0.3,0.7,0.4,1.1,0.4,1.3c0,0.3-0.1,0.5-0.2,0.8
	c-0.2,0.2-0.4,0.4-0.7,0.6c-0.3,0.1-0.6,0.2-1,0.2c-0.4,0-0.8-0.1-1.1-0.3c-0.3-0.2-0.6-0.5-0.8-0.8c-0.2-0.3-0.5-0.8-0.9-1.4
	l-1.6-2.6c-0.6-1-1.1-1.7-1.5-2.2c-0.4-0.5-0.9-0.8-1.4-1C183.7,12,183.1,11.9,182.4,11.9L182.4,11.9z M184.6,3.8H181v5.3h3.5
	c0.9,0,1.7-0.1,2.4-0.2c0.6-0.2,1.1-0.4,1.5-0.8c0.3-0.4,0.5-0.9,0.5-1.6c0-0.5-0.1-1-0.4-1.4c-0.3-0.4-0.6-0.7-1.1-0.9
	C186.9,3.9,186,3.8,184.6,3.8z"/>
<path style="&st0;" d="M208.6,11.9h-1.4v6.2c0,0.8-0.2,1.4-0.5,1.8c-0.4,0.4-0.8,0.6-1.4,0.6c-0.6,0-1.1-0.2-1.4-0.6
	c-0.3-0.4-0.5-1-0.5-1.8V3.2c0-0.8,0.2-1.5,0.6-1.8c0.4-0.4,1-0.6,1.8-0.6h6.4c0.9,0,1.6,0,2.3,0.1c0.6,0.1,1.2,0.2,1.7,0.5
	c0.6,0.3,1.1,0.6,1.6,1.1c0.5,0.5,0.8,1,1.1,1.7c0.2,0.6,0.4,1.3,0.4,2c0,1.4-0.4,2.6-1.2,3.5c-0.8,0.9-2,1.5-3.7,1.8
	c0.7,0.4,1.4,0.9,2,1.6c0.6,0.7,1.2,1.5,1.7,2.3c0.5,0.8,0.9,1.5,1.2,2.2c0.3,0.7,0.4,1.1,0.4,1.3c0,0.3-0.1,0.5-0.2,0.8
	c-0.2,0.2-0.4,0.4-0.7,0.6c-0.3,0.1-0.6,0.2-1,0.2c-0.4,0-0.8-0.1-1.1-0.3c-0.3-0.2-0.6-0.5-0.8-0.8c-0.2-0.3-0.5-0.8-0.9-1.4
	l-1.6-2.6c-0.6-1-1.1-1.7-1.5-2.2c-0.4-0.5-0.9-0.8-1.4-1C209.8,12,209.3,11.9,208.6,11.9L208.6,11.9z M210.8,3.8h-3.6v5.3h3.5
	c0.9,0,1.7-0.1,2.4-0.2c0.6-0.2,1.1-0.4,1.5-0.8c0.3-0.4,0.5-0.9,0.5-1.6c0-0.5-0.1-1-0.4-1.4c-0.3-0.4-0.6-0.7-1.1-0.9
	C213.1,3.9,212.2,3.8,210.8,3.8z"/>
<path style="&st0;" d="M235.1,18l-0.9-2.4h-7.9l-0.9,2.5c-0.4,1-0.7,1.6-0.9,2c-0.3,0.3-0.7,0.5-1.2,0.5c-0.5,0-0.9-0.2-1.3-0.5
	c-0.4-0.4-0.6-0.8-0.6-1.2c0-0.3,0-0.5,0.1-0.8c0.1-0.3,0.2-0.7,0.4-1.2l4.9-12.6c0.1-0.4,0.3-0.8,0.5-1.3c0.2-0.5,0.4-0.9,0.6-1.3
	c0.2-0.3,0.5-0.6,0.9-0.8c0.4-0.2,0.8-0.3,1.3-0.3c0.5,0,1,0.1,1.4,0.3c0.4,0.2,0.7,0.5,0.9,0.8c0.2,0.3,0.4,0.7,0.6,1
	c0.2,0.4,0.3,0.9,0.6,1.5l5.1,12.5c0.4,0.9,0.6,1.6,0.6,2.1c0,0.4-0.2,0.9-0.6,1.2c-0.4,0.4-0.8,0.6-1.3,0.6c-0.3,0-0.6-0.1-0.8-0.2
	c-0.2-0.1-0.4-0.3-0.6-0.4c-0.1-0.2-0.3-0.5-0.5-0.9C235.4,18.6,235.2,18.3,235.1,18L235.1,18z M227.3,12.6h5.8l-2.9-8L227.3,12.6z"
	/>
<path style="&st0;" d="M247.3,2.8l7.5,11.4V2.7c0-0.7,0.2-1.3,0.5-1.7c0.3-0.4,0.8-0.6,1.3-0.6c0.6,0,1,0.2,1.3,0.6
	c0.3,0.4,0.5,0.9,0.5,1.7v15.2c0,1.7-0.7,2.5-2.1,2.5c-0.4,0-0.7,0-0.9-0.2c-0.3-0.1-0.5-0.3-0.8-0.5c-0.2-0.2-0.5-0.5-0.7-0.8
	c-0.2-0.3-0.4-0.6-0.6-0.9l-7.3-11.3v11.3c0,0.7-0.2,1.3-0.5,1.7c-0.3,0.4-0.8,0.6-1.3,0.6c-0.6,0-1-0.2-1.3-0.6
	c-0.3-0.4-0.5-0.9-0.5-1.7V3.3c0-0.6,0.1-1.1,0.2-1.5c0.2-0.4,0.4-0.7,0.8-1c0.4-0.2,0.8-0.4,1.3-0.4c0.4,0,0.6,0.1,0.9,0.2
	c0.3,0.1,0.5,0.3,0.7,0.5c0.2,0.2,0.4,0.4,0.6,0.8C246.8,2.2,247,2.5,247.3,2.8z"/>
<path style="&st0;" d="M280.3,12.3V16c0,0.5,0,0.9-0.1,1.2c-0.1,0.3-0.3,0.6-0.5,0.8c-0.3,0.2-0.6,0.5-1,0.7
	c-1.2,0.6-2.3,1.1-3.4,1.4c-1.1,0.3-2.3,0.4-3.5,0.4c-1.5,0-2.8-0.2-4.1-0.7c-1.2-0.5-2.3-1.1-3.1-2c-0.9-0.9-1.5-1.9-2-3.2
	c-0.5-1.2-0.7-2.6-0.7-4.2c0-1.5,0.2-2.9,0.7-4.1c0.5-1.3,1.1-2.3,2-3.2c0.9-0.9,1.9-1.5,3.2-2c1.2-0.5,2.7-0.7,4.2-0.7
	c1.3,0,2.5,0.2,3.5,0.5c1,0.3,1.8,0.8,2.4,1.3s1.1,1.1,1.4,1.7c0.3,0.6,0.5,1.1,0.5,1.6c0,0.5-0.2,0.9-0.5,1.3
	c-0.4,0.4-0.8,0.5-1.3,0.5c-0.3,0-0.6-0.1-0.8-0.2c-0.3-0.1-0.5-0.3-0.7-0.6c-0.5-0.8-0.9-1.3-1.2-1.7c-0.3-0.4-0.8-0.7-1.3-1
	c-0.6-0.3-1.3-0.4-2.2-0.4c-0.9,0-1.7,0.2-2.4,0.5c-0.7,0.3-1.3,0.8-1.8,1.4c-0.5,0.6-0.9,1.3-1.2,2.2c-0.3,0.9-0.4,1.8-0.4,2.9
	c0,2.3,0.5,4,1.6,5.2c1,1.2,2.5,1.8,4.4,1.8c0.9,0,1.8-0.1,2.5-0.4c0.8-0.2,1.6-0.6,2.4-1v-3.1h-3c-0.7,0-1.3-0.1-1.7-0.3
	c-0.4-0.2-0.6-0.6-0.6-1.1c0-0.4,0.2-0.8,0.5-1.1c0.3-0.3,0.7-0.4,1.3-0.4h4.4c0.5,0,1,0,1.4,0.1c0.4,0.1,0.7,0.3,0.9,0.6
	C280.2,11.1,280.3,11.6,280.3,12.3z"/>
<path style="&st0;" d="M296.8,3.8H288v4.7h8.1c0.6,0,1,0.1,1.3,0.4c0.3,0.3,0.4,0.6,0.4,1.1c0,0.4-0.1,0.8-0.4,1.1
	c-0.3,0.3-0.7,0.4-1.3,0.4H288V17h9.1c0.6,0,1.1,0.1,1.4,0.4c0.3,0.3,0.5,0.7,0.5,1.1c0,0.5-0.2,0.8-0.5,1.1
	c-0.3,0.3-0.8,0.4-1.4,0.4h-10.6c-0.8,0-1.5-0.2-1.8-0.6s-0.6-1-0.6-1.8V3.2c0-0.6,0.1-1,0.3-1.4c0.2-0.4,0.4-0.6,0.8-0.8
	c0.4-0.2,0.8-0.2,1.4-0.2h10.3c0.6,0,1.1,0.1,1.4,0.4c0.3,0.3,0.5,0.6,0.5,1.1c0,0.5-0.2,0.8-0.5,1.1C297.9,3.7,297.4,3.8,296.8,3.8
	z"/>
<path style="&st0;" d="M4.7,3.1L9,16L13.4,3c0.2-0.7,0.4-1.2,0.5-1.4c0.1-0.3,0.3-0.5,0.6-0.7c0.3-0.2,0.6-0.3,1.1-0.3
	c0.3,0,0.6,0.1,0.9,0.3c0.3,0.2,0.5,0.4,0.7,0.7c0.2,0.3,0.2,0.6,0.2,0.8c0,0.2,0,0.4-0.1,0.6c0,0.2-0.1,0.4-0.2,0.7
	C17.1,3.8,17,4,16.9,4.2l-4.7,12.6c-0.2,0.5-0.3,0.9-0.5,1.4c-0.2,0.4-0.4,0.8-0.6,1.1c-0.2,0.3-0.5,0.6-0.9,0.8
	c-0.4,0.2-0.8,0.3-1.3,0.3s-1-0.1-1.3-0.3C7.3,20,7,19.7,6.7,19.4c-0.2-0.3-0.4-0.7-0.6-1.2c-0.2-0.4-0.3-0.9-0.5-1.4L1,4.3
	C1,4.1,0.9,3.9,0.8,3.6C0.7,3.4,0.6,3.2,0.6,2.9S0.5,2.5,0.5,2.3c0-0.4,0.2-0.9,0.5-1.2c0.4-0.4,0.8-0.6,1.4-0.6
	c0.7,0,1.1,0.2,1.4,0.6C4.1,1.5,4.4,2.2,4.7,3.1z"/>
<path style="&st0;" d="M20.5,18.1V2.9c0-0.8,0.2-1.4,0.5-1.8c0.4-0.4,0.8-0.6,1.4-0.6c0.6,0,1.1,0.2,1.4,0.6c0.4,0.4,0.6,1,0.6,1.8
	v15.2c0,0.8-0.2,1.4-0.6,1.8c-0.4,0.4-0.8,0.6-1.4,0.6c-0.6,0-1-0.2-1.4-0.6C20.7,19.5,20.5,18.9,20.5,18.1z"/>
<path style="&st0;" d="M41.6,3.8h-8.8v4.7h8.1c0.6,0,1,0.1,1.3,0.4c0.3,0.3,0.4,0.6,0.4,1.1c0,0.4-0.1,0.8-0.4,1.1
	c-0.3,0.3-0.7,0.4-1.3,0.4h-8.1V17h9.1c0.6,0,1.1,0.1,1.4,0.4c0.3,0.3,0.5,0.7,0.5,1.1c0,0.5-0.2,0.8-0.5,1.1
	c-0.3,0.3-0.8,0.4-1.4,0.4H31.2c-0.9,0-1.5-0.2-1.8-0.6c-0.4-0.4-0.6-1-0.6-1.8V3.2c0-0.6,0.1-1,0.3-1.4c0.2-0.4,0.4-0.6,0.8-0.8
	c0.4-0.2,0.8-0.2,1.4-0.2h10.3c0.6,0,1.1,0.1,1.4,0.4c0.3,0.3,0.5,0.6,0.5,1.1c0,0.5-0.2,0.8-0.5,1.1C42.7,3.7,42.2,3.8,41.6,3.8z"
	/>
<path style="&st0;" d="M60.5,17.1L57.4,5.5l-3.2,11.6C54,18,53.8,18.6,53.6,19c-0.1,0.4-0.4,0.7-0.8,1c-0.4,0.3-0.8,0.5-1.4,0.5
	c-0.5,0-0.9-0.1-1.2-0.3c-0.3-0.2-0.6-0.4-0.8-0.8s-0.3-0.7-0.5-1.2c-0.1-0.5-0.2-0.9-0.3-1.3L45.5,4c-0.2-0.8-0.3-1.3-0.3-1.7
	c0-0.5,0.2-0.9,0.5-1.3c0.4-0.3,0.8-0.5,1.3-0.5c0.7,0,1.2,0.2,1.4,0.7c0.2,0.5,0.5,1.1,0.6,2l2.5,11.3l2.8-10.6
	c0.2-0.8,0.4-1.4,0.6-1.8c0.2-0.4,0.4-0.8,0.8-1.1c0.4-0.3,0.9-0.5,1.5-0.5c0.7,0,1.2,0.2,1.5,0.5c0.4,0.3,0.6,0.7,0.8,1
	c0.1,0.4,0.3,1,0.6,1.9l2.9,10.6l2.5-11.3c0.1-0.6,0.2-1.1,0.4-1.4c0.1-0.3,0.3-0.6,0.6-0.9c0.3-0.3,0.7-0.4,1.2-0.4
	c0.5,0,0.9,0.2,1.3,0.5c0.4,0.3,0.5,0.8,0.5,1.3c0,0.4-0.1,0.9-0.3,1.7l-3.2,13c-0.2,0.9-0.4,1.5-0.5,1.9c-0.1,0.4-0.4,0.8-0.7,1.1
	c-0.3,0.3-0.8,0.5-1.5,0.5c-0.6,0-1.1-0.1-1.4-0.4c-0.4-0.3-0.6-0.6-0.8-1C61,18.7,60.8,18,60.5,17.1z"/>
<path style="&st0;" d="M95.4,14.1c0,0.6-0.1,1.3-0.5,2c-0.3,0.7-0.8,1.4-1.4,2.1c-0.6,0.7-1.5,1.3-2.5,1.7c-1,0.4-2.2,0.6-3.5,0.6
	c-1,0-1.9-0.1-2.8-0.3c-0.8-0.2-1.6-0.5-2.3-0.9c-0.7-0.4-1.3-0.9-1.9-1.6c-0.5-0.6-0.9-1.3-1.3-2c-0.4-0.8-0.6-1.6-0.8-2.4
	c-0.2-0.8-0.3-1.8-0.3-2.7c0-1.6,0.2-3,0.7-4.2c0.5-1.2,1.1-2.3,1.9-3.2c0.8-0.9,1.8-1.5,3-2c1.1-0.5,2.3-0.7,3.6-0.7
	c1.6,0,3,0.3,4.2,0.9c1.2,0.6,2.2,1.4,2.8,2.3c0.6,0.9,1,1.8,1,2.6c0,0.4-0.2,0.8-0.5,1.2s-0.7,0.5-1.1,0.5c-0.5,0-0.9-0.1-1.1-0.4
	c-0.3-0.2-0.5-0.6-0.8-1.2c-0.5-1-1.1-1.7-1.8-2.2c-0.7-0.5-1.5-0.7-2.6-0.7c-1.6,0-2.9,0.6-3.8,1.8c-1,1.2-1.4,3-1.4,5.2
	c0,1.5,0.2,2.8,0.6,3.7c0.4,1,1,1.7,1.8,2.2s1.7,0.7,2.7,0.7c1.1,0,2.1-0.3,2.9-0.8c0.8-0.6,1.4-1.4,1.8-2.5
	c0.2-0.5,0.4-0.9,0.6-1.2c0.2-0.3,0.6-0.5,1.2-0.5c0.5,0,0.9,0.2,1.2,0.5C95.2,13.2,95.4,13.6,95.4,14.1z"/>
<path style="&st0;" d="M107.4,0.5c2,0,3.7,0.4,5.2,1.2c1.4,0.8,2.5,2,3.3,3.5c0.7,1.5,1.1,3.3,1.1,5.3c0,1.5-0.2,2.8-0.6,4.1
	c-0.4,1.2-1,2.3-1.8,3.2c-0.8,0.9-1.8,1.6-3,2.1c-1.2,0.5-2.5,0.7-4,0.7c-1.5,0-2.9-0.2-4.1-0.7c-1.2-0.5-2.2-1.2-3-2.1
	s-1.4-2-1.8-3.2c-0.4-1.2-0.6-2.6-0.6-4c0-1.5,0.2-2.8,0.6-4.1c0.4-1.2,1-2.3,1.9-3.2c0.8-0.9,1.8-1.5,3-2
	C104.6,0.7,105.9,0.5,107.4,0.5L107.4,0.5z M113,10.4c0-1.4-0.2-2.6-0.7-3.7c-0.5-1-1.1-1.8-2-2.4c-0.8-0.5-1.8-0.8-2.9-0.8
	c-0.8,0-1.5,0.1-2.2,0.4c-0.7,0.3-1.2,0.7-1.7,1.3c-0.5,0.6-0.9,1.3-1.1,2.2c-0.3,0.9-0.4,1.9-0.4,2.9c0,1.1,0.1,2.1,0.4,3
	c0.3,0.9,0.7,1.6,1.2,2.2c0.5,0.6,1.1,1,1.7,1.3c0.7,0.3,1.4,0.4,2.2,0.4c1,0,1.9-0.3,2.8-0.8s1.5-1.3,2-2.3
	C112.7,13.3,113,12,113,10.4z"/>
<path style="&st0;" d="M124.1,2.9v14.1h7.9c0.6,0,1.1,0.2,1.5,0.5c0.3,0.3,0.5,0.7,0.5,1.2c0,0.5-0.2,0.9-0.5,1.2
	c-0.3,0.3-0.8,0.4-1.5,0.4h-9.5c-0.9,0-1.5-0.2-1.8-0.6c-0.4-0.4-0.6-1-0.6-1.8V2.9c0-0.8,0.2-1.4,0.5-1.8c0.4-0.4,0.8-0.6,1.4-0.6
	c0.6,0,1.1,0.2,1.4,0.6C123.9,1.5,124.1,2.1,124.1,2.9z"/>
<path style="&st0;" d="M143.8,0.5c2,0,3.7,0.4,5.2,1.2c1.4,0.8,2.5,2,3.3,3.5c0.7,1.5,1.1,3.3,1.1,5.3c0,1.5-0.2,2.8-0.6,4.1
	c-0.4,1.2-1,2.3-1.8,3.2c-0.8,0.9-1.8,1.6-3,2.1c-1.2,0.5-2.5,0.7-4,0.7c-1.5,0-2.9-0.2-4.1-0.7c-1.2-0.5-2.2-1.2-3-2.1
	c-0.8-0.9-1.4-2-1.8-3.2c-0.4-1.2-0.6-2.6-0.6-4c0-1.5,0.2-2.8,0.6-4.1c0.4-1.2,1-2.3,1.9-3.2c0.8-0.9,1.8-1.5,3-2
	C141,0.7,142.3,0.5,143.8,0.5L143.8,0.5z M149.3,10.4c0-1.4-0.2-2.6-0.7-3.7c-0.5-1-1.1-1.8-2-2.4c-0.8-0.5-1.8-0.8-2.9-0.8
	c-0.8,0-1.5,0.1-2.2,0.4c-0.7,0.3-1.2,0.7-1.7,1.3c-0.5,0.6-0.9,1.3-1.1,2.2c-0.3,0.9-0.4,1.9-0.4,2.9c0,1.1,0.1,2.1,0.4,3
	c0.3,0.9,0.7,1.6,1.2,2.2c0.5,0.6,1.1,1,1.7,1.3c0.7,0.3,1.4,0.4,2.2,0.4c1,0,1.9-0.3,2.8-0.8c0.8-0.5,1.5-1.3,2-2.3
	C149.1,13.3,149.3,12,149.3,10.4z"/>
<path style="&st0;" d="M156.7,12.2V2.9c0-0.8,0.2-1.4,0.5-1.8c0.4-0.4,0.8-0.6,1.4-0.6c0.6,0,1.1,0.2,1.4,0.6c0.4,0.4,0.5,1,0.5,1.8
	v9.5c0,1.1,0.1,2,0.4,2.7c0.2,0.7,0.7,1.3,1.3,1.7c0.6,0.4,1.5,0.6,2.6,0.6c1.5,0,2.6-0.4,3.2-1.2c0.6-0.8,1-2,1-3.7V2.9
	c0-0.8,0.2-1.4,0.5-1.8c0.4-0.4,0.8-0.6,1.4-0.6c0.6,0,1.1,0.2,1.4,0.6c0.4,0.4,0.5,1,0.5,1.8v9.3c0,1.5-0.1,2.8-0.4,3.8
	c-0.3,1-0.9,1.9-1.7,2.7c-0.7,0.7-1.5,1.1-2.5,1.4c-0.9,0.3-2,0.4-3.3,0.4c-1.5,0-2.8-0.2-3.8-0.5c-1.1-0.3-1.9-0.8-2.6-1.5
	c-0.7-0.7-1.2-1.5-1.5-2.6C156.8,14.9,156.7,13.6,156.7,12.2z"/>
<path style="&st0;" d="M182.4,11.9H181v6.2c0,0.8-0.2,1.4-0.5,1.8c-0.4,0.4-0.8,0.6-1.4,0.6c-0.6,0-1.1-0.2-1.4-0.6
	c-0.3-0.4-0.5-1-0.5-1.8V3.2c0-0.8,0.2-1.5,0.6-1.8c0.4-0.4,1-0.6,1.8-0.6h6.4c0.9,0,1.6,0,2.3,0.1c0.6,0.1,1.2,0.2,1.7,0.5
	c0.6,0.3,1.1,0.6,1.6,1.1c0.5,0.5,0.8,1,1.1,1.7c0.2,0.6,0.4,1.3,0.4,2c0,1.4-0.4,2.6-1.2,3.5c-0.8,0.9-2,1.5-3.7,1.8
	c0.7,0.4,1.4,0.9,2,1.6c0.6,0.7,1.2,1.5,1.7,2.3c0.5,0.8,0.9,1.5,1.2,2.2c0.3,0.7,0.4,1.1,0.4,1.3c0,0.3-0.1,0.5-0.2,0.8
	c-0.2,0.2-0.4,0.4-0.7,0.6c-0.3,0.1-0.6,0.2-1,0.2c-0.4,0-0.8-0.1-1.1-0.3c-0.3-0.2-0.6-0.5-0.8-0.8c-0.2-0.3-0.5-0.8-0.9-1.4
	l-1.6-2.6c-0.6-1-1.1-1.7-1.5-2.2c-0.4-0.5-0.9-0.8-1.4-1C183.7,12,183.1,11.9,182.4,11.9L182.4,11.9z M184.6,3.8H181v5.3h3.5
	c0.9,0,1.7-0.1,2.4-0.2c0.6-0.2,1.1-0.4,1.5-0.8c0.3-0.4,0.5-0.9,0.5-1.6c0-0.5-0.1-1-0.4-1.4c-0.3-0.4-0.6-0.7-1.1-0.9
	C186.9,3.9,186,3.8,184.6,3.8z"/>
<path style="&st0;" d="M208.6,11.9h-1.4v6.2c0,0.8-0.2,1.4-0.5,1.8c-0.4,0.4-0.8,0.6-1.4,0.6c-0.6,0-1.1-0.2-1.4-0.6
	c-0.3-0.4-0.5-1-0.5-1.8V3.2c0-0.8,0.2-1.5,0.6-1.8c0.4-0.4,1-0.6,1.8-0.6h6.4c0.9,0,1.6,0,2.3,0.1c0.6,0.1,1.2,0.2,1.7,0.5
	c0.6,0.3,1.1,0.6,1.6,1.1c0.5,0.5,0.8,1,1.1,1.7c0.2,0.6,0.4,1.3,0.4,2c0,1.4-0.4,2.6-1.2,3.5c-0.8,0.9-2,1.5-3.7,1.8
	c0.7,0.4,1.4,0.9,2,1.6c0.6,0.7,1.2,1.5,1.7,2.3c0.5,0.8,0.9,1.5,1.2,2.2c0.3,0.7,0.4,1.1,0.4,1.3c0,0.3-0.1,0.5-0.2,0.8
	c-0.2,0.2-0.4,0.4-0.7,0.6c-0.3,0.1-0.6,0.2-1,0.2c-0.4,0-0.8-0.1-1.1-0.3c-0.3-0.2-0.6-0.5-0.8-0.8c-0.2-0.3-0.5-0.8-0.9-1.4
	l-1.6-2.6c-0.6-1-1.1-1.7-1.5-2.2c-0.4-0.5-0.9-0.8-1.4-1C209.8,12,209.3,11.9,208.6,11.9L208.6,11.9z M210.8,3.8h-3.6v5.3h3.5
	c0.9,0,1.7-0.1,2.4-0.2c0.6-0.2,1.1-0.4,1.5-0.8c0.3-0.4,0.5-0.9,0.5-1.6c0-0.5-0.1-1-0.4-1.4c-0.3-0.4-0.6-0.7-1.1-0.9
	C213.1,3.9,212.2,3.8,210.8,3.8z"/>
<path style="&st0;" d="M235.1,18l-0.9-2.4h-7.9l-0.9,2.5c-0.4,1-0.7,1.6-0.9,2c-0.3,0.3-0.7,0.5-1.2,0.5c-0.5,0-0.9-0.2-1.3-0.5
	c-0.4-0.4-0.6-0.8-0.6-1.2c0-0.3,0-0.5,0.1-0.8c0.1-0.3,0.2-0.7,0.4-1.2l4.9-12.6c0.1-0.4,0.3-0.8,0.5-1.3c0.2-0.5,0.4-0.9,0.6-1.3
	c0.2-0.3,0.5-0.6,0.9-0.8c0.4-0.2,0.8-0.3,1.3-0.3c0.5,0,1,0.1,1.4,0.3c0.4,0.2,0.7,0.5,0.9,0.8c0.2,0.3,0.4,0.7,0.6,1
	c0.2,0.4,0.3,0.9,0.6,1.5l5.1,12.5c0.4,0.9,0.6,1.6,0.6,2.1c0,0.4-0.2,0.9-0.6,1.2c-0.4,0.4-0.8,0.6-1.3,0.6c-0.3,0-0.6-0.1-0.8-0.2
	c-0.2-0.1-0.4-0.3-0.6-0.4c-0.1-0.2-0.3-0.5-0.5-0.9C235.4,18.6,235.2,18.3,235.1,18L235.1,18z M227.3,12.6h5.8l-2.9-8L227.3,12.6z"
	/>
<path style="&st0;" d="M247.3,2.8l7.5,11.4V2.7c0-0.7,0.2-1.3,0.5-1.7c0.3-0.4,0.8-0.6,1.3-0.6c0.6,0,1,0.2,1.3,0.6
	c0.3,0.4,0.5,0.9,0.5,1.7v15.2c0,1.7-0.7,2.5-2.1,2.5c-0.4,0-0.7,0-0.9-0.2c-0.3-0.1-0.5-0.3-0.8-0.5c-0.2-0.2-0.5-0.5-0.7-0.8
	c-0.2-0.3-0.4-0.6-0.6-0.9l-7.3-11.3v11.3c0,0.7-0.2,1.3-0.5,1.7c-0.3,0.4-0.8,0.6-1.3,0.6c-0.6,0-1-0.2-1.3-0.6
	c-0.3-0.4-0.5-0.9-0.5-1.7V3.3c0-0.6,0.1-1.1,0.2-1.5c0.2-0.4,0.4-0.7,0.8-1c0.4-0.2,0.8-0.4,1.3-0.4c0.4,0,0.6,0.1,0.9,0.2
	c0.3,0.1,0.5,0.3,0.7,0.5c0.2,0.2,0.4,0.4,0.6,0.8C246.8,2.2,247,2.5,247.3,2.8z"/>
<path style="&st0;" d="M280.3,12.3V16c0,0.5,0,0.9-0.1,1.2c-0.1,0.3-0.3,0.6-0.5,0.8c-0.3,0.2-0.6,0.5-1,0.7
	c-1.2,0.6-2.3,1.1-3.4,1.4c-1.1,0.3-2.3,0.4-3.5,0.4c-1.5,0-2.8-0.2-4.1-0.7c-1.2-0.5-2.3-1.1-3.1-2c-0.9-0.9-1.5-1.9-2-3.2
	c-0.5-1.2-0.7-2.6-0.7-4.2c0-1.5,0.2-2.9,0.7-4.1c0.5-1.3,1.1-2.3,2-3.2c0.9-0.9,1.9-1.5,3.2-2c1.2-0.5,2.7-0.7,4.2-0.7
	c1.3,0,2.5,0.2,3.5,0.5c1,0.3,1.8,0.8,2.4,1.3s1.1,1.1,1.4,1.7c0.3,0.6,0.5,1.1,0.5,1.6c0,0.5-0.2,0.9-0.5,1.3
	c-0.4,0.4-0.8,0.5-1.3,0.5c-0.3,0-0.6-0.1-0.8-0.2c-0.3-0.1-0.5-0.3-0.7-0.6c-0.5-0.8-0.9-1.3-1.2-1.7c-0.3-0.4-0.8-0.7-1.3-1
	c-0.6-0.3-1.3-0.4-2.2-0.4c-0.9,0-1.7,0.2-2.4,0.5c-0.7,0.3-1.3,0.8-1.8,1.4c-0.5,0.6-0.9,1.3-1.2,2.2c-0.3,0.9-0.4,1.8-0.4,2.9
	c0,2.3,0.5,4,1.6,5.2c1,1.2,2.5,1.8,4.4,1.8c0.9,0,1.8-0.1,2.5-0.4c0.8-0.2,1.6-0.6,2.4-1v-3.1h-3c-0.7,0-1.3-0.1-1.7-0.3
	c-0.4-0.2-0.6-0.6-0.6-1.1c0-0.4,0.2-0.8,0.5-1.1c0.3-0.3,0.7-0.4,1.3-0.4h4.4c0.5,0,1,0,1.4,0.1c0.4,0.1,0.7,0.3,0.9,0.6
	C280.2,11.1,280.3,11.6,280.3,12.3z"/>
<path style="&st0;" d="M296.8,3.8H288v4.7h8.1c0.6,0,1,0.1,1.3,0.4c0.3,0.3,0.4,0.6,0.4,1.1c0,0.4-0.1,0.8-0.4,1.1
	c-0.3,0.3-0.7,0.4-1.3,0.4H288V17h9.1c0.6,0,1.1,0.1,1.4,0.4c0.3,0.3,0.5,0.7,0.5,1.1c0,0.5-0.2,0.8-0.5,1.1
	c-0.3,0.3-0.8,0.4-1.4,0.4h-10.6c-0.8,0-1.5-0.2-1.8-0.6s-0.6-1-0.6-1.8V3.2c0-0.6,0.1-1,0.3-1.4c0.2-0.4,0.4-0.6,0.8-0.8
	c0.4-0.2,0.8-0.2,1.4-0.2h10.3c0.6,0,1.1,0.1,1.4,0.4c0.3,0.3,0.5,0.6,0.5,1.1c0,0.5-0.2,0.8-0.5,1.1C297.9,3.7,297.4,3.8,296.8,3.8
	z"/>
</svg>
