<?xml version="1.0" encoding="utf-8"?>
<!-- Generator: Adobe Illustrator 13.0.0, SVG Export Plug-In  -->
<!DOCTYPE svg PUBLIC "-//W3C//DTD SVG 1.1//EN" "http://www.w3.org/Graphics/SVG/1.1/DTD/svg11.dtd" [
	<!ENTITY ns_flows "http://ns.adobe.com/Flows/1.0/">
]>
<svg version="1.1"
	 xmlns="http://www.w3.org/2000/svg" xmlns:xlink="http://www.w3.org/1999/xlink" xmlns:a="http://ns.adobe.com/AdobeSVGViewerExtensions/3.0/"
	 x="0px" y="0px" width="551px" height="132px" viewBox="-0.3 -0.9 551 132" style="enable-background:new -0.3 -0.9 551 132;"
	 xml:space="preserve">
<defs>
</defs>
<path style="fill-rule:evenodd;clip-rule:evenodd;fill:#B8D4F0;" d="M17.6,0h514.9c9.7,0,17.6,9.5,17.6,21.1v88.7
	c0,11.6-7.9,21.1-17.6,21.1H17.6c-9.7,0-17.6-9.5-17.6-21.1V21.1C0,9.5,7.9,0,17.6,0z"/>
<path style="fill:#231F20;" d="M31.2,8.4l-3.1,10h-1.7l-2.1-7.2L24,10.3c0,0-0.1-0.2-0.1-0.4l-0.1-0.5h0l-0.1,0.5l-0.1,0.5l-0.3,0.9
	L21,18.4h-1.7l-3.1-10h1.2l2.2,7.2l0.3,1c0,0.1,0.1,0.2,0.1,0.5l0.1,0.5h0l0.1-0.5l0.1-0.5l0.3-1l2.1-7.2h1.7l2.1,7.2l0.3,1l0.1,0.5
	l0.1,0.5h0l0.1-0.5l0.1-0.5l0.3-1L30,8.4H31.2z"/>
<polygon style="fill:#231F20;" points="40.3,8.4 40.3,18.4 39.1,18.4 39.1,13.8 33.3,13.8 33.3,18.4 32.2,18.4 32.2,8.4 33.3,8.4 
	33.3,12.8 39.1,12.8 39.1,8.4 "/>
<polygon style="fill:#231F20;" points="42.9,9.4 42.9,12.8 48,12.8 48,13.7 42.9,13.7 42.9,17.4 48.2,17.4 48.2,18.4 41.8,18.4 
	41.8,8.4 48.2,8.4 48.2,9.4 "/>
<polygon style="fill:#231F20;" points="58.2,8.4 58.2,18.4 56.3,18.4 52.1,11.6 51.4,10.5 51.1,9.9 50.8,9.4 50.7,9.4 50.7,9.7 
	50.8,10.1 50.8,10.9 50.8,18.4 49.6,18.4 49.6,8.4 51.5,8.4 55.1,14.4 56.1,15.9 56.6,16.7 57,17.5 57.1,17.5 57,17.1 57,16.7 
	57,16 57,8.4 "/>
<polygon style="fill:#231F20;" points="64.9,9.4 64.9,12.8 69.8,12.8 69.8,13.8 64.9,13.8 64.9,18.4 63.8,18.4 63.8,8.4 69.9,8.4 
	69.9,9.4 "/>
<rect x="71.1" y="8.4" style="fill:#231F20;" width="1.1" height="10"/>
<path style="fill:#231F20;" d="M81.1,11.1h-1.1c0-0.8-0.1-1.3-0.4-1.5c-0.3-0.2-0.9-0.3-1.9-0.3c-1.2,0-1.9,0.1-2.3,0.3
	c-0.3,0.2-0.5,0.7-0.5,1.4c0,0.8,0.1,1.3,0.4,1.5c0.3,0.2,1.1,0.3,2.4,0.4c1.6,0.1,2.5,0.3,3,0.6c0.4,0.3,0.6,1.1,0.6,2.2
	c0,1.2-0.2,2-0.7,2.4c-0.5,0.4-1.6,0.5-3.2,0.5c-1.4,0-2.4-0.2-2.9-0.5c-0.5-0.4-0.7-1.1-0.7-2.2l0-0.4h1.1v0.3
	c0,0.9,0.1,1.4,0.4,1.7s1,0.3,2.1,0.3c1.3,0,2.1-0.1,2.4-0.3s0.4-0.8,0.4-1.7c0-0.6-0.1-1-0.3-1.2c-0.2-0.2-0.6-0.3-1.3-0.4
	l-1.2-0.1l-1.1-0.1c-1.7-0.1-2.5-1-2.5-2.6c0-1.1,0.2-1.9,0.7-2.3c0.5-0.4,1.5-0.6,3-0.6c1.5,0,2.5,0.2,2.9,0.5
	C80.8,9.2,81.1,9.9,81.1,11.1z"/>
<polygon style="fill:#231F20;" points="90.7,8.4 90.7,18.4 89.6,18.4 89.6,13.8 83.7,13.8 83.7,18.4 82.6,18.4 82.6,8.4 83.7,8.4 
	83.7,12.8 89.6,12.8 89.6,8.4 "/>
<path style="fill:#231F20;" d="M102.5,16.3h-5.1l-0.8,2.1h-1.2l3.7-10h1.6l3.7,10h-1.2L102.5,16.3L102.5,16.3z M102.1,15.4l-2.2-6.1
	l-2.2,6.1H102.1z"/>
<path style="fill:#231F20;" d="M105.5,18.4v-10h4.8c1.1,0,1.8,0.2,2.3,0.6c0.4,0.4,0.7,1.2,0.7,2.2c0,0.9-0.1,1.6-0.4,1.9
	c-0.2,0.4-0.7,0.6-1.4,0.7v0c1.1,0.1,1.6,0.7,1.6,1.9v2.6h-1.1v-2.3c0-1.2-0.5-1.7-1.5-1.7H110h-3.4v4H105.5L105.5,18.4z
	 M106.6,13.4h3.3c0.9,0,1.4-0.1,1.8-0.4c0.3-0.3,0.5-0.8,0.5-1.5c0-0.9-0.1-1.5-0.3-1.8c-0.2-0.3-0.7-0.4-1.5-0.4h-3.6V13.4z"/>
<polygon style="fill:#231F20;" points="115.5,9.4 115.5,12.8 120.6,12.8 120.6,13.7 115.5,13.7 115.5,17.4 120.8,17.4 120.8,18.4 
	114.4,18.4 114.4,8.4 120.8,8.4 120.8,9.4 "/>
<polygon style="fill:#231F20;" points="127.1,9.4 127.1,12.8 132,12.8 132,13.8 127.1,13.8 127.1,18.4 126,18.4 126,8.4 132.1,8.4 
	132.1,9.4 "/>
<polygon style="fill:#231F20;" points="134.1,9.4 134.1,12.8 139.1,12.8 139.1,13.7 134.1,13.7 134.1,17.4 139.4,17.4 139.4,18.4 
	132.9,18.4 132.9,8.4 139.4,8.4 139.4,9.4 "/>
<polygon style="fill:#231F20;" points="141.5,9.4 141.5,12.8 146.6,12.8 146.6,13.7 141.5,13.7 141.5,17.4 146.8,17.4 146.8,18.4 
	140.4,18.4 140.4,8.4 146.8,8.4 146.8,9.4 "/>
<path style="fill:#231F20;" d="M148.3,18.4v-10h4.6c1.4,0,2.4,0.3,2.9,0.9s0.8,1.8,0.8,3.6c0,2.2-0.2,3.6-0.7,4.3
	c-0.5,0.7-1.4,1.1-2.7,1.1H148.3L148.3,18.4z M149.4,17.4h3.3c1.2,0,2-0.2,2.3-0.7c0.3-0.5,0.5-1.5,0.5-3.2c0-1.8-0.1-3-0.4-3.4
	c-0.3-0.5-1-0.7-2.2-0.7h-3.5V17.4z"/>
<rect x="158.1" y="8.4" style="fill:#231F20;" width="1.1" height="10"/>
<polygon style="fill:#231F20;" points="169.7,8.4 169.7,18.4 167.8,18.4 163.6,11.6 162.9,10.5 162.6,9.9 162.3,9.4 162.2,9.4 
	162.2,9.7 162.2,10.1 162.2,10.9 162.2,18.4 161.1,18.4 161.1,8.4 163,8.4 166.6,14.4 167.6,15.9 168,16.7 168.5,17.5 168.5,17.5 
	168.5,17.1 168.5,16.7 168.5,16 168.5,8.4 "/>
<path style="fill:#231F20;" d="M175.1,13.4h4.3c0,0.3,0,0.6,0,1.1c0,1.8-0.2,2.9-0.7,3.3c-0.4,0.4-1.6,0.6-3.5,0.6
	c-1.8,0-2.9-0.3-3.4-0.8c-0.5-0.5-0.8-1.6-0.8-3.4l0-1.5l0-0.9c0-1.5,0.3-2.5,0.8-3c0.6-0.5,1.7-0.7,3.4-0.7c1.7,0,2.8,0.2,3.3,0.5
	c0.5,0.3,0.7,1,0.7,2.1v0.4h-1.1v-0.2c0-0.8-0.2-1.3-0.5-1.5s-1.2-0.3-2.6-0.3c-1.3,0-2.1,0.2-2.4,0.5c-0.3,0.3-0.5,1.1-0.5,2.3
	l0,1.3l0,1.4c0,1.3,0.2,2,0.5,2.3c0.4,0.3,1.3,0.4,2.9,0.4c1.2,0,1.9-0.1,2.2-0.4c0.3-0.3,0.4-1,0.4-2.1c0-0.1,0-0.3-0.1-0.6h-3.2
	V13.4z"/>
<rect x="184.6" y="8.4" style="fill:#231F20;" width="1.1" height="10"/>
<polygon style="fill:#231F20;" points="196.2,8.4 196.2,18.4 194.3,18.4 190.1,11.6 189.5,10.5 189.1,9.9 188.8,9.4 188.8,9.4 
	188.8,9.7 188.8,10.1 188.8,10.9 188.8,18.4 187.6,18.4 187.6,8.4 189.5,8.4 193.1,14.4 194.1,15.9 194.6,16.7 195,17.5 195.1,17.5 
	195.1,17.1 195.1,16.7 195.1,16 195.1,8.4 "/>
<path style="fill:#231F20;" d="M208.7,11.1h-1.1c0-0.8-0.1-1.3-0.4-1.5c-0.3-0.2-0.9-0.3-1.9-0.3c-1.2,0-1.9,0.1-2.3,0.3
	c-0.3,0.2-0.5,0.7-0.5,1.4c0,0.8,0.1,1.3,0.4,1.5c0.3,0.2,1.1,0.3,2.4,0.4c1.6,0.1,2.5,0.3,3,0.6c0.4,0.3,0.6,1.1,0.6,2.2
	c0,1.2-0.2,2-0.7,2.4c-0.5,0.4-1.6,0.5-3.2,0.5c-1.4,0-2.4-0.2-2.9-0.5c-0.5-0.4-0.7-1.1-0.7-2.2l0-0.4h1.1v0.3
	c0,0.9,0.1,1.4,0.4,1.7c0.3,0.2,1,0.3,2.1,0.3c1.3,0,2.1-0.1,2.4-0.3s0.4-0.8,0.4-1.7c0-0.6-0.1-1-0.3-1.2c-0.2-0.2-0.6-0.3-1.3-0.4
	l-1.2-0.1l-1.1-0.1c-1.7-0.1-2.5-1-2.5-2.6c0-1.1,0.2-1.9,0.7-2.3c0.5-0.4,1.5-0.6,3-0.6c1.5,0,2.5,0.2,2.9,0.5
	C208.5,9.2,208.7,9.9,208.7,11.1z"/>
<polygon style="fill:#231F20;" points="218.3,8.4 218.3,18.4 217.2,18.4 217.2,13.8 211.4,13.8 211.4,18.4 210.2,18.4 210.2,8.4 
	211.4,8.4 211.4,12.8 217.2,12.8 217.2,8.4 "/>
<path style="fill:#231F20;" d="M226.4,16.3h-5.1l-0.8,2.1h-1.2l3.7-10h1.6l3.7,10h-1.2L226.4,16.3L226.4,16.3z M226,15.4l-2.2-6.1
	l-2.2,6.1H226z"/>
<polygon style="fill:#231F20;" points="230.5,8.4 230.5,17.4 235.6,17.4 235.6,18.4 229.3,18.4 229.3,8.4 "/>
<polygon style="fill:#231F20;" points="237.7,8.4 237.7,17.4 242.9,17.4 242.9,18.4 236.6,18.4 236.6,8.4 "/>
<path style="fill:#231F20;" d="M247.5,8.3c1.9,0,3.1,0.3,3.5,0.8c0.5,0.6,0.7,1.9,0.7,4.1c0,2.4-0.2,3.8-0.7,4.4
	c-0.5,0.6-1.6,0.8-3.6,0.8c-1.9,0-3.1-0.3-3.6-0.8c-0.5-0.6-0.7-2-0.7-4.3v-0.7l0-0.9c0-1.3,0.3-2.2,0.9-2.7
	C244.8,8.5,245.9,8.3,247.5,8.3L247.5,8.3z M247.5,9.3c-1.6,0-2.5,0.2-2.8,0.5c-0.3,0.4-0.4,1.6-0.4,3.6c0,2.1,0.1,3.3,0.4,3.6
	c0.3,0.4,1.2,0.5,2.8,0.5c1.6,0,2.5-0.2,2.8-0.5s0.4-1.6,0.4-3.6v-0.7l0-0.9c0-1.1-0.2-1.8-0.6-2.1C249.8,9.4,248.9,9.3,247.5,9.3z"
	/>
<path style="fill:#231F20;" d="M267.1,8.4l-3.1,10h-1.7l-2.1-7.2l-0.3-0.9c0,0-0.1-0.2-0.1-0.4l-0.1-0.5h0l-0.1,0.5l-0.1,0.5
	l-0.3,0.9l-2.1,7.2h-1.7l-3.1-10h1.2l2.2,7.2l0.3,1c0,0.1,0.1,0.2,0.1,0.5l0.1,0.5h0l0.1-0.5l0.1-0.5l0.3-1l2.1-7.2h1.7l2.1,7.2
	l0.3,1l0.1,0.5l0.1,0.5h0l0.1-0.5l0.1-0.5l0.3-1l2.2-7.2H267.1z"/>
<path style="fill:#231F20;" d="M285.8,8.4l-3.1,10h-1.7l-2.1-7.2l-0.3-0.9c0,0-0.1-0.2-0.1-0.4l-0.1-0.5h0l-0.1,0.5l-0.1,0.5
	l-0.3,0.9l-2.1,7.2h-1.7l-3.1-10h1.2l2.2,7.2l0.3,1c0,0.1,0.1,0.2,0.1,0.5l0.1,0.5h0l0.1-0.5l0.1-0.5l0.3-1l2.1-7.2h1.7l2.1,7.2
	l0.3,1l0.1,0.5l0.1,0.5h0L282,17l0.1-0.5l0.3-1l2.2-7.2H285.8z"/>
<path style="fill:#231F20;" d="M292.9,16.3h-5.1l-0.8,2.1h-1.2l3.7-10h1.6l3.7,10h-1.2L292.9,16.3L292.9,16.3z M292.6,15.4l-2.2-6.1
	l-2.2,6.1H292.6z"/>
<polygon style="fill:#231F20;" points="299.4,9.5 299.4,18.4 298.2,18.4 298.2,9.5 295,9.5 295,8.4 302.6,8.4 302.6,9.5 "/>
<polygon style="fill:#231F20;" points="304.3,9.4 304.3,12.8 309.4,12.8 309.4,13.7 304.3,13.7 304.3,17.4 309.6,17.4 309.6,18.4 
	303.2,18.4 303.2,8.4 309.6,8.4 309.6,9.4 "/>
<path style="fill:#231F20;" d="M311.1,18.4v-10h4.8c1.1,0,1.8,0.2,2.3,0.6c0.4,0.4,0.7,1.2,0.7,2.2c0,0.9-0.1,1.6-0.4,1.9
	c-0.2,0.4-0.7,0.6-1.4,0.7v0c1.1,0.1,1.6,0.7,1.6,1.9v2.6h-1.1v-2.3c0-1.2-0.5-1.7-1.5-1.7h-0.4h-3.4v4H311.1L311.1,18.4z
	 M312.2,13.4h3.3c0.9,0,1.4-0.1,1.8-0.4c0.3-0.3,0.5-0.8,0.5-1.5c0-0.9-0.1-1.5-0.3-1.8c-0.2-0.3-0.7-0.4-1.5-0.4h-3.6V13.4z"/>
<path style="fill:#231F20;" d="M321.5,17.1v1.4c0,0.9-0.3,1.4-1,1.4c-0.1,0-0.2,0-0.3,0v-0.6c0.4,0,0.6-0.2,0.6-0.6l0-0.3h-0.5v-1.3
	H321.5z"/>
<path style="fill:#231F20;" d="M330.8,8.3c1.9,0,3.1,0.3,3.5,0.8c0.5,0.6,0.7,1.9,0.7,4.1c0,2.4-0.2,3.8-0.7,4.4
	c-0.5,0.6-1.6,0.8-3.6,0.8c-1.9,0-3.1-0.3-3.6-0.8c-0.5-0.6-0.7-2-0.7-4.3v-0.7l0-0.9c0-1.3,0.3-2.2,0.9-2.7
	C328,8.5,329.2,8.3,330.8,8.3L330.8,8.3z M330.8,9.3c-1.6,0-2.5,0.2-2.8,0.5c-0.3,0.4-0.4,1.6-0.4,3.6c0,2.1,0.1,3.3,0.4,3.6
	s1.2,0.5,2.8,0.5c1.6,0,2.5-0.2,2.8-0.5s0.4-1.6,0.4-3.6v-0.7l0-0.9c0-1.1-0.2-1.8-0.6-2.1C333,9.4,332.2,9.3,330.8,9.3z"/>
<path style="fill:#231F20;" d="M336.3,18.4v-10h4.8c1.1,0,1.8,0.2,2.3,0.6c0.4,0.4,0.7,1.2,0.7,2.2c0,0.9-0.1,1.6-0.4,1.9
	c-0.2,0.4-0.7,0.6-1.4,0.7v0c1.1,0.1,1.6,0.7,1.6,1.9v2.6h-1.1v-2.3c0-1.2-0.5-1.7-1.5-1.7h-0.4h-3.4v4H336.3L336.3,18.4z
	 M337.5,13.4h3.3c0.9,0,1.4-0.1,1.8-0.4c0.3-0.3,0.5-0.8,0.5-1.5c0-0.9-0.1-1.5-0.3-1.8c-0.2-0.3-0.7-0.4-1.5-0.4h-3.6V13.4z"/>
<path style="fill:#231F20;" d="M355.6,16.3h-5.1l-0.8,2.1h-1.2l3.7-10h1.6l3.7,10h-1.2L355.6,16.3L355.6,16.3z M355.2,15.4L353,9.3
	l-2.2,6.1H355.2z"/>
<path style="fill:#231F20;" d="M369.5,8.4v10h-1.1v-8V9.8l0-0.3l0-0.3h0l-0.1,0.2c0,0.1-0.1,0.2-0.1,0.2l-0.2,0.5l-3.4,8.3h-1.1
	l-3.4-8.2l-0.2-0.5l-0.1-0.2c0-0.1-0.1-0.1-0.1-0.2h0l0,0.3l0,0.3v0.5v8h-1.1v-10h2l2.7,6.5l0.4,1l0.2,0.5L364,17h0l0.2-0.5
	c0.1-0.2,0.2-0.4,0.2-0.5l0.4-1l2.7-6.5H369.5z"/>
<path style="fill:#231F20;" d="M375.1,8.3c1.9,0,3.1,0.3,3.5,0.8c0.5,0.6,0.7,1.9,0.7,4.1c0,2.4-0.2,3.8-0.7,4.4
	c-0.5,0.6-1.6,0.8-3.6,0.8c-1.9,0-3.1-0.3-3.6-0.8c-0.5-0.6-0.7-2-0.7-4.3v-0.7l0-0.9c0-1.3,0.3-2.2,0.9-2.7
	C372.3,8.5,373.4,8.3,375.1,8.3L375.1,8.3z M375,9.3c-1.6,0-2.5,0.2-2.8,0.5c-0.3,0.4-0.4,1.6-0.4,3.6c0,2.1,0.1,3.3,0.4,3.6
	c0.3,0.4,1.2,0.5,2.8,0.5c1.6,0,2.5-0.2,2.8-0.5c0.3-0.4,0.4-1.6,0.4-3.6v-0.7l0-0.9c0-1.1-0.2-1.8-0.6-2.1
	C377.3,9.4,376.4,9.3,375,9.3z"/>
<polygon style="fill:#231F20;" points="389.1,8.4 389.1,18.4 387.3,18.4 383.1,11.6 382.4,10.5 382.1,9.9 381.7,9.4 381.7,9.4 
	381.7,9.7 381.7,10.1 381.7,10.9 381.7,18.4 380.6,18.4 380.6,8.4 382.4,8.4 386.1,14.4 387,15.9 387.5,16.7 388,17.5 388,17.5 
	388,17.1 388,16.7 388,16 388,8.4 "/>
<path style="fill:#231F20;" d="M394.6,13.4h4.3c0,0.3,0,0.6,0,1.1c0,1.8-0.2,2.9-0.7,3.3c-0.4,0.4-1.6,0.6-3.5,0.6
	c-1.8,0-2.9-0.3-3.4-0.8c-0.5-0.5-0.8-1.6-0.8-3.4l0-1.5l0-0.9c0-1.5,0.3-2.5,0.8-3c0.6-0.5,1.7-0.7,3.4-0.7c1.7,0,2.8,0.2,3.3,0.5
	c0.5,0.3,0.7,1,0.7,2.1v0.4h-1.1v-0.2c0-0.8-0.2-1.3-0.5-1.5c-0.3-0.2-1.2-0.3-2.6-0.3c-1.3,0-2.1,0.2-2.4,0.5
	c-0.3,0.3-0.5,1.1-0.5,2.3l0,1.3l0,1.4c0,1.3,0.2,2,0.5,2.3c0.4,0.3,1.3,0.4,2.9,0.4c1.2,0,1.9-0.1,2.2-0.4c0.3-0.3,0.4-1,0.4-2.1
	c0-0.1,0-0.3-0.1-0.6h-3.2V13.4z"/>
<path style="fill:#231F20;" d="M407.2,11.1h-1.1c0-0.8-0.1-1.3-0.4-1.5c-0.3-0.2-0.9-0.3-1.9-0.3c-1.2,0-1.9,0.1-2.3,0.3
	c-0.3,0.2-0.5,0.7-0.5,1.4c0,0.8,0.1,1.3,0.4,1.5c0.3,0.2,1.1,0.3,2.4,0.4c1.6,0.1,2.5,0.3,3,0.6c0.4,0.3,0.6,1.1,0.6,2.2
	c0,1.2-0.2,2-0.7,2.4c-0.5,0.4-1.6,0.5-3.2,0.5c-1.4,0-2.4-0.2-2.9-0.5c-0.5-0.4-0.7-1.1-0.7-2.2l0-0.4h1.1v0.3
	c0,0.9,0.1,1.4,0.4,1.7s1,0.3,2.1,0.3c1.3,0,2.1-0.1,2.4-0.3s0.4-0.8,0.4-1.7c0-0.6-0.1-1-0.3-1.2c-0.2-0.2-0.6-0.3-1.3-0.4
	l-1.2-0.1l-1.1-0.1c-1.7-0.1-2.5-1-2.5-2.6c0-1.1,0.2-1.9,0.7-2.3c0.5-0.4,1.5-0.6,3-0.6c1.5,0,2.5,0.2,2.9,0.5
	C406.9,9.2,407.2,9.9,407.2,11.1z"/>
<polygon style="fill:#231F20;" points="412.2,9.5 412.2,18.4 411.1,18.4 411.1,9.5 407.8,9.5 407.8,8.4 415.4,8.4 415.4,9.5 "/>
<polygon style="fill:#231F20;" points="421.3,9.4 421.3,12.8 426.2,12.8 426.2,13.8 421.3,13.8 421.3,18.4 420.2,18.4 420.2,8.4 
	426.3,8.4 426.3,9.4 "/>
<polygon style="fill:#231F20;" points="428.6,8.4 428.6,17.4 433.8,17.4 433.8,18.4 427.5,18.4 427.5,8.4 "/>
<path style="fill:#231F20;" d="M438.4,8.3c1.9,0,3.1,0.3,3.5,0.8c0.5,0.6,0.7,1.9,0.7,4.1c0,2.4-0.2,3.8-0.7,4.4
	c-0.5,0.6-1.6,0.8-3.6,0.8c-1.9,0-3.1-0.3-3.6-0.8c-0.5-0.6-0.7-2-0.7-4.3v-0.7l0-0.9c0-1.3,0.3-2.2,0.9-2.7
	C435.7,8.5,436.8,8.3,438.4,8.3L438.4,8.3z M438.4,9.3c-1.6,0-2.5,0.2-2.8,0.5c-0.3,0.4-0.4,1.6-0.4,3.6c0,2.1,0.1,3.3,0.4,3.6
	s1.2,0.5,2.8,0.5c1.6,0,2.5-0.2,2.8-0.5c0.3-0.4,0.4-1.6,0.4-3.6v-0.7l0-0.9c0-1.1-0.2-1.8-0.6-2.1C440.7,9.4,439.8,9.3,438.4,9.3z"
	/>
<path style="fill:#231F20;" d="M447.6,8.3c1.9,0,3.1,0.3,3.5,0.8c0.5,0.6,0.7,1.9,0.7,4.1c0,2.4-0.2,3.8-0.7,4.4
	c-0.5,0.6-1.6,0.8-3.6,0.8c-1.9,0-3.1-0.3-3.6-0.8c-0.5-0.6-0.7-2-0.7-4.3v-0.7l0-0.9c0-1.3,0.3-2.2,0.9-2.7
	C444.9,8.5,446,8.3,447.6,8.3L447.6,8.3z M447.6,9.3c-1.6,0-2.5,0.2-2.8,0.5c-0.3,0.4-0.4,1.6-0.4,3.6c0,2.1,0.1,3.3,0.4,3.6
	s1.2,0.5,2.8,0.5c1.6,0,2.5-0.2,2.8-0.5s0.4-1.6,0.4-3.6v-0.7l0-0.9c0-1.1-0.2-1.8-0.6-2.1C449.9,9.4,449,9.3,447.6,9.3z"/>
<path style="fill:#231F20;" d="M453.2,18.4v-10h4.6c1.4,0,2.4,0.3,2.9,0.9c0.5,0.6,0.8,1.8,0.8,3.6c0,2.2-0.2,3.6-0.7,4.3
	c-0.5,0.7-1.4,1.1-2.7,1.1H453.2L453.2,18.4z M454.3,17.4h3.3c1.2,0,2-0.2,2.3-0.7s0.5-1.5,0.5-3.2c0-1.8-0.2-3-0.5-3.4
	c-0.3-0.5-1-0.7-2.2-0.7h-3.5V17.4z"/>
<polygon style="fill:#231F20;" points="463.7,9.4 463.7,12.8 468.8,12.8 468.8,13.7 463.7,13.7 463.7,17.4 469,17.4 469,18.4 
	462.6,18.4 462.6,8.4 469,8.4 469,9.4 "/>
<path style="fill:#231F20;" d="M470.4,18.4v-10h4.6c1.4,0,2.4,0.3,2.9,0.9s0.8,1.8,0.8,3.6c0,2.2-0.2,3.6-0.7,4.3
	c-0.5,0.7-1.4,1.1-2.7,1.1H470.4L470.4,18.4z M471.6,17.4h3.3c1.2,0,2-0.2,2.3-0.7s0.5-1.5,0.5-3.2c0-1.8-0.2-3-0.5-3.4
	c-0.3-0.5-1-0.7-2.2-0.7h-3.5V17.4z"/>
<polygon style="fill:#231F20;" points="487.5,9.5 487.5,18.4 486.3,18.4 486.3,9.5 483.1,9.5 483.1,8.4 490.7,8.4 490.7,9.5 "/>
<rect x="491.7" y="8.4" style="fill:#231F20;" width="1.1" height="10"/>
<path style="fill:#231F20;" d="M505.7,8.4v10h-1.1v-8V9.8l0-0.3l0-0.3h0l-0.1,0.2c0,0.1-0.1,0.2-0.1,0.2l-0.2,0.5l-3.4,8.3h-1.1
	l-3.4-8.2l-0.2-0.5L496,9.5c0-0.1-0.1-0.1-0.1-0.2h0l0,0.3l0,0.3v0.5v8h-1.1v-10h2l2.7,6.5l0.4,1l0.2,0.5l0.2,0.5h0l0.2-0.5
	c0.1-0.2,0.2-0.4,0.2-0.5l0.4-1l2.7-6.5H505.7z"/>
<path style="fill:#231F20;" d="M507.6,18.4v-10h4.4c1.2,0,2,0.2,2.4,0.5s0.6,1,0.6,2.1c0,1.1-0.4,1.8-1.3,2.1v0
	c1.1,0.3,1.6,1,1.6,2.4c0,1.1-0.2,1.8-0.6,2.2c-0.4,0.4-1.1,0.6-2.2,0.6H507.6L507.6,18.4z M508.7,12.8h3c0.9,0,1.5-0.1,1.8-0.3
	c0.3-0.2,0.4-0.7,0.4-1.5c0-0.7-0.1-1.1-0.4-1.3c-0.2-0.2-0.8-0.3-1.6-0.3h-3.3V12.8L508.7,12.8z M508.7,17.4h2.4l1,0
	c0.9,0,1.4-0.1,1.7-0.3c0.3-0.2,0.4-0.7,0.4-1.4c0-0.9-0.1-1.4-0.4-1.6c-0.3-0.2-1-0.3-2.2-0.3h-2.9V17.4z"/>
<polygon style="fill:#231F20;" points="517.6,9.4 517.6,12.8 522.7,12.8 522.7,13.7 517.6,13.7 517.6,17.4 522.9,17.4 522.9,18.4 
	516.5,18.4 516.5,8.4 522.9,8.4 522.9,9.4 "/>
<path style="fill:#231F20;" d="M524.3,18.4v-10h4.8c1.1,0,1.8,0.2,2.3,0.6c0.4,0.4,0.7,1.2,0.7,2.2c0,0.9-0.1,1.6-0.4,1.9
	c-0.2,0.4-0.7,0.6-1.4,0.7v0c1.1,0.1,1.6,0.7,1.6,1.9v2.6h-1.1v-2.3c0-1.2-0.5-1.7-1.5-1.7h-0.4h-3.4v4H524.3L524.3,18.4z
	 M525.5,13.4h3.3c0.9,0,1.4-0.1,1.8-0.4c0.3-0.3,0.5-0.8,0.5-1.5c0-0.9-0.1-1.5-0.3-1.8c-0.2-0.3-0.7-0.4-1.5-0.4h-3.6V13.4z"/>
<path style="fill:#231F20;" d="M534.8,17.1v1.4c0,0.9-0.3,1.4-1,1.4c-0.1,0-0.2,0-0.3,0v-0.6c0.4,0,0.6-0.2,0.6-0.6l0-0.3h-0.5v-1.3
	H534.8z"/>
<polygon style="fill:#231F20;" points="18.3,25.5 18.3,29 23.2,29 23.2,29.9 18.3,29.9 18.3,34.5 17.2,34.5 17.2,24.5 23.3,24.5 
	23.3,25.5 "/>
<polygon style="fill:#231F20;" points="25.2,25.5 25.2,28.9 30.3,28.9 30.3,29.8 25.2,29.8 25.2,33.6 30.5,33.6 30.5,34.5 
	24.1,34.5 24.1,24.5 30.5,24.5 30.5,25.5 "/>
<path style="fill:#231F20;" d="M46,24.5l-3.1,10h-1.7L39,27.3l-0.3-0.9c0,0-0.1-0.2-0.1-0.4l-0.1-0.5h0L38.4,26l-0.1,0.5L38,27.3
	l-2.1,7.2h-1.7l-3.1-10h1.2l2.2,7.2l0.3,1c0,0.1,0.1,0.2,0.1,0.5l0.1,0.5h0l0.1-0.5l0.1-0.5l0.3-1l2.1-7.2h1.7l2.1,7.2l0.3,1
	l0.1,0.5l0.1,0.5h0l0.1-0.5l0.1-0.5l0.3-1l2.2-7.2H46z"/>
<polygon style="fill:#231F20;" points="56.4,24.5 56.4,33.5 61.5,33.5 61.5,34.5 55.2,34.5 55.2,24.5 "/>
<path style="fill:#231F20;" d="M69.3,24.5h1.1v7c0,1.3-0.3,2.1-0.8,2.5c-0.5,0.4-1.6,0.6-3.2,0.6c-1.5,0-2.6-0.2-3.1-0.6
	c-0.6-0.4-0.8-1.1-0.8-2.2v-0.3v-7h1.1v7c0,0.9,0.2,1.5,0.5,1.8c0.3,0.2,1.1,0.4,2.3,0.4c1.3,0,2.1-0.1,2.4-0.4
	c0.3-0.2,0.5-0.8,0.5-1.8V24.5z"/>
<path style="fill:#231F20;" d="M72.3,34.5v-10h4.8c1.1,0,1.8,0.2,2.3,0.6c0.4,0.4,0.7,1.2,0.7,2.2c0,0.9-0.1,1.6-0.4,1.9
	c-0.2,0.4-0.7,0.6-1.4,0.7v0c1.1,0.1,1.6,0.7,1.6,1.9v2.6h-1.1v-2.3c0-1.2-0.5-1.7-1.5-1.7h-0.4h-3.4v4H72.3L72.3,34.5z M73.5,29.5
	h3.3c0.9,0,1.4-0.1,1.8-0.4c0.3-0.3,0.5-0.8,0.5-1.5c0-0.9-0.1-1.5-0.3-1.8c-0.2-0.3-0.7-0.4-1.5-0.4h-3.6V29.5z"/>
<polygon style="fill:#231F20;" points="82.4,25.5 82.4,28.9 87.5,28.9 87.5,29.8 82.4,29.8 82.4,33.6 87.7,33.6 87.7,34.5 
	81.3,34.5 81.3,24.5 87.7,24.5 87.7,25.5 "/>
<path style="fill:#231F20;" d="M96,27.2h-1.1c0-0.8-0.1-1.3-0.4-1.5c-0.3-0.2-0.9-0.3-1.9-0.3c-1.2,0-1.9,0.1-2.3,0.3
	c-0.3,0.2-0.5,0.7-0.5,1.4c0,0.8,0.1,1.3,0.4,1.5c0.3,0.2,1.1,0.3,2.4,0.4c1.6,0.1,2.5,0.3,3,0.6s0.6,1.1,0.6,2.2
	c0,1.2-0.2,2-0.7,2.4c-0.5,0.4-1.6,0.5-3.2,0.5c-1.4,0-2.4-0.2-2.9-0.5c-0.5-0.4-0.7-1.1-0.7-2.2l0-0.4h1.1v0.3
	c0,0.9,0.1,1.4,0.4,1.7s1,0.3,2.1,0.3c1.3,0,2.1-0.1,2.4-0.3s0.4-0.8,0.4-1.7c0-0.6-0.1-1-0.3-1.2c-0.2-0.2-0.6-0.3-1.3-0.4L92.4,30
	l-1.1-0.1c-1.7-0.1-2.5-1-2.5-2.6c0-1.1,0.2-1.9,0.7-2.3c0.5-0.4,1.5-0.6,3-0.6c1.5,0,2.5,0.2,2.9,0.5C95.8,25.3,96,26.1,96,27.2z"
	/>
<path style="fill:#231F20;" d="M119.8,24.5l-3.1,10h-1.7l-2.1-7.2l-0.3-0.9c0,0-0.1-0.2-0.1-0.4l-0.1-0.5h0l-0.1,0.5l-0.1,0.5
	l-0.3,0.9l-2.1,7.2h-1.7l-3.1-10h1.2l2.2,7.2l0.3,1c0,0.1,0.1,0.2,0.1,0.5l0.1,0.5h0l0.1-0.5l0.1-0.5l0.3-1l2.1-7.2h1.7l2.1,7.2
	l0.3,1l0.1,0.5l0.1,0.5h0l0.1-0.5l0.1-0.5l0.3-1l2.2-7.2H119.8z"/>
<path style="fill:#231F20;" d="M124.4,24.4c1.9,0,3.1,0.3,3.5,0.8c0.5,0.6,0.7,1.9,0.7,4.1c0,2.4-0.2,3.8-0.7,4.4
	c-0.5,0.6-1.6,0.8-3.6,0.8c-1.9,0-3.1-0.3-3.6-0.8c-0.5-0.6-0.7-2-0.7-4.3v-0.7l0-0.9c0-1.3,0.3-2.2,0.9-2.7
	C121.7,24.7,122.8,24.4,124.4,24.4L124.4,24.4z M124.4,25.4c-1.6,0-2.5,0.2-2.8,0.5c-0.3,0.4-0.4,1.6-0.4,3.6c0,2.1,0.1,3.3,0.4,3.6
	c0.3,0.4,1.2,0.5,2.8,0.5c1.6,0,2.5-0.2,2.8-0.5c0.3-0.4,0.4-1.6,0.4-3.6v-0.7l0-0.9c0-1.1-0.2-1.8-0.6-2.1
	C126.7,25.5,125.8,25.4,124.4,25.4z"/>
<path style="fill:#231F20;" d="M130,34.5v-10h4.8c1.1,0,1.8,0.2,2.3,0.6c0.4,0.4,0.7,1.2,0.7,2.2c0,0.9-0.1,1.6-0.4,1.9
	c-0.2,0.4-0.7,0.6-1.4,0.7v0c1.1,0.1,1.6,0.7,1.6,1.9v2.6h-1.1v-2.3c0-1.2-0.5-1.7-1.5-1.7h-0.4h-3.4v4H130L130,34.5z M131.1,29.5
	h3.3c0.9,0,1.4-0.1,1.8-0.4c0.3-0.3,0.5-0.8,0.5-1.5c0-0.9-0.1-1.5-0.3-1.8c-0.2-0.3-0.7-0.4-1.5-0.4h-3.6V29.5z"/>
<polygon style="fill:#231F20;" points="140.4,24.5 140.4,28.9 141.4,28.9 145.5,24.5 147,24.5 142.4,29.3 147.6,34.5 146,34.5 
	141.4,29.8 140.4,29.8 140.4,34.5 139.3,34.5 139.3,24.5 "/>
<path style="fill:#231F20;" d="M156.6,34.5v-10h4.4c1.2,0,2,0.2,2.4,0.5c0.4,0.3,0.6,1,0.6,2.1c0,1.1-0.4,1.8-1.3,2.1v0
	c1.1,0.3,1.6,1,1.6,2.4c0,1.1-0.2,1.8-0.6,2.2c-0.4,0.4-1.1,0.6-2.2,0.6H156.6L156.6,34.5z M157.8,28.9h3c0.9,0,1.5-0.1,1.8-0.3
	c0.3-0.2,0.4-0.7,0.4-1.5c0-0.7-0.1-1.1-0.4-1.3c-0.2-0.2-0.8-0.3-1.6-0.3h-3.3V28.9L157.8,28.9z M157.8,33.6h2.4l1,0
	c0.9,0,1.4-0.1,1.7-0.3c0.3-0.2,0.4-0.7,0.4-1.4c0-0.9-0.1-1.4-0.4-1.6c-0.3-0.2-1-0.3-2.2-0.3h-2.9V33.6z"/>
<polygon style="fill:#231F20;" points="166.6,25.5 166.6,28.9 171.7,28.9 171.7,29.8 166.6,29.8 166.6,33.6 171.9,33.6 171.9,34.5 
	165.5,34.5 165.5,24.5 171.9,24.5 171.9,25.5 "/>
<polygon style="fill:#231F20;" points="176.8,25.6 176.8,34.5 175.7,34.5 175.7,25.6 172.5,25.6 172.5,24.5 180.1,24.5 180.1,25.6 
	"/>
<polygon style="fill:#231F20;" points="184.6,25.6 184.6,34.5 183.4,34.5 183.4,25.6 180.2,25.6 180.2,24.5 187.8,24.5 187.8,25.6 
	"/>
<polygon style="fill:#231F20;" points="189.5,25.5 189.5,28.9 194.6,28.9 194.6,29.8 189.5,29.8 189.5,33.6 194.8,33.6 194.8,34.5 
	188.4,34.5 188.4,24.5 194.8,24.5 194.8,25.5 "/>
<path style="fill:#231F20;" d="M196.3,34.5v-10h4.8c1.1,0,1.8,0.2,2.3,0.6c0.4,0.4,0.7,1.2,0.7,2.2c0,0.9-0.1,1.6-0.4,1.9
	c-0.2,0.4-0.7,0.6-1.4,0.7v0c1.1,0.1,1.6,0.7,1.6,1.9v2.6h-1.1v-2.3c0-1.2-0.5-1.7-1.5-1.7h-0.4h-3.4v4H196.3L196.3,34.5z
	 M197.4,29.5h3.3c0.9,0,1.4-0.1,1.8-0.4c0.3-0.3,0.5-0.8,0.5-1.5c0-0.9-0.1-1.5-0.3-1.8c-0.2-0.3-0.7-0.4-1.5-0.4h-3.6V29.5z"/>
<polygon style="fill:#231F20;" points="217.4,25.6 217.4,34.5 216.2,34.5 216.2,25.6 213,25.6 213,24.5 220.6,24.5 220.6,25.6 "/>
<polygon style="fill:#231F20;" points="229.7,24.5 229.7,34.5 228.6,34.5 228.6,29.9 222.7,29.9 222.7,34.5 221.6,34.5 221.6,24.5 
	222.7,24.5 222.7,28.9 228.6,28.9 228.6,24.5 "/>
<path style="fill:#231F20;" d="M237.7,32.4h-5.1l-0.8,2.1h-1.2l3.7-10h1.6l3.7,10h-1.2L237.7,32.4L237.7,32.4z M237.4,31.6l-2.2-6.1
	l-2.2,6.1H237.4z"/>
<polygon style="fill:#231F20;" points="249.3,24.5 249.3,34.5 247.4,34.5 243.2,27.7 242.5,26.6 242.2,26 241.9,25.5 241.8,25.5 
	241.8,25.9 241.8,26.2 241.8,27 241.8,34.5 240.7,34.5 240.7,24.5 242.6,24.5 246.2,30.5 247.2,32.1 247.6,32.8 248.1,33.6 
	248.1,33.6 248.1,33.2 248.1,32.9 248.1,32.1 248.1,24.5 "/>
<path style="fill:#231F20;" d="M265.6,32.4h-5.1l-0.8,2.1h-1.2l3.7-10h1.6l3.7,10h-1.2L265.6,32.4L265.6,32.4z M265.3,31.6l-2.2-6.1
	l-2.2,6.1H265.3z"/>
<path style="fill:#231F20;" d="M283.7,27.2h-1.1c0-0.8-0.1-1.3-0.4-1.5c-0.3-0.2-0.9-0.3-1.9-0.3c-1.2,0-1.9,0.1-2.3,0.3
	c-0.3,0.2-0.5,0.7-0.5,1.4c0,0.8,0.1,1.3,0.4,1.5c0.3,0.2,1.1,0.3,2.4,0.4c1.6,0.1,2.5,0.3,3,0.6c0.4,0.3,0.6,1.1,0.6,2.2
	c0,1.2-0.2,2-0.7,2.4c-0.5,0.4-1.6,0.5-3.2,0.5c-1.4,0-2.4-0.2-2.9-0.5c-0.5-0.4-0.7-1.1-0.7-2.2l0-0.4h1.1v0.3
	c0,0.9,0.1,1.4,0.4,1.7c0.3,0.2,1,0.3,2.1,0.3c1.3,0,2.1-0.1,2.4-0.3c0.3-0.2,0.4-0.8,0.4-1.7c0-0.6-0.1-1-0.3-1.2s-0.6-0.3-1.3-0.4
	l-1.2-0.1l-1.1-0.1c-1.7-0.1-2.5-1-2.5-2.6c0-1.1,0.2-1.9,0.7-2.3c0.5-0.4,1.5-0.6,3-0.6c1.5,0,2.5,0.2,2.9,0.5
	C283.5,25.3,283.7,26.1,283.7,27.2z"/>
<path style="fill:#231F20;" d="M292,24.5h1.1v7c0,1.3-0.3,2.1-0.8,2.5c-0.5,0.4-1.6,0.6-3.2,0.6c-1.5,0-2.6-0.2-3.1-0.6
	c-0.5-0.4-0.8-1.1-0.8-2.2v-0.3v-7h1.1v7c0,0.9,0.2,1.5,0.5,1.8c0.3,0.2,1.1,0.4,2.3,0.4c1.3,0,2.1-0.1,2.4-0.4s0.5-0.8,0.5-1.8
	V24.5z"/>
<path style="fill:#231F20;" d="M295.1,34.5v-10h4.8c1.1,0,1.8,0.2,2.3,0.6c0.4,0.4,0.7,1.2,0.7,2.2c0,0.9-0.1,1.6-0.4,1.9
	c-0.2,0.4-0.7,0.6-1.4,0.7v0c1.1,0.1,1.6,0.7,1.6,1.9v2.6h-1.1v-2.3c0-1.2-0.5-1.7-1.5-1.7h-0.4h-3.4v4H295.1L295.1,34.5z
	 M296.2,29.5h3.3c0.9,0,1.4-0.1,1.8-0.4c0.3-0.3,0.5-0.8,0.5-1.5c0-0.9-0.1-1.5-0.3-1.8c-0.2-0.3-0.7-0.4-1.5-0.4h-3.6V29.5z"/>
<polygon style="fill:#231F20;" points="305.5,25.5 305.5,29 310.4,29 310.4,29.9 305.5,29.9 305.5,34.5 304.4,34.5 304.4,24.5 
	310.5,24.5 310.5,25.5 "/>
<path style="fill:#231F20;" d="M317.9,32.4h-5.1l-0.8,2.1h-1.2l3.7-10h1.6l3.7,10h-1.2L317.9,32.4L317.9,32.4z M317.5,31.6l-2.2-6.1
	l-2.2,6.1H317.5z"/>
<path style="fill:#231F20;" d="M327.4,31.2h1.1v0.4c0,1.4-0.2,2.2-0.7,2.6c-0.5,0.3-1.6,0.5-3.5,0.5c-1.7,0-2.7-0.3-3.2-0.9
	c-0.5-0.6-0.7-2-0.7-4.2c0-1.7,0.1-2.8,0.2-3.3c0.1-0.4,0.4-0.8,0.9-1.2c0.6-0.4,1.8-0.6,3.7-0.6c1.3,0,2.1,0.2,2.6,0.6
	c0.4,0.4,0.7,1.2,0.7,2.3l0,0.3h-1.1l0-0.3c0-0.8-0.1-1.3-0.4-1.6c-0.3-0.2-0.9-0.3-1.8-0.3c-1.6,0-2.6,0.1-2.9,0.4
	c-0.4,0.3-0.5,1-0.5,2.2c0,2.8,0.1,4.5,0.4,4.9c0.2,0.5,1.1,0.7,2.5,0.7c1.3,0,2.2-0.1,2.5-0.3c0.3-0.2,0.5-0.7,0.5-1.6L327.4,31.2z
	"/>
<polygon style="fill:#231F20;" points="330.5,25.5 330.5,28.9 335.6,28.9 335.6,29.8 330.5,29.8 330.5,33.6 335.8,33.6 335.8,34.5 
	329.4,34.5 329.4,24.5 335.8,24.5 335.8,25.5 "/>
<path style="fill:#231F20;" d="M359.5,24.5l-3.1,10h-1.7l-2.1-7.2l-0.3-0.9c0,0-0.1-0.2-0.1-0.4l-0.1-0.5h0l-0.1,0.5l-0.1,0.5
	l-0.3,0.9l-2.1,7.2h-1.7l-3.1-10h1.2l2.2,7.2l0.3,1c0,0.1,0.1,0.2,0.1,0.5l0.1,0.5h0l0.1-0.5l0.1-0.5l0.3-1l2.1-7.2h1.7l2.1,7.2
	l0.3,1l0.1,0.5l0.1,0.5h0l0.1-0.5l0.1-0.5l0.3-1l2.2-7.2H359.5z"/>
<path style="fill:#231F20;" d="M366.7,32.4h-5.1l-0.8,2.1h-1.2l3.7-10h1.6l3.7,10h-1.2L366.7,32.4L366.7,32.4z M366.3,31.6l-2.2-6.1
	l-2.2,6.1H366.3z"/>
<polygon style="fill:#231F20;" points="370.8,24.5 370.8,33.5 375.9,33.5 375.9,34.5 369.6,34.5 369.6,24.5 "/>
<polygon style="fill:#231F20;" points="378,24.5 378,28.9 379,28.9 383.1,24.5 384.6,24.5 380,29.3 385.1,34.5 383.6,34.5 379,29.8 
	378,29.8 378,34.5 376.9,34.5 376.9,24.5 "/>
<polygon style="fill:#231F20;" points="386.7,25.5 386.7,28.9 391.7,28.9 391.7,29.8 386.7,29.8 386.7,33.6 392,33.6 392,34.5 
	385.5,34.5 385.5,24.5 392,24.5 392,25.5 "/>
<path style="fill:#231F20;" d="M393.4,34.5v-10h4.8c1.1,0,1.8,0.2,2.3,0.6c0.4,0.4,0.7,1.2,0.7,2.2c0,0.9-0.1,1.6-0.4,1.9
	c-0.2,0.4-0.7,0.6-1.4,0.7v0c1.1,0.1,1.6,0.7,1.6,1.9v2.6h-1.1v-2.3c0-1.2-0.5-1.7-1.5-1.7h-0.4h-3.4v4H393.4L393.4,34.5z
	 M394.5,29.5h3.3c0.9,0,1.4-0.1,1.8-0.4c0.3-0.3,0.5-0.8,0.5-1.5c0-0.9-0.1-1.5-0.3-1.8c-0.2-0.3-0.7-0.4-1.5-0.4h-3.6V29.5z"/>
<path style="fill:#231F20;" d="M417.6,31.2h1.1v0.4c0,1.4-0.2,2.2-0.7,2.6c-0.5,0.3-1.6,0.5-3.5,0.5c-1.7,0-2.7-0.3-3.2-0.9
	c-0.5-0.6-0.7-2-0.7-4.2c0-1.7,0.1-2.8,0.2-3.3s0.4-0.8,0.9-1.2c0.6-0.4,1.8-0.6,3.7-0.6c1.3,0,2.1,0.2,2.6,0.6
	c0.4,0.4,0.7,1.2,0.7,2.3l0,0.3h-1.1l0-0.3c0-0.8-0.1-1.3-0.4-1.6c-0.3-0.2-0.9-0.3-1.8-0.3c-1.6,0-2.6,0.1-2.9,0.4
	c-0.4,0.3-0.5,1-0.5,2.2c0,2.8,0.1,4.5,0.4,4.9c0.2,0.5,1.1,0.7,2.5,0.7c1.3,0,2.2-0.1,2.5-0.3c0.3-0.2,0.5-0.7,0.5-1.6L417.6,31.2z
	"/>
<path style="fill:#231F20;" d="M420,34.5v-10h4.8c1.1,0,1.8,0.2,2.3,0.6c0.4,0.4,0.7,1.2,0.7,2.2c0,0.9-0.1,1.6-0.4,1.9
	c-0.2,0.4-0.7,0.6-1.4,0.7v0c1.1,0.1,1.6,0.7,1.6,1.9v2.6h-1.1v-2.3c0-1.2-0.5-1.7-1.5-1.7h-0.4h-3.4v4H420L420,34.5z M421.1,29.5
	h3.3c0.9,0,1.4-0.1,1.8-0.4c0.3-0.3,0.5-0.8,0.5-1.5c0-0.9-0.1-1.5-0.3-1.8c-0.2-0.3-0.7-0.4-1.5-0.4h-3.6V29.5z"/>
<polygon style="fill:#231F20;" points="430.1,25.5 430.1,28.9 435.1,28.9 435.1,29.8 430.1,29.8 430.1,33.6 435.3,33.6 435.3,34.5 
	428.9,34.5 428.9,24.5 435.3,24.5 435.3,25.5 "/>
<path style="fill:#231F20;" d="M442.9,32.4h-5.1l-0.8,2.1h-1.2l3.7-10h1.6l3.7,10h-1.2L442.9,32.4L442.9,32.4z M442.6,31.6l-2.2-6.1
	l-2.2,6.1H442.6z"/>
<polygon style="fill:#231F20;" points="449.4,25.6 449.4,34.5 448.3,34.5 448.3,25.6 445,25.6 445,24.5 452.6,24.5 452.6,25.6 "/>
<rect x="453.6" y="24.5" style="fill:#231F20;" width="1.1" height="10"/>
<polygon style="fill:#231F20;" points="465.2,24.5 465.2,34.5 463.4,34.5 459.2,27.7 458.5,26.6 458.2,26 457.8,25.5 457.8,25.5 
	457.8,25.9 457.8,26.2 457.8,27 457.8,34.5 456.7,34.5 456.7,24.5 458.5,24.5 462.2,30.5 463.1,32.1 463.6,32.8 464.1,33.6 
	464.1,33.6 464.1,33.2 464.1,32.9 464.1,32.1 464.1,24.5 "/>
<path style="fill:#231F20;" d="M470.7,29.6h4.3c0,0.3,0,0.6,0,1.1c0,1.8-0.2,2.9-0.7,3.3c-0.4,0.4-1.6,0.6-3.5,0.6
	c-1.8,0-2.9-0.3-3.4-0.8c-0.5-0.5-0.8-1.6-0.8-3.4l0-1.5l0-0.9c0-1.5,0.3-2.5,0.8-3c0.6-0.5,1.7-0.7,3.4-0.7c1.7,0,2.8,0.2,3.3,0.5
	s0.7,1,0.7,2.1v0.4h-1.1v-0.2c0-0.8-0.2-1.3-0.5-1.5c-0.3-0.2-1.2-0.3-2.6-0.3c-1.3,0-2.1,0.2-2.4,0.5c-0.3,0.3-0.5,1.1-0.5,2.3
	l0,1.3l0,1.4c0,1.3,0.2,2,0.5,2.3c0.4,0.3,1.3,0.4,2.9,0.4c1.2,0,1.9-0.1,2.2-0.4c0.3-0.3,0.4-1,0.4-2.1c0-0.1,0-0.3-0.1-0.6h-3.2
	V29.6z"/>
<polygon style="fill:#231F20;" points="485.8,24.5 485.8,33.5 491,33.5 491,34.5 484.7,34.5 484.7,24.5 "/>
<rect x="492" y="24.5" style="fill:#231F20;" width="1.1" height="10"/>
<polygon style="fill:#231F20;" points="496.1,25.5 496.1,29 501,29 501,29.9 496.1,29.9 496.1,34.5 495,34.5 495,24.5 501.1,24.5 
	501.1,25.5 "/>
<polygon style="fill:#231F20;" points="503.1,25.5 503.1,28.9 508.1,28.9 508.1,29.8 503.1,29.8 503.1,33.6 508.4,33.6 508.4,34.5 
	501.9,34.5 501.9,24.5 508.4,24.5 508.4,25.5 "/>
<polygon style="fill:#231F20;" points="510.9,24.5 510.9,33.5 516.1,33.5 516.1,34.5 509.8,34.5 509.8,24.5 "/>
<rect x="517.1" y="24.5" style="fill:#231F20;" width="1.1" height="10"/>
<polygon style="fill:#231F20;" points="521.3,24.5 521.3,28.9 522.3,28.9 526.4,24.5 527.8,24.5 523.2,29.3 528.4,34.5 526.8,34.5 
	522.3,29.8 521.3,29.8 521.3,34.5 520.1,34.5 520.1,24.5 "/>
<polygon style="fill:#231F20;" points="529.9,25.5 529.9,28.9 535,28.9 535,29.8 529.9,29.8 529.9,33.6 535.2,33.6 535.2,34.5 
	528.8,34.5 528.8,24.5 535.2,24.5 535.2,25.5 "/>
<path style="fill:#231F20;" d="M24,43.4h-1.1c0-0.8-0.1-1.3-0.4-1.5c-0.3-0.2-0.9-0.3-1.9-0.3c-1.2,0-1.9,0.1-2.3,0.3
	s-0.5,0.7-0.5,1.4c0,0.8,0.1,1.3,0.4,1.5c0.3,0.2,1.1,0.3,2.4,0.4c1.6,0.1,2.5,0.3,3,0.6c0.4,0.3,0.6,1.1,0.6,2.2
	c0,1.2-0.2,2-0.7,2.4c-0.5,0.4-1.6,0.5-3.2,0.5c-1.4,0-2.4-0.2-2.9-0.5c-0.5-0.4-0.7-1.1-0.7-2.2l0-0.4h1.1v0.3
	c0,0.9,0.1,1.4,0.4,1.7s1,0.3,2.1,0.3c1.3,0,2.1-0.1,2.4-0.3c0.3-0.2,0.4-0.8,0.4-1.7c0-0.6-0.1-1-0.3-1.2c-0.2-0.2-0.6-0.3-1.3-0.4
	l-1.2-0.1L19.3,46c-1.7-0.1-2.5-1-2.5-2.6c0-1.1,0.2-1.9,0.7-2.3c0.5-0.4,1.5-0.6,3-0.6c1.5,0,2.5,0.2,2.9,0.5
	C23.8,41.4,24,42.2,24,43.4z"/>
<path style="fill:#231F20;" d="M25.6,50.6v-10h4.2h0.4c1.1,0,1.9,0.2,2.3,0.7c0.4,0.4,0.6,1.2,0.6,2.4c0,1.1-0.2,1.9-0.6,2.3
	c-0.4,0.4-1.2,0.6-2.4,0.6l-0.4,0h-2.9v3.9H25.6L25.6,50.6z M26.7,45.8h2.7c1.1,0,1.8-0.1,2.1-0.3c0.3-0.2,0.5-0.8,0.5-1.6
	c0-1-0.1-1.6-0.3-1.8c-0.2-0.3-0.7-0.4-1.5-0.4l-0.4,0h-3V45.8z"/>
<polygon style="fill:#231F20;" points="35.6,40.6 35.6,49.6 40.7,49.6 40.7,50.6 34.4,50.6 34.4,40.6 "/>
<path style="fill:#231F20;" d="M47.8,48.5h-5.1L42,50.6h-1.2l3.7-10h1.6l3.7,10h-1.2L47.8,48.5L47.8,48.5z M47.5,47.7l-2.2-6.1
	l-2.2,6.1H47.5z"/>
<path style="fill:#231F20;" d="M57.7,43.4h-1.1c0-0.8-0.1-1.3-0.4-1.5c-0.3-0.2-0.9-0.3-1.9-0.3c-1.2,0-1.9,0.1-2.3,0.3
	c-0.3,0.2-0.5,0.7-0.5,1.4c0,0.8,0.1,1.3,0.4,1.5c0.3,0.2,1.1,0.3,2.4,0.4c1.6,0.1,2.5,0.3,3,0.6c0.4,0.3,0.6,1.1,0.6,2.2
	c0,1.2-0.2,2-0.7,2.4c-0.5,0.4-1.6,0.5-3.2,0.5c-1.4,0-2.4-0.2-2.9-0.5c-0.5-0.4-0.7-1.1-0.7-2.2l0-0.4h1.1v0.3
	c0,0.9,0.1,1.4,0.4,1.7s1,0.3,2.1,0.3c1.3,0,2.1-0.1,2.4-0.3c0.3-0.2,0.4-0.8,0.4-1.7c0-0.6-0.1-1-0.3-1.2c-0.2-0.2-0.6-0.3-1.3-0.4
	L54,46.1L52.9,46c-1.7-0.1-2.5-1-2.5-2.6c0-1.1,0.2-1.9,0.7-2.3c0.5-0.4,1.5-0.6,3-0.6c1.5,0,2.5,0.2,2.9,0.5
	C57.4,41.4,57.7,42.2,57.7,43.4z"/>
<polygon style="fill:#231F20;" points="67.3,40.6 67.3,50.6 66.2,50.6 66.2,46 60.3,46 60.3,50.6 59.2,50.6 59.2,40.6 60.3,40.6 
	60.3,45.1 66.2,45.1 66.2,40.6 "/>
<rect x="69.2" y="40.6" style="fill:#231F20;" width="1.1" height="10"/>
<polygon style="fill:#231F20;" points="80.8,40.6 80.8,50.6 78.9,50.6 74.8,43.8 74.1,42.7 73.7,42.2 73.4,41.6 73.4,41.6 73.4,42 
	73.4,42.4 73.4,43.1 73.4,50.6 72.3,50.6 72.3,40.6 74.1,40.6 77.8,46.6 78.7,48.2 79.2,48.9 79.6,49.7 79.7,49.7 79.7,49.4 
	79.7,49 79.7,48.2 79.7,40.6 "/>
<path style="fill:#231F20;" d="M86.3,45.7h4.3c0,0.3,0,0.6,0,1.1c0,1.8-0.2,2.9-0.7,3.3s-1.6,0.6-3.5,0.6c-1.8,0-2.9-0.3-3.4-0.8
	c-0.5-0.5-0.8-1.6-0.8-3.4l0-1.5l0-0.9c0-1.5,0.3-2.5,0.8-3c0.6-0.5,1.7-0.7,3.4-0.7c1.7,0,2.8,0.2,3.3,0.5s0.7,1,0.7,2.1v0.4h-1.1
	v-0.2c0-0.8-0.2-1.3-0.5-1.5c-0.3-0.2-1.2-0.3-2.6-0.3c-1.3,0-2.1,0.2-2.4,0.5c-0.3,0.3-0.5,1.1-0.5,2.3l0,1.3l0,1.4
	c0,1.3,0.2,2,0.5,2.3c0.4,0.3,1.3,0.4,2.9,0.4c1.2,0,1.9-0.1,2.2-0.4c0.3-0.3,0.4-1,0.4-2.1c0-0.1,0-0.3-0.1-0.6h-3.2V45.7z"/>
<path style="fill:#231F20;" d="M108.9,40.6v10h-1.1v-8V42l0-0.3l0-0.3h0l-0.1,0.2c0,0.1-0.1,0.2-0.1,0.2l-0.2,0.5l-3.4,8.3h-1.1
	l-3.4-8.2L99.2,42l-0.1-0.2c0-0.1-0.1-0.1-0.1-0.2h0l0,0.3l0,0.3v0.5v8h-1.1v-10h2l2.7,6.5l0.4,1l0.2,0.5l0.2,0.5h0l0.2-0.5
	c0.1-0.3,0.2-0.4,0.2-0.5l0.4-1l2.7-6.5H108.9z"/>
<path style="fill:#231F20;" d="M114.4,40.5c1.9,0,3.1,0.3,3.5,0.8c0.5,0.6,0.7,1.9,0.7,4.1c0,2.4-0.2,3.8-0.7,4.4
	c-0.5,0.6-1.6,0.8-3.6,0.8c-1.9,0-3.1-0.3-3.6-0.8c-0.5-0.6-0.7-2-0.7-4.3v-0.7l0-0.9c0-1.3,0.3-2.2,0.9-2.7
	C111.7,40.8,112.8,40.5,114.4,40.5L114.4,40.5z M114.4,41.5c-1.6,0-2.5,0.2-2.8,0.5c-0.3,0.4-0.4,1.6-0.4,3.6c0,2.1,0.1,3.3,0.4,3.6
	c0.3,0.4,1.2,0.5,2.8,0.5c1.6,0,2.5-0.2,2.8-0.5c0.3-0.4,0.4-1.6,0.4-3.6V45l0-0.9c0-1.1-0.2-1.8-0.6-2.1
	C116.7,41.6,115.8,41.5,114.4,41.5z"/>
<path style="fill:#231F20;" d="M126.5,40.6h1.2l-3.5,10h-1.6l-3.6-10h1.2l2.7,7.5l0.3,0.8c0.1,0.3,0.2,0.6,0.2,0.8h0
	c0.1-0.5,0.3-1,0.5-1.5L126.5,40.6z"/>
<polygon style="fill:#231F20;" points="129.3,41.6 129.3,45 134.4,45 134.4,46 129.3,46 129.3,49.7 134.6,49.7 134.6,50.6 
	128.2,50.6 128.2,40.6 134.6,40.6 134.6,41.6 "/>
<path style="fill:#231F20;" d="M147,40.6v10h-1.1v-8V42l0-0.3l0-0.3h0l-0.1,0.2c0,0.1-0.1,0.2-0.1,0.2l-0.2,0.5l-3.4,8.3h-1.1
	l-3.4-8.2l-0.2-0.5l-0.1-0.2c0-0.1-0.1-0.1-0.1-0.2h0l0,0.3l0,0.3v0.5v8H136v-10h2l2.7,6.5l0.4,1l0.2,0.5l0.2,0.5h0l0.2-0.5
	c0.1-0.3,0.2-0.4,0.2-0.5l0.4-1l2.7-6.5H147z"/>
<polygon style="fill:#231F20;" points="149.6,41.6 149.6,45 154.7,45 154.7,46 149.6,46 149.6,49.7 154.9,49.7 154.9,50.6 
	148.5,50.6 148.5,40.6 154.9,40.6 154.9,41.6 "/>
<polygon style="fill:#231F20;" points="164.9,40.6 164.9,50.6 163,50.6 158.8,43.8 158.2,42.7 157.8,42.2 157.5,41.6 157.5,41.6 
	157.5,42 157.5,42.4 157.5,43.1 157.5,50.6 156.3,50.6 156.3,40.6 158.2,40.6 161.8,46.6 162.8,48.2 163.3,48.9 163.7,49.7 
	163.8,49.7 163.8,49.4 163.8,49 163.8,48.2 163.8,40.6 "/>
<polygon style="fill:#231F20;" points="170.3,41.7 170.3,50.6 169.1,50.6 169.1,41.7 165.9,41.7 165.9,40.6 173.5,40.6 173.5,41.7 
	"/>
<path style="fill:#231F20;" d="M181.4,43.4h-1.1c0-0.8-0.1-1.3-0.4-1.5c-0.3-0.2-0.9-0.3-1.9-0.3c-1.2,0-1.9,0.1-2.3,0.3
	s-0.5,0.7-0.5,1.4c0,0.8,0.1,1.3,0.4,1.5c0.3,0.2,1.1,0.3,2.4,0.4c1.6,0.1,2.5,0.3,3,0.6c0.4,0.3,0.6,1.1,0.6,2.2
	c0,1.2-0.2,2-0.7,2.4c-0.5,0.4-1.6,0.5-3.2,0.5c-1.4,0-2.4-0.2-2.9-0.5c-0.5-0.4-0.7-1.1-0.7-2.2l0-0.4h1.1v0.3
	c0,0.9,0.1,1.4,0.4,1.7s1,0.3,2.1,0.3c1.3,0,2.1-0.1,2.4-0.3c0.3-0.2,0.4-0.8,0.4-1.7c0-0.6-0.1-1-0.3-1.2c-0.2-0.2-0.6-0.3-1.3-0.4
	l-1.2-0.1l-1.1-0.1c-1.7-0.1-2.5-1-2.5-2.6c0-1.1,0.2-1.9,0.7-2.3c0.5-0.4,1.5-0.6,3-0.6c1.5,0,2.5,0.2,2.9,0.5
	C181.1,41.4,181.4,42.2,181.4,43.4z"/>
<rect x="182.8" y="49.3" style="fill:#231F20;" width="1.1" height="1.3"/>
<rect x="197.7" y="40.6" style="fill:#231F20;" width="1.1" height="10"/>
<polygon style="fill:#231F20;" points="209.3,40.6 209.3,50.6 207.4,50.6 203.3,43.8 202.6,42.7 202.2,42.2 201.9,41.6 201.9,41.6 
	201.9,42 201.9,42.4 201.9,43.1 201.9,50.6 200.8,50.6 200.8,40.6 202.6,40.6 206.3,46.6 207.2,48.2 207.7,48.9 208.2,49.7 
	208.2,49.7 208.2,49.4 208.2,49 208.2,48.2 208.2,40.6 "/>
<polygon style="fill:#231F20;" points="220.6,41.7 220.6,50.6 219.5,50.6 219.5,41.7 216.2,41.7 216.2,40.6 223.9,40.6 223.9,41.7 
	"/>
<polygon style="fill:#231F20;" points="233,40.6 233,50.6 231.8,50.6 231.8,46 226,46 226,50.6 224.9,50.6 224.9,40.6 226,40.6 
	226,45.1 231.8,45.1 231.8,40.6 "/>
<polygon style="fill:#231F20;" points="235.6,41.6 235.6,45 240.7,45 240.7,46 235.6,46 235.6,49.7 240.9,49.7 240.9,50.6 
	234.5,50.6 234.5,40.6 240.9,40.6 240.9,41.6 "/>
<path style="fill:#231F20;" d="M249.2,43.4h-1.1c0-0.8-0.1-1.3-0.4-1.5c-0.3-0.2-0.9-0.3-1.9-0.3c-1.2,0-1.9,0.1-2.3,0.3
	c-0.3,0.2-0.5,0.7-0.5,1.4c0,0.8,0.1,1.3,0.4,1.5c0.3,0.2,1.1,0.3,2.4,0.4c1.6,0.1,2.5,0.3,3,0.6c0.4,0.3,0.6,1.1,0.6,2.2
	c0,1.2-0.2,2-0.7,2.4c-0.5,0.4-1.6,0.5-3.2,0.5c-1.4,0-2.4-0.2-2.9-0.5c-0.5-0.4-0.7-1.1-0.7-2.2l0-0.4h1.1v0.3
	c0,0.9,0.1,1.4,0.4,1.7s1,0.3,2.1,0.3c1.3,0,2.1-0.1,2.4-0.3c0.3-0.2,0.4-0.8,0.4-1.7c0-0.6-0.1-1-0.3-1.2c-0.2-0.2-0.6-0.3-1.3-0.4
	l-1.2-0.1l-1.1-0.1c-1.7-0.1-2.5-1-2.5-2.6c0-1.1,0.2-1.9,0.7-2.3c0.5-0.4,1.5-0.6,3-0.6c1.5,0,2.5,0.2,2.9,0.5
	C248.9,41.4,249.2,42.2,249.2,43.4z"/>
<polygon style="fill:#231F20;" points="251.4,41.6 251.4,45 256.5,45 256.5,46 251.4,46 251.4,49.7 256.7,49.7 256.7,50.6 
	250.3,50.6 250.3,40.6 256.7,40.6 256.7,41.6 "/>
<path style="fill:#231F20;" d="M271,43.4h-1.1c0-0.8-0.1-1.3-0.4-1.5c-0.3-0.2-0.9-0.3-1.9-0.3c-1.2,0-1.9,0.1-2.3,0.3
	s-0.5,0.7-0.5,1.4c0,0.8,0.1,1.3,0.4,1.5c0.3,0.2,1.1,0.3,2.4,0.4c1.6,0.1,2.5,0.3,3,0.6c0.4,0.3,0.6,1.1,0.6,2.2
	c0,1.2-0.2,2-0.7,2.4c-0.5,0.4-1.6,0.5-3.2,0.5c-1.4,0-2.4-0.2-2.9-0.5c-0.5-0.4-0.7-1.1-0.7-2.2l0-0.4h1.1v0.3
	c0,0.9,0.1,1.4,0.4,1.7s1,0.3,2.1,0.3c1.3,0,2.1-0.1,2.4-0.3c0.3-0.2,0.4-0.8,0.4-1.7c0-0.6-0.1-1-0.3-1.2c-0.2-0.2-0.6-0.3-1.3-0.4
	l-1.2-0.1l-1.1-0.1c-1.7-0.1-2.5-1-2.5-2.6c0-1.1,0.2-1.9,0.7-2.3c0.5-0.4,1.5-0.6,3-0.6c1.5,0,2.5,0.2,2.9,0.5
	C270.7,41.4,271,42.2,271,43.4z"/>
<rect x="272.5" y="40.6" style="fill:#231F20;" width="1.1" height="10"/>
<polygon style="fill:#231F20;" points="279,41.7 279,50.6 277.9,50.6 277.9,41.7 274.7,41.7 274.7,40.6 282.3,40.6 282.3,41.7 "/>
<path style="fill:#231F20;" d="M290.1,40.6h1.1v7c0,1.3-0.3,2.1-0.8,2.5c-0.5,0.4-1.6,0.6-3.2,0.6c-1.5,0-2.6-0.2-3.1-0.6
	c-0.6-0.4-0.8-1.1-0.8-2.2v-0.3v-7h1.1v7c0,0.9,0.2,1.5,0.5,1.8s1.1,0.4,2.3,0.4c1.3,0,2.1-0.1,2.4-0.4c0.3-0.2,0.5-0.8,0.5-1.8
	V40.6z"/>
<path style="fill:#231F20;" d="M299.2,48.5h-5.1l-0.8,2.1h-1.2l3.7-10h1.6l3.7,10H300L299.2,48.5L299.2,48.5z M298.9,47.7l-2.2-6.1
	l-2.2,6.1H298.9z"/>
<polygon style="fill:#231F20;" points="305.7,41.7 305.7,50.6 304.6,50.6 304.6,41.7 301.3,41.7 301.3,40.6 308.9,40.6 308.9,41.7 
	"/>
<rect x="309.9" y="40.6" style="fill:#231F20;" width="1.1" height="10"/>
<path style="fill:#231F20;" d="M316.6,40.5c1.9,0,3.1,0.3,3.5,0.8c0.5,0.6,0.7,1.9,0.7,4.1c0,2.4-0.2,3.8-0.7,4.4
	c-0.5,0.6-1.6,0.8-3.6,0.8c-1.9,0-3.1-0.3-3.6-0.8c-0.5-0.6-0.7-2-0.7-4.3v-0.7l0-0.9c0-1.3,0.3-2.2,0.9-2.7
	C313.9,40.8,315,40.5,316.6,40.5L316.6,40.5z M316.6,41.5c-1.6,0-2.5,0.2-2.8,0.5c-0.3,0.4-0.4,1.6-0.4,3.6c0,2.1,0.1,3.3,0.4,3.6
	c0.3,0.4,1.2,0.5,2.8,0.5c1.6,0,2.5-0.2,2.8-0.5s0.4-1.6,0.4-3.6V45l0-0.9c0-1.1-0.2-1.8-0.6-2.1C318.9,41.6,318,41.5,316.6,41.5z"
	/>
<polygon style="fill:#231F20;" points="330.7,40.6 330.7,50.6 328.9,50.6 324.7,43.8 324,42.7 323.7,42.2 323.3,41.6 323.3,41.6 
	323.3,42 323.3,42.4 323.3,43.1 323.3,50.6 322.2,50.6 322.2,40.6 324,40.6 327.7,46.6 328.6,48.2 329.1,48.9 329.6,49.7 
	329.6,49.7 329.6,49.4 329.6,49 329.6,48.2 329.6,40.6 "/>
<path style="fill:#231F20;" d="M339.5,43.4h-1.1c0-0.8-0.1-1.3-0.4-1.5c-0.3-0.2-0.9-0.3-1.9-0.3c-1.2,0-1.9,0.1-2.3,0.3
	c-0.3,0.2-0.5,0.7-0.5,1.4c0,0.8,0.1,1.3,0.4,1.5c0.3,0.2,1.1,0.3,2.4,0.4c1.6,0.1,2.5,0.3,3,0.6c0.4,0.3,0.6,1.1,0.6,2.2
	c0,1.2-0.2,2-0.7,2.4c-0.5,0.4-1.6,0.5-3.2,0.5c-1.4,0-2.4-0.2-2.9-0.5c-0.5-0.4-0.7-1.1-0.7-2.2l0-0.4h1.1v0.3
	c0,0.9,0.1,1.4,0.4,1.7c0.3,0.2,1,0.3,2.1,0.3c1.3,0,2.1-0.1,2.4-0.3c0.3-0.2,0.4-0.8,0.4-1.7c0-0.6-0.1-1-0.3-1.2
	c-0.2-0.2-0.6-0.3-1.3-0.4l-1.2-0.1l-1.1-0.1c-1.7-0.1-2.5-1-2.5-2.6c0-1.1,0.2-1.9,0.7-2.3c0.5-0.4,1.5-0.6,3-0.6
	c1.5,0,2.5,0.2,2.9,0.5C339.3,41.4,339.5,42.2,339.5,43.4z"/>
<path style="fill:#231F20;" d="M342.1,49.3v1.4c0,0.9-0.3,1.4-1,1.4c-0.1,0-0.2,0-0.3,0v-0.6c0.4,0,0.6-0.2,0.6-0.6l0-0.3H341v-1.3
	H342.1z"/>
<path style="fill:#231F20;" d="M356.5,47.3h1.1v0.4c0,1.4-0.2,2.2-0.7,2.6c-0.5,0.3-1.6,0.5-3.5,0.5c-1.7,0-2.7-0.3-3.2-0.9
	c-0.5-0.6-0.7-2-0.7-4.2c0-1.7,0.1-2.8,0.2-3.3c0.1-0.4,0.4-0.8,0.9-1.2c0.6-0.4,1.8-0.6,3.7-0.6c1.3,0,2.1,0.2,2.6,0.6
	c0.4,0.4,0.7,1.2,0.7,2.3l0,0.3h-1.1l0-0.3c0-0.8-0.1-1.3-0.4-1.6c-0.3-0.2-0.9-0.3-1.8-0.3c-1.6,0-2.6,0.1-2.9,0.4
	c-0.4,0.3-0.5,1-0.5,2.2c0,2.8,0.1,4.5,0.4,4.9c0.2,0.5,1.1,0.7,2.5,0.7c1.3,0,2.2-0.1,2.5-0.3c0.3-0.2,0.5-0.7,0.5-1.6L356.5,47.3z
	"/>
<path style="fill:#231F20;" d="M362.5,40.5c1.9,0,3.1,0.3,3.5,0.8c0.5,0.6,0.7,1.9,0.7,4.1c0,2.4-0.2,3.8-0.7,4.4
	c-0.5,0.6-1.6,0.8-3.6,0.8c-1.9,0-3.1-0.3-3.6-0.8c-0.5-0.6-0.7-2-0.7-4.3v-0.7l0-0.9c0-1.3,0.3-2.2,0.9-2.7
	C359.8,40.8,360.9,40.5,362.5,40.5L362.5,40.5z M362.5,41.5c-1.6,0-2.5,0.2-2.8,0.5c-0.3,0.4-0.4,1.6-0.4,3.6c0,2.1,0.1,3.3,0.4,3.6
	s1.2,0.5,2.8,0.5c1.6,0,2.5-0.2,2.8-0.5s0.4-1.6,0.4-3.6V45l0-0.9c0-1.1-0.2-1.8-0.6-2.1C364.8,41.6,363.9,41.5,362.5,41.5z"/>
<path style="fill:#231F20;" d="M368.1,50.6v-10h4.6c1.4,0,2.4,0.3,2.9,0.9s0.8,1.8,0.8,3.6c0,2.2-0.2,3.6-0.7,4.3
	c-0.5,0.7-1.4,1.1-2.7,1.1H368.1L368.1,50.6z M369.2,49.7h3.3c1.2,0,2-0.2,2.3-0.7c0.3-0.5,0.5-1.5,0.5-3.2c0-1.8-0.1-3-0.4-3.4
	c-0.3-0.5-1-0.7-2.2-0.7h-3.5V49.7z"/>
<polygon style="fill:#231F20;" points="384.9,41.6 384.9,45.1 389.8,45.1 389.8,46 384.9,46 384.9,50.6 383.8,50.6 383.8,40.6 
	389.9,40.6 389.9,41.6 "/>
<rect x="391.1" y="40.6" style="fill:#231F20;" width="1.1" height="10"/>
<polygon style="fill:#231F20;" points="402.7,40.6 402.7,50.6 400.9,50.6 396.7,43.8 396,42.7 395.7,42.2 395.3,41.6 395.3,41.6 
	395.3,42 395.3,42.4 395.3,43.1 395.3,50.6 394.2,50.6 394.2,40.6 396,40.6 399.7,46.6 400.6,48.2 401.1,48.9 401.6,49.7 
	401.6,49.7 401.6,49.4 401.6,49 401.6,48.2 401.6,40.6 "/>
<path style="fill:#231F20;" d="M404.6,50.6v-10h4.6c1.4,0,2.4,0.3,2.9,0.9c0.5,0.6,0.8,1.8,0.8,3.6c0,2.2-0.2,3.6-0.7,4.3
	c-0.5,0.7-1.4,1.1-2.7,1.1H404.6L404.6,50.6z M405.8,49.7h3.3c1.2,0,2-0.2,2.3-0.7c0.3-0.5,0.5-1.5,0.5-3.2c0-1.8-0.2-3-0.5-3.4
	c-0.3-0.5-1-0.7-2.2-0.7h-3.5V49.7z"/>
<polygon style="fill:#231F20;" points="423.9,41.7 423.9,50.6 422.7,50.6 422.7,41.7 419.5,41.7 419.5,40.6 427.1,40.6 427.1,41.7 
	"/>
<polygon style="fill:#231F20;" points="436.2,40.6 436.2,50.6 435.1,50.6 435.1,46 429.2,46 429.2,50.6 428.1,50.6 428.1,40.6 
	429.2,40.6 429.2,45.1 435.1,45.1 435.1,40.6 "/>
<polygon style="fill:#231F20;" points="438.8,41.6 438.8,45 443.9,45 443.9,46 438.8,46 438.8,49.7 444.1,49.7 444.1,50.6 
	437.7,50.6 437.7,40.6 444.1,40.6 444.1,41.6 "/>
<path style="fill:#231F20;" d="M458,47.3h1.1v0.4c0,1.4-0.2,2.2-0.7,2.6c-0.5,0.3-1.6,0.5-3.5,0.5c-1.7,0-2.7-0.3-3.2-0.9
	c-0.5-0.6-0.7-2-0.7-4.2c0-1.7,0.1-2.8,0.2-3.3s0.4-0.8,0.9-1.2c0.6-0.4,1.8-0.6,3.7-0.6c1.3,0,2.1,0.2,2.6,0.6
	c0.4,0.4,0.7,1.2,0.7,2.3l0,0.3h-1.1l0-0.3c0-0.8-0.1-1.3-0.4-1.6c-0.3-0.2-0.9-0.3-1.8-0.3c-1.6,0-2.6,0.1-2.9,0.4
	c-0.4,0.3-0.5,1-0.5,2.2c0,2.8,0.1,4.5,0.4,4.9c0.2,0.5,1.1,0.7,2.5,0.7c1.3,0,2.2-0.1,2.5-0.3c0.3-0.2,0.5-0.7,0.5-1.6L458,47.3z"
	/>
<path style="fill:#231F20;" d="M464.1,40.5c1.9,0,3.1,0.3,3.5,0.8c0.5,0.6,0.7,1.9,0.7,4.1c0,2.4-0.2,3.8-0.7,4.4
	c-0.5,0.6-1.6,0.8-3.6,0.8c-1.9,0-3.1-0.3-3.6-0.8c-0.5-0.6-0.7-2-0.7-4.3v-0.7l0-0.9c0-1.3,0.3-2.2,0.9-2.7
	C461.3,40.8,462.5,40.5,464.1,40.5L464.1,40.5z M464.1,41.5c-1.6,0-2.5,0.2-2.8,0.5c-0.3,0.4-0.4,1.6-0.4,3.6c0,2.1,0.1,3.3,0.4,3.6
	s1.2,0.5,2.8,0.5c1.6,0,2.5-0.2,2.8-0.5c0.3-0.4,0.4-1.6,0.4-3.6V45l0-0.9c0-1.1-0.2-1.8-0.6-2.1C466.3,41.6,465.5,41.5,464.1,41.5z
	"/>
<path style="fill:#231F20;" d="M469.6,50.6v-10h4.6c1.4,0,2.4,0.3,2.9,0.9c0.5,0.6,0.8,1.8,0.8,3.6c0,2.2-0.2,3.6-0.7,4.3
	c-0.5,0.7-1.4,1.1-2.7,1.1H469.6L469.6,50.6z M470.8,49.7h3.3c1.2,0,2-0.2,2.3-0.7c0.3-0.5,0.5-1.5,0.5-3.2c0-1.8-0.1-3-0.4-3.4
	c-0.3-0.5-1-0.7-2.2-0.7h-3.5V49.7z"/>
<path style="fill:#231F20;" d="M493.4,40.6l-3.1,10h-1.7l-2.1-7.2l-0.3-0.9c0,0-0.1-0.2-0.1-0.4l-0.1-0.5h0l-0.1,0.5l-0.1,0.5
	l-0.3,0.9l-2.1,7.2h-1.7l-3.1-10h1.2l2.2,7.2l0.3,1c0,0.1,0.1,0.2,0.1,0.5l0.1,0.5h0l0.1-0.5l0.1-0.5l0.3-1l2.1-7.2h1.7l2.1,7.2
	l0.3,1l0.1,0.5l0.1,0.5h0l0.1-0.5l0.1-0.5l0.3-1l2.2-7.2H493.4z"/>
<path style="fill:#231F20;" d="M500.5,48.5h-5.1l-0.8,2.1h-1.2l3.7-10h1.6l3.7,10h-1.2L500.5,48.5L500.5,48.5z M500.2,47.7l-2.2-6.1
	l-2.2,6.1H500.2z"/>
<polygon style="fill:#231F20;" points="504.6,40.6 504.6,49.6 509.8,49.6 509.8,50.6 503.5,50.6 503.5,40.6 "/>
<polygon style="fill:#231F20;" points="511.9,40.6 511.9,45 512.9,45 517,40.6 518.5,40.6 513.9,45.5 519,50.6 517.5,50.6 512.9,46 
	511.9,46 511.9,50.6 510.8,50.6 510.8,40.6 "/>
<polygon style="fill:#231F20;" points="520.6,41.6 520.6,45 525.6,45 525.6,46 520.6,46 520.6,49.7 525.9,49.7 525.9,50.6 
	519.4,50.6 519.4,40.6 525.9,40.6 525.9,41.6 "/>
<path style="fill:#231F20;" d="M527.3,50.6v-10h4.8c1.1,0,1.8,0.2,2.3,0.6c0.4,0.4,0.7,1.2,0.7,2.2c0,0.9-0.1,1.6-0.4,1.9
	c-0.2,0.4-0.7,0.6-1.4,0.7v0c1.1,0.1,1.6,0.7,1.6,1.9v2.6h-1.1v-2.3c0-1.2-0.5-1.7-1.5-1.7h-0.4h-3.4v4H527.3L527.3,50.6z
	 M528.4,45.6h3.3c0.9,0,1.4-0.1,1.8-0.4c0.3-0.3,0.5-0.8,0.5-1.5c0-0.9-0.1-1.5-0.3-1.8c-0.2-0.3-0.7-0.4-1.5-0.4h-3.6V45.6z"/>
<path style="fill:#231F20;" d="M23.3,64.6h-5.1l-0.8,2.1h-1.2l3.7-10h1.6l3.7,10h-1.2L23.3,64.6L23.3,64.6z M23,63.8l-2.2-6.1
	l-2.2,6.1H23z"/>
<polygon style="fill:#231F20;" points="27.4,56.8 27.4,65.7 32.6,65.7 32.6,66.8 26.3,66.8 26.3,56.8 "/>
<path style="fill:#231F20;" d="M44.6,56.8v10h-1.1v-8v-0.6l0-0.3l0-0.3h0l-0.1,0.2c0,0.1-0.1,0.2-0.1,0.2L43,58.5l-3.4,8.3h-1.1
	l-3.4-8.2l-0.2-0.5l-0.1-0.2c0-0.1-0.1-0.1-0.1-0.2h0l0,0.3l0,0.3v0.5v8h-1.1v-10h2l2.7,6.5l0.4,1l0.2,0.5l0.2,0.5h0l0.2-0.5
	c0.1-0.3,0.2-0.4,0.2-0.5l0.4-1l2.7-6.5H44.6z"/>
<path style="fill:#231F20;" d="M50.1,56.7c1.9,0,3.1,0.3,3.5,0.8c0.5,0.6,0.7,1.9,0.7,4.1c0,2.4-0.2,3.8-0.7,4.4
	c-0.5,0.6-1.6,0.8-3.6,0.8c-1.9,0-3.1-0.3-3.6-0.8c-0.5-0.6-0.7-2-0.7-4.3v-0.7l0-0.9c0-1.3,0.3-2.2,0.9-2.7
	C47.3,56.9,48.5,56.7,50.1,56.7L50.1,56.7z M50.1,57.6c-1.6,0-2.5,0.2-2.8,0.5c-0.3,0.4-0.4,1.6-0.4,3.6c0,2.1,0.1,3.3,0.4,3.6
	c0.3,0.4,1.2,0.5,2.8,0.5c1.6,0,2.5-0.2,2.8-0.5c0.3-0.4,0.4-1.6,0.4-3.6v-0.7l0-0.9c0-1.1-0.2-1.8-0.6-2.1
	C52.3,57.8,51.5,57.6,50.1,57.6z"/>
<path style="fill:#231F20;" d="M62.5,59.5h-1.1c0-0.8-0.1-1.3-0.4-1.5c-0.3-0.2-0.9-0.3-1.9-0.3c-1.2,0-1.9,0.1-2.3,0.3
	c-0.3,0.2-0.5,0.7-0.5,1.4c0,0.8,0.1,1.3,0.4,1.5c0.3,0.2,1.1,0.3,2.4,0.4c1.6,0.1,2.5,0.3,3,0.6c0.4,0.3,0.6,1.1,0.6,2.2
	c0,1.2-0.2,2-0.7,2.4c-0.5,0.4-1.6,0.5-3.2,0.5c-1.4,0-2.4-0.2-2.9-0.5c-0.5-0.4-0.7-1.1-0.7-2.2l0-0.4h1.1v0.3
	c0,0.9,0.1,1.4,0.4,1.7c0.3,0.2,1,0.3,2.1,0.3c1.3,0,2.1-0.1,2.4-0.3c0.3-0.2,0.4-0.8,0.4-1.7c0-0.6-0.1-1-0.3-1.2
	c-0.2-0.2-0.6-0.3-1.3-0.4l-1.2-0.1l-1.1-0.1c-1.7-0.1-2.5-1-2.5-2.6c0-1.1,0.2-1.9,0.7-2.3c0.5-0.4,1.5-0.6,3-0.6
	c1.5,0,2.5,0.2,2.9,0.5C62.3,57.6,62.5,58.3,62.5,59.5z"/>
<polygon style="fill:#231F20;" points="67.5,57.8 67.5,66.8 66.4,66.8 66.4,57.8 63.1,57.8 63.1,56.8 70.7,56.8 70.7,57.8 "/>
<rect x="75.6" y="56.8" style="fill:#231F20;" width="1.1" height="10"/>
<path style="fill:#231F20;" d="M78.7,66.8v-10h4.8c1.1,0,1.8,0.2,2.3,0.6c0.4,0.4,0.7,1.2,0.7,2.2c0,0.9-0.1,1.6-0.4,1.9
	c-0.2,0.4-0.7,0.6-1.4,0.7v0c1.1,0.1,1.6,0.7,1.6,1.9v2.6h-1.1v-2.3c0-1.2-0.5-1.7-1.5-1.7h-0.4h-3.4v4H78.7L78.7,66.8z M79.8,61.8
	h3.3c0.9,0,1.4-0.1,1.8-0.4c0.3-0.3,0.5-0.8,0.5-1.5c0-0.9-0.1-1.5-0.3-1.8c-0.2-0.3-0.7-0.4-1.5-0.4h-3.6V61.8z"/>
<path style="fill:#231F20;" d="M88,66.8v-10h4.8c1.1,0,1.8,0.2,2.3,0.6c0.4,0.4,0.7,1.2,0.7,2.2c0,0.9-0.1,1.6-0.4,1.9
	c-0.2,0.4-0.7,0.6-1.4,0.7v0c1.1,0.1,1.6,0.7,1.6,1.9v2.6h-1.1v-2.3c0-1.2-0.5-1.7-1.5-1.7h-0.4h-3.4v4H88L88,66.8z M89.1,61.8h3.3
	c0.9,0,1.4-0.1,1.8-0.4c0.3-0.3,0.5-0.8,0.5-1.5c0-0.9-0.1-1.5-0.3-1.8c-0.2-0.3-0.7-0.4-1.5-0.4h-3.6V61.8z"/>
<polygon style="fill:#231F20;" points="98.1,57.7 98.1,61.1 103.1,61.1 103.1,62.1 98.1,62.1 98.1,65.8 103.4,65.8 103.4,66.8 
	96.9,66.8 96.9,56.8 103.4,56.8 103.4,57.7 "/>
<path style="fill:#231F20;" d="M111.7,59.5h-1.1c0-0.8-0.1-1.3-0.4-1.5c-0.3-0.2-0.9-0.3-1.9-0.3c-1.2,0-1.9,0.1-2.3,0.3
	c-0.3,0.2-0.5,0.7-0.5,1.4c0,0.8,0.1,1.3,0.4,1.5c0.3,0.2,1.1,0.3,2.4,0.4c1.6,0.1,2.5,0.3,3,0.6c0.4,0.3,0.6,1.1,0.6,2.2
	c0,1.2-0.2,2-0.7,2.4c-0.5,0.4-1.6,0.5-3.2,0.5c-1.4,0-2.4-0.2-2.9-0.5c-0.5-0.4-0.7-1.1-0.7-2.2l0-0.4h1.1v0.3
	c0,0.9,0.1,1.4,0.4,1.7c0.3,0.2,1,0.3,2.1,0.3c1.3,0,2.1-0.1,2.4-0.3c0.3-0.2,0.4-0.8,0.4-1.7c0-0.6-0.1-1-0.3-1.2
	c-0.2-0.2-0.6-0.3-1.3-0.4l-1.2-0.1l-1.1-0.1c-1.7-0.1-2.5-1-2.5-2.6c0-1.1,0.2-1.9,0.7-2.3c0.5-0.4,1.5-0.6,3-0.6
	c1.5,0,2.5,0.2,2.9,0.5C111.4,57.6,111.7,58.3,111.7,59.5z"/>
<rect x="113.2" y="56.8" style="fill:#231F20;" width="1.1" height="10"/>
<path style="fill:#231F20;" d="M123.1,59.5H122c0-0.8-0.1-1.3-0.4-1.5c-0.3-0.2-0.9-0.3-1.9-0.3c-1.2,0-1.9,0.1-2.3,0.3
	c-0.3,0.2-0.5,0.7-0.5,1.4c0,0.8,0.1,1.3,0.4,1.5c0.3,0.2,1.1,0.3,2.4,0.4c1.6,0.1,2.5,0.3,3,0.6c0.4,0.3,0.6,1.1,0.6,2.2
	c0,1.2-0.2,2-0.7,2.4c-0.5,0.4-1.6,0.5-3.2,0.5c-1.4,0-2.4-0.2-2.9-0.5c-0.5-0.4-0.7-1.1-0.7-2.2l0-0.4h1.1v0.3
	c0,0.9,0.1,1.4,0.4,1.7c0.3,0.2,1,0.3,2.1,0.3c1.3,0,2.1-0.1,2.4-0.3c0.3-0.2,0.4-0.8,0.4-1.7c0-0.6-0.1-1-0.3-1.2
	c-0.2-0.2-0.6-0.3-1.3-0.4l-1.2-0.1l-1.1-0.1c-1.7-0.1-2.5-1-2.5-2.6c0-1.1,0.2-1.9,0.7-2.3c0.5-0.4,1.5-0.6,3-0.6
	c1.5,0,2.5,0.2,2.9,0.5C122.9,57.6,123.1,58.3,123.1,59.5z"/>
<polygon style="fill:#231F20;" points="128.1,57.8 128.1,66.8 127,66.8 127,57.8 123.7,57.8 123.7,56.8 131.4,56.8 131.4,57.8 "/>
<rect x="132.4" y="56.8" style="fill:#231F20;" width="1.1" height="10"/>
<path style="fill:#231F20;" d="M135.4,66.8v-10h4.4c1.2,0,2,0.2,2.4,0.5c0.4,0.3,0.6,1,0.6,2.1c0,1.1-0.4,1.8-1.3,2.1v0
	c1.1,0.3,1.6,1,1.6,2.4c0,1.1-0.2,1.8-0.6,2.2c-0.4,0.4-1.1,0.6-2.2,0.6H135.4L135.4,66.8z M136.5,61.2h3c0.9,0,1.5-0.1,1.8-0.3
	c0.3-0.2,0.4-0.7,0.4-1.5c0-0.7-0.1-1.1-0.4-1.3c-0.2-0.2-0.8-0.3-1.6-0.3h-3.3V61.2L136.5,61.2z M136.5,65.8h2.4l1,0
	c0.9,0,1.4-0.1,1.7-0.3c0.3-0.2,0.4-0.7,0.4-1.4c0-0.9-0.1-1.4-0.4-1.6c-0.3-0.2-1-0.3-2.2-0.3h-2.9V65.8z"/>
<polygon style="fill:#231F20;" points="145.8,56.8 145.8,65.7 150.9,65.7 150.9,66.8 144.7,66.8 144.7,56.8 "/>
<polygon style="fill:#231F20;" points="152.7,57.7 152.7,61.1 157.7,61.1 157.7,62.1 152.7,62.1 152.7,65.8 158,65.8 158,66.8 
	151.5,66.8 151.5,56.8 158,56.8 158,57.7 "/>
<rect x="159.4" y="65.4" style="fill:#231F20;" width="1.1" height="1.3"/>
<path style="fill:#231F20;" d="M176.2,64.6h-5.1l-0.8,2.1h-1.2l3.7-10h1.6l3.7,10H177L176.2,64.6L176.2,64.6z M175.9,63.8l-2.2-6.1
	l-2.2,6.1H175.9z"/>
<path style="fill:#231F20;" d="M185.7,56.8h1.2l-3.5,10h-1.6l-3.6-10h1.2l2.7,7.5l0.3,0.8c0.1,0.3,0.2,0.6,0.2,0.8h0
	c0.1-0.5,0.3-1,0.5-1.5L185.7,56.8z"/>
<path style="fill:#231F20;" d="M193.9,64.6h-5.1l-0.8,2.1h-1.2l3.7-10h1.6l3.7,10h-1.2L193.9,64.6L193.9,64.6z M193.6,63.8l-2.2-6.1
	l-2.2,6.1H193.6z"/>
<rect x="196.9" y="56.8" style="fill:#231F20;" width="1.1" height="10"/>
<polygon style="fill:#231F20;" points="201.1,56.8 201.1,65.7 206.2,65.7 206.2,66.8 199.9,66.8 199.9,56.8 "/>
<path style="fill:#231F20;" d="M213.3,64.6h-5.1l-0.8,2.1h-1.2l3.7-10h1.6l3.7,10h-1.2L213.3,64.6L213.3,64.6z M213,63.8l-2.2-6.1
	l-2.2,6.1H213z"/>
<path style="fill:#231F20;" d="M216.3,66.8v-10h4.4c1.2,0,2,0.2,2.4,0.5c0.4,0.3,0.6,1,0.6,2.1c0,1.1-0.4,1.8-1.3,2.1v0
	c1.1,0.3,1.6,1,1.6,2.4c0,1.1-0.2,1.8-0.6,2.2c-0.4,0.4-1.1,0.6-2.2,0.6H216.3L216.3,66.8z M217.4,61.2h3c0.9,0,1.5-0.1,1.8-0.3
	c0.3-0.2,0.4-0.7,0.4-1.5c0-0.7-0.1-1.1-0.4-1.3s-0.8-0.3-1.6-0.3h-3.3V61.2L217.4,61.2z M217.4,65.8h2.4l1,0c0.9,0,1.4-0.1,1.7-0.3
	c0.3-0.2,0.4-0.7,0.4-1.4c0-0.9-0.1-1.4-0.4-1.6c-0.3-0.2-1-0.3-2.2-0.3h-2.9V65.8z"/>
<polygon style="fill:#231F20;" points="226.7,56.8 226.7,65.7 231.8,65.7 231.8,66.8 225.6,66.8 225.6,56.8 "/>
<polygon style="fill:#231F20;" points="233.6,57.7 233.6,61.1 238.6,61.1 238.6,62.1 233.6,62.1 233.6,65.8 238.9,65.8 238.9,66.8 
	232.4,66.8 232.4,56.8 238.9,56.8 238.9,57.7 "/>
<rect x="244.2" y="56.8" style="fill:#231F20;" width="1.1" height="10"/>
<polygon style="fill:#231F20;" points="255.8,56.8 255.8,66.8 253.9,66.8 249.7,60 249,58.8 248.7,58.3 248.4,57.7 248.3,57.7 
	248.3,58.1 248.4,58.5 248.4,59.2 248.4,66.8 247.2,66.8 247.2,56.8 249.1,56.8 252.7,62.7 253.7,64.3 254.2,65.1 254.6,65.9 
	254.6,65.9 254.6,65.5 254.6,65.1 254.6,64.4 254.6,56.8 "/>
<path style="fill:#231F20;" d="M264.2,62.1v-1l0.4,0c1.3,0,2.2-0.1,2.5-0.3c0.3-0.2,0.5-0.6,0.5-1.4c0-0.9-0.1-1.4-0.4-1.6
	c-0.3-0.2-1-0.3-2.2-0.3c-1.1,0-1.8,0.1-2,0.3c-0.3,0.2-0.4,0.7-0.4,1.5v0.4h-1.1l0-0.4c0-1.1,0.2-1.9,0.7-2.2
	c0.4-0.4,1.4-0.5,2.8-0.5c1.5,0,2.4,0.2,2.9,0.5c0.5,0.3,0.7,1,0.7,2c0,0.9-0.1,1.5-0.3,1.8c-0.2,0.3-0.7,0.5-1.3,0.6v0
	c0.8,0.1,1.3,0.3,1.5,0.6c0.2,0.3,0.4,0.9,0.4,1.7c0,1.2-0.2,1.9-0.7,2.3c-0.5,0.4-1.4,0.6-2.9,0.6c-1.6,0-2.6-0.2-3.1-0.5
	c-0.5-0.4-0.7-1.1-0.7-2.2v-0.6h1.1v0.6c0,0.8,0.1,1.4,0.4,1.5c0.3,0.2,1.1,0.3,2.5,0.3c1,0,1.7-0.1,2-0.3c0.3-0.2,0.4-0.8,0.4-1.7
	c0-0.7-0.1-1.2-0.4-1.4c-0.3-0.2-0.8-0.3-1.7-0.3h-1H264.2z"/>
<path style="fill:#231F20;" d="M281.4,59.5h-1.1c0-0.8-0.1-1.3-0.4-1.5c-0.3-0.2-0.9-0.3-1.9-0.3c-1.2,0-1.9,0.1-2.3,0.3
	c-0.3,0.2-0.5,0.7-0.5,1.4c0,0.8,0.1,1.3,0.4,1.5c0.3,0.2,1.1,0.3,2.4,0.4c1.6,0.1,2.5,0.3,3,0.6c0.4,0.3,0.6,1.1,0.6,2.2
	c0,1.2-0.2,2-0.7,2.4c-0.5,0.4-1.6,0.5-3.2,0.5c-1.4,0-2.4-0.2-2.9-0.5c-0.5-0.4-0.7-1.1-0.7-2.2l0-0.4h1.1v0.3
	c0,0.9,0.1,1.4,0.4,1.7c0.3,0.2,1,0.3,2.1,0.3c1.3,0,2.1-0.1,2.4-0.3c0.3-0.2,0.4-0.8,0.4-1.7c0-0.6-0.1-1-0.3-1.2
	c-0.2-0.2-0.6-0.3-1.3-0.4l-1.2-0.1l-1.1-0.1c-1.7-0.1-2.5-1-2.5-2.6c0-1.1,0.2-1.9,0.7-2.3c0.5-0.4,1.5-0.6,3-0.6
	c1.5,0,2.5,0.2,2.9,0.5C281.2,57.6,281.4,58.3,281.4,59.5z"/>
<rect x="283" y="56.8" style="fill:#231F20;" width="1.1" height="10"/>
<polygon style="fill:#231F20;" points="293.1,56.8 293.1,57.7 286.8,65.8 286.8,65.8 293.2,65.8 293.2,66.8 285.4,66.8 285.4,65.8 
	291.7,57.7 291.7,57.7 285.6,57.7 285.6,56.8 "/>
<polygon style="fill:#231F20;" points="295.2,57.7 295.2,61.1 300.3,61.1 300.3,62.1 295.2,62.1 295.2,65.8 300.5,65.8 300.5,66.8 
	294.1,66.8 294.1,56.8 300.5,56.8 300.5,57.7 "/>
<path style="fill:#231F20;" d="M308.8,59.5h-1.1c0-0.8-0.1-1.3-0.4-1.5c-0.3-0.2-0.9-0.3-1.9-0.3c-1.2,0-1.9,0.1-2.3,0.3
	c-0.3,0.2-0.5,0.7-0.5,1.4c0,0.8,0.1,1.3,0.4,1.5c0.3,0.2,1.1,0.3,2.4,0.4c1.6,0.1,2.5,0.3,3,0.6c0.4,0.3,0.6,1.1,0.6,2.2
	c0,1.2-0.2,2-0.7,2.4c-0.5,0.4-1.6,0.5-3.2,0.5c-1.4,0-2.4-0.2-2.9-0.5c-0.5-0.4-0.7-1.1-0.7-2.2l0-0.4h1.1v0.3
	c0,0.9,0.1,1.4,0.4,1.7c0.3,0.2,1,0.3,2.1,0.3c1.3,0,2.1-0.1,2.4-0.3c0.3-0.2,0.4-0.8,0.4-1.7c0-0.6-0.1-1-0.3-1.2
	c-0.2-0.2-0.6-0.3-1.3-0.4l-1.2-0.1l-1.1-0.1c-1.7-0.1-2.5-1-2.5-2.6c0-1.1,0.2-1.9,0.7-2.3c0.5-0.4,1.5-0.6,3-0.6
	c1.5,0,2.5,0.2,2.9,0.5C308.6,57.6,308.8,58.3,308.8,59.5z"/>
<path style="fill:#231F20;" d="M311.5,65.4v1.4c0,0.9-0.3,1.4-1,1.4c-0.1,0-0.2,0-0.3,0v-0.6c0.4,0,0.6-0.2,0.6-0.6l0-0.3h-0.5v-1.3
	H311.5z"/>
<polygon style="fill:#231F20;" points="318.3,57.7 318.3,61.2 323.2,61.2 323.2,62.2 318.3,62.2 318.3,66.8 317.2,66.8 317.2,56.8 
	323.3,56.8 323.3,57.7 "/>
<rect x="324.5" y="56.8" style="fill:#231F20;" width="1.1" height="10"/>
<polygon style="fill:#231F20;" points="331.1,57.8 331.1,66.8 330,66.8 330,57.8 326.7,57.8 326.7,56.8 334.3,56.8 334.3,57.8 "/>
<polygon style="fill:#231F20;" points="338.8,57.8 338.8,66.8 337.7,66.8 337.7,57.8 334.4,57.8 334.4,56.8 342,56.8 342,57.8 "/>
<polygon style="fill:#231F20;" points="343.8,57.7 343.8,61.1 348.8,61.1 348.8,62.1 343.8,62.1 343.8,65.8 349,65.8 349,66.8 
	342.6,66.8 342.6,56.8 349,56.8 349,57.7 "/>
<path style="fill:#231F20;" d="M350.5,66.8v-10h4.6c1.4,0,2.4,0.3,2.9,0.9s0.8,1.8,0.8,3.6c0,2.2-0.2,3.6-0.7,4.3
	c-0.5,0.7-1.4,1.1-2.7,1.1H350.5L350.5,66.8z M351.6,65.8h3.3c1.2,0,2-0.2,2.3-0.7c0.3-0.5,0.5-1.5,0.5-3.2c0-1.8-0.2-3-0.5-3.4
	c-0.3-0.5-1-0.7-2.2-0.7h-3.5V65.8z"/>
<path style="fill:#231F20;" d="M378.1,56.8l-3.1,10h-1.7l-2.1-7.2l-0.3-0.9c0,0-0.1-0.2-0.1-0.4l-0.1-0.5h0l-0.1,0.5l-0.1,0.5
	l-0.3,0.9l-2.1,7.2h-1.7l-3.1-10h1.2l2.2,7.2l0.3,1c0,0.1,0.1,0.2,0.1,0.5l0.1,0.5h0l0.1-0.5l0.1-0.5l0.3-1l2.1-7.2h1.7l2.1,7.2
	l0.3,1l0.1,0.5l0.1,0.5h0l0.1-0.5l0.1-0.5l0.3-1l2.2-7.2H378.1z"/>
<rect x="379.1" y="56.8" style="fill:#231F20;" width="1.1" height="10"/>
<polygon style="fill:#231F20;" points="385.7,57.8 385.7,66.8 384.5,66.8 384.5,57.8 381.3,57.8 381.3,56.8 388.9,56.8 388.9,57.8 
	"/>
<polygon style="fill:#231F20;" points="398,56.8 398,66.8 396.9,66.8 396.9,62.1 391,62.1 391,66.8 389.9,66.8 389.9,56.8 391,56.8 
	391,61.2 396.9,61.2 396.9,56.8 "/>
<polygon style="fill:#231F20;" points="411.8,56.8 411.8,66.8 410.7,66.8 410.7,62.1 404.9,62.1 404.9,66.8 403.7,66.8 403.7,56.8 
	404.9,56.8 404.9,61.2 410.7,61.2 410.7,56.8 "/>
<polygon style="fill:#231F20;" points="414.5,57.7 414.5,61.1 419.5,61.1 419.5,62.1 414.5,62.1 414.5,65.8 419.8,65.8 419.8,66.8 
	413.3,66.8 413.3,56.8 419.8,56.8 419.8,57.7 "/>
<path style="fill:#231F20;" d="M427.4,64.6h-5.1l-0.8,2.1h-1.2l3.7-10h1.6l3.7,10h-1.2L427.4,64.6L427.4,64.6z M427,63.8l-2.2-6.1
	l-2.2,6.1H427z"/>
<path style="fill:#231F20;" d="M436.8,56.8h1.2l-3.5,10h-1.6l-3.6-10h1.2l2.7,7.5l0.3,0.8c0.1,0.3,0.2,0.6,0.2,0.8h0
	c0.1-0.5,0.3-1,0.5-1.5L436.8,56.8z"/>
<path style="fill:#231F20;" d="M446.5,56.8l-3.8,5.8v4.2h-1.1v-4.2l-3.7-5.8h1.3l2.1,3.4l0.4,0.7c0.1,0.1,0.1,0.2,0.2,0.3l0.2,0.3h0
	c0.1-0.1,0.2-0.3,0.2-0.3l0.2-0.3l0.4-0.7l2.1-3.4H446.5z"/>
<path style="fill:#231F20;" d="M451.2,66.8v-10h4.6c1.4,0,2.4,0.3,2.9,0.9s0.8,1.8,0.8,3.6c0,2.2-0.2,3.6-0.7,4.3
	c-0.5,0.7-1.4,1.1-2.7,1.1H451.2L451.2,66.8z M452.3,65.8h3.3c1.2,0,2-0.2,2.3-0.7c0.3-0.5,0.5-1.5,0.5-3.2c0-1.8-0.1-3-0.4-3.4
	c-0.3-0.5-1-0.7-2.2-0.7h-3.5V65.8z"/>
<path style="fill:#231F20;" d="M467.8,56.8h1.1v7c0,1.3-0.3,2.1-0.8,2.5c-0.5,0.4-1.6,0.6-3.2,0.6c-1.5,0-2.6-0.2-3.1-0.6
	c-0.5-0.4-0.8-1.1-0.8-2.2v-0.3v-7h1.1v7c0,0.9,0.2,1.5,0.5,1.8c0.3,0.2,1.1,0.4,2.3,0.4c1.3,0,2.1-0.1,2.4-0.4
	c0.3-0.2,0.5-0.8,0.5-1.8V56.8z"/>
<polygon style="fill:#231F20;" points="474.3,57.8 474.3,66.8 473.2,66.8 473.2,57.8 469.9,57.8 469.9,56.8 477.5,56.8 477.5,57.8 
	"/>
<path style="fill:#231F20;" d="M486.1,56.8l-3.8,5.8v4.2h-1.1v-4.2l-3.7-5.8h1.3l2.1,3.4l0.4,0.7c0.1,0.1,0.1,0.2,0.2,0.3l0.2,0.3h0
	c0.1-0.1,0.2-0.3,0.2-0.3l0.2-0.3l0.4-0.7l2.1-3.4H486.1z"/>
<polygon style="fill:#231F20;" points="498.9,56.8 498.9,66.8 497.8,66.8 497.8,62.1 492,62.1 492,66.8 490.8,66.8 490.8,56.8 
	492,56.8 492,61.2 497.8,61.2 497.8,56.8 "/>
<path style="fill:#231F20;" d="M504.5,56.7c1.9,0,3.1,0.3,3.5,0.8c0.5,0.6,0.7,1.9,0.7,4.1c0,2.4-0.2,3.8-0.7,4.4
	c-0.5,0.6-1.6,0.8-3.6,0.8c-1.9,0-3.1-0.3-3.6-0.8c-0.5-0.6-0.7-2-0.7-4.3v-0.7l0-0.9c0-1.3,0.3-2.2,0.9-2.7
	C501.7,56.9,502.8,56.7,504.5,56.7L504.5,56.7z M504.5,57.6c-1.6,0-2.5,0.2-2.8,0.5c-0.3,0.4-0.4,1.6-0.4,3.6c0,2.1,0.1,3.3,0.4,3.6
	c0.3,0.4,1.2,0.5,2.8,0.5c1.6,0,2.5-0.2,2.8-0.5c0.3-0.4,0.4-1.6,0.4-3.6v-0.7l0-0.9c0-1.1-0.2-1.8-0.6-2.1
	C506.7,57.8,505.8,57.6,504.5,57.6z"/>
<path style="fill:#231F20;" d="M513.7,56.7c1.9,0,3.1,0.3,3.5,0.8c0.5,0.6,0.7,1.9,0.7,4.1c0,2.4-0.2,3.8-0.7,4.4
	c-0.5,0.6-1.6,0.8-3.6,0.8c-1.9,0-3.1-0.3-3.6-0.8c-0.5-0.6-0.7-2-0.7-4.3v-0.7l0-0.9c0-1.3,0.3-2.2,0.9-2.7
	C510.9,56.9,512,56.7,513.7,56.7L513.7,56.7z M513.7,57.6c-1.6,0-2.5,0.2-2.8,0.5c-0.3,0.4-0.4,1.6-0.4,3.6c0,2.1,0.1,3.3,0.4,3.6
	c0.3,0.4,1.2,0.5,2.8,0.5c1.6,0,2.5-0.2,2.8-0.5c0.3-0.4,0.4-1.6,0.4-3.6v-0.7l0-0.9c0-1.1-0.2-1.8-0.6-2.1
	C515.9,57.8,515,57.6,513.7,57.6z"/>
<polygon style="fill:#231F20;" points="520.3,56.8 520.3,61.1 521.3,61.1 525.4,56.8 526.9,56.8 522.3,61.6 527.4,66.8 525.9,66.8 
	521.3,62.1 520.3,62.1 520.3,66.8 519.2,66.8 519.2,56.8 "/>
<path style="fill:#231F20;" d="M535.1,59.5H534c0-0.8-0.1-1.3-0.4-1.5c-0.3-0.2-0.9-0.3-1.9-0.3c-1.2,0-1.9,0.1-2.3,0.3
	c-0.3,0.2-0.5,0.7-0.5,1.4c0,0.8,0.1,1.3,0.4,1.5c0.3,0.2,1.1,0.3,2.4,0.4c1.6,0.1,2.5,0.3,3,0.6c0.4,0.3,0.6,1.1,0.6,2.2
	c0,1.2-0.2,2-0.7,2.4c-0.5,0.4-1.6,0.5-3.2,0.5c-1.4,0-2.4-0.2-2.9-0.5c-0.5-0.4-0.7-1.1-0.7-2.2l0-0.4h1.1v0.3
	c0,0.9,0.1,1.4,0.4,1.7c0.3,0.2,1,0.3,2.1,0.3c1.3,0,2.1-0.1,2.4-0.3c0.3-0.2,0.4-0.8,0.4-1.7c0-0.6-0.1-1-0.3-1.2
	c-0.2-0.2-0.6-0.3-1.3-0.4l-1.2-0.1l-1.1-0.1c-1.7-0.1-2.5-1-2.5-2.6c0-1.1,0.2-1.9,0.7-2.3c0.5-0.4,1.5-0.6,3-0.6
	c1.5,0,2.5,0.2,2.9,0.5C534.9,57.6,535.1,58.3,535.1,59.5z"/>
<polygon style="fill:#231F20;" points="141.7,77.9 141.7,87.9 140.6,87.9 140.6,78.8 138,81.6 137.3,80.9 140.1,77.9 "/>
<path style="fill:#231F20;" d="M153,87v1h-7.2V86c0-1.1,0.2-1.7,0.6-2.1c0.4-0.3,1.4-0.6,2.9-0.8c1.2-0.1,2-0.3,2.2-0.6
	c0.3-0.2,0.4-0.8,0.4-1.8c0-0.9-0.1-1.4-0.4-1.7c-0.3-0.3-0.9-0.4-1.9-0.4c-1.2,0-2,0.1-2.3,0.3c-0.3,0.2-0.5,0.7-0.5,1.5l0,0.7
	h-1.1l0-0.5c0-1.2,0.3-2,0.8-2.4s1.5-0.6,3-0.6c1.3,0,2.3,0.2,2.7,0.6c0.5,0.4,0.7,1.3,0.7,2.5c0,1.2-0.2,2-0.6,2.4
	c-0.4,0.4-1.4,0.7-2.8,0.8c-1.3,0.1-2,0.3-2.3,0.5c-0.2,0.2-0.4,0.9-0.4,1.9V87H153z"/>
<path style="fill:#231F20;" d="M158.8,77.8c1.8,0,3,0.2,3.3,0.7c0.4,0.5,0.6,1.9,0.6,4.4c0,2.3-0.2,3.7-0.5,4.2
	c-0.5,0.6-1.6,0.9-3.4,0.9c-1.8,0-2.9-0.3-3.4-0.9c-0.4-0.5-0.5-2-0.5-4.5c0-2.2,0.2-3.5,0.6-4C155.9,78.1,157,77.8,158.8,77.8
	L158.8,77.8z M158.8,78.8c-1.4,0-2.2,0.2-2.5,0.5c-0.2,0.4-0.4,1.6-0.4,3.6c0,2,0.1,3.2,0.4,3.6c0.2,0.4,1.1,0.5,2.5,0.5
	c1.4,0,2.2-0.2,2.5-0.5c0.2-0.4,0.4-1.6,0.4-3.6c0-2-0.1-3.2-0.4-3.6C161,79,160.2,78.8,158.8,78.8z"/>
<path style="fill:#231F20;" d="M164.3,80.9h1l0,1.1l0,0c0.4-0.8,1.2-1.2,2.3-1.2c1.2,0,1.9,0.4,2.2,1.2h0c0.4-0.8,1.2-1.2,2.4-1.2
	c1.7,0,2.5,0.8,2.5,2.5v4.6h-1v-4.7c0-0.6-0.1-1-0.3-1.3c-0.2-0.2-0.6-0.3-1.2-0.3c-0.8,0-1.4,0.2-1.6,0.5c-0.3,0.3-0.4,0.9-0.4,1.7
	v4h-1v-4.6l0-0.3c0-0.9-0.5-1.4-1.5-1.4c-1.4,0-2.1,0.8-2.1,2.3v4h-1V80.9z"/>
<path style="fill:#231F20;" d="M176.7,80.9h1l0,1.1l0,0c0.4-0.8,1.2-1.2,2.3-1.2c1.2,0,1.9,0.4,2.2,1.2h0c0.4-0.8,1.2-1.2,2.4-1.2
	c1.7,0,2.5,0.8,2.5,2.5v4.6h-1v-4.7c0-0.6-0.1-1-0.3-1.3c-0.2-0.2-0.6-0.3-1.2-0.3c-0.8,0-1.4,0.2-1.6,0.5c-0.3,0.3-0.4,0.9-0.4,1.7
	v4h-1v-4.6l0-0.3c0-0.9-0.5-1.4-1.5-1.4c-1.4,0-2.1,0.8-2.1,2.3v4h-1V80.9z"/>
<path style="fill:#231F20;" d="M203.8,77.9v10h-1.1v-8v-0.6l0-0.3l0-0.3h0l-0.1,0.2c0,0.1-0.1,0.2-0.1,0.2l-0.2,0.5l-3.4,8.3h-1.1
	l-3.4-8.2l-0.2-0.5l-0.1-0.2c0-0.1-0.1-0.1-0.1-0.2h0l0,0.3l0,0.3v0.5v8h-1.1v-10h2l2.7,6.5l0.4,1l0.2,0.5l0.2,0.5h0l0.2-0.5
	c0.1-0.3,0.2-0.4,0.2-0.5l0.4-1l2.7-6.5H203.8z"/>
<path style="fill:#231F20;" d="M209.4,77.8c1.9,0,3.1,0.3,3.5,0.8c0.5,0.6,0.7,1.9,0.7,4.1c0,2.4-0.2,3.8-0.7,4.4
	c-0.5,0.6-1.6,0.8-3.6,0.8c-1.9,0-3.1-0.3-3.6-0.8c-0.5-0.6-0.7-2-0.7-4.3v-0.7l0-0.9c0-1.3,0.3-2.2,0.9-2.7
	C206.6,78.1,207.7,77.8,209.4,77.8L209.4,77.8z M209.4,78.8c-1.6,0-2.5,0.2-2.8,0.5c-0.3,0.4-0.4,1.6-0.4,3.6c0,2.1,0.1,3.3,0.4,3.6
	c0.3,0.4,1.2,0.5,2.8,0.5c1.6,0,2.5-0.2,2.8-0.5c0.3-0.4,0.4-1.6,0.4-3.6v-0.7l0-0.9c0-1.1-0.2-1.8-0.6-2.1
	C211.6,78.9,210.7,78.8,209.4,78.8z"/>
<path style="fill:#231F20;" d="M214.9,87.9v-10h4.6c1.4,0,2.4,0.3,2.9,0.9c0.5,0.6,0.8,1.8,0.8,3.6c0,2.2-0.2,3.6-0.7,4.3
	c-0.5,0.7-1.4,1.1-2.7,1.1H214.9L214.9,87.9z M216,87h3.3c1.2,0,2-0.2,2.3-0.7c0.3-0.5,0.5-1.5,0.5-3.2c0-1.8-0.2-3-0.5-3.4
	c-0.3-0.5-1-0.7-2.2-0.7H216V87z"/>
<polygon style="fill:#231F20;" points="225.4,78.9 225.4,82.3 230.5,82.3 230.5,83.2 225.4,83.2 225.4,87 230.7,87 230.7,87.9 
	224.3,87.9 224.3,77.9 230.7,77.9 230.7,78.9 "/>
<polygon style="fill:#231F20;" points="233.3,77.9 233.3,86.9 238.4,86.9 238.4,87.9 232.2,87.9 232.2,77.9 "/>
<path style="fill:#231F20;" d="M240.5,86.6v1.3h-1.1v-1.3H240.5L240.5,86.6z M240.5,80.9v1.3h-1.1v-1.3H240.5z"/>
<path style="fill:#231F20;" d="M263.9,77.9l-3.1,10H259l-2.1-7.2l-0.3-0.9c0-0.1-0.1-0.2-0.1-0.4l-0.1-0.5h0l-0.1,0.5l-0.1,0.5
	l-0.3,0.9l-2.1,7.2H252l-3.1-10h1.2l2.2,7.2l0.3,1c0,0.1,0.1,0.2,0.1,0.5l0.1,0.5h0l0.1-0.5l0.1-0.5l0.3-1l2.1-7.2h1.7l2.1,7.2
	l0.3,1l0.1,0.5l0.1,0.5h0l0.1-0.5l0.1-0.5l0.3-1l2.2-7.2H263.9z"/>
<polygon style="fill:#231F20;" points="265.6,78.9 265.6,82.3 270.6,82.3 270.6,83.2 265.6,83.2 265.6,87 270.8,87 270.8,87.9 
	264.4,87.9 264.4,77.9 270.8,77.9 270.8,78.9 "/>
<rect x="272.3" y="77.9" style="fill:#231F20;" width="1.1" height="10"/>
<path style="fill:#231F20;" d="M278.9,82.9h4.3c0,0.3,0,0.6,0,1.1c0,1.8-0.2,2.9-0.7,3.3S281,88,279.1,88c-1.8,0-2.9-0.3-3.4-0.8
	c-0.5-0.5-0.8-1.6-0.8-3.4l0-1.5l0-0.9c0-1.5,0.3-2.5,0.8-3c0.6-0.5,1.7-0.7,3.4-0.7c1.7,0,2.8,0.2,3.3,0.5c0.5,0.3,0.7,1,0.7,2.1
	v0.4h-1.1v-0.2c0-0.8-0.2-1.3-0.5-1.5c-0.3-0.2-1.2-0.3-2.6-0.3c-1.3,0-2.1,0.2-2.4,0.5c-0.3,0.3-0.5,1.1-0.5,2.3l0,1.3l0,1.4
	c0,1.3,0.2,2,0.5,2.3c0.4,0.3,1.3,0.4,2.9,0.4c1.2,0,1.9-0.1,2.2-0.4c0.3-0.3,0.4-1,0.4-2.1c0-0.1,0-0.3-0.1-0.6h-3.2V82.9z"/>
<polygon style="fill:#231F20;" points="292.7,77.9 292.7,87.9 291.6,87.9 291.6,83.3 285.8,83.3 285.8,87.9 284.6,87.9 284.6,77.9 
	285.8,77.9 285.8,82.3 291.6,82.3 291.6,77.9 "/>
<polygon style="fill:#231F20;" points="298.1,79 298.1,87.9 297,87.9 297,79 293.7,79 293.7,77.9 301.3,77.9 301.3,79 "/>
<path style="fill:#231F20;" d="M308.5,77.9v6.7h1.5v1h-1.5v2.3h-1.1v-2.3h-5.6v-1.3l5-6.4H308.5L308.5,77.9z M307.4,84.7v-6h0
	l-4.6,6H307.4z"/>
<path style="fill:#231F20;" d="M315.2,77.8c1.8,0,3,0.2,3.3,0.7c0.4,0.5,0.6,1.9,0.6,4.4c0,2.3-0.2,3.7-0.5,4.2
	c-0.5,0.6-1.6,0.9-3.4,0.9c-1.8,0-2.9-0.3-3.4-0.9c-0.4-0.5-0.5-2-0.5-4.5c0-2.2,0.2-3.5,0.6-4S313.4,77.8,315.2,77.8L315.2,77.8z
	 M315.2,78.8c-1.4,0-2.2,0.2-2.5,0.5c-0.2,0.4-0.4,1.6-0.4,3.6c0,2,0.1,3.2,0.4,3.6c0.2,0.4,1.1,0.5,2.5,0.5c1.4,0,2.2-0.2,2.5-0.5
	c0.2-0.4,0.4-1.6,0.4-3.6c0-2-0.1-3.2-0.4-3.6C317.4,79,316.6,78.8,315.2,78.8z"/>
<path style="fill:#231F20;" d="M326.5,80.9v7.5c0,1-0.2,1.7-0.7,2.1c-0.4,0.4-1.2,0.6-2.4,0.6c-1,0-1.8-0.2-2.1-0.5
	c-0.4-0.3-0.6-0.9-0.6-1.8h1c0,0.6,0.1,1,0.3,1.2c0.2,0.2,0.7,0.3,1.5,0.3c0.8,0,1.3-0.1,1.6-0.4c0.3-0.2,0.4-0.7,0.4-1.4v-1.4l0,0
	c-0.3,0.6-1,1-2.3,1c-1,0-1.7-0.3-2.1-0.8c-0.4-0.5-0.6-1.4-0.6-2.8c0-1.4,0.2-2.4,0.6-2.9c0.4-0.5,1.1-0.8,2.2-0.8
	c1.1,0,1.9,0.4,2.2,1.1l0,0l-0.1-0.9H326.5L326.5,80.9z M323.5,81.7c-0.8,0-1.3,0.2-1.6,0.5c-0.2,0.3-0.4,1.1-0.4,2.2
	c0,1.2,0.1,1.9,0.4,2.2c0.2,0.3,0.8,0.5,1.6,0.5c0.8,0,1.4-0.2,1.6-0.6c0.3-0.4,0.4-1.2,0.4-2.4c0-1.1-0.1-1.7-0.4-2.1
	C324.8,81.8,324.3,81.7,323.5,81.7z"/>
<polygon style="fill:#231F20;" points="331.2,83.8 334.3,83.8 334.3,84.8 331.2,84.8 "/>
<path style="fill:#231F20;" d="M346.1,87v1h-7.2V86c0-1.1,0.2-1.7,0.6-2.1c0.4-0.3,1.4-0.6,2.9-0.8c1.2-0.1,2-0.3,2.2-0.6
	c0.3-0.2,0.4-0.8,0.4-1.8c0-0.9-0.1-1.4-0.4-1.7c-0.3-0.3-0.9-0.4-1.9-0.4c-1.2,0-2,0.1-2.3,0.3c-0.3,0.2-0.5,0.7-0.5,1.5l0,0.7
	h-1.1l0-0.5c0-1.2,0.3-2,0.8-2.4s1.5-0.6,3-0.6c1.3,0,2.3,0.2,2.7,0.6c0.5,0.4,0.7,1.3,0.7,2.5c0,1.2-0.2,2-0.6,2.4
	c-0.4,0.4-1.4,0.7-2.8,0.8c-1.3,0.1-2,0.3-2.3,0.5c-0.2,0.2-0.4,0.9-0.4,1.9V87H346.1z"/>
<polygon style="fill:#231F20;" points="355.9,77.9 347.1,90.9 346.2,90.9 355,77.9 "/>
<path style="fill:#231F20;" d="M361.5,77.8c1.8,0,3,0.2,3.3,0.7c0.4,0.5,0.6,1.9,0.6,4.4c0,2.3-0.2,3.7-0.5,4.2
	c-0.5,0.6-1.6,0.9-3.4,0.9c-1.8,0-2.9-0.3-3.4-0.9c-0.4-0.5-0.5-2-0.5-4.5c0-2.2,0.2-3.5,0.6-4C358.6,78.1,359.7,77.8,361.5,77.8
	L361.5,77.8z M361.5,78.8c-1.4,0-2.2,0.2-2.5,0.5c-0.2,0.4-0.4,1.6-0.4,3.6c0,2,0.1,3.2,0.4,3.6c0.2,0.4,1.1,0.5,2.5,0.5
	c1.4,0,2.2-0.2,2.5-0.5c0.2-0.4,0.4-1.6,0.4-3.6c0-2-0.1-3.2-0.4-3.6C363.7,79,362.9,78.8,361.5,78.8z"/>
<polygon style="fill:#231F20;" points="378.9,77.9 378.9,87.9 377.8,87.9 377.8,83.3 372,83.3 372,87.9 370.8,87.9 370.8,77.9 
	372,77.9 372,82.3 377.8,82.3 377.8,77.9 "/>
<path style="fill:#231F20;" d="M384.5,77.8c1.9,0,3.1,0.3,3.5,0.8c0.5,0.6,0.7,1.9,0.7,4.1c0,2.4-0.2,3.8-0.7,4.4
	c-0.5,0.6-1.6,0.8-3.6,0.8c-1.9,0-3.1-0.3-3.6-0.8c-0.5-0.6-0.7-2-0.7-4.3v-0.7l0-0.9c0-1.3,0.3-2.2,0.9-2.7
	C381.7,78.1,382.8,77.8,384.5,77.8L384.5,77.8z M384.5,78.8c-1.6,0-2.5,0.2-2.8,0.5c-0.3,0.4-0.4,1.6-0.4,3.6c0,2.1,0.1,3.3,0.4,3.6
	c0.3,0.4,1.2,0.5,2.8,0.5c1.6,0,2.5-0.2,2.8-0.5c0.3-0.4,0.4-1.6,0.4-3.6v-0.7l0-0.9c0-1.1-0.2-1.8-0.6-2.1
	C386.7,78.9,385.8,78.8,384.5,78.8z"/>
<path style="fill:#231F20;" d="M393.7,77.8c1.9,0,3.1,0.3,3.5,0.8c0.5,0.6,0.7,1.9,0.7,4.1c0,2.4-0.2,3.8-0.7,4.4
	c-0.5,0.6-1.6,0.8-3.6,0.8c-1.9,0-3.1-0.3-3.6-0.8c-0.5-0.6-0.7-2-0.7-4.3v-0.7l0-0.9c0-1.3,0.3-2.2,0.9-2.7
	C390.9,78.1,392,77.8,393.7,77.8L393.7,77.8z M393.7,78.8c-1.6,0-2.5,0.2-2.8,0.5c-0.3,0.4-0.4,1.6-0.4,3.6c0,2.1,0.1,3.3,0.4,3.6
	c0.3,0.4,1.2,0.5,2.8,0.5c1.6,0,2.5-0.2,2.8-0.5c0.3-0.4,0.4-1.6,0.4-3.6v-0.7l0-0.9c0-1.1-0.2-1.8-0.6-2.1
	C395.9,78.9,395,78.8,393.7,78.8z"/>
<polygon style="fill:#231F20;" points="400.3,77.9 400.3,82.3 401.3,82.3 405.4,77.9 406.9,77.9 402.3,82.7 407.4,87.9 405.9,87.9 
	401.3,83.2 400.3,83.2 400.3,87.9 399.2,87.9 399.2,77.9 "/>
<path style="fill:#231F20;" d="M415.1,80.6H414c0-0.8-0.1-1.3-0.4-1.5c-0.3-0.2-0.9-0.3-1.9-0.3c-1.2,0-1.9,0.1-2.3,0.3
	c-0.3,0.2-0.5,0.7-0.5,1.4c0,0.8,0.1,1.3,0.4,1.5c0.3,0.2,1.1,0.3,2.4,0.4c1.6,0.1,2.5,0.3,3,0.6c0.4,0.3,0.6,1.1,0.6,2.2
	c0,1.2-0.2,2-0.7,2.4c-0.5,0.4-1.6,0.5-3.2,0.5c-1.4,0-2.4-0.2-2.9-0.5c-0.5-0.4-0.7-1.1-0.7-2.2l0-0.4h1.1v0.3
	c0,0.9,0.1,1.4,0.4,1.7c0.3,0.2,1,0.3,2.1,0.3c1.3,0,2.1-0.1,2.4-0.3s0.4-0.8,0.4-1.7c0-0.6-0.1-1-0.3-1.2c-0.2-0.2-0.6-0.3-1.3-0.4
	l-1.2-0.1l-1.1-0.1c-1.7-0.1-2.5-1-2.5-2.6c0-1.1,0.2-1.9,0.7-2.3c0.5-0.4,1.5-0.6,3-0.6c1.5,0,2.5,0.2,2.9,0.5
	C414.9,78.7,415.1,79.5,415.1,80.6z"/>
<polygon style="fill:#231F20;" points="144.7,94 144.7,104 143.6,104 143.6,94.9 141,97.7 140.3,97 143.1,94 "/>
<path style="fill:#231F20;" d="M152.6,93.9c1.8,0,3,0.2,3.3,0.7c0.4,0.5,0.6,1.9,0.6,4.4c0,2.3-0.2,3.7-0.5,4.2
	c-0.5,0.6-1.6,0.9-3.4,0.9c-1.8,0-2.9-0.3-3.4-0.9c-0.4-0.5-0.5-2-0.5-4.5c0-2.2,0.2-3.5,0.6-4C149.6,94.2,150.7,93.9,152.6,93.9
	L152.6,93.9z M152.6,94.9c-1.4,0-2.2,0.2-2.5,0.5c-0.2,0.4-0.4,1.6-0.4,3.6c0,2,0.1,3.2,0.4,3.6c0.2,0.4,1.1,0.5,2.5,0.5
	c1.4,0,2.2-0.2,2.5-0.5c0.2-0.4,0.4-1.6,0.4-3.6c0-2-0.1-3.2-0.4-3.6C154.8,95.1,154,94.9,152.6,94.9z"/>
<path style="fill:#231F20;" d="M161.8,93.9c1.8,0,3,0.2,3.3,0.7c0.4,0.5,0.6,1.9,0.6,4.4c0,2.3-0.2,3.7-0.5,4.2
	c-0.5,0.6-1.6,0.9-3.4,0.9c-1.8,0-2.9-0.3-3.4-0.9c-0.4-0.5-0.5-2-0.5-4.5c0-2.2,0.2-3.5,0.6-4C158.8,94.2,159.9,93.9,161.8,93.9
	L161.8,93.9z M161.8,94.9c-1.4,0-2.2,0.2-2.5,0.5c-0.2,0.4-0.4,1.6-0.4,3.6c0,2,0.1,3.2,0.4,3.6c0.2,0.4,1.1,0.5,2.5,0.5
	c1.4,0,2.2-0.2,2.5-0.5c0.2-0.4,0.4-1.6,0.4-3.6c0-2-0.1-3.2-0.4-3.6C164,95.1,163.2,94.9,161.8,94.9z"/>
<path style="fill:#231F20;" d="M167.3,97h1l0,1.1l0,0c0.4-0.8,1.2-1.2,2.3-1.2c1.2,0,1.9,0.4,2.2,1.2h0c0.4-0.8,1.2-1.2,2.4-1.2
	c1.7,0,2.5,0.8,2.5,2.5v4.6h-1v-4.7c0-0.6-0.1-1-0.3-1.3c-0.2-0.2-0.6-0.3-1.2-0.3c-0.8,0-1.4,0.2-1.6,0.5s-0.4,0.9-0.4,1.7v4h-1
	v-4.6l0-0.3c0-0.9-0.5-1.4-1.5-1.4c-1.4,0-2.1,0.8-2.1,2.3v4h-1V97z"/>
<path style="fill:#231F20;" d="M179.6,97h1l0,1.1l0,0c0.4-0.8,1.2-1.2,2.3-1.2c1.2,0,1.9,0.4,2.2,1.2h0c0.4-0.8,1.2-1.2,2.4-1.2
	c1.7,0,2.5,0.8,2.5,2.5v4.6h-1v-4.7c0-0.6-0.1-1-0.3-1.3c-0.2-0.2-0.6-0.3-1.2-0.3c-0.8,0-1.4,0.2-1.6,0.5s-0.4,0.9-0.4,1.7v4h-1
	v-4.6l0-0.3c0-0.9-0.5-1.4-1.5-1.4c-1.4,0-2.1,0.8-2.1,2.3v4h-1V97z"/>
<path style="fill:#231F20;" d="M206.8,94v10h-1.1v-8v-0.6l0-0.3l0-0.3h0l-0.1,0.2c0,0.1-0.1,0.2-0.1,0.2l-0.2,0.5l-3.4,8.3h-1.1
	l-3.4-8.2l-0.2-0.5l-0.1-0.2c0-0.1-0.1-0.1-0.1-0.2h0l0,0.3l0,0.3V96v8h-1.1V94h2l2.7,6.5l0.4,1l0.2,0.5l0.2,0.5h0l0.2-0.5
	c0.1-0.3,0.2-0.4,0.2-0.5l0.4-1l2.7-6.5H206.8z"/>
<path style="fill:#231F20;" d="M212.3,93.9c1.9,0,3.1,0.3,3.5,0.8c0.5,0.6,0.7,1.9,0.7,4.1c0,2.4-0.2,3.8-0.7,4.4
	c-0.5,0.6-1.6,0.8-3.6,0.8c-1.9,0-3.1-0.3-3.6-0.8c-0.5-0.6-0.7-2-0.7-4.3v-0.7l0-0.9c0-1.3,0.3-2.2,0.9-2.7
	C209.6,94.2,210.7,93.9,212.3,93.9L212.3,93.9z M212.3,94.9c-1.6,0-2.5,0.2-2.8,0.5c-0.3,0.4-0.4,1.6-0.4,3.6c0,2.1,0.1,3.3,0.4,3.6
	c0.3,0.4,1.2,0.5,2.8,0.5c1.6,0,2.5-0.2,2.8-0.5c0.3-0.4,0.4-1.6,0.4-3.6v-0.7l0-0.9c0-1.1-0.2-1.8-0.6-2.1
	C214.6,95,213.7,94.9,212.3,94.9z"/>
<path style="fill:#231F20;" d="M217.9,104V94h4.6c1.4,0,2.4,0.3,2.9,0.9c0.5,0.6,0.8,1.8,0.8,3.6c0,2.2-0.2,3.6-0.7,4.3
	c-0.5,0.7-1.4,1.1-2.7,1.1H217.9L217.9,104z M219,103.1h3.3c1.2,0,2-0.2,2.3-0.7c0.3-0.5,0.5-1.5,0.5-3.2c0-1.8-0.1-3-0.5-3.4
	c-0.3-0.5-1-0.7-2.2-0.7H219V103.1z"/>
<polygon style="fill:#231F20;" points="228.4,95 228.4,98.4 233.5,98.4 233.5,99.4 228.4,99.4 228.4,103.1 233.7,103.1 233.7,104 
	227.3,104 227.3,94 233.7,94 233.7,95 "/>
<polygon style="fill:#231F20;" points="236.3,94 236.3,103 241.4,103 241.4,104 235.1,104 235.1,94 "/>
<path style="fill:#231F20;" d="M243.5,102.7v1.3h-1.1v-1.3H243.5L243.5,102.7z M243.5,97v1.3h-1.1V97H243.5z"/>
<path style="fill:#231F20;" d="M266.8,94l-3.1,10H262l-2.1-7.2l-0.3-0.9c0,0-0.1-0.2-0.1-0.4l-0.1-0.5h0l-0.1,0.5l-0.1,0.5l-0.3,0.9
	l-2.1,7.2H255l-3.1-10h1.2l2.2,7.2l0.3,1c0,0.1,0.1,0.2,0.1,0.5l0.1,0.5h0l0.1-0.5l0.1-0.5l0.3-1l2.1-7.2h1.7l2.1,7.2l0.3,1l0.1,0.5
	l0.1,0.5h0l0.1-0.5l0.1-0.5l0.3-1l2.2-7.2H266.8z"/>
<polygon style="fill:#231F20;" points="268.5,95 268.5,98.4 273.6,98.4 273.6,99.4 268.5,99.4 268.5,103.1 273.8,103.1 273.8,104 
	267.4,104 267.4,94 273.8,94 273.8,95 "/>
<rect x="275.3" y="94" style="fill:#231F20;" width="1.1" height="10"/>
<path style="fill:#231F20;" d="M281.9,99.1h4.3c0,0.3,0,0.6,0,1.1c0,1.8-0.2,2.9-0.7,3.3c-0.4,0.4-1.6,0.6-3.5,0.6
	c-1.8,0-2.9-0.3-3.4-0.8c-0.5-0.5-0.8-1.6-0.8-3.4l0-1.5l0-0.9c0-1.5,0.3-2.5,0.8-3c0.6-0.5,1.7-0.7,3.4-0.7c1.7,0,2.8,0.2,3.3,0.5
	c0.5,0.3,0.7,1,0.7,2.1v0.4h-1.1v-0.2c0-0.8-0.2-1.3-0.5-1.5c-0.3-0.2-1.2-0.3-2.6-0.3c-1.3,0-2.1,0.2-2.4,0.5s-0.5,1.1-0.5,2.3
	l0,1.3l0,1.4c0,1.3,0.2,2,0.5,2.3c0.4,0.3,1.3,0.4,2.9,0.4c1.2,0,1.9-0.1,2.2-0.4c0.3-0.3,0.4-1,0.4-2.1c0-0.1,0-0.3-0.1-0.6h-3.2
	V99.1z"/>
<polygon style="fill:#231F20;" points="295.7,94 295.7,104 294.6,104 294.6,99.4 288.7,99.4 288.7,104 287.6,104 287.6,94 288.7,94 
	288.7,98.5 294.6,98.5 294.6,94 "/>
<polygon style="fill:#231F20;" points="301.1,95.1 301.1,104 300,104 300,95.1 296.7,95.1 296.7,94 304.3,94 304.3,95.1 "/>
<path style="fill:#231F20;" d="M311.8,99.4v-1l0.4,0c1.3,0,2.2-0.1,2.5-0.3c0.3-0.2,0.5-0.6,0.5-1.4c0-0.9-0.1-1.4-0.4-1.6
	c-0.3-0.2-1-0.3-2.2-0.3c-1.1,0-1.8,0.1-2,0.3c-0.3,0.2-0.4,0.7-0.4,1.5v0.4H309l0-0.4c0-1.1,0.2-1.9,0.7-2.2
	c0.4-0.4,1.4-0.5,2.8-0.5c1.5,0,2.4,0.2,2.9,0.5c0.5,0.3,0.7,1,0.7,2c0,0.9-0.1,1.5-0.3,1.8c-0.2,0.3-0.7,0.5-1.3,0.6v0
	c0.8,0.1,1.3,0.3,1.5,0.6c0.2,0.3,0.4,0.9,0.4,1.7c0,1.2-0.2,1.9-0.7,2.3c-0.5,0.4-1.5,0.6-2.9,0.6c-1.6,0-2.6-0.2-3.1-0.5
	c-0.5-0.4-0.7-1.1-0.7-2.2v-0.6h1.1v0.6c0,0.8,0.1,1.4,0.4,1.5c0.3,0.2,1.1,0.3,2.5,0.3c1,0,1.7-0.1,2-0.3s0.4-0.8,0.4-1.7
	c0-0.7-0.1-1.2-0.4-1.4c-0.3-0.2-0.8-0.3-1.7-0.3h-1H311.8z"/>
<path style="fill:#231F20;" d="M321.9,93.9c1.8,0,3,0.2,3.3,0.7c0.4,0.5,0.6,1.9,0.6,4.4c0,2.3-0.2,3.7-0.5,4.2
	c-0.5,0.6-1.6,0.9-3.4,0.9c-1.8,0-2.9-0.3-3.4-0.9c-0.4-0.5-0.5-2-0.5-4.5c0-2.2,0.2-3.5,0.6-4C319,94.2,320.1,93.9,321.9,93.9
	L321.9,93.9z M321.9,94.9c-1.4,0-2.2,0.2-2.5,0.5c-0.2,0.4-0.4,1.6-0.4,3.6c0,2,0.1,3.2,0.4,3.6c0.2,0.4,1.1,0.5,2.5,0.5
	c1.4,0,2.2-0.2,2.5-0.5c0.2-0.4,0.4-1.6,0.4-3.6c0-2-0.1-3.2-0.4-3.6C324.1,95.1,323.3,94.9,321.9,94.9z"/>
<path style="fill:#231F20;" d="M333.3,97v7.5c0,1-0.2,1.7-0.7,2.1c-0.4,0.4-1.2,0.6-2.4,0.6c-1,0-1.8-0.2-2.1-0.5
	c-0.4-0.3-0.6-0.9-0.6-1.8h1c0,0.6,0.1,1,0.3,1.2c0.2,0.2,0.7,0.3,1.5,0.3c0.8,0,1.3-0.1,1.6-0.4c0.3-0.2,0.4-0.7,0.4-1.4v-1.4l0,0
	c-0.3,0.6-1,1-2.3,1c-1,0-1.7-0.3-2.1-0.8c-0.4-0.5-0.6-1.4-0.6-2.8c0-1.4,0.2-2.4,0.6-2.9c0.4-0.5,1.1-0.8,2.2-0.8
	c1.1,0,1.9,0.4,2.3,1.1l0,0l-0.1-0.9H333.3L333.3,97z M330.2,97.8c-0.8,0-1.3,0.2-1.6,0.5c-0.2,0.3-0.4,1.1-0.4,2.2
	c0,1.2,0.1,1.9,0.4,2.2c0.2,0.3,0.8,0.5,1.6,0.5c0.8,0,1.4-0.2,1.6-0.6c0.3-0.4,0.4-1.2,0.4-2.4c0-1.1-0.1-1.7-0.4-2.1
	C331.6,97.9,331,97.8,330.2,97.8z"/>
<polygon style="fill:#231F20;" points="337.9,99.9 341,99.9 341,100.9 337.9,100.9 "/>
<path style="fill:#231F20;" d="M352.8,100.2l-0.1,0.7H351l-0.5,3.2h-0.8l0.5-3.2H348l-0.5,3.2h-0.8l0.5-3.2h-1.7l0.1-0.7h1.7
	l0.4-2.3h-1.7l0.1-0.7h1.7l0.5-3.1h0.8l-0.5,3.1h2.2l0.5-3.1h0.8l-0.5,3.1h1.7l-0.1,0.7h-1.7l-0.4,2.3H352.8L352.8,100.2z
	 M350.7,97.9h-2.2l-0.4,2.3h2.2L350.7,97.9z"/>
<path style="fill:#231F20;" d="M362,103.1v1h-7.2v-1.9c0-1.1,0.2-1.7,0.6-2.1s1.4-0.6,2.9-0.8c1.2-0.1,2-0.3,2.2-0.6
	c0.3-0.2,0.4-0.8,0.4-1.8c0-0.9-0.1-1.4-0.4-1.7c-0.3-0.3-0.9-0.4-1.9-0.4c-1.2,0-2,0.1-2.3,0.3c-0.3,0.2-0.5,0.7-0.5,1.5l0,0.7
	h-1.1l0-0.5c0-1.2,0.3-2,0.8-2.4c0.5-0.4,1.5-0.6,3-0.6c1.3,0,2.3,0.2,2.7,0.6c0.5,0.4,0.7,1.3,0.7,2.5c0,1.2-0.2,2-0.6,2.4
	c-0.4,0.4-1.4,0.7-2.8,0.8c-1.3,0.1-2,0.3-2.3,0.5c-0.2,0.2-0.4,0.9-0.4,1.9v0.3H362z"/>
<polygon style="fill:#231F20;" points="376,94 376,104 374.8,104 374.8,99.4 369,99.4 369,104 367.9,104 367.9,94 369,94 369,98.5 
	374.8,98.5 374.8,94 "/>
<path style="fill:#231F20;" d="M381.5,93.9c1.9,0,3.1,0.3,3.5,0.8c0.5,0.6,0.7,1.9,0.7,4.1c0,2.4-0.2,3.8-0.7,4.4
	c-0.5,0.6-1.6,0.8-3.6,0.8c-1.9,0-3.1-0.3-3.6-0.8c-0.5-0.6-0.7-2-0.7-4.3v-0.7l0-0.9c0-1.3,0.3-2.2,0.9-2.7
	C378.8,94.2,379.9,93.9,381.5,93.9L381.5,93.9z M381.5,94.9c-1.6,0-2.5,0.2-2.8,0.5c-0.3,0.4-0.4,1.6-0.4,3.6c0,2.1,0.1,3.3,0.4,3.6
	c0.3,0.4,1.2,0.5,2.8,0.5c1.6,0,2.5-0.2,2.8-0.5c0.3-0.4,0.4-1.6,0.4-3.6v-0.7l0-0.9c0-1.1-0.2-1.8-0.6-2.1
	C383.7,95,382.9,94.9,381.5,94.9z"/>
<path style="fill:#231F20;" d="M390.7,93.9c1.9,0,3.1,0.3,3.5,0.8c0.5,0.6,0.7,1.9,0.7,4.1c0,2.4-0.2,3.8-0.7,4.4
	c-0.5,0.6-1.6,0.8-3.6,0.8c-1.9,0-3.1-0.3-3.6-0.8c-0.5-0.6-0.7-2-0.7-4.3v-0.7l0-0.9c0-1.3,0.3-2.2,0.9-2.7
	C387.9,94.2,389.1,93.9,390.7,93.9L390.7,93.9z M390.7,94.9c-1.6,0-2.5,0.2-2.8,0.5c-0.3,0.4-0.4,1.6-0.4,3.6c0,2.1,0.1,3.3,0.4,3.6
	c0.3,0.4,1.2,0.5,2.8,0.5c1.6,0,2.5-0.2,2.8-0.5c0.3-0.4,0.4-1.6,0.4-3.6v-0.7l0-0.9c0-1.1-0.2-1.8-0.6-2.1
	C392.9,95,392.1,94.9,390.7,94.9z"/>
<polygon style="fill:#231F20;" points="397.4,94 397.4,98.4 398.4,98.4 402.5,94 403.9,94 399.3,98.9 404.5,104 402.9,104 
	398.4,99.4 397.4,99.4 397.4,104 396.2,104 396.2,94 "/>
<path style="fill:#231F20;" d="M412.1,96.8H411c0-0.8-0.1-1.3-0.4-1.5c-0.3-0.2-0.9-0.3-1.9-0.3c-1.2,0-1.9,0.1-2.3,0.3
	c-0.3,0.2-0.5,0.7-0.5,1.4c0,0.8,0.1,1.3,0.4,1.5c0.3,0.2,1.1,0.3,2.4,0.4c1.6,0.1,2.5,0.3,3,0.6c0.4,0.3,0.6,1.1,0.6,2.2
	c0,1.2-0.2,2-0.7,2.4c-0.5,0.4-1.6,0.5-3.2,0.5c-1.4,0-2.4-0.2-2.9-0.5c-0.5-0.4-0.7-1.1-0.7-2.2l0-0.4h1.1v0.3
	c0,0.9,0.1,1.4,0.4,1.7c0.3,0.2,1,0.3,2.1,0.3c1.3,0,2.1-0.1,2.4-0.3s0.4-0.8,0.4-1.7c0-0.6-0.1-1-0.3-1.2c-0.2-0.2-0.6-0.3-1.3-0.4
	l-1.2-0.1l-1.1-0.1c-1.7-0.1-2.5-1-2.5-2.6c0-1.1,0.2-1.9,0.7-2.3c0.5-0.4,1.5-0.6,3-0.6c1.5,0,2.5,0.2,2.9,0.5
	C411.9,94.8,412.1,95.6,412.1,96.8z"/>
<polygon style="fill:#231F20;" points="179.5,110.2 179.5,111.6 174.6,120.2 173.3,120.2 178.5,111.1 172.2,111.1 172.2,110.2 "/>
<path style="fill:#231F20;" d="M185.3,110.1c1.8,0,3,0.2,3.3,0.7c0.4,0.5,0.6,1.9,0.6,4.4c0,2.3-0.2,3.7-0.5,4.2
	c-0.5,0.6-1.6,0.9-3.4,0.9c-1.8,0-2.9-0.3-3.4-0.9c-0.4-0.5-0.5-2-0.5-4.5c0-2.2,0.2-3.5,0.6-4S183.5,110.1,185.3,110.1L185.3,110.1
	z M185.3,111c-1.4,0-2.2,0.2-2.5,0.5c-0.2,0.4-0.4,1.6-0.4,3.6c0,2,0.1,3.2,0.4,3.6c0.2,0.4,1.1,0.5,2.5,0.5c1.4,0,2.2-0.2,2.5-0.5
	c0.2-0.4,0.4-1.6,0.4-3.6c0-2-0.1-3.2-0.4-3.6C187.5,111.2,186.7,111,185.3,111z"/>
<path style="fill:#231F20;" d="M190.8,113.2h1l0,1.1l0,0c0.4-0.8,1.2-1.2,2.3-1.2c1.2,0,1.9,0.4,2.2,1.2h0c0.4-0.8,1.2-1.2,2.4-1.2
	c1.7,0,2.5,0.8,2.5,2.5v4.6h-1v-4.7c0-0.6-0.1-1-0.3-1.3c-0.2-0.2-0.6-0.3-1.2-0.3c-0.8,0-1.4,0.2-1.6,0.5c-0.3,0.3-0.4,0.9-0.4,1.7
	v4h-1v-4.6l0-0.3c0-0.9-0.5-1.4-1.5-1.4c-1.4,0-2.1,0.8-2.1,2.3v4h-1V113.2z"/>
<path style="fill:#231F20;" d="M203.1,113.2h1l0,1.1l0,0c0.4-0.8,1.2-1.2,2.3-1.2c1.2,0,1.9,0.4,2.2,1.2h0c0.4-0.8,1.2-1.2,2.4-1.2
	c1.7,0,2.5,0.8,2.5,2.5v4.6h-1v-4.7c0-0.6-0.1-1-0.3-1.3c-0.2-0.2-0.6-0.3-1.2-0.3c-0.8,0-1.4,0.2-1.6,0.5c-0.3,0.3-0.4,0.9-0.4,1.7
	v4h-1v-4.6l0-0.3c0-0.9-0.5-1.4-1.5-1.4c-1.4,0-2.1,0.8-2.1,2.3v4h-1V113.2z"/>
<path style="fill:#231F20;" d="M230.3,110.2v10h-1.1v-8v-0.6l0-0.3l0-0.3h0l-0.1,0.2c0,0.1-0.1,0.2-0.1,0.2l-0.2,0.5l-3.4,8.3h-1.1
	l-3.4-8.2l-0.2-0.5l-0.1-0.2c0-0.1-0.1-0.1-0.1-0.2h0l0,0.3l0,0.3v0.6v8h-1.1v-10h2l2.7,6.5l0.4,1l0.2,0.5l0.2,0.5h0l0.2-0.5
	c0.1-0.3,0.2-0.4,0.2-0.5l0.4-1l2.7-6.5H230.3z"/>
<path style="fill:#231F20;" d="M235.8,110.1c1.9,0,3.1,0.3,3.5,0.8c0.5,0.6,0.7,1.9,0.7,4.1c0,2.4-0.2,3.8-0.7,4.4
	c-0.5,0.6-1.6,0.8-3.6,0.8c-1.9,0-3.1-0.3-3.6-0.8c-0.5-0.6-0.7-2-0.7-4.3v-0.7l0-0.9c0-1.3,0.3-2.2,0.9-2.7
	C233.1,110.3,234.2,110.1,235.8,110.1L235.8,110.1z M235.8,111c-1.6,0-2.5,0.2-2.8,0.5c-0.3,0.4-0.4,1.6-0.4,3.6
	c0,2.1,0.1,3.3,0.4,3.6c0.3,0.4,1.2,0.5,2.8,0.5c1.6,0,2.5-0.2,2.8-0.5c0.3-0.4,0.4-1.6,0.4-3.6v-0.7l0-0.9c0-1.1-0.2-1.8-0.6-2.1
	C238.1,111.2,237.2,111,235.8,111z"/>
<path style="fill:#231F20;" d="M241.4,120.2v-10h4.6c1.4,0,2.4,0.3,2.9,0.9c0.5,0.6,0.8,1.8,0.8,3.6c0,2.2-0.2,3.6-0.7,4.3
	c-0.5,0.7-1.4,1.1-2.7,1.1H241.4L241.4,120.2z M242.5,119.2h3.3c1.2,0,2-0.2,2.3-0.7s0.5-1.5,0.5-3.2c0-1.8-0.1-3-0.4-3.4
	s-1-0.7-2.2-0.7h-3.5V119.2z"/>
<polygon style="fill:#231F20;" points="251.9,111.1 251.9,114.5 257,114.5 257,115.5 251.9,115.5 251.9,119.2 257.2,119.2 
	257.2,120.2 250.8,120.2 250.8,110.2 257.2,110.2 257.2,111.1 "/>
<polygon style="fill:#231F20;" points="259.8,110.2 259.8,119.1 264.9,119.1 264.9,120.2 258.6,120.2 258.6,110.2 "/>
<path style="fill:#231F20;" d="M267,118.8v1.3h-1.1v-1.3H267L267,118.8z M267,113.2v1.3h-1.1v-1.3H267z"/>
<path style="fill:#231F20;" d="M283.4,119.2v1h-7.2v-1.9c0-1.1,0.2-1.7,0.6-2.1c0.4-0.3,1.4-0.6,2.9-0.8c1.2-0.1,2-0.3,2.2-0.6
	c0.3-0.2,0.4-0.8,0.4-1.8c0-0.9-0.1-1.4-0.4-1.7c-0.3-0.3-0.9-0.4-1.9-0.4c-1.2,0-2,0.1-2.3,0.3c-0.3,0.2-0.5,0.7-0.5,1.5l0,0.7
	h-1.1l0-0.5c0-1.2,0.3-2,0.8-2.4c0.5-0.4,1.5-0.6,3-0.6c1.3,0,2.3,0.2,2.7,0.6c0.5,0.4,0.7,1.3,0.7,2.5c0,1.2-0.2,2-0.6,2.4
	c-0.4,0.4-1.4,0.7-2.8,0.8c-1.3,0.1-2,0.3-2.3,0.5c-0.2,0.2-0.4,0.9-0.4,1.9v0.3H283.4z"/>
<path style="fill:#231F20;" d="M292.5,110.2v1h-5.6l-0.1,3h0c0.4-0.5,1.3-0.8,2.6-0.8c1.3,0,2.2,0.2,2.7,0.7
	c0.5,0.5,0.7,1.3,0.7,2.6c0,1.5-0.2,2.5-0.7,3c-0.5,0.5-1.4,0.7-2.9,0.7c-1.5,0-2.5-0.2-3-0.5c-0.5-0.3-0.8-1-0.8-2.1v-0.4h1.1
	c0,0.9,0.1,1.5,0.4,1.7c0.3,0.2,1,0.3,2.1,0.3c1.2,0,1.9-0.1,2.2-0.4s0.4-1,0.4-2.3c0-1-0.1-1.6-0.4-1.9c-0.3-0.3-1-0.4-2.1-0.4
	c-1.5,0-2.4,0.3-2.5,1h-1v-5.1H292.5z"/>
<path style="fill:#231F20;" d="M300.5,113.2v7.5c0,1-0.2,1.7-0.7,2.1c-0.4,0.4-1.2,0.6-2.4,0.6c-1,0-1.8-0.2-2.1-0.5
	c-0.4-0.3-0.6-0.9-0.6-1.8h1c0,0.6,0.1,1,0.3,1.2c0.2,0.2,0.7,0.3,1.5,0.3c0.8,0,1.3-0.1,1.6-0.4c0.3-0.2,0.4-0.7,0.4-1.4v-1.4l0,0
	c-0.3,0.7-1,1-2.3,1c-1,0-1.7-0.3-2.1-0.8c-0.4-0.5-0.6-1.4-0.6-2.8c0-1.4,0.2-2.4,0.6-2.9c0.4-0.5,1.1-0.8,2.2-0.8
	c1.1,0,1.9,0.4,2.2,1.1l0,0l-0.1-0.9H300.5L300.5,113.2z M297.5,113.9c-0.8,0-1.3,0.2-1.6,0.5c-0.2,0.3-0.4,1.1-0.4,2.2
	c0,1.2,0.1,1.9,0.4,2.2c0.2,0.3,0.8,0.5,1.6,0.5c0.8,0,1.4-0.2,1.6-0.6c0.3-0.4,0.4-1.2,0.4-2.4c0-1.1-0.1-1.7-0.4-2.1
	C298.8,114.1,298.3,113.9,297.5,113.9z"/>
<polygon style="fill:#231F20;" points="305.2,116 308.3,116 308.3,117 305.2,117 "/>
<path style="fill:#231F20;" d="M320.1,116.3L320,117h-1.7l-0.5,3.2H317l0.5-3.2h-2.2l-0.5,3.2H314l0.5-3.2h-1.7l0.1-0.7h1.7l0.4-2.3
	h-1.7l0.1-0.7h1.7l0.5-3.1h0.8l-0.5,3.1h2.2l0.5-3.1h0.8l-0.5,3.1h1.7l-0.1,0.7h-1.7l-0.4,2.3H320.1L320.1,116.3z M317.9,114h-2.2
	l-0.4,2.3h2.2L317.9,114z"/>
<path style="fill:#231F20;" d="M328.4,110.2v6.7h1.5v1h-1.5v2.3h-1.1v-2.3h-5.6v-1.3l5-6.4H328.4L328.4,110.2z M327.2,116.9v-6h0
	l-4.6,6H327.2z"/>
<polygon style="fill:#231F20;" points="343.2,110.2 343.2,120.2 342.1,120.2 342.1,115.5 336.3,115.5 336.3,120.2 335.1,120.2 
	335.1,110.2 336.3,110.2 336.3,114.6 342.1,114.6 342.1,110.2 "/>
<path style="fill:#231F20;" d="M348.8,110.1c1.9,0,3.1,0.3,3.5,0.8c0.5,0.6,0.7,1.9,0.7,4.1c0,2.4-0.2,3.8-0.7,4.4
	c-0.5,0.6-1.6,0.8-3.6,0.8c-1.9,0-3.1-0.3-3.6-0.8c-0.5-0.6-0.7-2-0.7-4.3v-0.7l0-0.9c0-1.3,0.3-2.2,0.9-2.7
	C346,110.3,347.2,110.1,348.8,110.1L348.8,110.1z M348.8,111c-1.6,0-2.5,0.2-2.8,0.5c-0.3,0.4-0.4,1.6-0.4,3.6
	c0,2.1,0.1,3.3,0.4,3.6c0.3,0.4,1.2,0.5,2.8,0.5c1.6,0,2.5-0.2,2.8-0.5c0.3-0.4,0.4-1.6,0.4-3.6v-0.7l0-0.9c0-1.1-0.2-1.8-0.6-2.1
	C351,111.2,350.2,111,348.8,111z"/>
<path style="fill:#231F20;" d="M358,110.1c1.9,0,3.1,0.3,3.5,0.8c0.5,0.6,0.7,1.9,0.7,4.1c0,2.4-0.2,3.8-0.7,4.4
	c-0.5,0.6-1.6,0.8-3.6,0.8c-1.9,0-3.1-0.3-3.6-0.8c-0.5-0.6-0.7-2-0.7-4.3v-0.7l0-0.9c0-1.3,0.3-2.2,0.9-2.7
	C355.2,110.3,356.3,110.1,358,110.1L358,110.1z M358,111c-1.6,0-2.5,0.2-2.8,0.5c-0.3,0.4-0.4,1.6-0.4,3.6c0,2.1,0.1,3.3,0.4,3.6
	c0.3,0.4,1.2,0.5,2.8,0.5c1.6,0,2.5-0.2,2.8-0.5c0.3-0.4,0.4-1.6,0.4-3.6v-0.7l0-0.9c0-1.1-0.2-1.8-0.6-2.1
	C360.2,111.2,359.4,111,358,111z"/>
<polygon style="fill:#231F20;" points="364.7,110.2 364.7,114.5 365.6,114.5 369.7,110.2 371.2,110.2 366.6,115 371.8,120.2 
	370.2,120.2 365.6,115.5 364.7,115.5 364.7,120.2 363.5,120.2 363.5,110.2 "/>
<path style="fill:#231F20;" d="M379.4,112.9h-1.1c0-0.8-0.1-1.3-0.4-1.5c-0.3-0.2-0.9-0.3-1.9-0.3c-1.2,0-1.9,0.1-2.3,0.3
	c-0.3,0.2-0.5,0.7-0.5,1.4c0,0.8,0.1,1.3,0.4,1.5c0.3,0.2,1.1,0.3,2.4,0.4c1.6,0.1,2.5,0.3,3,0.6c0.4,0.3,0.6,1.1,0.6,2.2
	c0,1.2-0.2,2-0.7,2.4c-0.5,0.4-1.6,0.5-3.2,0.5c-1.4,0-2.4-0.2-2.9-0.5c-0.5-0.4-0.7-1.1-0.7-2.2l0-0.4h1.1v0.2
	c0,0.9,0.1,1.4,0.4,1.7c0.3,0.2,1,0.3,2.1,0.3c1.3,0,2.1-0.1,2.4-0.3c0.3-0.2,0.4-0.8,0.4-1.7c0-0.6-0.1-1-0.3-1.2
	c-0.2-0.2-0.6-0.3-1.3-0.4l-1.2-0.1l-1.1-0.1c-1.7-0.1-2.5-1-2.5-2.6c0-1.1,0.2-1.9,0.7-2.3c0.5-0.4,1.5-0.6,3-0.6
	c1.5,0,2.5,0.2,2.9,0.5C379.2,110.9,379.4,111.7,379.4,112.9z"/>
</svg>
