<?xml version="1.0" encoding="utf-8"?>
<!-- Generator: Adobe Illustrator 13.0.0, SVG Export Plug-In  -->
<!DOCTYPE svg PUBLIC "-//W3C//DTD SVG 1.1//EN" "http://www.w3.org/Graphics/SVG/1.1/DTD/svg11.dtd" [
	<!ENTITY ns_flows "http://ns.adobe.com/Flows/1.0/">
]>
<svg version="1.1"
	 xmlns="http://www.w3.org/2000/svg" xmlns:xlink="http://www.w3.org/1999/xlink" xmlns:a="http://ns.adobe.com/AdobeSVGViewerExtensions/3.0/"
	 x="0px" y="0px" width="698px" height="167px" viewBox="-0.9 -0.4 698 167" style="enable-background:new -0.9 -0.4 698 167;"
	 xml:space="preserve">
<defs>
</defs>
<path style="fill-rule:evenodd;clip-rule:evenodd;fill:#B8D4F0;" d="M22.3,0h652.4c12.2,0,22.3,12,22.3,26.7v112.4
	c0,14.7-10,26.7-22.3,26.7H22.3C10,165.8,0,153.8,0,139.1V26.7C0,12,10,0,22.3,0z"/>
<path style="fill:#231F20;" d="M39.5,10.7l-4,12.7h-2.2l-2.7-9.1l-0.3-1.1c0-0.1-0.1-0.3-0.2-0.6L30,11.9h0l-0.2,0.6l-0.2,0.6
	l-0.3,1.1l-2.7,9.1h-2.1l-3.9-12.7h1.5l2.7,9.1l0.4,1.2c0,0.1,0.1,0.3,0.2,0.6l0.2,0.6h0l0.2-0.6l0.2-0.6l0.4-1.2l2.7-9.1h2.1
	l2.7,9.1l0.4,1.2l0.2,0.6l0.2,0.6h0l0.2-0.6l0.2-0.6l0.4-1.2l2.8-9.1H39.5z"/>
<polygon style="fill:#231F20;" points="51,10.7 51,23.3 49.6,23.3 49.6,17.4 42.2,17.4 42.2,23.3 40.8,23.3 40.8,10.7 42.2,10.7 
	42.2,16.2 49.6,16.2 49.6,10.7 "/>
<polygon style="fill:#231F20;" points="54.3,11.9 54.3,16.2 60.8,16.2 60.8,17.4 54.3,17.4 54.3,22.1 61,22.1 61,23.3 52.9,23.3 
	52.9,10.7 61,10.7 61,11.9 "/>
<polygon style="fill:#231F20;" points="73.7,10.7 73.7,23.3 71.4,23.3 66,14.7 65.2,13.3 64.8,12.6 64.3,11.9 64.3,11.9 64.3,12.3 
	64.3,12.8 64.3,13.8 64.3,23.3 62.9,23.3 62.9,10.7 65.2,10.7 69.9,18.2 71.1,20.2 71.7,21.2 72.3,22.2 72.3,22.2 72.3,21.7 
	72.3,21.2 72.3,20.3 72.3,10.7 "/>
<polygon style="fill:#231F20;" points="82.3,11.9 82.3,16.3 88.5,16.3 88.5,17.5 82.3,17.5 82.3,23.3 80.9,23.3 80.9,10.7 
	88.6,10.7 88.6,11.9 "/>
<rect x="90.2" y="10.7" style="fill:#231F20;" width="1.4" height="12.7"/>
<path style="fill:#231F20;" d="M102.7,14.1h-1.4c0-1-0.2-1.7-0.5-1.9c-0.3-0.3-1.1-0.4-2.4-0.4c-1.5,0-2.5,0.1-2.9,0.4
	s-0.6,0.8-0.6,1.8c0,1,0.2,1.6,0.5,1.9c0.3,0.2,1.4,0.4,3,0.5c2,0.1,3.2,0.3,3.8,0.8c0.5,0.4,0.8,1.3,0.8,2.8c0,1.6-0.3,2.6-0.9,3
	c-0.6,0.5-2,0.7-4.1,0.7c-1.8,0-3-0.2-3.6-0.7c-0.6-0.5-0.9-1.4-0.9-2.8l0-0.6h1.4v0.3c0,1.1,0.2,1.8,0.5,2.1s1.2,0.4,2.7,0.4
	c1.6,0,2.6-0.1,3-0.4s0.6-1,0.6-2.2c0-0.8-0.1-1.3-0.4-1.5c-0.3-0.3-0.8-0.4-1.6-0.5l-1.5-0.1l-1.4-0.1c-2.1-0.1-3.2-1.3-3.2-3.3
	c0-1.4,0.3-2.4,0.9-2.9c0.6-0.5,1.9-0.7,3.7-0.7c1.9,0,3.1,0.2,3.7,0.7C102.4,11.6,102.7,12.6,102.7,14.1z"/>
<polygon style="fill:#231F20;" points="114.9,10.7 114.9,23.3 113.5,23.3 113.5,17.4 106.1,17.4 106.1,23.3 104.7,23.3 104.7,10.7 
	106.1,10.7 106.1,16.2 113.5,16.2 113.5,10.7 "/>
<path style="fill:#231F20;" d="M129.8,20.6h-6.4l-1,2.7H121l4.6-12.7h2l4.7,12.7h-1.5L129.8,20.6L129.8,20.6z M129.4,19.6l-2.8-7.7
	l-2.8,7.7H129.4z"/>
<path style="fill:#231F20;" d="M133.6,23.3V10.7h6c1.4,0,2.3,0.3,2.9,0.8c0.6,0.5,0.8,1.5,0.8,2.8c0,1.2-0.2,2-0.5,2.4
	c-0.3,0.5-0.9,0.8-1.7,0.9v0c1.3,0.1,2,0.9,2,2.5v3.2h-1.4v-2.9c0-1.5-0.6-2.2-1.9-2.2h-0.5h-4.3v5.1H133.6L133.6,23.3z M135.1,17
	h4.1c1.1,0,1.8-0.2,2.2-0.5c0.4-0.3,0.6-1,0.6-1.9c0-1.1-0.1-1.9-0.4-2.2c-0.3-0.3-0.9-0.5-1.9-0.5h-4.6V17z"/>
<polygon style="fill:#231F20;" points="146.4,11.9 146.4,16.2 152.8,16.2 152.8,17.4 146.4,17.4 146.4,22.1 153.1,22.1 153.1,23.3 
	145,23.3 145,10.7 153.1,10.7 153.1,11.9 "/>
<polygon style="fill:#231F20;" points="161.1,11.9 161.1,16.3 167.3,16.3 167.3,17.5 161.1,17.5 161.1,23.3 159.7,23.3 159.7,10.7 
	167.4,10.7 167.4,11.9 "/>
<polygon style="fill:#231F20;" points="169.9,11.9 169.9,16.2 176.3,16.2 176.3,17.4 169.9,17.4 169.9,22.1 176.6,22.1 176.6,23.3 
	168.5,23.3 168.5,10.7 176.6,10.7 176.6,11.9 "/>
<polygon style="fill:#231F20;" points="179.3,11.9 179.3,16.2 185.8,16.2 185.8,17.4 179.3,17.4 179.3,22.1 186,22.1 186,23.3 
	177.9,23.3 177.9,10.7 186,10.7 186,11.9 "/>
<path style="fill:#231F20;" d="M187.9,23.3V10.7h5.9c1.8,0,3,0.4,3.7,1.2c0.6,0.8,1,2.3,1,4.6c0,2.7-0.3,4.6-0.9,5.5
	c-0.6,0.9-1.7,1.4-3.4,1.4H187.9L187.9,23.3z M189.3,22.1h4.1c1.5,0,2.5-0.3,2.9-0.9c0.4-0.6,0.7-2,0.7-4.1c0-2.3-0.2-3.8-0.6-4.4
	c-0.4-0.6-1.3-0.9-2.7-0.9h-4.4V22.1z"/>
<rect x="200.3" y="10.7" style="fill:#231F20;" width="1.4" height="12.7"/>
<polygon style="fill:#231F20;" points="215,10.7 215,23.3 212.6,23.3 207.3,14.7 206.5,13.3 206,12.6 205.6,11.9 205.6,11.9 
	205.6,12.3 205.6,12.8 205.6,13.8 205.6,23.3 204.2,23.3 204.2,10.7 206.5,10.7 211.1,18.2 212.3,20.2 212.9,21.2 213.5,22.2 
	213.6,22.2 213.6,21.7 213.6,21.2 213.6,20.3 213.6,10.7 "/>
<path style="fill:#231F20;" d="M221.9,17h5.4c0,0.3,0,0.8,0,1.4c0,2.3-0.3,3.7-0.8,4.2c-0.6,0.5-2,0.8-4.4,0.8c-2.2,0-3.7-0.3-4.3-1
	c-0.6-0.6-1-2.1-1-4.3l0-1.9l0-1.1c0-1.9,0.4-3.1,1.1-3.7c0.7-0.6,2.1-0.9,4.3-0.9c2.2,0,3.5,0.2,4.2,0.6c0.6,0.4,0.9,1.3,0.9,2.7
	v0.5h-1.4V14c0-1-0.2-1.7-0.6-1.9c-0.4-0.2-1.5-0.4-3.3-0.4c-1.6,0-2.7,0.2-3.1,0.6c-0.4,0.4-0.6,1.4-0.6,2.9l0,1.7l0,1.8
	c0,1.6,0.2,2.6,0.7,2.9c0.5,0.4,1.7,0.5,3.7,0.5c1.5,0,2.5-0.2,2.8-0.5c0.4-0.3,0.5-1.3,0.5-2.7c0-0.1,0-0.4-0.1-0.8h-4V17z"/>
<rect x="233.9" y="10.7" style="fill:#231F20;" width="1.4" height="12.7"/>
<polygon style="fill:#231F20;" points="248.6,10.7 248.6,23.3 246.3,23.3 240.9,14.7 240.1,13.3 239.7,12.6 239.2,11.9 239.2,11.9 
	239.2,12.3 239.2,12.8 239.2,13.8 239.2,23.3 237.8,23.3 237.8,10.7 240.1,10.7 244.7,18.2 246,20.2 246.6,21.2 247.2,22.2 
	247.2,22.2 247.2,21.7 247.2,21.2 247.2,20.3 247.2,10.7 "/>
<path style="fill:#231F20;" d="M264.4,14.1H263c0-1-0.2-1.7-0.5-1.9c-0.3-0.3-1.1-0.4-2.4-0.4c-1.5,0-2.5,0.1-2.9,0.4
	s-0.6,0.8-0.6,1.8c0,1,0.2,1.6,0.5,1.9c0.3,0.2,1.4,0.4,3,0.5c2,0.1,3.2,0.3,3.8,0.8c0.5,0.4,0.8,1.3,0.8,2.8c0,1.6-0.3,2.6-0.9,3
	c-0.6,0.5-2,0.7-4.1,0.7c-1.8,0-3-0.2-3.6-0.7c-0.6-0.5-0.9-1.4-0.9-2.8l0-0.6h1.4v0.3c0,1.1,0.2,1.8,0.5,2.1
	c0.3,0.3,1.2,0.4,2.7,0.4c1.6,0,2.6-0.1,3-0.4c0.4-0.3,0.6-1,0.6-2.2c0-0.8-0.1-1.3-0.4-1.5c-0.3-0.3-0.8-0.4-1.6-0.5l-1.5-0.1
	l-1.4-0.1c-2.1-0.1-3.2-1.3-3.2-3.3c0-1.4,0.3-2.4,0.9-2.9c0.6-0.5,1.9-0.7,3.7-0.7c1.9,0,3.1,0.2,3.7,0.7
	C264.2,11.6,264.4,12.6,264.4,14.1z"/>
<polygon style="fill:#231F20;" points="276.7,10.7 276.7,23.3 275.2,23.3 275.2,17.4 267.8,17.4 267.8,23.3 266.4,23.3 266.4,10.7 
	267.8,10.7 267.8,16.2 275.2,16.2 275.2,10.7 "/>
<path style="fill:#231F20;" d="M286.8,20.6h-6.4l-1,2.7h-1.5l4.6-12.7h2l4.7,12.7h-1.5L286.8,20.6L286.8,20.6z M286.4,19.6l-2.8-7.7
	l-2.8,7.7H286.4z"/>
<polygon style="fill:#231F20;" points="292,10.7 292,22 298.6,22 298.6,23.3 290.6,23.3 290.6,10.7 "/>
<polygon style="fill:#231F20;" points="301.3,10.7 301.3,22 307.8,22 307.8,23.3 299.8,23.3 299.8,10.7 "/>
<path style="fill:#231F20;" d="M313.7,10.5c2.4,0,3.9,0.3,4.5,1c0.6,0.7,0.9,2.4,0.9,5.2c0,3-0.3,4.9-0.9,5.6
	c-0.6,0.7-2.1,1.1-4.5,1.1c-2.4,0-3.9-0.3-4.5-1c-0.6-0.7-0.9-2.5-0.9-5.4v-0.9l0-1.2c0-1.7,0.4-2.8,1.1-3.4
	C310.2,10.8,311.6,10.5,313.7,10.5L313.7,10.5z M313.7,11.7c-2,0-3.2,0.2-3.5,0.7s-0.5,2-0.5,4.6c0,2.6,0.2,4.1,0.5,4.6
	c0.3,0.4,1.5,0.7,3.5,0.7c2,0,3.2-0.2,3.5-0.7c0.3-0.4,0.5-2,0.5-4.6v-0.8l0-1.2c0-1.4-0.2-2.3-0.7-2.7
	C316.5,11.9,315.4,11.7,313.7,11.7z"/>
<path style="fill:#231F20;" d="M338.4,10.7l-4,12.7h-2.2l-2.7-9.1l-0.3-1.1c0-0.1-0.1-0.3-0.2-0.6l-0.2-0.6h0l-0.2,0.6l-0.2,0.6
	l-0.3,1.1l-2.7,9.1h-2.1l-3.9-12.7h1.5l2.7,9.1l0.4,1.2c0,0.1,0.1,0.3,0.2,0.6l0.2,0.6h0l0.2-0.6l0.2-0.6l0.4-1.2l2.7-9.1h2.1
	l2.7,9.1L333,21l0.2,0.6l0.2,0.6h0l0.2-0.6l0.2-0.6l0.4-1.2l2.8-9.1H338.4z"/>
<path style="fill:#231F20;" d="M362.1,10.7l-4,12.7H356l-2.7-9.1l-0.3-1.1c0-0.1-0.1-0.3-0.2-0.6l-0.2-0.6h0l-0.2,0.6l-0.2,0.6
	l-0.3,1.1l-2.7,9.1h-2.1l-3.9-12.7h1.5l2.7,9.1l0.4,1.2c0,0.1,0.1,0.3,0.2,0.6l0.2,0.6h0l0.2-0.6l0.2-0.6l0.4-1.2l2.7-9.1h2.1
	l2.7,9.1l0.4,1.2l0.2,0.6l0.2,0.6h0l0.2-0.6l0.2-0.6l0.4-1.2l2.8-9.1H362.1z"/>
<path style="fill:#231F20;" d="M371.2,20.6h-6.4l-1,2.7h-1.5l4.6-12.7h2l4.7,12.7h-1.5L371.2,20.6L371.2,20.6z M370.7,19.6l-2.8-7.7
	l-2.8,7.7H370.7z"/>
<polygon style="fill:#231F20;" points="379.4,12 379.4,23.3 377.9,23.3 377.9,12 373.8,12 373.8,10.7 383.4,10.7 383.4,12 "/>
<polygon style="fill:#231F20;" points="385.6,11.9 385.6,16.2 392.1,16.2 392.1,17.4 385.6,17.4 385.6,22.1 392.3,22.1 392.3,23.3 
	384.2,23.3 384.2,10.7 392.3,10.7 392.3,11.9 "/>
<path style="fill:#231F20;" d="M394.2,23.3V10.7h6c1.4,0,2.3,0.3,2.9,0.8c0.6,0.5,0.8,1.5,0.8,2.8c0,1.2-0.2,2-0.5,2.4
	c-0.3,0.5-0.9,0.8-1.7,0.9v0c1.3,0.1,2,0.9,2,2.5v3.2h-1.4v-2.9c0-1.5-0.6-2.2-1.9-2.2h-0.5h-4.3v5.1H394.2L394.2,23.3z M395.6,17
	h4.1c1.1,0,1.8-0.2,2.2-0.5c0.4-0.3,0.6-1,0.6-1.9c0-1.1-0.1-1.9-0.4-2.2c-0.3-0.3-0.9-0.5-1.9-0.5h-4.6V17z"/>
<path style="fill:#231F20;" d="M407.4,21.6v1.8c0,1.2-0.4,1.7-1.3,1.7c-0.1,0-0.2,0-0.4,0v-0.7c0.5,0,0.8-0.3,0.8-0.8l0-0.3H406
	v-1.7H407.4z"/>
<path style="fill:#231F20;" d="M419.2,10.5c2.4,0,3.9,0.3,4.5,1c0.6,0.7,0.9,2.4,0.9,5.2c0,3-0.3,4.9-0.9,5.6
	c-0.6,0.7-2.1,1.1-4.5,1.1c-2.4,0-3.9-0.3-4.5-1c-0.6-0.7-0.9-2.5-0.9-5.4v-0.9l0-1.2c0-1.7,0.4-2.8,1.1-3.4
	C415.7,10.8,417.1,10.5,419.2,10.5L419.2,10.5z M419.2,11.7c-2,0-3.2,0.2-3.5,0.7s-0.5,2-0.5,4.6c0,2.6,0.2,4.1,0.5,4.6
	c0.3,0.4,1.5,0.7,3.5,0.7c2,0,3.2-0.2,3.5-0.7c0.3-0.4,0.5-2,0.5-4.6v-0.8l0-1.2c0-1.4-0.2-2.3-0.7-2.7
	C422,11.9,420.9,11.7,419.2,11.7z"/>
<path style="fill:#231F20;" d="M426.2,23.3V10.7h6c1.4,0,2.3,0.3,2.9,0.8c0.6,0.5,0.8,1.5,0.8,2.8c0,1.2-0.2,2-0.5,2.4
	c-0.3,0.5-0.9,0.8-1.7,0.9v0c1.3,0.1,2,0.9,2,2.5v3.2h-1.4v-2.9c0-1.5-0.6-2.2-1.9-2.2h-0.5h-4.3v5.1H426.2L426.2,23.3z M427.6,17
	h4.1c1.1,0,1.8-0.2,2.2-0.5c0.4-0.3,0.6-1,0.6-1.9c0-1.1-0.1-1.9-0.4-2.2c-0.3-0.3-0.9-0.5-1.9-0.5h-4.6V17z"/>
<path style="fill:#231F20;" d="M450.6,20.6h-6.4l-1,2.7h-1.5l4.6-12.7h2l4.7,12.7h-1.5L450.6,20.6L450.6,20.6z M450.1,19.6l-2.8-7.7
	l-2.8,7.7H450.1z"/>
<path style="fill:#231F20;" d="M468.2,10.7v12.7h-1.4V13.2v-0.8l0-0.4l0-0.4h0l-0.1,0.3c-0.1,0.1-0.1,0.2-0.1,0.3l-0.2,0.6L462,23.3
	h-1.4L456.3,13l-0.3-0.6l-0.1-0.3c0-0.1-0.1-0.2-0.1-0.3h0l0,0.3l0,0.4v0.7v10.1h-1.4V10.7h2.5l3.4,8.2l0.5,1.3l0.3,0.7l0.3,0.7h0
	l0.3-0.7c0.1-0.3,0.2-0.5,0.3-0.7l0.5-1.3l3.4-8.2H468.2z"/>
<path style="fill:#231F20;" d="M475.3,10.5c2.4,0,3.9,0.3,4.5,1c0.6,0.7,0.9,2.4,0.9,5.2c0,3-0.3,4.9-0.9,5.6
	c-0.6,0.7-2.1,1.1-4.5,1.1c-2.4,0-3.9-0.3-4.5-1c-0.6-0.7-0.9-2.5-0.9-5.4v-0.9l0-1.2c0-1.7,0.4-2.8,1.1-3.4
	C471.8,10.8,473.2,10.5,475.3,10.5L475.3,10.5z M475.3,11.7c-2,0-3.2,0.2-3.5,0.7s-0.5,2-0.5,4.6c0,2.6,0.2,4.1,0.5,4.6
	c0.3,0.4,1.5,0.7,3.5,0.7c2,0,3.2-0.2,3.5-0.7c0.3-0.4,0.5-2,0.5-4.6v-0.8l0-1.2c0-1.4-0.2-2.3-0.7-2.7
	C478.1,11.9,477,11.7,475.3,11.7z"/>
<polygon style="fill:#231F20;" points="493.1,10.7 493.1,23.3 490.8,23.3 485.4,14.7 484.6,13.3 484.2,12.6 483.7,11.9 483.7,11.9 
	483.7,12.3 483.7,12.8 483.7,13.8 483.7,23.3 482.3,23.3 482.3,10.7 484.6,10.7 489.2,18.2 490.5,20.2 491.1,21.2 491.7,22.2 
	491.7,22.2 491.7,21.7 491.7,21.2 491.7,20.3 491.7,10.7 "/>
<path style="fill:#231F20;" d="M500,17h5.4c0,0.3,0,0.8,0,1.4c0,2.3-0.3,3.7-0.8,4.2c-0.6,0.5-2,0.8-4.4,0.8c-2.2,0-3.7-0.3-4.3-1
	s-1-2.1-1-4.3l0-1.9l0-1.1c0-1.9,0.4-3.1,1.1-3.7c0.7-0.6,2.1-0.9,4.3-0.9c2.2,0,3.5,0.2,4.2,0.6c0.6,0.4,0.9,1.3,0.9,2.7v0.5h-1.4
	V14c0-1-0.2-1.7-0.6-1.9c-0.4-0.2-1.5-0.4-3.3-0.4c-1.6,0-2.7,0.2-3.1,0.6c-0.4,0.4-0.6,1.4-0.6,2.9l0,1.7l0,1.8
	c0,1.6,0.2,2.6,0.7,2.9c0.5,0.4,1.7,0.5,3.7,0.5c1.5,0,2.5-0.2,2.8-0.5c0.4-0.3,0.5-1.3,0.5-2.7c0-0.1,0-0.4-0.1-0.8h-4V17z"/>
<path style="fill:#231F20;" d="M516,14.1h-1.4c0-1-0.2-1.7-0.5-1.9c-0.3-0.3-1.1-0.4-2.4-0.4c-1.5,0-2.5,0.1-2.9,0.4
	s-0.6,0.8-0.6,1.8c0,1,0.2,1.6,0.5,1.9c0.3,0.2,1.4,0.4,3,0.5c2,0.1,3.2,0.3,3.8,0.8c0.5,0.4,0.8,1.3,0.8,2.8c0,1.6-0.3,2.6-0.9,3
	c-0.6,0.5-2,0.7-4.1,0.7c-1.8,0-3-0.2-3.6-0.7c-0.6-0.5-0.9-1.4-0.9-2.8l0-0.6h1.4v0.3c0,1.1,0.2,1.8,0.5,2.1
	c0.3,0.3,1.2,0.4,2.7,0.4c1.6,0,2.6-0.1,3-0.4c0.4-0.3,0.6-1,0.6-2.2c0-0.8-0.1-1.3-0.4-1.5c-0.3-0.3-0.8-0.4-1.6-0.5l-1.5-0.1
	l-1.4-0.1c-2.1-0.1-3.2-1.3-3.2-3.3c0-1.4,0.3-2.4,0.9-2.9c0.6-0.5,1.9-0.7,3.7-0.7c1.9,0,3.1,0.2,3.7,0.7
	C515.7,11.6,516,12.6,516,14.1z"/>
<polygon style="fill:#231F20;" points="522.3,12 522.3,23.3 520.9,23.3 520.9,12 516.8,12 516.8,10.7 526.4,10.7 526.4,12 "/>
<polygon style="fill:#231F20;" points="533.9,11.9 533.9,16.3 540,16.3 540,17.5 533.9,17.5 533.9,23.3 532.4,23.3 532.4,10.7 
	540.2,10.7 540.2,11.9 "/>
<polygon style="fill:#231F20;" points="543.2,10.7 543.2,22 549.7,22 549.7,23.3 541.7,23.3 541.7,10.7 "/>
<path style="fill:#231F20;" d="M555.6,10.5c2.4,0,3.9,0.3,4.5,1c0.6,0.7,0.9,2.4,0.9,5.2c0,3-0.3,4.9-0.9,5.6
	c-0.6,0.7-2.1,1.1-4.5,1.1c-2.4,0-3.9-0.3-4.5-1c-0.6-0.7-0.9-2.5-0.9-5.4v-0.9l0-1.2c0-1.7,0.4-2.8,1.1-3.4
	C552.1,10.8,553.5,10.5,555.6,10.5L555.6,10.5z M555.6,11.7c-2,0-3.2,0.2-3.5,0.7s-0.5,2-0.5,4.6c0,2.6,0.2,4.1,0.5,4.6
	c0.3,0.4,1.5,0.7,3.5,0.7c2,0,3.2-0.2,3.5-0.7c0.3-0.4,0.5-2,0.5-4.6v-0.8l0-1.2c0-1.4-0.2-2.3-0.7-2.7
	C558.4,11.9,557.3,11.7,555.6,11.7z"/>
<path style="fill:#231F20;" d="M567.2,10.5c2.4,0,3.9,0.3,4.5,1c0.6,0.7,0.9,2.4,0.9,5.2c0,3-0.3,4.9-0.9,5.6
	c-0.6,0.7-2.1,1.1-4.5,1.1c-2.4,0-3.9-0.3-4.5-1c-0.6-0.7-0.9-2.5-0.9-5.4v-0.9l0-1.2c0-1.7,0.4-2.8,1.1-3.4
	C563.7,10.8,565.1,10.5,567.2,10.5L567.2,10.5z M567.2,11.7c-2,0-3.2,0.2-3.5,0.7c-0.3,0.4-0.5,2-0.5,4.6c0,2.6,0.2,4.1,0.5,4.6
	c0.3,0.4,1.5,0.7,3.5,0.7c2,0,3.2-0.2,3.5-0.7c0.3-0.4,0.5-2,0.5-4.6v-0.8l0-1.2c0-1.4-0.2-2.3-0.7-2.7
	C570.1,11.9,569,11.7,567.2,11.7z"/>
<path style="fill:#231F20;" d="M574.2,23.3V10.7h5.9c1.8,0,3,0.4,3.7,1.2c0.6,0.8,1,2.3,1,4.6c0,2.7-0.3,4.6-0.9,5.5
	c-0.6,0.9-1.7,1.4-3.4,1.4H574.2L574.2,23.3z M575.7,22.1h4.1c1.5,0,2.5-0.3,2.9-0.9c0.4-0.6,0.7-2,0.7-4.1c0-2.3-0.2-3.8-0.6-4.4
	c-0.4-0.6-1.3-0.9-2.7-0.9h-4.4V22.1z"/>
<polygon style="fill:#231F20;" points="587.6,11.9 587.6,16.2 594,16.2 594,17.4 587.6,17.4 587.6,22.1 594.3,22.1 594.3,23.3 
	586.1,23.3 586.1,10.7 594.3,10.7 594.3,11.9 "/>
<path style="fill:#231F20;" d="M596.1,23.3V10.7h5.9c1.8,0,3,0.4,3.7,1.2c0.6,0.8,1,2.3,1,4.6c0,2.7-0.3,4.6-0.9,5.5
	c-0.6,0.9-1.7,1.4-3.4,1.4H596.1L596.1,23.3z M597.5,22.1h4.1c1.5,0,2.5-0.3,2.9-0.9c0.4-0.6,0.7-2,0.7-4.1c0-2.3-0.2-3.8-0.6-4.4
	c-0.4-0.6-1.3-0.9-2.7-0.9h-4.4V22.1z"/>
<polygon style="fill:#231F20;" points="617.7,12 617.7,23.3 616.3,23.3 616.3,12 612.1,12 612.1,10.7 621.8,10.7 621.8,12 "/>
<rect x="623.1" y="10.7" style="fill:#231F20;" width="1.4" height="12.7"/>
<path style="fill:#231F20;" d="M640.8,10.7v12.7h-1.4V13.2v-0.8l0-0.4l0-0.4h0l-0.1,0.3c-0.1,0.1-0.1,0.2-0.1,0.3l-0.2,0.6
	l-4.3,10.5h-1.4L628.8,13l-0.3-0.6l-0.1-0.3c0-0.1-0.1-0.2-0.1-0.3h0l0,0.3l0,0.4v0.7v10.1h-1.4V10.7h2.5l3.4,8.2l0.5,1.3l0.3,0.7
	l0.3,0.7h0l0.3-0.7c0.1-0.3,0.2-0.5,0.3-0.7l0.5-1.3l3.4-8.2H640.8z"/>
<path style="fill:#231F20;" d="M643.2,23.3V10.7h5.6c1.6,0,2.6,0.2,3,0.6c0.5,0.4,0.7,1.3,0.7,2.7c0,1.4-0.5,2.3-1.6,2.7v0
	c1.3,0.3,2,1.3,2,3c0,1.3-0.3,2.3-0.8,2.8c-0.5,0.5-1.4,0.8-2.8,0.8H643.2L643.2,23.3z M644.7,16.2h3.8c1.2,0,2-0.1,2.3-0.4
	c0.3-0.3,0.5-0.9,0.5-1.9c0-0.9-0.1-1.4-0.4-1.7c-0.3-0.3-1-0.4-2-0.4h-4.1V16.2L644.7,16.2z M644.7,22.1h3l1.3,0
	c1.1,0,1.8-0.1,2.1-0.4c0.3-0.3,0.5-0.9,0.5-1.8c0-1.1-0.2-1.8-0.5-2.1c-0.3-0.3-1.3-0.4-2.8-0.4h-3.7V22.1z"/>
<polygon style="fill:#231F20;" points="655.9,11.9 655.9,16.2 662.3,16.2 662.3,17.4 655.9,17.4 655.9,22.1 662.6,22.1 662.6,23.3 
	654.4,23.3 654.4,10.7 662.6,10.7 662.6,11.9 "/>
<path style="fill:#231F20;" d="M664.4,23.3V10.7h6c1.4,0,2.3,0.3,2.9,0.8c0.6,0.5,0.8,1.5,0.8,2.8c0,1.2-0.2,2-0.5,2.4
	c-0.3,0.5-0.9,0.8-1.7,0.9v0c1.3,0.1,2,0.9,2,2.5v3.2h-1.4v-2.9c0-1.5-0.6-2.2-1.9-2.2h-0.5h-4.3v5.1H664.4L664.4,23.3z M665.8,17
	h4.1c1.1,0,1.8-0.2,2.2-0.5c0.4-0.3,0.6-1,0.6-1.9c0-1.1-0.1-1.9-0.4-2.2c-0.3-0.3-0.9-0.5-1.9-0.5h-4.6V17z"/>
<path style="fill:#231F20;" d="M677.7,21.6v1.8c0,1.2-0.4,1.7-1.3,1.7c-0.1,0-0.2,0-0.4,0v-0.7c0.5,0,0.8-0.3,0.8-0.8l0-0.3h-0.6
	v-1.7H677.7z"/>
<polygon style="fill:#231F20;" points="23.2,32.3 23.2,36.7 29.4,36.7 29.4,37.9 23.2,37.9 23.2,43.7 21.8,43.7 21.8,31.1 
	29.6,31.1 29.6,32.3 "/>
<polygon style="fill:#231F20;" points="32,32.3 32,36.6 38.4,36.6 38.4,37.8 32,37.8 32,42.5 38.7,42.5 38.7,43.7 30.6,43.7 
	30.6,31.1 38.7,31.1 38.7,32.3 "/>
<path style="fill:#231F20;" d="M58.3,31.1l-4,12.7h-2.2l-2.7-9.1l-0.3-1.1c0-0.1-0.1-0.3-0.2-0.6l-0.2-0.6h0l-0.2,0.6l-0.2,0.6
	l-0.3,1.1l-2.7,9.1h-2.1l-3.9-12.7h1.5l2.7,9.1l0.4,1.2c0,0.1,0.1,0.3,0.2,0.6l0.2,0.6h0l0.2-0.6l0.2-0.6l0.4-1.2l2.7-9.1h2.1
	l2.7,9.1l0.4,1.2L53,42l0.2,0.6h0l0.2-0.6l0.2-0.6l0.4-1.2l2.8-9.1H58.3z"/>
<polygon style="fill:#231F20;" points="71.4,31.1 71.4,42.4 77.9,42.4 77.9,43.7 70,43.7 70,31.1 "/>
<path style="fill:#231F20;" d="M87.8,31.1h1.4v8.9c0,1.6-0.3,2.7-1,3.2s-2,0.8-4.1,0.8c-1.9,0-3.3-0.2-3.9-0.7c-0.7-0.5-1-1.4-1-2.8
	v-0.4v-8.9h1.4v8.9c0,1.2,0.2,2,0.6,2.3c0.4,0.3,1.3,0.5,2.9,0.5c1.7,0,2.7-0.1,3.1-0.4c0.4-0.3,0.6-1.1,0.6-2.3V31.1z"/>
<path style="fill:#231F20;" d="M91.7,43.7V31.1h6c1.4,0,2.3,0.3,2.9,0.8c0.6,0.5,0.8,1.5,0.8,2.8c0,1.2-0.2,2-0.5,2.4
	c-0.3,0.5-0.9,0.8-1.7,0.9v0c1.3,0.1,2,0.9,2,2.5v3.2h-1.4v-2.9c0-1.5-0.6-2.2-1.9-2.2h-0.5h-4.3v5.1H91.7L91.7,43.7z M93.1,37.4
	h4.1c1.1,0,1.8-0.2,2.2-0.5c0.4-0.3,0.6-1,0.6-1.9c0-1.1-0.1-1.9-0.4-2.2c-0.3-0.3-0.9-0.5-1.9-0.5h-4.6V37.4z"/>
<polygon style="fill:#231F20;" points="104.4,32.3 104.4,36.6 110.8,36.6 110.8,37.8 104.4,37.8 104.4,42.5 111.1,42.5 111.1,43.7 
	103,43.7 103,31.1 111.1,31.1 111.1,32.3 "/>
<path style="fill:#231F20;" d="M121.6,34.5h-1.4c0-1-0.2-1.7-0.5-1.9c-0.3-0.3-1.1-0.4-2.4-0.4c-1.5,0-2.5,0.1-2.9,0.4
	s-0.6,0.8-0.6,1.8c0,1,0.2,1.6,0.5,1.9c0.3,0.2,1.4,0.4,3,0.5c2,0.1,3.2,0.3,3.8,0.8c0.5,0.4,0.8,1.3,0.8,2.8c0,1.6-0.3,2.6-0.9,3
	c-0.6,0.5-2,0.7-4.1,0.7c-1.8,0-3-0.2-3.6-0.7c-0.6-0.5-0.9-1.4-0.9-2.8l0-0.6h1.4v0.3c0,1.1,0.2,1.8,0.5,2.1s1.2,0.4,2.7,0.4
	c1.6,0,2.6-0.1,3-0.4s0.6-1,0.6-2.2c0-0.8-0.1-1.3-0.4-1.5c-0.3-0.3-0.8-0.4-1.6-0.5L117,38l-1.4-0.1c-2.1-0.1-3.2-1.3-3.2-3.3
	c0-1.4,0.3-2.4,0.9-2.9c0.6-0.5,1.9-0.7,3.7-0.7c1.9,0,3.1,0.2,3.7,0.7C121.4,32.1,121.6,33,121.6,34.5z"/>
<path style="fill:#231F20;" d="M151.8,31.1l-4,12.7h-2.2l-2.7-9.1l-0.3-1.1c0-0.1-0.1-0.3-0.2-0.6l-0.2-0.6h0l-0.2,0.6l-0.2,0.6
	l-0.3,1.1l-2.7,9.1h-2.1l-3.9-12.7h1.5l2.7,9.1l0.4,1.2c0,0.1,0.1,0.3,0.2,0.6l0.2,0.6h0L138,42l0.2-0.6l0.4-1.2l2.7-9.1h2.1
	l2.7,9.1l0.4,1.2l0.2,0.6l0.2,0.6h0L147,42l0.2-0.6l0.4-1.2l2.8-9.1H151.8z"/>
<path style="fill:#231F20;" d="M157.7,30.9c2.4,0,3.9,0.3,4.5,1c0.6,0.7,0.9,2.4,0.9,5.2c0,3-0.3,4.9-0.9,5.6
	c-0.6,0.7-2.1,1.1-4.5,1.1c-2.4,0-3.9-0.3-4.5-1c-0.6-0.7-0.9-2.5-0.9-5.4v-0.9l0-1.2c0-1.7,0.4-2.8,1.1-3.4
	C154.2,31.3,155.6,30.9,157.7,30.9L157.7,30.9z M157.7,32.2c-2,0-3.2,0.2-3.5,0.7c-0.3,0.4-0.5,2-0.5,4.6c0,2.6,0.2,4.1,0.5,4.6
	c0.3,0.4,1.5,0.7,3.5,0.7c2,0,3.2-0.2,3.5-0.7c0.3-0.4,0.5-2,0.5-4.6v-0.8l0-1.2c0-1.4-0.2-2.3-0.7-2.7
	C160.5,32.3,159.4,32.2,157.7,32.2z"/>
<path style="fill:#231F20;" d="M164.7,43.7V31.1h6c1.4,0,2.3,0.3,2.9,0.8c0.6,0.5,0.8,1.5,0.8,2.8c0,1.2-0.2,2-0.5,2.4
	c-0.3,0.5-0.9,0.8-1.7,0.9v0c1.3,0.1,2,0.9,2,2.5v3.2h-1.4v-2.9c0-1.5-0.6-2.2-1.9-2.2h-0.5h-4.3v5.1H164.7L164.7,43.7z M166.1,37.4
	h4.1c1.1,0,1.8-0.2,2.2-0.5c0.4-0.3,0.6-1,0.6-1.9c0-1.1-0.1-1.9-0.4-2.2c-0.3-0.3-0.9-0.5-1.9-0.5h-4.6V37.4z"/>
<polygon style="fill:#231F20;" points="178,31.1 178,36.6 179.2,36.6 184.4,31.1 186.3,31.1 180.5,37.2 187,43.7 185,43.7 
	179.2,37.8 178,37.8 178,43.7 176.5,43.7 176.5,31.1 "/>
<path style="fill:#231F20;" d="M198.5,43.7V31.1h5.6c1.6,0,2.6,0.2,3,0.6c0.5,0.4,0.7,1.3,0.7,2.7c0,1.4-0.5,2.3-1.6,2.7v0
	c1.3,0.3,2,1.3,2,3c0,1.3-0.3,2.3-0.8,2.8c-0.5,0.5-1.4,0.8-2.8,0.8H198.5L198.5,43.7z M199.9,36.6h3.8c1.2,0,2-0.1,2.3-0.4
	c0.3-0.3,0.5-0.9,0.5-1.9c0-0.9-0.1-1.4-0.4-1.7c-0.3-0.3-1-0.4-2-0.4h-4.1V36.6L199.9,36.6z M199.9,42.5h3l1.3,0
	c1.1,0,1.8-0.1,2.1-0.4c0.3-0.3,0.5-0.9,0.5-1.8c0-1.1-0.2-1.8-0.5-2.1c-0.3-0.3-1.3-0.4-2.8-0.4h-3.7V42.5z"/>
<polygon style="fill:#231F20;" points="211.1,32.3 211.1,36.6 217.6,36.6 217.6,37.8 211.1,37.8 211.1,42.5 217.8,42.5 217.8,43.7 
	209.7,43.7 209.7,31.1 217.8,31.1 217.8,32.3 "/>
<polygon style="fill:#231F20;" points="224.1,32.4 224.1,43.7 222.7,43.7 222.7,32.4 218.5,32.4 218.5,31.1 228.2,31.1 228.2,32.4 
	"/>
<polygon style="fill:#231F20;" points="233.9,32.4 233.9,43.7 232.4,43.7 232.4,32.4 228.3,32.4 228.3,31.1 238,31.1 238,32.4 "/>
<polygon style="fill:#231F20;" points="240.2,32.3 240.2,36.6 246.6,36.6 246.6,37.8 240.2,37.8 240.2,42.5 246.9,42.5 246.9,43.7 
	238.7,43.7 238.7,31.1 246.9,31.1 246.9,32.3 "/>
<path style="fill:#231F20;" d="M248.7,43.7V31.1h6c1.4,0,2.3,0.3,2.9,0.8c0.6,0.5,0.8,1.5,0.8,2.8c0,1.2-0.2,2-0.5,2.4
	c-0.3,0.5-0.9,0.8-1.7,0.9v0c1.3,0.1,2,0.9,2,2.5v3.2h-1.4v-2.9c0-1.5-0.6-2.2-1.9-2.2h-0.5h-4.3v5.1H248.7L248.7,43.7z M250.1,37.4
	h4.1c1.1,0,1.8-0.2,2.2-0.5c0.4-0.3,0.6-1,0.6-1.9c0-1.1-0.1-1.9-0.4-2.2c-0.3-0.3-0.9-0.5-1.9-0.5h-4.6V37.4z"/>
<polygon style="fill:#231F20;" points="275.4,32.4 275.4,43.7 274,43.7 274,32.4 269.9,32.4 269.9,31.1 279.5,31.1 279.5,32.4 "/>
<polygon style="fill:#231F20;" points="291.1,31.1 291.1,43.7 289.6,43.7 289.6,37.9 282.2,37.9 282.2,43.7 280.8,43.7 280.8,31.1 
	282.2,31.1 282.2,36.7 289.6,36.7 289.6,31.1 "/>
<path style="fill:#231F20;" d="M301.3,41.1h-6.4l-1,2.7h-1.5l4.6-12.7h2l4.7,12.7h-1.5L301.3,41.1L301.3,41.1z M300.8,40l-2.8-7.7
	l-2.8,7.7H300.8z"/>
<polygon style="fill:#231F20;" points="315.9,31.1 315.9,43.7 313.5,43.7 308.2,35.1 307.3,33.7 306.9,33 306.5,32.3 306.4,32.3 
	306.5,32.8 306.5,33.2 306.5,34.2 306.5,43.7 305,43.7 305,31.1 307.4,31.1 312,38.6 313.2,40.6 313.8,41.6 314.4,42.6 314.4,42.6 
	314.4,42.1 314.4,41.6 314.4,40.7 314.4,31.1 "/>
<path style="fill:#231F20;" d="M336.5,41.1h-6.4l-1,2.7h-1.5l4.6-12.7h2l4.7,12.7h-1.5L336.5,41.1L336.5,41.1z M336.1,40l-2.8-7.7
	l-2.8,7.7H336.1z"/>
<path style="fill:#231F20;" d="M359.5,34.5h-1.4c0-1-0.2-1.7-0.5-1.9c-0.3-0.3-1.1-0.4-2.4-0.4c-1.5,0-2.5,0.1-2.9,0.4
	s-0.6,0.8-0.6,1.8c0,1,0.2,1.6,0.5,1.9c0.3,0.2,1.4,0.4,3,0.5c2,0.1,3.2,0.3,3.8,0.8c0.5,0.4,0.8,1.3,0.8,2.8c0,1.6-0.3,2.6-0.9,3
	c-0.6,0.5-2,0.7-4.1,0.7c-1.8,0-3-0.2-3.6-0.7c-0.6-0.5-0.9-1.4-0.9-2.8l0-0.6h1.4v0.3c0,1.1,0.2,1.8,0.5,2.1s1.2,0.4,2.7,0.4
	c1.6,0,2.6-0.1,3-0.4c0.4-0.3,0.6-1,0.6-2.2c0-0.8-0.1-1.3-0.4-1.5c-0.3-0.3-0.8-0.4-1.6-0.5l-1.5-0.1l-1.4-0.1
	c-2.1-0.1-3.2-1.3-3.2-3.3c0-1.4,0.3-2.4,0.9-2.9c0.6-0.5,1.9-0.7,3.7-0.7c1.9,0,3.1,0.2,3.7,0.7C359.2,32.1,359.5,33,359.5,34.5z"
	/>
<path style="fill:#231F20;" d="M370.1,31.1h1.4v8.9c0,1.6-0.3,2.7-1,3.2s-2,0.8-4.1,0.8c-1.9,0-3.3-0.2-3.9-0.7
	c-0.7-0.5-1-1.4-1-2.8v-0.4v-8.9h1.4v8.9c0,1.2,0.2,2,0.6,2.3c0.4,0.3,1.3,0.5,2.9,0.5c1.7,0,2.7-0.1,3.1-0.4s0.6-1.1,0.6-2.3V31.1z
	"/>
<path style="fill:#231F20;" d="M373.9,43.7V31.1h6c1.4,0,2.3,0.3,2.9,0.8c0.6,0.5,0.8,1.5,0.8,2.8c0,1.2-0.2,2-0.5,2.4
	c-0.3,0.5-0.9,0.8-1.7,0.9v0c1.3,0.1,2,0.9,2,2.5v3.2H382v-2.9c0-1.5-0.6-2.2-1.9-2.2h-0.5h-4.3v5.1H373.9L373.9,43.7z M375.3,37.4
	h4.1c1.1,0,1.8-0.2,2.2-0.5c0.4-0.3,0.6-1,0.6-1.9c0-1.1-0.1-1.9-0.4-2.2c-0.3-0.3-0.9-0.5-1.9-0.5h-4.6V37.4z"/>
<polygon style="fill:#231F20;" points="387.2,32.3 387.2,36.7 393.3,36.7 393.3,37.9 387.2,37.9 387.2,43.7 385.7,43.7 385.7,31.1 
	393.5,31.1 393.5,32.3 "/>
<path style="fill:#231F20;" d="M402.8,41.1h-6.4l-1,2.7h-1.5l4.6-12.7h2l4.7,12.7h-1.5L402.8,41.1L402.8,41.1z M402.4,40l-2.8-7.7
	l-2.8,7.7H402.4z"/>
<path style="fill:#231F20;" d="M414.9,39.5h1.4V40c0,1.7-0.3,2.8-0.9,3.2c-0.6,0.4-2.1,0.6-4.4,0.6c-2.1,0-3.5-0.4-4-1.1
	c-0.6-0.8-0.9-2.5-0.9-5.3c0-2.2,0.1-3.6,0.2-4.1c0.1-0.6,0.5-1.1,1.1-1.5c0.7-0.5,2.3-0.8,4.6-0.8c1.6,0,2.7,0.3,3.3,0.8
	c0.6,0.5,0.8,1.5,0.8,2.9l0,0.3h-1.4l0-0.4c0-1-0.2-1.7-0.5-2c-0.3-0.3-1.1-0.4-2.2-0.4c-2,0-3.3,0.2-3.7,0.5
	c-0.5,0.3-0.7,1.3-0.7,2.8c0,3.6,0.2,5.6,0.5,6.3c0.3,0.6,1.3,0.9,3.1,0.9c1.7,0,2.7-0.1,3.1-0.4c0.4-0.3,0.6-0.9,0.6-2L414.9,39.5z
	"/>
<polygon style="fill:#231F20;" points="418.8,32.3 418.8,36.6 425.3,36.6 425.3,37.8 418.8,37.8 418.8,42.5 425.5,42.5 425.5,43.7 
	417.4,43.7 417.4,31.1 425.5,31.1 425.5,32.3 "/>
<path style="fill:#231F20;" d="M455.6,31.1l-4,12.7h-2.2l-2.7-9.1l-0.3-1.1c0-0.1-0.1-0.3-0.2-0.6l-0.2-0.6h0l-0.2,0.6l-0.2,0.6
	l-0.3,1.1l-2.7,9.1h-2.1l-3.9-12.7h1.5l2.7,9.1l0.4,1.2c0,0.1,0.1,0.3,0.2,0.6l0.2,0.6h0l0.2-0.6l0.2-0.6l0.4-1.2l2.7-9.1h2.1
	l2.7,9.1l0.4,1.2l0.2,0.6l0.2,0.6h0l0.2-0.6l0.2-0.6l0.4-1.2l2.8-9.1H455.6z"/>
<path style="fill:#231F20;" d="M464.6,41.1h-6.4l-1,2.7h-1.5l4.6-12.7h2l4.7,12.7h-1.5L464.6,41.1L464.6,41.1z M464.2,40l-2.8-7.7
	l-2.8,7.7H464.2z"/>
<polygon style="fill:#231F20;" points="469.8,31.1 469.8,42.4 476.3,42.4 476.3,43.7 468.4,43.7 468.4,31.1 "/>
<polygon style="fill:#231F20;" points="479,31.1 479,36.6 480.3,36.6 485.5,31.1 487.3,31.1 481.5,37.2 488,43.7 486.1,43.7 
	480.3,37.8 479,37.8 479,43.7 477.6,43.7 477.6,31.1 "/>
<polygon style="fill:#231F20;" points="490,32.3 490,36.6 496.4,36.6 496.4,37.8 490,37.8 490,42.5 496.7,42.5 496.7,43.7 
	488.6,43.7 488.6,31.1 496.7,31.1 496.7,32.3 "/>
<path style="fill:#231F20;" d="M498.5,43.7V31.1h6c1.4,0,2.3,0.3,2.9,0.8c0.6,0.5,0.8,1.5,0.8,2.8c0,1.2-0.2,2-0.5,2.4
	c-0.3,0.5-0.9,0.8-1.7,0.9v0c1.3,0.1,2,0.9,2,2.5v3.2h-1.4v-2.9c0-1.5-0.6-2.2-1.9-2.2h-0.5H500v5.1H498.5L498.5,43.7z M500,37.4
	h4.1c1.1,0,1.8-0.2,2.2-0.5c0.4-0.3,0.6-1,0.6-1.9c0-1.1-0.1-1.9-0.4-2.2c-0.3-0.3-0.9-0.5-1.9-0.5H500V37.4z"/>
<path style="fill:#231F20;" d="M529.2,39.5h1.4V40c0,1.7-0.3,2.8-0.9,3.2c-0.6,0.4-2.1,0.6-4.4,0.6c-2.1,0-3.5-0.4-4-1.1
	c-0.6-0.8-0.9-2.5-0.9-5.3c0-2.2,0.1-3.6,0.2-4.1s0.5-1.1,1.1-1.5c0.7-0.5,2.3-0.8,4.6-0.8c1.6,0,2.7,0.3,3.3,0.8
	c0.6,0.5,0.8,1.5,0.8,2.9l0,0.3H529l0-0.4c0-1-0.2-1.7-0.5-2c-0.3-0.3-1.1-0.4-2.2-0.4c-2,0-3.3,0.2-3.7,0.5
	c-0.5,0.3-0.7,1.3-0.7,2.8c0,3.6,0.2,5.6,0.5,6.3c0.3,0.6,1.3,0.9,3.1,0.9c1.7,0,2.7-0.1,3.1-0.4c0.4-0.3,0.6-0.9,0.6-2L529.2,39.5z
	"/>
<path style="fill:#231F20;" d="M532.2,43.7V31.1h6c1.4,0,2.3,0.3,2.9,0.8c0.6,0.5,0.8,1.5,0.8,2.8c0,1.2-0.2,2-0.5,2.4
	c-0.3,0.5-0.9,0.8-1.7,0.9v0c1.3,0.1,2,0.9,2,2.5v3.2h-1.4v-2.9c0-1.5-0.6-2.2-1.9-2.2h-0.5h-4.3v5.1H532.2L532.2,43.7z M533.6,37.4
	h4.1c1.1,0,1.8-0.2,2.2-0.5c0.4-0.3,0.6-1,0.6-1.9c0-1.1-0.1-1.9-0.4-2.2c-0.3-0.3-0.9-0.5-1.9-0.5h-4.6V37.4z"/>
<polygon style="fill:#231F20;" points="544.9,32.3 544.9,36.6 551.4,36.6 551.4,37.8 544.9,37.8 544.9,42.5 551.7,42.5 551.7,43.7 
	543.5,43.7 543.5,31.1 551.7,31.1 551.7,32.3 "/>
<path style="fill:#231F20;" d="M561.3,41.1h-6.4l-1,2.7h-1.5l4.6-12.7h2l4.7,12.7h-1.5L561.3,41.1L561.3,41.1z M560.9,40l-2.8-7.7
	l-2.8,7.7H560.9z"/>
<polygon style="fill:#231F20;" points="569.5,32.4 569.5,43.7 568,43.7 568,32.4 563.9,32.4 563.9,31.1 573.6,31.1 573.6,32.4 "/>
<rect x="574.8" y="31.1" style="fill:#231F20;" width="1.4" height="12.7"/>
<polygon style="fill:#231F20;" points="589.5,31.1 589.5,43.7 587.2,43.7 581.9,35.1 581,33.7 580.6,33 580.1,32.3 580.1,32.3 
	580.1,32.8 580.1,33.2 580.1,34.2 580.1,43.7 578.7,43.7 578.7,31.1 581,31.1 585.7,38.6 586.9,40.6 587.5,41.6 588.1,42.6 
	588.1,42.6 588.1,42.1 588.1,41.6 588.1,40.7 588.1,31.1 "/>
<path style="fill:#231F20;" d="M596.4,37.4h5.4c0,0.3,0,0.8,0,1.4c0,2.3-0.3,3.7-0.8,4.2c-0.6,0.5-2,0.8-4.4,0.8
	c-2.2,0-3.7-0.3-4.3-1c-0.6-0.6-1-2.1-1-4.3l0-1.9l0-1.1c0-1.9,0.4-3.1,1.1-3.7c0.7-0.6,2.1-0.9,4.3-0.9c2.2,0,3.5,0.2,4.2,0.6
	s0.9,1.3,0.9,2.7v0.5h-1.4v-0.3c0-1-0.2-1.7-0.6-1.9c-0.4-0.2-1.5-0.4-3.3-0.4c-1.6,0-2.7,0.2-3.1,0.6c-0.4,0.4-0.6,1.4-0.6,2.9
	l0,1.7l0,1.8c0,1.6,0.2,2.6,0.7,2.9c0.5,0.4,1.7,0.5,3.7,0.5c1.5,0,2.5-0.2,2.8-0.5c0.4-0.3,0.5-1.3,0.5-2.7c0-0.1,0-0.4-0.1-0.8h-4
	V37.4z"/>
<polygon style="fill:#231F20;" points="615.6,31.1 615.6,42.4 622.1,42.4 622.1,43.7 614.2,43.7 614.2,31.1 "/>
<rect x="623.4" y="31.1" style="fill:#231F20;" width="1.4" height="12.7"/>
<polygon style="fill:#231F20;" points="628.7,32.3 628.7,36.7 634.9,36.7 634.9,37.9 628.7,37.9 628.7,43.7 627.3,43.7 627.3,31.1 
	635,31.1 635,32.3 "/>
<polygon style="fill:#231F20;" points="637.5,32.3 637.5,36.6 643.9,36.6 643.9,37.8 637.5,37.8 637.5,42.5 644.2,42.5 644.2,43.7 
	636,43.7 636,31.1 644.2,31.1 644.2,32.3 "/>
<polygon style="fill:#231F20;" points="647.4,31.1 647.4,42.4 654,42.4 654,43.7 646,43.7 646,31.1 "/>
<rect x="655.2" y="31.1" style="fill:#231F20;" width="1.4" height="12.7"/>
<polygon style="fill:#231F20;" points="660.5,31.1 660.5,36.6 661.8,36.6 667,31.1 668.8,31.1 663,37.2 669.5,43.7 667.6,43.7 
	661.8,37.8 660.5,37.8 660.5,43.7 659.1,43.7 659.1,31.1 "/>
<polygon style="fill:#231F20;" points="671.5,32.3 671.5,36.6 677.9,36.6 677.9,37.8 671.5,37.8 671.5,42.5 678.2,42.5 678.2,43.7 
	670,43.7 670,31.1 678.2,31.1 678.2,32.3 "/>
<path style="fill:#231F20;" d="M30.5,54.9h-1.4c0-1-0.2-1.7-0.5-1.9c-0.3-0.3-1.1-0.4-2.4-0.4c-1.5,0-2.5,0.1-2.9,0.4
	c-0.4,0.3-0.6,0.8-0.6,1.8c0,1,0.2,1.6,0.5,1.9c0.3,0.2,1.4,0.4,3,0.5c2,0.1,3.2,0.3,3.8,0.8c0.5,0.4,0.8,1.3,0.8,2.8
	c0,1.6-0.3,2.6-0.9,3c-0.6,0.5-2,0.7-4.1,0.7c-1.8,0-3-0.2-3.6-0.7c-0.6-0.5-0.9-1.4-0.9-2.8l0-0.6h1.4v0.3c0,1.1,0.2,1.8,0.5,2.1
	c0.3,0.3,1.2,0.4,2.7,0.4c1.6,0,2.6-0.1,3-0.4c0.4-0.3,0.6-1,0.6-2.2c0-0.8-0.1-1.3-0.4-1.5c-0.3-0.3-0.8-0.4-1.6-0.5l-1.5-0.1
	l-1.4-0.1c-2.1-0.1-3.2-1.3-3.2-3.3c0-1.4,0.3-2.4,0.9-2.9c0.6-0.5,1.9-0.7,3.7-0.7c1.9,0,3.1,0.2,3.7,0.7
	C30.2,52.5,30.5,53.5,30.5,54.9z"/>
<path style="fill:#231F20;" d="M32.4,64.2V51.5h5.3h0.5c1.4,0,2.4,0.3,2.9,0.8c0.5,0.6,0.8,1.6,0.8,3.1c0,1.4-0.3,2.4-0.8,3
	c-0.5,0.5-1.6,0.8-3,0.8l-0.6,0h-3.7v5H32.4L32.4,64.2z M33.8,58h3.4c1.4,0,2.3-0.1,2.7-0.4c0.4-0.3,0.6-1,0.6-2
	c0-1.2-0.1-2-0.4-2.3c-0.3-0.3-0.9-0.5-1.9-0.5l-0.5,0h-3.8V58z"/>
<polygon style="fill:#231F20;" points="45.1,51.5 45.1,62.8 51.6,62.8 51.6,64.2 43.6,64.2 43.6,51.5 "/>
<path style="fill:#231F20;" d="M60.6,61.5h-6.4l-1,2.7h-1.5l4.6-12.7h2l4.7,12.7h-1.5L60.6,61.5L60.6,61.5z M60.2,60.4l-2.8-7.7
	l-2.8,7.7H60.2z"/>
<path style="fill:#231F20;" d="M73.1,54.9h-1.4c0-1-0.2-1.7-0.5-1.9c-0.3-0.3-1.1-0.4-2.4-0.4c-1.5,0-2.5,0.1-2.9,0.4
	c-0.4,0.3-0.6,0.8-0.6,1.8c0,1,0.2,1.6,0.5,1.9c0.3,0.2,1.4,0.4,3,0.5c2,0.1,3.2,0.3,3.8,0.8c0.5,0.4,0.8,1.3,0.8,2.8
	c0,1.6-0.3,2.6-0.9,3c-0.6,0.5-2,0.7-4.1,0.7c-1.8,0-3-0.2-3.6-0.7c-0.6-0.5-0.9-1.4-0.9-2.8l0-0.6h1.4v0.3c0,1.1,0.2,1.8,0.5,2.1
	s1.2,0.4,2.7,0.4c1.6,0,2.6-0.1,3-0.4s0.6-1,0.6-2.2c0-0.8-0.1-1.3-0.4-1.5c-0.3-0.3-0.8-0.4-1.6-0.5l-1.5-0.1l-1.4-0.1
	c-2.1-0.1-3.2-1.3-3.2-3.3c0-1.4,0.3-2.4,0.9-2.9c0.6-0.5,1.9-0.7,3.7-0.7c1.9,0,3.1,0.2,3.7,0.7C72.8,52.5,73.1,53.5,73.1,54.9z"/>
<polygon style="fill:#231F20;" points="85.3,51.5 85.3,64.2 83.9,64.2 83.9,58.3 76.5,58.3 76.5,64.2 75,64.2 75,51.5 76.5,51.5 
	76.5,57.1 83.9,57.1 83.9,51.5 "/>
<rect x="87.7" y="51.5" style="fill:#231F20;" width="1.4" height="12.7"/>
<polygon style="fill:#231F20;" points="102.4,51.5 102.4,64.2 100,64.2 94.7,55.6 93.9,54.1 93.4,53.4 93,52.7 93,52.7 93,53.2 
	93,53.7 93,54.6 93,64.2 91.6,64.2 91.6,51.5 93.9,51.5 98.5,59.1 99.7,61 100.3,62 100.9,63 101,63 101,62.5 100.9,62.1 
	100.9,61.1 100.9,51.5 "/>
<path style="fill:#231F20;" d="M109.3,57.9h5.4c0,0.3,0,0.8,0,1.4c0,2.3-0.3,3.7-0.8,4.2c-0.6,0.5-2,0.8-4.4,0.8
	c-2.2,0-3.7-0.3-4.3-1c-0.6-0.6-1-2.1-1-4.3l0-1.9l0-1.1c0-1.9,0.4-3.1,1.1-3.7c0.7-0.6,2.1-0.9,4.3-0.9c2.2,0,3.5,0.2,4.2,0.6
	c0.6,0.4,0.9,1.3,0.9,2.7v0.5h-1.4v-0.3c0-1-0.2-1.7-0.6-1.9c-0.4-0.2-1.5-0.4-3.3-0.4c-1.6,0-2.7,0.2-3.1,0.6
	c-0.4,0.4-0.6,1.4-0.6,2.9l0,1.7l0,1.8c0,1.6,0.2,2.6,0.7,2.9c0.5,0.4,1.7,0.5,3.7,0.5c1.5,0,2.5-0.2,2.8-0.5
	c0.4-0.3,0.5-1.3,0.5-2.7c0-0.1,0-0.4-0.1-0.8h-4V57.9z"/>
<path style="fill:#231F20;" d="M138,51.5v12.7h-1.4V54v-0.8l0-0.4l0-0.4h0l-0.1,0.3c-0.1,0.1-0.1,0.2-0.1,0.3l-0.2,0.6l-4.3,10.5
	h-1.4L126,53.8l-0.3-0.6l-0.1-0.3c0-0.1-0.1-0.2-0.1-0.3h0l0,0.3l0,0.4V54v10.1h-1.4V51.5h2.5l3.4,8.2l0.5,1.3l0.3,0.7l0.3,0.7h0
	l0.3-0.7c0.1-0.3,0.2-0.5,0.3-0.7l0.5-1.3l3.4-8.2H138z"/>
<path style="fill:#231F20;" d="M145,51.4c2.4,0,3.9,0.3,4.5,1c0.6,0.7,0.9,2.4,0.9,5.2c0,3-0.3,4.9-0.9,5.6
	c-0.6,0.7-2.1,1.1-4.5,1.1c-2.4,0-3.9-0.3-4.5-1c-0.6-0.7-0.9-2.5-0.9-5.4v-0.9l0-1.2c0-1.7,0.4-2.8,1.1-3.4
	C141.5,51.7,142.9,51.4,145,51.4L145,51.4z M145,52.6c-2,0-3.2,0.2-3.5,0.7c-0.3,0.4-0.5,2-0.5,4.6c0,2.6,0.2,4.1,0.5,4.6
	c0.3,0.4,1.5,0.7,3.5,0.7c2,0,3.2-0.2,3.5-0.7c0.3-0.4,0.5-2,0.5-4.6V57l0-1.2c0-1.4-0.2-2.3-0.7-2.7
	C147.9,52.8,146.7,52.6,145,52.6z"/>
<path style="fill:#231F20;" d="M160.3,51.5h1.5l-4.5,12.7h-2l-4.5-12.7h1.5l3.4,9.6l0.3,1c0.1,0.4,0.2,0.7,0.3,1h0
	c0.2-0.6,0.4-1.3,0.6-1.9L160.3,51.5z"/>
<polygon style="fill:#231F20;" points="163.8,52.7 163.8,57 170.2,57 170.2,58.2 163.8,58.2 163.8,63 170.5,63 170.5,64.2 
	162.4,64.2 162.4,51.5 170.5,51.5 170.5,52.7 "/>
<path style="fill:#231F20;" d="M186.3,51.5v12.7h-1.4V54v-0.8l0-0.4l0-0.4h0l-0.1,0.3c-0.1,0.1-0.1,0.2-0.1,0.3l-0.2,0.6L180,64.2
	h-1.4l-4.3-10.4l-0.3-0.6l-0.1-0.3c0-0.1-0.1-0.2-0.1-0.3h0l0,0.3l0,0.4V54v10.1h-1.4V51.5h2.5l3.4,8.2l0.5,1.3l0.3,0.7l0.3,0.7h0
	l0.3-0.7c0.1-0.3,0.2-0.5,0.3-0.7l0.5-1.3l3.4-8.2H186.3z"/>
<polygon style="fill:#231F20;" points="189.6,52.7 189.6,57 196,57 196,58.2 189.6,58.2 189.6,63 196.3,63 196.3,64.2 188.1,64.2 
	188.1,51.5 196.3,51.5 196.3,52.7 "/>
<polygon style="fill:#231F20;" points="208.9,51.5 208.9,64.2 206.6,64.2 201.3,55.6 200.4,54.1 200,53.4 199.6,52.7 199.5,52.7 
	199.5,53.2 199.5,53.7 199.5,54.6 199.5,64.2 198.1,64.2 198.1,51.5 200.5,51.5 205.1,59.1 206.3,61 206.9,62 207.5,63 207.5,63 
	207.5,62.5 207.5,62.1 207.5,61.1 207.5,51.5 "/>
<polygon style="fill:#231F20;" points="215.8,52.8 215.8,64.2 214.3,64.2 214.3,52.8 210.2,52.8 210.2,51.5 219.9,51.5 219.9,52.8 
	"/>
<path style="fill:#231F20;" d="M229.8,54.9h-1.4c0-1-0.2-1.7-0.5-1.9c-0.3-0.3-1.1-0.4-2.4-0.4c-1.5,0-2.5,0.1-2.9,0.4
	c-0.4,0.3-0.6,0.8-0.6,1.8c0,1,0.2,1.6,0.5,1.9c0.3,0.2,1.4,0.4,3,0.5c2,0.1,3.2,0.3,3.8,0.8c0.5,0.4,0.8,1.3,0.8,2.8
	c0,1.6-0.3,2.6-0.9,3c-0.6,0.5-2,0.7-4.1,0.7c-1.8,0-3-0.2-3.6-0.7c-0.6-0.5-0.9-1.4-0.9-2.8l0-0.6h1.4v0.3c0,1.1,0.2,1.8,0.5,2.1
	s1.2,0.4,2.7,0.4c1.6,0,2.6-0.1,3-0.4s0.6-1,0.6-2.2c0-0.8-0.1-1.3-0.4-1.5c-0.3-0.3-0.8-0.4-1.6-0.5l-1.5-0.1l-1.4-0.1
	c-2.1-0.1-3.2-1.3-3.2-3.3c0-1.4,0.3-2.4,0.9-2.9c0.6-0.5,1.9-0.7,3.7-0.7c1.9,0,3.1,0.2,3.7,0.7C229.5,52.5,229.8,53.5,229.8,54.9z
	"/>
<rect x="231.7" y="62.5" style="fill:#231F20;" width="1.4" height="1.7"/>
<rect x="250.5" y="51.5" style="fill:#231F20;" width="1.4" height="12.7"/>
<polygon style="fill:#231F20;" points="265.2,51.5 265.2,64.2 262.9,64.2 257.6,55.6 256.7,54.1 256.3,53.4 255.8,52.7 255.8,52.7 
	255.8,53.2 255.8,53.7 255.8,54.6 255.8,64.2 254.4,64.2 254.4,51.5 256.7,51.5 261.4,59.1 262.6,61 263.2,62 263.8,63 263.8,63 
	263.8,62.5 263.8,62.1 263.8,61.1 263.8,51.5 "/>
<polygon style="fill:#231F20;" points="279.6,52.8 279.6,64.2 278.1,64.2 278.1,52.8 274,52.8 274,51.5 283.7,51.5 283.7,52.8 "/>
<polygon style="fill:#231F20;" points="295.2,51.5 295.2,64.2 293.8,64.2 293.8,58.3 286.4,58.3 286.4,64.2 284.9,64.2 284.9,51.5 
	286.4,51.5 286.4,57.1 293.8,57.1 293.8,51.5 "/>
<polygon style="fill:#231F20;" points="298.5,52.7 298.5,57 304.9,57 304.9,58.2 298.5,58.2 298.5,63 305.2,63 305.2,64.2 
	297.1,64.2 297.1,51.5 305.2,51.5 305.2,52.7 "/>
<path style="fill:#231F20;" d="M315.7,54.9h-1.4c0-1-0.2-1.7-0.5-1.9c-0.3-0.3-1.1-0.4-2.4-0.4c-1.5,0-2.5,0.1-2.9,0.4
	c-0.4,0.3-0.6,0.8-0.6,1.8c0,1,0.2,1.6,0.5,1.9c0.3,0.2,1.4,0.4,3,0.5c2,0.1,3.2,0.3,3.8,0.8c0.5,0.4,0.8,1.3,0.8,2.8
	c0,1.6-0.3,2.6-0.9,3c-0.6,0.5-2,0.7-4.1,0.7c-1.8,0-3-0.2-3.6-0.7c-0.6-0.5-0.9-1.4-0.9-2.8l0-0.6h1.4v0.3c0,1.1,0.2,1.8,0.5,2.1
	s1.2,0.4,2.7,0.4c1.6,0,2.6-0.1,3-0.4s0.6-1,0.6-2.2c0-0.8-0.1-1.3-0.4-1.5c-0.3-0.3-0.8-0.4-1.6-0.5l-1.5-0.1l-1.4-0.1
	c-2.1-0.1-3.2-1.3-3.2-3.3c0-1.4,0.3-2.4,0.9-2.9c0.6-0.5,1.9-0.7,3.7-0.7c1.9,0,3.1,0.2,3.7,0.7C315.5,52.5,315.7,53.5,315.7,54.9z
	"/>
<polygon style="fill:#231F20;" points="318.6,52.7 318.6,57 325,57 325,58.2 318.6,58.2 318.6,63 325.3,63 325.3,64.2 317.2,64.2 
	317.2,51.5 325.3,51.5 325.3,52.7 "/>
<path style="fill:#231F20;" d="M343.4,54.9h-1.4c0-1-0.2-1.7-0.5-1.9c-0.3-0.3-1.1-0.4-2.4-0.4c-1.5,0-2.5,0.1-2.9,0.4
	c-0.4,0.3-0.6,0.8-0.6,1.8c0,1,0.2,1.6,0.5,1.9c0.3,0.2,1.4,0.4,3,0.5c2,0.1,3.2,0.3,3.8,0.8c0.5,0.4,0.8,1.3,0.8,2.8
	c0,1.6-0.3,2.6-0.9,3c-0.6,0.5-2,0.7-4.1,0.7c-1.8,0-3-0.2-3.6-0.7c-0.6-0.5-0.9-1.4-0.9-2.8l0-0.6h1.4v0.3c0,1.1,0.2,1.8,0.5,2.1
	s1.2,0.4,2.7,0.4c1.6,0,2.6-0.1,3-0.4c0.4-0.3,0.6-1,0.6-2.2c0-0.8-0.1-1.3-0.4-1.5c-0.3-0.3-0.8-0.4-1.6-0.5l-1.5-0.1l-1.4-0.1
	c-2.1-0.1-3.2-1.3-3.2-3.3c0-1.4,0.3-2.4,0.9-2.9c0.6-0.5,1.9-0.7,3.7-0.7c1.9,0,3.1,0.2,3.7,0.7C343.1,52.5,343.4,53.5,343.4,54.9z
	"/>
<rect x="345.3" y="51.5" style="fill:#231F20;" width="1.4" height="12.7"/>
<polygon style="fill:#231F20;" points="353.6,52.8 353.6,64.2 352.2,64.2 352.2,52.8 348,52.8 348,51.5 357.7,51.5 357.7,52.8 "/>
<path style="fill:#231F20;" d="M367.6,51.5h1.4v8.9c0,1.6-0.3,2.7-1,3.2c-0.6,0.5-2,0.8-4.1,0.8c-1.9,0-3.3-0.2-3.9-0.7
	c-0.7-0.5-1-1.4-1-2.8v-0.4v-8.9h1.4v8.9c0,1.2,0.2,2,0.6,2.3c0.4,0.3,1.3,0.5,2.9,0.5c1.7,0,2.7-0.1,3.1-0.4s0.6-1.1,0.6-2.3V51.5z
	"/>
<path style="fill:#231F20;" d="M379.2,61.5h-6.4l-1,2.7h-1.5l4.6-12.7h2l4.7,12.7h-1.5L379.2,61.5L379.2,61.5z M378.8,60.4l-2.8-7.7
	l-2.8,7.7H378.8z"/>
<polygon style="fill:#231F20;" points="387.4,52.8 387.4,64.2 386,64.2 386,52.8 381.8,52.8 381.8,51.5 391.5,51.5 391.5,52.8 "/>
<rect x="392.7" y="51.5" style="fill:#231F20;" width="1.4" height="12.7"/>
<path style="fill:#231F20;" d="M401.2,51.4c2.4,0,3.9,0.3,4.5,1c0.6,0.7,0.9,2.4,0.9,5.2c0,3-0.3,4.9-0.9,5.6
	c-0.6,0.7-2.1,1.1-4.5,1.1c-2.4,0-3.9-0.3-4.5-1c-0.6-0.7-0.9-2.5-0.9-5.4v-0.9l0-1.2c0-1.7,0.4-2.8,1.1-3.4
	C397.8,51.7,399.2,51.4,401.2,51.4L401.2,51.4z M401.2,52.6c-2,0-3.2,0.2-3.5,0.7c-0.3,0.4-0.5,2-0.5,4.6c0,2.6,0.2,4.1,0.5,4.6
	c0.3,0.4,1.5,0.7,3.5,0.7c2,0,3.2-0.2,3.5-0.7c0.3-0.4,0.5-2,0.5-4.6V57l0-1.2c0-1.4-0.2-2.3-0.7-2.7
	C404.1,52.8,403,52.6,401.2,52.6z"/>
<polygon style="fill:#231F20;" points="419.1,51.5 419.1,64.2 416.7,64.2 411.4,55.6 410.6,54.1 410.1,53.4 409.7,52.7 409.7,52.7 
	409.7,53.2 409.7,53.7 409.7,54.6 409.7,64.2 408.3,64.2 408.3,51.5 410.6,51.5 415.2,59.1 416.4,61 417,62 417.6,63 417.7,63 
	417.7,62.5 417.7,62.1 417.7,61.1 417.7,51.5 "/>
<path style="fill:#231F20;" d="M430.2,54.9h-1.4c0-1-0.2-1.7-0.5-1.9c-0.3-0.3-1.1-0.4-2.4-0.4c-1.5,0-2.5,0.1-2.9,0.4
	c-0.4,0.3-0.6,0.8-0.6,1.8c0,1,0.2,1.6,0.5,1.9c0.3,0.2,1.4,0.4,3,0.5c2,0.1,3.2,0.3,3.8,0.8c0.5,0.4,0.8,1.3,0.8,2.8
	c0,1.6-0.3,2.6-0.9,3c-0.6,0.5-2,0.7-4.1,0.7c-1.8,0-3-0.2-3.6-0.7c-0.6-0.5-0.9-1.4-0.9-2.8l0-0.6h1.4v0.3c0,1.1,0.2,1.8,0.5,2.1
	c0.3,0.3,1.2,0.4,2.7,0.4c1.6,0,2.6-0.1,3-0.4s0.6-1,0.6-2.2c0-0.8-0.1-1.3-0.4-1.5c-0.3-0.3-0.8-0.4-1.6-0.5l-1.5-0.1l-1.4-0.1
	c-2.1-0.1-3.2-1.3-3.2-3.3c0-1.4,0.3-2.4,0.9-2.9c0.6-0.5,1.9-0.7,3.7-0.7c1.9,0,3.1,0.2,3.7,0.7C429.9,52.5,430.2,53.5,430.2,54.9z
	"/>
<path style="fill:#231F20;" d="M433.5,62.5v1.8c0,1.2-0.4,1.7-1.3,1.7c-0.1,0-0.2,0-0.4,0v-0.7c0.5,0,0.8-0.3,0.8-0.8l0-0.3h-0.6
	v-1.7H433.5z"/>
<path style="fill:#231F20;" d="M451.7,59.9h1.4v0.5c0,1.7-0.3,2.8-0.9,3.2c-0.6,0.4-2.1,0.6-4.4,0.6c-2.1,0-3.5-0.4-4-1.1
	c-0.6-0.8-0.9-2.5-0.9-5.3c0-2.2,0.1-3.6,0.2-4.1c0.1-0.6,0.5-1.1,1.1-1.5c0.7-0.5,2.3-0.8,4.6-0.8c1.6,0,2.7,0.3,3.3,0.8
	c0.6,0.5,0.8,1.5,0.8,2.9l0,0.3h-1.4l0-0.4c0-1-0.2-1.7-0.5-2c-0.3-0.3-1.1-0.4-2.2-0.4c-2,0-3.3,0.2-3.7,0.5
	c-0.5,0.3-0.7,1.3-0.7,2.8c0,3.6,0.2,5.6,0.5,6.3c0.3,0.6,1.3,0.9,3.1,0.9c1.7,0,2.7-0.1,3.1-0.4c0.4-0.3,0.6-0.9,0.6-2L451.7,59.9z
	"/>
<path style="fill:#231F20;" d="M459.4,51.4c2.4,0,3.9,0.3,4.5,1c0.6,0.7,0.9,2.4,0.9,5.2c0,3-0.3,4.9-0.9,5.6
	c-0.6,0.7-2.1,1.1-4.5,1.1c-2.4,0-3.9-0.3-4.5-1c-0.6-0.7-0.9-2.5-0.9-5.4v-0.9l0-1.2c0-1.7,0.4-2.8,1.1-3.4
	C455.9,51.7,457.3,51.4,459.4,51.4L459.4,51.4z M459.4,52.6c-2,0-3.2,0.2-3.5,0.7c-0.3,0.4-0.5,2-0.5,4.6c0,2.6,0.2,4.1,0.5,4.6
	c0.3,0.4,1.5,0.7,3.5,0.7c2,0,3.2-0.2,3.5-0.7c0.3-0.4,0.5-2,0.5-4.6V57l0-1.2c0-1.4-0.2-2.3-0.7-2.7
	C462.2,52.8,461.1,52.6,459.4,52.6z"/>
<path style="fill:#231F20;" d="M466.4,64.2V51.5h5.9c1.8,0,3,0.4,3.7,1.2c0.6,0.8,1,2.3,1,4.6c0,2.7-0.3,4.6-0.9,5.5
	c-0.6,0.9-1.7,1.4-3.4,1.4H466.4L466.4,64.2z M467.8,63h4.1c1.5,0,2.5-0.3,2.9-0.9c0.4-0.6,0.7-2,0.7-4.1c0-2.3-0.2-3.8-0.6-4.4
	c-0.4-0.6-1.3-0.9-2.7-0.9h-4.4V63z"/>
<polygon style="fill:#231F20;" points="487.8,52.7 487.8,57.1 494,57.1 494,58.3 487.8,58.3 487.8,64.2 486.4,64.2 486.4,51.5 
	494.1,51.5 494.1,52.7 "/>
<rect x="495.6" y="51.5" style="fill:#231F20;" width="1.4" height="12.7"/>
<polygon style="fill:#231F20;" points="510.3,51.5 510.3,64.2 508,64.2 502.7,55.6 501.8,54.1 501.4,53.4 501,52.7 500.9,52.7 
	500.9,53.2 500.9,53.7 500.9,54.6 500.9,64.2 499.5,64.2 499.5,51.5 501.8,51.5 506.5,59.1 507.7,61 508.3,62 508.9,63 508.9,63 
	508.9,62.5 508.9,62.1 508.9,61.1 508.9,51.5 "/>
<path style="fill:#231F20;" d="M512.7,64.2V51.5h5.9c1.8,0,3,0.4,3.7,1.2c0.6,0.8,1,2.3,1,4.6c0,2.7-0.3,4.6-0.9,5.5
	c-0.6,0.9-1.7,1.4-3.4,1.4H512.7L512.7,64.2z M514.2,63h4.1c1.5,0,2.5-0.3,2.9-0.9c0.4-0.6,0.7-2,0.7-4.1c0-2.3-0.2-3.8-0.6-4.4
	c-0.4-0.6-1.3-0.9-2.7-0.9h-4.4V63z"/>
<polygon style="fill:#231F20;" points="537.1,52.8 537.1,64.2 535.7,64.2 535.7,52.8 531.5,52.8 531.5,51.5 541.2,51.5 541.2,52.8 
	"/>
<polygon style="fill:#231F20;" points="552.7,51.5 552.7,64.2 551.3,64.2 551.3,58.3 543.9,58.3 543.9,64.2 542.5,64.2 542.5,51.5 
	543.9,51.5 543.9,57.1 551.3,57.1 551.3,51.5 "/>
<polygon style="fill:#231F20;" points="556,52.7 556,57 562.5,57 562.5,58.2 556,58.2 556,63 562.8,63 562.8,64.2 554.6,64.2 
	554.6,51.5 562.8,51.5 562.8,52.7 "/>
<path style="fill:#231F20;" d="M580.4,59.9h1.4v0.5c0,1.7-0.3,2.8-0.9,3.2c-0.6,0.4-2.1,0.6-4.4,0.6c-2.1,0-3.5-0.4-4-1.1
	c-0.6-0.8-0.9-2.5-0.9-5.3c0-2.2,0.1-3.6,0.2-4.1s0.5-1.1,1.1-1.5c0.7-0.5,2.3-0.8,4.6-0.8c1.6,0,2.7,0.3,3.3,0.8
	c0.6,0.5,0.8,1.5,0.8,2.9l0,0.3h-1.4l0-0.4c0-1-0.2-1.7-0.5-2c-0.3-0.3-1.1-0.4-2.2-0.4c-2,0-3.3,0.2-3.7,0.5
	c-0.5,0.3-0.7,1.3-0.7,2.8c0,3.6,0.2,5.6,0.5,6.3c0.3,0.6,1.3,0.9,3.1,0.9c1.7,0,2.7-0.1,3.1-0.4c0.4-0.3,0.6-0.9,0.6-2L580.4,59.9z
	"/>
<path style="fill:#231F20;" d="M588.1,51.4c2.4,0,3.9,0.3,4.5,1c0.6,0.7,0.9,2.4,0.9,5.2c0,3-0.3,4.9-0.9,5.6
	c-0.6,0.7-2.1,1.1-4.5,1.1c-2.4,0-3.9-0.3-4.5-1c-0.6-0.7-0.9-2.5-0.9-5.4v-0.9l0-1.2c0-1.7,0.4-2.8,1.1-3.4
	C584.6,51.7,586,51.4,588.1,51.4L588.1,51.4z M588.1,52.6c-2,0-3.2,0.2-3.5,0.7c-0.3,0.4-0.5,2-0.5,4.6c0,2.6,0.2,4.1,0.5,4.6
	c0.3,0.4,1.5,0.7,3.5,0.7c2,0,3.2-0.2,3.5-0.7c0.3-0.4,0.5-2,0.5-4.6V57l0-1.2c0-1.4-0.2-2.3-0.7-2.7
	C590.9,52.8,589.8,52.6,588.1,52.6z"/>
<path style="fill:#231F20;" d="M595.1,64.2V51.5h5.9c1.8,0,3,0.4,3.7,1.2c0.6,0.8,1,2.3,1,4.6c0,2.7-0.3,4.6-0.9,5.5
	c-0.6,0.9-1.7,1.4-3.4,1.4H595.1L595.1,64.2z M596.5,63h4.1c1.5,0,2.5-0.3,2.9-0.9c0.4-0.6,0.7-2,0.7-4.1c0-2.3-0.2-3.8-0.6-4.4
	c-0.4-0.6-1.3-0.9-2.7-0.9h-4.4V63z"/>
<path style="fill:#231F20;" d="M625.2,51.5l-4,12.7h-2.2l-2.7-9.1l-0.3-1.1c0-0.1-0.1-0.3-0.2-0.6l-0.2-0.6h0l-0.2,0.6l-0.2,0.6
	l-0.3,1.1l-2.7,9.1h-2.1l-3.9-12.7h1.5l2.7,9.1l0.4,1.2c0,0.1,0.1,0.3,0.2,0.6l0.2,0.6h0l0.2-0.6l0.2-0.6l0.4-1.2l2.7-9.1h2.1
	l2.7,9.1l0.4,1.2l0.2,0.6l0.2,0.6h0l0.2-0.6l0.2-0.6l0.4-1.2l2.8-9.1H625.2z"/>
<path style="fill:#231F20;" d="M634.3,61.5h-6.4l-1,2.7h-1.5l4.6-12.7h2l4.7,12.7h-1.5L634.3,61.5L634.3,61.5z M633.9,60.4l-2.8-7.7
	l-2.8,7.7H633.9z"/>
<polygon style="fill:#231F20;" points="639.5,51.5 639.5,62.8 646,62.8 646,64.2 638,64.2 638,51.5 "/>
<polygon style="fill:#231F20;" points="648.7,51.5 648.7,57 649.9,57 655.1,51.5 657,51.5 651.2,57.6 657.7,64.2 655.7,64.2 
	649.9,58.2 648.7,58.2 648.7,64.2 647.3,64.2 647.3,51.5 "/>
<polygon style="fill:#231F20;" points="659.6,52.7 659.6,57 666.1,57 666.1,58.2 659.6,58.2 659.6,63 666.3,63 666.3,64.2 
	658.2,64.2 658.2,51.5 666.3,51.5 666.3,52.7 "/>
<path style="fill:#231F20;" d="M668.2,64.2V51.5h6c1.4,0,2.3,0.3,2.9,0.8c0.6,0.5,0.8,1.5,0.8,2.8c0,1.2-0.2,2-0.5,2.4
	c-0.3,0.5-0.9,0.8-1.7,0.9v0c1.3,0.1,2,0.9,2,2.5v3.2h-1.4v-2.9c0-1.5-0.6-2.2-1.9-2.2h-0.5h-4.3v5.1H668.2L668.2,64.2z M669.6,57.8
	h4.1c1.1,0,1.8-0.2,2.2-0.5c0.4-0.3,0.6-1,0.6-1.9c0-1.1-0.1-1.9-0.4-2.2c-0.3-0.3-0.9-0.5-1.9-0.5h-4.6V57.8z"/>
<path style="fill:#231F20;" d="M29.6,81.9h-6.4l-1,2.7h-1.5l4.6-12.7h2L32,84.6h-1.5L29.6,81.9L29.6,81.9z M29.2,80.8l-2.8-7.7
	l-2.8,7.7H29.2z"/>
<polygon style="fill:#231F20;" points="34.8,71.9 34.8,83.3 41.3,83.3 41.3,84.6 33.3,84.6 33.3,71.9 "/>
<path style="fill:#231F20;" d="M56.5,71.9v12.7H55V74.5v-0.8l0-0.4l0-0.4h0l-0.1,0.3c-0.1,0.1-0.1,0.2-0.1,0.3l-0.2,0.6l-4.3,10.5
	h-1.4l-4.3-10.4l-0.3-0.6l-0.1-0.3c0-0.1-0.1-0.2-0.1-0.3h0l0,0.3l0,0.4v0.7v10.1h-1.4V71.9H45l3.4,8.2l0.5,1.3l0.3,0.7l0.3,0.7h0
	l0.3-0.7c0.1-0.3,0.2-0.5,0.3-0.7l0.5-1.3l3.4-8.2H56.5z"/>
<path style="fill:#231F20;" d="M63.5,71.8c2.4,0,3.9,0.3,4.5,1c0.6,0.7,0.9,2.4,0.9,5.2c0,3-0.3,4.9-0.9,5.6
	c-0.6,0.7-2.1,1.1-4.5,1.1c-2.4,0-3.9-0.3-4.5-1c-0.6-0.7-0.9-2.5-0.9-5.4v-0.9l0-1.2c0-1.7,0.4-2.8,1.1-3.4
	C60,72.1,61.4,71.8,63.5,71.8L63.5,71.8z M63.5,73c-2,0-3.2,0.2-3.5,0.7c-0.3,0.4-0.5,2-0.5,4.6c0,2.6,0.2,4.1,0.5,4.6
	c0.3,0.4,1.5,0.7,3.5,0.7c2,0,3.2-0.2,3.5-0.7c0.3-0.4,0.5-2,0.5-4.6v-0.8l0-1.2c0-1.4-0.2-2.3-0.7-2.7C66.3,73.2,65.2,73,63.5,73z"
	/>
<path style="fill:#231F20;" d="M79.2,75.4h-1.4c0-1-0.2-1.7-0.5-1.9c-0.3-0.3-1.1-0.4-2.4-0.4c-1.5,0-2.5,0.1-2.9,0.4
	c-0.4,0.3-0.6,0.8-0.6,1.8c0,1,0.2,1.6,0.5,1.9c0.3,0.2,1.4,0.4,3,0.5c2,0.1,3.2,0.3,3.8,0.8c0.5,0.4,0.8,1.3,0.8,2.8
	c0,1.6-0.3,2.6-0.9,3c-0.6,0.5-2,0.7-4.1,0.7c-1.8,0-3-0.2-3.6-0.7c-0.6-0.5-0.9-1.4-0.9-2.8l0-0.6h1.4V81c0,1.1,0.2,1.8,0.5,2.1
	c0.3,0.3,1.2,0.4,2.7,0.4c1.6,0,2.6-0.1,3-0.4c0.4-0.3,0.6-1,0.6-2.2c0-0.8-0.1-1.3-0.4-1.5c-0.3-0.3-0.8-0.4-1.6-0.5l-1.5-0.1
	l-1.4-0.1C71,78.6,70,77.5,70,75.4c0-1.4,0.3-2.4,0.9-2.9c0.6-0.5,1.9-0.7,3.7-0.7c1.9,0,3.1,0.2,3.7,0.7
	C78.9,72.9,79.2,73.9,79.2,75.4z"/>
<polygon style="fill:#231F20;" points="85.6,73.3 85.6,84.6 84.1,84.6 84.1,73.3 80,73.3 80,71.9 89.6,71.9 89.6,73.3 "/>
<rect x="95.8" y="71.9" style="fill:#231F20;" width="1.4" height="12.7"/>
<path style="fill:#231F20;" d="M99.7,84.6V71.9h6c1.4,0,2.3,0.3,2.9,0.8c0.6,0.5,0.8,1.5,0.8,2.8c0,1.2-0.2,2-0.5,2.4
	c-0.3,0.5-0.9,0.8-1.7,0.9v0c1.3,0.1,2,0.9,2,2.5v3.2h-1.4v-2.9c0-1.5-0.6-2.2-1.9-2.2h-0.5h-4.3v5.1H99.7L99.7,84.6z M101.1,78.3
	h4.1c1.1,0,1.8-0.2,2.2-0.5c0.4-0.3,0.6-1,0.6-1.9c0-1.1-0.1-1.9-0.4-2.2c-0.3-0.3-0.9-0.5-1.9-0.5h-4.6V78.3z"/>
<path style="fill:#231F20;" d="M111.5,84.6V71.9h6c1.4,0,2.3,0.3,2.9,0.8c0.6,0.5,0.8,1.5,0.8,2.8c0,1.2-0.2,2-0.5,2.4
	c-0.3,0.5-0.9,0.8-1.7,0.9v0c1.3,0.1,2,0.9,2,2.5v3.2h-1.4v-2.9c0-1.5-0.6-2.2-1.9-2.2h-0.5h-4.3v5.1H111.5L111.5,84.6z M112.9,78.3
	h4.1c1.1,0,1.8-0.2,2.2-0.5c0.4-0.3,0.6-1,0.6-1.9c0-1.1-0.1-1.9-0.4-2.2c-0.3-0.3-0.9-0.5-1.9-0.5h-4.6V78.3z"/>
<polygon style="fill:#231F20;" points="124.3,73.1 124.3,77.5 130.7,77.5 130.7,78.7 124.3,78.7 124.3,83.4 131,83.4 131,84.6 
	122.8,84.6 122.8,71.9 131,71.9 131,73.1 "/>
<path style="fill:#231F20;" d="M141.5,75.4h-1.4c0-1-0.2-1.7-0.5-1.9c-0.3-0.3-1.1-0.4-2.4-0.4c-1.5,0-2.5,0.1-2.9,0.4
	c-0.4,0.3-0.6,0.8-0.6,1.8c0,1,0.2,1.6,0.5,1.9c0.3,0.2,1.4,0.4,3,0.5c2,0.1,3.2,0.3,3.8,0.8c0.5,0.4,0.8,1.3,0.8,2.8
	c0,1.6-0.3,2.6-0.9,3c-0.6,0.5-2,0.7-4.1,0.7c-1.8,0-3-0.2-3.6-0.7c-0.6-0.5-0.9-1.4-0.9-2.8l0-0.6h1.4V81c0,1.1,0.2,1.8,0.5,2.1
	c0.3,0.3,1.2,0.4,2.7,0.4c1.6,0,2.6-0.1,3-0.4c0.4-0.3,0.6-1,0.6-2.2c0-0.8-0.1-1.3-0.4-1.5c-0.3-0.3-0.8-0.4-1.6-0.5l-1.5-0.1
	l-1.4-0.1c-2.1-0.1-3.2-1.3-3.2-3.3c0-1.4,0.3-2.4,0.9-2.9c0.6-0.5,1.9-0.7,3.7-0.7c1.9,0,3.1,0.2,3.7,0.7
	C141.2,72.9,141.5,73.9,141.5,75.4z"/>
<rect x="143.4" y="71.9" style="fill:#231F20;" width="1.4" height="12.7"/>
<path style="fill:#231F20;" d="M156,75.4h-1.4c0-1-0.2-1.7-0.5-1.9c-0.3-0.3-1.1-0.4-2.4-0.4c-1.5,0-2.5,0.1-2.9,0.4
	c-0.4,0.3-0.6,0.8-0.6,1.8c0,1,0.2,1.6,0.5,1.9c0.3,0.2,1.4,0.4,3,0.5c2,0.1,3.2,0.3,3.8,0.8c0.5,0.4,0.8,1.3,0.8,2.8
	c0,1.6-0.3,2.6-0.9,3c-0.6,0.5-2,0.7-4.1,0.7c-1.8,0-3-0.2-3.6-0.7c-0.6-0.5-0.9-1.4-0.9-2.8l0-0.6h1.4V81c0,1.1,0.2,1.8,0.5,2.1
	c0.3,0.3,1.2,0.4,2.7,0.4c1.6,0,2.6-0.1,3-0.4c0.4-0.3,0.6-1,0.6-2.2c0-0.8-0.1-1.3-0.4-1.5c-0.3-0.3-0.8-0.4-1.6-0.5l-1.5-0.1
	l-1.4-0.1c-2.1-0.1-3.2-1.3-3.2-3.3c0-1.4,0.3-2.4,0.9-2.9c0.6-0.5,1.9-0.7,3.7-0.7c1.9,0,3.1,0.2,3.7,0.7
	C155.7,72.9,156,73.9,156,75.4z"/>
<polygon style="fill:#231F20;" points="162.4,73.3 162.4,84.6 160.9,84.6 160.9,73.3 156.8,73.3 156.8,71.9 166.5,71.9 166.5,73.3 
	"/>
<rect x="167.7" y="71.9" style="fill:#231F20;" width="1.4" height="12.7"/>
<path style="fill:#231F20;" d="M171.6,84.6V71.9h5.6c1.6,0,2.6,0.2,3,0.6c0.5,0.4,0.7,1.3,0.7,2.7c0,1.4-0.5,2.3-1.6,2.7v0
	c1.3,0.3,2,1.3,2,3c0,1.3-0.3,2.3-0.8,2.8c-0.5,0.5-1.4,0.8-2.8,0.8H171.6L171.6,84.6z M173,77.5h3.8c1.2,0,2-0.1,2.3-0.4
	c0.3-0.3,0.5-0.9,0.5-1.9c0-0.9-0.1-1.4-0.4-1.7c-0.3-0.3-1-0.4-2-0.4H173V77.5L173,77.5z M173,83.4h3l1.3,0c1.1,0,1.8-0.1,2.1-0.4
	c0.3-0.3,0.5-0.9,0.5-1.8c0-1.1-0.2-1.8-0.5-2.1c-0.3-0.3-1.3-0.4-2.8-0.4H173V83.4z"/>
<polygon style="fill:#231F20;" points="184.8,71.9 184.8,83.3 191.3,83.3 191.3,84.6 183.3,84.6 183.3,71.9 "/>
<polygon style="fill:#231F20;" points="193.5,73.1 193.5,77.5 199.9,77.5 199.9,78.7 193.5,78.7 193.5,83.4 200.2,83.4 200.2,84.6 
	192,84.6 192,71.9 200.2,71.9 200.2,73.1 "/>
<rect x="201.9" y="82.9" style="fill:#231F20;" width="1.4" height="1.7"/>
<path style="fill:#231F20;" d="M223.3,81.9h-6.4l-1,2.7h-1.5l4.6-12.7h2l4.7,12.7h-1.5L223.3,81.9L223.3,81.9z M222.9,80.8l-2.8-7.7
	l-2.8,7.7H222.9z"/>
<path style="fill:#231F20;" d="M235.3,71.9h1.5l-4.5,12.7h-2l-4.5-12.7h1.5l3.4,9.6l0.3,1c0.1,0.4,0.2,0.7,0.3,1h0
	c0.2-0.6,0.4-1.3,0.6-1.9L235.3,71.9z"/>
<path style="fill:#231F20;" d="M245.7,81.9h-6.4l-1,2.7h-1.5l4.6-12.7h2l4.7,12.7h-1.5L245.7,81.9L245.7,81.9z M245.3,80.8l-2.8-7.7
	l-2.8,7.7H245.3z"/>
<rect x="249.5" y="71.9" style="fill:#231F20;" width="1.4" height="12.7"/>
<polygon style="fill:#231F20;" points="254.8,71.9 254.8,83.3 261.3,83.3 261.3,84.6 253.3,84.6 253.3,71.9 "/>
<path style="fill:#231F20;" d="M270.3,81.9h-6.4l-1,2.7h-1.5l4.6-12.7h2l4.7,12.7h-1.5L270.3,81.9L270.3,81.9z M269.9,80.8l-2.8-7.7
	l-2.8,7.7H269.9z"/>
<path style="fill:#231F20;" d="M274.1,84.6V71.9h5.6c1.6,0,2.6,0.2,3,0.6c0.5,0.4,0.7,1.3,0.7,2.7c0,1.4-0.5,2.3-1.6,2.7v0
	c1.3,0.3,2,1.3,2,3c0,1.3-0.3,2.3-0.8,2.8c-0.5,0.5-1.4,0.8-2.8,0.8H274.1L274.1,84.6z M275.5,77.5h3.8c1.2,0,2-0.1,2.3-0.4
	c0.3-0.3,0.5-0.9,0.5-1.9c0-0.9-0.1-1.4-0.4-1.7c-0.3-0.3-1-0.4-2-0.4h-4.1V77.5L275.5,77.5z M275.5,83.4h3l1.3,0
	c1.1,0,1.8-0.1,2.1-0.4c0.3-0.3,0.5-0.9,0.5-1.8c0-1.1-0.2-1.8-0.5-2.1c-0.3-0.3-1.3-0.4-2.8-0.4h-3.7V83.4z"/>
<polygon style="fill:#231F20;" points="287.3,71.9 287.3,83.3 293.8,83.3 293.8,84.6 285.8,84.6 285.8,71.9 "/>
<polygon style="fill:#231F20;" points="296,73.1 296,77.5 302.4,77.5 302.4,78.7 296,78.7 296,83.4 302.7,83.4 302.7,84.6 
	294.5,84.6 294.5,71.9 302.7,71.9 302.7,73.1 "/>
<rect x="309.4" y="71.9" style="fill:#231F20;" width="1.4" height="12.7"/>
<polygon style="fill:#231F20;" points="324.1,71.9 324.1,84.6 321.7,84.6 316.4,76 315.6,74.6 315.1,73.9 314.7,73.2 314.7,73.2 
	314.7,73.6 314.7,74.1 314.7,75.1 314.7,84.6 313.3,84.6 313.3,71.9 315.6,71.9 320.2,79.5 321.4,81.5 322.1,82.5 322.6,83.4 
	322.7,83.4 322.7,83 322.7,82.5 322.7,81.5 322.7,71.9 "/>
<path style="fill:#231F20;" d="M334.8,78.7v-1.2l0.5,0c1.7,0,2.8-0.1,3.1-0.3c0.4-0.2,0.6-0.8,0.6-1.8c0-1.1-0.2-1.8-0.5-2
	c-0.3-0.2-1.2-0.4-2.7-0.4c-1.4,0-2.2,0.1-2.6,0.4c-0.3,0.2-0.5,0.9-0.5,1.9v0.5h-1.4l0-0.5c0-1.4,0.3-2.4,0.8-2.8
	c0.6-0.4,1.7-0.7,3.6-0.7c1.9,0,3.1,0.2,3.7,0.6c0.6,0.4,0.9,1.3,0.9,2.6c0,1.1-0.1,1.9-0.4,2.3c-0.3,0.4-0.9,0.7-1.7,0.8v0.1
	c1,0.1,1.6,0.4,1.9,0.8s0.5,1.1,0.5,2.2c0,1.5-0.3,2.4-0.9,2.9c-0.6,0.5-1.8,0.7-3.7,0.7c-2,0-3.3-0.2-3.9-0.7
	c-0.6-0.4-0.9-1.4-0.9-2.8v-0.8h1.4v0.7c0,1.1,0.2,1.7,0.5,2c0.4,0.2,1.4,0.3,3.1,0.3c1.3,0,2.2-0.1,2.5-0.4s0.5-1,0.5-2.1
	c0-0.9-0.2-1.5-0.5-1.8c-0.3-0.3-1.1-0.4-2.2-0.4h-1.2H334.8z"/>
<path style="fill:#231F20;" d="M356.6,75.4h-1.4c0-1-0.2-1.7-0.5-1.9c-0.3-0.3-1.1-0.4-2.4-0.4c-1.5,0-2.5,0.1-2.9,0.4
	c-0.4,0.3-0.6,0.8-0.6,1.8c0,1,0.2,1.6,0.5,1.9c0.3,0.2,1.4,0.4,3,0.5c2,0.1,3.2,0.3,3.8,0.8c0.5,0.4,0.8,1.3,0.8,2.8
	c0,1.6-0.3,2.6-0.9,3c-0.6,0.5-2,0.7-4.1,0.7c-1.8,0-3-0.2-3.6-0.7c-0.6-0.5-0.9-1.4-0.9-2.8l0-0.6h1.4V81c0,1.1,0.2,1.8,0.5,2.1
	c0.3,0.3,1.2,0.4,2.7,0.4c1.6,0,2.6-0.1,3-0.4c0.4-0.3,0.6-1,0.6-2.2c0-0.8-0.1-1.3-0.4-1.5c-0.3-0.3-0.8-0.4-1.6-0.5l-1.5-0.1
	l-1.4-0.1c-2.1-0.1-3.2-1.3-3.2-3.3c0-1.4,0.3-2.4,0.9-2.9c0.6-0.5,1.9-0.7,3.7-0.7c1.9,0,3.1,0.2,3.7,0.7
	C356.3,72.9,356.6,73.9,356.6,75.4z"/>
<rect x="358.6" y="71.9" style="fill:#231F20;" width="1.4" height="12.7"/>
<polygon style="fill:#231F20;" points="371.4,71.9 371.4,73.1 363.4,83.4 363.4,83.4 371.6,83.4 371.6,84.6 361.7,84.6 361.7,83.4 
	369.6,73.2 369.6,73.1 361.9,73.1 361.9,71.9 "/>
<polygon style="fill:#231F20;" points="374.1,73.1 374.1,77.5 380.6,77.5 380.6,78.7 374.1,78.7 374.1,83.4 380.8,83.4 380.8,84.6 
	372.7,84.6 372.7,71.9 380.8,71.9 380.8,73.1 "/>
<path style="fill:#231F20;" d="M391.4,75.4h-1.4c0-1-0.2-1.7-0.5-1.9c-0.3-0.3-1.1-0.4-2.4-0.4c-1.5,0-2.5,0.1-2.9,0.4
	c-0.4,0.3-0.6,0.8-0.6,1.8c0,1,0.2,1.6,0.5,1.9c0.3,0.2,1.4,0.4,3,0.5c2,0.1,3.2,0.3,3.8,0.8c0.5,0.4,0.8,1.3,0.8,2.8
	c0,1.6-0.3,2.6-0.9,3c-0.6,0.5-2,0.7-4.1,0.7c-1.8,0-3-0.2-3.6-0.7c-0.6-0.5-0.9-1.4-0.9-2.8l0-0.6h1.4V81c0,1.1,0.2,1.8,0.5,2.1
	c0.3,0.3,1.2,0.4,2.7,0.4c1.6,0,2.6-0.1,3-0.4c0.4-0.3,0.6-1,0.6-2.2c0-0.8-0.1-1.3-0.4-1.5c-0.3-0.3-0.8-0.4-1.6-0.5l-1.5-0.1
	l-1.4-0.1c-2.1-0.1-3.2-1.3-3.2-3.3c0-1.4,0.3-2.4,0.9-2.9c0.6-0.5,1.9-0.7,3.7-0.7c1.9,0,3.1,0.2,3.7,0.7
	C391.1,72.9,391.4,73.9,391.4,75.4z"/>
<path style="fill:#231F20;" d="M394.7,82.9v1.8c0,1.2-0.4,1.7-1.3,1.7c-0.1,0-0.2,0-0.4,0v-0.7c0.5,0,0.8-0.3,0.8-0.8l0-0.3h-0.6
	v-1.7H394.7z"/>
<polygon style="fill:#231F20;" points="403.4,73.1 403.4,77.6 409.6,77.6 409.6,78.8 403.4,78.8 403.4,84.6 402,84.6 402,71.9 
	409.7,71.9 409.7,73.1 "/>
<rect x="411.2" y="71.9" style="fill:#231F20;" width="1.4" height="12.7"/>
<polygon style="fill:#231F20;" points="419.5,73.3 419.5,84.6 418.1,84.6 418.1,73.3 414,73.3 414,71.9 423.6,71.9 423.6,73.3 "/>
<polygon style="fill:#231F20;" points="429.3,73.3 429.3,84.6 427.9,84.6 427.9,73.3 423.8,73.3 423.8,71.9 433.4,71.9 433.4,73.3 
	"/>
<polygon style="fill:#231F20;" points="435.6,73.1 435.6,77.5 442,77.5 442,78.7 435.6,78.7 435.6,83.4 442.3,83.4 442.3,84.6 
	434.2,84.6 434.2,71.9 442.3,71.9 442.3,73.1 "/>
<path style="fill:#231F20;" d="M444.1,84.6V71.9h5.9c1.8,0,3,0.4,3.7,1.2c0.6,0.8,1,2.3,1,4.6c0,2.7-0.3,4.6-0.9,5.5
	c-0.6,0.9-1.7,1.4-3.4,1.4H444.1L444.1,84.6z M445.6,83.4h4.1c1.5,0,2.5-0.3,2.9-0.9c0.4-0.6,0.7-2,0.7-4.1c0-2.3-0.2-3.8-0.6-4.4
	c-0.4-0.6-1.3-0.9-2.7-0.9h-4.4V83.4z"/>
<path style="fill:#231F20;" d="M479.2,71.9l-4,12.7H473l-2.7-9.1l-0.3-1.1c0-0.1-0.1-0.3-0.2-0.6l-0.2-0.6h0l-0.2,0.6l-0.2,0.6
	l-0.3,1.1l-2.7,9.1h-2.1l-3.9-12.7h1.5l2.7,9.1l0.4,1.2c0,0.1,0.1,0.3,0.2,0.6l0.2,0.6h0l0.2-0.6l0.2-0.6l0.4-1.2l2.7-9.1h2.1
	l2.7,9.1l0.4,1.2l0.2,0.6l0.2,0.6h0l0.2-0.6l0.2-0.6l0.4-1.2l2.8-9.1H479.2z"/>
<rect x="480.4" y="71.9" style="fill:#231F20;" width="1.4" height="12.7"/>
<polygon style="fill:#231F20;" points="488.7,73.3 488.7,84.6 487.3,84.6 487.3,73.3 483.1,73.3 483.1,71.9 492.8,71.9 492.8,73.3 
	"/>
<polygon style="fill:#231F20;" points="504.3,71.9 504.3,84.6 502.9,84.6 502.9,78.7 495.5,78.7 495.5,84.6 494.1,84.6 494.1,71.9 
	495.5,71.9 495.5,77.5 502.9,77.5 502.9,71.9 "/>
<polygon style="fill:#231F20;" points="521.9,71.9 521.9,84.6 520.5,84.6 520.5,78.7 513,78.7 513,84.6 511.6,84.6 511.6,71.9 
	513,71.9 513,77.5 520.5,77.5 520.5,71.9 "/>
<polygon style="fill:#231F20;" points="525.2,73.1 525.2,77.5 531.6,77.5 531.6,78.7 525.2,78.7 525.2,83.4 531.9,83.4 531.9,84.6 
	523.8,84.6 523.8,71.9 531.9,71.9 531.9,73.1 "/>
<path style="fill:#231F20;" d="M541.5,81.9h-6.4l-1,2.7h-1.5l4.6-12.7h2l4.7,12.7h-1.5L541.5,81.9L541.5,81.9z M541.1,80.8l-2.8-7.7
	l-2.8,7.7H541.1z"/>
<path style="fill:#231F20;" d="M553.5,71.9h1.5l-4.5,12.7h-2L544,71.9h1.5l3.4,9.6l0.3,1c0.1,0.4,0.2,0.7,0.3,1h0
	c0.2-0.6,0.4-1.3,0.6-1.9L553.5,71.9z"/>
<path style="fill:#231F20;" d="M565.7,71.9l-4.8,7.4v5.3h-1.4v-5.3l-4.7-7.4h1.7l2.7,4.3l0.5,0.8c0.1,0.1,0.2,0.2,0.3,0.4l0.3,0.4h0
	c0.1-0.2,0.2-0.3,0.3-0.4l0.3-0.4l0.5-0.8l2.7-4.3H565.7z"/>
<path style="fill:#231F20;" d="M571.7,84.6V71.9h5.9c1.8,0,3,0.4,3.7,1.2c0.6,0.8,1,2.3,1,4.6c0,2.7-0.3,4.6-0.9,5.5
	c-0.6,0.9-1.7,1.4-3.4,1.4H571.7L571.7,84.6z M573.2,83.4h4.1c1.5,0,2.5-0.3,2.9-0.9c0.4-0.6,0.7-2,0.7-4.1c0-2.3-0.2-3.8-0.6-4.4
	c-0.4-0.6-1.3-0.9-2.7-0.9h-4.4V83.4z"/>
<path style="fill:#231F20;" d="M592.8,71.9h1.4v8.9c0,1.6-0.3,2.7-1,3.2c-0.6,0.5-2,0.8-4.1,0.8c-1.9,0-3.3-0.2-3.9-0.7
	c-0.7-0.5-1-1.4-1-2.8v-0.4v-8.9h1.4v8.9c0,1.2,0.2,2,0.6,2.3s1.3,0.5,2.9,0.5c1.7,0,2.7-0.1,3.1-0.5c0.4-0.3,0.6-1.1,0.6-2.3V71.9z
	"/>
<polygon style="fill:#231F20;" points="601,73.3 601,84.6 599.6,84.6 599.6,73.3 595.5,73.3 595.5,71.9 605.1,71.9 605.1,73.3 "/>
<path style="fill:#231F20;" d="M616,71.9l-4.8,7.4v5.3h-1.4v-5.3l-4.7-7.4h1.7l2.7,4.3L610,77c0.1,0.1,0.2,0.2,0.3,0.4l0.3,0.4h0
	c0.1-0.2,0.2-0.3,0.3-0.4L611,77l0.5-0.8l2.7-4.3H616z"/>
<polygon style="fill:#231F20;" points="632.2,71.9 632.2,84.6 630.8,84.6 630.8,78.7 623.4,78.7 623.4,84.6 622,84.6 622,71.9 
	623.4,71.9 623.4,77.5 630.8,77.5 630.8,71.9 "/>
<path style="fill:#231F20;" d="M639.3,71.8c2.4,0,3.9,0.3,4.5,1c0.6,0.7,0.9,2.4,0.9,5.2c0,3-0.3,4.9-0.9,5.6
	c-0.6,0.7-2.1,1.1-4.5,1.1c-2.4,0-3.9-0.3-4.5-1c-0.6-0.7-0.9-2.5-0.9-5.4v-0.9l0-1.2c0-1.7,0.4-2.8,1.1-3.4
	C635.8,72.1,637.2,71.8,639.3,71.8L639.3,71.8z M639.2,73c-2,0-3.2,0.2-3.5,0.7c-0.3,0.4-0.5,2-0.5,4.6c0,2.6,0.2,4.1,0.5,4.6
	c0.3,0.4,1.5,0.7,3.5,0.7c2,0,3.2-0.2,3.5-0.7c0.3-0.4,0.5-2,0.5-4.6v-0.8l0-1.2c0-1.4-0.2-2.3-0.7-2.7C642.1,73.2,641,73,639.2,73z
	"/>
<path style="fill:#231F20;" d="M650.9,71.8c2.4,0,3.9,0.3,4.5,1c0.6,0.7,0.9,2.4,0.9,5.2c0,3-0.3,4.9-0.9,5.6
	c-0.6,0.7-2.1,1.1-4.5,1.1c-2.4,0-3.9-0.3-4.5-1c-0.6-0.7-0.9-2.5-0.9-5.4v-0.9l0-1.2c0-1.7,0.4-2.8,1.1-3.4
	C647.4,72.1,648.8,71.8,650.9,71.8L650.9,71.8z M650.9,73c-2,0-3.2,0.2-3.5,0.7c-0.3,0.4-0.5,2-0.5,4.6c0,2.6,0.2,4.1,0.5,4.6
	c0.3,0.4,1.5,0.7,3.5,0.7c2,0,3.2-0.2,3.5-0.7c0.3-0.4,0.5-2,0.5-4.6v-0.8l0-1.2c0-1.4-0.2-2.3-0.7-2.7
	C653.7,73.2,652.6,73,650.9,73z"/>
<polygon style="fill:#231F20;" points="659.4,71.9 659.4,77.5 660.6,77.5 665.8,71.9 667.7,71.9 661.9,78 668.4,84.6 666.4,84.6 
	660.6,78.7 659.4,78.7 659.4,84.6 657.9,84.6 657.9,71.9 "/>
<path style="fill:#231F20;" d="M678.1,75.4h-1.4c0-1-0.2-1.7-0.5-1.9c-0.3-0.3-1.1-0.4-2.4-0.4c-1.5,0-2.5,0.1-2.9,0.4
	c-0.4,0.3-0.6,0.8-0.6,1.8c0,1,0.2,1.6,0.5,1.9c0.3,0.2,1.4,0.4,3,0.5c2,0.1,3.2,0.3,3.8,0.8c0.5,0.4,0.8,1.3,0.8,2.8
	c0,1.6-0.3,2.6-0.9,3c-0.6,0.5-2,0.7-4.1,0.7c-1.8,0-3-0.2-3.6-0.7c-0.6-0.5-0.9-1.4-0.9-2.8l0-0.6h1.4V81c0,1.1,0.2,1.8,0.5,2.1
	c0.3,0.3,1.2,0.4,2.7,0.4c1.6,0,2.6-0.1,3-0.4c0.4-0.3,0.6-1,0.6-2.2c0-0.8-0.1-1.3-0.4-1.5c-0.3-0.3-0.8-0.4-1.6-0.5l-1.5-0.1
	l-1.4-0.1c-2.1-0.1-3.2-1.3-3.2-3.3c0-1.4,0.3-2.4,0.9-2.9c0.6-0.5,1.9-0.7,3.7-0.7c1.9,0,3.1,0.2,3.7,0.7
	C677.8,72.9,678.1,73.9,678.1,75.4z"/>
<polygon style="fill:#231F20;" points="179.6,98.7 179.6,111.4 178.2,111.4 178.2,99.8 174.9,103.4 174,102.5 177.5,98.7 "/>
<path style="fill:#231F20;" d="M193.9,110.2v1.2h-9.1V109c0-1.3,0.3-2.2,0.8-2.6c0.5-0.4,1.8-0.7,3.7-1c1.6-0.2,2.5-0.4,2.8-0.7
	c0.3-0.3,0.5-1.1,0.5-2.3c0-1.1-0.2-1.8-0.5-2.1c-0.4-0.3-1.2-0.5-2.4-0.5c-1.5,0-2.5,0.1-2.9,0.4c-0.4,0.3-0.6,0.9-0.6,1.9l0,0.9
	h-1.4l0-0.7c0-1.5,0.3-2.5,1-3c0.6-0.5,1.9-0.8,3.8-0.8c1.7,0,2.9,0.3,3.4,0.8c0.6,0.5,0.9,1.6,0.9,3.2c0,1.5-0.3,2.5-0.8,3
	c-0.5,0.5-1.7,0.9-3.6,1c-1.6,0.2-2.6,0.4-2.9,0.7c-0.3,0.3-0.5,1.1-0.5,2.4v0.4H193.9z"/>
<path style="fill:#231F20;" d="M201.2,98.6c2.3,0,3.8,0.3,4.2,0.9c0.5,0.6,0.7,2.5,0.7,5.5c0,2.9-0.2,4.7-0.7,5.3
	c-0.6,0.8-2,1.2-4.3,1.2c-2.3,0-3.7-0.4-4.3-1.2c-0.5-0.6-0.7-2.5-0.7-5.7c0-2.8,0.3-4.5,0.8-5.1C197.5,98.9,198.9,98.6,201.2,98.6
	L201.2,98.6z M201.2,99.8c-1.8,0-2.8,0.2-3.1,0.7c-0.3,0.5-0.5,2-0.5,4.6c0,2.6,0.2,4.1,0.5,4.6c0.3,0.5,1.4,0.7,3.1,0.7
	c1.8,0,2.8-0.2,3.1-0.7c0.3-0.5,0.5-2,0.5-4.6c0-2.6-0.2-4.1-0.5-4.6C204,100,203,99.8,201.2,99.8z"/>
<path style="fill:#231F20;" d="M208.2,102.5h1.3l0,1.3l0,0c0.5-1,1.5-1.5,2.9-1.5c1.5,0,2.4,0.5,2.7,1.5h0c0.6-1,1.6-1.5,3.1-1.5
	c2.1,0,3.1,1.1,3.1,3.2v5.8H220v-5.9c0-0.8-0.1-1.3-0.4-1.6c-0.3-0.3-0.8-0.4-1.6-0.4c-1,0-1.7,0.2-2.1,0.6
	c-0.4,0.4-0.5,1.1-0.5,2.2v5.1h-1.3v-5.8l0-0.4c0-1.1-0.7-1.7-2-1.7c-1.8,0-2.7,1-2.7,2.9v5h-1.3V102.5z"/>
<path style="fill:#231F20;" d="M223.9,102.5h1.3l0,1.3l0,0c0.5-1,1.5-1.5,2.9-1.5c1.5,0,2.4,0.5,2.7,1.5h0c0.6-1,1.6-1.5,3.1-1.5
	c2.1,0,3.1,1.1,3.1,3.2v5.8h-1.3v-5.9c0-0.8-0.1-1.3-0.4-1.6c-0.3-0.3-0.8-0.4-1.6-0.4c-1,0-1.7,0.2-2.1,0.6
	c-0.4,0.4-0.5,1.1-0.5,2.2v5.1h-1.3v-5.8l0-0.4c0-1.1-0.7-1.7-2-1.7c-1.8,0-2.7,1-2.7,2.9v5h-1.3V102.5z"/>
<path style="fill:#231F20;" d="M258.3,98.7v12.7h-1.4v-10.1v-0.8l0-0.4l0-0.4h0l-0.1,0.3c-0.1,0.1-0.1,0.2-0.1,0.3l-0.2,0.6
	l-4.3,10.5h-1.4l-4.3-10.4l-0.3-0.6l-0.1-0.3c0-0.1-0.1-0.2-0.1-0.3h0l0,0.3l0,0.4v0.7v10.1h-1.4V98.7h2.5l3.4,8.2l0.5,1.3l0.3,0.7
	l0.3,0.7h0l0.3-0.7c0.1-0.3,0.2-0.5,0.3-0.7l0.5-1.3l3.4-8.2H258.3z"/>
<path style="fill:#231F20;" d="M265.3,98.6c2.4,0,3.9,0.3,4.5,1c0.6,0.7,0.9,2.4,0.9,5.2c0,3-0.3,4.9-0.9,5.6
	c-0.6,0.7-2.1,1.1-4.5,1.1c-2.4,0-3.9-0.3-4.5-1c-0.6-0.7-0.9-2.5-0.9-5.4v-0.9l0-1.2c0-1.7,0.4-2.8,1.1-3.4
	C261.8,98.9,263.2,98.6,265.3,98.6L265.3,98.6z M265.3,99.8c-2,0-3.2,0.2-3.5,0.7c-0.3,0.4-0.5,2-0.5,4.6c0,2.6,0.2,4.1,0.5,4.6
	c0.3,0.4,1.5,0.7,3.5,0.7c2,0,3.2-0.2,3.5-0.7c0.3-0.4,0.5-2,0.5-4.6v-0.8l0-1.2c0-1.4-0.2-2.3-0.7-2.7
	C268.1,100,267,99.8,265.3,99.8z"/>
<path style="fill:#231F20;" d="M272.3,111.4V98.7h5.9c1.8,0,3,0.4,3.7,1.2c0.6,0.8,1,2.3,1,4.6c0,2.7-0.3,4.6-0.9,5.5
	s-1.7,1.4-3.4,1.4H272.3L272.3,111.4z M273.7,110.2h4.1c1.5,0,2.5-0.3,2.9-0.9c0.4-0.6,0.7-2,0.7-4.1c0-2.3-0.2-3.8-0.6-4.4
	c-0.4-0.6-1.3-0.9-2.7-0.9h-4.4V110.2z"/>
<polygon style="fill:#231F20;" points="285.6,99.9 285.6,104.3 292.1,104.3 292.1,105.5 285.6,105.5 285.6,110.2 292.4,110.2 
	292.4,111.4 284.2,111.4 284.2,98.7 292.4,98.7 292.4,99.9 "/>
<polygon style="fill:#231F20;" points="295.6,98.7 295.6,110.1 302.1,110.1 302.1,111.4 294.2,111.4 294.2,98.7 "/>
<path style="fill:#231F20;" d="M304.8,109.7v1.7h-1.4v-1.7H304.8L304.8,109.7z M304.8,102.5v1.7h-1.4v-1.7H304.8z"/>
<path style="fill:#231F20;" d="M334.3,98.7l-4,12.7h-2.2l-2.7-9.1l-0.3-1.1c0-0.1-0.1-0.3-0.2-0.6l-0.2-0.6h0l-0.2,0.6l-0.2,0.6
	l-0.3,1.1l-2.7,9.1h-2.1l-3.9-12.7h1.5l2.7,9.1l0.4,1.2c0,0.1,0.1,0.3,0.2,0.6l0.2,0.6h0l0.2-0.6l0.2-0.6l0.4-1.2l2.7-9.1h2.1
	l2.7,9.1l0.4,1.2l0.2,0.6l0.2,0.6h0l0.2-0.6l0.2-0.6l0.4-1.2l2.8-9.1H334.3z"/>
<polygon style="fill:#231F20;" points="336.5,99.9 336.5,104.3 342.9,104.3 342.9,105.5 336.5,105.5 336.5,110.2 343.2,110.2 
	343.2,111.4 335.1,111.4 335.1,98.7 343.2,98.7 343.2,99.9 "/>
<rect x="345" y="98.7" style="fill:#231F20;" width="1.4" height="12.7"/>
<path style="fill:#231F20;" d="M353.4,105.1h5.4c0,0.3,0,0.8,0,1.4c0,2.3-0.3,3.7-0.8,4.2c-0.6,0.5-2,0.8-4.4,0.8
	c-2.2,0-3.7-0.3-4.3-1c-0.6-0.6-1-2.1-1-4.3l0-1.9l0-1.1c0-1.9,0.4-3.1,1.1-3.7c0.7-0.6,2.1-0.9,4.3-0.9c2.2,0,3.5,0.2,4.2,0.6
	c0.6,0.4,0.9,1.3,0.9,2.7v0.5h-1.4v-0.3c0-1-0.2-1.7-0.6-1.9c-0.4-0.2-1.5-0.4-3.3-0.4c-1.6,0-2.7,0.2-3.1,0.6
	c-0.4,0.4-0.6,1.4-0.6,2.9l0,1.7l0,1.8c0,1.6,0.2,2.6,0.7,2.9c0.5,0.4,1.7,0.5,3.7,0.5c1.5,0,2.5-0.2,2.8-0.5
	c0.4-0.3,0.5-1.3,0.5-2.7c0-0.1,0-0.4-0.1-0.8h-4V105.1z"/>
<polygon style="fill:#231F20;" points="370.9,98.7 370.9,111.4 369.5,111.4 369.5,105.5 362.1,105.5 362.1,111.4 360.7,111.4 
	360.7,98.7 362.1,98.7 362.1,104.3 369.5,104.3 369.5,98.7 "/>
<polygon style="fill:#231F20;" points="377.8,100.1 377.8,111.4 376.3,111.4 376.3,100.1 372.2,100.1 372.2,98.7 381.9,98.7 
	381.9,100.1 "/>
<path style="fill:#231F20;" d="M390.9,98.7v8.5h1.9v1.2h-1.9v2.9h-1.4v-2.9h-7.1v-1.7l6.3-8.1H390.9L390.9,98.7z M389.5,107.3v-7.6
	h0l-5.9,7.6H389.5z"/>
<path style="fill:#231F20;" d="M399.4,98.6c2.3,0,3.8,0.3,4.2,0.9c0.5,0.6,0.7,2.5,0.7,5.5c0,2.9-0.2,4.7-0.7,5.3
	c-0.6,0.8-2,1.2-4.3,1.2c-2.3,0-3.7-0.4-4.3-1.2c-0.5-0.6-0.7-2.5-0.7-5.7c0-2.8,0.3-4.5,0.8-5.1S397.1,98.6,399.4,98.6L399.4,98.6z
	 M399.4,99.8c-1.8,0-2.8,0.2-3.1,0.7c-0.3,0.5-0.5,2-0.5,4.6c0,2.6,0.2,4.1,0.5,4.6c0.3,0.5,1.4,0.7,3.1,0.7c1.8,0,2.8-0.2,3.1-0.7
	c0.3-0.5,0.5-2,0.5-4.6c0-2.6-0.2-4.1-0.5-4.6C402.2,100,401.2,99.8,399.4,99.8z"/>
<path style="fill:#231F20;" d="M413.8,102.5v9.4c0,1.3-0.3,2.2-0.8,2.7c-0.6,0.5-1.6,0.7-3.1,0.7c-1.3,0-2.2-0.2-2.7-0.6
	c-0.5-0.4-0.7-1.2-0.7-2.3h1.3c0,0.8,0.1,1.3,0.4,1.5c0.3,0.2,0.9,0.3,1.8,0.3c1,0,1.7-0.1,2-0.4c0.3-0.3,0.5-0.9,0.5-1.7v-1.8l0,0
	c-0.3,0.8-1.3,1.2-2.9,1.2c-1.3,0-2.2-0.3-2.7-1c-0.5-0.6-0.7-1.8-0.7-3.5c0-1.8,0.3-3,0.8-3.6s1.4-1,2.8-1c1.5,0,2.4,0.4,2.8,1.3
	l0,0l-0.1-1.2H413.8L413.8,102.5z M409.9,103.5c-1,0-1.7,0.2-2,0.6c-0.3,0.4-0.5,1.4-0.5,2.8c0,1.5,0.2,2.4,0.5,2.8
	c0.3,0.4,1,0.7,2,0.7c1,0,1.7-0.2,2-0.7c0.3-0.5,0.5-1.5,0.5-3c0-1.3-0.2-2.2-0.5-2.6C411.6,103.7,410.9,103.5,409.9,103.5z"/>
<polygon style="fill:#231F20;" points="419.7,106.2 423.6,106.2 423.6,107.4 419.7,107.4 "/>
<path style="fill:#231F20;" d="M438.5,110.2v1.2h-9.1V109c0-1.3,0.3-2.2,0.8-2.6c0.5-0.4,1.8-0.7,3.7-1c1.6-0.2,2.5-0.4,2.8-0.7
	c0.3-0.3,0.5-1.1,0.5-2.3c0-1.1-0.2-1.8-0.5-2.1c-0.4-0.3-1.2-0.5-2.4-0.5c-1.5,0-2.5,0.1-2.9,0.4c-0.4,0.3-0.6,0.9-0.6,1.9l0,0.9
	h-1.4l0-0.7c0-1.5,0.3-2.5,1-3c0.6-0.5,1.9-0.8,3.8-0.8c1.7,0,2.9,0.3,3.4,0.8c0.6,0.5,0.9,1.6,0.9,3.2c0,1.5-0.3,2.5-0.8,3
	c-0.5,0.5-1.7,0.9-3.6,1c-1.6,0.2-2.6,0.4-2.9,0.7c-0.3,0.3-0.5,1.1-0.5,2.4v0.4H438.5z"/>
<polygon style="fill:#231F20;" points="451,98.7 439.8,115.2 438.8,115.2 449.9,98.7 "/>
<path style="fill:#231F20;" d="M458.1,98.6c2.3,0,3.8,0.3,4.2,0.9c0.5,0.6,0.7,2.5,0.7,5.5c0,2.9-0.2,4.7-0.7,5.3
	c-0.6,0.8-2,1.2-4.3,1.2c-2.3,0-3.7-0.4-4.3-1.2c-0.5-0.6-0.7-2.5-0.7-5.7c0-2.8,0.3-4.5,0.8-5.1S455.8,98.6,458.1,98.6L458.1,98.6z
	 M458.1,99.8c-1.8,0-2.8,0.2-3.1,0.7c-0.3,0.5-0.5,2-0.5,4.6c0,2.6,0.2,4.1,0.5,4.6c0.3,0.5,1.4,0.7,3.1,0.7c1.8,0,2.8-0.2,3.1-0.7
	c0.3-0.5,0.5-2,0.5-4.6c0-2.6-0.2-4.1-0.5-4.6C460.9,100,459.9,99.8,458.1,99.8z"/>
<polygon style="fill:#231F20;" points="480.2,98.7 480.2,111.4 478.7,111.4 478.7,105.5 471.3,105.5 471.3,111.4 469.9,111.4 
	469.9,98.7 471.3,98.7 471.3,104.3 478.7,104.3 478.7,98.7 "/>
<path style="fill:#231F20;" d="M487.2,98.6c2.4,0,3.9,0.3,4.5,1c0.6,0.7,0.9,2.4,0.9,5.2c0,3-0.3,4.9-0.9,5.6
	c-0.6,0.7-2.1,1.1-4.5,1.1c-2.4,0-3.9-0.3-4.5-1c-0.6-0.7-0.9-2.5-0.9-5.4v-0.9l0-1.2c0-1.7,0.4-2.8,1.1-3.4
	C483.7,98.9,485.1,98.6,487.2,98.6L487.2,98.6z M487.2,99.8c-2,0-3.2,0.2-3.5,0.7c-0.3,0.4-0.5,2-0.5,4.6c0,2.6,0.2,4.1,0.5,4.6
	c0.3,0.4,1.5,0.7,3.5,0.7c2,0,3.2-0.2,3.5-0.7c0.3-0.4,0.5-2,0.5-4.6v-0.8l0-1.2c0-1.4-0.2-2.3-0.7-2.7
	C490,100,488.9,99.8,487.2,99.8z"/>
<path style="fill:#231F20;" d="M498.8,98.6c2.4,0,3.9,0.3,4.5,1c0.6,0.7,0.9,2.4,0.9,5.2c0,3-0.3,4.9-0.9,5.6
	c-0.6,0.7-2.1,1.1-4.5,1.1c-2.4,0-3.9-0.3-4.5-1c-0.6-0.7-0.9-2.5-0.9-5.4v-0.9l0-1.2c0-1.7,0.4-2.8,1.1-3.4
	C495.4,98.9,496.8,98.6,498.8,98.6L498.8,98.6z M498.8,99.8c-2,0-3.2,0.2-3.5,0.7c-0.3,0.4-0.5,2-0.5,4.6c0,2.6,0.2,4.1,0.5,4.6
	c0.3,0.4,1.5,0.7,3.5,0.7c2,0,3.2-0.2,3.5-0.7c0.3-0.4,0.5-2,0.5-4.6v-0.8l0-1.2c0-1.4-0.2-2.3-0.7-2.7
	C501.7,100,500.6,99.8,498.8,99.8z"/>
<polygon style="fill:#231F20;" points="507.3,98.7 507.3,104.3 508.6,104.3 513.7,98.7 515.6,98.7 509.8,104.8 516.3,111.4 
	514.3,111.4 508.6,105.5 507.3,105.5 507.3,111.4 505.9,111.4 505.9,98.7 "/>
<path style="fill:#231F20;" d="M526,102.2h-1.4c0-1-0.2-1.7-0.5-1.9c-0.3-0.3-1.1-0.4-2.4-0.4c-1.5,0-2.5,0.1-2.9,0.4
	s-0.6,0.8-0.6,1.8c0,1,0.2,1.6,0.5,1.9c0.3,0.2,1.4,0.4,3,0.5c2,0.1,3.2,0.3,3.8,0.8c0.5,0.4,0.8,1.3,0.8,2.8c0,1.6-0.3,2.6-0.9,3
	c-0.6,0.5-2,0.7-4.1,0.7c-1.8,0-3-0.2-3.6-0.7c-0.6-0.5-0.9-1.4-0.9-2.8l0-0.6h1.4v0.3c0,1.1,0.2,1.8,0.5,2.1
	c0.3,0.3,1.2,0.4,2.7,0.4c1.6,0,2.6-0.1,3-0.4s0.6-1,0.6-2.2c0-0.8-0.1-1.3-0.4-1.5c-0.3-0.3-0.8-0.4-1.6-0.5l-1.5-0.1l-1.4-0.1
	c-2.1-0.1-3.2-1.3-3.2-3.3c0-1.4,0.3-2.4,0.9-2.9c0.6-0.5,1.9-0.7,3.7-0.7c1.9,0,3.1,0.2,3.7,0.7C525.7,99.7,526,100.7,526,102.2z"
	/>
<polygon style="fill:#231F20;" points="183.3,119.2 183.3,131.8 181.9,131.8 181.9,120.2 178.7,123.8 177.8,123 181.3,119.2 "/>
<path style="fill:#231F20;" d="M193.3,119c2.3,0,3.8,0.3,4.2,0.9c0.5,0.6,0.7,2.5,0.7,5.5c0,2.9-0.2,4.7-0.7,5.3
	c-0.6,0.8-2,1.2-4.3,1.2c-2.3,0-3.7-0.4-4.3-1.2c-0.5-0.6-0.7-2.5-0.7-5.7c0-2.8,0.3-4.5,0.8-5.1C189.6,119.3,191,119,193.3,119
	L193.3,119z M193.3,120.2c-1.8,0-2.8,0.2-3.1,0.7c-0.3,0.5-0.5,2-0.5,4.6c0,2.6,0.2,4.1,0.5,4.6c0.3,0.5,1.4,0.7,3.1,0.7
	c1.8,0,2.8-0.2,3.1-0.7c0.3-0.5,0.5-2,0.5-4.6c0-2.6-0.2-4.1-0.5-4.6C196.1,120.5,195.1,120.2,193.3,120.2z"/>
<path style="fill:#231F20;" d="M205,119c2.3,0,3.8,0.3,4.2,0.9c0.5,0.6,0.7,2.5,0.7,5.5c0,2.9-0.2,4.7-0.7,5.3
	c-0.6,0.8-2,1.2-4.3,1.2c-2.3,0-3.7-0.4-4.3-1.2c-0.5-0.6-0.7-2.5-0.7-5.7c0-2.8,0.3-4.5,0.8-5.1C201.3,119.3,202.7,119,205,119
	L205,119z M205,120.2c-1.8,0-2.8,0.2-3.1,0.7c-0.3,0.5-0.5,2-0.5,4.6c0,2.6,0.2,4.1,0.5,4.6c0.3,0.5,1.4,0.7,3.1,0.7
	c1.8,0,2.8-0.2,3.1-0.7c0.3-0.5,0.5-2,0.5-4.6c0-2.6-0.2-4.1-0.5-4.6C207.8,120.5,206.7,120.2,205,120.2z"/>
<path style="fill:#231F20;" d="M211.9,123h1.3l0,1.3l0,0c0.5-1,1.5-1.5,2.9-1.5c1.5,0,2.4,0.5,2.7,1.5h0c0.6-1,1.6-1.5,3.1-1.5
	c2.1,0,3.1,1.1,3.1,3.2v5.8h-1.3v-5.9c0-0.8-0.1-1.3-0.4-1.6c-0.3-0.3-0.8-0.4-1.6-0.4c-1,0-1.7,0.2-2.1,0.6
	c-0.4,0.4-0.5,1.1-0.5,2.2v5.1h-1.3V126l0-0.4c0-1.1-0.7-1.7-2-1.7c-1.8,0-2.7,1-2.7,2.9v5h-1.3V123z"/>
<path style="fill:#231F20;" d="M227.6,123h1.3l0,1.3l0,0c0.5-1,1.5-1.5,2.9-1.5c1.5,0,2.4,0.5,2.7,1.5h0c0.6-1,1.6-1.5,3.1-1.5
	c2.1,0,3.1,1.1,3.1,3.2v5.8h-1.3v-5.9c0-0.8-0.1-1.3-0.4-1.6c-0.3-0.3-0.8-0.4-1.6-0.4c-1,0-1.7,0.2-2.1,0.6
	c-0.4,0.4-0.5,1.1-0.5,2.2v5.1h-1.3V126l0-0.4c0-1.1-0.7-1.7-2-1.7c-1.8,0-2.7,1-2.7,2.9v5h-1.3V123z"/>
<path style="fill:#231F20;" d="M262,119.2v12.7h-1.4v-10.1v-0.8l0-0.4l0-0.4h0l-0.1,0.3c-0.1,0.1-0.1,0.2-0.1,0.3l-0.2,0.6
	l-4.3,10.5h-1.4l-4.3-10.4l-0.3-0.6l-0.1-0.3c0-0.1-0.1-0.2-0.1-0.3h0l0,0.3l0,0.4v0.7v10.1h-1.4v-12.7h2.5l3.4,8.2l0.5,1.3l0.3,0.7
	l0.3,0.7h0l0.3-0.7c0.1-0.3,0.2-0.5,0.3-0.7l0.5-1.3l3.4-8.2H262z"/>
<path style="fill:#231F20;" d="M269.1,119c2.4,0,3.9,0.3,4.5,1c0.6,0.7,0.9,2.4,0.9,5.2c0,3-0.3,4.9-0.9,5.6
	c-0.6,0.7-2.1,1.1-4.5,1.1c-2.4,0-3.9-0.3-4.5-1c-0.6-0.7-0.9-2.5-0.9-5.4v-0.9l0-1.2c0-1.7,0.4-2.8,1.1-3.4
	C265.6,119.3,267,119,269.1,119L269.1,119z M269,120.2c-2,0-3.2,0.2-3.5,0.7c-0.3,0.4-0.5,2-0.5,4.6c0,2.6,0.2,4.1,0.5,4.6
	s1.5,0.7,3.5,0.7c2,0,3.2-0.2,3.5-0.7c0.3-0.4,0.5-2,0.5-4.6v-0.8l0-1.2c0-1.4-0.2-2.3-0.7-2.7C271.9,120.4,270.8,120.2,269,120.2z"
	/>
<path style="fill:#231F20;" d="M276.1,131.8v-12.7h5.9c1.8,0,3,0.4,3.7,1.2c0.6,0.8,1,2.3,1,4.6c0,2.7-0.3,4.6-0.9,5.5
	c-0.6,0.9-1.7,1.4-3.4,1.4H276.1L276.1,131.8z M277.5,130.6h4.1c1.5,0,2.5-0.3,2.9-0.9c0.4-0.6,0.7-2,0.7-4.1c0-2.3-0.2-3.8-0.6-4.4
	c-0.4-0.6-1.3-0.9-2.7-0.9h-4.4V130.6z"/>
<polygon style="fill:#231F20;" points="289.4,120.4 289.4,124.7 295.8,124.7 295.8,125.9 289.4,125.9 289.4,130.6 296.1,130.6 
	296.1,131.8 288,131.8 288,119.2 296.1,119.2 296.1,120.4 "/>
<polygon style="fill:#231F20;" points="299.4,119.2 299.4,130.5 305.9,130.5 305.9,131.8 298,131.8 298,119.2 "/>
<path style="fill:#231F20;" d="M308.5,130.1v1.7h-1.4v-1.7H308.5L308.5,130.1z M308.5,123v1.7h-1.4V123H308.5z"/>
<path style="fill:#231F20;" d="M338.1,119.2l-4,12.7h-2.2l-2.7-9.1l-0.3-1.1c0-0.1-0.1-0.3-0.2-0.6l-0.2-0.6h0l-0.2,0.6l-0.2,0.6
	l-0.3,1.1l-2.7,9.1h-2.1l-3.9-12.7h1.5l2.7,9.1l0.4,1.2c0,0.1,0.1,0.3,0.2,0.6l0.2,0.6h0l0.2-0.6l0.2-0.6l0.4-1.2l2.7-9.1h2.1
	l2.7,9.1l0.4,1.2l0.2,0.6l0.2,0.6h0l0.2-0.6l0.2-0.6l0.4-1.2l2.8-9.1H338.1z"/>
<polygon style="fill:#231F20;" points="340.3,120.4 340.3,124.7 346.7,124.7 346.7,125.9 340.3,125.9 340.3,130.6 347,130.6 
	347,131.8 338.8,131.8 338.8,119.2 347,119.2 347,120.4 "/>
<rect x="348.8" y="119.2" style="fill:#231F20;" width="1.4" height="12.7"/>
<path style="fill:#231F20;" d="M357.2,125.5h5.4c0,0.3,0,0.8,0,1.4c0,2.3-0.3,3.7-0.8,4.2c-0.6,0.5-2,0.8-4.4,0.8
	c-2.2,0-3.7-0.3-4.3-1c-0.6-0.6-1-2.1-1-4.3l0-1.9l0-1.1c0-1.9,0.4-3.1,1.1-3.7c0.7-0.6,2.1-0.9,4.3-0.9c2.2,0,3.5,0.2,4.2,0.6
	c0.6,0.4,0.9,1.3,0.9,2.7v0.5h-1.4v-0.3c0-1-0.2-1.7-0.6-1.9c-0.4-0.2-1.5-0.4-3.3-0.4c-1.6,0-2.7,0.2-3.1,0.6
	c-0.4,0.4-0.6,1.4-0.6,2.9l0,1.7l0,1.8c0,1.6,0.2,2.6,0.7,2.9c0.5,0.4,1.7,0.5,3.7,0.5c1.5,0,2.5-0.2,2.8-0.5
	c0.4-0.3,0.5-1.3,0.5-2.7c0-0.1,0-0.4-0.1-0.8h-4V125.5z"/>
<polygon style="fill:#231F20;" points="374.7,119.2 374.7,131.8 373.3,131.8 373.3,126 365.9,126 365.9,131.8 364.4,131.8 
	364.4,119.2 365.9,119.2 365.9,124.8 373.3,124.8 373.3,119.2 "/>
<polygon style="fill:#231F20;" points="381.5,120.5 381.5,131.8 380.1,131.8 380.1,120.5 376,120.5 376,119.2 385.6,119.2 
	385.6,120.5 "/>
<path style="fill:#231F20;" d="M395.1,126v-1.2l0.5,0c1.7,0,2.8-0.1,3.1-0.3c0.4-0.2,0.6-0.8,0.6-1.8c0-1.1-0.2-1.8-0.5-2
	c-0.3-0.2-1.2-0.4-2.7-0.4c-1.4,0-2.2,0.1-2.6,0.4c-0.3,0.2-0.5,0.9-0.5,1.9v0.5h-1.4l0-0.5c0-1.4,0.3-2.4,0.8-2.8
	c0.6-0.4,1.7-0.7,3.6-0.7c1.9,0,3.1,0.2,3.7,0.6c0.6,0.4,0.9,1.3,0.9,2.6c0,1.1-0.1,1.9-0.4,2.3c-0.3,0.4-0.9,0.7-1.7,0.8v0.1
	c1,0.1,1.6,0.4,1.9,0.8c0.3,0.4,0.5,1.1,0.5,2.2c0,1.5-0.3,2.4-0.9,2.9c-0.6,0.5-1.8,0.7-3.7,0.7c-2,0-3.3-0.2-3.9-0.7
	c-0.6-0.4-0.9-1.4-0.9-2.8v-0.8h1.4v0.7c0,1.1,0.2,1.7,0.5,2s1.4,0.3,3.1,0.3c1.3,0,2.2-0.1,2.5-0.4c0.4-0.3,0.5-1,0.5-2.1
	c0-0.9-0.2-1.5-0.5-1.8c-0.3-0.3-1.1-0.4-2.2-0.4h-1.2H395.1z"/>
<path style="fill:#231F20;" d="M407.9,119c2.3,0,3.8,0.3,4.2,0.9c0.5,0.6,0.7,2.5,0.7,5.5c0,2.9-0.2,4.7-0.7,5.3
	c-0.6,0.8-2,1.2-4.3,1.2c-2.3,0-3.7-0.4-4.3-1.2c-0.5-0.6-0.7-2.5-0.7-5.7c0-2.8,0.3-4.5,0.8-5.1S405.6,119,407.9,119L407.9,119z
	 M407.9,120.2c-1.8,0-2.8,0.2-3.1,0.7c-0.3,0.5-0.5,2-0.5,4.6c0,2.6,0.2,4.1,0.5,4.6c0.3,0.5,1.4,0.7,3.1,0.7c1.8,0,2.8-0.2,3.1-0.7
	c0.3-0.5,0.5-2,0.5-4.6c0-2.6-0.2-4.1-0.5-4.6C410.7,120.5,409.7,120.2,407.9,120.2z"/>
<path style="fill:#231F20;" d="M422.3,123v9.4c0,1.3-0.3,2.2-0.8,2.7c-0.6,0.5-1.6,0.7-3.1,0.7c-1.3,0-2.2-0.2-2.7-0.6
	c-0.5-0.4-0.7-1.2-0.7-2.3h1.3c0,0.8,0.1,1.3,0.4,1.5c0.3,0.2,0.9,0.3,1.8,0.3c1,0,1.7-0.1,2-0.4c0.3-0.3,0.5-0.9,0.5-1.7v-1.8l0,0
	c-0.3,0.8-1.3,1.2-2.9,1.2c-1.3,0-2.2-0.3-2.7-1c-0.5-0.6-0.7-1.8-0.7-3.5c0-1.8,0.3-3,0.8-3.6c0.5-0.7,1.4-1,2.8-1
	c1.5,0,2.4,0.4,2.9,1.3l0,0L421,123H422.3L422.3,123z M418.4,123.9c-1,0-1.7,0.2-2,0.6c-0.3,0.4-0.5,1.4-0.5,2.8
	c0,1.5,0.2,2.4,0.5,2.9c0.3,0.4,1,0.7,2,0.7c1,0,1.7-0.2,2-0.7c0.3-0.5,0.5-1.5,0.5-3c0-1.3-0.2-2.2-0.5-2.6
	C420.1,124.1,419.5,123.9,418.4,123.9z"/>
<polygon style="fill:#231F20;" points="428.2,126.6 432.1,126.6 432.1,127.8 428.2,127.8 "/>
<path style="fill:#231F20;" d="M447.1,127l-0.1,0.9h-2.2l-0.6,4h-1l0.6-4h-2.8l-0.6,4h-1l0.6-4h-2.2l0.1-0.9h2.2l0.5-3h-2.2l0.1-0.9
	h2.2l0.6-4h1l-0.6,4h2.8l0.6-4h1l-0.6,4h2.2l-0.1,0.9h-2.2l-0.4,3H447.1L447.1,127z M444.3,124h-2.8l-0.5,3h2.8L444.3,124z"/>
<path style="fill:#231F20;" d="M458.7,130.6v1.2h-9.1v-2.4c0-1.3,0.3-2.2,0.8-2.6c0.5-0.4,1.8-0.7,3.7-1c1.6-0.2,2.5-0.4,2.8-0.7
	c0.3-0.3,0.5-1.1,0.5-2.3c0-1.1-0.2-1.8-0.5-2.1c-0.4-0.3-1.2-0.5-2.4-0.5c-1.5,0-2.5,0.1-2.9,0.4c-0.4,0.3-0.6,0.9-0.6,1.9l0,0.9
	h-1.4l0-0.7c0-1.5,0.3-2.5,1-3c0.6-0.5,1.9-0.8,3.8-0.8c1.7,0,2.9,0.3,3.4,0.8c0.6,0.5,0.9,1.6,0.9,3.2c0,1.5-0.3,2.5-0.8,3
	c-0.5,0.5-1.7,0.9-3.6,1c-1.6,0.2-2.6,0.4-2.9,0.7c-0.3,0.3-0.5,1.1-0.5,2.4v0.4H458.7z"/>
<polygon style="fill:#231F20;" points="476.4,119.2 476.4,131.8 475,131.8 475,126 467.6,126 467.6,131.8 466.1,131.8 466.1,119.2 
	467.6,119.2 467.6,124.8 475,124.8 475,119.2 "/>
<path style="fill:#231F20;" d="M483.4,119c2.4,0,3.9,0.3,4.5,1c0.6,0.7,0.9,2.4,0.9,5.2c0,3-0.3,4.9-0.9,5.6
	c-0.6,0.7-2.1,1.1-4.5,1.1c-2.4,0-3.9-0.3-4.5-1c-0.6-0.7-0.9-2.5-0.9-5.4v-0.9l0-1.2c0-1.7,0.4-2.8,1.1-3.4
	C479.9,119.3,481.4,119,483.4,119L483.4,119z M483.4,120.2c-2,0-3.2,0.2-3.5,0.7c-0.3,0.4-0.5,2-0.5,4.6c0,2.6,0.2,4.1,0.5,4.6
	s1.5,0.7,3.5,0.7c2,0,3.2-0.2,3.5-0.7s0.5-2,0.5-4.6v-0.8l0-1.2c0-1.4-0.2-2.3-0.7-2.7C486.3,120.4,485.2,120.2,483.4,120.2z"/>
<path style="fill:#231F20;" d="M495.1,119c2.4,0,3.9,0.3,4.5,1c0.6,0.7,0.9,2.4,0.9,5.2c0,3-0.3,4.9-0.9,5.6
	c-0.6,0.7-2.1,1.1-4.5,1.1c-2.4,0-3.9-0.3-4.5-1c-0.6-0.7-0.9-2.5-0.9-5.4v-0.9l0-1.2c0-1.7,0.4-2.8,1.1-3.4
	C491.6,119.3,493,119,495.1,119L495.1,119z M495.1,120.2c-2,0-3.2,0.2-3.5,0.7c-0.3,0.4-0.5,2-0.5,4.6c0,2.6,0.2,4.1,0.5,4.6
	s1.5,0.7,3.5,0.7c2,0,3.2-0.2,3.5-0.7s0.5-2,0.5-4.6v-0.8l0-1.2c0-1.4-0.2-2.3-0.7-2.7C497.9,120.4,496.8,120.2,495.1,120.2z"/>
<polygon style="fill:#231F20;" points="503.5,119.2 503.5,124.7 504.8,124.7 510,119.2 511.8,119.2 506,125.3 512.5,131.8 
	510.6,131.8 504.8,125.9 503.5,125.9 503.5,131.8 502.1,131.8 502.1,119.2 "/>
<path style="fill:#231F20;" d="M522.2,122.6h-1.4c0-1-0.2-1.7-0.5-1.9c-0.3-0.3-1.1-0.4-2.4-0.4c-1.5,0-2.5,0.1-2.9,0.4
	c-0.4,0.3-0.6,0.8-0.6,1.8c0,1,0.2,1.6,0.5,1.9c0.3,0.2,1.4,0.4,3,0.5c2,0.1,3.2,0.3,3.8,0.8c0.5,0.4,0.8,1.3,0.8,2.8
	c0,1.6-0.3,2.6-0.9,3c-0.6,0.5-2,0.7-4.1,0.7c-1.8,0-3-0.2-3.6-0.7c-0.6-0.5-0.9-1.4-0.9-2.8l0-0.6h1.4v0.3c0,1.1,0.2,1.8,0.5,2.1
	c0.3,0.3,1.2,0.4,2.7,0.4c1.6,0,2.6-0.1,3-0.4s0.6-1,0.6-2.2c0-0.8-0.1-1.3-0.4-1.5c-0.3-0.3-0.8-0.4-1.6-0.5l-1.5-0.1l-1.4-0.1
	c-2.1-0.1-3.2-1.3-3.2-3.3c0-1.4,0.3-2.4,0.9-2.9c0.6-0.5,1.9-0.7,3.7-0.7c1.9,0,3.1,0.2,3.7,0.7C522,120.2,522.2,121.1,522.2,122.6
	z"/>
<polygon style="fill:#231F20;" points="227.4,139.6 227.4,141.4 221.3,152.3 219.6,152.3 226.2,140.8 218.2,140.8 218.2,139.6 "/>
<path style="fill:#231F20;" d="M234.8,139.5c2.3,0,3.8,0.3,4.2,0.9c0.5,0.6,0.7,2.5,0.7,5.5c0,2.9-0.2,4.7-0.7,5.3
	c-0.6,0.8-2,1.2-4.3,1.2c-2.3,0-3.7-0.4-4.3-1.2c-0.5-0.6-0.7-2.5-0.7-5.7c0-2.8,0.3-4.5,0.8-5.1S232.5,139.5,234.8,139.5
	L234.8,139.5z M234.8,140.7c-1.8,0-2.8,0.2-3.1,0.7c-0.3,0.5-0.5,2-0.5,4.6c0,2.6,0.2,4.1,0.5,4.6c0.3,0.5,1.4,0.7,3.1,0.7
	c1.8,0,2.8-0.2,3.1-0.7c0.3-0.5,0.5-2,0.5-4.6c0-2.6-0.2-4.1-0.5-4.6C237.6,140.9,236.5,140.7,234.8,140.7z"/>
<path style="fill:#231F20;" d="M241.7,143.4h1.3l0,1.3l0,0c0.5-1,1.5-1.5,2.9-1.5c1.5,0,2.4,0.5,2.7,1.5h0c0.6-1,1.6-1.5,3.1-1.5
	c2.1,0,3.1,1.1,3.1,3.2v5.8h-1.3v-5.9c0-0.8-0.1-1.3-0.4-1.6c-0.3-0.3-0.8-0.4-1.6-0.4c-1,0-1.7,0.2-2.1,0.6
	c-0.4,0.4-0.5,1.1-0.5,2.2v5.1h-1.3v-5.8l0-0.4c0-1.1-0.7-1.7-2-1.7c-1.8,0-2.7,1-2.7,2.9v5h-1.3V143.4z"/>
<path style="fill:#231F20;" d="M257.4,143.4h1.3l0,1.3l0,0c0.5-1,1.5-1.5,2.9-1.5c1.5,0,2.4,0.5,2.7,1.5h0c0.6-1,1.6-1.5,3.1-1.5
	c2.1,0,3.1,1.1,3.1,3.2v5.8h-1.3v-5.9c0-0.8-0.1-1.3-0.4-1.6c-0.3-0.3-0.8-0.4-1.6-0.4c-1,0-1.7,0.2-2.1,0.6
	c-0.4,0.4-0.5,1.1-0.5,2.2v5.1h-1.3v-5.8l0-0.4c0-1.1-0.7-1.7-2-1.7c-1.8,0-2.7,1-2.7,2.9v5h-1.3V143.4z"/>
<path style="fill:#231F20;" d="M291.8,139.6v12.7h-1.4v-10.1v-0.8l0-0.4l0-0.4h0l-0.1,0.3c-0.1,0.1-0.1,0.2-0.1,0.3l-0.2,0.6
	l-4.3,10.5h-1.4l-4.3-10.4l-0.3-0.6l-0.1-0.3c0-0.1-0.1-0.2-0.1-0.3h0l0,0.3l0,0.4v0.7v10.1h-1.4v-12.7h2.5l3.4,8.2l0.5,1.3l0.3,0.7
	l0.3,0.7h0l0.3-0.7c0.1-0.3,0.2-0.5,0.3-0.7l0.5-1.3l3.4-8.2H291.8z"/>
<path style="fill:#231F20;" d="M298.9,139.5c2.4,0,3.9,0.3,4.5,1c0.6,0.7,0.9,2.4,0.9,5.2c0,3-0.3,4.9-0.9,5.6
	c-0.6,0.7-2.1,1.1-4.5,1.1c-2.4,0-3.9-0.3-4.5-1c-0.6-0.7-0.9-2.5-0.9-5.4V145l0-1.2c0-1.7,0.4-2.8,1.1-3.4
	C295.4,139.8,296.8,139.5,298.9,139.5L298.9,139.5z M298.8,140.7c-2,0-3.2,0.2-3.5,0.7c-0.3,0.4-0.5,2-0.5,4.6
	c0,2.6,0.2,4.1,0.5,4.6c0.3,0.4,1.5,0.7,3.5,0.7c2,0,3.2-0.2,3.5-0.7s0.5-2,0.5-4.6v-0.8l0-1.2c0-1.4-0.2-2.3-0.7-2.7
	C301.7,140.9,300.6,140.7,298.8,140.7z"/>
<path style="fill:#231F20;" d="M305.9,152.3v-12.7h5.9c1.8,0,3,0.4,3.7,1.2c0.6,0.8,1,2.3,1,4.6c0,2.7-0.3,4.6-0.9,5.5
	c-0.6,0.9-1.7,1.4-3.4,1.4H305.9L305.9,152.3z M307.3,151.1h4.1c1.5,0,2.5-0.3,2.9-0.9c0.4-0.6,0.7-2,0.7-4.1c0-2.3-0.2-3.8-0.6-4.4
	s-1.3-0.9-2.7-0.9h-4.4V151.1z"/>
<polygon style="fill:#231F20;" points="319.2,140.8 319.2,145.1 325.6,145.1 325.6,146.3 319.2,146.3 319.2,151.1 325.9,151.1 
	325.9,152.3 317.8,152.3 317.8,139.6 325.9,139.6 325.9,140.8 "/>
<polygon style="fill:#231F20;" points="329.2,139.6 329.2,150.9 335.7,150.9 335.7,152.3 327.8,152.3 327.8,139.6 "/>
<path style="fill:#231F20;" d="M338.3,150.6v1.7h-1.4v-1.7H338.3L338.3,150.6z M338.3,143.4v1.7h-1.4v-1.7H338.3z"/>
<path style="fill:#231F20;" d="M359.1,151.1v1.2H350v-2.4c0-1.3,0.3-2.2,0.8-2.6s1.8-0.7,3.7-1c1.6-0.2,2.5-0.4,2.8-0.7
	c0.3-0.3,0.5-1.1,0.5-2.3c0-1.1-0.2-1.8-0.5-2.1c-0.4-0.3-1.2-0.5-2.4-0.5c-1.5,0-2.5,0.1-2.9,0.4c-0.4,0.3-0.6,0.9-0.6,1.9l0,0.9
	H350l0-0.7c0-1.5,0.3-2.5,1-3c0.6-0.5,1.9-0.8,3.8-0.8c1.7,0,2.9,0.3,3.4,0.8c0.6,0.5,0.9,1.6,0.9,3.2c0,1.5-0.3,2.5-0.8,3
	c-0.5,0.5-1.7,0.9-3.6,1c-1.6,0.2-2.6,0.4-2.9,0.7c-0.3,0.3-0.5,1.1-0.5,2.4v0.4H359.1z"/>
<path style="fill:#231F20;" d="M370.6,139.6v1.2h-7.1l-0.1,3.8h0c0.5-0.7,1.6-1,3.3-1c1.7,0,2.8,0.3,3.4,0.9
	c0.6,0.6,0.9,1.7,0.9,3.2c0,1.9-0.3,3.2-0.9,3.8c-0.6,0.6-1.8,0.9-3.7,0.9c-1.9,0-3.1-0.2-3.8-0.7c-0.6-0.4-1-1.3-1-2.6v-0.5h1.3
	c0,1.1,0.2,1.9,0.5,2.1s1.3,0.4,2.7,0.4c1.5,0,2.5-0.2,2.8-0.5s0.5-1.3,0.5-2.9c0-1.3-0.2-2.1-0.6-2.4c-0.4-0.3-1.3-0.5-2.6-0.5
	c-1.9,0-3,0.4-3.2,1.2h-1.3v-6.4H370.6z"/>
<path style="fill:#231F20;" d="M380.8,143.4v9.4c0,1.3-0.3,2.2-0.8,2.7c-0.6,0.5-1.6,0.7-3.1,0.7c-1.3,0-2.2-0.2-2.7-0.6
	c-0.5-0.4-0.7-1.2-0.7-2.3h1.3c0,0.8,0.1,1.3,0.4,1.5c0.3,0.2,0.9,0.3,1.8,0.3c1,0,1.7-0.1,2-0.4c0.3-0.3,0.5-0.9,0.5-1.7v-1.8l0,0
	c-0.3,0.8-1.3,1.2-2.9,1.2c-1.3,0-2.2-0.3-2.7-1c-0.5-0.6-0.7-1.8-0.7-3.5c0-1.8,0.3-3,0.8-3.6c0.5-0.7,1.4-1,2.8-1
	c1.5,0,2.4,0.4,2.8,1.3l0,0l-0.1-1.2H380.8L380.8,143.4z M377,144.3c-1,0-1.7,0.2-2,0.6c-0.3,0.4-0.5,1.4-0.5,2.8
	c0,1.5,0.2,2.4,0.5,2.8c0.3,0.4,1,0.7,2,0.7c1,0,1.7-0.2,2-0.7c0.3-0.5,0.5-1.5,0.5-3c0-1.3-0.2-2.2-0.5-2.6
	C378.7,144.5,378,144.3,377,144.3z"/>
<polygon style="fill:#231F20;" points="386.8,147 390.7,147 390.7,148.3 386.7,148.3 "/>
<path style="fill:#231F20;" d="M405.6,147.4l-0.1,0.9h-2.2l-0.6,4h-1l0.6-4h-2.8l-0.6,4h-1l0.6-4h-2.2l0.1-0.9h2.2l0.5-3h-2.2
	l0.1-0.9h2.2l0.6-4h1l-0.6,4h2.8l0.6-4h1l-0.6,4h2.2l-0.1,0.9h-2.2l-0.4,3H405.6L405.6,147.4z M402.9,144.4h-2.8l-0.5,3h2.8
	L402.9,144.4z"/>
<path style="fill:#231F20;" d="M416.1,139.6v8.5h1.9v1.2h-1.9v2.9h-1.4v-2.9h-7.1v-1.7l6.3-8.1H416.1L416.1,139.6z M414.7,148.1
	v-7.6h0l-5.9,7.6H414.7z"/>
<polygon style="fill:#231F20;" points="434.9,139.6 434.9,152.3 433.5,152.3 433.5,146.4 426.1,146.4 426.1,152.3 424.7,152.3 
	424.7,139.6 426.1,139.6 426.1,145.2 433.5,145.2 433.5,139.6 "/>
<path style="fill:#231F20;" d="M442,139.5c2.4,0,3.9,0.3,4.5,1c0.6,0.7,0.9,2.4,0.9,5.2c0,3-0.3,4.9-0.9,5.6
	c-0.6,0.7-2.1,1.1-4.5,1.1c-2.4,0-3.9-0.3-4.5-1c-0.6-0.7-0.9-2.5-0.9-5.4V145l0-1.2c0-1.7,0.4-2.8,1.1-3.4
	C438.5,139.8,439.9,139.5,442,139.5L442,139.5z M442,140.7c-2,0-3.2,0.2-3.5,0.7c-0.3,0.4-0.5,2-0.5,4.6c0,2.6,0.2,4.1,0.5,4.6
	c0.3,0.4,1.5,0.7,3.5,0.7c2,0,3.2-0.2,3.5-0.7s0.5-2,0.5-4.6v-0.8l0-1.2c0-1.4-0.2-2.3-0.7-2.7C444.8,140.9,443.7,140.7,442,140.7z"
	/>
<path style="fill:#231F20;" d="M453.6,139.5c2.4,0,3.9,0.3,4.5,1c0.6,0.7,0.9,2.4,0.9,5.2c0,3-0.3,4.9-0.9,5.6
	c-0.6,0.7-2.1,1.1-4.5,1.1c-2.4,0-3.9-0.3-4.5-1c-0.6-0.7-0.9-2.5-0.9-5.4V145l0-1.2c0-1.7,0.4-2.8,1.1-3.4
	C450.1,139.8,451.6,139.5,453.6,139.5L453.6,139.5z M453.6,140.7c-2,0-3.2,0.2-3.5,0.7c-0.3,0.4-0.5,2-0.5,4.6
	c0,2.6,0.2,4.1,0.5,4.6c0.3,0.4,1.5,0.7,3.5,0.7c2,0,3.2-0.2,3.5-0.7s0.5-2,0.5-4.6v-0.8l0-1.2c0-1.4-0.2-2.3-0.7-2.7
	C456.5,140.9,455.4,140.7,453.6,140.7z"/>
<polygon style="fill:#231F20;" points="462.1,139.6 462.1,145.1 463.3,145.1 468.5,139.6 470.4,139.6 464.6,145.7 471.1,152.3 
	469.1,152.3 463.3,146.3 462.1,146.3 462.1,152.3 460.6,152.3 460.6,139.6 "/>
<path style="fill:#231F20;" d="M480.8,143h-1.4c0-1-0.2-1.7-0.5-1.9c-0.3-0.3-1.1-0.4-2.4-0.4c-1.5,0-2.5,0.1-2.9,0.4
	s-0.6,0.8-0.6,1.8c0,1,0.2,1.6,0.5,1.9c0.3,0.2,1.4,0.4,3,0.5c2,0.1,3.2,0.3,3.8,0.8c0.5,0.4,0.8,1.3,0.8,2.8c0,1.6-0.3,2.6-0.9,3
	c-0.6,0.5-2,0.7-4.1,0.7c-1.8,0-3-0.2-3.6-0.7c-0.6-0.5-0.9-1.4-0.9-2.8l0-0.6h1.4v0.3c0,1.1,0.2,1.8,0.5,2.1s1.2,0.4,2.7,0.4
	c1.6,0,2.6-0.1,3-0.4c0.4-0.3,0.6-1,0.6-2.2c0-0.8-0.1-1.3-0.4-1.5c-0.3-0.3-0.8-0.4-1.6-0.5l-1.5-0.1l-1.4-0.1
	c-2.1-0.1-3.2-1.3-3.2-3.3c0-1.4,0.3-2.4,0.9-2.9c0.6-0.5,1.9-0.7,3.7-0.7c1.9,0,3.1,0.2,3.7,0.7C480.5,140.6,480.8,141.6,480.8,143
	z"/>
</svg>
