<?xml version="1.0" encoding="utf-8"?>
<!-- Generator: Adobe Illustrator 13.0.0, SVG Export Plug-In  -->
<!DOCTYPE svg PUBLIC "-//W3C//DTD SVG 1.1//EN" "http://www.w3.org/Graphics/SVG/1.1/DTD/svg11.dtd" [
	<!ENTITY ns_flows "http://ns.adobe.com/Flows/1.0/">
	<!ENTITY st0 "fill:#00A551;stroke:#000000;">
]>
<svg version="1.1"
	 xmlns="http://www.w3.org/2000/svg" xmlns:xlink="http://www.w3.org/1999/xlink" xmlns:a="http://ns.adobe.com/AdobeSVGViewerExtensions/3.0/"
	 x="0px" y="0px" width="400px" height="35px" viewBox="-12.8 -4.6 400 35" style="enable-background:new -12.8 -4.6 400 35;"
	 xml:space="preserve">
<defs>
</defs>
<path style="&st0;" d="M5.7,3.7l5.5,16.2l5.5-16.3c0.3-0.9,0.5-1.5,0.6-1.8c0.1-0.3,0.4-0.6,0.7-0.9c0.3-0.3,0.8-0.4,1.4-0.4
	c0.4,0,0.8,0.1,1.2,0.3c0.4,0.2,0.6,0.5,0.8,0.8c0.2,0.3,0.3,0.7,0.3,1c0,0.2,0,0.5-0.1,0.8c-0.1,0.3-0.1,0.6-0.2,0.8
	c-0.1,0.3-0.2,0.5-0.3,0.8l-5.9,15.8c-0.2,0.6-0.4,1.2-0.6,1.7c-0.2,0.5-0.4,1-0.7,1.4c-0.3,0.4-0.6,0.7-1.1,1
	c-0.5,0.3-1,0.4-1.7,0.4s-1.2-0.1-1.7-0.4s-0.8-0.6-1.1-1c-0.3-0.4-0.5-0.9-0.7-1.4c-0.2-0.5-0.4-1.1-0.6-1.7L1.2,5.3
	C1.1,5,1,4.7,0.9,4.4C0.8,4.1,0.7,3.9,0.6,3.5S0.5,2.9,0.5,2.7c0-0.6,0.2-1.1,0.7-1.5c0.4-0.5,1-0.7,1.7-0.7c0.8,0,1.4,0.3,1.8,0.8
	C5,1.8,5.3,2.6,5.7,3.7z"/>
<path style="&st0;" d="M25.5,22.5v-19c0-1,0.2-1.7,0.7-2.2c0.4-0.5,1-0.7,1.7-0.7c0.7,0,1.3,0.2,1.8,0.7c0.5,0.5,0.7,1.2,0.7,2.2v19
	c0,1-0.2,1.7-0.7,2.2c-0.5,0.5-1.1,0.7-1.8,0.7c-0.7,0-1.3-0.2-1.7-0.7C25.8,24.2,25.5,23.5,25.5,22.5z"/>
<path style="&st0;" d="M51.8,4.7h-11v5.9H51c0.8,0,1.3,0.2,1.7,0.5c0.4,0.3,0.6,0.8,0.6,1.3c0,0.6-0.2,1-0.5,1.3
	c-0.4,0.3-0.9,0.5-1.7,0.5H40.8v6.9h11.4c0.8,0,1.4,0.2,1.7,0.5c0.4,0.4,0.6,0.8,0.6,1.4c0,0.6-0.2,1-0.6,1.4
	c-0.4,0.4-1,0.5-1.7,0.5H38.9c-1.1,0-1.8-0.2-2.3-0.7s-0.7-1.2-0.7-2.3V3.9c0-0.7,0.1-1.3,0.3-1.7c0.2-0.4,0.5-0.8,1-1
	s1-0.3,1.7-0.3h12.9c0.8,0,1.4,0.2,1.7,0.5c0.4,0.3,0.6,0.8,0.6,1.4c0,0.6-0.2,1-0.6,1.4C53.2,4.5,52.6,4.7,51.8,4.7z"/>
<path style="&st0;" d="M75.5,21.3L71.6,6.8l-4,14.5c-0.3,1.1-0.6,1.9-0.7,2.4c-0.2,0.5-0.5,0.9-0.9,1.3c-0.5,0.4-1.1,0.6-1.8,0.6
	c-0.6,0-1.1-0.1-1.5-0.3c-0.4-0.2-0.7-0.5-0.9-1c-0.2-0.4-0.4-0.9-0.6-1.5c-0.2-0.6-0.3-1.1-0.4-1.6l-4-16.3
	c-0.2-0.9-0.4-1.7-0.4-2.2c0-0.6,0.2-1.2,0.7-1.6c0.4-0.4,1-0.6,1.6-0.6c0.9,0,1.5,0.3,1.8,0.9c0.3,0.6,0.6,1.4,0.8,2.5l3.2,14.1
	L68,4.8c0.3-1,0.5-1.8,0.7-2.3c0.2-0.5,0.6-1,1-1.4c0.5-0.4,1.1-0.6,1.9-0.6c0.8,0,1.5,0.2,1.9,0.6c0.5,0.4,0.8,0.8,1,1.3
	c0.2,0.5,0.4,1.2,0.7,2.3l3.6,13.2l3.2-14.1c0.2-0.7,0.3-1.3,0.4-1.7c0.1-0.4,0.4-0.8,0.7-1.1c0.3-0.3,0.8-0.5,1.5-0.5
	c0.6,0,1.2,0.2,1.6,0.6s0.7,1,0.7,1.6c0,0.5-0.1,1.2-0.4,2.2l-4,16.3c-0.3,1.1-0.5,1.9-0.7,2.4c-0.2,0.5-0.5,1-0.9,1.3
	c-0.4,0.4-1,0.6-1.8,0.6c-0.7,0-1.3-0.2-1.8-0.6c-0.4-0.4-0.8-0.8-0.9-1.3C76.1,23.2,75.9,22.4,75.5,21.3z"/>
<path style="&st0;" d="M119.1,17.4c0,0.8-0.2,1.6-0.6,2.5c-0.4,0.9-1,1.8-1.8,2.6c-0.8,0.9-1.9,1.6-3.1,2.1
	c-1.3,0.5-2.7,0.8-4.4,0.8c-1.3,0-2.4-0.1-3.5-0.4c-1-0.2-2-0.6-2.8-1.1s-1.6-1.2-2.4-2c-0.6-0.8-1.2-1.6-1.6-2.5
	c-0.4-0.9-0.8-1.9-1-3c-0.2-1.1-0.3-2.2-0.3-3.4c0-1.9,0.3-3.7,0.8-5.2c0.6-1.5,1.4-2.9,2.4-3.9c1.1-1.1,2.3-1.9,3.7-2.5
	c1.4-0.6,2.9-0.9,4.5-0.9c2,0,3.7,0.4,5.2,1.2c1.5,0.8,2.7,1.7,3.5,2.9c0.8,1.1,1.2,2.2,1.2,3.3c0,0.6-0.2,1.1-0.6,1.5
	c-0.4,0.4-0.9,0.6-1.4,0.6c-0.6,0-1.1-0.1-1.4-0.4c-0.3-0.3-0.7-0.8-1-1.5c-0.6-1.2-1.4-2.1-2.3-2.7c-0.9-0.6-1.9-0.9-3.2-0.9
	c-2,0-3.6,0.8-4.8,2.3c-1.2,1.5-1.8,3.7-1.8,6.5c0,1.9,0.3,3.4,0.8,4.7c0.5,1.2,1.3,2.2,2.2,2.8c1,0.6,2.1,0.9,3.4,0.9
	c1.4,0,2.6-0.3,3.6-1c1-0.7,1.7-1.7,2.2-3.1c0.2-0.6,0.5-1.2,0.8-1.6c0.3-0.4,0.8-0.6,1.5-0.6c0.6,0,1.1,0.2,1.5,0.6
	C118.9,16.3,119.1,16.8,119.1,17.4z"/>
<path style="&st0;" d="M134.1,0.5c2.5,0,4.7,0.5,6.5,1.5c1.8,1,3.2,2.5,4.1,4.3c0.9,1.9,1.4,4.1,1.4,6.6c0,1.9-0.3,3.6-0.8,5.1
	c-0.5,1.5-1.3,2.9-2.3,4c-1,1.1-2.3,2-3.7,2.6c-1.5,0.6-3.2,0.9-5.1,0.9c-1.9,0-3.6-0.3-5.1-0.9c-1.5-0.6-2.7-1.5-3.7-2.6
	c-1-1.1-1.8-2.4-2.3-4s-0.8-3.2-0.8-5.1c0-1.9,0.3-3.6,0.8-5.1c0.5-1.6,1.3-2.9,2.3-4c1-1.1,2.2-1.9,3.7-2.5
	C130.6,0.8,132.3,0.5,134.1,0.5L134.1,0.5z M141.1,12.9c0-1.8-0.3-3.3-0.9-4.6c-0.6-1.3-1.4-2.3-2.5-2.9c-1.1-0.7-2.3-1-3.7-1
	c-1,0-1.9,0.2-2.7,0.6c-0.8,0.4-1.5,0.9-2.1,1.6c-0.6,0.7-1.1,1.6-1.4,2.7c-0.3,1.1-0.5,2.3-0.5,3.7c0,1.4,0.2,2.6,0.5,3.7
	c0.3,1.1,0.8,2,1.5,2.8s1.4,1.3,2.2,1.6c0.8,0.4,1.7,0.5,2.7,0.5c1.3,0,2.4-0.3,3.5-0.9c1.1-0.6,1.9-1.6,2.5-2.9
	C140.8,16.4,141.1,14.8,141.1,12.9z"/>
<path style="&st0;" d="M155,3.5V21h9.9c0.8,0,1.4,0.2,1.8,0.6c0.4,0.4,0.6,0.9,0.6,1.4c0,0.6-0.2,1.1-0.6,1.4
	c-0.4,0.4-1,0.6-1.8,0.6h-11.8c-1.1,0-1.8-0.2-2.3-0.7s-0.7-1.2-0.7-2.3V3.5c0-1,0.2-1.7,0.7-2.2c0.4-0.5,1-0.7,1.8-0.7
	c0.7,0,1.3,0.2,1.8,0.7C154.8,1.7,155,2.5,155,3.5z"/>
<path style="&st0;" d="M179.6,0.5c2.5,0,4.7,0.5,6.5,1.5c1.8,1,3.2,2.5,4.1,4.3c0.9,1.9,1.4,4.1,1.4,6.6c0,1.9-0.3,3.6-0.8,5.1
	c-0.5,1.5-1.3,2.9-2.3,4s-2.3,2-3.7,2.6c-1.5,0.6-3.2,0.9-5.1,0.9c-1.9,0-3.6-0.3-5.1-0.9c-1.5-0.6-2.7-1.5-3.7-2.6
	c-1-1.1-1.8-2.4-2.3-4c-0.5-1.6-0.8-3.2-0.8-5.1c0-1.9,0.3-3.6,0.8-5.1c0.5-1.6,1.3-2.9,2.3-4c1-1.1,2.2-1.9,3.7-2.5
	C176.1,0.8,177.7,0.5,179.6,0.5L179.6,0.5z M186.5,12.9c0-1.8-0.3-3.3-0.9-4.6c-0.6-1.3-1.4-2.3-2.5-2.9c-1.1-0.7-2.3-1-3.6-1
	c-1,0-1.9,0.2-2.7,0.6c-0.8,0.4-1.5,0.9-2.1,1.6c-0.6,0.7-1.1,1.6-1.4,2.7c-0.3,1.1-0.5,2.3-0.5,3.7c0,1.4,0.2,2.6,0.5,3.7
	c0.4,1.1,0.8,2,1.5,2.8s1.4,1.3,2.2,1.6c0.8,0.4,1.7,0.5,2.7,0.5c1.3,0,2.4-0.3,3.5-0.9c1.1-0.6,1.9-1.6,2.5-2.9
	C186.2,16.4,186.5,14.8,186.5,12.9z"/>
<path style="&st0;" d="M195.7,15.1V3.5c0-1,0.2-1.7,0.7-2.2c0.4-0.5,1-0.7,1.8-0.7c0.8,0,1.4,0.2,1.8,0.7c0.4,0.5,0.7,1.2,0.7,2.2
	v11.9c0,1.4,0.2,2.5,0.5,3.4c0.3,0.9,0.8,1.6,1.6,2.1s1.8,0.7,3.2,0.7c1.9,0,3.3-0.5,4.1-1.5c0.8-1,1.2-2.6,1.2-4.6v-12
	c0-1,0.2-1.7,0.7-2.2c0.4-0.5,1-0.7,1.8-0.7c0.7,0,1.3,0.2,1.8,0.7c0.5,0.5,0.7,1.2,0.7,2.2v11.6c0,1.9-0.2,3.5-0.6,4.7
	c-0.4,1.3-1.1,2.4-2.1,3.3c-0.9,0.8-1.9,1.4-3.1,1.8c-1.2,0.4-2.5,0.6-4.1,0.6c-1.9,0-3.5-0.2-4.8-0.6c-1.3-0.4-2.4-1-3.3-1.9
	c-0.8-0.8-1.5-1.9-1.9-3.2C195.9,18.5,195.7,16.9,195.7,15.1z"/>
<path style="&st0;" d="M227.9,14.7h-1.7v7.8c0,1-0.2,1.8-0.7,2.3c-0.4,0.5-1,0.7-1.8,0.7c-0.8,0-1.4-0.3-1.8-0.8
	c-0.4-0.5-0.6-1.2-0.6-2.2V3.9c0-1.1,0.2-1.8,0.7-2.3c0.5-0.5,1.2-0.7,2.3-0.7h8c1.1,0,2,0,2.8,0.1c0.8,0.1,1.5,0.3,2.1,0.6
	c0.8,0.3,1.4,0.8,2,1.4c0.6,0.6,1,1.3,1.3,2.1c0.3,0.8,0.5,1.6,0.5,2.5c0,1.8-0.5,3.2-1.5,4.3c-1,1.1-2.6,1.8-4.6,2.3
	c0.9,0.5,1.7,1.1,2.5,2c0.8,0.9,1.5,1.9,2.1,2.9c0.6,1,1.1,1.9,1.5,2.8c0.3,0.8,0.5,1.4,0.5,1.7c0,0.3-0.1,0.6-0.3,1
	c-0.2,0.3-0.5,0.6-0.8,0.7c-0.4,0.2-0.8,0.3-1.2,0.3c-0.5,0-1-0.1-1.4-0.4c-0.4-0.3-0.7-0.6-1-1s-0.6-1-1.1-1.7l-2-3.3
	c-0.7-1.2-1.3-2.1-1.9-2.7c-0.6-0.6-1.1-1.1-1.7-1.3C229.5,14.9,228.8,14.7,227.9,14.7L227.9,14.7z M230.7,4.6h-4.5v6.6h4.4
	c1.2,0,2.2-0.1,3-0.3c0.8-0.2,1.4-0.6,1.8-1c0.4-0.5,0.6-1.2,0.6-2c0-0.7-0.2-1.3-0.5-1.8c-0.3-0.5-0.8-0.9-1.4-1.1
	C233.5,4.7,232.4,4.6,230.7,4.6z"/>
<path style="&st0;" d="M260.6,14.7h-1.7v7.8c0,1-0.2,1.8-0.7,2.3c-0.5,0.5-1,0.7-1.8,0.7c-0.8,0-1.4-0.3-1.8-0.8
	c-0.4-0.5-0.6-1.2-0.6-2.2V3.9c0-1.1,0.2-1.8,0.7-2.3c0.5-0.5,1.2-0.7,2.3-0.7h8c1.1,0,2,0,2.8,0.1c0.8,0.1,1.5,0.3,2.1,0.6
	c0.8,0.3,1.4,0.8,2,1.4c0.6,0.6,1,1.3,1.3,2.1c0.3,0.8,0.5,1.6,0.5,2.5c0,1.8-0.5,3.2-1.5,4.3c-1,1.1-2.6,1.8-4.6,2.3
	c0.9,0.5,1.7,1.1,2.5,2c0.8,0.9,1.5,1.9,2.1,2.9c0.6,1,1.1,1.9,1.5,2.8c0.3,0.8,0.5,1.4,0.5,1.7c0,0.3-0.1,0.6-0.3,1
	c-0.2,0.3-0.5,0.6-0.8,0.7c-0.4,0.2-0.8,0.3-1.2,0.3c-0.5,0-1-0.1-1.4-0.4s-0.7-0.6-1-1s-0.6-1-1.1-1.7l-2-3.3
	c-0.7-1.2-1.3-2.1-1.9-2.7c-0.6-0.6-1.1-1.1-1.7-1.3C262.2,14.9,261.5,14.7,260.6,14.7L260.6,14.7z M263.4,4.6h-4.5v6.6h4.4
	c1.2,0,2.2-0.1,3-0.3c0.8-0.2,1.4-0.6,1.8-1c0.4-0.5,0.6-1.2,0.6-2c0-0.7-0.2-1.3-0.5-1.8c-0.3-0.5-0.8-0.9-1.4-1.1
	C266.2,4.7,265.1,4.6,263.4,4.6z"/>
<path style="&st0;" d="M293.7,22.3l-1.2-3h-9.8l-1.2,3.1c-0.5,1.2-0.8,2-1.2,2.4c-0.3,0.4-0.8,0.6-1.6,0.6c-0.6,0-1.2-0.2-1.6-0.7
	c-0.5-0.5-0.7-1-0.7-1.5c0-0.3,0.1-0.7,0.2-1c0.1-0.4,0.3-0.8,0.5-1.5l6.2-15.7c0.2-0.5,0.4-1,0.6-1.6c0.2-0.6,0.5-1.2,0.8-1.6
	c0.3-0.4,0.7-0.8,1.1-1c0.5-0.3,1-0.4,1.7-0.4c0.7,0,1.2,0.1,1.7,0.4c0.5,0.3,0.8,0.6,1.1,1c0.3,0.4,0.5,0.8,0.7,1.3
	c0.2,0.5,0.4,1.1,0.7,1.9l6.3,15.6c0.5,1.2,0.7,2,0.7,2.6c0,0.6-0.2,1.1-0.7,1.5c-0.5,0.5-1,0.7-1.7,0.7c-0.4,0-0.7-0.1-1-0.2
	c-0.3-0.1-0.5-0.3-0.7-0.6c-0.2-0.2-0.4-0.6-0.6-1.1C294.1,23.1,293.9,22.7,293.7,22.3L293.7,22.3z M284.1,15.6h7.2l-3.6-10
	L284.1,15.6z"/>
<path style="&st0;" d="M308.9,3.4l9.4,14.2V3.3c0-0.9,0.2-1.6,0.6-2.1c0.4-0.5,0.9-0.7,1.6-0.7c0.7,0,1.3,0.2,1.7,0.7
	c0.4,0.5,0.6,1.2,0.6,2.1v19c0,2.1-0.9,3.2-2.6,3.2c-0.4,0-0.8-0.1-1.2-0.2c-0.3-0.1-0.7-0.3-1-0.6c-0.3-0.3-0.6-0.6-0.9-1
	c-0.3-0.4-0.5-0.7-0.8-1.1l-9.2-14.1v14.2c0,0.9-0.2,1.6-0.6,2.1c-0.4,0.5-1,0.7-1.6,0.7c-0.7,0-1.3-0.2-1.7-0.7
	c-0.4-0.5-0.6-1.2-0.6-2.1V4c0-0.8,0.1-1.4,0.3-1.9c0.2-0.5,0.6-0.9,1-1.2c0.5-0.3,1-0.5,1.6-0.5c0.4,0,0.8,0.1,1.1,0.2
	c0.3,0.1,0.6,0.3,0.8,0.6c0.2,0.2,0.5,0.6,0.7,0.9C308.4,2.6,308.7,3,308.9,3.4z"/>
<path style="&st0;" d="M350.3,15.2v4.6c0,0.6-0.1,1.1-0.2,1.5c-0.1,0.4-0.3,0.7-0.7,1c-0.3,0.3-0.7,0.6-1.2,0.9
	c-1.5,0.8-2.9,1.4-4.2,1.7c-1.3,0.4-2.8,0.5-4.4,0.5c-1.9,0-3.6-0.3-5.1-0.9c-1.5-0.6-2.8-1.4-3.9-2.5c-1.1-1.1-1.9-2.4-2.5-4
	c-0.6-1.5-0.9-3.3-0.9-5.2c0-1.9,0.3-3.6,0.8-5.2c0.6-1.6,1.4-2.9,2.5-4c1.1-1.1,2.4-1.9,4-2.5c1.6-0.6,3.3-0.9,5.3-0.9
	c1.6,0,3.1,0.2,4.3,0.7c1.3,0.4,2.3,1,3,1.6c0.8,0.7,1.4,1.4,1.8,2.1c0.4,0.7,0.6,1.4,0.6,2c0,0.6-0.2,1.1-0.7,1.6
	c-0.5,0.4-1,0.7-1.6,0.7c-0.4,0-0.7-0.1-1-0.2c-0.3-0.2-0.6-0.4-0.8-0.7c-0.6-0.9-1.1-1.7-1.5-2.1c-0.4-0.5-1-0.9-1.7-1.2
	c-0.7-0.3-1.6-0.5-2.7-0.5c-1.1,0-2.1,0.2-3,0.6c-0.9,0.4-1.7,1-2.3,1.7c-0.6,0.7-1.1,1.6-1.5,2.7c-0.3,1.1-0.5,2.3-0.5,3.6
	c0,2.8,0.7,5,2,6.5c1.3,1.5,3.1,2.3,5.4,2.3c1.1,0,2.2-0.1,3.2-0.4c1-0.3,2-0.7,3-1.3v-3.9H342c-0.9,0-1.6-0.1-2.1-0.4
	c-0.5-0.3-0.7-0.7-0.7-1.4c0-0.5,0.2-1,0.6-1.3c0.4-0.4,0.9-0.5,1.6-0.5h5.5c0.7,0,1.3,0.1,1.7,0.2c0.5,0.1,0.9,0.4,1.1,0.8
	C350.1,13.8,350.3,14.4,350.3,15.2z"/>
<path style="&st0;" d="M370.9,4.7h-11v5.9H370c0.7,0,1.3,0.2,1.7,0.5c0.4,0.3,0.6,0.8,0.6,1.3c0,0.6-0.2,1-0.5,1.3
	c-0.4,0.3-0.9,0.5-1.7,0.5h-10.2v6.9h11.4c0.8,0,1.4,0.2,1.7,0.5c0.4,0.4,0.6,0.8,0.6,1.4c0,0.6-0.2,1-0.6,1.4
	c-0.4,0.4-1,0.5-1.7,0.5h-13.3c-1.1,0-1.8-0.2-2.3-0.7s-0.7-1.2-0.7-2.3V3.9c0-0.7,0.1-1.3,0.3-1.7c0.2-0.4,0.5-0.8,1-1
	s1-0.3,1.7-0.3h12.9c0.8,0,1.4,0.2,1.7,0.5c0.4,0.3,0.6,0.8,0.6,1.4c0,0.6-0.2,1-0.6,1.4C372.2,4.5,371.6,4.7,370.9,4.7z"/>
<path style="&st0;" d="M5.7,3.7l5.5,16.2l5.5-16.3c0.3-0.9,0.5-1.5,0.6-1.8c0.1-0.3,0.4-0.6,0.7-0.9c0.3-0.3,0.8-0.4,1.4-0.4
	c0.4,0,0.8,0.1,1.2,0.3c0.4,0.2,0.6,0.5,0.8,0.8c0.2,0.3,0.3,0.7,0.3,1c0,0.2,0,0.5-0.1,0.8c-0.1,0.3-0.1,0.6-0.2,0.8
	c-0.1,0.3-0.2,0.5-0.3,0.8l-5.9,15.8c-0.2,0.6-0.4,1.2-0.6,1.7c-0.2,0.5-0.4,1-0.7,1.4c-0.3,0.4-0.6,0.7-1.1,1
	c-0.5,0.3-1,0.4-1.7,0.4s-1.2-0.1-1.7-0.4s-0.8-0.6-1.1-1c-0.3-0.4-0.5-0.9-0.7-1.4c-0.2-0.5-0.4-1.1-0.6-1.7L1.2,5.3
	C1.1,5,1,4.7,0.9,4.4C0.8,4.1,0.7,3.9,0.6,3.5S0.5,2.9,0.5,2.7c0-0.6,0.2-1.1,0.7-1.5c0.4-0.5,1-0.7,1.7-0.7c0.8,0,1.4,0.3,1.8,0.8
	C5,1.8,5.3,2.6,5.7,3.7z"/>
<path style="&st0;" d="M25.5,22.5v-19c0-1,0.2-1.7,0.7-2.2c0.4-0.5,1-0.7,1.7-0.7c0.7,0,1.3,0.2,1.8,0.7c0.5,0.5,0.7,1.2,0.7,2.2v19
	c0,1-0.2,1.7-0.7,2.2c-0.5,0.5-1.1,0.7-1.8,0.7c-0.7,0-1.3-0.2-1.7-0.7C25.8,24.2,25.5,23.5,25.5,22.5z"/>
<path style="&st0;" d="M51.8,4.7h-11v5.9H51c0.8,0,1.3,0.2,1.7,0.5c0.4,0.3,0.6,0.8,0.6,1.3c0,0.6-0.2,1-0.5,1.3
	c-0.4,0.3-0.9,0.5-1.7,0.5H40.8v6.9h11.4c0.8,0,1.4,0.2,1.7,0.5c0.4,0.4,0.6,0.8,0.6,1.4c0,0.6-0.2,1-0.6,1.4
	c-0.4,0.4-1,0.5-1.7,0.5H38.9c-1.1,0-1.8-0.2-2.3-0.7s-0.7-1.2-0.7-2.3V3.9c0-0.7,0.1-1.3,0.3-1.7c0.2-0.4,0.5-0.8,1-1
	s1-0.3,1.7-0.3h12.9c0.8,0,1.4,0.2,1.7,0.5c0.4,0.3,0.6,0.8,0.6,1.4c0,0.6-0.2,1-0.6,1.4C53.2,4.5,52.6,4.7,51.8,4.7z"/>
<path style="&st0;" d="M75.5,21.3L71.6,6.8l-4,14.5c-0.3,1.1-0.6,1.9-0.7,2.4c-0.2,0.5-0.5,0.9-0.9,1.3c-0.5,0.4-1.1,0.6-1.8,0.6
	c-0.6,0-1.1-0.1-1.5-0.3c-0.4-0.2-0.7-0.5-0.9-1c-0.2-0.4-0.4-0.9-0.6-1.5c-0.2-0.6-0.3-1.1-0.4-1.6l-4-16.3
	c-0.2-0.9-0.4-1.7-0.4-2.2c0-0.6,0.2-1.2,0.7-1.6c0.4-0.4,1-0.6,1.6-0.6c0.9,0,1.5,0.3,1.8,0.9c0.3,0.6,0.6,1.4,0.8,2.5l3.2,14.1
	L68,4.8c0.3-1,0.5-1.8,0.7-2.3c0.2-0.5,0.6-1,1-1.4c0.5-0.4,1.1-0.6,1.9-0.6c0.8,0,1.5,0.2,1.9,0.6c0.5,0.4,0.8,0.8,1,1.3
	c0.2,0.5,0.4,1.2,0.7,2.3l3.6,13.2l3.2-14.1c0.2-0.7,0.3-1.3,0.4-1.7c0.1-0.4,0.4-0.8,0.7-1.1c0.3-0.3,0.8-0.5,1.5-0.5
	c0.6,0,1.2,0.2,1.6,0.6s0.7,1,0.7,1.6c0,0.5-0.1,1.2-0.4,2.2l-4,16.3c-0.3,1.1-0.5,1.9-0.7,2.4c-0.2,0.5-0.5,1-0.9,1.3
	c-0.4,0.4-1,0.6-1.8,0.6c-0.7,0-1.3-0.2-1.8-0.6c-0.4-0.4-0.8-0.8-0.9-1.3C76.1,23.2,75.9,22.4,75.5,21.3z"/>
<path style="&st0;" d="M119.1,17.4c0,0.8-0.2,1.6-0.6,2.5c-0.4,0.9-1,1.8-1.8,2.6c-0.8,0.9-1.9,1.6-3.1,2.1
	c-1.3,0.5-2.7,0.8-4.4,0.8c-1.3,0-2.4-0.1-3.5-0.4c-1-0.2-2-0.6-2.8-1.1s-1.6-1.2-2.4-2c-0.6-0.8-1.2-1.6-1.6-2.5
	c-0.4-0.9-0.8-1.9-1-3c-0.2-1.1-0.3-2.2-0.3-3.4c0-1.9,0.3-3.7,0.8-5.2c0.6-1.5,1.4-2.9,2.4-3.9c1.1-1.1,2.3-1.9,3.7-2.5
	c1.4-0.6,2.9-0.9,4.5-0.9c2,0,3.7,0.4,5.2,1.2c1.5,0.8,2.7,1.7,3.5,2.9c0.8,1.1,1.2,2.2,1.2,3.3c0,0.6-0.2,1.1-0.6,1.5
	c-0.4,0.4-0.9,0.6-1.4,0.6c-0.6,0-1.1-0.1-1.4-0.4c-0.3-0.3-0.7-0.8-1-1.5c-0.6-1.2-1.4-2.1-2.3-2.7c-0.9-0.6-1.9-0.9-3.2-0.9
	c-2,0-3.6,0.8-4.8,2.3c-1.2,1.5-1.8,3.7-1.8,6.5c0,1.9,0.3,3.4,0.8,4.7c0.5,1.2,1.3,2.2,2.2,2.8c1,0.6,2.1,0.9,3.4,0.9
	c1.4,0,2.6-0.3,3.6-1c1-0.7,1.7-1.7,2.2-3.1c0.2-0.6,0.5-1.2,0.8-1.6c0.3-0.4,0.8-0.6,1.5-0.6c0.6,0,1.1,0.2,1.5,0.6
	C118.9,16.3,119.1,16.8,119.1,17.4z"/>
<path style="&st0;" d="M134.1,0.5c2.5,0,4.7,0.5,6.5,1.5c1.8,1,3.2,2.5,4.1,4.3c0.9,1.9,1.4,4.1,1.4,6.6c0,1.9-0.3,3.6-0.8,5.1
	c-0.5,1.5-1.3,2.9-2.3,4c-1,1.1-2.3,2-3.7,2.6c-1.5,0.6-3.2,0.9-5.1,0.9c-1.9,0-3.6-0.3-5.1-0.9c-1.5-0.6-2.7-1.5-3.7-2.6
	c-1-1.1-1.8-2.4-2.3-4s-0.8-3.2-0.8-5.1c0-1.9,0.3-3.6,0.8-5.1c0.5-1.6,1.3-2.9,2.3-4c1-1.1,2.2-1.9,3.7-2.5
	C130.6,0.8,132.3,0.5,134.1,0.5L134.1,0.5z M141.1,12.9c0-1.8-0.3-3.3-0.9-4.6c-0.6-1.3-1.4-2.3-2.5-2.9c-1.1-0.7-2.3-1-3.7-1
	c-1,0-1.9,0.2-2.7,0.6c-0.8,0.4-1.5,0.9-2.1,1.6c-0.6,0.7-1.1,1.6-1.4,2.7c-0.3,1.1-0.5,2.3-0.5,3.7c0,1.4,0.2,2.6,0.5,3.7
	c0.3,1.1,0.8,2,1.5,2.8s1.4,1.3,2.2,1.6c0.8,0.4,1.7,0.5,2.7,0.5c1.3,0,2.4-0.3,3.5-0.9c1.1-0.6,1.9-1.6,2.5-2.9
	C140.8,16.4,141.1,14.8,141.1,12.9z"/>
<path style="&st0;" d="M155,3.5V21h9.9c0.8,0,1.4,0.2,1.8,0.6c0.4,0.4,0.6,0.9,0.6,1.4c0,0.6-0.2,1.1-0.6,1.4
	c-0.4,0.4-1,0.6-1.8,0.6h-11.8c-1.1,0-1.8-0.2-2.3-0.7s-0.7-1.2-0.7-2.3V3.5c0-1,0.2-1.7,0.7-2.2c0.4-0.5,1-0.7,1.8-0.7
	c0.7,0,1.3,0.2,1.8,0.7C154.8,1.7,155,2.5,155,3.5z"/>
<path style="&st0;" d="M179.6,0.5c2.5,0,4.7,0.5,6.5,1.5c1.8,1,3.2,2.5,4.1,4.3c0.9,1.9,1.4,4.1,1.4,6.6c0,1.9-0.3,3.6-0.8,5.1
	c-0.5,1.5-1.3,2.9-2.3,4s-2.3,2-3.7,2.6c-1.5,0.6-3.2,0.9-5.1,0.9c-1.9,0-3.6-0.3-5.1-0.9c-1.5-0.6-2.7-1.5-3.7-2.6
	c-1-1.1-1.8-2.4-2.3-4c-0.5-1.6-0.8-3.2-0.8-5.1c0-1.9,0.3-3.6,0.8-5.1c0.5-1.6,1.3-2.9,2.3-4c1-1.1,2.2-1.9,3.7-2.5
	C176.1,0.8,177.7,0.5,179.6,0.5L179.6,0.5z M186.5,12.9c0-1.8-0.3-3.3-0.9-4.6c-0.6-1.3-1.4-2.3-2.5-2.9c-1.1-0.7-2.3-1-3.6-1
	c-1,0-1.9,0.2-2.7,0.6c-0.8,0.4-1.5,0.9-2.1,1.6c-0.6,0.7-1.1,1.6-1.4,2.7c-0.3,1.1-0.5,2.3-0.5,3.7c0,1.4,0.2,2.6,0.5,3.7
	c0.4,1.1,0.8,2,1.5,2.8s1.4,1.3,2.2,1.6c0.8,0.4,1.7,0.5,2.7,0.5c1.3,0,2.4-0.3,3.5-0.9c1.1-0.6,1.9-1.6,2.5-2.9
	C186.2,16.4,186.5,14.8,186.5,12.9z"/>
<path style="&st0;" d="M195.7,15.1V3.5c0-1,0.2-1.7,0.7-2.2c0.4-0.5,1-0.7,1.8-0.7c0.8,0,1.4,0.2,1.8,0.7c0.4,0.5,0.7,1.2,0.7,2.2
	v11.9c0,1.4,0.2,2.5,0.5,3.4c0.3,0.9,0.8,1.6,1.6,2.1s1.8,0.7,3.2,0.7c1.9,0,3.3-0.5,4.1-1.5c0.8-1,1.2-2.6,1.2-4.6v-12
	c0-1,0.2-1.7,0.7-2.2c0.4-0.5,1-0.7,1.8-0.7c0.7,0,1.3,0.2,1.8,0.7c0.5,0.5,0.7,1.2,0.7,2.2v11.6c0,1.9-0.2,3.5-0.6,4.7
	c-0.4,1.3-1.1,2.4-2.1,3.3c-0.9,0.8-1.9,1.4-3.1,1.8c-1.2,0.4-2.5,0.6-4.1,0.6c-1.9,0-3.5-0.2-4.8-0.6c-1.3-0.4-2.4-1-3.3-1.9
	c-0.8-0.8-1.5-1.9-1.9-3.2C195.9,18.5,195.7,16.9,195.7,15.1z"/>
<path style="&st0;" d="M227.9,14.7h-1.7v7.8c0,1-0.2,1.8-0.7,2.3c-0.4,0.5-1,0.7-1.8,0.7c-0.8,0-1.4-0.3-1.8-0.8
	c-0.4-0.5-0.6-1.2-0.6-2.2V3.9c0-1.1,0.2-1.8,0.7-2.3c0.5-0.5,1.2-0.7,2.3-0.7h8c1.1,0,2,0,2.8,0.1c0.8,0.1,1.5,0.3,2.1,0.6
	c0.8,0.3,1.4,0.8,2,1.4c0.6,0.6,1,1.3,1.3,2.1c0.3,0.8,0.5,1.6,0.5,2.5c0,1.8-0.5,3.2-1.5,4.3c-1,1.1-2.6,1.8-4.6,2.3
	c0.9,0.5,1.7,1.1,2.5,2c0.8,0.9,1.5,1.9,2.1,2.9c0.6,1,1.1,1.9,1.5,2.8c0.3,0.8,0.5,1.4,0.5,1.7c0,0.3-0.1,0.6-0.3,1
	c-0.2,0.3-0.5,0.6-0.8,0.7c-0.4,0.2-0.8,0.3-1.2,0.3c-0.5,0-1-0.1-1.4-0.4c-0.4-0.3-0.7-0.6-1-1s-0.6-1-1.1-1.7l-2-3.3
	c-0.7-1.2-1.3-2.1-1.9-2.7c-0.6-0.6-1.1-1.1-1.7-1.3C229.5,14.9,228.8,14.7,227.9,14.7L227.9,14.7z M230.7,4.6h-4.5v6.6h4.4
	c1.2,0,2.2-0.1,3-0.3c0.8-0.2,1.4-0.6,1.8-1c0.4-0.5,0.6-1.2,0.6-2c0-0.7-0.2-1.3-0.5-1.8c-0.3-0.5-0.8-0.9-1.4-1.1
	C233.5,4.7,232.4,4.6,230.7,4.6z"/>
<path style="&st0;" d="M260.6,14.7h-1.7v7.8c0,1-0.2,1.8-0.7,2.3c-0.5,0.5-1,0.7-1.8,0.7c-0.8,0-1.4-0.3-1.8-0.8
	c-0.4-0.5-0.6-1.2-0.6-2.2V3.9c0-1.1,0.2-1.8,0.7-2.3c0.5-0.5,1.2-0.7,2.3-0.7h8c1.1,0,2,0,2.8,0.1c0.8,0.1,1.5,0.3,2.1,0.6
	c0.8,0.3,1.4,0.8,2,1.4c0.6,0.6,1,1.3,1.3,2.1c0.3,0.8,0.5,1.6,0.5,2.5c0,1.8-0.5,3.2-1.5,4.3c-1,1.1-2.6,1.8-4.6,2.3
	c0.9,0.5,1.7,1.1,2.5,2c0.8,0.9,1.5,1.9,2.1,2.9c0.6,1,1.1,1.9,1.5,2.8c0.3,0.8,0.5,1.4,0.5,1.7c0,0.3-0.1,0.6-0.3,1
	c-0.2,0.3-0.5,0.6-0.8,0.7c-0.4,0.2-0.8,0.3-1.2,0.3c-0.5,0-1-0.1-1.4-0.4s-0.7-0.6-1-1s-0.6-1-1.1-1.7l-2-3.3
	c-0.7-1.2-1.3-2.1-1.9-2.7c-0.6-0.6-1.1-1.1-1.7-1.3C262.2,14.9,261.5,14.7,260.6,14.7L260.6,14.7z M263.4,4.6h-4.5v6.6h4.4
	c1.2,0,2.2-0.1,3-0.3c0.8-0.2,1.4-0.6,1.8-1c0.4-0.5,0.6-1.2,0.6-2c0-0.7-0.2-1.3-0.5-1.8c-0.3-0.5-0.8-0.9-1.4-1.1
	C266.2,4.7,265.1,4.6,263.4,4.6z"/>
<path style="&st0;" d="M293.7,22.3l-1.2-3h-9.8l-1.2,3.1c-0.5,1.2-0.8,2-1.2,2.4c-0.3,0.4-0.8,0.6-1.6,0.6c-0.6,0-1.2-0.2-1.6-0.7
	c-0.5-0.5-0.7-1-0.7-1.5c0-0.3,0.1-0.7,0.2-1c0.1-0.4,0.3-0.8,0.5-1.5l6.2-15.7c0.2-0.5,0.4-1,0.6-1.6c0.2-0.6,0.5-1.2,0.8-1.6
	c0.3-0.4,0.7-0.8,1.1-1c0.5-0.3,1-0.4,1.7-0.4c0.7,0,1.2,0.1,1.7,0.4c0.5,0.3,0.8,0.6,1.1,1c0.3,0.4,0.5,0.8,0.7,1.3
	c0.2,0.5,0.4,1.1,0.7,1.9l6.3,15.6c0.5,1.2,0.7,2,0.7,2.6c0,0.6-0.2,1.1-0.7,1.5c-0.5,0.5-1,0.7-1.7,0.7c-0.4,0-0.7-0.1-1-0.2
	c-0.3-0.1-0.5-0.3-0.7-0.6c-0.2-0.2-0.4-0.6-0.6-1.1C294.1,23.1,293.9,22.7,293.7,22.3L293.7,22.3z M284.1,15.6h7.2l-3.6-10
	L284.1,15.6z"/>
<path style="&st0;" d="M308.9,3.4l9.4,14.2V3.3c0-0.9,0.2-1.6,0.6-2.1c0.4-0.5,0.9-0.7,1.6-0.7c0.7,0,1.3,0.2,1.7,0.7
	c0.4,0.5,0.6,1.2,0.6,2.1v19c0,2.1-0.9,3.2-2.6,3.2c-0.4,0-0.8-0.1-1.2-0.2c-0.3-0.1-0.7-0.3-1-0.6c-0.3-0.3-0.6-0.6-0.9-1
	c-0.3-0.4-0.5-0.7-0.8-1.1l-9.2-14.1v14.2c0,0.9-0.2,1.6-0.6,2.1c-0.4,0.5-1,0.7-1.6,0.7c-0.7,0-1.3-0.2-1.7-0.7
	c-0.4-0.5-0.6-1.2-0.6-2.1V4c0-0.8,0.1-1.4,0.3-1.9c0.2-0.5,0.6-0.9,1-1.2c0.5-0.3,1-0.5,1.6-0.5c0.4,0,0.8,0.1,1.1,0.2
	c0.3,0.1,0.6,0.3,0.8,0.6c0.2,0.2,0.5,0.6,0.7,0.9C308.4,2.6,308.7,3,308.9,3.4z"/>
<path style="&st0;" d="M350.3,15.2v4.6c0,0.6-0.1,1.1-0.2,1.5c-0.1,0.4-0.3,0.7-0.7,1c-0.3,0.3-0.7,0.6-1.2,0.9
	c-1.5,0.8-2.9,1.4-4.2,1.7c-1.3,0.4-2.8,0.5-4.4,0.5c-1.9,0-3.6-0.3-5.1-0.9c-1.5-0.6-2.8-1.4-3.9-2.5c-1.1-1.1-1.9-2.4-2.5-4
	c-0.6-1.5-0.9-3.3-0.9-5.2c0-1.9,0.3-3.6,0.8-5.2c0.6-1.6,1.4-2.9,2.5-4c1.1-1.1,2.4-1.9,4-2.5c1.6-0.6,3.3-0.9,5.3-0.9
	c1.6,0,3.1,0.2,4.3,0.7c1.3,0.4,2.3,1,3,1.6c0.8,0.7,1.4,1.4,1.8,2.1c0.4,0.7,0.6,1.4,0.6,2c0,0.6-0.2,1.1-0.7,1.6
	c-0.5,0.4-1,0.7-1.6,0.7c-0.4,0-0.7-0.1-1-0.2c-0.3-0.2-0.6-0.4-0.8-0.7c-0.6-0.9-1.1-1.7-1.5-2.1c-0.4-0.5-1-0.9-1.7-1.2
	c-0.7-0.3-1.6-0.5-2.7-0.5c-1.1,0-2.1,0.2-3,0.6c-0.9,0.4-1.7,1-2.3,1.7c-0.6,0.7-1.1,1.6-1.5,2.7c-0.3,1.1-0.5,2.3-0.5,3.6
	c0,2.8,0.7,5,2,6.5c1.3,1.5,3.1,2.3,5.4,2.3c1.1,0,2.2-0.1,3.2-0.4c1-0.3,2-0.7,3-1.3v-3.9H342c-0.9,0-1.6-0.1-2.1-0.4
	c-0.5-0.3-0.7-0.7-0.7-1.4c0-0.5,0.2-1,0.6-1.3c0.4-0.4,0.9-0.5,1.6-0.5h5.5c0.7,0,1.3,0.1,1.7,0.2c0.5,0.1,0.9,0.4,1.1,0.8
	C350.1,13.8,350.3,14.4,350.3,15.2z"/>
<path style="&st0;" d="M370.9,4.7h-11v5.9H370c0.7,0,1.3,0.2,1.7,0.5c0.4,0.3,0.6,0.8,0.6,1.3c0,0.6-0.2,1-0.5,1.3
	c-0.4,0.3-0.9,0.5-1.7,0.5h-10.2v6.9h11.4c0.8,0,1.4,0.2,1.7,0.5c0.4,0.4,0.6,0.8,0.6,1.4c0,0.6-0.2,1-0.6,1.4
	c-0.4,0.4-1,0.5-1.7,0.5h-13.3c-1.1,0-1.8-0.2-2.3-0.7s-0.7-1.2-0.7-2.3V3.9c0-0.7,0.1-1.3,0.3-1.7c0.2-0.4,0.5-0.8,1-1
	s1-0.3,1.7-0.3h12.9c0.8,0,1.4,0.2,1.7,0.5c0.4,0.3,0.6,0.8,0.6,1.4c0,0.6-0.2,1-0.6,1.4C372.2,4.5,371.6,4.7,370.9,4.7z"/>
</svg>
