<?xml version="1.0" encoding="utf-8"?>
<!-- Generator: Adobe Illustrator 15.0.0, SVG Export Plug-In  -->
<!DOCTYPE svg PUBLIC "-//W3C//DTD SVG 1.1//EN" "http://www.w3.org/Graphics/SVG/1.1/DTD/svg11.dtd" [
	<!ENTITY ns_flows "http://ns.adobe.com/Flows/1.0/">
]>
<svg version="1.1"
	 xmlns="http://www.w3.org/2000/svg" xmlns:xlink="http://www.w3.org/1999/xlink" xmlns:a="http://ns.adobe.com/AdobeSVGViewerExtensions/3.0/"
	 x="0px" y="0px" width="971px" height="551px" viewBox="-9.8 -14.3 971 551" enable-background="new -9.8 -14.3 971 551"
	 xml:space="preserve">
<defs>
</defs>
<g>
	
		<image overflow="visible" opacity="0.5"  a:adobe-blending-mode="screen"  a:adobe-opacity-share="1" width="3966" height="2185" xlink:href="FAF649ED.png"  transform="matrix(0.24 0 0 0.24 0 0)">
	</image>
	<g>
		<path fill-rule="evenodd" clip-rule="evenodd" fill="#FFFFFF" d="M914.6,15.1c12.2,0,22,9.9,22,22v450c0,12.2-9.8,22-22,22H37.1
			c-12.2,0-22-9.8-22-22v-450c0-12.2,9.8-22,22-22H914.6z"/>
		<path fill="none" stroke="#FFFFFF" stroke-width="0.216" stroke-miterlimit="2.4142" d="M914.6,15.1c12.2,0,22,9.9,22,22v450
			c0,12.2-9.8,22-22,22H37.1c-12.2,0-22-9.8-22-22v-450c0-12.2,9.8-22,22-22H914.6z"/>
	</g>
</g>
<image overflow="visible" width="2393" height="715" xlink:href="FAF649EF.jpg"  transform="matrix(9.592400e-002 0 0 9.592400e-002 117.1489 27.0957)">
</image>
<g>
	<path fill="#EC2127" stroke="#231F20" stroke-width="0.5669" stroke-miterlimit="2.4142" d="M613.4,165h3.2v21.6H627v2.6h-13.5V165
		z"/>
	<path fill="#EC2127" stroke="#231F20" stroke-width="0.5669" stroke-miterlimit="2.4142" d="M633.6,165v24.3h-3.2V165H633.6z"/>
	<path fill="#EC2127" stroke="#231F20" stroke-width="0.5669" stroke-miterlimit="2.4142" d="M644.4,189.2l-8-24.3h3.4l3.8,12
		c1,3.3,1.9,6.2,2.6,9.1h0.1c0.7-2.8,1.7-5.9,2.8-9l4.1-12h3.3l-8.7,24.3H644.4z"/>
	<path fill="#EC2127" stroke="#231F20" stroke-width="0.5669" stroke-miterlimit="2.4142" d="M671.7,177.9h-9.4v8.7h10.5v2.6h-13.7
		V165h13.1v2.6h-10v7.7h9.4V177.9z"/>
	<path fill="#EC2127" stroke="#231F20" stroke-width="0.5669" stroke-miterlimit="2.4142" d="M692.1,165.3c1.4-0.3,3.6-0.5,5.7-0.5
		c3.1,0,5.1,0.5,6.6,1.8c1.3,0.9,2.1,2.4,2.1,4.3c0,2.4-1.6,4.4-4.1,5.3v0.1c2.3,0.5,5,2.4,5,6c0,2.1-0.8,3.7-2.1,4.9
		c-1.7,1.5-4.4,2.3-8.3,2.3c-2.2,0-3.8-0.1-4.9-0.3V165.3z M695.2,175.3h2.8c3.3,0,5.2-1.8,5.2-4.1c0-2.8-2.1-4-5.3-4
		c-1.4,0-2.3,0.1-2.8,0.2V175.3z M695.2,186.9c0.6,0.1,1.5,0.1,2.6,0.1c3.2,0,6.2-1.2,6.2-4.7c0-3.3-2.8-4.7-6.3-4.7h-2.6V186.9z"/>
	<path fill="#EC2127" stroke="#231F20" stroke-width="0.5669" stroke-miterlimit="2.4142" d="M715.5,181.6l-2.5,7.6h-3.2l8.3-24.3
		h3.7l8.3,24.3h-3.3l-2.6-7.6H715.5z M723.5,179.2l-2.4-7c-0.5-1.6-0.9-3-1.3-4.4h-0.1c-0.4,1.4-0.7,2.9-1.2,4.4l-2.4,7H723.5z"/>
	<path fill="#EC2127" stroke="#231F20" stroke-width="0.5669" stroke-miterlimit="2.4142" d="M736.8,165v24.3h-3.2V165H736.8z"/>
	<path fill="#EC2127" stroke="#231F20" stroke-width="0.5669" stroke-miterlimit="2.4142" d="M746.9,167.6h-7.4V165h18v2.7H750v21.6
		h-3.2V167.6z"/>
</g>
<rect x="833.6" y="65.5" fill="none" width="2.6" height="44.7"/>
<rect x="840.3" y="52.8" fill-rule="evenodd" clip-rule="evenodd" fill="#FFFFFF" width="3.2" height="72.5"/>
<image overflow="visible" width="2203" height="1013" xlink:href="FAF649ED.jpg"  transform="matrix(0.1547 0 0 0.1547 85.4087 167.001)">
</image>
<g>
	<path fill="#231F20" d="M134,240.5c0.6-0.1,1.4-0.2,2.2-0.2c1.2,0,2,0.2,2.5,0.7c0.4,0.4,0.7,1,0.7,1.7c0,1.1-0.7,1.9-1.6,2.2v0
		c0.7,0.2,1.1,0.9,1.3,1.8c0.3,1.2,0.5,2.1,0.7,2.4h-1.2c-0.1-0.3-0.3-1-0.6-2.1c-0.3-1.2-0.7-1.7-1.8-1.7h-1.1v3.8H134V240.5z
		 M135.1,244.5h1.2c1.2,0,2-0.7,2-1.7c0-1.1-0.8-1.6-2-1.6c-0.5,0-0.9,0-1.1,0.1V244.5z"/>
	<path fill="#231F20" d="M142.5,246.4l-0.9,2.8h-1.2l3-8.8h1.4l3,8.8h-1.2l-0.9-2.8H142.5z M145.3,245.5l-0.9-2.5
		c-0.2-0.6-0.3-1.1-0.5-1.6h0c-0.1,0.5-0.3,1.1-0.4,1.6l-0.9,2.5H145.3z"/>
	<path fill="#231F20" d="M148.4,248.5l4.8-7.1v0h-4.4v-0.9h5.9v0.7l-4.8,7.1v0h4.9v0.9h-6.4V248.5z"/>
	<path fill="#231F20" d="M163.4,244.7c0,3-1.8,4.6-4.1,4.6c-2.3,0-3.9-1.8-3.9-4.5c0-2.8,1.7-4.6,4.1-4.6
		C161.9,240.2,163.4,242,163.4,244.7z M156.6,244.8c0,1.9,1,3.6,2.8,3.6s2.8-1.7,2.8-3.6c0-1.8-0.9-3.6-2.8-3.6
		C157.5,241.1,156.6,242.9,156.6,244.8z"/>
	<path fill="#231F20" d="M164.9,240.5c0.6-0.1,1.4-0.2,2.2-0.2c1.2,0,2,0.2,2.5,0.7c0.4,0.4,0.7,1,0.7,1.7c0,1.1-0.7,1.9-1.6,2.2v0
		c0.7,0.2,1.1,0.9,1.3,1.8c0.3,1.2,0.5,2.1,0.7,2.4h-1.2c-0.1-0.3-0.3-1-0.6-2.1c-0.3-1.2-0.7-1.7-1.8-1.7H166v3.8h-1.1V240.5z
		 M166,244.5h1.2c1.2,0,2-0.7,2-1.7c0-1.1-0.8-1.6-2-1.6c-0.5,0-0.9,0-1.1,0.1V244.5z"/>
	<path fill="#231F20" d="M171.9,240.5c0.5-0.1,1.3-0.2,2.1-0.2c1.1,0,1.9,0.2,2.4,0.6c0.5,0.3,0.7,0.9,0.7,1.5
		c0,0.9-0.6,1.6-1.5,1.9v0c0.8,0.2,1.8,0.9,1.8,2.2c0,0.8-0.3,1.3-0.8,1.8c-0.6,0.6-1.6,0.8-3,0.8c-0.8,0-1.4-0.1-1.8-0.1V240.5z
		 M173,244.1h1c1.2,0,1.9-0.6,1.9-1.5c0-1-0.8-1.4-1.9-1.4c-0.5,0-0.8,0-1,0.1V244.1z M173,248.3c0.2,0,0.5,0.1,0.9,0.1
		c1.2,0,2.2-0.4,2.2-1.7c0-1.2-1-1.7-2.3-1.7H173V248.3z"/>
	<path fill="#231F20" d="M180.3,246.4l-0.9,2.8h-1.2l3-8.8h1.4l3,8.8h-1.2l-0.9-2.8H180.3z M183.2,245.5l-0.9-2.5
		c-0.2-0.6-0.3-1.1-0.5-1.6h0c-0.1,0.5-0.3,1.1-0.4,1.6l-0.9,2.5H183.2z"/>
	<path fill="#231F20" d="M192.8,248.9c-0.4,0.2-1.2,0.4-2.3,0.4c-2.5,0-4.3-1.6-4.3-4.4c0-2.8,1.9-4.6,4.6-4.6
		c1.1,0,1.8,0.2,2.1,0.4l-0.3,0.9c-0.4-0.2-1-0.4-1.8-0.4c-2.1,0-3.4,1.3-3.4,3.6c0,2.2,1.2,3.5,3.4,3.5c0.7,0,1.4-0.1,1.9-0.4
		L192.8,248.9z"/>
	<path fill="#231F20" d="M194.2,240.4h1.1v4.2h0c0.2-0.3,0.5-0.7,0.7-0.9l2.7-3.3h1.4l-3.2,3.7l3.4,5h-1.3l-2.9-4.3l-0.8,1v3.3h-1.1
		V240.4z"/>
	<path fill="#231F20" d="M204,240.5c0.5-0.1,1.3-0.2,2.2-0.2c1.1,0,1.9,0.3,2.5,0.7c0.5,0.4,0.8,1.1,0.8,1.8c0,0.8-0.2,1.4-0.7,1.9
		c-0.6,0.6-1.6,1-2.7,1c-0.3,0-0.7,0-0.9-0.1v3.5H204V240.5z M205.1,244.7c0.2,0.1,0.6,0.1,0.9,0.1c1.4,0,2.2-0.7,2.2-1.9
		c0-1.2-0.8-1.7-2.1-1.7c-0.5,0-0.9,0-1.1,0.1V244.7z"/>
	<path fill="#231F20" d="M210.9,240.5c0.6-0.1,1.4-0.2,2.2-0.2c1.2,0,2,0.2,2.5,0.7c0.4,0.4,0.7,1,0.7,1.7c0,1.1-0.7,1.9-1.6,2.2v0
		c0.7,0.2,1.1,0.9,1.3,1.8c0.3,1.2,0.5,2.1,0.7,2.4h-1.2c-0.1-0.3-0.3-1-0.6-2.1c-0.3-1.2-0.7-1.7-1.8-1.7h-1.1v3.8h-1.1V240.5z
		 M212.1,244.5h1.2c1.2,0,2-0.7,2-1.7c0-1.1-0.8-1.6-2-1.6c-0.5,0-0.9,0-1.1,0.1V244.5z"/>
	<path fill="#231F20" d="M219.4,246.4l-0.9,2.8h-1.2l3-8.8h1.4l3,8.8h-1.2l-0.9-2.8H219.4z M222.3,245.5l-0.9-2.5
		c-0.2-0.6-0.3-1.1-0.5-1.6h0c-0.1,0.5-0.3,1.1-0.4,1.6l-0.9,2.5H222.3z"/>
	<path fill="#231F20" d="M226.7,249.1l-2.2-8.8h1.2l1,4.4c0.3,1.1,0.5,2.2,0.6,3h0c0.1-0.9,0.4-1.9,0.7-3l1.2-4.4h1.2l1.1,4.4
		c0.2,1,0.5,2.1,0.6,3h0c0.2-1,0.4-1.9,0.7-3l1.2-4.4h1.2l-2.5,8.8h-1.2l-1.1-4.6c-0.3-1.1-0.5-2-0.6-2.9h0
		c-0.1,0.9-0.4,1.7-0.7,2.9l-1.2,4.6H226.7z"/>
	<path fill="#231F20" d="M236.3,249.1v-8.8h1.2l2.8,4.4c0.6,1,1.2,2,1.6,2.8l0,0c-0.1-1.2-0.1-2.2-0.1-3.6v-3.7h1.1v8.8h-1.1
		l-2.8-4.4c-0.6-1-1.2-2-1.6-2.9l0,0c0.1,1.1,0.1,2.2,0.1,3.6v3.7H236.3z"/>
</g>
<image overflow="visible" width="2026" height="1231" xlink:href="FAF649EB.jpg"  transform="matrix(0.1515 0 0 0.1515 542.5801 153.0283)">
</image>
<g>
	<path fill="#231F20" d="M595.2,252.1c0.6-0.1,1.4-0.2,2.2-0.2c1.2,0,2,0.2,2.5,0.7c0.4,0.4,0.7,1,0.7,1.7c0,1.1-0.7,1.9-1.6,2.2v0
		c0.7,0.2,1.1,0.9,1.3,1.8c0.3,1.2,0.5,2.1,0.7,2.4h-1.2c-0.1-0.3-0.3-1-0.6-2.1c-0.3-1.2-0.7-1.7-1.8-1.7h-1.1v3.8h-1.1V252.1z
		 M596.3,256h1.2c1.2,0,2-0.7,2-1.7c0-1.1-0.8-1.6-2-1.6c-0.5,0-0.9,0-1.1,0.1V256z"/>
	<path fill="#231F20" d="M603.7,257.9l-0.9,2.8h-1.2l3-8.8h1.4l3,8.8h-1.2l-0.9-2.8H603.7z M606.5,257.1l-0.9-2.5
		c-0.2-0.6-0.3-1.1-0.5-1.6h0c-0.1,0.5-0.3,1.1-0.4,1.6l-0.9,2.5H606.5z"/>
	<path fill="#231F20" d="M609.6,260l4.8-7.1v0H610v-0.9h5.9v0.7l-4.8,7.1v0h4.9v0.9h-6.4V260z"/>
	<path fill="#231F20" d="M624.6,256.2c0,3-1.8,4.6-4.1,4.6c-2.3,0-3.9-1.8-3.9-4.5c0-2.8,1.7-4.6,4.1-4.6
		C623.1,251.8,624.6,253.6,624.6,256.2z M617.8,256.4c0,1.9,1,3.6,2.8,3.6s2.8-1.7,2.8-3.6c0-1.8-0.9-3.6-2.8-3.6
		C618.7,252.7,617.8,254.4,617.8,256.4z"/>
	<path fill="#231F20" d="M626.1,252.1c0.6-0.1,1.4-0.2,2.2-0.2c1.2,0,2,0.2,2.5,0.7c0.4,0.4,0.7,1,0.7,1.7c0,1.1-0.7,1.9-1.6,2.2v0
		c0.7,0.2,1.1,0.9,1.3,1.8c0.3,1.2,0.5,2.1,0.7,2.4h-1.2c-0.1-0.3-0.3-1-0.6-2.1c-0.3-1.2-0.7-1.7-1.8-1.7h-1.1v3.8h-1.1V252.1z
		 M627.2,256h1.2c1.2,0,2-0.7,2-1.7c0-1.1-0.8-1.6-2-1.6c-0.5,0-0.9,0-1.1,0.1V256z"/>
	<path fill="#231F20" d="M633.1,252.1c0.5-0.1,1.3-0.2,2.1-0.2c1.1,0,1.9,0.2,2.4,0.6c0.5,0.3,0.7,0.9,0.7,1.5
		c0,0.9-0.6,1.6-1.5,1.9v0c0.8,0.2,1.8,0.9,1.8,2.2c0,0.8-0.3,1.3-0.8,1.8c-0.6,0.6-1.6,0.8-3,0.8c-0.8,0-1.4-0.1-1.8-0.1V252.1z
		 M634.2,255.7h1c1.2,0,1.9-0.6,1.9-1.5c0-1-0.8-1.4-1.9-1.4c-0.5,0-0.8,0-1,0.1V255.7z M634.2,259.8c0.2,0,0.5,0.1,0.9,0.1
		c1.2,0,2.2-0.4,2.2-1.7c0-1.2-1-1.7-2.3-1.7h-0.9V259.8z"/>
	<path fill="#231F20" d="M641.5,257.9l-0.9,2.8h-1.2l3-8.8h1.4l3,8.8h-1.2l-0.9-2.8H641.5z M644.4,257.1l-0.9-2.5
		c-0.2-0.6-0.3-1.1-0.5-1.6h0c-0.1,0.5-0.3,1.1-0.4,1.6l-0.9,2.5H644.4z"/>
	<path fill="#231F20" d="M654,260.4c-0.4,0.2-1.2,0.4-2.3,0.4c-2.5,0-4.3-1.6-4.3-4.4c0-2.8,1.9-4.6,4.6-4.6c1.1,0,1.8,0.2,2.1,0.4
		l-0.3,0.9c-0.4-0.2-1-0.4-1.8-0.4c-2.1,0-3.4,1.3-3.4,3.6c0,2.2,1.2,3.5,3.4,3.5c0.7,0,1.4-0.1,1.9-0.4L654,260.4z"/>
	<path fill="#231F20" d="M655.4,251.9h1.1v4.2h0c0.2-0.3,0.5-0.7,0.7-0.9l2.7-3.3h1.4l-3.2,3.7l3.4,5h-1.3l-2.9-4.3l-0.8,1v3.3h-1.1
		V251.9z"/>
	<path fill="#231F20" d="M665.2,252c0.5-0.1,1.3-0.2,2.2-0.2c1.1,0,1.9,0.3,2.5,0.7c0.5,0.4,0.8,1.1,0.8,1.8c0,0.8-0.2,1.4-0.7,1.9
		c-0.6,0.6-1.6,1-2.7,1c-0.3,0-0.7,0-0.9-0.1v3.5h-1.1V252z M666.3,256.3c0.2,0.1,0.6,0.1,0.9,0.1c1.4,0,2.2-0.7,2.2-1.9
		c0-1.2-0.8-1.7-2.1-1.7c-0.5,0-0.9,0-1.1,0.1V256.3z"/>
	<path fill="#231F20" d="M672.1,252.1c0.6-0.1,1.4-0.2,2.2-0.2c1.2,0,2,0.2,2.5,0.7c0.4,0.4,0.7,1,0.7,1.7c0,1.1-0.7,1.9-1.6,2.2v0
		c0.7,0.2,1.1,0.9,1.3,1.8c0.3,1.2,0.5,2.1,0.7,2.4h-1.2c-0.1-0.3-0.3-1-0.6-2.1c-0.3-1.2-0.7-1.7-1.8-1.7h-1.1v3.8h-1.1V252.1z
		 M673.3,256h1.2c1.2,0,2-0.7,2-1.7c0-1.1-0.8-1.6-2-1.6c-0.5,0-0.9,0-1.1,0.1V256z"/>
	<path fill="#231F20" d="M680.6,257.9l-0.9,2.8h-1.2l3-8.8h1.4l3,8.8h-1.2l-0.9-2.8H680.6z M683.5,257.1l-0.9-2.5
		c-0.2-0.6-0.3-1.1-0.5-1.6h0c-0.1,0.5-0.3,1.1-0.4,1.6l-0.9,2.5H683.5z"/>
	<path fill="#231F20" d="M687.9,260.7l-2.2-8.8h1.2l1,4.4c0.3,1.1,0.5,2.2,0.6,3h0c0.1-0.9,0.4-1.9,0.7-3l1.2-4.4h1.2l1.1,4.4
		c0.2,1,0.5,2.1,0.6,3h0c0.2-1,0.4-1.9,0.7-3l1.2-4.4h1.2l-2.5,8.8h-1.2l-1.1-4.6c-0.3-1.1-0.5-2-0.6-2.9h0
		c-0.1,0.9-0.4,1.7-0.7,2.9l-1.2,4.6H687.9z"/>
	<path fill="#231F20" d="M697.5,260.7v-8.8h1.2l2.8,4.4c0.6,1,1.2,2,1.6,2.8l0,0c-0.1-1.2-0.1-2.2-0.1-3.6v-3.7h1.1v8.8h-1.1
		l-2.8-4.4c-0.6-1-1.2-2-1.6-2.9l0,0c0.1,1.1,0.1,2.2,0.1,3.6v3.7H697.5z"/>
	<path fill="#231F20" d="M632,263h4.7v0.9h-3.6v2.9h3.3v0.9h-3.3v4H632V263z"/>
	<path fill="#231F20" d="M639.5,263v8.8h-1.1V263H639.5z"/>
	<path fill="#231F20" d="M640.8,271.1l4.8-7.1v0h-4.4V263h5.9v0.7l-4.8,7.1v0h4.9v0.9h-6.4V271.1z"/>
	<path fill="#231F20" d="M648,271.1l4.8-7.1v0h-4.4V263h5.9v0.7l-4.8,7.1v0h4.9v0.9H648V271.1z"/>
	<path fill="#231F20" d="M660.3,267.6h-3.4v3.2h3.8v0.9h-4.9V263h4.7v0.9h-3.6v2.8h3.4V267.6z"/>
	<path fill="#231F20" d="M662.2,263.1c0.6-0.1,1.4-0.2,2.2-0.2c1.2,0,2,0.2,2.5,0.7c0.4,0.4,0.7,1,0.7,1.7c0,1.1-0.7,1.9-1.6,2.2v0
		c0.7,0.2,1.1,0.9,1.3,1.8c0.3,1.2,0.5,2.1,0.7,2.4h-1.2c-0.1-0.3-0.3-1-0.6-2.1c-0.3-1.2-0.7-1.7-1.8-1.7h-1.1v3.8h-1.1V263.1z
		 M663.3,267.1h1.2c1.2,0,2-0.7,2-1.7c0-1.1-0.8-1.6-2-1.6c-0.5,0-0.9,0-1.1,0.1V267.1z"/>
</g>
<path fill-rule="evenodd" clip-rule="evenodd" fill="#B9D4EF" d="M821.6,350.3c17.9,0,32.3,9.6,32.3,21.5v96.3
	c0,11.9-14.5,21.5-32.3,21.5H129.5c-17.9,0-32.3-9.6-32.3-21.5v-96.3c0-11.9,14.5-21.5,32.3-21.5H821.6z"/>
<g>
	<path fill="#231F20" d="M138,373.4l-1.4,4.2h-1.8l4.6-13.5h2.1l4.6,13.5h-1.9l-1.4-4.2H138z M142.5,372.1l-1.3-3.9
		c-0.3-0.9-0.5-1.7-0.7-2.5h0c-0.2,0.8-0.4,1.6-0.7,2.4l-1.3,3.9H142.5z"/>
	<path fill="#231F20" d="M155.7,365.7h-4.1v-1.5h10v1.5h-4.1v12h-1.8V365.7z"/>
	<path fill="#231F20" d="M163.1,364.4c0.9-0.2,2.2-0.3,3.3-0.3c1.9,0,3.1,0.4,3.9,1.1c0.7,0.6,1.1,1.5,1.1,2.6
		c0,1.8-1.1,2.9-2.5,3.4v0.1c1,0.4,1.6,1.3,2,2.7c0.4,1.9,0.8,3.2,1,3.7h-1.8c-0.2-0.4-0.5-1.5-0.9-3.2c-0.4-1.9-1.1-2.6-2.7-2.6
		h-1.6v5.8h-1.7V364.4z M164.8,370.5h1.8c1.9,0,3-1,3-2.6c0-1.7-1.3-2.5-3.1-2.5c-0.8,0-1.4,0.1-1.7,0.1V370.5z"/>
	<path fill="#231F20" d="M175.6,364.2v13.5h-1.8v-13.5H175.6z"/>
	<path fill="#231F20" d="M185.6,371.4h-5.2v4.9h5.8v1.5h-7.6v-13.5h7.3v1.5h-5.5v4.3h5.2V371.4z"/>
	<path fill="#231F20" d="M188.5,364.4c1.1-0.2,2.3-0.3,3.7-0.3c2.5,0,4.3,0.6,5.5,1.7c1.2,1.1,1.9,2.7,1.9,4.8c0,2.2-0.7,4-1.9,5.2
		c-1.3,1.3-3.4,1.9-6,1.9c-1.3,0-2.3-0.1-3.2-0.2V364.4z M190.2,376.3c0.4,0.1,1.1,0.1,1.8,0.1c3.7,0,5.7-2.1,5.7-5.7
		c0-3.2-1.8-5.2-5.5-5.2c-0.9,0-1.6,0.1-2,0.2V376.3z"/>
	<path fill="#231F20" d="M208.2,373.4l-1.4,4.2H205l4.6-13.5h2.1l4.6,13.5h-1.9l-1.4-4.2H208.2z M212.7,372.1l-1.3-3.9
		c-0.3-0.9-0.5-1.7-0.7-2.5h0c-0.2,0.8-0.4,1.6-0.7,2.4l-1.3,3.9H212.7z"/>
	<path fill="#231F20" d="M218.3,377.7v-13.5h1.9l4.3,6.8c1,1.6,1.8,3,2.4,4.4l0.1,0c-0.2-1.8-0.2-3.4-0.2-5.5v-5.6h1.6v13.5h-1.8
		l-4.3-6.8c-0.9-1.5-1.8-3-2.5-4.5l-0.1,0c0.1,1.7,0.1,3.3,0.1,5.6v5.8H218.3z"/>
	<path fill="#231F20" d="M231.4,364.4c1.1-0.2,2.3-0.3,3.7-0.3c2.5,0,4.3,0.6,5.5,1.7c1.2,1.1,1.9,2.7,1.9,4.8c0,2.2-0.7,4-1.9,5.2
		c-1.3,1.3-3.4,1.9-6,1.9c-1.3,0-2.3-0.1-3.2-0.2V364.4z M233.2,376.3c0.4,0.1,1.1,0.1,1.8,0.1c3.7,0,5.7-2.1,5.7-5.7
		c0-3.2-1.8-5.2-5.5-5.2c-0.9,0-1.6,0.1-2,0.2V376.3z"/>
	<path fill="#231F20" d="M249,364.4c0.8-0.1,1.9-0.3,3.3-0.3c1.7,0,3,0.4,3.8,1.1c0.7,0.6,1.2,1.6,1.2,2.8c0,1.2-0.4,2.2-1,2.9
		c-0.9,1-2.4,1.5-4.1,1.5c-0.5,0-1,0-1.4-0.1v5.4H249V364.4z M250.7,370.9c0.4,0.1,0.9,0.1,1.4,0.1c2.1,0,3.4-1,3.4-2.9
		c0-1.8-1.3-2.7-3.2-2.7c-0.8,0-1.3,0.1-1.6,0.1V370.9z"/>
	<path fill="#231F20" d="M259.6,364.4c0.9-0.2,2.2-0.3,3.3-0.3c1.9,0,3.1,0.4,3.9,1.1c0.7,0.6,1.1,1.5,1.1,2.6
		c0,1.8-1.1,2.9-2.5,3.4v0.1c1,0.4,1.6,1.3,2,2.7c0.4,1.9,0.8,3.2,1,3.7h-1.8c-0.2-0.4-0.5-1.5-0.9-3.2c-0.4-1.9-1.1-2.6-2.7-2.6
		h-1.6v5.8h-1.7V364.4z M261.4,370.5h1.8c1.9,0,3-1,3-2.6c0-1.7-1.3-2.5-3.1-2.5c-0.8,0-1.4,0.1-1.7,0.1V370.5z"/>
	<path fill="#231F20" d="M282,370.8c0,4.6-2.8,7.1-6.3,7.1c-3.6,0-6.1-2.8-6.1-6.9c0-4.3,2.6-7.1,6.2-7.1
		C279.6,364,282,366.8,282,370.8z M271.5,371c0,2.9,1.6,5.5,4.3,5.5c2.8,0,4.3-2.5,4.3-5.6c0-2.7-1.4-5.5-4.3-5.5
		C272.9,365.4,271.5,368.1,271.5,371z"/>
	<path fill="#231F20" d="M287.2,377.7l-4.4-13.5h1.9l2.1,6.6c0.6,1.8,1.1,3.5,1.4,5h0c0.4-1.6,0.9-3.3,1.5-5l2.3-6.7h1.9l-4.8,13.5
		H287.2z"/>
	<path fill="#231F20" d="M302.4,371.4h-5.2v4.9h5.8v1.5h-7.6v-13.5h7.3v1.5h-5.5v4.3h5.2V371.4z"/>
	<path fill="#231F20" d="M305.2,377.7v-13.5h1.9l4.3,6.8c1,1.6,1.8,3,2.4,4.4l0.1,0c-0.2-1.8-0.2-3.4-0.2-5.5v-5.6h1.6v13.5h-1.8
		l-4.3-6.8c-0.9-1.5-1.8-3-2.5-4.5l-0.1,0c0.1,1.7,0.1,3.3,0.1,5.6v5.8H305.2z"/>
	<path fill="#231F20" d="M322.6,364.4c0.8-0.2,2-0.3,3.2-0.3c1.7,0,2.9,0.3,3.7,1c0.7,0.5,1.1,1.3,1.1,2.4c0,1.3-0.9,2.5-2.3,3v0.1
		c1.3,0.3,2.8,1.4,2.8,3.4c0,1.2-0.5,2.1-1.2,2.7c-0.9,0.9-2.4,1.3-4.6,1.3c-1.2,0-2.1-0.1-2.7-0.2V364.4z M324.4,369.9h1.6
		c1.8,0,2.9-1,2.9-2.3c0-1.6-1.2-2.2-2.9-2.2c-0.8,0-1.3,0.1-1.5,0.1V369.9z M324.4,376.4c0.4,0.1,0.8,0.1,1.5,0.1
		c1.8,0,3.5-0.7,3.5-2.6c0-1.8-1.6-2.6-3.5-2.6h-1.4V376.4z"/>
	<path fill="#231F20" d="M335.7,373.4l-1.4,4.2h-1.8l4.6-13.5h2.1l4.6,13.5h-1.9l-1.4-4.2H335.7z M340.1,372.1l-1.3-3.9
		c-0.3-0.9-0.5-1.7-0.7-2.5h0c-0.2,0.8-0.4,1.6-0.7,2.4l-1.3,3.9H340.1z"/>
	<path fill="#231F20" d="M345.7,364.4c0.9-0.2,2.2-0.3,3.3-0.3c1.9,0,3.1,0.4,3.9,1.1c0.7,0.6,1.1,1.5,1.1,2.6
		c0,1.8-1.1,2.9-2.5,3.4v0.1c1,0.4,1.6,1.3,2,2.7c0.4,1.9,0.8,3.2,1,3.7h-1.8c-0.2-0.4-0.5-1.5-0.9-3.2c-0.4-1.9-1.1-2.6-2.7-2.6
		h-1.6v5.8h-1.7V364.4z M347.5,370.5h1.8c1.9,0,3-1,3-2.6c0-1.7-1.3-2.5-3.1-2.5c-0.8,0-1.4,0.1-1.7,0.1V370.5z"/>
	<path fill="#231F20" d="M356.5,364.4c0.9-0.2,2.2-0.3,3.3-0.3c1.9,0,3.1,0.4,3.9,1.1c0.7,0.6,1.1,1.5,1.1,2.6
		c0,1.8-1.1,2.9-2.5,3.4v0.1c1,0.4,1.6,1.3,2,2.7c0.4,1.9,0.8,3.2,1,3.7h-1.8c-0.2-0.4-0.5-1.5-0.9-3.2c-0.4-1.9-1.1-2.6-2.7-2.6
		h-1.6v5.8h-1.7V364.4z M358.2,370.5h1.8c1.9,0,3-1,3-2.6c0-1.7-1.3-2.5-3.1-2.5c-0.8,0-1.4,0.1-1.7,0.1V370.5z"/>
	<path fill="#231F20" d="M369.5,373.4l-1.4,4.2h-1.8l4.6-13.5h2.1l4.6,13.5h-1.9l-1.4-4.2H369.5z M374,372.1l-1.3-3.9
		c-0.3-0.9-0.5-1.7-0.7-2.5h0c-0.2,0.8-0.4,1.6-0.7,2.4l-1.3,3.9H374z"/>
	<path fill="#231F20" d="M383.8,364.2h1.8v12h5.8v1.5h-7.5V364.2z"/>
	<path fill="#231F20" d="M394.3,364.2v8c0,3,1.3,4.3,3.1,4.3c2,0,3.3-1.3,3.3-4.3v-8h1.8v7.9c0,4.1-2.2,5.8-5.1,5.8
		c-2.8,0-4.8-1.6-4.8-5.8v-7.9H394.3z"/>
	<path fill="#231F20" d="M405.5,364.4c0.9-0.2,2.2-0.3,3.3-0.3c1.9,0,3.1,0.4,3.9,1.1c0.7,0.6,1.1,1.5,1.1,2.6
		c0,1.8-1.1,2.9-2.5,3.4v0.1c1,0.4,1.6,1.3,2,2.7c0.4,1.9,0.8,3.2,1,3.7h-1.8c-0.2-0.4-0.5-1.5-0.9-3.2c-0.4-1.9-1.1-2.6-2.7-2.6
		h-1.6v5.8h-1.7V364.4z M407.2,370.5h1.8c1.9,0,3-1,3-2.6c0-1.7-1.3-2.5-3.1-2.5c-0.8,0-1.4,0.1-1.7,0.1V370.5z"/>
	<path fill="#231F20" d="M423.2,371.4H418v4.9h5.8v1.5h-7.6v-13.5h7.3v1.5H418v4.3h5.2V371.4z"/>
	<path fill="#231F20" d="M432.1,365.7H428v-1.5h10v1.5h-4.1v12h-1.8V365.7z"/>
	<path fill="#231F20" d="M441.2,364.2v5.6h6.5v-5.6h1.8v13.5h-1.8v-6.3h-6.5v6.3h-1.8v-13.5H441.2z"/>
	<path fill="#231F20" d="M454.7,373.4l-1.4,4.2h-1.8l4.6-13.5h2.1l4.6,13.5h-1.9l-1.4-4.2H454.7z M459.1,372.1l-1.3-3.9
		c-0.3-0.9-0.5-1.7-0.7-2.5h0c-0.2,0.8-0.4,1.6-0.7,2.4l-1.3,3.9H459.1z"/>
	<path fill="#231F20" d="M465.7,365.7h-4.1v-1.5h10v1.5h-4.1v12h-1.8V365.7z"/>
	<path fill="#231F20" d="M478.8,377.7l-3.4-13.5h1.8l1.6,6.8c0.4,1.7,0.8,3.4,1,4.7h0c0.2-1.3,0.6-2.9,1.1-4.7l1.8-6.8h1.8l1.6,6.8
		c0.4,1.6,0.7,3.2,0.9,4.6h0c0.3-1.5,0.7-3,1.1-4.7l1.8-6.8h1.8l-3.8,13.5h-1.8l-1.7-7c-0.4-1.7-0.7-3-0.9-4.4h0
		c-0.2,1.3-0.5,2.7-1,4.4l-1.9,7H478.8z"/>
	<path fill="#231F20" d="M494.6,373.4l-1.4,4.2h-1.8l4.6-13.5h2.1l4.6,13.5h-1.9l-1.4-4.2H494.6z M499,372.1l-1.3-3.9
		c-0.3-0.9-0.5-1.7-0.7-2.5h0c-0.2,0.8-0.4,1.6-0.7,2.4l-1.3,3.9H499z"/>
	<path fill="#231F20" d="M504.4,375.6c0.8,0.5,1.9,0.9,3.1,0.9c1.8,0,2.8-0.9,2.8-2.3c0-1.2-0.7-2-2.5-2.7c-2.2-0.8-3.6-2-3.6-3.8
		c0-2.1,1.7-3.7,4.4-3.7c1.4,0,2.4,0.3,3,0.7l-0.5,1.4c-0.4-0.3-1.3-0.6-2.5-0.6c-1.8,0-2.5,1.1-2.5,2c0,1.3,0.8,1.9,2.7,2.6
		c2.3,0.9,3.4,2,3.4,4c0,2.1-1.5,3.9-4.7,3.9c-1.3,0-2.7-0.4-3.4-0.9L504.4,375.6z"/>
	<path fill="#231F20" d="M520.5,364.2v8c0,3,1.3,4.3,3.1,4.3c2,0,3.3-1.3,3.3-4.3v-8h1.8v7.9c0,4.1-2.2,5.8-5.1,5.8
		c-2.8,0-4.8-1.6-4.8-5.8v-7.9H520.5z"/>
	<path fill="#231F20" d="M531.5,375.6c0.8,0.5,1.9,0.9,3.1,0.9c1.8,0,2.8-0.9,2.8-2.3c0-1.2-0.7-2-2.5-2.7c-2.2-0.8-3.6-2-3.6-3.8
		c0-2.1,1.7-3.7,4.4-3.7c1.4,0,2.4,0.3,3,0.7l-0.5,1.4c-0.4-0.3-1.3-0.6-2.5-0.6c-1.8,0-2.5,1.1-2.5,2c0,1.3,0.8,1.9,2.7,2.6
		c2.3,0.9,3.4,2,3.4,4c0,2.1-1.5,3.9-4.7,3.9c-1.3,0-2.7-0.4-3.4-0.9L531.5,375.6z"/>
	<path fill="#231F20" d="M548.5,371.4h-5.2v4.9h5.8v1.5h-7.6v-13.5h7.3v1.5h-5.5v4.3h5.2V371.4z"/>
	<path fill="#231F20" d="M551.4,364.4c1.1-0.2,2.3-0.3,3.7-0.3c2.5,0,4.3,0.6,5.5,1.7c1.2,1.1,1.9,2.7,1.9,4.8c0,2.2-0.7,4-1.9,5.2
		c-1.3,1.3-3.4,1.9-6,1.9c-1.3,0-2.3-0.1-3.2-0.2V364.4z M553.1,376.3c0.4,0.1,1.1,0.1,1.8,0.1c3.7,0,5.7-2.1,5.7-5.7
		c0-3.2-1.8-5.2-5.5-5.2c-0.9,0-1.6,0.1-2,0.2V376.3z"/>
	<path fill="#231F20" d="M570.7,365.7h-4.1v-1.5h10v1.5h-4.1v12h-1.8V365.7z"/>
	<path fill="#231F20" d="M589.1,370.8c0,4.6-2.8,7.1-6.3,7.1c-3.6,0-6.1-2.8-6.1-6.9c0-4.3,2.6-7.1,6.2-7.1
		C586.7,364,589.1,366.8,589.1,370.8z M578.6,371c0,2.9,1.6,5.5,4.3,5.5c2.8,0,4.3-2.5,4.3-5.6c0-2.7-1.4-5.5-4.3-5.5
		S578.6,368.1,578.6,371z"/>
	<path fill="#231F20" d="M597,377.7l-3.4-13.5h1.8l1.6,6.8c0.4,1.7,0.8,3.4,1,4.7h0c0.2-1.3,0.6-2.9,1.1-4.7l1.8-6.8h1.8l1.6,6.8
		c0.4,1.6,0.7,3.2,0.9,4.6h0c0.3-1.5,0.7-3,1.1-4.7l1.8-6.8h1.8l-3.8,13.5h-1.8l-1.7-7c-0.4-1.7-0.7-3-0.9-4.4h0
		c-0.2,1.3-0.5,2.7-1,4.4l-1.9,7H597z"/>
	<path fill="#231F20" d="M613.5,364.2v13.5h-1.8v-13.5H613.5z"/>
	<path fill="#231F20" d="M616.5,377.7v-13.5h1.9l4.3,6.8c1,1.6,1.8,3,2.4,4.4l0.1,0c-0.2-1.8-0.2-3.4-0.2-5.5v-5.6h1.6v13.5h-1.8
		l-4.3-6.8c-0.9-1.5-1.8-3-2.5-4.5l-0.1,0c0.1,1.7,0.1,3.3,0.1,5.6v5.8H616.5z"/>
	<path fill="#231F20" d="M635.7,365.7h-4.1v-1.5h10v1.5h-4.1v12h-1.8V365.7z"/>
	<path fill="#231F20" d="M644.8,364.2v5.6h6.5v-5.6h1.8v13.5h-1.8v-6.3h-6.5v6.3H643v-13.5H644.8z"/>
	<path fill="#231F20" d="M663.1,371.4h-5.2v4.9h5.8v1.5h-7.6v-13.5h7.3v1.5h-5.5v4.3h5.2V371.4z"/>
	<path fill="#231F20" d="M671.9,364.2v5.6h6.5v-5.6h1.8v13.5h-1.8v-6.3h-6.5v6.3h-1.8v-13.5H671.9z"/>
	<path fill="#231F20" d="M685,364.2v13.5h-1.8v-13.5H685z"/>
	<path fill="#231F20" d="M688,377.7v-13.5h1.9l4.3,6.8c1,1.6,1.8,3,2.4,4.4l0.1,0c-0.2-1.8-0.2-3.4-0.2-5.5v-5.6h1.6v13.5h-1.8
		l-4.3-6.8c-0.9-1.5-1.8-3-2.5-4.5l-0.1,0c0.1,1.7,0.1,3.3,0.1,5.6v5.8H688z"/>
	<path fill="#231F20" d="M710.6,377.3c-0.6,0.3-1.9,0.6-3.6,0.6c-3.8,0-6.6-2.4-6.6-6.8c0-4.2,2.9-7.1,7-7.1c1.7,0,2.7,0.4,3.2,0.6
		l-0.4,1.4c-0.6-0.3-1.6-0.6-2.7-0.6c-3.2,0-5.3,2-5.3,5.6c0,3.3,1.9,5.4,5.2,5.4c1.1,0,2.2-0.2,2.9-0.6L710.6,377.3z"/>
	<path fill="#231F20" d="M714.5,364.2v5.6h6.5v-5.6h1.8v13.5H721v-6.3h-6.5v6.3h-1.8v-13.5H714.5z"/>
	<path fill="#231F20" d="M732.8,371.4h-5.2v4.9h5.8v1.5h-7.6v-13.5h7.3v1.5h-5.5v4.3h5.2V371.4z"/>
	<path fill="#231F20" d="M735.6,377.7v-13.5h1.9l4.3,6.8c1,1.6,1.8,3,2.4,4.4l0.1,0c-0.2-1.8-0.2-3.4-0.2-5.5v-5.6h1.6v13.5H744
		l-4.3-6.8c-0.9-1.5-1.8-3-2.5-4.5l-0.1,0c0.1,1.7,0.1,3.3,0.1,5.6v5.8H735.6z"/>
	<path fill="#231F20" d="M748.8,364.4c0.8-0.2,2-0.3,3.2-0.3c1.7,0,2.9,0.3,3.7,1c0.7,0.5,1.1,1.3,1.1,2.4c0,1.3-0.9,2.5-2.3,3v0.1
		c1.3,0.3,2.8,1.4,2.8,3.4c0,1.2-0.5,2.1-1.2,2.7c-0.9,0.9-2.4,1.3-4.6,1.3c-1.2,0-2.1-0.1-2.7-0.2V364.4z M750.5,369.9h1.6
		c1.8,0,2.9-1,2.9-2.3c0-1.6-1.2-2.2-2.9-2.2c-0.8,0-1.3,0.1-1.5,0.1V369.9z M750.5,376.4c0.4,0.1,0.8,0.1,1.5,0.1
		c1.8,0,3.5-0.7,3.5-2.6c0-1.8-1.6-2.6-3.5-2.6h-1.4V376.4z"/>
	<path fill="#231F20" d="M759.6,364.4c0.9-0.2,2.2-0.3,3.3-0.3c1.9,0,3.1,0.4,3.9,1.1c0.7,0.6,1.1,1.5,1.1,2.6
		c0,1.8-1.1,2.9-2.5,3.4v0.1c1,0.4,1.6,1.3,2,2.7c0.4,1.9,0.8,3.2,1,3.7h-1.8c-0.2-0.4-0.5-1.5-0.9-3.2c-0.4-1.9-1.1-2.6-2.7-2.6
		h-1.6v5.8h-1.7V364.4z M761.4,370.5h1.8c1.9,0,3-1,3-2.6c0-1.7-1.3-2.5-3.1-2.5c-0.8,0-1.4,0.1-1.7,0.1V370.5z"/>
	<path fill="#231F20" d="M782,370.8c0,4.6-2.8,7.1-6.3,7.1c-3.6,0-6.1-2.8-6.1-6.9c0-4.3,2.6-7.1,6.2-7.1
		C779.6,364,782,366.8,782,370.8z M771.5,371c0,2.9,1.6,5.5,4.3,5.5c2.8,0,4.3-2.5,4.3-5.6c0-2.7-1.4-5.5-4.3-5.5
		S771.5,368.1,771.5,371z"/>
	<path fill="#231F20" d="M795.8,370.8c0,4.6-2.8,7.1-6.3,7.1c-3.6,0-6.1-2.8-6.1-6.9c0-4.3,2.6-7.1,6.2-7.1
		C793.4,364,795.8,366.8,795.8,370.8z M785.3,371c0,2.9,1.6,5.5,4.3,5.5c2.8,0,4.3-2.5,4.3-5.6c0-2.7-1.4-5.5-4.3-5.5
		S785.3,368.1,785.3,371z"/>
	<path fill="#231F20" d="M798,364.2h1.7v6.5h0.1c0.4-0.5,0.7-1,1.1-1.4l4.1-5.1h2.2l-4.9,5.7l5.3,7.8h-2.1l-4.4-6.6l-1.3,1.5v5.1
		H798V364.2z"/>
	<path fill="#231F20" d="M145.2,397.3c-0.6,0.3-1.9,0.6-3.6,0.6c-3.8,0-6.6-2.4-6.6-6.8c0-4.2,2.9-7.1,7-7.1c1.7,0,2.7,0.4,3.2,0.6
		l-0.4,1.4c-0.6-0.3-1.6-0.6-2.7-0.6c-3.2,0-5.3,2-5.3,5.6c0,3.3,1.9,5.4,5.2,5.4c1.1,0,2.2-0.2,2.9-0.6L145.2,397.3z"/>
	<path fill="#231F20" d="M149.7,393.4l-1.4,4.2h-1.8l4.6-13.5h2.1l4.6,13.5h-1.9l-1.4-4.2H149.7z M154.1,392.1l-1.3-3.9
		c-0.3-0.9-0.5-1.7-0.7-2.5h0c-0.2,0.8-0.4,1.6-0.7,2.4l-1.3,3.9H154.1z"/>
	<path fill="#231F20" d="M160.8,385.7h-4.1v-1.5h10v1.5h-4.1v12h-1.8V385.7z"/>
	<path fill="#231F20" d="M177,397.3c-0.6,0.3-1.9,0.6-3.6,0.6c-3.8,0-6.6-2.4-6.6-6.8c0-4.2,2.9-7.1,7-7.1c1.7,0,2.7,0.4,3.2,0.6
		l-0.4,1.4c-0.6-0.3-1.6-0.6-2.7-0.6c-3.2,0-5.3,2-5.3,5.6c0,3.3,1.9,5.4,5.2,5.4c1.1,0,2.2-0.2,2.9-0.6L177,397.3z"/>
	<path fill="#231F20" d="M181,384.2v5.6h6.5v-5.6h1.8v13.5h-1.8v-6.3H181v6.3h-1.8v-13.5H181z"/>
	<path fill="#231F20" d="M204.9,397.7c-0.4-0.4-0.7-0.8-1.3-1.3c-1.2,1.1-2.4,1.5-3.9,1.5c-2.6,0-4.1-1.8-4.1-3.8
		c0-1.8,1.1-3.1,2.6-3.9v-0.1c-0.7-0.9-1.1-1.9-1.1-2.8c0-1.7,1.2-3.3,3.4-3.3c1.7,0,3,1.1,3,2.9c0,1.4-0.8,2.5-3,3.6v0.1
		c1.1,1.3,2.4,2.8,3.3,3.7c0.6-0.9,1-2.2,1.3-3.9h1.6c-0.4,2.1-0.9,3.8-1.9,5c0.7,0.8,1.4,1.5,2.2,2.4H204.9z M202.8,395.4
		c-0.8-0.9-2.3-2.5-3.8-4.3c-0.7,0.5-1.7,1.3-1.7,2.8c0,1.5,1.1,2.7,2.8,2.7C201.2,396.6,202.2,396.1,202.8,395.4z M198.7,387.1
		c0,1,0.5,1.7,1,2.4c1.4-0.8,2.2-1.5,2.2-2.7c0-0.8-0.5-1.7-1.6-1.7C199.3,385.2,198.7,386.1,198.7,387.1z"/>
	<path fill="#231F20" d="M212.8,384.4c0.9-0.2,2.2-0.3,3.3-0.3c1.9,0,3.1,0.4,3.9,1.1c0.7,0.6,1.1,1.5,1.1,2.6
		c0,1.8-1.1,2.9-2.5,3.4v0.1c1,0.4,1.6,1.3,2,2.7c0.4,1.9,0.8,3.2,1,3.7h-1.8c-0.2-0.4-0.5-1.5-0.9-3.2c-0.4-1.9-1.1-2.6-2.7-2.6
		h-1.6v5.8h-1.7V384.4z M214.6,390.5h1.8c1.9,0,3-1,3-2.6c0-1.7-1.3-2.5-3.1-2.5c-0.8,0-1.4,0.1-1.7,0.1V390.5z"/>
	<path fill="#231F20" d="M230.6,391.4h-5.2v4.9h5.8v1.5h-7.6v-13.5h7.3v1.5h-5.5v4.3h5.2V391.4z"/>
	<path fill="#231F20" d="M233.4,384.2h1.8v12h5.8v1.5h-7.5V384.2z"/>
	<path fill="#231F20" d="M249.8,391.4h-5.2v4.9h5.8v1.5h-7.6v-13.5h7.3v1.5h-5.5v4.3h5.2V391.4z"/>
	<path fill="#231F20" d="M254.9,393.4l-1.4,4.2h-1.8l4.6-13.5h2.1l4.6,13.5h-1.9l-1.4-4.2H254.9z M259.3,392.1l-1.3-3.9
		c-0.3-0.9-0.5-1.7-0.7-2.5h0c-0.2,0.8-0.4,1.6-0.7,2.4l-1.3,3.9H259.3z"/>
	<path fill="#231F20" d="M264.7,395.6c0.8,0.5,1.9,0.9,3.1,0.9c1.8,0,2.8-0.9,2.8-2.3c0-1.2-0.7-2-2.5-2.7c-2.2-0.8-3.6-2-3.6-3.8
		c0-2.1,1.7-3.7,4.4-3.7c1.4,0,2.4,0.3,3,0.7l-0.5,1.4c-0.4-0.3-1.3-0.6-2.5-0.6c-1.8,0-2.5,1.1-2.5,2c0,1.3,0.8,1.9,2.7,2.6
		c2.3,0.9,3.4,2,3.4,4c0,2.1-1.5,3.9-4.7,3.9c-1.3,0-2.7-0.4-3.4-0.9L264.7,395.6z"/>
	<path fill="#231F20" d="M281.8,391.4h-5.2v4.9h5.8v1.5h-7.6v-13.5h7.3v1.5h-5.5v4.3h5.2V391.4z"/>
	<path fill="#231F20" d="M298.3,397.3c-0.6,0.3-1.9,0.6-3.6,0.6c-3.8,0-6.6-2.4-6.6-6.8c0-4.2,2.9-7.1,7-7.1c1.7,0,2.7,0.4,3.2,0.6
		l-0.4,1.4c-0.6-0.3-1.6-0.6-2.7-0.6c-3.2,0-5.3,2-5.3,5.6c0,3.3,1.9,5.4,5.2,5.4c1.1,0,2.2-0.2,2.9-0.6L298.3,397.3z"/>
	<path fill="#231F20" d="M300.5,384.2h1.8v12h5.8v1.5h-7.5V384.2z"/>
	<path fill="#231F20" d="M312.1,393.4l-1.4,4.2h-1.8l4.6-13.5h2.1l4.6,13.5h-1.9l-1.4-4.2H312.1z M316.6,392.1l-1.3-3.9
		c-0.3-0.9-0.5-1.7-0.7-2.5h0c-0.2,0.8-0.4,1.6-0.7,2.4l-1.3,3.9H316.6z"/>
	<path fill="#231F20" d="M322,395.6c0.8,0.5,1.9,0.9,3.1,0.9c1.8,0,2.8-0.9,2.8-2.3c0-1.2-0.7-2-2.5-2.7c-2.2-0.8-3.6-2-3.6-3.8
		c0-2.1,1.7-3.7,4.4-3.7c1.4,0,2.4,0.3,3,0.7l-0.5,1.4c-0.4-0.3-1.3-0.6-2.5-0.6c-1.8,0-2.5,1.1-2.5,2c0,1.3,0.8,1.9,2.7,2.6
		c2.3,0.9,3.4,2,3.4,4c0,2.1-1.5,3.9-4.7,3.9c-1.3,0-2.7-0.4-3.4-0.9L322,395.6z"/>
	<path fill="#231F20" d="M331.8,395.6c0.8,0.5,1.9,0.9,3.1,0.9c1.8,0,2.8-0.9,2.8-2.3c0-1.2-0.7-2-2.5-2.7c-2.2-0.8-3.6-2-3.6-3.8
		c0-2.1,1.7-3.7,4.4-3.7c1.4,0,2.4,0.3,3,0.7l-0.5,1.4c-0.4-0.3-1.3-0.6-2.5-0.6c-1.8,0-2.5,1.1-2.5,2c0,1.3,0.8,1.9,2.7,2.6
		c2.3,0.9,3.4,2,3.4,4c0,2.1-1.5,3.9-4.7,3.9c-1.3,0-2.7-0.4-3.4-0.9L331.8,395.6z"/>
	<path fill="#231F20" d="M343.6,384.2v13.5h-1.8v-13.5H343.6z"/>
	<path fill="#231F20" d="M356.1,397.3c-0.6,0.3-1.9,0.6-3.6,0.6c-3.8,0-6.6-2.4-6.6-6.8c0-4.2,2.9-7.1,7-7.1c1.7,0,2.7,0.4,3.2,0.6
		l-0.4,1.4c-0.6-0.3-1.6-0.6-2.7-0.6c-3.2,0-5.3,2-5.3,5.6c0,3.3,1.9,5.4,5.2,5.4c1.1,0,2.2-0.2,2.9-0.6L356.1,397.3z"/>
	<path fill="#231F20" d="M364.3,384.2v13.5h-1.8v-13.5H364.3z"/>
	<path fill="#231F20" d="M367.3,397.7v-13.5h1.9l4.3,6.8c1,1.6,1.8,3,2.4,4.4l0.1,0c-0.2-1.8-0.2-3.4-0.2-5.5v-5.6h1.6v13.5h-1.8
		l-4.3-6.8c-0.9-1.5-1.8-3-2.5-4.5l-0.1,0c0.1,1.7,0.1,3.3,0.1,5.6v5.8H367.3z"/>
	<path fill="#231F20" d="M384.1,397.7v-1.1l1.4-1.3c3.3-3.2,4.8-4.8,4.8-6.8c0-1.3-0.6-2.5-2.6-2.5c-1.2,0-2.2,0.6-2.8,1.1l-0.6-1.2
		c0.9-0.7,2.2-1.3,3.7-1.3c2.8,0,4,1.9,4,3.8c0,2.4-1.7,4.3-4.5,7l-1,1v0h5.8v1.5H384.1z"/>
	<path fill="#231F20" d="M403,391c0,4.4-1.7,6.9-4.5,6.9c-2.5,0-4.3-2.4-4.3-6.7c0-4.4,1.9-6.8,4.5-6.8
		C401.4,384.5,403,386.9,403,391z M395.9,391.2c0,3.4,1,5.3,2.6,5.3c1.8,0,2.6-2.1,2.6-5.4c0-3.2-0.8-5.3-2.6-5.3
		C397,385.8,395.9,387.7,395.9,391.2z"/>
	<path fill="#231F20" d="M413.3,391c0,4.4-1.7,6.9-4.5,6.9c-2.5,0-4.3-2.4-4.3-6.7c0-4.4,1.9-6.8,4.5-6.8
		C411.7,384.5,413.3,386.9,413.3,391z M406.2,391.2c0,3.4,1,5.3,2.6,5.3c1.8,0,2.6-2.1,2.6-5.4c0-3.2-0.8-5.3-2.6-5.3
		C407.3,385.8,406.2,387.7,406.2,391.2z"/>
	<path fill="#231F20" d="M423.3,384.7v1.2l-5.7,11.8h-1.8l5.6-11.5v0h-6.4v-1.5H423.3z"/>
	<path fill="#231F20" d="M438.4,397.7c-0.4-0.4-0.7-0.8-1.3-1.3c-1.2,1.1-2.4,1.5-3.9,1.5c-2.6,0-4.1-1.8-4.1-3.8
		c0-1.8,1.1-3.1,2.6-3.9v-0.1c-0.7-0.9-1.1-1.9-1.1-2.8c0-1.7,1.2-3.3,3.4-3.3c1.7,0,3,1.1,3,2.9c0,1.4-0.8,2.5-3,3.6v0.1
		c1.1,1.3,2.4,2.8,3.3,3.7c0.6-0.9,1-2.2,1.3-3.9h1.6c-0.4,2.1-0.9,3.8-1.9,5c0.7,0.8,1.4,1.5,2.2,2.4H438.4z M436.3,395.4
		c-0.8-0.9-2.3-2.5-3.8-4.3c-0.7,0.5-1.7,1.3-1.7,2.8c0,1.5,1.1,2.7,2.8,2.7C434.7,396.6,435.6,396.1,436.3,395.4z M432.2,387.1
		c0,1,0.5,1.7,1,2.4c1.4-0.8,2.2-1.5,2.2-2.7c0-0.8-0.5-1.7-1.6-1.7C432.8,385.2,432.2,386.1,432.2,387.1z"/>
	<path fill="#231F20" d="M445.7,397.7v-1.1l1.4-1.3c3.3-3.2,4.8-4.8,4.8-6.8c0-1.3-0.6-2.5-2.6-2.5c-1.2,0-2.2,0.6-2.8,1.1l-0.6-1.2
		c0.9-0.7,2.2-1.3,3.7-1.3c2.8,0,4,1.9,4,3.8c0,2.4-1.7,4.3-4.5,7l-1,1v0h5.8v1.5H445.7z"/>
	<path fill="#231F20" d="M464.6,391c0,4.4-1.7,6.9-4.5,6.9c-2.5,0-4.3-2.4-4.3-6.7c0-4.4,1.9-6.8,4.5-6.8
		C463,384.5,464.6,386.9,464.6,391z M457.5,391.2c0,3.4,1,5.3,2.6,5.3c1.8,0,2.6-2.1,2.6-5.4c0-3.2-0.8-5.3-2.6-5.3
		C458.7,385.8,457.5,387.7,457.5,391.2z"/>
	<path fill="#231F20" d="M474.9,391c0,4.4-1.7,6.9-4.5,6.9c-2.5,0-4.3-2.4-4.3-6.7c0-4.4,1.9-6.8,4.5-6.8
		C473.3,384.5,474.9,386.9,474.9,391z M467.8,391.2c0,3.4,1,5.3,2.6,5.3c1.8,0,2.6-2.1,2.6-5.4c0-3.2-0.8-5.3-2.6-5.3
		C468.9,385.8,467.8,387.7,467.8,391.2z"/>
	<path fill="#231F20" d="M477.5,396.4c0.4,0,0.8,0,1.4-0.1c1-0.1,2-0.5,2.7-1.3c0.9-0.8,1.5-1.9,1.7-3.4h-0.1
		c-0.7,0.9-1.8,1.4-3.1,1.4c-2.3,0-3.8-1.8-3.8-4c0-2.5,1.8-4.6,4.4-4.6s4.3,2.1,4.3,5.5c0,2.8-1,4.8-2.2,6.1c-1,1-2.4,1.6-3.8,1.7
		c-0.6,0.1-1.2,0.1-1.6,0.1V396.4z M478.1,389c0,1.6,1,2.8,2.5,2.8c1.2,0,2.1-0.6,2.6-1.4c0.1-0.2,0.2-0.4,0.2-0.7
		c0-2.2-0.8-3.9-2.7-3.9C479.2,385.8,478.1,387.1,478.1,389z"/>
	<path fill="#231F20" d="M486.1,400.2c0.4-1.2,1-3.3,1.2-4.8l2-0.2c-0.5,1.7-1.4,3.9-1.9,4.9L486.1,400.2z"/>
	<path fill="#231F20" d="M497.5,385.7h-4.1v-1.5h10v1.5h-4.1v12h-1.8V385.7z"/>
	<path fill="#231F20" d="M506.6,384.2v5.6h6.5v-5.6h1.8v13.5h-1.8v-6.3h-6.5v6.3h-1.8v-13.5H506.6z"/>
	<path fill="#231F20" d="M524.8,391.4h-5.2v4.9h5.8v1.5h-7.6v-13.5h7.3v1.5h-5.5v4.3h5.2V391.4z"/>
	<path fill="#231F20" d="M532,384.4c0.9-0.2,2.2-0.3,3.3-0.3c1.9,0,3.1,0.4,3.9,1.1c0.7,0.6,1.1,1.5,1.1,2.6c0,1.8-1.1,2.9-2.5,3.4
		v0.1c1,0.4,1.6,1.3,2,2.7c0.4,1.9,0.8,3.2,1,3.7h-1.8c-0.2-0.4-0.5-1.5-0.9-3.2c-0.4-1.9-1.1-2.6-2.7-2.6h-1.6v5.8H532V384.4z
		 M533.7,390.5h1.8c1.9,0,3-1,3-2.6c0-1.7-1.3-2.5-3.1-2.5c-0.8,0-1.4,0.1-1.7,0.1V390.5z"/>
	<path fill="#231F20" d="M545,393.4l-1.4,4.2h-1.8l4.6-13.5h2.1l4.6,13.5h-1.9l-1.4-4.2H545z M549.4,392.1l-1.3-3.9
		c-0.3-0.9-0.5-1.7-0.7-2.5h0c-0.2,0.8-0.4,1.6-0.7,2.4l-1.3,3.9H549.4z"/>
	<path fill="#231F20" d="M554.1,396.7l7.5-10.9v-0.1h-6.8v-1.5h9.1v1.1l-7.4,10.9v0.1h7.5v1.5h-9.8V396.7z"/>
	<path fill="#231F20" d="M577.2,390.8c0,4.6-2.8,7.1-6.3,7.1c-3.6,0-6.1-2.8-6.1-6.9c0-4.3,2.6-7.1,6.2-7.1
		C574.8,384,577.2,386.8,577.2,390.8z M566.7,391c0,2.9,1.6,5.5,4.3,5.5c2.8,0,4.3-2.5,4.3-5.6c0-2.7-1.4-5.5-4.3-5.5
		S566.7,388.1,566.7,391z"/>
	<path fill="#231F20" d="M579.5,384.4c0.9-0.2,2.2-0.3,3.3-0.3c1.9,0,3.1,0.4,3.9,1.1c0.7,0.6,1.1,1.5,1.1,2.6
		c0,1.8-1.1,2.9-2.5,3.4v0.1c1,0.4,1.6,1.3,2,2.7c0.4,1.9,0.8,3.2,1,3.7h-1.8c-0.2-0.4-0.5-1.5-0.9-3.2c-0.4-1.9-1.1-2.6-2.7-2.6
		h-1.6v5.8h-1.7V384.4z M581.2,390.5h1.8c1.9,0,3-1,3-2.6c0-1.7-1.3-2.5-3.1-2.5c-0.8,0-1.4,0.1-1.7,0.1V390.5z"/>
	<path fill="#231F20" d="M590.2,384.4c0.8-0.2,2-0.3,3.2-0.3c1.7,0,2.9,0.3,3.7,1c0.7,0.5,1.1,1.3,1.1,2.4c0,1.3-0.9,2.5-2.3,3v0.1
		c1.3,0.3,2.8,1.4,2.8,3.4c0,1.2-0.5,2.1-1.2,2.7c-0.9,0.9-2.4,1.3-4.6,1.3c-1.2,0-2.1-0.1-2.7-0.2V384.4z M592,389.9h1.6
		c1.8,0,2.9-1,2.9-2.3c0-1.6-1.2-2.2-2.9-2.2c-0.8,0-1.3,0.1-1.5,0.1V389.9z M592,396.4c0.4,0.1,0.8,0.1,1.5,0.1
		c1.8,0,3.5-0.7,3.5-2.6c0-1.8-1.6-2.6-3.5-2.6H592V396.4z"/>
	<path fill="#231F20" d="M603.3,393.4l-1.4,4.2h-1.8l4.6-13.5h2.1l4.6,13.5h-1.9l-1.4-4.2H603.3z M607.7,392.1l-1.3-3.9
		c-0.3-0.9-0.5-1.7-0.7-2.5h0c-0.2,0.8-0.4,1.6-0.7,2.4l-1.3,3.9H607.7z"/>
	<path fill="#231F20" d="M622.4,397.3c-0.6,0.3-1.9,0.6-3.6,0.6c-3.8,0-6.6-2.4-6.6-6.8c0-4.2,2.9-7.1,7-7.1c1.7,0,2.7,0.4,3.2,0.6
		L622,386c-0.6-0.3-1.6-0.6-2.7-0.6c-3.2,0-5.3,2-5.3,5.6c0,3.3,1.9,5.4,5.2,5.4c1.1,0,2.2-0.2,2.9-0.6L622.4,397.3z"/>
	<path fill="#231F20" d="M624.6,384.2h1.7v6.5h0.1c0.4-0.5,0.7-1,1.1-1.4l4.1-5.1h2.2l-4.9,5.7l5.3,7.8h-2.1l-4.4-6.6l-1.3,1.5v5.1
		h-1.7V384.2z"/>
	<path fill="#231F20" d="M639.7,384.4c0.8-0.1,1.9-0.3,3.3-0.3c1.7,0,3,0.4,3.8,1.1c0.7,0.6,1.2,1.6,1.2,2.8c0,1.2-0.4,2.2-1,2.9
		c-0.9,1-2.4,1.5-4.1,1.5c-0.5,0-1,0-1.4-0.1v5.4h-1.7V384.4z M641.4,390.9c0.4,0.1,0.9,0.1,1.4,0.1c2.1,0,3.4-1,3.4-2.9
		c0-1.8-1.3-2.7-3.2-2.7c-0.8,0-1.3,0.1-1.6,0.1V390.9z"/>
	<path fill="#231F20" d="M650.3,384.4c0.9-0.2,2.2-0.3,3.3-0.3c1.9,0,3.1,0.4,3.9,1.1c0.7,0.6,1.1,1.5,1.1,2.6
		c0,1.8-1.1,2.9-2.5,3.4v0.1c1,0.4,1.6,1.3,2,2.7c0.4,1.9,0.8,3.2,1,3.7h-1.8c-0.2-0.4-0.5-1.5-0.9-3.2c-0.4-1.9-1.1-2.6-2.7-2.6
		h-1.6v5.8h-1.7V384.4z M652.1,390.5h1.8c1.9,0,3-1,3-2.6c0-1.7-1.3-2.5-3.1-2.5c-0.8,0-1.4,0.1-1.7,0.1V390.5z"/>
	<path fill="#231F20" d="M663.4,393.4l-1.4,4.2h-1.8l4.6-13.5h2.1l4.6,13.5h-1.9l-1.4-4.2H663.4z M667.8,392.1l-1.3-3.9
		c-0.3-0.9-0.5-1.7-0.7-2.5h0c-0.2,0.8-0.4,1.6-0.7,2.4l-1.3,3.9H667.8z"/>
	<path fill="#231F20" d="M674.6,397.7l-3.4-13.5h1.8l1.6,6.8c0.4,1.7,0.8,3.4,1,4.7h0c0.2-1.3,0.6-2.9,1.1-4.7l1.8-6.8h1.8l1.6,6.8
		c0.4,1.6,0.7,3.2,0.9,4.6h0c0.3-1.5,0.7-3,1.1-4.7l1.8-6.8h1.8l-3.8,13.5H682l-1.7-7c-0.4-1.7-0.7-3-0.9-4.4h0
		c-0.2,1.3-0.5,2.7-1,4.4l-1.9,7H674.6z"/>
	<path fill="#231F20" d="M689.3,397.7v-13.5h1.9l4.3,6.8c1,1.6,1.8,3,2.4,4.4l0.1,0c-0.2-1.8-0.2-3.4-0.2-5.5v-5.6h1.6v13.5h-1.8
		l-4.3-6.8c-0.9-1.5-1.8-3-2.5-4.5l-0.1,0c0.1,1.7,0.1,3.3,0.1,5.6v5.8H689.3z"/>
	<path fill="#231F20" d="M708.4,384.2v13.5h-1.8v-13.5H708.4z"/>
	<path fill="#231F20" d="M711.3,395.6c0.8,0.5,1.9,0.9,3.1,0.9c1.8,0,2.8-0.9,2.8-2.3c0-1.2-0.7-2-2.5-2.7c-2.2-0.8-3.6-2-3.6-3.8
		c0-2.1,1.7-3.7,4.4-3.7c1.4,0,2.4,0.3,3,0.7l-0.5,1.4c-0.4-0.3-1.3-0.6-2.5-0.6c-1.8,0-2.5,1.1-2.5,2c0,1.3,0.8,1.9,2.7,2.6
		c2.3,0.9,3.4,2,3.4,4c0,2.1-1.5,3.9-4.7,3.9c-1.3,0-2.7-0.4-3.4-0.9L711.3,395.6z"/>
	<path fill="#231F20" d="M736.9,391.8c-0.1-1.9-0.2-4.2-0.2-5.8h0c-0.5,1.6-1,3.3-1.7,5.1l-2.4,6.5h-1.3l-2.2-6.4
		c-0.6-1.9-1.2-3.6-1.5-5.2h0c0,1.7-0.1,3.9-0.3,6l-0.4,5.8h-1.7l0.9-13.5h2.2l2.3,6.5c0.6,1.7,1,3.1,1.4,4.5h0
		c0.4-1.4,0.8-2.8,1.4-4.5l2.4-6.5h2.2l0.8,13.5h-1.7L736.9,391.8z"/>
	<path fill="#231F20" d="M753.2,390.8c0,4.6-2.8,7.1-6.3,7.1c-3.6,0-6.1-2.8-6.1-6.9c0-4.3,2.6-7.1,6.2-7.1
		C750.8,384,753.2,386.8,753.2,390.8z M742.7,391c0,2.9,1.6,5.5,4.3,5.5c2.8,0,4.3-2.5,4.3-5.6c0-2.7-1.4-5.5-4.3-5.5
		S742.7,388.1,742.7,391z"/>
	<path fill="#231F20" d="M757.2,384.2v8c0,3,1.3,4.3,3.1,4.3c2,0,3.3-1.3,3.3-4.3v-8h1.8v7.9c0,4.1-2.2,5.8-5.1,5.8
		c-2.8,0-4.8-1.6-4.8-5.8v-7.9H757.2z"/>
	<path fill="#231F20" d="M768.4,384.2h1.8v12h5.8v1.5h-7.5V384.2z"/>
	<path fill="#231F20" d="M777.8,384.4c1.1-0.2,2.3-0.3,3.7-0.3c2.5,0,4.3,0.6,5.5,1.7c1.2,1.1,1.9,2.7,1.9,4.8c0,2.2-0.7,4-1.9,5.2
		c-1.3,1.3-3.4,1.9-6,1.9c-1.3,0-2.3-0.1-3.2-0.2V384.4z M779.6,396.3c0.4,0.1,1.1,0.1,1.8,0.1c3.7,0,5.7-2.1,5.7-5.7
		c0-3.2-1.8-5.2-5.5-5.2c-0.9,0-1.6,0.1-2,0.2V396.3z"/>
	<path fill="#231F20" d="M798.1,391.4h-5.2v4.9h5.8v1.5h-7.6v-13.5h7.3v1.5h-5.5v4.3h5.2V391.4z"/>
	<path fill="#231F20" d="M801,384.4c1.1-0.2,2.3-0.3,3.7-0.3c2.5,0,4.3,0.6,5.5,1.7c1.2,1.1,1.9,2.7,1.9,4.8c0,2.2-0.7,4-1.9,5.2
		c-1.3,1.3-3.4,1.9-6,1.9c-1.3,0-2.3-0.1-3.2-0.2V384.4z M802.7,396.3c0.4,0.1,1.1,0.1,1.8,0.1c3.7,0,5.7-2.1,5.7-5.7
		c0-3.2-1.8-5.2-5.5-5.2c-0.9,0-1.6,0.1-2,0.2V396.3z"/>
	<path fill="#231F20" d="M137.6,404.2v13.5h-1.8v-13.5H137.6z"/>
	<path fill="#231F20" d="M140.6,417.7v-13.5h1.9l4.3,6.8c1,1.6,1.8,3,2.4,4.4l0.1,0c-0.2-1.8-0.2-3.4-0.2-5.5v-5.6h1.6v13.5H149
		l-4.3-6.8c-0.9-1.5-1.8-3-2.5-4.5l-0.1,0c0.1,1.7,0.1,3.3,0.1,5.6v5.8H140.6z"/>
	<path fill="#231F20" d="M160.2,413.4l-1.4,4.2H157l4.6-13.5h2.1l4.6,13.5h-1.9l-1.4-4.2H160.2z M164.6,412.1l-1.3-3.9
		c-0.3-0.9-0.5-1.7-0.7-2.5h0c-0.2,0.8-0.4,1.6-0.7,2.4l-1.3,3.9H164.6z"/>
	<path fill="#231F20" d="M174.5,417.7v-13.5h1.9l4.3,6.8c1,1.6,1.8,3,2.4,4.4l0.1,0c-0.2-1.8-0.2-3.4-0.2-5.5v-5.6h1.6v13.5h-1.8
		l-4.3-6.8c-0.9-1.5-1.8-3-2.5-4.5l-0.1,0c0.1,1.7,0.1,3.3,0.1,5.6v5.8H174.5z"/>
	<path fill="#231F20" d="M194.6,411.4h-5.2v4.9h5.8v1.5h-7.6v-13.5h7.3v1.5h-5.5v4.3h5.2V411.4z"/>
	<path fill="#231F20" d="M199.9,417.7l-3.4-13.5h1.8l1.6,6.8c0.4,1.7,0.8,3.4,1,4.7h0c0.2-1.3,0.6-2.9,1.1-4.7l1.8-6.8h1.8l1.6,6.8
		c0.4,1.6,0.7,3.2,0.9,4.6h0c0.3-1.5,0.7-3,1.1-4.7l1.8-6.8h1.8l-3.8,13.5h-1.8l-1.7-7c-0.4-1.7-0.7-3-0.9-4.4h0
		c-0.2,1.3-0.5,2.7-1,4.4l-1.9,7H199.9z"/>
	<path fill="#231F20" d="M220.6,404.2v5.6h6.5v-5.6h1.8v13.5h-1.8v-6.3h-6.5v6.3h-1.8v-13.5H220.6z"/>
	<path fill="#231F20" d="M233.6,404.2v13.5h-1.8v-13.5H233.6z"/>
	<path fill="#231F20" d="M240.7,411.6v1.3h-4.9v-1.3H240.7z"/>
	<path fill="#231F20" d="M244.4,405.7h-4.1v-1.5h10v1.5h-4.1v12h-1.8V405.7z"/>
	<path fill="#231F20" d="M258.7,411.4h-5.2v4.9h5.8v1.5h-7.6v-13.5h7.3v1.5h-5.5v4.3h5.2V411.4z"/>
	<path fill="#231F20" d="M271,417.3c-0.6,0.3-1.9,0.6-3.6,0.6c-3.8,0-6.6-2.4-6.6-6.8c0-4.2,2.9-7.1,7-7.1c1.7,0,2.7,0.4,3.2,0.6
		l-0.4,1.4c-0.6-0.3-1.6-0.6-2.7-0.6c-3.2,0-5.3,2-5.3,5.6c0,3.3,1.9,5.4,5.2,5.4c1.1,0,2.2-0.2,2.9-0.6L271,417.3z"/>
	<path fill="#231F20" d="M274.9,404.2v5.6h6.5v-5.6h1.8v13.5h-1.8v-6.3h-6.5v6.3h-1.8v-13.5H274.9z"/>
	<path fill="#231F20" d="M290.5,404.4c0.8-0.1,1.9-0.3,3.3-0.3c1.7,0,3,0.4,3.8,1.1c0.7,0.6,1.2,1.6,1.2,2.8c0,1.2-0.4,2.2-1,2.9
		c-0.9,1-2.4,1.5-4.1,1.5c-0.5,0-1,0-1.4-0.1v5.4h-1.7V404.4z M292.2,410.9c0.4,0.1,0.9,0.1,1.4,0.1c2.1,0,3.4-1,3.4-2.9
		c0-1.8-1.3-2.7-3.2-2.7c-0.8,0-1.3,0.1-1.6,0.1V410.9z"/>
	<path fill="#231F20" d="M301.1,404.2h1.8v12h5.8v1.5h-7.5V404.2z"/>
	<path fill="#231F20" d="M312.7,413.4l-1.4,4.2h-1.8l4.6-13.5h2.1l4.6,13.5h-1.9l-1.4-4.2H312.7z M317.2,412.1l-1.3-3.9
		c-0.3-0.9-0.5-1.7-0.7-2.5h0c-0.2,0.8-0.4,1.6-0.7,2.4l-1.3,3.9H317.2z"/>
	<path fill="#231F20" d="M322.6,415.6c0.8,0.5,1.9,0.9,3.1,0.9c1.8,0,2.8-0.9,2.8-2.3c0-1.2-0.7-2-2.5-2.7c-2.2-0.8-3.6-2-3.6-3.8
		c0-2.1,1.7-3.7,4.4-3.7c1.4,0,2.4,0.3,3,0.7l-0.5,1.4c-0.4-0.3-1.3-0.6-2.5-0.6c-1.8,0-2.5,1.1-2.5,2c0,1.3,0.8,1.9,2.7,2.6
		c2.3,0.9,3.4,2,3.4,4c0,2.1-1.5,3.9-4.7,3.9c-1.3,0-2.7-0.4-3.4-0.9L322.6,415.6z"/>
	<path fill="#231F20" d="M335.2,405.7h-4.1v-1.5h10v1.5H337v12h-1.8V405.7z"/>
	<path fill="#231F20" d="M344.3,404.2v13.5h-1.8v-13.5H344.3z"/>
	<path fill="#231F20" d="M356.8,417.3c-0.6,0.3-1.9,0.6-3.6,0.6c-3.8,0-6.6-2.4-6.6-6.8c0-4.2,2.9-7.1,7-7.1c1.7,0,2.7,0.4,3.2,0.6
		l-0.4,1.4c-0.6-0.3-1.6-0.6-2.7-0.6c-3.2,0-5.3,2-5.3,5.6c0,3.3,1.9,5.4,5.2,5.4c1.1,0,2.2-0.2,2.9-0.6L356.8,417.3z"/>
	<path fill="#231F20" d="M364.7,417.7l-3.4-13.5h1.8l1.6,6.8c0.4,1.7,0.8,3.4,1,4.7h0c0.2-1.3,0.6-2.9,1.1-4.7l1.8-6.8h1.8l1.6,6.8
		c0.4,1.6,0.7,3.2,0.9,4.6h0c0.3-1.5,0.7-3,1.1-4.7l1.8-6.8h1.8l-3.8,13.5h-1.8l-1.7-7c-0.4-1.7-0.7-3-0.9-4.4h0
		c-0.2,1.3-0.5,2.7-1,4.4l-1.9,7H364.7z"/>
	<path fill="#231F20" d="M381.1,404.2v13.5h-1.8v-13.5H381.1z"/>
	<path fill="#231F20" d="M386.7,405.7h-4.1v-1.5h10v1.5h-4.1v12h-1.8V405.7z"/>
	<path fill="#231F20" d="M395.9,404.2v5.6h6.5v-5.6h1.8v13.5h-1.8v-6.3h-6.5v6.3h-1.8v-13.5H395.9z"/>
	<path fill="#231F20" d="M413.6,413.4l-1.4,4.2h-1.8l4.6-13.5h2.1l4.6,13.5h-1.9l-1.4-4.2H413.6z M418,412.1l-1.3-3.9
		c-0.3-0.9-0.5-1.7-0.7-2.5h0c-0.2,0.8-0.4,1.6-0.7,2.4l-1.3,3.9H418z"/>
	<path fill="#231F20" d="M427.9,404.4c0.8-0.1,1.9-0.3,3.3-0.3c1.7,0,3,0.4,3.8,1.1c0.7,0.6,1.2,1.6,1.2,2.8c0,1.2-0.4,2.2-1,2.9
		c-0.9,1-2.4,1.5-4.1,1.5c-0.5,0-1,0-1.4-0.1v5.4h-1.7V404.4z M429.6,410.9c0.4,0.1,0.9,0.1,1.4,0.1c2.1,0,3.4-1,3.4-2.9
		c0-1.8-1.3-2.7-3.2-2.7c-0.8,0-1.3,0.1-1.6,0.1V410.9z"/>
	<path fill="#231F20" d="M450,410.8c0,4.6-2.8,7.1-6.3,7.1c-3.6,0-6.1-2.8-6.1-6.9c0-4.3,2.6-7.1,6.2-7.1
		C447.7,404,450,406.8,450,410.8z M439.5,411c0,2.9,1.6,5.5,4.3,5.5c2.8,0,4.3-2.5,4.3-5.6c0-2.7-1.4-5.5-4.3-5.5
		C441,405.4,439.5,408.1,439.5,411z"/>
	<path fill="#231F20" d="M452.1,415.6c0.8,0.5,1.9,0.9,3.1,0.9c1.8,0,2.8-0.9,2.8-2.3c0-1.2-0.7-2-2.5-2.7c-2.2-0.8-3.6-2-3.6-3.8
		c0-2.1,1.7-3.7,4.4-3.7c1.4,0,2.4,0.3,3,0.7l-0.5,1.4c-0.4-0.3-1.3-0.6-2.5-0.6c-1.8,0-2.5,1.1-2.5,2c0,1.3,0.8,1.9,2.7,2.6
		c2.3,0.9,3.4,2,3.4,4c0,2.1-1.5,3.9-4.7,3.9c-1.3,0-2.7-0.4-3.4-0.9L452.1,415.6z"/>
	<path fill="#231F20" d="M463.9,404.2v13.5h-1.8v-13.5H463.9z"/>
	<path fill="#231F20" d="M469.5,405.7h-4.1v-1.5h10v1.5h-4.1v12h-1.8V405.7z"/>
	<path fill="#231F20" d="M478.6,404.2v13.5h-1.8v-13.5H478.6z"/>
	<path fill="#231F20" d="M484.6,417.7l-4.4-13.5h1.9l2.1,6.6c0.6,1.8,1.1,3.5,1.4,5h0c0.4-1.6,0.9-3.3,1.5-5l2.3-6.7h1.9l-4.8,13.5
		H484.6z"/>
	<path fill="#231F20" d="M499.8,411.4h-5.2v4.9h5.8v1.5h-7.6v-13.5h7.3v1.5h-5.5v4.3h5.2V411.4z"/>
	<path fill="#231F20" d="M506.9,404.4c0.8-0.2,2-0.3,3.2-0.3c1.7,0,2.9,0.3,3.7,1c0.7,0.5,1.1,1.3,1.1,2.4c0,1.3-0.9,2.5-2.3,3v0.1
		c1.3,0.3,2.8,1.4,2.8,3.4c0,1.2-0.5,2.1-1.2,2.7c-0.9,0.9-2.4,1.3-4.6,1.3c-1.2,0-2.1-0.1-2.7-0.2V404.4z M508.6,409.9h1.6
		c1.8,0,2.9-1,2.9-2.3c0-1.6-1.2-2.2-2.9-2.2c-0.8,0-1.3,0.1-1.5,0.1V409.9z M508.6,416.4c0.4,0.1,0.8,0.1,1.5,0.1
		c1.8,0,3.5-0.7,3.5-2.6c0-1.8-1.6-2.6-3.5-2.6h-1.4V416.4z"/>
	<path fill="#231F20" d="M519.5,404.2v8c0,3,1.3,4.3,3.1,4.3c2,0,3.3-1.3,3.3-4.3v-8h1.8v7.9c0,4.1-2.2,5.8-5.1,5.8
		c-2.8,0-4.8-1.6-4.8-5.8v-7.9H519.5z"/>
	<path fill="#231F20" d="M542.2,410.8c0,4.6-2.8,7.1-6.3,7.1c-3.6,0-6.1-2.8-6.1-6.9c0-4.3,2.6-7.1,6.2-7.1
		C539.8,404,542.2,406.8,542.2,410.8z M531.7,411c0,2.9,1.6,5.5,4.3,5.5c2.8,0,4.3-2.5,4.3-5.6c0-2.7-1.4-5.5-4.3-5.5
		S531.7,408.1,531.7,411z"/>
	<path fill="#231F20" d="M546.9,417.7V412l-4.3-7.8h2l1.9,3.7c0.5,1,0.9,1.8,1.3,2.8h0c0.4-0.9,0.8-1.8,1.4-2.8l1.9-3.7h2l-4.5,7.7
		v5.7H546.9z"/>
	<path fill="#231F20" d="M555.3,413.4l-1.4,4.2h-1.8l4.6-13.5h2.1l4.6,13.5h-1.9l-1.4-4.2H555.3z M559.7,412.1l-1.3-3.9
		c-0.3-0.9-0.5-1.7-0.7-2.5h0c-0.2,0.8-0.4,1.6-0.7,2.4l-1.3,3.9H559.7z"/>
	<path fill="#231F20" d="M565.3,417.7v-13.5h1.9l4.3,6.8c1,1.6,1.8,3,2.4,4.4l0.1,0c-0.2-1.8-0.2-3.4-0.2-5.5v-5.6h1.6v13.5h-1.8
		l-4.3-6.8c-0.9-1.5-1.8-3-2.5-4.5l-0.1,0c0.1,1.7,0.1,3.3,0.1,5.6v5.8H565.3z"/>
	<path fill="#231F20" d="M587.9,417.3c-0.6,0.3-1.9,0.6-3.6,0.6c-3.8,0-6.6-2.4-6.6-6.8c0-4.2,2.9-7.1,7-7.1c1.7,0,2.7,0.4,3.2,0.6
		l-0.4,1.4c-0.6-0.3-1.6-0.6-2.7-0.6c-3.2,0-5.3,2-5.3,5.6c0,3.3,1.9,5.4,5.2,5.4c1.1,0,2.2-0.2,2.9-0.6L587.9,417.3z"/>
	<path fill="#231F20" d="M593.1,417.7V412l-4.3-7.8h2l1.9,3.7c0.5,1,0.9,1.8,1.3,2.8h0c0.4-0.9,0.8-1.8,1.4-2.8l1.9-3.7h2l-4.5,7.7
		v5.7H593.1z"/>
	<path fill="#231F20" d="M613.6,417.7c-0.4-0.4-0.7-0.8-1.3-1.3c-1.2,1.1-2.4,1.5-3.9,1.5c-2.6,0-4.1-1.8-4.1-3.8
		c0-1.8,1.1-3.1,2.6-3.9v-0.1c-0.7-0.9-1.1-1.9-1.1-2.8c0-1.7,1.2-3.3,3.4-3.3c1.7,0,3,1.1,3,2.9c0,1.4-0.8,2.5-3,3.6v0.1
		c1.1,1.3,2.4,2.8,3.3,3.7c0.6-0.9,1-2.2,1.3-3.9h1.6c-0.4,2.1-0.9,3.8-1.9,5c0.7,0.8,1.4,1.5,2.2,2.4H613.6z M611.5,415.4
		c-0.8-0.9-2.3-2.5-3.8-4.3c-0.7,0.5-1.7,1.3-1.7,2.8c0,1.5,1.1,2.7,2.8,2.7C609.9,416.6,610.9,416.1,611.5,415.4z M607.4,407.1
		c0,1,0.5,1.7,1,2.4c1.4-0.8,2.2-1.5,2.2-2.7c0-0.8-0.5-1.7-1.6-1.7C608,405.2,607.4,406.1,607.4,407.1z"/>
	<path fill="#231F20" d="M623.3,404.2v13.5h-1.8v-13.5H623.3z"/>
	<path fill="#231F20" d="M626.1,415.6c0.8,0.5,1.9,0.9,3.1,0.9c1.8,0,2.8-0.9,2.8-2.3c0-1.2-0.7-2-2.5-2.7c-2.2-0.8-3.6-2-3.6-3.8
		c0-2.1,1.7-3.7,4.4-3.7c1.4,0,2.4,0.3,3,0.7l-0.5,1.4c-0.4-0.3-1.3-0.6-2.5-0.6c-1.8,0-2.5,1.1-2.5,2c0,1.3,0.8,1.9,2.7,2.6
		c2.3,0.9,3.4,2,3.4,4c0,2.1-1.5,3.9-4.7,3.9c-1.3,0-2.7-0.4-3.4-0.9L626.1,415.6z"/>
	<path fill="#231F20" d="M640.4,404.2h7.3v1.5h-5.5v4.5h5.1v1.4h-5.1v6.1h-1.8V404.2z"/>
	<path fill="#231F20" d="M651.9,404.2v13.5h-1.8v-13.5H651.9z"/>
	<path fill="#231F20" d="M657.5,405.7h-4.1v-1.5h10v1.5h-4.1v12h-1.8V405.7z"/>
	<path fill="#231F20" d="M668.2,405.7h-4.1v-1.5h10v1.5H670v12h-1.8V405.7z"/>
	<path fill="#231F20" d="M682.5,411.4h-5.2v4.9h5.8v1.5h-7.6v-13.5h7.3v1.5h-5.5v4.3h5.2V411.4z"/>
	<path fill="#231F20" d="M685.4,404.4c1.1-0.2,2.3-0.3,3.7-0.3c2.5,0,4.3,0.6,5.5,1.7c1.2,1.1,1.9,2.7,1.9,4.8c0,2.2-0.7,4-1.9,5.2
		c-1.3,1.3-3.4,1.9-6,1.9c-1.3,0-2.3-0.1-3.2-0.2V404.4z M687.2,416.3c0.4,0.1,1.1,0.1,1.8,0.1c3.7,0,5.7-2.1,5.7-5.7
		c0-3.2-1.8-5.2-5.5-5.2c-0.9,0-1.6,0.1-2,0.2V416.3z"/>
	<path fill="#231F20" d="M704.5,417.7l-3.4-13.5h1.8l1.6,6.8c0.4,1.7,0.8,3.4,1,4.7h0c0.2-1.3,0.6-2.9,1.1-4.7l1.8-6.8h1.8l1.6,6.8
		c0.4,1.6,0.7,3.2,0.9,4.6h0c0.3-1.5,0.7-3,1.1-4.7l1.8-6.8h1.8l-3.8,13.5h-1.8l-1.7-7c-0.4-1.7-0.7-3-0.9-4.4h0
		c-0.2,1.3-0.5,2.7-1,4.4l-1.9,7H704.5z"/>
	<path fill="#231F20" d="M720.9,404.2v13.5h-1.8v-13.5H720.9z"/>
	<path fill="#231F20" d="M726.5,405.7h-4.1v-1.5h10v1.5h-4.1v12h-1.8V405.7z"/>
	<path fill="#231F20" d="M735.6,404.2v5.6h6.5v-5.6h1.8v13.5h-1.8v-6.3h-6.5v6.3h-1.8v-13.5H735.6z"/>
	<path fill="#231F20" d="M752.9,404.2v5.6h6.5v-5.6h1.8v13.5h-1.8v-6.3h-6.5v6.3h-1.8v-13.5H752.9z"/>
	<path fill="#231F20" d="M771.2,411.4H766v4.9h5.8v1.5h-7.6v-13.5h7.3v1.5H766v4.3h5.2V411.4z"/>
	<path fill="#231F20" d="M776.2,413.4l-1.4,4.2H773l4.6-13.5h2.1l4.6,13.5h-1.9l-1.4-4.2H776.2z M780.7,412.1l-1.3-3.9
		c-0.3-0.9-0.5-1.7-0.7-2.5h0c-0.2,0.8-0.4,1.6-0.7,2.4l-1.3,3.9H780.7z"/>
	<path fill="#231F20" d="M788.2,417.7l-4.4-13.5h1.9l2.1,6.6c0.6,1.8,1.1,3.5,1.4,5h0c0.4-1.6,0.9-3.3,1.5-5l2.3-6.7h1.9l-4.8,13.5
		H788.2z"/>
	<path fill="#231F20" d="M799.4,417.7V412l-4.3-7.8h2l1.9,3.7c0.5,1,0.9,1.8,1.3,2.8h0c0.4-0.9,0.8-1.8,1.4-2.8l1.9-3.7h2l-4.5,7.7
		v5.7H799.4z"/>
	<path fill="#231F20" d="M135.8,424.4c1.1-0.2,2.3-0.3,3.7-0.3c2.5,0,4.3,0.6,5.5,1.7c1.2,1.1,1.9,2.7,1.9,4.8c0,2.2-0.7,4-1.9,5.2
		c-1.3,1.3-3.4,1.9-6,1.9c-1.3,0-2.3-0.1-3.2-0.2V424.4z M137.6,436.3c0.4,0.1,1.1,0.1,1.8,0.1c3.7,0,5.7-2.1,5.7-5.7
		c0-3.2-1.8-5.2-5.5-5.2c-0.9,0-1.6,0.1-2,0.2V436.3z"/>
	<path fill="#231F20" d="M150.9,424.2v8c0,3,1.3,4.3,3.1,4.3c2,0,3.3-1.3,3.3-4.3v-8h1.8v7.9c0,4.1-2.2,5.8-5.1,5.8
		c-2.8,0-4.8-1.6-4.8-5.8v-7.9H150.9z"/>
	<path fill="#231F20" d="M164.7,425.7h-4.1v-1.5h10v1.5h-4.1v12h-1.8V425.7z"/>
	<path fill="#231F20" d="M175.6,437.7V432l-4.3-7.8h2l1.9,3.7c0.5,1,0.9,1.8,1.3,2.8h0c0.4-0.9,0.8-1.8,1.4-2.8l1.9-3.7h2l-4.5,7.7
		v5.7H175.6z"/>
	<path fill="#231F20" d="M191.7,435.6c0.8,0.5,1.9,0.9,3.1,0.9c1.8,0,2.8-0.9,2.8-2.3c0-1.2-0.7-2-2.5-2.7c-2.2-0.8-3.6-2-3.6-3.8
		c0-2.1,1.7-3.7,4.4-3.7c1.4,0,2.4,0.3,3,0.7l-0.5,1.4c-0.4-0.3-1.3-0.6-2.5-0.6c-1.8,0-2.5,1.1-2.5,2c0,1.3,0.8,1.9,2.7,2.6
		c2.3,0.9,3.4,2,3.4,4c0,2.1-1.5,3.9-4.7,3.9c-1.3,0-2.7-0.4-3.4-0.9L191.7,435.6z"/>
	<path fill="#231F20" d="M201.8,424.4c0.8-0.1,1.9-0.3,3.3-0.3c1.7,0,3,0.4,3.8,1.1c0.7,0.6,1.2,1.6,1.2,2.8c0,1.2-0.4,2.2-1,2.9
		c-0.9,1-2.4,1.5-4.1,1.5c-0.5,0-1,0-1.4-0.1v5.4h-1.7V424.4z M203.5,430.9c0.4,0.1,0.9,0.1,1.4,0.1c2.1,0,3.4-1,3.4-2.9
		c0-1.8-1.3-2.7-3.2-2.7c-0.8,0-1.3,0.1-1.6,0.1V430.9z"/>
	<path fill="#231F20" d="M212.4,424.2h1.8v12h5.8v1.5h-7.5V424.2z"/>
	<path fill="#231F20" d="M223.6,424.2v13.5h-1.8v-13.5H223.6z"/>
	<path fill="#231F20" d="M229.2,425.7h-4.1v-1.5h10v1.5h-4.1v12h-1.8V425.7z"/>
	<path fill="#231F20" d="M240.8,424.4c0.9-0.2,2.2-0.3,3.3-0.3c1.9,0,3.1,0.4,3.9,1.1c0.7,0.6,1.1,1.5,1.1,2.6
		c0,1.8-1.1,2.9-2.5,3.4v0.1c1,0.4,1.6,1.3,2,2.7c0.4,1.9,0.8,3.2,1,3.7h-1.8c-0.2-0.4-0.5-1.5-0.9-3.2c-0.4-1.9-1.1-2.6-2.7-2.6
		h-1.6v5.8h-1.7V424.4z M242.5,430.5h1.8c1.9,0,3-1,3-2.6c0-1.7-1.3-2.5-3.1-2.5c-0.8,0-1.4,0.1-1.7,0.1V430.5z"/>
	<path fill="#231F20" d="M253.3,424.2v13.5h-1.8v-13.5H253.3z"/>
	<path fill="#231F20" d="M256.3,437.7v-13.5h1.9l4.3,6.8c1,1.6,1.8,3,2.4,4.4l0.1,0c-0.2-1.8-0.2-3.4-0.2-5.5v-5.6h1.6v13.5h-1.8
		l-4.3-6.8c-0.9-1.5-1.8-3-2.5-4.5l-0.1,0c0.1,1.7,0.1,3.3,0.1,5.6v5.8H256.3z"/>
	<path fill="#231F20" d="M279.8,437.1c-0.8,0.3-2.3,0.7-4.2,0.7c-2,0-3.7-0.5-5-1.8c-1.2-1.1-1.9-2.9-1.9-5c0-4,2.8-7,7.3-7
		c1.6,0,2.8,0.3,3.4,0.6l-0.4,1.4c-0.7-0.3-1.6-0.6-3-0.6c-3.3,0-5.4,2-5.4,5.4c0,3.4,2,5.4,5.2,5.4c1.1,0,1.9-0.2,2.3-0.4v-4h-2.7
		v-1.4h4.4V437.1z"/>
	<path fill="#231F20" d="M282.2,435.6c0.8,0.5,1.9,0.9,3.1,0.9c1.8,0,2.8-0.9,2.8-2.3c0-1.2-0.7-2-2.5-2.7c-2.2-0.8-3.6-2-3.6-3.8
		c0-2.1,1.7-3.7,4.4-3.7c1.4,0,2.4,0.3,3,0.7l-0.5,1.4c-0.4-0.3-1.3-0.6-2.5-0.6c-1.8,0-2.5,1.1-2.5,2c0,1.3,0.8,1.9,2.7,2.6
		c2.3,0.9,3.4,2,3.4,4c0,2.1-1.5,3.9-4.7,3.9c-1.3,0-2.7-0.4-3.4-0.9L282.2,435.6z"/>
	<path fill="#231F20" d="M298.7,433.4l-1.4,4.2h-1.8l4.6-13.5h2.1l4.6,13.5h-1.9l-1.4-4.2H298.7z M303.1,432.1l-1.3-3.9
		c-0.3-0.9-0.5-1.7-0.7-2.5h0c-0.2,0.8-0.4,1.6-0.7,2.4l-1.3,3.9H303.1z"/>
	<path fill="#231F20" d="M308.8,437.7v-13.5h1.9l4.3,6.8c1,1.6,1.8,3,2.4,4.4l0.1,0c-0.2-1.8-0.2-3.4-0.2-5.5v-5.6h1.6v13.5h-1.8
		l-4.3-6.8c-0.9-1.5-1.8-3-2.5-4.5l-0.1,0c0.1,1.7,0.1,3.3,0.1,5.6v5.8H308.8z"/>
	<path fill="#231F20" d="M321.9,424.4c1.1-0.2,2.3-0.3,3.7-0.3c2.5,0,4.3,0.6,5.5,1.7c1.2,1.1,1.9,2.7,1.9,4.8c0,2.2-0.7,4-1.9,5.2
		c-1.3,1.3-3.4,1.9-6,1.9c-1.3,0-2.3-0.1-3.2-0.2V424.4z M323.7,436.3c0.4,0.1,1.1,0.1,1.8,0.1c3.7,0,5.7-2.1,5.7-5.7
		c0-3.2-1.8-5.2-5.5-5.2c-0.9,0-1.6,0.1-2,0.2V436.3z"/>
	<path fill="#231F20" d="M341.2,424.2v5.6h6.5v-5.6h1.8v13.5h-1.8v-6.3h-6.5v6.3h-1.8v-13.5H341.2z"/>
	<path fill="#231F20" d="M364,430.8c0,4.6-2.8,7.1-6.3,7.1c-3.6,0-6.1-2.8-6.1-6.9c0-4.3,2.6-7.1,6.2-7.1
		C361.7,424,364,426.8,364,430.8z M353.6,431c0,2.9,1.6,5.5,4.3,5.5c2.8,0,4.3-2.5,4.3-5.6c0-2.7-1.4-5.5-4.3-5.5
		C355,425.4,353.6,428.1,353.6,431z"/>
	<path fill="#231F20" d="M377.8,430.8c0,4.6-2.8,7.1-6.3,7.1c-3.6,0-6.1-2.8-6.1-6.9c0-4.3,2.6-7.1,6.2-7.1
		C375.4,424,377.8,426.8,377.8,430.8z M367.3,431c0,2.9,1.6,5.5,4.3,5.5c2.8,0,4.3-2.5,4.3-5.6c0-2.7-1.4-5.5-4.3-5.5
		C368.8,425.4,367.3,428.1,367.3,431z"/>
	<path fill="#231F20" d="M380.1,424.2h1.7v6.5h0.1c0.4-0.5,0.7-1,1.1-1.4l4.1-5.1h2.2l-4.9,5.7l5.3,7.8h-2.1l-4.4-6.6l-1.3,1.5v5.1
		h-1.7V424.2z"/>
	<path fill="#231F20" d="M390.7,435.6c0.8,0.5,1.9,0.9,3.1,0.9c1.8,0,2.8-0.9,2.8-2.3c0-1.2-0.7-2-2.5-2.7c-2.2-0.8-3.6-2-3.6-3.8
		c0-2.1,1.7-3.7,4.4-3.7c1.4,0,2.4,0.3,3,0.7l-0.5,1.4c-0.4-0.3-1.3-0.6-2.5-0.6c-1.8,0-2.5,1.1-2.5,2c0,1.3,0.8,1.9,2.7,2.6
		c2.3,0.9,3.4,2,3.4,4c0,2.1-1.5,3.9-4.7,3.9c-1.3,0-2.7-0.4-3.4-0.9L390.7,435.6z"/>
	<path fill="#231F20" d="M400.3,436.6c0-0.7,0.5-1.3,1.2-1.3c0.7,0,1.2,0.5,1.2,1.3c0,0.7-0.5,1.3-1.2,1.3
		C400.8,437.9,400.3,437.4,400.3,436.6z"/>
	<path fill="#231F20" d="M410.9,425.7h-4.1v-1.5h10v1.5h-4.1v12h-1.8V425.7z"/>
	<path fill="#231F20" d="M420,424.2v5.6h6.5v-5.6h1.8v13.5h-1.8v-6.3H420v6.3h-1.8v-13.5H420z"/>
	<path fill="#231F20" d="M438.3,431.4H433v4.9h5.8v1.5h-7.6v-13.5h7.3v1.5H433v4.3h5.2V431.4z"/>
	<path fill="#231F20" d="M445.4,424.4c0.9-0.2,2.2-0.3,3.3-0.3c1.9,0,3.1,0.4,3.9,1.1c0.7,0.6,1.1,1.5,1.1,2.6
		c0,1.8-1.1,2.9-2.5,3.4v0.1c1,0.4,1.6,1.3,2,2.7c0.4,1.9,0.8,3.2,1,3.7h-1.8c-0.2-0.4-0.5-1.5-0.9-3.2c-0.4-1.9-1.1-2.6-2.7-2.6
		h-1.6v5.8h-1.7V424.4z M447.1,430.5h1.8c1.9,0,3-1,3-2.6c0-1.7-1.3-2.5-3.1-2.5c-0.8,0-1.4,0.1-1.7,0.1V430.5z"/>
	<path fill="#231F20" d="M458.4,433.4l-1.4,4.2h-1.8l4.6-13.5h2.1l4.6,13.5h-1.9l-1.4-4.2H458.4z M462.9,432.1l-1.3-3.9
		c-0.3-0.9-0.5-1.7-0.7-2.5h0c-0.2,0.8-0.4,1.6-0.7,2.4l-1.3,3.9H462.9z"/>
	<path fill="#231F20" d="M467.6,436.7l7.5-10.9v-0.1h-6.8v-1.5h9.1v1.1l-7.4,10.9v0.1h7.5v1.5h-9.8V436.7z"/>
	<path fill="#231F20" d="M490.7,430.8c0,4.6-2.8,7.1-6.3,7.1c-3.6,0-6.1-2.8-6.1-6.9c0-4.3,2.6-7.1,6.2-7.1
		C488.3,424,490.7,426.8,490.7,430.8z M480.2,431c0,2.9,1.6,5.5,4.3,5.5c2.8,0,4.3-2.5,4.3-5.6c0-2.7-1.4-5.5-4.3-5.5
		S480.2,428.1,480.2,431z"/>
	<path fill="#231F20" d="M492.9,424.4c0.9-0.2,2.2-0.3,3.3-0.3c1.9,0,3.1,0.4,3.9,1.1c0.7,0.6,1.1,1.5,1.1,2.6
		c0,1.8-1.1,2.9-2.5,3.4v0.1c1,0.4,1.6,1.3,2,2.7c0.4,1.9,0.8,3.2,1,3.7h-1.8c-0.2-0.4-0.5-1.5-0.9-3.2c-0.4-1.9-1.1-2.6-2.7-2.6
		h-1.6v5.8h-1.7V424.4z M494.6,430.5h1.8c1.9,0,3-1,3-2.6c0-1.7-1.3-2.5-3.1-2.5c-0.8,0-1.4,0.1-1.7,0.1V430.5z"/>
	<path fill="#231F20" d="M503.7,424.4c0.8-0.2,2-0.3,3.2-0.3c1.7,0,2.9,0.3,3.7,1c0.7,0.5,1.1,1.3,1.1,2.4c0,1.3-0.9,2.5-2.3,3v0.1
		c1.3,0.3,2.8,1.4,2.8,3.4c0,1.2-0.5,2.1-1.2,2.7c-0.9,0.9-2.4,1.3-4.6,1.3c-1.2,0-2.1-0.1-2.7-0.2V424.4z M505.4,429.9h1.6
		c1.8,0,2.9-1,2.9-2.3c0-1.6-1.2-2.2-2.9-2.2c-0.8,0-1.3,0.1-1.5,0.1V429.9z M505.4,436.4c0.4,0.1,0.8,0.1,1.5,0.1
		c1.8,0,3.5-0.7,3.5-2.6c0-1.8-1.6-2.6-3.5-2.6h-1.4V436.4z"/>
	<path fill="#231F20" d="M516.7,433.4l-1.4,4.2h-1.8l4.6-13.5h2.1l4.6,13.5h-1.9l-1.4-4.2H516.7z M521.1,432.1l-1.3-3.9
		c-0.3-0.9-0.5-1.7-0.7-2.5h0c-0.2,0.8-0.4,1.6-0.7,2.4l-1.3,3.9H521.1z"/>
	<path fill="#231F20" d="M535.8,437.3c-0.6,0.3-1.9,0.6-3.6,0.6c-3.8,0-6.6-2.4-6.6-6.8c0-4.2,2.9-7.1,7-7.1c1.7,0,2.7,0.4,3.2,0.6
		l-0.4,1.4c-0.6-0.3-1.6-0.6-2.7-0.6c-3.2,0-5.3,2-5.3,5.6c0,3.3,1.9,5.4,5.2,5.4c1.1,0,2.2-0.2,2.9-0.6L535.8,437.3z"/>
	<path fill="#231F20" d="M538,424.2h1.7v6.5h0.1c0.4-0.5,0.7-1,1.1-1.4l4.1-5.1h2.2l-4.9,5.7l5.3,7.8h-2.1l-4.4-6.6l-1.3,1.5v5.1
		H538V424.2z"/>
	<path fill="#231F20" d="M553.1,424.4c0.8-0.1,1.9-0.3,3.3-0.3c1.7,0,3,0.4,3.8,1.1c0.7,0.6,1.2,1.6,1.2,2.8c0,1.2-0.4,2.2-1,2.9
		c-0.9,1-2.4,1.5-4.1,1.5c-0.5,0-1,0-1.4-0.1v5.4h-1.7V424.4z M554.9,430.9c0.4,0.1,0.9,0.1,1.4,0.1c2.1,0,3.4-1,3.4-2.9
		c0-1.8-1.3-2.7-3.2-2.7c-0.8,0-1.3,0.1-1.6,0.1V430.9z"/>
	<path fill="#231F20" d="M563.8,424.4c0.9-0.2,2.2-0.3,3.3-0.3c1.9,0,3.1,0.4,3.9,1.1c0.7,0.6,1.1,1.5,1.1,2.6
		c0,1.8-1.1,2.9-2.5,3.4v0.1c1,0.4,1.6,1.3,2,2.7c0.4,1.9,0.8,3.2,1,3.7h-1.8c-0.2-0.4-0.5-1.5-0.9-3.2c-0.4-1.9-1.1-2.6-2.7-2.6
		h-1.6v5.8h-1.7V424.4z M565.5,430.5h1.8c1.9,0,3-1,3-2.6c0-1.7-1.3-2.5-3.1-2.5c-0.8,0-1.4,0.1-1.7,0.1V430.5z"/>
	<path fill="#231F20" d="M576.8,433.4l-1.4,4.2h-1.8l4.6-13.5h2.1l4.6,13.5H583l-1.4-4.2H576.8z M581.2,432.1l-1.3-3.9
		c-0.3-0.9-0.5-1.7-0.7-2.5h0c-0.2,0.8-0.4,1.6-0.7,2.4l-1.3,3.9H581.2z"/>
	<path fill="#231F20" d="M588,437.7l-3.4-13.5h1.8l1.6,6.8c0.4,1.7,0.8,3.4,1,4.7h0c0.2-1.3,0.6-2.9,1.1-4.7l1.8-6.8h1.8l1.6,6.8
		c0.4,1.6,0.7,3.2,0.9,4.6h0c0.3-1.5,0.7-3,1.1-4.7l1.8-6.8h1.8l-3.8,13.5h-1.8l-1.7-7c-0.4-1.7-0.7-3-0.9-4.4h0
		c-0.2,1.3-0.5,2.7-1,4.4l-1.9,7H588z"/>
	<path fill="#231F20" d="M602.7,437.7v-13.5h1.9l4.3,6.8c1,1.6,1.8,3,2.4,4.4l0.1,0c-0.2-1.8-0.2-3.4-0.2-5.5v-5.6h1.6v13.5h-1.8
		l-4.3-6.8c-0.9-1.5-1.8-3-2.5-4.5l-0.1,0c0.1,1.7,0.1,3.3,0.1,5.6v5.8H602.7z"/>
	<path fill="#231F20" d="M621.9,424.2v5.6h6.5v-5.6h1.8v13.5h-1.8v-6.3h-6.5v6.3h-1.8v-13.5H621.9z"/>
	<path fill="#231F20" d="M635.3,433.4l-1.4,4.2h-1.8l4.6-13.5h2.1l4.6,13.5h-1.9l-1.4-4.2H635.3z M639.8,432.1l-1.3-3.9
		c-0.3-0.9-0.5-1.7-0.7-2.5h0c-0.2,0.8-0.4,1.6-0.7,2.4l-1.3,3.9H639.8z"/>
	<path fill="#231F20" d="M645.2,435.6c0.8,0.5,1.9,0.9,3.1,0.9c1.8,0,2.8-0.9,2.8-2.3c0-1.2-0.7-2-2.5-2.7c-2.2-0.8-3.6-2-3.6-3.8
		c0-2.1,1.7-3.7,4.4-3.7c1.4,0,2.4,0.3,3,0.7l-0.5,1.4c-0.4-0.3-1.3-0.6-2.5-0.6c-1.8,0-2.5,1.1-2.5,2c0,1.3,0.8,1.9,2.7,2.6
		c2.3,0.9,3.4,2,3.4,4c0,2.1-1.5,3.9-4.7,3.9c-1.3,0-2.7-0.4-3.4-0.9L645.2,435.6z"/>
	<path fill="#231F20" d="M661.2,425.7h-4.1v-1.5h10v1.5H663v12h-1.8V425.7z"/>
	<path fill="#231F20" d="M671.6,437.7l-3.4-13.5h1.8l1.6,6.8c0.4,1.7,0.8,3.4,1,4.7h0c0.2-1.3,0.6-2.9,1.1-4.7l1.8-6.8h1.8l1.6,6.8
		c0.4,1.6,0.7,3.2,0.9,4.6h0c0.3-1.5,0.7-3,1.1-4.7l1.8-6.8h1.8l-3.8,13.5H679l-1.7-7c-0.4-1.7-0.7-3-0.9-4.4h0
		c-0.2,1.3-0.5,2.7-1,4.4l-1.9,7H671.6z"/>
	<path fill="#231F20" d="M697.9,430.8c0,4.6-2.8,7.1-6.3,7.1c-3.6,0-6.1-2.8-6.1-6.9c0-4.3,2.6-7.1,6.2-7.1
		C695.5,424,697.9,426.8,697.9,430.8z M687.4,431c0,2.9,1.6,5.5,4.3,5.5c2.8,0,4.3-2.5,4.3-5.6c0-2.7-1.4-5.5-4.3-5.5
		S687.4,428.1,687.4,431z"/>
	<path fill="#231F20" d="M704.4,424.4c0.8-0.2,2-0.3,3.2-0.3c1.7,0,2.9,0.3,3.7,1c0.7,0.5,1.1,1.3,1.1,2.4c0,1.3-0.9,2.5-2.3,3v0.1
		c1.3,0.3,2.8,1.4,2.8,3.4c0,1.2-0.5,2.1-1.2,2.7c-0.9,0.9-2.4,1.3-4.6,1.3c-1.2,0-2.1-0.1-2.7-0.2V424.4z M706.1,429.9h1.6
		c1.8,0,2.9-1,2.9-2.3c0-1.6-1.2-2.2-2.9-2.2c-0.8,0-1.3,0.1-1.5,0.1V429.9z M706.1,436.4c0.4,0.1,0.8,0.1,1.5,0.1
		c1.8,0,3.5-0.7,3.5-2.6c0-1.8-1.6-2.6-3.5-2.6h-1.4V436.4z"/>
	<path fill="#231F20" d="M716.9,424.2v13.5h-1.8v-13.5H716.9z"/>
	<path fill="#231F20" d="M720,424.4c0.8-0.2,2-0.3,3.2-0.3c1.7,0,2.9,0.3,3.7,1c0.7,0.5,1.1,1.3,1.1,2.4c0,1.3-0.9,2.5-2.3,3v0.1
		c1.3,0.3,2.8,1.4,2.8,3.4c0,1.2-0.5,2.1-1.2,2.7c-0.9,0.9-2.4,1.3-4.6,1.3c-1.2,0-2.1-0.1-2.7-0.2V424.4z M721.7,429.9h1.6
		c1.8,0,2.9-1,2.9-2.3c0-1.6-1.2-2.2-2.9-2.2c-0.8,0-1.3,0.1-1.5,0.1V429.9z M721.7,436.4c0.4,0.1,0.8,0.1,1.5,0.1
		c1.8,0,3.5-0.7,3.5-2.6c0-1.8-1.6-2.6-3.5-2.6h-1.4V436.4z"/>
	<path fill="#231F20" d="M746.6,430.8c0,4.6-2.8,7.1-6.3,7.1c-3.6,0-6.1-2.8-6.1-6.9c0-4.3,2.6-7.1,6.2-7.1
		C744.2,424,746.6,426.8,746.6,430.8z M736.1,431c0,2.9,1.6,5.5,4.3,5.5c2.8,0,4.3-2.5,4.3-5.6c0-2.7-1.4-5.5-4.3-5.5
		S736.1,428.1,736.1,431z"/>
	<path fill="#231F20" d="M748.8,424.4c0.8-0.1,1.9-0.3,3.3-0.3c1.7,0,3,0.4,3.8,1.1c0.7,0.6,1.2,1.6,1.2,2.8c0,1.2-0.4,2.2-1,2.9
		c-0.9,1-2.4,1.5-4.1,1.5c-0.5,0-1,0-1.4-0.1v5.4h-1.7V424.4z M750.6,430.9c0.4,0.1,0.9,0.1,1.4,0.1c2.1,0,3.4-1,3.4-2.9
		c0-1.8-1.3-2.7-3.2-2.7c-0.8,0-1.3,0.1-1.6,0.1V430.9z"/>
	<path fill="#231F20" d="M762,425.7h-4.1v-1.5h10v1.5h-4.1v12H762V425.7z"/>
	<path fill="#231F20" d="M771.2,424.2v13.5h-1.8v-13.5H771.2z"/>
	<path fill="#231F20" d="M785.7,430.8c0,4.6-2.8,7.1-6.3,7.1c-3.6,0-6.1-2.8-6.1-6.9c0-4.3,2.6-7.1,6.2-7.1
		C783.3,424,785.7,426.8,785.7,430.8z M775.2,431c0,2.9,1.6,5.5,4.3,5.5c2.8,0,4.3-2.5,4.3-5.6c0-2.7-1.4-5.5-4.3-5.5
		S775.2,428.1,775.2,431z"/>
	<path fill="#231F20" d="M788,437.7v-13.5h1.9l4.3,6.8c1,1.6,1.8,3,2.4,4.4l0.1,0c-0.2-1.8-0.2-3.4-0.2-5.5v-5.6h1.6v13.5h-1.8
		l-4.3-6.8c-0.9-1.5-1.8-3-2.5-4.5l-0.1,0c0.1,1.7,0.1,3.3,0.1,5.6v5.8H788z"/>
	<path fill="#231F20" d="M800.9,435.6c0.8,0.5,1.9,0.9,3.1,0.9c1.8,0,2.8-0.9,2.8-2.3c0-1.2-0.7-2-2.5-2.7c-2.2-0.8-3.6-2-3.6-3.8
		c0-2.1,1.7-3.7,4.4-3.7c1.4,0,2.4,0.3,3,0.7l-0.5,1.4c-0.4-0.3-1.3-0.6-2.5-0.6c-1.8,0-2.5,1.1-2.5,2c0,1.3,0.8,1.9,2.7,2.6
		c2.3,0.9,3.4,2,3.4,4c0,2.1-1.5,3.9-4.7,3.9c-1.3,0-2.7-0.4-3.4-0.9L800.9,435.6z"/>
	<path fill="#231F20" d="M810.5,436.6c0-0.7,0.5-1.3,1.2-1.3s1.2,0.5,1.2,1.3c0,0.7-0.5,1.3-1.2,1.3
		C811,437.9,810.5,437.4,810.5,436.6z"/>
</g>
<g>
	<path fill="#231F20" d="M202.8,465.4c-1.5-0.7-2.1-1.8-2.1-2.9c0-2.1,1.7-3.5,4-3.5c2.5,0,3.8,1.6,3.8,3.2c0,1.1-0.6,2.3-2.2,3v0.1
		c1.6,0.6,2.6,1.8,2.6,3.4c0,2.3-1.9,3.8-4.4,3.8c-2.7,0-4.4-1.6-4.4-3.5C200.2,467.3,201.2,466.1,202.8,465.4L202.8,465.4z
		 M207.2,468.9c0-1.6-1.1-2.3-2.9-2.8c-1.5,0.4-2.3,1.5-2.3,2.7c-0.1,1.3,0.9,2.5,2.6,2.5C206.2,471.2,207.2,470.2,207.2,468.9z
		 M202.4,462.4c0,1.3,1,2,2.5,2.4c1.1-0.4,2-1.2,2-2.4c0-1-0.6-2.1-2.2-2.1C203.2,460.3,202.4,461.2,202.4,462.4z"/>
	<path fill="#231F20" d="M219.3,465.6c0,4.4-1.7,6.9-4.5,6.9c-2.5,0-4.3-2.4-4.3-6.7c0-4.4,1.9-6.8,4.5-6.8
		C217.7,459,219.3,461.5,219.3,465.6z M212.2,465.8c0,3.4,1,5.3,2.6,5.3c1.8,0,2.6-2.1,2.6-5.4c0-3.2-0.8-5.3-2.6-5.3
		C213.3,460.4,212.2,462.3,212.2,465.8z"/>
	<path fill="#231F20" d="M221.4,465.2c0-1,0-1.8-0.1-2.6h1.5l0.1,1.6h0.1c0.5-0.9,1.4-1.8,3.1-1.8c1.3,0,2.3,0.8,2.7,1.9h0
		c0.3-0.6,0.7-1,1.1-1.3c0.6-0.4,1.2-0.7,2.1-0.7c1.3,0,3.2,0.8,3.2,4.2v5.7h-1.7v-5.5c0-1.9-0.7-3-2.1-3c-1,0-1.8,0.7-2.1,1.6
		c-0.1,0.3-0.1,0.6-0.1,0.9v6h-1.7v-5.8c0-1.5-0.7-2.6-2-2.6c-1.1,0-1.9,0.9-2.2,1.8c-0.1,0.2-0.1,0.6-0.1,0.9v5.8h-1.7V465.2z"/>
	<path fill="#231F20" d="M238.1,465.2c0-1,0-1.8-0.1-2.6h1.5l0.1,1.6h0.1c0.5-0.9,1.4-1.8,3.1-1.8c1.3,0,2.3,0.8,2.7,1.9h0
		c0.3-0.6,0.7-1,1.1-1.3c0.6-0.4,1.2-0.7,2.1-0.7c1.3,0,3.2,0.8,3.2,4.2v5.7h-1.7v-5.5c0-1.9-0.7-3-2.1-3c-1,0-1.8,0.7-2.1,1.6
		c-0.1,0.3-0.1,0.6-0.1,0.9v6h-1.7v-5.8c0-1.5-0.7-2.6-2-2.6c-1.1,0-1.9,0.9-2.2,1.8c-0.1,0.2-0.1,0.6-0.1,0.9v5.8h-1.7V465.2z"/>
	<path fill="#231F20" d="M270.5,466.3c-0.1-1.9-0.2-4.2-0.2-5.8h0c-0.5,1.6-1,3.3-1.7,5.1l-2.4,6.5h-1.3l-2.2-6.4
		c-0.6-1.9-1.2-3.6-1.5-5.2h0c0,1.7-0.1,3.9-0.3,6l-0.4,5.8h-1.7l0.9-13.5h2.2l2.3,6.5c0.6,1.7,1,3.1,1.4,4.5h0
		c0.4-1.4,0.8-2.8,1.4-4.5l2.4-6.5h2.2l0.8,13.5h-1.7L270.5,466.3z"/>
	<path fill="#231F20" d="M286.7,465.4c0,4.6-2.8,7.1-6.3,7.1c-3.6,0-6.1-2.8-6.1-6.9c0-4.3,2.6-7.1,6.2-7.1
		C284.3,458.5,286.7,461.3,286.7,465.4z M276.2,465.6c0,2.9,1.6,5.5,4.3,5.5c2.8,0,4.3-2.5,4.3-5.6c0-2.7-1.4-5.5-4.3-5.5
		C277.7,459.9,276.2,462.6,276.2,465.6z"/>
	<path fill="#231F20" d="M289,459c1.1-0.2,2.3-0.3,3.7-0.3c2.5,0,4.3,0.6,5.5,1.7c1.2,1.1,1.9,2.7,1.9,4.8c0,2.2-0.7,4-1.9,5.2
		c-1.3,1.3-3.4,1.9-6,1.9c-1.3,0-2.3-0.1-3.2-0.2V459z M290.7,470.9c0.4,0.1,1.1,0.1,1.8,0.1c3.7,0,5.7-2.1,5.7-5.7
		c0-3.2-1.8-5.2-5.5-5.2c-0.9,0-1.6,0.1-2,0.2V470.9z"/>
	<path fill="#231F20" d="M309.2,465.9H304v4.9h5.8v1.5h-7.6v-13.5h7.3v1.5H304v4.3h5.2V465.9z"/>
	<path fill="#231F20" d="M312.1,458.8h1.8v12h5.8v1.5h-7.5V458.8z"/>
	<path fill="#231F20" d="M321.1,464.2c0-0.7,0.5-1.3,1.2-1.3c0.7,0,1.2,0.5,1.2,1.3c0,0.7-0.5,1.2-1.2,1.2
		C321.6,465.4,321.1,464.9,321.1,464.2z M321.1,471.2c0-0.7,0.5-1.3,1.2-1.3c0.7,0,1.2,0.5,1.2,1.3c0,0.7-0.5,1.2-1.2,1.2
		C321.6,472.5,321.1,471.9,321.1,471.2z"/>
	<path fill="#231F20" d="M335.7,472.2l-3.4-13.5h1.8l1.6,6.8c0.4,1.7,0.8,3.4,1,4.7h0c0.2-1.3,0.6-2.9,1.1-4.7l1.8-6.8h1.8l1.6,6.8
		c0.4,1.6,0.7,3.2,0.9,4.6h0c0.3-1.5,0.7-3,1.1-4.7l1.8-6.8h1.8l-3.8,13.5h-1.8l-1.7-7c-0.4-1.7-0.7-3-0.9-4.4h0
		c-0.2,1.3-0.5,2.7-1,4.4l-1.9,7H335.7z"/>
	<path fill="#231F20" d="M357.3,465.9h-5.2v4.9h5.8v1.5h-7.6v-13.5h7.3v1.5h-5.5v4.3h5.2V465.9z"/>
	<path fill="#231F20" d="M362,458.8v13.5h-1.8v-13.5H362z"/>
	<path fill="#231F20" d="M375.3,471.6c-0.8,0.3-2.3,0.7-4.2,0.7c-2,0-3.7-0.5-5-1.8c-1.2-1.1-1.9-2.9-1.9-5c0-4,2.8-7,7.3-7
		c1.6,0,2.8,0.3,3.4,0.6l-0.4,1.4c-0.7-0.3-1.6-0.6-3-0.6c-3.3,0-5.4,2-5.4,5.4c0,3.4,2,5.4,5.2,5.4c1.1,0,1.9-0.2,2.3-0.4v-4h-2.7
		v-1.4h4.4V471.6z"/>
	<path fill="#231F20" d="M379.7,458.8v5.6h6.5v-5.6h1.8v13.5h-1.8v-6.3h-6.5v6.3h-1.8v-13.5H379.7z"/>
	<path fill="#231F20" d="M393.5,460.2h-4.1v-1.5h10v1.5h-4.1v12h-1.8V460.2z"/>
	<path fill="#231F20" d="M408.3,460.9L408.3,460.9l-2.3,1.2l-0.3-1.3l2.8-1.5h1.5v13h-1.7V460.9z"/>
	<path fill="#231F20" d="M414.8,472.2v-1.1l1.4-1.3c3.3-3.2,4.8-4.8,4.8-6.8c0-1.3-0.6-2.5-2.6-2.5c-1.2,0-2.2,0.6-2.8,1.1l-0.6-1.2
		c0.9-0.7,2.2-1.3,3.7-1.3c2.8,0,4,1.9,4,3.8c0,2.4-1.7,4.3-4.5,7l-1,1v0h5.8v1.5H414.8z"/>
	<path fill="#231F20" d="M433.9,470.8c0,2.2-0.5,3.6-1.4,4.4c-1,0.9-2.3,1.2-3.5,1.2c-1.2,0-2.4-0.3-3.2-0.8l0.4-1.4
		c0.6,0.4,1.6,0.8,2.8,0.8c1.8,0,3.1-0.9,3.1-3.4v-1.1h0c-0.5,0.9-1.6,1.6-3.1,1.6c-2.4,0-4.1-2-4.1-4.7c0-3.3,2.1-5.1,4.4-5.1
		c1.7,0,2.6,0.9,3,1.7h0l0.1-1.5h1.6c-0.1,0.7-0.1,1.5-0.1,2.6V470.8z M432.1,466.4c0-0.3,0-0.6-0.1-0.8c-0.3-1-1.2-1.9-2.5-1.9
		c-1.7,0-2.9,1.4-2.9,3.7c0,1.9,1,3.5,2.9,3.5c1.1,0,2.1-0.7,2.4-1.8c0.1-0.3,0.1-0.6,0.1-0.9V466.4z"/>
	<path fill="#231F20" d="M445.1,466.2v1.3h-4.9v-1.3H445.1z"/>
	<path fill="#231F20" d="M451.8,472.2l0.5-3.9h-1.7v-1.2h1.8l0.4-2.9h-1.7v-1.2h1.9l0.5-3.8h1.2l-0.5,3.8h2.1l0.5-3.8h1.2l-0.5,3.8
		h1.6v1.2h-1.8l-0.4,2.9h1.7v1.2h-1.9l-0.5,3.9h-1.2l0.5-3.9h-2.1l-0.5,3.9H451.8z M455.8,467.1l0.4-2.9h-2.1l-0.4,2.9H455.8z"/>
	<path fill="#231F20" d="M466.2,472.2v-3.6h-6v-1.1l5.8-8.3h1.9v8.1h1.8v1.4h-1.8v3.6H466.2z M466.2,467.3V463c0-0.7,0-1.4,0.1-2
		h-0.1c-0.4,0.8-0.7,1.3-1.1,1.9l-3.2,4.4v0H466.2z"/>
	<path fill="#231F20" d="M477.6,458.8v5.6h6.5v-5.6h1.8v13.5h-1.8v-6.3h-6.5v6.3h-1.8v-13.5H477.6z"/>
	<path fill="#231F20" d="M500.5,465.4c0,4.6-2.8,7.1-6.3,7.1c-3.6,0-6.1-2.8-6.1-6.9c0-4.3,2.6-7.1,6.2-7.1
		C498.1,458.5,500.5,461.3,500.5,465.4z M490,465.6c0,2.9,1.6,5.5,4.3,5.5c2.8,0,4.3-2.5,4.3-5.6c0-2.7-1.4-5.5-4.3-5.5
		C491.4,459.9,490,462.6,490,465.6z"/>
	<path fill="#231F20" d="M514.2,465.4c0,4.6-2.8,7.1-6.3,7.1c-3.6,0-6.1-2.8-6.1-6.9c0-4.3,2.6-7.1,6.2-7.1
		C511.9,458.5,514.2,461.3,514.2,465.4z M503.8,465.6c0,2.9,1.6,5.5,4.3,5.5c2.8,0,4.3-2.5,4.3-5.6c0-2.7-1.4-5.5-4.3-5.5
		C505.2,459.9,503.8,462.6,503.8,465.6z"/>
	<path fill="#231F20" d="M516.5,458.8h1.7v6.5h0.1c0.4-0.5,0.7-1,1.1-1.4l4.1-5.1h2.2l-4.9,5.7l5.3,7.8H524l-4.4-6.6l-1.3,1.5v5.1
		h-1.7V458.8z"/>
	<path fill="#231F20" d="M527.1,470.1c0.8,0.5,1.9,0.9,3.1,0.9c1.8,0,2.8-0.9,2.8-2.3c0-1.2-0.7-2-2.5-2.7c-2.2-0.8-3.6-2-3.6-3.8
		c0-2.1,1.7-3.7,4.4-3.7c1.4,0,2.4,0.3,3,0.7l-0.5,1.4c-0.4-0.3-1.3-0.6-2.5-0.6c-1.8,0-2.5,1.1-2.5,2c0,1.3,0.8,1.9,2.7,2.6
		c2.3,0.9,3.4,2,3.4,4c0,2.1-1.5,3.9-4.7,3.9c-1.3,0-2.7-0.4-3.4-0.9L527.1,470.1z"/>
	<path fill="#231F20" d="M545.5,466.2v1.3h-4.9v-1.3H545.5z"/>
	<path fill="#231F20" d="M551.8,459c1.1-0.2,2.3-0.3,3.7-0.3c2.5,0,4.3,0.6,5.5,1.7c1.2,1.1,1.9,2.7,1.9,4.8c0,2.2-0.7,4-1.9,5.2
		c-1.3,1.3-3.4,1.9-6,1.9c-1.3,0-2.3-0.1-3.2-0.2V459z M553.6,470.9c0.4,0.1,1.1,0.1,1.8,0.1c3.7,0,5.7-2.1,5.7-5.7
		c0-3.2-1.8-5.2-5.5-5.2c-0.9,0-1.6,0.1-2,0.2V470.9z"/>
	<path fill="#231F20" d="M566.9,458.8v13.5h-1.8v-13.5H566.9z"/>
	<path fill="#231F20" d="M572.9,472.2l-4.4-13.5h1.9l2.1,6.6c0.6,1.8,1.1,3.5,1.4,5h0c0.4-1.6,0.9-3.3,1.5-5l2.3-6.7h1.9l-4.8,13.5
		H572.9z"/>
	<path fill="#231F20" d="M582.8,458.8v13.5h-1.8v-13.5H582.8z"/>
	<path fill="#231F20" d="M585.9,472.2v-13.5h1.9l4.3,6.8c1,1.6,1.8,3,2.4,4.4l0.1,0c-0.2-1.8-0.2-3.4-0.2-5.5v-5.6h1.6v13.5h-1.8
		l-4.3-6.8c-0.9-1.5-1.8-3-2.5-4.5l-0.1,0c0.1,1.7,0.1,3.3,0.1,5.6v5.8H585.9z"/>
	<path fill="#231F20" d="M609.3,471.6c-0.8,0.3-2.3,0.7-4.2,0.7c-2,0-3.7-0.5-5-1.8c-1.2-1.1-1.9-2.9-1.9-5c0-4,2.8-7,7.3-7
		c1.6,0,2.8,0.3,3.4,0.6l-0.4,1.4c-0.7-0.3-1.6-0.6-3-0.6c-3.3,0-5.4,2-5.4,5.4c0,3.4,2,5.4,5.2,5.4c1.1,0,1.9-0.2,2.3-0.4v-4h-2.7
		v-1.4h4.4V471.6z"/>
	<path fill="#231F20" d="M616.2,459c1.1-0.2,2.3-0.3,3.7-0.3c2.5,0,4.3,0.6,5.5,1.7c1.2,1.1,1.9,2.7,1.9,4.8c0,2.2-0.7,4-1.9,5.2
		c-1.3,1.3-3.4,1.9-6,1.9c-1.3,0-2.3-0.1-3.2-0.2V459z M617.9,470.9c0.4,0.1,1.1,0.1,1.8,0.1c3.7,0,5.7-2.1,5.7-5.7
		c0-3.2-1.8-5.2-5.5-5.2c-0.9,0-1.6,0.1-2,0.2V470.9z"/>
	<path fill="#231F20" d="M636.5,465.9h-5.2v4.9h5.8v1.5h-7.6v-13.5h7.3v1.5h-5.5v4.3h5.2V465.9z"/>
	<path fill="#231F20" d="M639.3,458.9c0.8-0.1,1.9-0.3,3.3-0.3c1.7,0,3,0.4,3.8,1.1c0.7,0.6,1.2,1.6,1.2,2.8c0,1.2-0.4,2.2-1,2.9
		c-0.9,1-2.4,1.5-4.1,1.5c-0.5,0-1,0-1.4-0.1v5.4h-1.7V458.9z M641.1,465.4c0.4,0.1,0.9,0.1,1.4,0.1c2.1,0,3.4-1,3.4-2.9
		c0-1.8-1.3-2.7-3.2-2.7c-0.8,0-1.3,0.1-1.6,0.1V465.4z"/>
	<path fill="#231F20" d="M652.5,460.2h-4.1v-1.5h10v1.5h-4.1v12h-1.8V460.2z"/>
	<path fill="#231F20" d="M661.7,458.8v5.6h6.5v-5.6h1.8v13.5h-1.8v-6.3h-6.5v6.3h-1.8v-13.5H661.7z"/>
	<path fill="#231F20" d="M672.7,470.1c0.8,0.5,1.9,0.9,3.1,0.9c1.8,0,2.8-0.9,2.8-2.3c0-1.2-0.7-2-2.5-2.7c-2.2-0.8-3.6-2-3.6-3.8
		c0-2.1,1.7-3.7,4.4-3.7c1.4,0,2.4,0.3,3,0.7l-0.5,1.4c-0.4-0.3-1.3-0.6-2.5-0.6c-1.8,0-2.5,1.1-2.5,2c0,1.3,0.8,1.9,2.7,2.6
		c2.3,0.9,3.4,2,3.4,4c0,2.1-1.5,3.9-4.7,3.9c-1.3,0-2.7-0.4-3.4-0.9L672.7,470.1z"/>
	<path fill="#231F20" d="M682.4,464.2c0-0.7,0.5-1.3,1.2-1.3c0.7,0,1.2,0.5,1.2,1.3c0,0.7-0.5,1.2-1.2,1.2
		C682.8,465.4,682.4,464.9,682.4,464.2z M682.4,471.2c0-0.7,0.5-1.3,1.2-1.3c0.7,0,1.2,0.5,1.2,1.3c0,0.7-0.5,1.2-1.2,1.2
		C682.8,472.5,682.4,471.9,682.4,471.2z"/>
	<path fill="#231F20" d="M694.4,460.9L694.4,460.9l-2.3,1.2l-0.3-1.3l2.8-1.5h1.5v13h-1.7V460.9z"/>
	<path fill="#231F20" d="M701.4,465.2c0-1,0-1.8-0.1-2.6h1.5l0.1,1.6h0.1c0.5-0.9,1.4-1.8,3.1-1.8c1.3,0,2.3,0.8,2.7,1.9h0
		c0.3-0.6,0.7-1,1.1-1.3c0.6-0.4,1.2-0.7,2.1-0.7c1.3,0,3.2,0.8,3.2,4.2v5.7h-1.7v-5.5c0-1.9-0.7-3-2.1-3c-1,0-1.8,0.7-2.1,1.6
		c-0.1,0.3-0.1,0.6-0.1,0.9v6h-1.7v-5.8c0-1.5-0.7-2.6-2-2.6c-1.1,0-1.9,0.9-2.2,1.8c-0.1,0.2-0.1,0.6-0.1,0.9v5.8h-1.7V465.2z"/>
	<path fill="#231F20" d="M730.8,472.2c-0.4-0.4-0.7-0.8-1.3-1.3c-1.2,1.1-2.4,1.5-3.9,1.5c-2.6,0-4.1-1.8-4.1-3.8
		c0-1.8,1.1-3.1,2.6-3.9v-0.1c-0.7-0.9-1.1-1.9-1.1-2.8c0-1.7,1.2-3.3,3.4-3.3c1.7,0,3,1.1,3,2.9c0,1.4-0.8,2.5-3,3.6v0.1
		c1.1,1.3,2.4,2.8,3.3,3.7c0.6-0.9,1-2.2,1.3-3.9h1.6c-0.4,2.1-0.9,3.8-1.9,5c0.7,0.8,1.4,1.5,2.2,2.4H730.8z M728.7,469.9
		c-0.8-0.9-2.3-2.5-3.8-4.3c-0.7,0.5-1.7,1.3-1.7,2.8c0,1.5,1.1,2.7,2.8,2.7C727.1,471.1,728.1,470.6,728.7,469.9z M724.6,461.7
		c0,1,0.5,1.7,1,2.4c1.4-0.8,2.2-1.5,2.2-2.7c0-0.8-0.5-1.7-1.6-1.7C725.2,459.7,724.6,460.6,724.6,461.7z"/>
	<path fill="#231F20" d="M738.5,470.2c0.5,0.3,1.6,0.8,2.9,0.8c2.2,0,3-1.4,2.9-2.5c0-1.8-1.7-2.6-3.4-2.6h-1v-1.3h1
		c1.3,0,2.9-0.7,2.9-2.2c0-1-0.7-2-2.3-2c-1,0-2,0.5-2.6,0.9l-0.5-1.3c0.7-0.5,2-1,3.4-1c2.6,0,3.7,1.5,3.7,3.1
		c0,1.4-0.8,2.5-2.4,3.1v0c1.6,0.3,2.9,1.5,2.9,3.3c0,2.1-1.6,3.9-4.7,3.9c-1.5,0-2.7-0.5-3.4-0.9L738.5,470.2z"/>
	<path fill="#231F20" d="M748.9,465.2c0-1,0-1.8-0.1-2.6h1.5l0.1,1.6h0.1c0.5-0.9,1.4-1.8,3.1-1.8c1.3,0,2.3,0.8,2.7,1.9h0
		c0.3-0.6,0.7-1,1.1-1.3c0.6-0.4,1.2-0.7,2.1-0.7c1.3,0,3.2,0.8,3.2,4.2v5.7H761v-5.5c0-1.9-0.7-3-2.1-3c-1,0-1.8,0.7-2.1,1.6
		c-0.1,0.3-0.1,0.6-0.1,0.9v6H755v-5.8c0-1.5-0.7-2.6-2-2.6c-1.1,0-1.9,0.9-2.2,1.8c-0.1,0.2-0.1,0.6-0.1,0.9v5.8h-1.7V465.2z"/>
	<path fill="#231F20" d="M765.2,471.2c0-0.7,0.5-1.3,1.2-1.3c0.7,0,1.2,0.5,1.2,1.3c0,0.7-0.5,1.3-1.2,1.3
		C765.6,472.5,765.2,471.9,765.2,471.2z"/>
</g>
<g>
	<path fill="#53A175" stroke="#231F20" stroke-width="0.216" stroke-miterlimit="2.4142" d="M124.8,131.9h-1.4v6.4
		c0,0.8-0.2,1.5-0.6,1.9c-0.4,0.4-0.9,0.6-1.5,0.6c-0.6,0-1.1-0.2-1.5-0.6s-0.5-1-0.5-1.8V123c0-0.9,0.2-1.5,0.6-1.9
		c0.4-0.4,1-0.6,1.9-0.6h6.6c0.9,0,1.7,0,2.3,0.1c0.6,0.1,1.2,0.2,1.8,0.5c0.6,0.3,1.2,0.6,1.7,1.1c0.5,0.5,0.8,1.1,1.1,1.7
		c0.3,0.7,0.4,1.3,0.4,2.1c0,1.5-0.4,2.7-1.3,3.6c-0.8,0.9-2.1,1.5-3.8,1.9c0.7,0.4,1.4,0.9,2.1,1.7s1.2,1.5,1.8,2.4
		c0.5,0.8,0.9,1.6,1.2,2.3s0.4,1.1,0.4,1.4c0,0.3-0.1,0.5-0.3,0.8c-0.2,0.3-0.4,0.5-0.7,0.6c-0.3,0.2-0.6,0.2-1,0.2
		c-0.5,0-0.8-0.1-1.1-0.3c-0.3-0.2-0.6-0.5-0.8-0.8c-0.2-0.3-0.5-0.8-0.9-1.4l-1.6-2.7c-0.6-1-1.1-1.8-1.6-2.3
		c-0.5-0.5-0.9-0.9-1.4-1.1C126.1,132,125.5,131.9,124.8,131.9z M127.1,123.5h-3.7v5.5h3.6c1,0,1.8-0.1,2.5-0.3
		c0.7-0.2,1.2-0.5,1.5-0.9c0.4-0.4,0.5-1,0.5-1.7c0-0.6-0.1-1-0.4-1.5c-0.3-0.4-0.7-0.7-1.2-1C129.4,123.6,128.5,123.5,127.1,123.5z
		"/>
	<path fill="#53A175" stroke="#231F20" stroke-width="0.216" stroke-miterlimit="2.4142" d="M152.3,138.2l-1-2.5h-8.1l-1,2.6
		c-0.4,1-0.7,1.7-1,2c-0.3,0.4-0.7,0.5-1.3,0.5c-0.5,0-1-0.2-1.4-0.6c-0.4-0.4-0.6-0.8-0.6-1.3c0-0.3,0-0.6,0.1-0.8
		c0.1-0.3,0.2-0.7,0.5-1.2l5.1-13c0.1-0.4,0.3-0.8,0.5-1.3s0.4-1,0.7-1.3s0.5-0.6,0.9-0.8c0.4-0.2,0.8-0.3,1.4-0.3
		c0.6,0,1,0.1,1.4,0.3c0.4,0.2,0.7,0.5,0.9,0.8s0.4,0.7,0.6,1.1c0.2,0.4,0.4,0.9,0.6,1.6l5.2,12.9c0.4,1,0.6,1.7,0.6,2.1
		c0,0.5-0.2,0.9-0.6,1.3c-0.4,0.4-0.9,0.6-1.4,0.6c-0.3,0-0.6-0.1-0.8-0.2c-0.2-0.1-0.4-0.3-0.6-0.5c-0.2-0.2-0.3-0.5-0.5-0.9
		S152.4,138.5,152.3,138.2z M144.3,132.7h6l-3-8.3L144.3,132.7z"/>
	<path fill="#53A175" stroke="#231F20" stroke-width="0.216" stroke-miterlimit="2.4142" d="M159.1,135.8l10.3-12.3h-8.8
		c-0.6,0-1.1-0.1-1.4-0.4s-0.5-0.6-0.5-1.1c0-0.5,0.2-0.8,0.5-1.1s0.8-0.4,1.4-0.4h11.4c1.5,0,2.2,0.7,2.2,2.1
		c0,0.7-0.1,1.2-0.4,1.6s-0.7,1-1.5,1.9l-9.6,11.5h10.6c0.6,0,1.1,0.1,1.4,0.4c0.3,0.3,0.5,0.6,0.5,1.1c0,0.5-0.2,0.9-0.5,1.1
		c-0.3,0.3-0.8,0.4-1.4,0.4h-13c-0.9,0-1.5-0.2-2-0.6c-0.4-0.4-0.7-0.9-0.7-1.6c0-0.2,0-0.4,0.1-0.6c0.1-0.2,0.2-0.4,0.3-0.5
		s0.3-0.4,0.5-0.6S158.9,136,159.1,135.8z"/>
	<path fill="#53A175" stroke="#231F20" stroke-width="0.216" stroke-miterlimit="2.4142" d="M186.5,120.1c2.1,0,3.9,0.4,5.4,1.3
		s2.6,2,3.4,3.6s1.1,3.4,1.1,5.5c0,1.5-0.2,3-0.6,4.2c-0.4,1.3-1,2.4-1.9,3.3c-0.8,0.9-1.9,1.6-3.1,2.1c-1.2,0.5-2.6,0.7-4.2,0.7
		c-1.6,0-3-0.3-4.2-0.8c-1.2-0.5-2.3-1.2-3.1-2.1c-0.8-0.9-1.5-2-1.9-3.3s-0.6-2.7-0.6-4.2c0-1.5,0.2-3,0.7-4.2
		c0.4-1.3,1.1-2.4,1.9-3.3c0.8-0.9,1.9-1.6,3.1-2.1S185,120.1,186.5,120.1z M192.3,130.4c0-1.5-0.2-2.7-0.7-3.8
		c-0.5-1.1-1.2-1.9-2-2.4c-0.9-0.6-1.9-0.8-3-0.8c-0.8,0-1.6,0.2-2.2,0.5c-0.7,0.3-1.3,0.8-1.8,1.3c-0.5,0.6-0.9,1.3-1.2,2.2
		s-0.4,1.9-0.4,3.1c0,1.1,0.1,2.2,0.4,3.1s0.7,1.7,1.2,2.3c0.5,0.6,1.1,1.1,1.8,1.4c0.7,0.3,1.4,0.5,2.2,0.5c1,0,2-0.3,2.9-0.8
		c0.9-0.5,1.6-1.3,2.1-2.4C192,133.4,192.3,132,192.3,130.4z"/>
	<path fill="#53A175" stroke="#231F20" stroke-width="0.216" stroke-miterlimit="2.4142" d="M205.3,131.9h-1.4v6.4
		c0,0.8-0.2,1.5-0.6,1.9c-0.4,0.4-0.9,0.6-1.5,0.6c-0.6,0-1.1-0.2-1.5-0.6s-0.5-1-0.5-1.8V123c0-0.9,0.2-1.5,0.6-1.9
		c0.4-0.4,1-0.6,1.9-0.6h6.6c0.9,0,1.7,0,2.3,0.1c0.6,0.1,1.2,0.2,1.8,0.5c0.6,0.3,1.2,0.6,1.7,1.1c0.5,0.5,0.8,1.1,1.1,1.7
		c0.3,0.7,0.4,1.3,0.4,2.1c0,1.5-0.4,2.7-1.3,3.6c-0.8,0.9-2.1,1.5-3.8,1.9c0.7,0.4,1.4,0.9,2.1,1.7s1.2,1.5,1.8,2.4
		c0.5,0.8,0.9,1.6,1.2,2.3s0.4,1.1,0.4,1.4c0,0.3-0.1,0.5-0.3,0.8c-0.2,0.3-0.4,0.5-0.7,0.6c-0.3,0.2-0.6,0.2-1,0.2
		c-0.5,0-0.8-0.1-1.1-0.3c-0.3-0.2-0.6-0.5-0.8-0.8c-0.2-0.3-0.5-0.8-0.9-1.4l-1.6-2.7c-0.6-1-1.1-1.8-1.6-2.3
		c-0.5-0.5-0.9-0.9-1.4-1.1C206.6,132,206.1,131.9,205.3,131.9z M207.7,123.5h-3.7v5.5h3.6c1,0,1.8-0.1,2.5-0.3
		c0.7-0.2,1.2-0.5,1.5-0.9c0.4-0.4,0.5-1,0.5-1.7c0-0.6-0.1-1-0.4-1.5c-0.3-0.4-0.7-0.7-1.2-1C210,123.6,209.1,123.5,207.7,123.5z"
		/>
	<path fill="#53A175" stroke="#231F20" stroke-width="0.216" stroke-miterlimit="2.4142" d="M228.6,140.5h-6.1
		c-0.9,0-1.5-0.2-1.9-0.6c-0.4-0.4-0.6-1-0.6-1.9V123c0-0.9,0.2-1.5,0.6-1.9c0.4-0.4,1-0.6,1.9-0.6h6.5c1,0,1.8,0.1,2.5,0.2
		c0.7,0.1,1.3,0.3,1.9,0.7c0.5,0.3,0.9,0.6,1.3,1.1c0.4,0.4,0.6,0.9,0.8,1.4s0.3,1.1,0.3,1.7c0,2-1,3.5-3,4.4c2.6,0.8,4,2.5,4,4.9
		c0,1.1-0.3,2.1-0.9,3s-1.3,1.6-2.3,2c-0.6,0.3-1.3,0.4-2.1,0.5S229.6,140.5,228.6,140.5z M224,123.5v5.2h3.7c1,0,1.8-0.1,2.3-0.3
		c0.6-0.2,1-0.6,1.3-1.1c0.2-0.4,0.3-0.8,0.3-1.3c0-1-0.4-1.7-1.1-2c-0.7-0.3-1.8-0.5-3.3-0.5H224z M228.3,131.6H224v5.9h4.4
		c2.7,0,4.1-1,4.1-3c0-1-0.4-1.7-1.1-2.2S229.7,131.6,228.3,131.6z"/>
	<path fill="#53A175" stroke="#231F20" stroke-width="0.216" stroke-miterlimit="2.4142" d="M251.9,138.2l-1-2.5h-8.1l-1,2.6
		c-0.4,1-0.7,1.7-1,2c-0.3,0.4-0.7,0.5-1.3,0.5c-0.5,0-1-0.2-1.4-0.6c-0.4-0.4-0.6-0.8-0.6-1.3c0-0.3,0-0.6,0.1-0.8
		c0.1-0.3,0.2-0.7,0.5-1.2l5.1-13c0.1-0.4,0.3-0.8,0.5-1.3s0.4-1,0.7-1.3s0.5-0.6,0.9-0.8c0.4-0.2,0.8-0.3,1.4-0.3
		c0.6,0,1,0.1,1.4,0.3c0.4,0.2,0.7,0.5,0.9,0.8s0.4,0.7,0.6,1.1c0.2,0.4,0.4,0.9,0.6,1.6l5.2,12.9c0.4,1,0.6,1.7,0.6,2.1
		c0,0.5-0.2,0.9-0.6,1.3c-0.4,0.4-0.9,0.6-1.4,0.6c-0.3,0-0.6-0.1-0.8-0.2c-0.2-0.1-0.4-0.3-0.6-0.5c-0.2-0.2-0.3-0.5-0.5-0.9
		S252,138.5,251.9,138.2z M243.9,132.7h6l-3-8.3L243.9,132.7z"/>
	<path fill="#53A175" stroke="#231F20" stroke-width="0.216" stroke-miterlimit="2.4142" d="M275.6,134.2c0,0.6-0.2,1.3-0.5,2.1
		s-0.8,1.5-1.5,2.2c-0.7,0.7-1.5,1.3-2.6,1.7c-1,0.4-2.3,0.7-3.7,0.7c-1.1,0-2-0.1-2.9-0.3c-0.9-0.2-1.7-0.5-2.4-0.9
		c-0.7-0.4-1.4-1-1.9-1.7c-0.5-0.6-1-1.3-1.4-2.1c-0.4-0.8-0.7-1.6-0.8-2.5c-0.2-0.9-0.3-1.8-0.3-2.8c0-1.6,0.2-3.1,0.7-4.3
		c0.5-1.3,1.1-2.4,2-3.3s1.9-1.6,3.1-2.1s2.4-0.7,3.8-0.7c1.6,0,3.1,0.3,4.3,1c1.3,0.6,2.2,1.4,2.9,2.4c0.7,1,1,1.9,1,2.7
		c0,0.5-0.2,0.9-0.5,1.2s-0.7,0.5-1.2,0.5c-0.5,0-0.9-0.1-1.2-0.4s-0.5-0.7-0.9-1.3c-0.5-1-1.2-1.7-1.9-2.2
		c-0.7-0.5-1.6-0.7-2.6-0.7c-1.7,0-3,0.6-4,1.9c-1,1.3-1.5,3.1-1.5,5.4c0,1.6,0.2,2.9,0.7,3.9s1.1,1.8,1.9,2.3
		c0.8,0.5,1.7,0.8,2.8,0.8c1.2,0,2.2-0.3,3-0.9s1.4-1.4,1.8-2.5c0.2-0.5,0.4-1,0.6-1.3c0.3-0.3,0.7-0.5,1.2-0.5
		c0.5,0,0.9,0.2,1.2,0.5C275.4,133.3,275.6,133.7,275.6,134.2z"/>
	<path fill="#53A175" stroke="#231F20" stroke-width="0.216" stroke-miterlimit="2.4142" d="M283.3,122.6v7l8-8.3
		c0.4-0.4,0.7-0.7,1-0.9c0.3-0.2,0.6-0.3,1.1-0.3c0.6,0,1.1,0.2,1.4,0.5c0.4,0.3,0.5,0.8,0.5,1.3c0,0.6-0.3,1.2-0.9,1.8l-4.9,4.7
		l5.7,8.1c0.4,0.6,0.7,1.1,0.9,1.5c0.2,0.4,0.3,0.8,0.3,1.2c0,0.4-0.2,0.8-0.5,1.2c-0.4,0.3-0.8,0.5-1.4,0.5c-0.6,0-1-0.1-1.4-0.4
		s-0.7-0.6-0.9-1s-0.5-0.8-0.7-1.1l-4.8-7.4l-3.3,3.2v4.1c0,0.8-0.2,1.5-0.6,1.9s-0.9,0.6-1.5,0.6c-0.3,0-0.7-0.1-1-0.3
		c-0.3-0.2-0.6-0.4-0.7-0.7c-0.1-0.3-0.2-0.6-0.2-0.9s0-0.8,0-1.5v-14.9c0-0.8,0.2-1.4,0.5-1.8c0.4-0.4,0.8-0.6,1.5-0.6
		c0.6,0,1.1,0.2,1.5,0.6C283.2,121.1,283.3,121.8,283.3,122.6z"/>
	<path fill="#53A175" stroke="#231F20" stroke-width="0.216" stroke-miterlimit="2.4142" d="M314.8,132.7H311v5.7
		c0,0.8-0.2,1.4-0.6,1.8s-0.9,0.6-1.4,0.6c-0.6,0-1.1-0.2-1.5-0.6c-0.4-0.4-0.6-1-0.6-1.8V123c0-0.9,0.2-1.5,0.6-1.9s1.1-0.6,2-0.6
		h5.2c1.5,0,2.7,0.1,3.6,0.4c0.8,0.2,1.5,0.6,2.1,1.1c0.6,0.5,1.1,1.2,1.4,1.9c0.3,0.8,0.5,1.6,0.5,2.6c0,2-0.6,3.6-1.9,4.6
		S317.3,132.7,314.8,132.7z M313.8,123.5H311v6.1h2.7c1,0,1.8-0.1,2.4-0.3s1.1-0.5,1.5-1c0.3-0.5,0.5-1.1,0.5-1.8
		c0-0.9-0.3-1.6-0.8-2.2C316.8,123.8,315.6,123.5,313.8,123.5z"/>
	<path fill="#53A175" stroke="#231F20" stroke-width="0.216" stroke-miterlimit="2.4142" d="M331.1,131.9h-1.4v6.4
		c0,0.8-0.2,1.5-0.6,1.9c-0.4,0.4-0.9,0.6-1.5,0.6c-0.6,0-1.1-0.2-1.5-0.6s-0.5-1-0.5-1.8V123c0-0.9,0.2-1.5,0.6-1.9
		c0.4-0.4,1-0.6,1.9-0.6h6.6c0.9,0,1.7,0,2.3,0.1c0.6,0.1,1.2,0.2,1.8,0.5c0.6,0.3,1.2,0.6,1.7,1.1c0.5,0.5,0.8,1.1,1.1,1.7
		c0.3,0.7,0.4,1.3,0.4,2.1c0,1.5-0.4,2.7-1.3,3.6c-0.8,0.9-2.1,1.5-3.8,1.9c0.7,0.4,1.4,0.9,2.1,1.7s1.2,1.5,1.8,2.4
		c0.5,0.8,0.9,1.6,1.2,2.3s0.4,1.1,0.4,1.4c0,0.3-0.1,0.5-0.3,0.8c-0.2,0.3-0.4,0.5-0.7,0.6c-0.3,0.2-0.6,0.2-1,0.2
		c-0.5,0-0.8-0.1-1.1-0.3c-0.3-0.2-0.6-0.5-0.8-0.8c-0.2-0.3-0.5-0.8-0.9-1.4l-1.6-2.7c-0.6-1-1.1-1.8-1.6-2.3
		c-0.5-0.5-0.9-0.9-1.4-1.1C332.4,132,331.8,131.9,331.1,131.9z M333.4,123.5h-3.7v5.5h3.6c1,0,1.8-0.1,2.5-0.3
		c0.7-0.2,1.2-0.5,1.5-0.9c0.4-0.4,0.5-1,0.5-1.7c0-0.6-0.1-1-0.4-1.5c-0.3-0.4-0.7-0.7-1.2-1C335.8,123.6,334.8,123.5,333.4,123.5z
		"/>
	<path fill="#53A175" stroke="#231F20" stroke-width="0.216" stroke-miterlimit="2.4142" d="M358.6,138.2l-1-2.5h-8.1l-1,2.6
		c-0.4,1-0.7,1.7-1,2c-0.3,0.4-0.7,0.5-1.3,0.5c-0.5,0-1-0.2-1.4-0.6c-0.4-0.4-0.6-0.8-0.6-1.3c0-0.3,0-0.6,0.1-0.8
		c0.1-0.3,0.2-0.7,0.5-1.2l5.1-13c0.1-0.4,0.3-0.8,0.5-1.3s0.4-1,0.7-1.3s0.5-0.6,0.9-0.8c0.4-0.2,0.8-0.3,1.4-0.3
		c0.6,0,1,0.1,1.4,0.3c0.4,0.2,0.7,0.5,0.9,0.8s0.4,0.7,0.6,1.1c0.2,0.4,0.4,0.9,0.6,1.6l5.2,12.9c0.4,1,0.6,1.7,0.6,2.1
		c0,0.5-0.2,0.9-0.6,1.3c-0.4,0.4-0.9,0.6-1.4,0.6c-0.3,0-0.6-0.1-0.8-0.2c-0.2-0.1-0.4-0.3-0.6-0.5c-0.2-0.2-0.3-0.5-0.5-0.9
		S358.7,138.5,358.6,138.2z M350.6,132.7h6l-3-8.3L350.6,132.7z"/>
	<path fill="#53A175" stroke="#231F20" stroke-width="0.216" stroke-miterlimit="2.4142" d="M380.1,137.4l-3.2-12l-3.3,12
		c-0.3,0.9-0.5,1.6-0.6,2s-0.4,0.8-0.8,1.1c-0.4,0.3-0.9,0.5-1.5,0.5c-0.5,0-0.9-0.1-1.2-0.3c-0.3-0.2-0.6-0.5-0.8-0.8
		c-0.2-0.3-0.4-0.7-0.5-1.2c-0.1-0.5-0.2-0.9-0.3-1.3l-3.3-13.5c-0.2-0.8-0.3-1.4-0.3-1.8c0-0.5,0.2-1,0.5-1.3
		c0.4-0.4,0.8-0.5,1.4-0.5c0.7,0,1.2,0.2,1.5,0.7c0.3,0.5,0.5,1.2,0.7,2.1l2.6,11.7l2.9-11c0.2-0.8,0.4-1.5,0.6-1.9
		c0.2-0.4,0.5-0.8,0.8-1.1c0.4-0.3,0.9-0.5,1.6-0.5c0.7,0,1.2,0.2,1.6,0.5c0.4,0.3,0.6,0.7,0.8,1.1c0.1,0.4,0.3,1,0.6,1.9l3,11
		l2.6-11.7c0.1-0.6,0.2-1.1,0.4-1.4c0.1-0.3,0.3-0.7,0.6-0.9c0.3-0.3,0.7-0.4,1.2-0.4c0.5,0,1,0.2,1.3,0.5s0.6,0.8,0.6,1.3
		c0,0.4-0.1,1-0.3,1.8l-3.3,13.5c-0.2,0.9-0.4,1.6-0.6,2s-0.4,0.8-0.8,1.1c-0.4,0.3-0.9,0.5-1.5,0.5c-0.6,0-1.1-0.2-1.5-0.5
		c-0.4-0.3-0.6-0.7-0.8-1C380.6,139,380.4,138.3,380.1,137.4z"/>
	<path fill="#53A175" stroke="#231F20" stroke-width="0.216" stroke-miterlimit="2.4142" d="M397.5,122.6l7.8,11.8v-11.9
		c0-0.8,0.2-1.4,0.5-1.7c0.3-0.4,0.8-0.6,1.3-0.6c0.6,0,1,0.2,1.4,0.6c0.3,0.4,0.5,1,0.5,1.7v15.8c0,1.8-0.7,2.6-2.2,2.6
		c-0.4,0-0.7-0.1-1-0.2c-0.3-0.1-0.6-0.3-0.8-0.5c-0.3-0.2-0.5-0.5-0.7-0.8s-0.4-0.6-0.7-0.9l-7.6-11.7v11.7c0,0.8-0.2,1.3-0.5,1.7
		s-0.8,0.6-1.4,0.6c-0.6,0-1-0.2-1.4-0.6c-0.3-0.4-0.5-1-0.5-1.7v-15.5c0-0.7,0.1-1.2,0.2-1.5c0.2-0.4,0.5-0.7,0.9-1
		c0.4-0.3,0.8-0.4,1.3-0.4c0.4,0,0.7,0.1,0.9,0.2s0.5,0.3,0.7,0.5c0.2,0.2,0.4,0.5,0.6,0.8S397.3,122.2,397.5,122.6z"/>
</g>
<image overflow="visible" width="3553" height="1566" xlink:href="FAF649F5.jpg"  transform="matrix(-7.669400e-002 0 0 7.669400e-002 850.1279 29.0625)">
</image>
<g>
	<path fill="#FEE716" stroke="#231F20" stroke-width="0.5669" stroke-miterlimit="2.4142" d="M631,106.2h-6.1
		c-0.9,0-1.5-0.2-1.9-0.6c-0.4-0.4-0.6-1-0.6-1.9V88.7c0-0.9,0.2-1.5,0.6-1.9c0.4-0.4,1-0.6,1.9-0.6h6.5c1,0,1.8,0.1,2.5,0.2
		c0.7,0.1,1.3,0.3,1.9,0.7c0.5,0.3,0.9,0.6,1.3,1.1c0.4,0.4,0.6,0.9,0.8,1.4c0.2,0.5,0.3,1.1,0.3,1.7c0,2-1,3.5-3,4.4
		c2.6,0.8,4,2.5,4,4.9c0,1.1-0.3,2.1-0.9,3c-0.6,0.9-1.3,1.6-2.3,2c-0.6,0.3-1.3,0.4-2.1,0.5S632,106.2,631,106.2z M626.4,89.2v5.2
		h3.7c1,0,1.8-0.1,2.3-0.3c0.6-0.2,1-0.6,1.3-1.1c0.2-0.4,0.3-0.8,0.3-1.3c0-1-0.4-1.7-1.1-2c-0.7-0.3-1.8-0.5-3.3-0.5H626.4z
		 M630.7,97.3h-4.2v5.9h4.4c2.7,0,4.1-1,4.1-3c0-1-0.4-1.7-1.1-2.2S632.1,97.3,630.7,97.3z"/>
	<path fill="#FEE716" stroke="#231F20" stroke-width="0.5669" stroke-miterlimit="2.4142" d="M654.3,104l-1-2.5h-8.1l-1,2.6
		c-0.4,1-0.7,1.7-1,2s-0.7,0.5-1.3,0.5c-0.5,0-1-0.2-1.4-0.6s-0.6-0.8-0.6-1.3c0-0.3,0-0.6,0.1-0.8c0.1-0.3,0.2-0.7,0.5-1.2l5.1-13
		c0.1-0.4,0.3-0.8,0.5-1.3c0.2-0.5,0.4-1,0.7-1.3c0.2-0.3,0.5-0.6,0.9-0.8c0.4-0.2,0.8-0.3,1.4-0.3c0.6,0,1,0.1,1.4,0.3
		c0.4,0.2,0.7,0.5,0.9,0.8c0.2,0.3,0.4,0.7,0.6,1.1c0.2,0.4,0.4,0.9,0.6,1.6l5.2,12.9c0.4,1,0.6,1.7,0.6,2.1c0,0.5-0.2,0.9-0.6,1.3
		c-0.4,0.4-0.9,0.6-1.4,0.6c-0.3,0-0.6-0.1-0.8-0.2s-0.4-0.3-0.6-0.5s-0.3-0.5-0.5-0.9S654.4,104.3,654.3,104z M646.3,98.4h6l-3-8.3
		L646.3,98.4z"/>
	<path fill="#FEE716" stroke="#231F20" stroke-width="0.5669" stroke-miterlimit="2.4142" d="M667.1,97.7h-1.4v6.4
		c0,0.8-0.2,1.5-0.6,1.9c-0.4,0.4-0.9,0.6-1.5,0.6c-0.6,0-1.1-0.2-1.5-0.6s-0.5-1-0.5-1.8V88.7c0-0.9,0.2-1.5,0.6-1.9
		c0.4-0.4,1-0.6,1.9-0.6h6.6c0.9,0,1.7,0,2.3,0.1c0.6,0.1,1.2,0.2,1.8,0.5c0.6,0.3,1.2,0.6,1.7,1.1c0.5,0.5,0.8,1.1,1.1,1.7
		c0.3,0.7,0.4,1.3,0.4,2.1c0,1.5-0.4,2.7-1.3,3.6c-0.8,0.9-2.1,1.5-3.8,1.9c0.7,0.4,1.4,0.9,2.1,1.7s1.2,1.5,1.8,2.4
		s0.9,1.6,1.2,2.3c0.3,0.7,0.4,1.1,0.4,1.4c0,0.3-0.1,0.5-0.3,0.8s-0.4,0.5-0.7,0.6c-0.3,0.2-0.6,0.2-1,0.2c-0.5,0-0.8-0.1-1.1-0.3
		c-0.3-0.2-0.6-0.5-0.8-0.8s-0.5-0.8-0.9-1.4l-1.6-2.7c-0.6-1-1.1-1.8-1.6-2.3s-0.9-0.9-1.4-1.1C668.4,97.8,667.8,97.7,667.1,97.7z
		 M669.4,89.2h-3.7v5.5h3.6c1,0,1.8-0.1,2.5-0.3c0.7-0.2,1.2-0.5,1.5-0.9c0.4-0.4,0.5-1,0.5-1.7c0-0.6-0.1-1-0.4-1.5
		c-0.3-0.4-0.7-0.7-1.2-1C671.7,89.3,670.8,89.2,669.4,89.2z"/>
	<path fill="#FEE716" stroke="#231F20" stroke-width="0.5669" stroke-miterlimit="2.4142" d="M687.2,97.7h-1.4v6.4
		c0,0.8-0.2,1.5-0.6,1.9c-0.4,0.4-0.9,0.6-1.5,0.6c-0.6,0-1.1-0.2-1.5-0.6s-0.5-1-0.5-1.8V88.7c0-0.9,0.2-1.5,0.6-1.9
		c0.4-0.4,1-0.6,1.9-0.6h6.6c0.9,0,1.7,0,2.3,0.1c0.6,0.1,1.2,0.2,1.8,0.5c0.6,0.3,1.2,0.6,1.7,1.1c0.5,0.5,0.8,1.1,1.1,1.7
		c0.3,0.7,0.4,1.3,0.4,2.1c0,1.5-0.4,2.7-1.3,3.6c-0.8,0.9-2.1,1.5-3.8,1.9c0.7,0.4,1.4,0.9,2.1,1.7s1.2,1.5,1.8,2.4
		s0.9,1.6,1.2,2.3c0.3,0.7,0.4,1.1,0.4,1.4c0,0.3-0.1,0.5-0.3,0.8s-0.4,0.5-0.7,0.6c-0.3,0.2-0.6,0.2-1,0.2c-0.5,0-0.8-0.1-1.1-0.3
		c-0.3-0.2-0.6-0.5-0.8-0.8s-0.5-0.8-0.9-1.4l-1.6-2.7c-0.6-1-1.1-1.8-1.6-2.3s-0.9-0.9-1.4-1.1C688.5,97.8,687.9,97.7,687.2,97.7z
		 M689.5,89.2h-3.7v5.5h3.6c1,0,1.8-0.1,2.5-0.3c0.7-0.2,1.2-0.5,1.5-0.9c0.4-0.4,0.5-1,0.5-1.7c0-0.6-0.1-1-0.4-1.5
		c-0.3-0.4-0.7-0.7-1.2-1C691.9,89.3,690.9,89.2,689.5,89.2z"/>
	<path fill="#FEE716" stroke="#231F20" stroke-width="0.5669" stroke-miterlimit="2.4142" d="M714.7,104l-1-2.5h-8.1l-1,2.6
		c-0.4,1-0.7,1.7-1,2c-0.3,0.4-0.7,0.5-1.3,0.5c-0.5,0-1-0.2-1.4-0.6c-0.4-0.4-0.6-0.8-0.6-1.3c0-0.3,0-0.6,0.1-0.8
		c0.1-0.3,0.2-0.7,0.5-1.2l5.1-13c0.1-0.4,0.3-0.8,0.5-1.3c0.2-0.5,0.4-1,0.7-1.3c0.2-0.3,0.5-0.6,0.9-0.8c0.4-0.2,0.8-0.3,1.4-0.3
		c0.6,0,1,0.1,1.4,0.3c0.4,0.2,0.7,0.5,0.9,0.8c0.2,0.3,0.4,0.7,0.6,1.1c0.2,0.4,0.4,0.9,0.6,1.6l5.2,12.9c0.4,1,0.6,1.7,0.6,2.1
		c0,0.5-0.2,0.9-0.6,1.3c-0.4,0.4-0.9,0.6-1.4,0.6c-0.3,0-0.6-0.1-0.8-0.2c-0.2-0.1-0.4-0.3-0.6-0.5c-0.2-0.2-0.3-0.5-0.5-0.9
		S714.8,104.3,714.7,104z M706.7,98.4h6l-3-8.3L706.7,98.4z"/>
	<path fill="#FEE716" stroke="#231F20" stroke-width="0.5669" stroke-miterlimit="2.4142" d="M733,88.3v14.6h8.2
		c0.7,0,1.2,0.2,1.5,0.5c0.4,0.3,0.5,0.7,0.5,1.2c0,0.5-0.2,0.9-0.5,1.2s-0.9,0.5-1.5,0.5h-9.8c-0.9,0-1.5-0.2-1.9-0.6
		c-0.4-0.4-0.6-1-0.6-1.9V88.3c0-0.8,0.2-1.4,0.6-1.8s0.9-0.6,1.5-0.6c0.6,0,1.1,0.2,1.5,0.6C732.8,86.9,733,87.5,733,88.3z"/>
	<path fill="#FEE716" stroke="#231F20" stroke-width="0.5669" stroke-miterlimit="2.4142" d="M744.6,97.9v-9.6
		c0-0.8,0.2-1.4,0.6-1.8s0.9-0.6,1.5-0.6c0.6,0,1.1,0.2,1.5,0.6s0.6,1,0.6,1.8v9.9c0,1.1,0.1,2.1,0.4,2.8c0.3,0.8,0.7,1.3,1.3,1.8
		s1.5,0.6,2.7,0.6c1.6,0,2.7-0.4,3.4-1.3s1-2.1,1-3.8v-9.9c0-0.8,0.2-1.4,0.5-1.9c0.4-0.4,0.9-0.6,1.5-0.6s1.1,0.2,1.5,0.6
		c0.4,0.4,0.6,1,0.6,1.9v9.6c0,1.6-0.2,2.9-0.5,3.9c-0.3,1-0.9,2-1.7,2.8c-0.7,0.7-1.6,1.2-2.5,1.5s-2.1,0.5-3.4,0.5
		c-1.5,0-2.9-0.2-4-0.5s-2-0.8-2.7-1.5c-0.7-0.7-1.2-1.6-1.5-2.7S744.6,99.5,744.6,97.9z"/>
	<path fill="#FEE716" stroke="#231F20" stroke-width="0.5669" stroke-miterlimit="2.4142" d="M771.3,97.7h-1.4v6.4
		c0,0.8-0.2,1.5-0.6,1.9c-0.4,0.4-0.9,0.6-1.5,0.6c-0.6,0-1.1-0.2-1.5-0.6s-0.5-1-0.5-1.8V88.7c0-0.9,0.2-1.5,0.6-1.9
		c0.4-0.4,1-0.6,1.9-0.6h6.6c0.9,0,1.7,0,2.3,0.1c0.6,0.1,1.2,0.2,1.8,0.5c0.6,0.3,1.2,0.6,1.7,1.1c0.5,0.5,0.8,1.1,1.1,1.7
		c0.3,0.7,0.4,1.3,0.4,2.1c0,1.5-0.4,2.7-1.3,3.6c-0.8,0.9-2.1,1.5-3.8,1.9c0.7,0.4,1.4,0.9,2.1,1.7s1.2,1.5,1.8,2.4
		c0.5,0.8,0.9,1.6,1.2,2.3c0.3,0.7,0.4,1.1,0.4,1.4c0,0.3-0.1,0.5-0.3,0.8c-0.2,0.3-0.4,0.5-0.7,0.6c-0.3,0.2-0.6,0.2-1,0.2
		c-0.5,0-0.8-0.1-1.1-0.3c-0.3-0.2-0.6-0.5-0.8-0.8c-0.2-0.3-0.5-0.8-0.9-1.4l-1.6-2.7c-0.6-1-1.1-1.8-1.6-2.3
		c-0.5-0.5-0.9-0.9-1.4-1.1C772.6,97.8,772,97.7,771.3,97.7z M773.6,89.2h-3.7v5.5h3.6c1,0,1.8-0.1,2.5-0.3c0.7-0.2,1.2-0.5,1.5-0.9
		c0.3-0.4,0.5-1,0.5-1.7c0-0.6-0.1-1-0.4-1.5c-0.3-0.4-0.7-0.7-1.2-1C775.9,89.3,775,89.2,773.6,89.2z"/>
	<path fill="#FEE716" stroke="#231F20" stroke-width="0.5669" stroke-miterlimit="2.4142" d="M799.2,89.3H790v4.9h8.4
		c0.6,0,1.1,0.1,1.4,0.4c0.3,0.3,0.5,0.6,0.5,1.1s-0.2,0.8-0.5,1.1s-0.8,0.4-1.4,0.4H790v5.7h9.5c0.6,0,1.1,0.1,1.4,0.4
		s0.5,0.7,0.5,1.2c0,0.5-0.2,0.9-0.5,1.2s-0.8,0.4-1.4,0.4h-11c-0.9,0-1.5-0.2-1.9-0.6s-0.6-1-0.6-1.9V88.7c0-0.6,0.1-1.1,0.3-1.4
		c0.2-0.4,0.4-0.6,0.8-0.8c0.4-0.2,0.8-0.3,1.4-0.3h10.7c0.6,0,1.1,0.1,1.4,0.4s0.5,0.7,0.5,1.1c0,0.5-0.2,0.9-0.5,1.1
		S799.8,89.3,799.2,89.3z"/>
	<path fill="#FEE716" stroke="#231F20" stroke-width="0.5669" stroke-miterlimit="2.4142" d="M819.9,100.2c0,1.2-0.3,2.3-0.9,3.3
		c-0.6,1-1.5,1.7-2.7,2.3s-2.6,0.8-4.3,0.8c-2,0-3.6-0.4-4.9-1.1c-0.9-0.5-1.7-1.3-2.2-2.2c-0.6-0.9-0.9-1.8-0.9-2.6
		c0-0.5,0.2-0.9,0.5-1.3s0.8-0.5,1.3-0.5c0.4,0,0.8,0.1,1.1,0.4s0.5,0.7,0.8,1.2c0.3,0.6,0.5,1.2,0.8,1.6s0.7,0.8,1.3,1.1
		c0.5,0.3,1.2,0.4,2.1,0.4c1.2,0,2.2-0.3,2.9-0.8s1.1-1.3,1.1-2.1c0-0.7-0.2-1.2-0.6-1.6c-0.4-0.4-0.9-0.7-1.6-1
		c-0.6-0.2-1.5-0.5-2.6-0.7c-1.4-0.3-2.6-0.7-3.6-1.2s-1.7-1.1-2.3-1.8s-0.9-1.7-0.9-2.9c0-1.1,0.3-2.1,0.9-2.9
		c0.6-0.9,1.5-1.5,2.6-2c1.1-0.5,2.5-0.7,4-0.7c1.2,0,2.3,0.2,3.2,0.5c0.9,0.3,1.6,0.7,2.2,1.2c0.6,0.5,1,1,1.3,1.6
		c0.3,0.6,0.4,1.1,0.4,1.6c0,0.5-0.2,0.9-0.5,1.3c-0.3,0.4-0.8,0.6-1.3,0.6c-0.5,0-0.8-0.1-1.1-0.3c-0.2-0.2-0.5-0.6-0.8-1.1
		c-0.4-0.8-0.8-1.3-1.3-1.8c-0.5-0.4-1.3-0.6-2.5-0.6c-1,0-1.9,0.2-2.5,0.7c-0.6,0.5-1,1-1,1.7c0,0.4,0.1,0.7,0.3,1
		c0.2,0.3,0.5,0.5,0.9,0.8c0.4,0.2,0.8,0.4,1.2,0.5c0.4,0.1,1,0.3,1.9,0.5c1.1,0.3,2.2,0.6,3.1,0.9c0.9,0.3,1.7,0.7,2.3,1.2
		s1.1,1,1.5,1.7C819.7,98.3,819.9,99.2,819.9,100.2z"/>
</g>
</svg>
