<?xml version="1.0" encoding="utf-8"?>
<!-- Generator: Adobe Illustrator 13.0.0, SVG Export Plug-In  -->
<!DOCTYPE svg PUBLIC "-//W3C//DTD SVG 1.1//EN" "http://www.w3.org/Graphics/SVG/1.1/DTD/svg11.dtd" [
	<!ENTITY ns_flows "http://ns.adobe.com/Flows/1.0/">
	<!ENTITY st0 "fill-rule:evenodd;clip-rule:evenodd;fill:#00AEEF;stroke:#231F20;stroke-width:1.008;stroke-miterlimit:22.9256;">
	<!ENTITY st1 "fill:#EC1C24;">
	<!ENTITY st2 "fill:#231F20;">
	<!ENTITY st3 "fill-rule:evenodd;clip-rule:evenodd;fill:#B8D4F0;">
	<!ENTITY st4 "fill:#FFFFFF;">
	<!ENTITY st5 "fill-rule:evenodd;clip-rule:evenodd;fill:#231F20;">
	<!ENTITY st6 "filter:url(#filter2832);">
]>
<svg version="1.1"
	 xmlns="http://www.w3.org/2000/svg" xmlns:xlink="http://www.w3.org/1999/xlink" xmlns:a="http://ns.adobe.com/AdobeSVGViewerExtensions/3.0/"
	 x="0px" y="0px" width="1600px" height="860px" viewBox="-47.8 -18.2 1600 860"
	 style="enable-background:new -47.8 -18.2 1600 860;" xml:space="preserve">
<defs>
</defs>
<filter  y="-0.25" x="-0.25" width="1.5" height="1.5" id="filter2832" color-interpolation-filters="sRGB">
	<feGaussianBlur  in="SourceAlpha" id="feGaussianBlur2834" result="blur" stdDeviation="9.000000"></feGaussianBlur>
	
		<feColorMatrix  type="matrix" values="1 0 0 0 0 0 1 0 0 0 0 0 1 0 0 0 0 0 0.690000 0 " id="feColorMatrix2836" result="bluralpha">
		</feColorMatrix>
	<feOffset  dy="4.000000" dx="0.000000" in="bluralpha" id="feOffset2838" result="offsetBlur"></feOffset>
	<feMerge  id="feMerge2840">
		<feMergeNode  in="offsetBlur" id="feMergeNode2842"></feMergeNode>
		<feMergeNode  in="SourceGraphic" id="feMergeNode2844"></feMergeNode>
	</feMerge>
</filter>
<g id="rect2830_2_" style="&st6;">
	<path style="&st4;" d="M74.3,2h1359c39,0,70.5,22.1,70.5,49.1v709.5c0,27.2-31.7,49.1-70.5,49.1H74.3c-39,0-70.5-22.1-70.5-49.1
		V51.1C3.5,23.9,35.2,2,74.3,2z"/>
</g>
<path style="&st1;" d="M136.8,137.2c-0.6,0-1.5-0.3-2.6-1c-1.2-0.7-2.8-1.7-5-3.3c-2.2-1.5-4.6-3.2-7.4-5.1l-39.6-26.6l-11.7,15.5
	c0,1.3-0.2,2.3-0.5,3c-0.3,0.7-1.1,1.6-2.2,2.8c-2.7,2.8-5,4.9-6.9,6.4c-1.9,1.5-3.6,2.2-5.1,2.2c-0.7,0-1.4-0.3-1.9-0.9
	c-0.5-0.6-0.8-1.4-0.8-2.2c0-1.2,0.7-2.7,2.1-4.7l21.5-26.7c-1.3-2-1.9-4.1-1.9-6.2c0-2.2,0.6-4,1.8-5.5c1.2-1.5,2.6-2.7,4.1-3.7
	c1.6-0.9,5.9-3.3,13-7c10.1-13.3,15.1-20.8,15.1-22.4c0-1.1-0.6-1.6-1.9-1.6c-1.3,0-4.3,0.8-8.8,2.3c-4.5,1.6-10.5,4-17.8,7.2
	c-7.4,3.3-16.1,7.4-26.1,12.5c-0.8,0.4-1.8,0.6-2.8,0.6c-1.1-0.1-2-0.5-2.7-1.2c-0.7-0.8-1.1-1.8-1.1-3.1c0-0.4,0.1-0.9,0.2-1.4
	c0.2-0.5,0.5-1.4,0.9-2.5c0.4-1.2,0.7-2.2,1-3c0.1-0.3,0.3-1.4,0.7-3.2c0.4-1.8,1-3.5,1.9-5c0.9-1.5,2.4-3.2,4.5-5
	c2.1-1.8,5.2-3.7,9.1-5.7c0.7-0.4,1.4-0.7,2.1-0.8c0.6-0.1,0.9,0.1,0.9,0.6c0,0.1-0.7,0.7-2.2,1.8c-1.4,1.1-3,2.8-4.7,5.2
	c14.3-5,24.8-8.5,31.6-10.5c6.8-2,12.2-3.1,16.3-3.1c2.2,0,4.1,1.5,5.6,4.6c1.5,3.1,2.3,5.1,2.3,6c0,1.4-0.5,2.9-1.6,4.6l-11.7,17.6
	c9.3-4.6,16.5-8.3,21.7-11c5.2-2.7,10.8-5.7,16.8-8.9c6.1-3.2,9.9-5.2,11.5-6c1.6-0.8,2.7-1.2,3.2-1.2c1.1,0,1.7,0.5,1.7,1.5
	c0,0.6-0.8,2.2-2.5,4.8c-1.7,2.6-3.6,5-5.6,7.1c-2.1,2.1-3.8,3.1-5.1,3.1c-0.4,0-0.8-0.1-1.3-0.3c-0.5-0.2-1-0.3-1.4-0.5
	c-6.6,3.4-14.7,7.5-24.2,12.2c-9.5,4.7-17.1,8.4-22.6,11l-6.3,9.5l37.1,25.2c3.4,2.3,5.9,4.1,7.5,5.5c1.5,1.4,2.7,2.9,3.4,4.5
	c0.8,1.6,1.2,3.6,1.2,6.1C139.4,135.2,138.5,137.2,136.8,137.2z"/>
<path style="&st2;" d="M158.7,86.2V90c-2.5,2.3-4.6,3.8-6.1,4.6c-1.5,0.8-3.8,1.1-6.6,0.9c-5,5.9-9.4,8.9-13.2,8.9
	c-2.1,0-4.1-0.7-5.9-2.1c-1.8-1.4-3.2-3.4-4.2-5.8c-1.1-2.5-1.6-5.2-1.6-8.2c0-2.5,0.8-5.2,2.4-8.2s3.8-5.8,6.4-8.4
	c2.6-2.6,5.4-4.7,8.3-6.3c3-1.6,5.7-2.4,8.2-2.4c1.8,0,3.2,0.3,4.3,0.8c1,0.6,1.6,1.3,1.6,2.3c0,0.8-0.4,1.7-1.3,2.7
	c1.5,0.3,2.5,0.8,3,1.5c0.5,0.7,0.8,2,0.8,3.9c0,1.9-0.4,4.2-1.3,7c-0.9,2.8-2,5.4-3.5,7.9l1,1h0.9c0.6,0,1.3-0.2,1.9-0.5
	c0.6-0.3,1.2-0.7,1.7-1C156,88.2,157,87.4,158.7,86.2L158.7,86.2z M146.9,71c-3.2,1.9-5.9,3.7-8.2,5.2c-2.3,1.6-4.2,3.1-5.8,4.7
	c-1.6,1.6-2.6,3.2-3.2,4.8c-1,4.3-1.4,6.6-1.4,7c0,2.5,1.8,3.8,5.3,3.8c1.7,0,4.4-1.4,8.3-4.3c-0.6-1.8-1-3.5-1-5.2
	c0-2.4,0.5-4.9,1.5-7.4C143.4,77.1,144.9,74.3,146.9,71z"/>
<path style="&st2;" d="M195.7,86.2V90c-2.5,2.3-4.6,3.8-6.1,4.6c-1.5,0.8-3.8,1.1-6.6,0.9c-5,5.9-9.4,8.9-13.2,8.9
	c-2.1,0-4.1-0.7-5.9-2.1c-1.8-1.4-3.2-3.4-4.2-5.8c-1.1-2.5-1.6-5.2-1.6-8.2c0-2.5,0.8-5.2,2.4-8.2c1.6-3,3.8-5.8,6.4-8.4
	c2.6-2.6,5.4-4.7,8.3-6.3c3-1.6,5.7-2.4,8.2-2.4c1.8,0,3.2,0.3,4.3,0.8c1,0.6,1.6,1.3,1.6,2.3c0,0.8-0.4,1.7-1.3,2.7
	c1.5,0.3,2.5,0.8,3,1.5c0.5,0.7,0.8,2,0.8,3.9c0,1.9-0.4,4.2-1.3,7c-0.9,2.8-2,5.4-3.5,7.9l1,1h0.9c0.6,0,1.3-0.2,1.9-0.5
	c0.6-0.3,1.2-0.7,1.7-1C192.9,88.2,194,87.4,195.7,86.2L195.7,86.2z M183.8,71c-3.2,1.9-5.9,3.7-8.2,5.2s-4.2,3.1-5.8,4.7
	c-1.6,1.6-2.6,3.2-3.2,4.8c-1,4.3-1.4,6.6-1.4,7c0,2.5,1.8,3.8,5.3,3.8c1.7,0,4.4-1.4,8.3-4.3c-0.7-1.8-1-3.5-1-5.2
	c0-2.4,0.5-4.9,1.5-7.4C180.4,77.1,181.9,74.3,183.8,71z"/>
<path style="&st2;" d="M223.1,85.6v4.3c-8,10.6-14.6,16-19.6,16c-2.7,0-4.9-1.5-6.4-4.5c-1.6-3-2.3-6.9-2.3-11.7
	c0-3.9,0.9-8.6,2.8-14c1.8-5.4,4.3-10.9,7.4-16.4c3.1-5.5,6.3-10.4,9.6-14.5c3.3-4.1,6.4-7,9.2-8.7c1.2-0.7,2-1,2.7-1
	c0.8,0,1.3,0.4,1.6,1.1c0.3,0.7,0.4,1.9,0.4,3.7c0,5.4-2.2,11.9-6.5,19.7c-4.3,7.8-10.4,15.7-18.1,23.8c-0.4,2-0.6,3.5-0.6,4.6
	c0,2.5,0.5,4.5,1.6,6c1.1,1.5,2.5,2.3,4.4,2.3c1,0,2-0.4,3.1-1.1c1.1-0.7,2.3-1.7,3.5-2.8C217.2,91.1,219.6,88.9,223.1,85.6
	L223.1,85.6z M205.9,75.3c2-2,3.9-4.2,5.8-6.7c1.9-2.5,3.6-5.2,5.3-8c1.7-2.9,2.9-5.4,3.9-7.7c0.9-2.3,1.4-4,1.4-5.1
	c0-0.9-0.3-1.3-0.9-1.3c-0.2,0-0.7,0.2-1.3,0.6c-2.3,1.9-5,5.7-7.9,11.3C209.2,63.9,207.1,69.6,205.9,75.3z"/>
<path style="&st2;" d="M229.4,75.9c5.8-5.3,11.5-9.2,17-11.8c5.5-2.6,9.7-3.9,12.7-3.9c0.8,0,1.6,0.3,2.3,1c0.7,0.7,1.2,1.5,1.6,2.3
	c0.4,0.9,0.6,1.5,0.6,1.9c0,0.7-0.3,1.2-0.8,1.5c-0.5,0.3-1.5,0.7-2.8,1.2c0.3,0.6,0.6,1.4,1,2.4c0.4,1,0.7,1.8,1,2.3
	c0.2,0.6,0.3,1.1,0.3,1.6c0,0.9-0.9,2.7-2.8,5.2c-1.8,2.5-3.2,4.4-3.9,5.5c-0.7,1.2-1.1,2.7-1.1,4.4c0,2.8,1.3,4.3,3.9,4.3
	c2.7,0,6.9-2.5,12.6-7.6v3.5c-9.7,10.8-16.7,16.2-20.9,16.2c-1.5,0-2.6-0.5-3.2-1.5c-0.6-1-0.9-2.4-0.9-4.3c0-3,1.1-7.4,3.3-13.2
	c-5.6,6.2-9.8,10.7-12.5,13.3c-2.7,2.6-5,4-6.7,4c-0.8,0-1.9-0.7-3.2-2.2c-1.3-1.5-2.4-3.4-3.4-5.7c-1-2.3-1.5-4.7-1.5-7.2
	c0-1.8,0.2-3.3,0.5-4.5c0.4-1.2,1-2.5,2-3.7C225.6,79.7,227.2,78,229.4,75.9L229.4,75.9z M257,69.6c-10,4.6-17.1,8.5-21.3,11.6
	c-4.3,3.2-6.4,6.5-6.4,9.9c0,1.2,0.2,2.2,0.6,3c0.4,0.8,1,1.2,1.7,1.2c0.4,0,1.2-0.3,2.2-0.8c4-2.4,7.7-5.5,11.1-9.3
	C248.3,81.4,252.3,76.2,257,69.6z"/>
<path style="&st2;" d="M308.7,86.4v3.7c-4,2.5-7.1,3.8-9.5,3.8c-1.3,0-2.6-0.2-4-0.6c-3.4,4.4-6.4,7.6-8.9,9.6c-2.5,2-5,3-7.5,3
	c-2.9,0-5.1-1.5-6.7-4.5c-1.6-3.1-2.3-6.8-2.3-11.3c0-6.1,1.8-12.8,5.5-20c3.7-7.2,8.1-14,13.3-20.2c5.2-6.3,10.3-11.5,15.1-15.6
	c4.9-4.1,8.2-6.2,9.9-6.2c1.7,0,2.5,1.1,2.5,3.4c0,10.1-12.9,27.6-38.7,52.7c-0.1,0.7-0.1,2.1-0.1,4.1c0,5.3,1.4,7.9,4.2,7.9
	c1.1,0,2.2-0.5,3.4-1.4c1.1-0.9,2.9-2.6,5.2-5.2c-0.9-2.1-1.4-3.6-1.4-4.6c0-2.1,0.9-4.4,2.6-6.8c1.7-2.5,3.7-4.6,5.9-6.4
	c2.2-1.8,3.8-2.7,4.8-2.7c1.6,0,2.4,1.1,2.4,3.4c0,1.7-0.5,3.8-1.4,6.2c-0.9,2.4-2.2,5.2-4,8.3c0.7,0.5,1.2,0.9,1.6,1.2
	c0.4,0.3,0.9,0.4,1.7,0.4C304.3,88.7,306.3,87.9,308.7,86.4L308.7,86.4z M279.4,77.7c2-1.7,4-3.8,6-6.1c2-2.4,5-6,8.9-10.9
	c3.7-4.7,6.7-8.6,8.8-11.7c2.1-3.1,3.7-5.7,4.8-7.8c1.1-2.1,1.6-3.5,1.6-4.3c0-0.6-0.2-0.9-0.5-0.9c-0.8,0-2.6,1.4-5.3,4.2
	c-2.7,2.8-5.7,6.6-9.1,11.5c-4.7,6.7-8.1,11.7-10.3,15.1C282.3,70.2,280.6,73.8,279.4,77.7z"/>
<path style="&st2;" d="M335.8,82.3c-5.6,7.4-9.8,12.6-12.7,15.7c-2.9,3.1-5.3,4.7-7.1,4.7c-1.5,0-2.8-0.6-4-1.8
	c-1.2-1.2-2.2-2.9-2.9-4.9c-0.7-2.1-1-4.3-1-6.6c0-1.5,0.1-2.9,0.4-4.2c0.3-1.2,0.8-2.6,1.6-4.1c0.8-1.5,1.9-3.1,3.2-4.8
	c1.3-1.7,3-3.7,4.9-5.9c1.2-1.3,2.1-2.5,2.9-3.4c0.8-0.9,1.6-1.5,2.3-1.9c0.7-0.3,2-0.5,3.7-0.5c1.2,0,2.4,0.2,3.5,0.5
	c1.1,0.3,1.7,0.7,1.7,1c0,0.7-0.6,1.9-1.7,3.8c-1.1,1.8-3,4-5.5,6.6c-2.5,2.6-5.4,5.1-8.7,7.6c-0.7,2.3-1.1,4-1.1,5.2
	c0,1.7,0.6,2.5,1.9,2.5c0.5,0,1.2-0.4,2.3-1.2c1.1-0.8,2.9-2.3,5.5-4.5c2.5-2.3,4.8-4.2,6.9-6c1.5-1.3,3.2-3.3,5.2-5.9
	c2-2.6,3.6-4.5,4.8-5.8c2.9-3,4.8-4.9,5.8-5.8c1-0.9,2-1.4,3-1.4c0.9,0,1.5,0.3,1.9,0.9c0.3,0.6,0.5,1.8,0.5,3.5
	c0,0.8-0.1,1.5-0.2,1.9c-0.2,0.5-0.5,1.1-0.9,1.9c-0.5,0.8-1.5,2.2-2.9,4.3c-1.5,2.1-3.2,4.6-5.2,7.5c-1.1,1.5-2,3.2-2.8,5
	c-0.8,1.8-1.2,3.2-1.2,4.1c0,2,0.8,3,2.4,3c1.3,0,2.8-0.5,4.6-1.6c1.7-1.1,4.4-3,7.9-5.8V90c-4.5,4.2-7.8,7.2-10,9.1
	c-2.1,1.9-4,3.3-5.6,4.3c-1.6,1-3.1,1.5-4.5,1.5c-3.2,0-4.8-1.9-4.8-5.8c0-1.5,0.5-3.4,1.4-5.9C332.1,90.6,333.7,87,335.8,82.3z"/>
<path style="&st2;" d="M393,75.8c-6.8,7.5-10.1,12.8-10.1,15.7c0,1.7,0.7,2.5,2,2.5c1.1,0,2.6-0.6,4.3-1.8c1.8-1.2,4.6-3.2,8.4-6.3
	v4c-5.5,5.4-9.6,9.3-12.6,11.6c-2.9,2.4-5.3,3.6-7.1,3.6c-3.1,0-4.7-2.1-4.7-6.2c0-1.2,0.2-2.4,0.6-3.6c0.4-1.2,0.9-2.4,1.6-3.7
	c0.7-1.3,1.7-3.1,3.1-5.5c1.4-2.4,3-5.1,4.8-8.2c-2.2,1.1-4.9,3.3-8.2,6.6c-2.2,2.1-4,4.1-5.5,5.9c-1.5,1.9-3.1,3.9-4.8,6.2
	c-1.7,2.3-3,3.8-3.8,4.6c-0.8,0.8-1.6,1.2-2.4,1.2c-1.2,0-2.4-1.3-3.4-3.9c-1-2.6-1.6-5.6-1.6-9c0-2.1,0.2-3.8,0.7-5
	c0.5-1.2,1.4-2.9,2.9-5.1c2.6-4.1,4.9-7.1,6.8-9c1.9-1.9,3.8-2.9,5.5-2.9c1.2,0,2.2,0.2,3,0.6c0.7,0.4,1.1,1.1,1.1,1.9
	c0,0.4-0.1,0.8-0.3,1.2c-0.2,0.4-0.5,0.8-0.8,1.1c-0.3,0.4-0.9,1-1.8,2c-6.1,6.7-9.1,11.1-9.1,13.1c0,1.1,0.4,1.7,1.1,1.7
	c0.5,0,1.3-0.7,2.7-2.2c1.3-1.5,3-3.4,5.1-5.8c2.1-2.4,4.6-4.9,7.4-7.5c2.9-2.6,6.1-5.1,9.8-7.6c2-1.4,3.7-2.1,5.1-2.1
	c0.6,0,1.2,0.8,1.8,2.5c0.6,1.7,0.9,3.4,0.9,5.1C395.4,72.8,394.6,74.1,393,75.8z"/>
<path style="&st2;" d="M443.1,90.1l-19.1,15.7c-5.4,9.3-10.3,16.3-14.7,20.8s-7.7,6.9-9.9,6.9c-1.2,0-1.7-0.7-1.7-2.1
	c0-2.8,1.4-6.3,4.2-10.6c1.1-1.7,2.4-3.3,3.8-5c1.4-1.6,2.8-3,4.1-4.2c1.3-1.2,3-2.6,5.1-4.4c2.1-1.8,3.6-3,4.3-3.6
	c3.8-7.9,6.6-13.8,8.3-18c-3.6,3.8-6.8,7-9.5,9.4c-2.7,2.5-5.2,4.4-7.4,5.7c-2.3,1.3-4.3,2-6.1,2c-2,0-3.8-1.6-5.4-4.7
	c-1.7-3.1-2.5-6.4-2.5-9.7c0-1.5,0.4-3.1,1.1-4.8c0.7-1.7,1.8-3.5,3.3-5.4c1.5-1.9,3.5-3.9,5.8-5.9c2.3-2,5.1-4,8.2-5.9
	c6-3.7,10.6-5.6,13.9-5.6c2.5,0,3.7,0.9,3.7,2.7c0,2.5-2.7,4.9-8,7.3c-3.3,1.4-6.5,3.3-9.7,5.6c-3.2,2.3-5.8,4.8-7.8,7.5
	c-2,2.6-3,5-3,7.1c0,1,0.3,1.9,0.7,2.5c0.5,0.6,1.2,0.9,2,0.9c1.3,0,2.9-0.6,4.6-1.9c1.7-1.2,4.3-3.4,7.7-6.5
	c1.5-1.4,3.6-3.7,6.1-6.9c2.6-3.2,4.7-5.6,6.3-7.3c1.7-1.7,3.2-2.5,4.5-2.5c0.8,0,1.4,0.2,1.9,0.7c0.5,0.5,0.7,1.2,0.7,2.1
	c0,1.8-0.7,4.3-2.1,7.7c-1.4,3.4-3.9,8.9-7.6,16.5l13.9-10.2V90.1z"/>
<polygon style="&st1;" points="253.7,116.6 253.7,144.1 269.3,144.1 269.3,149.8 247.4,149.8 247.4,116.6 "/>
<path style="&st1;" d="M293.8,116.6h6.3v22.1c0,4.6-0.9,7.7-2.7,9.2c-1.8,1.5-5.4,2.2-10.9,2.2c-5.8,0-9.6-0.7-11.4-2.1
	c-1.8-1.4-2.7-4.4-2.7-8.9v-22.4h6.3V139c0,2.4,0.4,4,1.3,4.7c0.9,0.7,2.9,1,6.2,1c3.3,0,5.4-0.3,6.3-1c0.9-0.7,1.3-2.3,1.3-4.9
	V116.6z"/>
<path style="&st1;" d="M305.9,149.8v-33.2h16.3c4.1,0,6.9,0.7,8.4,2.1c1.5,1.4,2.3,4,2.3,7.7c0,3.4-0.4,5.6-1.2,6.9
	c-0.8,1.2-2.3,2.1-4.7,2.6v0.2c3.7,0.2,5.5,2.4,5.5,6.4v7.3h-6.3v-6c0-3.4-1.7-5.1-5.1-5.1h-9.1v11.2H305.9L305.9,149.8z
	 M312.2,133.3h9c2.2,0,3.6-0.4,4.3-1.2c0.7-0.8,1.1-2.3,1.1-4.6c0-2.4-0.3-3.9-0.9-4.6c-0.6-0.7-1.9-1-4-1h-9.5V133.3z"/>
<polygon style="&st1;" points="343.6,121.9 343.6,130.5 359.1,130.5 359.1,135.1 343.6,135.1 343.6,144.5 360.1,144.5 360.1,149.8 
	337.3,149.8 337.3,116.6 360,116.6 360,121.9 "/>
<path style="&st1;" d="M389.4,126.3h-6.1c0-0.3,0-0.5,0-0.7c-0.1-1.9-0.6-3-1.2-3.5c-0.7-0.5-2.3-0.7-4.8-0.7c-3,0-4.9,0.3-5.8,0.8
	c-0.9,0.5-1.4,1.7-1.4,3.5c0,2.1,0.4,3.3,1.1,3.8c0.7,0.4,3.2,0.7,7.4,1c4.9,0.3,8.1,1,9.6,2.1c1.5,1.1,2.2,3.5,2.2,7.1
	c0,4.4-0.9,7.3-2.6,8.5c-1.7,1.3-5.4,1.9-11.2,1.9c-5.2,0-8.7-0.6-10.4-1.9c-1.7-1.3-2.6-3.8-2.6-7.7l0-1.2h6.1l0,0.7
	c0,2.3,0.4,3.7,1.2,4.3c0.8,0.5,3,0.8,6.6,0.8c2.8,0,4.6-0.3,5.4-0.9c0.8-0.6,1.2-2,1.2-4.2c0-1.6-0.3-2.7-0.9-3.2
	c-0.6-0.5-1.9-0.8-3.8-1l-3.5-0.2c-5.2-0.3-8.6-1-10.1-2.2c-1.5-1.2-2.2-3.6-2.2-7.4c0-3.9,0.9-6.5,2.6-7.7
	c1.8-1.3,5.3-1.9,10.5-1.9c5,0,8.4,0.6,10.1,1.8c1.7,1.2,2.6,3.5,2.6,6.9V126.3z"/>
<g>
	<defs>
		<rect id="SVGID_3_" x="1070.8" y="15.1" width="400.3" height="163.6"/>
	</defs>
	<clipPath id="SVGID_4_">
		<use xlink:href="#SVGID_3_"  style="overflow:visible;"/>
	</clipPath>
	<g transform="matrix(1 0 0 1 1.377882e-005 5.443508e-007)" style="clip-path:url(#SVGID_4_);">
		
			<image style="overflow:visible;" width="1112" height="454" xlink:href="27654DDA.jpg"  transform="matrix(0.36 0 0 0.3603 1070.8037 15.1455)">
		</image>
	</g>
</g>
<path style="&st0;" d="M1185.4,100.9c0,1.2-0.3,2.5-0.9,3.9c-0.6,1.4-1.5,2.8-2.8,4.1c-1.3,1.3-2.9,2.4-4.8,3.2
	c-2,0.8-4.2,1.2-6.8,1.2c-2,0-3.7-0.2-5.3-0.5c-1.6-0.4-3-0.9-4.4-1.7c-1.3-0.8-2.6-2-3.7-3.6c-0.9-0.8-1.7-1.9-2.4-3.4
	c-0.7-1.5-1.2-3-1.6-4.6c-0.3-1.6-0.5-3.3-0.5-5.2c0-3,0.4-5.6,1.3-8c0.9-2.4,2.1-4.4,3.7-6c1.6-1.7,3.5-3,5.7-3.8
	c2.2-0.9,4.5-1.3,7-1.3c3,0,5.7,0.6,8,1.8c2.4,1.2,4.2,2.7,5.4,4.5c1.3,1.8,1.9,3.5,1.9,5.1c0,1-0.3,1.8-1,2.6
	c-0.7,0.7-1.5,1.1-2.5,1.1c-1.1,0-1.9-0.2-2.4-0.8c-0.5-0.5-0.8-1.2-0.7-2.2c-1.6-1.9-2.9-3.3-4.1-4.1c-1.2-0.8-2.7-1.2-4.5-1.2
	c-2.8,0-5.1,1.1-6.8,3.2c-1.7,2.2-2.5,5.3-2.5,9.4c0,2.8,0.4,5,1.1,6.8c0.8,1.8,1.8,3.1,3.2,4c1.4,0.9,2.9,1.3,4.8,1.3
	c2,0,3.7-0.5,5-1.5c1.4-1,2.4-2.5,3.1-4.5c0.3-0.9,0.7-1.7,1.2-2.4c0.5-0.7,1.4-1,2.6-1c1,0,1.9,0.4,2.6,1.1
	C1185,99,1185.4,99.9,1185.4,100.9L1185.4,100.9z M1208,75.1c3.8,0,7.1,0.8,9.9,2.4c2.8,1.6,4.9,3.8,6.3,6.7
	c1.4,2.9,2.1,6.2,2.1,10.1c0,2.8-0.4,5.4-1.2,7.8c-0.8,2.3-1.9,4.4-3.5,6.1c-1.6,1.7-3.5,3-5.7,4c-2.3,0.9-4.8,1.4-7.7,1.4
	s-5.5-0.5-7.8-1.4c-2.3-0.9-4.2-2.2-5.7-4c-1.5-1.7-2.7-3.8-3.5-6.1c-0.8-2.4-1.2-5-1.2-7.7c0-2.8,0.4-5.4,1.2-7.8
	c0.8-2.4,2-4.4,3.6-6.1c1.6-1.7,3.4-3,5.7-3.8C1202.7,75.6,1205.2,75.1,1208,75.1L1208,75.1z M1217.9,94.2c0-2.6-0.4-4.8-1.2-6.6
	c-0.8-1.8-2-3.2-3.5-4.2c-1.5-0.9-3.2-1.4-5.2-1.4c-1.4,0-2.7,0.3-3.8,0.8c-1.2,0.5-2.2,1.3-3,2.3c-0.8,1-1.5,2.3-2,3.8
	c-0.5,1.6-0.8,3.4-0.8,5.3c0,2,0.2,3.8,0.8,5.4c0.5,1.6,1.2,2.9,2.1,3.9c0.9,1,1.9,1.8,3.1,2.3c1.1,0.5,2.4,0.8,3.8,0.8
	c1.8,0,3.4-0.4,4.9-1.3c1.5-0.9,2.7-2.3,3.5-4.1C1217.4,99.3,1217.9,96.9,1217.9,94.2L1217.9,94.2z M1237.4,75.8h9.5
	c2.5,0,4.7,0.2,6.5,0.7c1.8,0.5,3.6,1.5,5.2,3c3.7,3.1,5.6,8,5.6,14.7c0,2.2-0.2,4.2-0.6,6c-0.4,1.8-1,3.5-1.8,5
	c-0.8,1.5-1.8,2.7-3,3.7c-1.1,1.1-2.3,1.9-3.5,2.5c-1.2,0.5-2.5,0.9-3.8,1.1c-1.3,0.2-2.9,0.3-4.6,0.3h-9.5c-1.4,0-2.5-0.2-3.3-0.7
	c-0.8-0.5-1.3-1.1-1.5-1.9c-0.2-0.8-0.3-1.8-0.3-3V80.7c0-1.7,0.4-3,1.2-3.8C1234.4,76.2,1235.6,75.8,1237.4,75.8L1237.4,75.8z
	 M1240.7,82.5V106h5c1.2,0,2.2,0,2.8-0.1c0.6-0.1,1.3-0.2,2-0.5c0.7-0.2,1.2-0.5,1.6-0.8c2.4-2.1,3.7-5.6,3.7-10.5
	c0-3.4-0.5-6-1.5-7.7c-1-1.7-2.3-2.7-3.8-3.2c-1.5-0.5-3.3-0.7-5.5-0.7H1240.7L1240.7,82.5z M1286.2,112.8h-11c-1.7,0-3-0.4-3.8-1.2
	c-0.8-0.8-1.2-2.1-1.2-3.8V80.7c0-1.7,0.4-3,1.2-3.8c0.8-0.8,2-1.2,3.7-1.2h11.7c1.7,0,3.3,0.1,4.6,0.3c1.3,0.2,2.6,0.7,3.8,1.6
	c0.7,0.3,1.5,0.9,2.1,1.8c0.7,0.8,1.2,1.7,1.6,2.7c0.4,1,0.5,2,0.5,3.1c0,3.8-1.8,6.4-5.4,7.8c4.7,1.3,7.1,4.3,7.1,8.9
	c0,2.1-0.5,4-1.6,5.7c-1.1,1.7-2.6,3-4.6,3.8c-1,0.4-2.2,0.8-3.7,1C1289.8,112.7,1288.1,112.8,1286.2,112.8L1286.2,112.8z
	 M1285.6,96.8h-7.1v9.5h7.3c4.6,0,6.9-1.6,6.9-4.8c0-1.6-0.6-2.8-1.7-3.6C1289.9,97.1,1288.1,96.8,1285.6,96.8L1285.6,96.8z
	 M1278.6,82.2v8.3h6.2c1.8,0,3.1-0.2,4-0.5c0.9-0.3,1.6-0.9,2.1-1.8c0.4-0.6,0.5-1.3,0.5-2c0-1.6-0.6-2.7-1.8-3.2
	c-1.2-0.5-3-0.8-5.6-0.8H1278.6L1278.6,82.2z M1328.4,108.6l-1.7-4.4h-13.9l-1.6,4.3c-0.7,1.9-1.3,3.1-1.8,3.9
	c-0.5,0.7-1.4,1.1-2.7,1.1c-1.1,0-2-0.4-2.8-1.1c-0.8-0.8-1.2-1.6-1.2-2.7c0-0.6,0.1-1.1,0.2-1.6c0.2-0.5,0.4-1.3,0.8-2.3l9.2-23.4
	c0.3-0.7,0.6-1.5,1-2.4c0.4-1,0.8-1.8,1.2-2.4c0.4-0.7,1.1-1.2,1.8-1.7c0.8-0.4,1.7-0.6,2.8-0.6c1.1,0,2,0.2,2.8,0.6
	c0.8,0.4,1.4,1,1.8,1.6c0.5,0.7,0.8,1.3,1.1,1.9c0.3,0.6,0.6,1.5,1,2.7l9.5,23.5c0.8,1.8,1.1,3.2,1.1,4c0,1-0.4,1.9-1.2,2.7
	c-0.8,0.8-1.8,1.2-2.9,1.2c-0.7,0-1.2-0.1-1.7-0.4c-0.5-0.2-0.9-0.6-1.2-0.9c-0.3-0.4-0.6-1-1-1.8
	C1328.8,109.4,1328.5,108.9,1328.4,108.6L1328.4,108.6z M1314.9,97.7h9.7l-4.9-13.8L1314.9,97.7L1314.9,97.7z M1342.5,108.4V80.1
	c0-1.6,0.4-2.8,1.1-3.7c0.8-0.8,1.8-1.3,3-1.3c1.2,0,2.2,0.4,3,1.3c0.8,0.8,1.2,2.1,1.2,3.7v28.4c0,1.6-0.4,2.9-1.2,3.7
	c-0.8,0.8-1.8,1.3-3,1.3c-1.2,0-2.2-0.4-3-1.3C1342.8,111.3,1342.5,110,1342.5,108.4L1342.5,108.4z M1382.1,82.8h-7.4v25.6
	c0,1.6-0.4,2.9-1.1,3.7c-0.8,0.8-1.8,1.2-3,1.2c-1.2,0-2.2-0.4-3-1.3c-0.8-0.8-1.2-2.1-1.2-3.7V82.8h-7.4c-1.4,0-2.4-0.3-3.1-1
	c-0.7-0.6-1.1-1.5-1.1-2.5c0-1.1,0.4-1.9,1.1-2.6c0.7-0.6,1.8-0.9,3.1-0.9h23.2c1.4,0,2.5,0.3,3.2,1c0.7,0.7,1.1,1.5,1.1,2.5
	c0,1.1-0.4,1.9-1.1,2.5C1384.5,82.5,1383.5,82.8,1382.1,82.8z"/>
<g>
	<defs>
		<rect id="SVGID_2_" x="53.5" y="208.4" width="725" height="298.7"/>
	</defs>
	<clipPath id="SVGID_5_">
		<use xlink:href="#SVGID_2_"  style="overflow:visible;"/>
	</clipPath>
	<g transform="matrix(1 0 0 1 2.452974e-006 -7.063898e-006)" style="clip-path:url(#SVGID_5_);">
		
			<image style="overflow:visible;" width="1678" height="692" xlink:href="27654DDE.jpg"  transform="matrix(0.432 0 0 0.4317 53.5498 208.3745)">
		</image>
	</g>
</g>
<polygon style="&st2;" points="201,346.2 201,360.2 198.3,360.2 198.3,348.5 194.7,352.1 193.1,350.4 197.6,346.2 "/>
<path style="&st2;" d="M216.6,358v2.1h-10.6v-2.9c0-1.5,0.3-2.5,0.8-2.9c0.5-0.5,1.8-0.9,3.8-1.3c1.6-0.3,2.6-0.6,2.9-0.8
	c0.3-0.2,0.5-0.9,0.5-1.9c0-1-0.2-1.6-0.5-1.8c-0.3-0.3-1-0.4-2.2-0.4c-1.2,0-1.9,0.1-2.2,0.4c-0.3,0.3-0.5,0.9-0.5,1.9v0.6h-2.6
	v-0.6c0-1.8,0.4-2.9,1.1-3.5c0.7-0.6,2.1-0.9,4.2-0.9c2,0,3.4,0.3,4.1,0.9c0.7,0.6,1.1,1.8,1.1,3.5c0,1.6-0.3,2.7-0.8,3.3
	c-0.6,0.5-1.8,1-3.8,1.4c-1.6,0.3-2.6,0.6-2.9,0.8c-0.3,0.2-0.4,0.8-0.4,1.8v0.4H216.6z"/>
<path style="&st2;" d="M224.6,346c2.6,0,4.2,0.4,4.8,1.1c0.6,0.8,0.9,2.7,0.9,6c0,3.2-0.3,5.2-0.9,6c-0.6,0.8-2.2,1.1-4.8,1.1
	c-2.6,0-4.2-0.4-4.8-1.1c-0.6-0.8-0.9-2.8-0.9-6c0-3.2,0.3-5.2,0.9-6C220.5,346.4,222.1,346,224.6,346L224.6,346z M224.4,348.3
	c-1.2,0-2,0.2-2.3,0.5c-0.3,0.3-0.5,1.2-0.5,2.5l0,1.8l0,1.7c0,1.4,0.2,2.3,0.5,2.6c0.3,0.3,1.2,0.5,2.6,0.5c1.4,0,2.3-0.2,2.6-0.7
	c0.3-0.5,0.4-1.9,0.4-4.2c0-2.4-0.1-3.7-0.4-4.1C227,348.5,226,348.3,224.4,348.3z"/>
<path style="&st2;" d="M232.4,350.3h2.3l-0.1,1.5l0.1,0c0.5-1.1,1.5-1.6,3-1.6c1.8,0,2.8,0.6,3,1.8h0c0.5-1.2,1.5-1.8,3-1.8
	c2.3,0,3.4,1.1,3.4,3.4v6.5h-2.3v-6c0-1.4-0.6-2.1-1.7-2.1c-1.4,0-2.1,0.8-2.1,2.3v5.7h-2.3v-6.1c0-0.8-0.1-1.3-0.3-1.6
	c-0.2-0.3-0.7-0.4-1.4-0.4c-1.4,0-2.2,0.8-2.2,2.4v5.7h-2.3V350.3z"/>
<path style="&st2;" d="M249.5,350.3h2.3l-0.1,1.5l0.1,0c0.5-1.1,1.5-1.6,3-1.6c1.8,0,2.8,0.6,3,1.8h0c0.5-1.2,1.5-1.8,3-1.8
	c2.3,0,3.4,1.1,3.4,3.4v6.5h-2.3v-6c0-1.4-0.6-2.1-1.7-2.1c-1.4,0-2.1,0.8-2.1,2.3v5.7h-2.3v-6.1c0-0.8-0.1-1.3-0.3-1.6
	c-0.2-0.3-0.7-0.4-1.4-0.4c-1.4,0-2.2,0.8-2.2,2.4v5.7h-2.3V350.3z"/>
<path style="&st2;" d="M288.4,346.2v14h-2.7v-7.6c0-0.6,0-1.3,0.1-2.1l0-1l0.1-1h-0.1l-0.3,1l-0.3,1c-0.3,0.9-0.5,1.5-0.7,1.9
	l-3.1,7.9H279l-3.1-7.8c-0.2-0.4-0.4-1.1-0.7-1.9l-0.3-1l-0.3-1h-0.1l0.1,1l0,1c0,0.8,0.1,1.5,0.1,2v7.6H272v-14h4.3l2.5,6.5
	c0.2,0.5,0.4,1.1,0.7,1.9l0.3,1l0.3,1h0.1l0.3-1l0.3-1c0.3-0.8,0.5-1.5,0.7-1.9l2.5-6.5H288.4z"/>
<path style="&st2;" d="M296.6,346c2.5,0,4.2,0.4,4.9,1.3c0.7,0.8,1.1,2.7,1.1,5.7c0,3.2-0.4,5.2-1.1,6.1c-0.7,0.8-2.5,1.2-5.3,1.2
	c-2.5,0-4.2-0.4-4.9-1.2c-0.7-0.8-1.1-2.6-1.1-5.4c0-3.3,0.4-5.4,1.1-6.3C292,346.5,293.8,346,296.6,346L296.6,346z M296.4,348.3
	c-1.8,0-2.8,0.2-3.1,0.7c-0.3,0.5-0.5,2-0.5,4.8c0,2,0.2,3.2,0.5,3.6c0.3,0.4,1.4,0.6,3.1,0.6c1.6,0,2.6-0.2,3-0.7
	c0.3-0.5,0.5-1.9,0.5-4.2c0-2.3-0.2-3.7-0.5-4.2C299.2,348.5,298.2,348.3,296.4,348.3z"/>
<path style="&st2;" d="M304.4,360.2v-14h6.9c2,0,3.3,0.4,4.1,1.3c0.8,0.9,1.2,2.4,1.2,4.5c0,3.5-0.3,5.7-0.9,6.7
	c-0.6,1-2,1.5-4.3,1.5H304.4L304.4,360.2z M307.1,357.9h3.8c1.3,0,2.1-0.3,2.5-0.9c0.4-0.6,0.6-1.9,0.6-3.9c0-2.1-0.2-3.4-0.5-3.9
	c-0.3-0.6-1.1-0.8-2.4-0.8h-3.9V357.9z"/>
<polygon style="&st2;" points="320.9,348.4 320.9,352 327.5,352 327.5,354 320.9,354 320.9,357.9 327.9,357.9 327.9,360.2 
	318.3,360.2 318.3,346.2 327.8,346.2 327.8,348.4 "/>
<polygon style="&st2;" points="332.5,346.2 332.5,357.8 339.1,357.8 339.1,360.2 329.9,360.2 329.9,346.2 "/>
<g>
	<defs>
		<rect id="SVGID_1_" x="875.3" y="320.5" width="532.9" height="219.6"/>
	</defs>
	<clipPath id="SVGID_6_">
		<use xlink:href="#SVGID_1_"  style="overflow:visible;"/>
	</clipPath>
	<g transform="matrix(1 0 0 1 -1.939594e-005 -1.000232e-005)" style="clip-path:url(#SVGID_6_);">
		
			<image style="overflow:visible;" width="1234" height="508" xlink:href="27654DD9.jpg"  transform="matrix(0.4319 0 0 0.4323 875.3379 320.4888)">
		</image>
	</g>
</g>
<path style="&st2;" d="M970.7,436.9h2.6c0,0.9,0.1,1.4,0.4,1.6c0.3,0.2,1.1,0.3,2.3,0.3c1.3,0,2.2-0.1,2.5-0.4
	c0.3-0.3,0.4-1.1,0.4-2.4v-2h-0.1c-0.4,0.9-1.5,1.4-3.2,1.4c-1.9,0-3.2-0.3-3.9-0.8c-0.7-0.5-1-1.6-1-3.2c0-1.8,0.3-3.1,1-3.7
	c0.7-0.6,2-1,4-1c2.6,0,4.2,0.4,4.8,1.1s0.9,2.7,0.9,5.8c0,3.4-0.3,5.4-0.9,6.2c-0.6,0.8-2.2,1.1-4.8,1.1c-2,0-3.4-0.3-4.1-0.8
	c-0.7-0.5-1.1-1.4-1.1-2.8V436.9L970.7,436.9z M976,428.9c-1.1,0-1.8,0.1-2.1,0.4c-0.3,0.3-0.4,0.9-0.4,1.8c0,1,0.1,1.6,0.4,1.8
	c0.3,0.2,1,0.4,2.2,0.4c1.3,0,2.1-0.1,2.4-0.3c0.3-0.2,0.5-0.8,0.5-1.7c0-1-0.2-1.7-0.5-1.9C978.2,429,977.3,428.9,976,428.9z"/>
<path style="&st2;" d="M989.5,426.7c2.6,0,4.2,0.4,4.8,1.1c0.6,0.8,0.9,2.7,0.9,6c0,3.2-0.3,5.2-0.9,6c-0.6,0.8-2.2,1.1-4.8,1.1
	c-2.6,0-4.2-0.4-4.8-1.1c-0.6-0.8-0.9-2.8-0.9-6c0-3.2,0.3-5.2,0.9-6C985.4,427.1,986.9,426.7,989.5,426.7L989.5,426.7z M989.3,429
	c-1.2,0-2,0.2-2.3,0.5c-0.3,0.4-0.5,1.2-0.5,2.5l0,1.8l0,1.7c0,1.4,0.2,2.3,0.5,2.6c0.3,0.3,1.2,0.5,2.6,0.5c1.4,0,2.3-0.2,2.6-0.7
	c0.3-0.5,0.4-1.9,0.4-4.2c0-2.4-0.1-3.7-0.4-4.1C991.9,429.2,990.9,429,989.3,429z"/>
<path style="&st2;" d="M997.3,431.1h2.3l-0.1,1.5l0.1,0c0.5-1.1,1.5-1.6,3-1.6c1.8,0,2.8,0.6,3,1.8h0c0.5-1.2,1.5-1.8,3-1.8
	c2.3,0,3.4,1.1,3.4,3.4v6.5h-2.3v-6c0-1.4-0.6-2.1-1.7-2.1c-1.4,0-2.1,0.8-2.1,2.3v5.7h-2.3v-6.1c0-0.8-0.1-1.3-0.3-1.6
	c-0.2-0.3-0.7-0.4-1.4-0.4c-1.4,0-2.2,0.8-2.2,2.4v5.7h-2.3V431.1z"/>
<path style="&st2;" d="M1014.4,431.1h2.3l-0.1,1.5l0.1,0c0.5-1.1,1.5-1.6,3-1.6c1.8,0,2.8,0.6,3,1.8h0c0.5-1.2,1.5-1.8,3-1.8
	c2.3,0,3.4,1.1,3.4,3.4v6.5h-2.3v-6c0-1.4-0.6-2.1-1.7-2.1c-1.4,0-2.1,0.8-2.1,2.3v5.7h-2.3v-6.1c0-0.8-0.1-1.3-0.3-1.6
	c-0.2-0.3-0.7-0.4-1.4-0.4c-1.4,0-2.2,0.8-2.2,2.4v5.7h-2.3V431.1z"/>
<path style="&st2;" d="M1053.3,426.9v14h-2.7v-7.6c0-0.6,0-1.3,0.1-2.1l0-1l0.1-1h-0.1l-0.3,1l-0.3,1c-0.3,0.9-0.5,1.5-0.7,1.9
	l-3.1,7.9h-2.4l-3.1-7.8c-0.2-0.4-0.4-1.1-0.7-1.9l-0.3-1l-0.3-1h-0.1l0.1,1l0,1c0,0.8,0.1,1.5,0.1,2v7.6h-2.7v-14h4.3l2.5,6.5
	c0.2,0.5,0.4,1.1,0.7,1.9l0.3,1l0.3,1h0.1l0.3-1l0.3-1c0.3-0.8,0.5-1.5,0.7-1.9l2.5-6.5H1053.3z"/>
<path style="&st2;" d="M1061.5,426.7c2.5,0,4.2,0.4,4.9,1.3c0.7,0.8,1.1,2.7,1.1,5.7c0,3.2-0.4,5.2-1.1,6.1
	c-0.7,0.8-2.5,1.3-5.3,1.3c-2.5,0-4.2-0.4-4.9-1.2c-0.7-0.8-1.1-2.6-1.1-5.4c0-3.3,0.4-5.4,1.1-6.3
	C1056.9,427.2,1058.7,426.7,1061.5,426.7L1061.5,426.7z M1061.3,429c-1.8,0-2.8,0.2-3.1,0.7c-0.3,0.5-0.5,2-0.5,4.8
	c0,2,0.2,3.2,0.5,3.6c0.3,0.4,1.4,0.6,3.1,0.6c1.6,0,2.6-0.2,3-0.7c0.3-0.5,0.5-1.9,0.5-4.2c0-2.3-0.2-3.7-0.5-4.2
	C1064.1,429.2,1063,429,1061.3,429z"/>
<path style="&st2;" d="M1069.3,440.9v-14h6.9c2,0,3.3,0.4,4.1,1.3c0.8,0.9,1.2,2.4,1.2,4.5c0,3.5-0.3,5.7-0.9,6.7
	c-0.6,1-2,1.5-4.3,1.5H1069.3L1069.3,440.9z M1072,438.6h3.8c1.3,0,2.1-0.3,2.5-0.9c0.4-0.6,0.6-1.9,0.6-3.9c0-2.1-0.2-3.4-0.5-3.9
	c-0.3-0.6-1.1-0.8-2.4-0.8h-3.9V438.6z"/>
<polygon style="&st2;" points="1085.8,429.1 1085.8,432.7 1092.4,432.7 1092.4,434.7 1085.8,434.7 1085.8,438.6 1092.8,438.6 
	1092.8,440.9 1083.2,440.9 1083.2,426.9 1092.7,426.9 1092.7,429.1 "/>
<polygon style="&st2;" points="1097.4,426.9 1097.4,438.5 1104,438.5 1104,440.9 1094.8,440.9 1094.8,426.9 "/>
<path style="&st3;" d="M268.5,580.9h976.3c25.3,0,45.9,13.8,45.9,30.6V747c0,16.8-20.7,30.6-45.9,30.6H268.5
	c-25.3,0-45.9-13.8-45.9-30.6V611.5C222.5,594.7,243.2,580.9,268.5,580.9z"/>
<path style="&st5;" d="M251.7,597.3v16.8h-2.1v-16.8h-6.1v-2h14.3v2H251.7L251.7,597.3z M274.9,595.4v18.8h-2.1v-8.7h-11v8.7h-2.1
	v-18.8h2.1v8.3h11v-8.3H274.9L274.9,595.4z M279.9,597.1v6.4h9.6v1.8h-9.6v7h10v1.8h-12.1v-18.8h12.1v1.8H279.9L279.9,597.1z
	 M316.8,607.9h2.1v0.7c0,2.6-0.4,4.2-1.3,4.8c-0.9,0.6-3.1,1-6.6,1c-3.2,0-5.2-0.6-6-1.7c-0.9-1.1-1.3-3.8-1.3-7.9
	c0-3.3,0.1-5.3,0.3-6.2c0.2-0.8,0.7-1.6,1.7-2.3c1.1-0.8,3.4-1.2,6.9-1.2c2.4,0,4,0.4,4.8,1.1c0.8,0.7,1.2,2.2,1.2,4.3l0,0.5h-2.1
	l0-0.6c0-1.5-0.2-2.5-0.7-2.9c-0.5-0.4-1.6-0.6-3.3-0.6c-3,0-4.9,0.3-5.6,0.8c-0.7,0.5-1,1.9-1,4.2c0,5.3,0.2,8.4,0.7,9.3
	c0.4,0.9,2,1.4,4.6,1.4c2.5,0,4.1-0.2,4.7-0.6c0.6-0.4,0.9-1.4,0.9-3L316.8,607.9L316.8,607.9z M328.2,595.2c3.6,0,5.8,0.5,6.7,1.6
	c0.9,1,1.3,3.6,1.3,7.8c0,4.5-0.4,7.2-1.3,8.3c-0.9,1-3.1,1.6-6.7,1.6c-3.6,0-5.9-0.5-6.7-1.6c-0.9-1-1.3-3.7-1.3-8.1v-1.3l0-1.8
	c0-2.5,0.6-4.2,1.7-5.1C323,595.6,325.1,595.2,328.2,595.2L328.2,595.2z M328.2,597c-3,0-4.7,0.3-5.2,1c-0.5,0.7-0.8,2.9-0.8,6.8
	c0,3.9,0.3,6.2,0.8,6.8c0.5,0.7,2.2,1,5.2,1c3,0,4.7-0.3,5.2-1c0.5-0.7,0.8-2.9,0.8-6.8v-1.2l0-1.8c0-2.1-0.3-3.4-1-4
	C332.4,597.2,330.8,597,328.2,597L328.2,597z M338.6,614.2v-18.8h8.7c2.7,0,4.5,0.6,5.5,1.8c1,1.2,1.4,3.5,1.4,6.8
	c0,4.1-0.4,6.8-1.3,8.2c-0.9,1.4-2.5,2.1-5.1,2.1H338.6L338.6,614.2z M340.7,612.4h6.1c2.2,0,3.7-0.5,4.4-1.3c0.7-0.9,1-2.9,1-6
	c0-3.4-0.3-5.6-0.8-6.5c-0.6-0.9-1.9-1.4-4.1-1.4h-6.6V612.4L340.7,612.4z M357.1,614.2v-18.8h8.3c2.3,0,3.8,0.3,4.5,1
	c0.7,0.6,1.1,2,1.1,4c0,2.1-0.8,3.4-2.4,4v0c2,0.5,3,2,3,4.4c0,2-0.4,3.4-1.2,4.2c-0.8,0.8-2.1,1.2-4.1,1.2H357.1L357.1,614.2z
	 M359.2,603.6h5.6c1.8,0,2.9-0.2,3.4-0.6c0.5-0.4,0.8-1.4,0.8-2.8c0-1.3-0.2-2.1-0.7-2.5c-0.4-0.4-1.4-0.6-2.9-0.6h-6.2V603.6
	L359.2,603.6z M359.2,612.4h4.5l1.9,0c1.6,0,2.7-0.2,3.2-0.6c0.5-0.4,0.8-1.3,0.8-2.7c0-1.7-0.3-2.7-0.8-3.1
	c-0.5-0.4-1.9-0.6-4.1-0.6h-5.5V612.4L359.2,612.4z M386,610.2h-9.5l-1.4,4h-2.2l6.9-18.8h3l7,18.8h-2.2L386,610.2L386,610.2z
	 M385.4,608.6l-4.2-11.5l-4.1,11.5H385.4L385.4,608.6z M393.8,595.4v18.8h-2.1v-18.8H393.8L393.8,595.4z M404,597.3v16.8h-2.1v-16.8
	h-6.1v-2H410v2H404L404,597.3z M425.9,595.4v16.8h9.7v2h-11.8v-18.8H425.9L425.9,595.4z M450.3,595.4h2.1v13.2c0,2.4-0.5,4-1.4,4.7
	c-1,0.7-3,1.1-6,1.1c-2.9,0-4.8-0.4-5.9-1.1c-1-0.7-1.6-2.1-1.6-4.1v-0.6v-13.2h2.1v13.2c0,1.8,0.3,2.9,0.9,3.4
	c0.6,0.5,2,0.7,4.3,0.7c2.5,0,4-0.2,4.6-0.7c0.6-0.4,0.9-1.6,0.9-3.4V595.4L450.3,595.4z M456,614.2v-18.8h9c2,0,3.4,0.4,4.3,1.2
	c0.8,0.8,1.2,2.2,1.2,4.2c0,1.7-0.2,2.9-0.7,3.6c-0.4,0.7-1.3,1.1-2.6,1.3v0c2,0.1,3,1.4,3,3.6v4.8h-2.1v-4.3c0-2.2-1-3.3-2.9-3.3
	h-0.7h-6.4v7.6H456L456,614.2z M458.1,604.8h6.1c1.6,0,2.7-0.2,3.3-0.7c0.6-0.5,0.9-1.4,0.9-2.8c0-1.7-0.2-2.8-0.7-3.3
	c-0.4-0.5-1.4-0.8-2.8-0.8h-6.9V604.8L458.1,604.8z M474.9,597.1v6.4h9.6v1.8h-9.6v7h10v1.8h-12.1v-18.8h12.1v1.8H474.9L474.9,597.1
	z M514.8,595.4v18.8h-2.1v-8.7h-11v8.7h-2.1v-18.8h2.1v8.3h11v-8.3H514.8L514.8,595.4z M529.9,610.2h-9.5l-1.4,4h-2.2l6.9-18.8h3
	l7,18.8h-2.2L529.9,610.2L529.9,610.2z M529.3,608.6l-4.2-11.5l-4.1,11.5H529.3L529.3,608.6z M548.4,600.5h-2.1
	c0-1.5-0.3-2.5-0.8-2.9c-0.5-0.4-1.7-0.6-3.6-0.6c-2.2,0-3.7,0.2-4.3,0.6s-1,1.3-1,2.6c0,1.5,0.3,2.4,0.8,2.8c0.5,0.3,2,0.6,4.5,0.7
	c2.9,0.1,4.8,0.5,5.6,1.1c0.8,0.6,1.2,2,1.2,4.1c0,2.3-0.5,3.8-1.4,4.5c-0.9,0.7-2.9,1-6.1,1c-2.7,0-4.5-0.3-5.4-1
	c-0.9-0.7-1.3-2.1-1.3-4.1l0-0.8h2.1v0.5c0,1.7,0.3,2.7,0.8,3.1c0.5,0.4,1.8,0.6,4,0.6c2.4,0,3.9-0.2,4.5-0.6
	c0.6-0.4,0.8-1.5,0.8-3.3c0-1.1-0.2-1.9-0.6-2.3c-0.4-0.4-1.2-0.6-2.4-0.7l-2.2-0.1l-2.1-0.1c-3.2-0.2-4.8-1.9-4.8-5
	c0-2.1,0.5-3.6,1.4-4.3c0.9-0.7,2.8-1.1,5.6-1.1c2.8,0,4.6,0.3,5.5,1C548,596.8,548.4,598.3,548.4,600.5L548.4,600.5z M563.2,614.2
	v-18.8h8.3c2.3,0,3.8,0.3,4.5,1c0.7,0.6,1.1,2,1.1,4c0,2.1-0.8,3.4-2.4,4v0c2,0.5,3,2,3,4.4c0,2-0.4,3.4-1.2,4.2
	c-0.8,0.8-2.1,1.2-4.1,1.2H563.2L563.2,614.2z M565.3,603.6h5.6c1.8,0,2.9-0.2,3.4-0.6c0.5-0.4,0.8-1.4,0.8-2.8
	c0-1.3-0.2-2.1-0.7-2.5c-0.4-0.4-1.4-0.6-2.9-0.6h-6.2V603.6L565.3,603.6z M565.3,612.4h4.5l1.9,0c1.6,0,2.7-0.2,3.2-0.6
	c0.5-0.4,0.8-1.3,0.8-2.7c0-1.7-0.3-2.7-0.8-3.1c-0.5-0.4-1.9-0.6-4.1-0.6h-5.5V612.4L565.3,612.4z M582,597.1v6.4h9.6v1.8H582v7h10
	v1.8h-12.1v-18.8h12.1v1.8H582L582,597.1z M596,597.1v6.4h9.6v1.8H596v7h10v1.8h-12.1v-18.8H606v1.8H596L596,597.1z M624.8,595.4
	v18.8h-3.5l-7.9-12.8l-1.3-2.1l-0.6-1l-0.6-1h-0.1l0,0.7l0,0.7v1.4v14.2h-2.1v-18.8h3.5l6.9,11.2l1.8,3l0.9,1.5l0.9,1.5h0.1l0-0.7
	l0-0.7v-1.4v-14.3H624.8L624.8,595.4z M640.3,614.2v-18.8h8.7c2.7,0,4.5,0.6,5.5,1.8c1,1.2,1.4,3.5,1.4,6.8c0,4.1-0.4,6.8-1.3,8.2
	s-2.5,2.1-5.1,2.1H640.3L640.3,614.2z M642.4,612.4h6.1c2.2,0,3.7-0.5,4.4-1.3c0.7-0.9,1-2.9,1-6c0-3.4-0.3-5.6-0.8-6.5
	c-0.6-0.9-1.9-1.4-4.1-1.4h-6.6V612.4L642.4,612.4z M660.1,597.1v6.4h9.6v1.8h-9.6v7h10v1.8H658v-18.8H670v1.8H660.1L660.1,597.1z
	 M685.7,600.5h-2.1c0-1.5-0.3-2.5-0.8-2.9c-0.5-0.4-1.7-0.6-3.6-0.6c-2.2,0-3.7,0.2-4.3,0.6s-1,1.3-1,2.6c0,1.5,0.3,2.4,0.8,2.8
	c0.5,0.3,2,0.6,4.5,0.7c2.9,0.1,4.8,0.5,5.6,1.1c0.8,0.6,1.2,2,1.2,4.1c0,2.3-0.5,3.8-1.4,4.5c-0.9,0.7-2.9,1-6.1,1
	c-2.7,0-4.5-0.3-5.4-1c-0.9-0.7-1.3-2.1-1.3-4.1l0-0.8h2.1v0.5c0,1.7,0.3,2.7,0.8,3.1c0.5,0.4,1.8,0.6,4,0.6c2.4,0,3.9-0.2,4.5-0.6
	c0.6-0.4,0.8-1.5,0.8-3.3c0-1.1-0.2-1.9-0.6-2.3c-0.4-0.4-1.2-0.6-2.4-0.7l-2.2-0.1l-2.1-0.1c-3.2-0.2-4.8-1.9-4.8-5
	c0-2.1,0.5-3.6,1.4-4.3c0.9-0.7,2.8-1.1,5.6-1.1c2.8,0,4.6,0.3,5.5,1C685.2,596.8,685.7,598.3,685.7,600.5L685.7,600.5z
	 M690.7,595.4v18.8h-2.1v-18.8H690.7L690.7,595.4z M701,604.8h8.1c0,0.5,0.1,1.2,0.1,2.1c0,3.4-0.4,5.5-1.2,6.3
	c-0.8,0.8-3,1.2-6.5,1.2c-3.3,0-5.4-0.5-6.4-1.4c-0.9-1-1.4-3.1-1.4-6.4l0-2.8l0-1.7c0-2.8,0.5-4.6,1.6-5.6c1.1-0.9,3.2-1.4,6.4-1.4
	c3.2,0,5.3,0.3,6.2,0.9c0.9,0.6,1.4,1.9,1.4,4v0.7H707v-0.5c0-1.5-0.3-2.5-0.9-2.8c-0.6-0.4-2.3-0.5-4.9-0.5c-2.5,0-4,0.3-4.6,0.9
	c-0.6,0.6-0.9,2-0.9,4.4l0,2.5l0,2.7c0,2.4,0.3,3.8,1,4.4c0.7,0.5,2.5,0.8,5.5,0.8c2.3,0,3.7-0.3,4.2-0.8c0.5-0.5,0.8-1.9,0.8-4
	c0-0.2,0-0.6-0.1-1.2h-6V604.8L701,604.8z M727.9,595.4v18.8h-3.5l-7.9-12.8l-1.3-2.1l-0.6-1l-0.6-1h-0.1l0,0.7l0,0.7v1.4v14.2h-2.1
	v-18.8h3.5l6.9,11.2l1.8,3l0.9,1.5l0.9,1.5h0.1l0-0.7l0-0.7v-1.4v-14.3H727.9L727.9,595.4z M732.8,597.1v6.4h9.6v1.8h-9.6v7h10v1.8
	h-12.1v-18.8h12.1v1.8H732.8L732.8,597.1z M745.5,614.2v-18.8h8.7c2.7,0,4.5,0.6,5.5,1.8c1,1.2,1.4,3.5,1.4,6.8
	c0,4.1-0.4,6.8-1.3,8.2s-2.5,2.1-5.1,2.1H745.5L745.5,614.2z M747.6,612.4h6.1c2.2,0,3.7-0.5,4.4-1.3c0.7-0.9,1-2.9,1-6
	c0-3.4-0.3-5.6-0.8-6.5s-1.9-1.4-4.1-1.4h-6.6V612.4L747.6,612.4z M788.7,600.5h-2.1c0-1.5-0.3-2.5-0.8-2.9
	c-0.5-0.4-1.7-0.6-3.6-0.6c-2.2,0-3.7,0.2-4.3,0.6c-0.6,0.4-1,1.3-1,2.6c0,1.5,0.3,2.4,0.8,2.8c0.5,0.3,2,0.6,4.5,0.7
	c2.9,0.1,4.8,0.5,5.6,1.1c0.8,0.6,1.2,2,1.2,4.1c0,2.3-0.5,3.8-1.4,4.5c-0.9,0.7-2.9,1-6.1,1c-2.7,0-4.5-0.3-5.4-1
	c-0.9-0.7-1.3-2.1-1.3-4.1l0-0.8h2.1v0.5c0,1.7,0.3,2.7,0.8,3.1c0.5,0.4,1.8,0.6,4,0.6c2.4,0,3.9-0.2,4.5-0.6
	c0.6-0.4,0.8-1.5,0.8-3.3c0-1.1-0.2-1.9-0.6-2.3c-0.4-0.4-1.2-0.6-2.4-0.7l-2.2-0.1l-2.1-0.1c-3.2-0.2-4.8-1.9-4.8-5
	c0-2.1,0.5-3.6,1.4-4.3c0.9-0.7,2.8-1.1,5.6-1.1c2.8,0,4.6,0.3,5.5,1C788.3,596.8,788.7,598.3,788.7,600.5L788.7,600.5z
	 M791.6,614.2v-18.8h7.9h0.7c2.1,0,3.6,0.4,4.3,1.2c0.8,0.8,1.2,2.3,1.2,4.6c0,2.1-0.4,3.6-1.2,4.4c-0.8,0.8-2.3,1.2-4.5,1.2l-0.8,0
	h-5.4v7.4H791.6L791.6,614.2z M793.8,605h5c2.1,0,3.5-0.2,4-0.6c0.6-0.4,0.9-1.4,0.9-3c0-1.8-0.2-3-0.6-3.5
	c-0.4-0.5-1.4-0.7-2.8-0.7l-0.8,0h-5.7V605L793.8,605z M809.6,597.1v6.4h9.6v1.8h-9.6v7h10v1.8h-12.1v-18.8h12.1v1.8H809.6
	L809.6,597.1z M834.7,607.9h2.1v0.7c0,2.6-0.4,4.2-1.3,4.8c-0.9,0.6-3.1,1-6.6,1c-3.2,0-5.2-0.6-6-1.7c-0.9-1.1-1.3-3.8-1.3-7.9
	c0-3.3,0.1-5.3,0.3-6.2c0.2-0.8,0.7-1.6,1.7-2.3c1.1-0.8,3.4-1.2,6.9-1.2c2.4,0,4,0.4,4.8,1.1c0.8,0.7,1.2,2.2,1.2,4.3l0,0.5h-2.1
	l0-0.6c0-1.5-0.2-2.5-0.7-2.9c-0.5-0.4-1.6-0.6-3.3-0.6c-3,0-4.9,0.3-5.6,0.8c-0.7,0.5-1,1.9-1,4.2c0,5.3,0.2,8.4,0.7,9.3
	c0.4,0.9,2,1.4,4.6,1.4c2.5,0,4.1-0.2,4.7-0.6c0.6-0.4,0.9-1.4,0.9-3L834.7,607.9L834.7,607.9z M841.3,595.4v18.8h-2.1v-18.8H841.3
	L841.3,595.4z M847.1,597.1v6.6h9.2v1.8h-9.2v8.7h-2.1v-18.8h11.5v1.8H847.1L847.1,597.1z M860.9,595.4v18.8h-2.1v-18.8H860.9
	L860.9,595.4z M876.8,607.9h2.1v0.7c0,2.6-0.4,4.2-1.3,4.8c-0.9,0.6-3.1,1-6.6,1c-3.2,0-5.2-0.6-6-1.7c-0.9-1.1-1.3-3.8-1.3-7.9
	c0-3.3,0.1-5.3,0.3-6.2c0.2-0.8,0.7-1.6,1.7-2.3c1.1-0.8,3.4-1.2,6.9-1.2c2.4,0,4,0.4,4.8,1.1c0.8,0.7,1.2,2.2,1.2,4.3l0,0.5h-2.1
	l0-0.6c0-1.5-0.2-2.5-0.7-2.9c-0.5-0.4-1.6-0.6-3.3-0.6c-3,0-4.9,0.3-5.6,0.8c-0.7,0.5-1,1.9-1,4.2c0,5.3,0.2,8.4,0.7,9.3
	c0.4,0.9,2,1.4,4.6,1.4c2.5,0,4.1-0.2,4.7-0.6c0.6-0.4,0.9-1.4,0.9-3L876.8,607.9L876.8,607.9z M892.9,610.2h-9.5l-1.4,4h-2.2
	l6.9-18.8h3l7,18.8h-2.2L892.9,610.2L892.9,610.2z M892.3,608.6l-4.2-11.5l-4.1,11.5H892.3L892.3,608.6z M900.6,595.4v16.8h9.7v2
	h-11.8v-18.8H900.6L900.6,595.4z M914.3,595.4v16.8h9.7v2h-11.8v-18.8H914.3L914.3,595.4z M940.1,595.4h-2.5l-4,6.4l-0.8,1.2
	l-0.4,0.6c-0.1,0.1-0.2,0.3-0.4,0.6H932l-0.4-0.6c-0.2-0.3-0.3-0.5-0.4-0.6l-0.8-1.2l-4-6.4h-2.5l6.9,11v7.9h2.1v-7.9L940.1,595.4
	L940.1,595.4z M955.8,597.1v6.6h9.2v1.8h-9.2v8.7h-2.1v-18.8h11.5v1.8H955.8L955.8,597.1z M974.3,595.2c3.6,0,5.8,0.5,6.7,1.6
	c0.9,1,1.3,3.6,1.3,7.8c0,4.5-0.4,7.2-1.3,8.3c-0.9,1-3.1,1.6-6.7,1.6c-3.6,0-5.9-0.5-6.7-1.6c-0.9-1-1.3-3.7-1.3-8.1v-1.3l0-1.8
	c0-2.5,0.6-4.2,1.7-5.1C969.1,595.6,971.2,595.2,974.3,595.2L974.3,595.2z M974.3,597c-3,0-4.7,0.3-5.2,1c-0.5,0.7-0.8,2.9-0.8,6.8
	c0,3.9,0.3,6.2,0.8,6.8c0.5,0.7,2.2,1,5.2,1c3,0,4.7-0.3,5.2-1c0.5-0.7,0.8-2.9,0.8-6.8v-1.2l0-1.8c0-2.1-0.3-3.4-1-4
	C978.5,597.2,976.9,597,974.3,597L974.3,597z M984.8,614.2v-18.8h9c2,0,3.4,0.4,4.3,1.2c0.8,0.8,1.2,2.2,1.2,4.2
	c0,1.7-0.2,2.9-0.7,3.6c-0.4,0.7-1.3,1.1-2.6,1.3v0c2,0.1,3,1.4,3,3.6v4.8h-2.1v-4.3c0-2.2-1-3.3-2.9-3.3h-0.7h-6.4v7.6H984.8
	L984.8,614.2z M986.9,604.8h6.1c1.6,0,2.7-0.2,3.3-0.7c0.6-0.5,0.9-1.4,0.9-2.8c0-1.7-0.2-2.8-0.7-3.3s-1.4-0.8-2.8-0.8h-6.9V604.8
	L986.9,604.8z M1034.9,595.4v18.8h-2.1v-15.1V598l0-0.6l0-0.6h-0.1l-0.2,0.4c-0.1,0.2-0.1,0.4-0.2,0.4l-0.4,0.9l-6.4,15.6h-2.1
	l-6.4-15.4l-0.4-0.9l-0.2-0.4c0-0.1-0.1-0.2-0.2-0.4h-0.1l0,0.5l0,0.5v1v15.1h-2.1v-18.8h3.7l5,12.2l0.8,2l0.4,1l0.4,1h0.1l0.4-1
	c0.2-0.5,0.3-0.8,0.4-1l0.8-2l5-12.2H1034.9L1034.9,595.4z M1051.2,595.4h2.1v13.2c0,2.4-0.5,4-1.4,4.7c-1,0.7-3,1.1-6,1.1
	c-2.9,0-4.8-0.4-5.9-1.1c-1-0.7-1.6-2.1-1.6-4.1v-0.6v-13.2h2.1v13.2c0,1.8,0.3,2.9,0.9,3.4c0.6,0.5,2,0.7,4.3,0.7
	c2.5,0,4-0.2,4.6-0.7c0.6-0.4,0.9-1.6,0.9-3.4V595.4L1051.2,595.4z M1056.9,614.2v-18.8h9c2,0,3.4,0.4,4.3,1.2
	c0.8,0.8,1.2,2.2,1.2,4.2c0,1.7-0.2,2.9-0.7,3.6c-0.4,0.7-1.3,1.1-2.6,1.3v0c2,0.1,3,1.4,3,3.6v4.8h-2.1v-4.3c0-2.2-1-3.3-2.9-3.3
	h-0.7h-6.4v7.6H1056.9L1056.9,614.2z M1059,604.8h6.1c1.6,0,2.7-0.2,3.3-0.7c0.6-0.5,0.9-1.4,0.9-2.8c0-1.7-0.2-2.8-0.7-3.3
	c-0.4-0.5-1.4-0.8-2.8-0.8h-6.9V604.8L1059,604.8z M1074.5,614.2v-18.8h9c2,0,3.4,0.4,4.3,1.2c0.8,0.8,1.2,2.2,1.2,4.2
	c0,1.7-0.2,2.9-0.7,3.6c-0.4,0.7-1.3,1.1-2.6,1.3v0c2,0.1,3,1.4,3,3.6v4.8h-2.1v-4.3c0-2.2-1-3.3-2.9-3.3h-0.7h-6.4v7.6H1074.5
	L1074.5,614.2z M1076.6,604.8h6.1c1.6,0,2.7-0.2,3.3-0.7c0.6-0.5,0.9-1.4,0.9-2.8c0-1.7-0.2-2.8-0.7-3.3c-0.4-0.5-1.4-0.8-2.8-0.8
	h-6.9V604.8L1076.6,604.8z M1103.7,610.2h-9.5l-1.4,4h-2.2l6.9-18.8h3l7,18.8h-2.2L1103.7,610.2L1103.7,610.2z M1103,608.6
	l-4.2-11.5l-4.1,11.5H1103L1103,608.6z M1123.5,595.4h-2.5l-4,6.4l-0.8,1.2l-0.4,0.6c-0.1,0.1-0.2,0.3-0.4,0.6h-0.1l-0.4-0.6
	c-0.2-0.3-0.3-0.5-0.4-0.6l-0.8-1.2l-4-6.4h-2.5l6.9,11v7.9h2.1v-7.9L1123.5,595.4L1123.5,595.4z M1149.4,607.9h2.1v0.7
	c0,2.6-0.4,4.2-1.3,4.8c-0.9,0.6-3.1,1-6.6,1c-3.2,0-5.2-0.6-6-1.7c-0.9-1.1-1.3-3.8-1.3-7.9c0-3.3,0.1-5.3,0.3-6.2
	c0.2-0.8,0.7-1.6,1.7-2.3c1.1-0.8,3.4-1.2,6.9-1.2c2.4,0,4,0.4,4.8,1.1c0.8,0.7,1.2,2.2,1.2,4.3l0,0.5h-2.1l0-0.6
	c0-1.5-0.2-2.5-0.7-2.9c-0.5-0.4-1.6-0.6-3.3-0.6c-3,0-4.9,0.3-5.6,0.8c-0.7,0.5-1,1.9-1,4.2c0,5.3,0.2,8.4,0.7,9.3
	c0.4,0.9,2,1.4,4.6,1.4c2.5,0,4.1-0.2,4.7-0.6c0.6-0.4,0.9-1.4,0.9-3L1149.4,607.9L1149.4,607.9z M1160.8,595.2
	c3.6,0,5.8,0.5,6.7,1.6c0.9,1,1.3,3.6,1.3,7.8c0,4.5-0.4,7.2-1.3,8.3c-0.9,1-3.1,1.6-6.7,1.6c-3.6,0-5.9-0.5-6.7-1.6
	c-0.9-1-1.3-3.7-1.3-8.1v-1.3l0-1.8c0-2.5,0.6-4.2,1.7-5.1C1155.6,595.6,1157.7,595.2,1160.8,595.2L1160.8,595.2z M1160.7,597
	c-3,0-4.7,0.3-5.2,1c-0.5,0.7-0.8,2.9-0.8,6.8c0,3.9,0.3,6.2,0.8,6.8c0.5,0.7,2.2,1,5.2,1c3,0,4.7-0.3,5.2-1
	c0.5-0.7,0.8-2.9,0.8-6.8v-1.2l0-1.8c0-2.1-0.3-3.4-1-4C1165,597.2,1163.3,597,1160.7,597L1160.7,597z M1171.2,614.2v-18.8h8.7
	c2.7,0,4.5,0.6,5.5,1.8c1,1.2,1.4,3.5,1.4,6.8c0,4.1-0.4,6.8-1.3,8.2c-0.9,1.4-2.5,2.1-5.1,2.1H1171.2L1171.2,614.2z M1173.3,612.4
	h6.1c2.2,0,3.7-0.5,4.4-1.3c0.7-0.9,1-2.9,1-6c0-3.4-0.3-5.6-0.8-6.5c-0.6-0.9-1.9-1.4-4.1-1.4h-6.6V612.4L1173.3,612.4z
	 M1191.8,611.6v2.7c0,1.7-0.6,2.6-1.9,2.6c-0.1,0-0.3,0-0.5,0v-1c0.8,0,1.2-0.4,1.2-1.2l0-0.5h-0.9v-2.5H1191.8L1191.8,611.6z
	 M1233.5,595.4l-5.9,18.8h-3.2l-4-13.5l-0.5-1.7c0-0.1-0.1-0.4-0.2-0.8l-0.2-0.9h0l-0.2,0.9l-0.2,0.9l-0.5,1.7l-4,13.5h-3.2
	l-5.8-18.8h2.2l4.1,13.5l0.6,1.8c0,0.1,0.1,0.4,0.3,0.9l0.3,0.9h0l0.3-0.9l0.3-0.9l0.5-1.8l4-13.5h3.1l4,13.5l0.5,1.8l0.3,0.9
	l0.3,0.9h0l0.3-0.9l0.3-0.9l0.6-1.8l4.1-13.5H1233.5L1233.5,595.4z M1237.4,595.4v18.8h-2.1v-18.8H1237.4L1237.4,595.4z
	 M1247.6,597.3v16.8h-2.1v-16.8h-6.1v-2h14.3v2H1247.6L1247.6,597.3z M1270.8,595.4v18.8h-2.1v-8.7h-11v8.7h-2.1v-18.8h2.1v8.3h11
	v-8.3H1270.8L1270.8,595.4z M256.7,639h-9.5l-1.4,4h-2.2l6.9-18.8h3l7,18.8h-2.2L256.7,639L256.7,639z M256.1,637.4l-4.2-11.5
	l-4.1,11.5H256.1L256.1,637.4z M278.6,643v-18.8h9c2,0,3.4,0.4,4.3,1.2c0.8,0.8,1.2,2.2,1.2,4.2c0,1.7-0.2,2.9-0.7,3.6
	c-0.4,0.7-1.3,1.1-2.6,1.3v0c2,0.1,3,1.4,3,3.6v4.8h-2.1v-4.3c0-2.2-1-3.3-2.9-3.3h-0.7h-6.4v7.6H278.6L278.6,643z M280.7,633.6h6.1
	c1.6,0,2.7-0.2,3.3-0.7c0.6-0.5,0.9-1.4,0.9-2.8c0-1.7-0.2-2.8-0.7-3.3c-0.4-0.5-1.4-0.8-2.8-0.8h-6.9V633.6L280.7,633.6z
	 M307.7,639h-9.5l-1.4,4h-2.2l6.9-18.8h3l7,18.8h-2.2L307.7,639L307.7,639z M307.1,637.4l-4.2-11.5l-4.1,11.5H307.1L307.1,637.4z
	 M329.4,624.2V643h-3.5l-7.9-12.8l-1.3-2.1l-0.6-1l-0.6-1h-0.1l0,0.7l0,0.7v1.4V643h-2.1v-18.8h3.5l6.9,11.2l1.8,2.9l0.9,1.5
	l0.9,1.5h0.1l0-0.7l0-0.7v-1.4v-14.3H329.4L329.4,624.2z M339.7,633.6h8.1c0,0.5,0.1,1.2,0.1,2.1c0,3.4-0.4,5.5-1.2,6.3
	c-0.8,0.8-3,1.2-6.5,1.2c-3.3,0-5.4-0.5-6.4-1.4c-0.9-0.9-1.4-3.1-1.4-6.4l0-2.8l0-1.7c0-2.8,0.5-4.6,1.6-5.6
	c1.1-0.9,3.2-1.4,6.4-1.4c3.2,0,5.3,0.3,6.2,0.9c0.9,0.6,1.4,1.9,1.4,4v0.7h-2.1v-0.5c0-1.5-0.3-2.5-0.9-2.8
	c-0.6-0.4-2.3-0.5-4.9-0.5c-2.5,0-4,0.3-4.6,0.9c-0.6,0.6-0.9,2-0.9,4.4l0,2.5l0,2.7c0,2.4,0.3,3.8,1,4.4c0.7,0.5,2.5,0.8,5.5,0.8
	c2.3,0,3.7-0.3,4.2-0.8c0.5-0.5,0.8-1.9,0.8-4c0-0.2,0-0.6-0.1-1.2h-6V633.6L339.7,633.6z M351.8,626v6.4h9.6v1.8h-9.6v7h10v1.8
	h-12.1v-18.8h12.1v1.8H351.8L351.8,626z M387.6,624c3.6,0,5.8,0.5,6.7,1.6c0.9,1,1.3,3.6,1.3,7.8c0,4.5-0.4,7.2-1.3,8.3
	c-0.9,1-3.1,1.6-6.7,1.6c-3.6,0-5.9-0.5-6.7-1.6c-0.9-1-1.3-3.7-1.3-8v-1.3l0-1.8c0-2.5,0.6-4.2,1.7-5.1
	C382.4,624.5,384.5,624,387.6,624L387.6,624z M387.6,625.8c-3,0-4.7,0.3-5.2,1c-0.5,0.7-0.8,2.9-0.8,6.8c0,3.9,0.3,6.2,0.8,6.8
	c0.5,0.7,2.2,1,5.2,1c3,0,4.7-0.3,5.2-1c0.5-0.7,0.8-2.9,0.8-6.8v-1.2l0-1.8c0-2.1-0.3-3.4-1-4C391.8,626.1,390.2,625.8,387.6,625.8
	L387.6,625.8z M400.2,626v6.6h9.2v1.8h-9.2v8.7H398v-18.8h11.5v1.8H400.2L400.2,626z M440.4,636.7h2.1v0.7c0,2.6-0.4,4.2-1.3,4.8
	c-0.9,0.6-3.1,1-6.6,1c-3.2,0-5.2-0.6-6-1.7c-0.9-1.1-1.3-3.8-1.3-7.9c0-3.3,0.1-5.3,0.3-6.2c0.2-0.8,0.7-1.6,1.7-2.3
	c1.1-0.8,3.4-1.2,6.9-1.2c2.4,0,4,0.4,4.8,1.1c0.8,0.7,1.2,2.2,1.2,4.3l0,0.5h-2.1l0-0.6c0-1.5-0.2-2.5-0.7-2.9
	c-0.5-0.4-1.6-0.6-3.3-0.6c-3,0-4.9,0.3-5.6,0.8c-0.7,0.5-1,1.9-1,4.2c0,5.3,0.2,8.4,0.7,9.3c0.4,0.9,2,1.4,4.6,1.4
	c2.5,0,4.1-0.2,4.7-0.6c0.6-0.4,0.9-1.4,0.9-3L440.4,636.7L440.4,636.7z M451.8,624c3.6,0,5.8,0.5,6.7,1.6c0.9,1,1.3,3.6,1.3,7.8
	c0,4.5-0.4,7.2-1.3,8.3c-0.9,1-3.1,1.6-6.7,1.6c-3.6,0-5.9-0.5-6.7-1.6c-0.9-1-1.3-3.7-1.3-8v-1.3l0-1.8c0-2.5,0.6-4.2,1.7-5.1
	C446.6,624.5,448.7,624,451.8,624L451.8,624z M451.8,625.8c-3,0-4.7,0.3-5.2,1c-0.5,0.7-0.8,2.9-0.8,6.8c0,3.9,0.3,6.2,0.8,6.8
	c0.5,0.7,2.2,1,5.2,1c3,0,4.7-0.3,5.2-1c0.5-0.7,0.8-2.9,0.8-6.8v-1.2l0-1.8c0-2.1-0.3-3.4-1-4C456,626.1,454.4,625.8,451.8,625.8
	L451.8,625.8z M464.3,624.2V641h9.7v2h-11.8v-18.8H464.3L464.3,624.2z M482.8,624c3.6,0,5.8,0.5,6.7,1.6c0.9,1,1.3,3.6,1.3,7.8
	c0,4.5-0.4,7.2-1.3,8.3c-0.9,1-3.1,1.6-6.7,1.6c-3.6,0-5.9-0.5-6.7-1.6c-0.9-1-1.3-3.7-1.3-8v-1.3l0-1.8c0-2.5,0.6-4.2,1.7-5.1
	C477.6,624.5,479.7,624,482.8,624L482.8,624z M482.8,625.8c-3,0-4.7,0.3-5.2,1c-0.5,0.7-0.8,2.9-0.8,6.8c0,3.9,0.3,6.2,0.8,6.8
	c0.5,0.7,2.2,1,5.2,1c3,0,4.7-0.3,5.2-1c0.5-0.7,0.8-2.9,0.8-6.8v-1.2l0-1.8c0-2.1-0.3-3.4-1-4C487,626.1,485.4,625.8,482.8,625.8
	L482.8,625.8z M506,624.2h2.1v13.2c0,2.4-0.5,4-1.4,4.7c-1,0.7-3,1.1-6,1.1c-2.9,0-4.8-0.4-5.9-1.1c-1-0.7-1.6-2.1-1.6-4.1v-0.6
	v-13.2h2.1v13.2c0,1.8,0.3,2.9,0.9,3.4c0.6,0.5,2,0.7,4.3,0.7c2.5,0,4-0.2,4.6-0.7c0.6-0.4,0.9-1.6,0.9-3.4V624.2L506,624.2z
	 M511.7,643v-18.8h9c2,0,3.4,0.4,4.3,1.2c0.8,0.8,1.2,2.2,1.2,4.2c0,1.7-0.2,2.9-0.7,3.6c-0.4,0.7-1.3,1.1-2.6,1.3v0
	c2,0.1,3,1.4,3,3.6v4.8h-2.1v-4.3c0-2.2-1-3.3-2.9-3.3h-0.7h-6.4v7.6H511.7L511.7,643z M513.8,633.6h6.1c1.6,0,2.7-0.2,3.3-0.7
	c0.6-0.5,0.9-1.4,0.9-2.8c0-1.7-0.2-2.8-0.7-3.3c-0.4-0.5-1.4-0.8-2.8-0.8h-6.9V633.6L513.8,633.6z M542.2,629.3h-2.1
	c0-1.5-0.3-2.5-0.8-2.9c-0.5-0.4-1.7-0.6-3.6-0.6c-2.2,0-3.7,0.2-4.3,0.6c-0.6,0.4-1,1.3-1,2.6c0,1.5,0.3,2.4,0.8,2.8
	c0.5,0.3,2,0.6,4.5,0.7c2.9,0.1,4.8,0.5,5.6,1.1c0.8,0.6,1.2,2,1.2,4.1c0,2.3-0.5,3.8-1.4,4.5c-0.9,0.7-2.9,1-6.1,1
	c-2.7,0-4.5-0.3-5.4-1c-0.9-0.7-1.3-2.1-1.3-4.1l0-0.8h2.1v0.5c0,1.7,0.3,2.7,0.8,3.1c0.5,0.4,1.8,0.6,4,0.6c2.4,0,3.9-0.2,4.5-0.6
	c0.6-0.4,0.8-1.5,0.8-3.3c0-1.1-0.2-1.9-0.6-2.3c-0.4-0.4-1.2-0.6-2.4-0.7l-2.2-0.1l-2.1-0.1c-3.2-0.2-4.8-1.9-4.8-5
	c0-2.1,0.5-3.6,1.4-4.3c0.9-0.7,2.8-1.1,5.6-1.1c2.8,0,4.6,0.3,5.5,1C541.8,625.7,542.2,627.1,542.2,629.3z"/>
<path style="&st5;" d="M561.3,643v-18.8h8.7c2.7,0,4.5,0.6,5.5,1.8c1,1.2,1.4,3.5,1.4,6.8c0,4.1-0.4,6.8-1.3,8.2
	c-0.9,1.4-2.5,2.1-5.1,2.1H561.3L561.3,643z M563.4,641.2h6.1c2.2,0,3.7-0.5,4.4-1.4c0.7-0.9,1-2.9,1-6c0-3.4-0.3-5.6-0.8-6.5
	s-1.9-1.4-4.1-1.4h-6.6V641.2L563.4,641.2z M581.1,626v6.4h9.6v1.8h-9.6v7h10v1.8H579v-18.8h12.1v1.8H581.1L581.1,626z M606,624.2
	h2.3l-6.7,18.8h-3l-6.7-18.8h2.3l5,14.2l0.5,1.4c0.2,0.6,0.3,1,0.5,1.4h0.1c0.3-0.9,0.6-1.9,0.9-2.9L606,624.2L606,624.2z
	 M611.3,626v6.4h9.6v1.8h-9.6v7h10v1.8h-12.1v-18.8h12.1v1.8H611.3L611.3,626z M626.1,624.2V641h9.7v2H624v-18.8H626.1L626.1,624.2z
	 M644.6,624c3.6,0,5.8,0.5,6.7,1.6c0.9,1,1.3,3.6,1.3,7.8c0,4.5-0.4,7.2-1.3,8.3c-0.9,1-3.1,1.6-6.7,1.6c-3.6,0-5.9-0.5-6.7-1.6
	c-0.9-1-1.3-3.7-1.3-8v-1.3l0-1.8c0-2.5,0.6-4.2,1.7-5.1C639.4,624.5,641.5,624,644.6,624L644.6,624z M644.6,625.8
	c-3,0-4.7,0.3-5.2,1c-0.5,0.7-0.8,2.9-0.8,6.8c0,3.9,0.3,6.2,0.8,6.8c0.5,0.7,2.2,1,5.2,1c3,0,4.7-0.3,5.2-1
	c0.5-0.7,0.8-2.9,0.8-6.8v-1.2l0-1.8c0-2.1-0.3-3.4-1-4C648.8,626.1,647.1,625.8,644.6,625.8L644.6,625.8z M655,643v-18.8h7.9h0.7
	c2.1,0,3.6,0.4,4.3,1.2c0.8,0.8,1.2,2.3,1.2,4.6c0,2.2-0.4,3.6-1.2,4.4c-0.8,0.8-2.3,1.2-4.5,1.2l-0.8,0h-5.4v7.4H655L655,643z
	 M657.1,633.8h5c2.1,0,3.5-0.2,4-0.6c0.6-0.4,0.9-1.4,0.9-3c0-1.8-0.2-3-0.6-3.5c-0.4-0.5-1.4-0.7-2.8-0.7l-0.8,0h-5.7V633.8
	L657.1,633.8z M673,626v6.4h9.6v1.8H673v7h10v1.8h-12.1v-18.8H683v1.8H673L673,626z M685.7,643v-18.8h8.7c2.7,0,4.5,0.6,5.5,1.8
	c1,1.2,1.4,3.5,1.4,6.8c0,4.1-0.4,6.8-1.3,8.2c-0.9,1.4-2.5,2.1-5.1,2.1H685.7L685.7,643z M687.8,641.2h6.1c2.2,0,3.7-0.5,4.4-1.4
	c0.7-0.9,1-2.9,1-6c0-3.4-0.3-5.6-0.8-6.5c-0.6-0.9-1.9-1.4-4.1-1.4h-6.6V641.2L687.8,641.2z M731.9,639h-9.5l-1.4,4h-2.2l6.9-18.8
	h3l7,18.8h-2.2L731.9,639L731.9,639z M731.3,637.4l-4.2-11.5l-4.1,11.5H731.3L731.3,637.4z M753.6,624.2V643h-3.5l-7.9-12.8
	l-1.3-2.1l-0.6-1l-0.6-1h-0.1l0,0.7l0,0.7v1.4V643h-2.1v-18.8h3.5l6.9,11.2l1.8,2.9l0.9,1.5l0.9,1.5h0.1l0-0.7l0-0.7v-1.4v-14.3
	H753.6L753.6,624.2z M757.2,643v-18.8h8.7c2.7,0,4.5,0.6,5.5,1.8c1,1.2,1.4,3.5,1.4,6.8c0,4.1-0.4,6.8-1.3,8.2
	c-0.9,1.4-2.5,2.1-5.1,2.1H757.2L757.2,643z M759.3,641.2h6.1c2.2,0,3.7-0.5,4.4-1.4c0.7-0.9,1-2.9,1-6c0-3.4-0.3-5.6-0.8-6.5
	c-0.6-0.9-1.9-1.4-4.1-1.4h-6.6V641.2L759.3,641.2z M798.4,626.2V643h-2.1v-16.8h-6.1v-2h14.3v2H798.4L798.4,626.2z M807.8,626v6.4
	h9.6v1.8h-9.6v7h10v1.8h-12.1v-18.8h12.1v1.8H807.8L807.8,626z M833.4,629.3h-2.1c0-1.5-0.3-2.5-0.8-2.9c-0.5-0.4-1.7-0.6-3.6-0.6
	c-2.2,0-3.7,0.2-4.3,0.6c-0.6,0.4-1,1.3-1,2.6c0,1.5,0.3,2.4,0.8,2.8c0.5,0.3,2,0.6,4.5,0.7c2.9,0.1,4.8,0.5,5.6,1.1
	c0.8,0.6,1.2,2,1.2,4.1c0,2.3-0.5,3.8-1.4,4.5c-0.9,0.7-2.9,1-6.1,1c-2.7,0-4.5-0.3-5.4-1c-0.9-0.7-1.3-2.1-1.3-4.1l0-0.8h2.1v0.5
	c0,1.7,0.3,2.7,0.8,3.1s1.8,0.6,4,0.6c2.4,0,3.9-0.2,4.5-0.6c0.6-0.4,0.8-1.5,0.8-3.3c0-1.1-0.2-1.9-0.6-2.3
	c-0.4-0.4-1.2-0.6-2.4-0.7l-2.2-0.1l-2.1-0.1c-3.2-0.2-4.8-1.9-4.8-5c0-2.1,0.5-3.6,1.4-4.3c0.9-0.7,2.8-1.1,5.6-1.1
	c2.8,0,4.6,0.3,5.5,1C832.9,625.7,833.4,627.1,833.4,629.3L833.4,629.3z M842.8,626.2V643h-2.1v-16.8h-6.1v-2h14.3v2H842.8
	L842.8,626.2z M852.1,626v6.4h9.6v1.8h-9.6v7h10v1.8H850v-18.8h12.1v1.8H852.1L852.1,626z M864.8,643v-18.8h8.7
	c2.7,0,4.5,0.6,5.5,1.8c1,1.2,1.4,3.5,1.4,6.8c0,4.1-0.4,6.8-1.3,8.2c-0.9,1.4-2.5,2.1-5.1,2.1H864.8L864.8,643z M867,641.2h6.1
	c2.2,0,3.7-0.5,4.4-1.4s1-2.9,1-6c0-3.4-0.3-5.6-0.8-6.5s-1.9-1.4-4.1-1.4H867V641.2L867,641.2z M901.6,624.2V643h-2.1v-18.8H901.6
	L901.6,624.2z M921.3,624.2V643h-3.5l-7.9-12.8l-1.3-2.1l-0.6-1l-0.6-1h-0.1l0,0.7l0,0.7v1.4V643h-2.1v-18.8h3.5l6.9,11.2l1.8,2.9
	l0.9,1.5l0.9,1.5h0.1l0-0.7l0-0.7v-1.4v-14.3H921.3L921.3,624.2z M953.5,636.7h2.1v0.7c0,2.6-0.4,4.2-1.3,4.8c-0.9,0.6-3.1,1-6.6,1
	c-3.2,0-5.2-0.6-6-1.7c-0.9-1.1-1.3-3.8-1.3-7.9c0-3.3,0.1-5.3,0.3-6.2c0.2-0.8,0.7-1.6,1.7-2.3c1.1-0.8,3.4-1.2,6.9-1.2
	c2.4,0,4,0.4,4.8,1.1c0.8,0.7,1.2,2.2,1.2,4.3l0,0.5h-2.1l0-0.6c0-1.5-0.2-2.5-0.7-2.9c-0.5-0.4-1.6-0.6-3.3-0.6
	c-3,0-4.9,0.3-5.6,0.8c-0.7,0.5-1,1.9-1,4.2c0,5.3,0.2,8.4,0.7,9.3c0.4,0.9,2,1.4,4.6,1.4c2.5,0,4.1-0.2,4.7-0.6
	c0.6-0.4,0.9-1.4,0.9-3L953.5,636.7L953.5,636.7z M964.8,624c3.6,0,5.8,0.5,6.7,1.6c0.9,1,1.3,3.6,1.3,7.8c0,4.5-0.4,7.2-1.3,8.3
	c-0.9,1-3.1,1.6-6.7,1.6c-3.6,0-5.9-0.5-6.7-1.6c-0.9-1-1.3-3.7-1.3-8v-1.3l0-1.8c0-2.5,0.6-4.2,1.7-5.1
	C959.7,624.5,961.8,624,964.8,624L964.8,624z M964.8,625.8c-3,0-4.7,0.3-5.2,1c-0.5,0.7-0.8,2.9-0.8,6.8c0,3.9,0.3,6.2,0.8,6.8
	c0.5,0.7,2.2,1,5.2,1c3,0,4.7-0.3,5.2-1c0.5-0.7,0.8-2.9,0.8-6.8v-1.2l0-1.8c0-2.1-0.3-3.4-1-4C969.1,626.1,967.4,625.8,964.8,625.8
	L964.8,625.8z M991.4,624.2V643h-3.5l-7.9-12.8l-1.3-2.1l-0.6-1l-0.6-1h-0.1l0,0.7l0,0.7v1.4V643h-2.1v-18.8h3.5l6.9,11.2l1.8,2.9
	l0.9,1.5l0.9,1.5h0.1l0-0.7l0-0.7v-1.4v-14.3H991.4L991.4,624.2z M1005.5,624.2v13.3c0,2.2-0.4,3.7-1.2,4.5
	c-0.8,0.8-2.3,1.2-4.6,1.2c-2.2,0-3.8-0.3-4.6-1c-0.8-0.7-1.3-1.9-1.3-3.8c0-0.9,0-1.6,0-2.2h2.1v0.3v1.4c0,1.5,0.2,2.5,0.6,2.9
	c0.4,0.4,1.4,0.6,3.1,0.6c1.6,0,2.6-0.3,3.1-0.8c0.4-0.5,0.7-1.7,0.7-3.5v-12.9H1005.5L1005.5,624.2z M1021.9,624.2h2.1v13.2
	c0,2.4-0.5,4-1.4,4.7c-1,0.7-3,1.1-6,1.1c-2.9,0-4.8-0.4-5.9-1.1c-1-0.7-1.6-2.1-1.6-4.1v-0.6v-13.2h2.1v13.2c0,1.8,0.3,2.9,0.9,3.4
	c0.6,0.5,2,0.7,4.3,0.7c2.5,0,4-0.2,4.6-0.7c0.6-0.4,0.9-1.6,0.9-3.4V624.2L1021.9,624.2z M1043.7,624.2V643h-3.5l-7.9-12.8
	l-1.3-2.1l-0.6-1l-0.6-1h-0.1l0,0.7l0,0.7v1.4V643h-2.1v-18.8h3.5l6.9,11.2l1.8,2.9l0.9,1.5l0.9,1.5h0.1l0-0.7l0-0.7v-1.4v-14.3
	H1043.7L1043.7,624.2z M1059.6,636.7h2.1v0.7c0,2.6-0.4,4.2-1.3,4.8c-0.9,0.6-3.1,1-6.6,1c-3.2,0-5.2-0.6-6-1.7
	c-0.9-1.1-1.3-3.8-1.3-7.9c0-3.3,0.1-5.3,0.3-6.2c0.2-0.8,0.7-1.6,1.7-2.3c1.1-0.8,3.4-1.2,6.9-1.2c2.4,0,4,0.4,4.8,1.1
	c0.8,0.7,1.2,2.2,1.2,4.3l0,0.5h-2.1l0-0.6c0-1.5-0.2-2.5-0.7-2.9c-0.5-0.4-1.6-0.6-3.3-0.6c-3,0-4.9,0.3-5.6,0.8
	c-0.7,0.5-1,1.9-1,4.2c0,5.3,0.2,8.4,0.7,9.3c0.4,0.9,2,1.4,4.6,1.4c2.5,0,4.1-0.2,4.7-0.6c0.6-0.4,0.9-1.4,0.9-3L1059.6,636.7
	L1059.6,636.7z M1070.7,626.2V643h-2.1v-16.8h-6.1v-2h14.3v2H1070.7L1070.7,626.2z M1080.7,624.2V643h-2.1v-18.8H1080.7
	L1080.7,624.2z M1091.3,624c3.6,0,5.8,0.5,6.7,1.6c0.9,1,1.3,3.6,1.3,7.8c0,4.5-0.4,7.2-1.3,8.3c-0.9,1-3.1,1.6-6.7,1.6
	c-3.6,0-5.9-0.5-6.7-1.6c-0.9-1-1.3-3.7-1.3-8v-1.3l0-1.8c0-2.5,0.6-4.2,1.7-5.1C1086.1,624.5,1088.2,624,1091.3,624L1091.3,624z
	 M1091.2,625.8c-3,0-4.7,0.3-5.2,1c-0.5,0.7-0.8,2.9-0.8,6.8c0,3.9,0.3,6.2,0.8,6.8c0.5,0.7,2.2,1,5.2,1c3,0,4.7-0.3,5.2-1
	c0.5-0.7,0.8-2.9,0.8-6.8v-1.2l0-1.8c0-2.1-0.3-3.4-1-4C1095.5,626.1,1093.8,625.8,1091.2,625.8L1091.2,625.8z M1117.8,624.2V643
	h-3.5l-7.9-12.8l-1.3-2.1l-0.6-1l-0.6-1h-0.1l0,0.7l0,0.7v1.4V643h-2.1v-18.8h3.5l6.9,11.2l1.8,2.9l0.9,1.5l0.9,1.5h0.1l0-0.7l0-0.7
	v-1.4v-14.3H1117.8L1117.8,624.2z M1163.9,624.2L1158,643h-3.2l-4-13.5l-0.5-1.7c0-0.1-0.1-0.4-0.2-0.8l-0.3-0.9h0l-0.2,0.9
	l-0.3,0.9l-0.5,1.7l-4,13.5h-3.2l-5.8-18.8h2.2l4,13.5l0.6,1.8c0,0.1,0.1,0.4,0.3,0.9l0.3,0.9h0l0.3-0.9l0.3-0.9l0.5-1.8l4-13.5h3.1
	l4,13.5l0.5,1.8l0.2,0.9l0.3,0.9h0l0.3-0.9l0.3-0.9l0.6-1.8l4.1-13.5H1163.9L1163.9,624.2z M1167.9,624.2V643h-2.1v-18.8H1167.9
	L1167.9,624.2z M1178.1,626.2V643h-2.1v-16.8h-6.1v-2h14.3v2H1178.1L1178.1,626.2z M1201.3,624.2V643h-2.1v-8.7h-11v8.7h-2.1v-18.8
	h2.1v8.3h11v-8.3H1201.3L1201.3,624.2z M1221.1,643v-18.8h9c2,0,3.4,0.4,4.3,1.2c0.8,0.8,1.2,2.2,1.2,4.2c0,1.7-0.2,2.9-0.7,3.6
	c-0.4,0.7-1.3,1.1-2.6,1.3v0c2,0.1,3,1.4,3,3.6v4.8h-2.1v-4.3c0-2.2-1-3.3-2.9-3.3h-0.7h-6.4v7.6H1221.1L1221.1,643z M1223.2,633.6
	h6.1c1.6,0,2.7-0.2,3.3-0.7c0.6-0.5,0.9-1.4,0.9-2.8c0-1.7-0.2-2.8-0.7-3.3c-0.4-0.5-1.4-0.8-2.8-0.8h-6.9V633.6L1223.2,633.6z
	 M1245.5,624c3.6,0,5.8,0.5,6.7,1.6c0.9,1,1.3,3.6,1.3,7.8c0,4.5-0.4,7.2-1.3,8.3c-0.9,1-3.1,1.6-6.7,1.6c-3.6,0-5.9-0.5-6.7-1.6
	c-0.9-1-1.3-3.7-1.3-8v-1.3l0-1.8c0-2.5,0.6-4.2,1.7-5.1C1240.3,624.5,1242.5,624,1245.5,624L1245.5,624z M1245.5,625.8
	c-3,0-4.7,0.3-5.2,1c-0.5,0.7-0.8,2.9-0.8,6.8c0,3.9,0.3,6.2,0.8,6.8c0.5,0.7,2.2,1,5.2,1c3,0,4.7-0.3,5.2-1
	c0.5-0.7,0.8-2.9,0.8-6.8v-1.2l0-1.8c0-2.1-0.3-3.4-1-4C1249.7,626.1,1248.1,625.8,1245.5,625.8L1245.5,625.8z M1256,643v-18.8h8.7
	c2.7,0,4.5,0.6,5.5,1.8c1,1.2,1.4,3.5,1.4,6.8c0,4.1-0.4,6.8-1.3,8.2c-0.9,1.4-2.5,2.1-5.1,2.1H1256L1256,643z M1258.1,641.2h6.1
	c2.3,0,3.7-0.5,4.4-1.4c0.7-0.9,1-2.9,1-6c0-3.4-0.3-5.6-0.8-6.5c-0.6-0.9-1.9-1.4-4.1-1.4h-6.6V641.2L1258.1,641.2z M265.8,653
	v18.8h-2.1v-15.1v-1.1l0-0.6l0-0.6h-0.1l-0.2,0.4c-0.1,0.2-0.1,0.4-0.2,0.4l-0.4,0.9l-6.4,15.6h-2.1l-6.4-15.4l-0.4-0.9l-0.2-0.4
	c0-0.1-0.1-0.2-0.2-0.4h-0.1l0,0.5l0,0.5v1v15.1h-2.1V653h3.7l5,12.2l0.8,2l0.4,1l0.4,1h0.1l0.4-1c0.2-0.5,0.3-0.8,0.4-1l0.8-2
	l5-12.2H265.8L265.8,653z M280.9,667.9h-9.5l-1.4,4h-2.2l6.9-18.8h3l7,18.8h-2.2L280.9,667.9L280.9,667.9z M280.3,666.3l-4.2-11.5
	l-4.1,11.5H280.3L280.3,666.3z M298.9,665.6h2.1v0.7c0,2.6-0.4,4.2-1.3,4.8c-0.9,0.6-3.1,1-6.6,1c-3.2,0-5.2-0.6-6-1.7
	c-0.9-1.1-1.3-3.8-1.3-7.9c0-3.3,0.1-5.3,0.3-6.2c0.2-0.8,0.7-1.6,1.7-2.3c1.1-0.8,3.4-1.2,6.9-1.2c2.4,0,4,0.4,4.8,1.1
	c0.8,0.7,1.2,2.2,1.2,4.3l0,0.5h-2.1l0-0.6c0-1.5-0.2-2.5-0.7-2.9c-0.5-0.4-1.6-0.6-3.3-0.6c-3,0-4.9,0.3-5.6,0.8
	c-0.7,0.5-1,1.9-1,4.2c0,5.3,0.2,8.4,0.7,9.3c0.4,0.9,2,1.4,4.6,1.4c2.5,0,4.1-0.2,4.7-0.6c0.6-0.4,0.9-1.4,0.9-3L298.9,665.6
	L298.9,665.6z M305.5,653v8.2h1.9l7.7-8.2h2.7l-8.6,9.1l9.6,9.7H316l-8.6-8.8h-1.9v8.8h-2.1V653H305.5L305.5,653z M321.8,654.8v6.4
	h9.6v1.8h-9.6v7h10v1.8h-12.1V653h12.1v1.8H321.8L321.8,654.8z M350.6,653v18.8h-3.5l-7.9-12.8l-1.3-2.1l-0.6-1l-0.6-1h-0.1l0,0.7
	l0,0.7v1.4v14.2h-2.1V653h3.5l6.9,11.2l1.8,3l0.9,1.5l0.9,1.5h0.1l0-0.7l0-0.7v-1.4V653H350.6L350.6,653z M367.4,653v1.8L355.6,670
	v0h12.1v1.8H353V670l11.8-15.1v0h-11.5V653H367.4L367.4,653z M372.3,653v18.8h-2.1V653H372.3L372.3,653z M377.3,654.8v6.4h9.6v1.8
	h-9.6v7h10v1.8h-12.1V653h12.1v1.8H377.3L377.3,654.8z M403.2,654.8v6.6h9.2v1.8h-9.2v8.7h-2.1V653h11.5v1.8H403.2L403.2,654.8z
	 M414.9,671.8V653h9c2,0,3.4,0.4,4.3,1.2c0.8,0.8,1.2,2.2,1.2,4.2c0,1.7-0.2,2.9-0.7,3.6c-0.4,0.7-1.3,1.1-2.6,1.3v0
	c2,0.1,3,1.4,3,3.6v4.8h-2.1v-4.3c0-2.2-1-3.3-2.9-3.3h-0.7H417v7.6H414.9L414.9,671.8z M417,662.4h6.1c1.6,0,2.7-0.2,3.3-0.7
	c0.6-0.5,0.9-1.4,0.9-2.8c0-1.7-0.2-2.8-0.7-3.3c-0.4-0.5-1.4-0.8-2.8-0.8H417V662.4L417,662.4z M439.3,652.8c3.6,0,5.8,0.5,6.7,1.6
	c0.9,1,1.3,3.6,1.3,7.8c0,4.5-0.4,7.2-1.3,8.3c-0.9,1-3.1,1.6-6.7,1.6c-3.6,0-5.9-0.5-6.7-1.6c-0.9-1-1.3-3.7-1.3-8.1v-1.3l0-1.8
	c0-2.5,0.6-4.2,1.7-5.1C434.1,653.3,436.2,652.8,439.3,652.8L439.3,652.8z M439.3,654.6c-3,0-4.7,0.3-5.2,1
	c-0.5,0.7-0.8,2.9-0.8,6.8c0,3.9,0.3,6.2,0.8,6.8s2.2,1,5.2,1c3,0,4.7-0.3,5.2-1s0.8-2.9,0.8-6.8v-1.2l0-1.8c0-2.1-0.3-3.4-1-4
	C443.5,654.9,441.9,654.6,439.3,654.6L439.3,654.6z M470.4,653v18.8h-2.1v-15.1v-1.1l0-0.6l0-0.6h-0.1l-0.2,0.4
	c-0.1,0.2-0.1,0.4-0.2,0.4l-0.4,0.9l-6.4,15.6H459l-6.4-15.4l-0.4-0.9l-0.2-0.4c0-0.1-0.1-0.2-0.2-0.4h-0.1l0,0.5l0,0.5v1v15.1h-2.1
	V653h3.7l5,12.2l0.8,2l0.4,1l0.4,1h0.1l0.4-1c0.2-0.5,0.3-0.8,0.4-1l0.8-2l5-12.2H470.4L470.4,653z M497.4,665.6h2.1v0.7
	c0,2.6-0.4,4.2-1.3,4.8c-0.9,0.6-3.1,1-6.6,1c-3.2,0-5.2-0.6-6-1.7c-0.9-1.1-1.3-3.8-1.3-7.9c0-3.3,0.1-5.3,0.3-6.2
	c0.2-0.8,0.7-1.6,1.7-2.3c1.1-0.8,3.4-1.2,6.9-1.2c2.4,0,4,0.4,4.8,1.1c0.8,0.7,1.2,2.2,1.2,4.3l0,0.5h-2.1l0-0.6
	c0-1.5-0.2-2.5-0.7-2.9c-0.5-0.4-1.6-0.6-3.3-0.6c-3,0-4.9,0.3-5.6,0.8c-0.7,0.5-1,1.9-1,4.2c0,5.3,0.2,8.4,0.7,9.3
	c0.4,0.9,2,1.4,4.6,1.4c2.5,0,4.1-0.2,4.7-0.6c0.6-0.4,0.9-1.4,0.9-3L497.4,665.6L497.4,665.6z M508.8,652.8c3.6,0,5.8,0.5,6.7,1.6
	c0.9,1,1.3,3.6,1.3,7.8c0,4.5-0.4,7.2-1.3,8.3c-0.9,1-3.1,1.6-6.7,1.6c-3.6,0-5.9-0.5-6.7-1.6c-0.9-1-1.3-3.7-1.3-8.1v-1.3l0-1.8
	c0-2.5,0.6-4.2,1.7-5.1C503.6,653.3,505.7,652.8,508.8,652.8L508.8,652.8z M508.8,654.6c-3,0-4.7,0.3-5.2,1
	c-0.5,0.7-0.8,2.9-0.8,6.8c0,3.9,0.3,6.2,0.8,6.8c0.5,0.7,2.2,1,5.2,1c3,0,4.7-0.3,5.2-1c0.5-0.7,0.8-2.9,0.8-6.8v-1.2l0-1.8
	c0-2.1-0.3-3.4-1-4C513,654.9,511.4,654.6,508.8,654.6L508.8,654.6z M519.2,671.8V653h8.7c2.7,0,4.5,0.6,5.5,1.8
	c1,1.2,1.4,3.5,1.4,6.8c0,4.1-0.4,6.8-1.3,8.2c-0.9,1.4-2.5,2.1-5.1,2.1H519.2L519.2,671.8z M521.4,670h6.1c2.2,0,3.7-0.5,4.4-1.4
	c0.7-0.9,1-2.9,1-6c0-3.4-0.3-5.6-0.8-6.5c-0.6-0.9-1.9-1.4-4.1-1.4h-6.6V670L521.4,670z M558.3,653v18.8h-2.1v-15.1v-1.1l0-0.6
	l0-0.6h-0.1L556,655c-0.1,0.2-0.1,0.4-0.2,0.4l-0.4,0.9l-6.4,15.6H547l-6.4-15.4l-0.4-0.9l-0.2-0.4c0-0.1-0.1-0.2-0.2-0.4h-0.1
	l0,0.5l0,0.5v1v15.1h-2.1V653h3.7l5,12.2l0.8,2l0.4,1l0.4,1h0.1l0.4-1c0.2-0.5,0.3-0.8,0.4-1l0.8-2l5-12.2H558.3L558.3,653z
	 M573.5,667.9h-9.5l-1.4,4h-2.2l6.9-18.8h3l7,18.8h-2.2L573.5,667.9L573.5,667.9z M572.8,666.3l-4.2-11.5l-4.1,11.5H572.8
	L572.8,666.3z M591.4,665.6h2.1v0.7c0,2.6-0.4,4.2-1.3,4.8c-0.9,0.6-3.1,1-6.6,1c-3.2,0-5.2-0.6-6-1.7c-0.9-1.1-1.3-3.8-1.3-7.9
	c0-3.3,0.1-5.3,0.3-6.2c0.2-0.8,0.7-1.6,1.7-2.3c1.1-0.8,3.4-1.2,6.9-1.2c2.4,0,4,0.4,4.8,1.1c0.8,0.7,1.2,2.2,1.2,4.3l0,0.5h-2.1
	l0-0.6c0-1.5-0.2-2.5-0.7-2.9c-0.5-0.4-1.6-0.6-3.3-0.6c-3,0-4.9,0.3-5.6,0.8c-0.7,0.5-1,1.9-1,4.2c0,5.3,0.2,8.4,0.7,9.3
	c0.4,0.9,2,1.4,4.6,1.4c2.5,0,4.1-0.2,4.7-0.6c0.6-0.4,0.9-1.4,0.9-3L591.4,665.6L591.4,665.6z M597.9,669.3v2.5h-2.1v-2.5H597.9
	L597.9,669.3z M630.2,655v16.8h-2.1V655H622v-2h14.3v2H630.2L630.2,655z M653.4,653v18.8h-2.1v-8.7h-11v8.7h-2.1V653h2.1v8.3h11V653
	H653.4L653.4,653z M658.4,654.8v6.4h9.6v1.8h-9.6v7h10v1.8h-12.1V653h12.1v1.8H658.4L658.4,654.8z M685.3,653l-7.1,11v7.9h-2.1V664
	l-6.9-11h2.5l4,6.4l0.8,1.2c0.1,0.1,0.2,0.3,0.4,0.6l0.4,0.6h0.1c0.2-0.3,0.3-0.5,0.4-0.6l0.4-0.6l0.8-1.2l4-6.4H685.3L685.3,653z
	 M709.6,667.9h-9.5l-1.4,4h-2.2l6.9-18.8h3l7,18.8h-2.2L709.6,667.9L709.6,667.9z M709,666.3l-4.2-11.5l-4.1,11.5H709L709,666.3z
	 M715.2,671.8V653h9c2,0,3.4,0.4,4.3,1.2c0.8,0.8,1.2,2.2,1.2,4.2c0,1.7-0.2,2.9-0.7,3.6c-0.4,0.7-1.3,1.1-2.6,1.3v0
	c2,0.1,3,1.4,3,3.6v4.8h-2.1v-4.3c0-2.2-1-3.3-2.9-3.3h-0.7h-6.4v7.6H715.2L715.2,671.8z M717.3,662.4h6.1c1.6,0,2.7-0.2,3.3-0.7
	c0.6-0.5,0.9-1.4,0.9-2.8c0-1.7-0.2-2.8-0.7-3.3c-0.4-0.5-1.4-0.8-2.8-0.8h-6.9V662.4L717.3,662.4z M734.2,654.8v6.4h9.6v1.8h-9.6v7
	h10v1.8h-12.1V653h12.1v1.8H734.2L734.2,654.8z M769.5,667.9H760l-1.4,4h-2.2l6.9-18.8h3l7,18.8H771L769.5,667.9L769.5,667.9z
	 M768.9,666.3l-4.2-11.5l-4.1,11.5H768.9L768.9,666.3z M787.4,653l-4.9,14.2c-0.3,1-0.6,1.9-0.9,2.9h-0.1c-0.1-0.4-0.3-0.9-0.5-1.4
	l-0.5-1.4l-5-14.2h-2.3l6.7,18.8h3l6.7-18.8H787.4L787.4,653z M802.9,667.9h-9.5l-1.4,4h-2.3l6.9-18.8h3l7,18.8h-2.2L802.9,667.9
	L802.9,667.9z M802.2,666.3l-4.2-11.5l-4.1,11.5H802.2L802.2,666.3z M810.6,653v18.8h-2.1V653H810.6L810.6,653z M816.3,653v16.8h9.7
	v2h-11.8V653H816.3L816.3,653z M839.5,667.9h-9.5l-1.4,4h-2.2l6.9-18.8h3l7,18.8h-2.2L839.5,667.9L839.5,667.9z M838.9,666.3
	l-4.2-11.5l-4.1,11.5H838.9L838.9,666.3z M845.1,671.8V653h8.3c2.3,0,3.8,0.3,4.5,0.9c0.7,0.6,1.1,2,1.1,4c0,2.1-0.8,3.4-2.4,4v0
	c2,0.5,3,2,3,4.4c0,2-0.4,3.4-1.2,4.2c-0.8,0.8-2.1,1.2-4.1,1.2H845.1L845.1,671.8z M847.2,661.3h5.6c1.8,0,2.9-0.2,3.4-0.6
	c0.5-0.4,0.8-1.4,0.8-2.8c0-1.3-0.2-2.1-0.7-2.5c-0.4-0.4-1.4-0.6-2.9-0.6h-6.2V661.3L847.2,661.3z M847.2,670h4.5l1.9,0
	c1.6,0,2.7-0.2,3.2-0.6c0.5-0.4,0.8-1.3,0.8-2.7c0-1.7-0.3-2.7-0.8-3.1c-0.5-0.4-1.9-0.6-4.1-0.6h-5.5V670L847.2,670z M864.6,653
	v16.8h9.7v2h-11.8V653H864.6L864.6,653z M877.6,654.8v6.4h9.6v1.8h-9.6v7h10v1.8h-12.1V653h12.1v1.8H877.6L877.6,654.8z M903.5,653
	v18.8h-2.1V653H903.5L903.5,653z M923.2,653v18.8h-3.5l-7.9-12.8l-1.3-2.1l-0.6-1l-0.6-1h-0.1l0,0.7l0,0.7v1.4v14.2h-2.1V653h3.5
	l6.9,11.2l1.8,3l0.9,1.5l0.9,1.5h0.1l0-0.7l0-0.7v-1.4V653H923.2L923.2,653z M937.9,671.8V653h8.3c2.3,0,3.8,0.3,4.5,0.9
	c0.7,0.6,1.1,2,1.1,4c0,2.1-0.8,3.4-2.4,4v0c2,0.5,3,2,3,4.4c0,2-0.4,3.4-1.2,4.2c-0.8,0.8-2.2,1.2-4.1,1.2H937.9L937.9,671.8z
	 M940,661.3h5.6c1.8,0,2.9-0.2,3.4-0.6c0.5-0.4,0.8-1.4,0.8-2.8c0-1.3-0.2-2.1-0.7-2.5c-0.4-0.4-1.4-0.6-2.9-0.6H940V661.3
	L940,661.3z M940,670h4.5l1.9,0c1.6,0,2.7-0.2,3.2-0.6c0.5-0.4,0.8-1.3,0.8-2.7c0-1.7-0.3-2.7-0.8-3.1c-0.5-0.4-1.9-0.6-4.1-0.6H940
	V670L940,670z M962.2,652.8c3.6,0,5.8,0.5,6.7,1.6c0.9,1,1.3,3.6,1.3,7.8c0,4.5-0.4,7.2-1.3,8.3c-0.9,1-3.1,1.6-6.7,1.6
	c-3.6,0-5.9-0.5-6.7-1.6c-0.9-1-1.3-3.7-1.3-8.1v-1.3l0-1.8c0-2.5,0.6-4.2,1.7-5.1C957,653.3,959.1,652.8,962.2,652.8L962.2,652.8z
	 M962.2,654.6c-3,0-4.7,0.3-5.2,1c-0.5,0.7-0.8,2.9-0.8,6.8c0,3.9,0.3,6.2,0.8,6.8c0.5,0.7,2.2,1,5.2,1c3,0,4.7-0.3,5.2-1
	c0.5-0.7,0.8-2.9,0.8-6.8v-1.2l0-1.8c0-2.1-0.3-3.4-1-4C966.4,654.9,964.8,654.6,962.2,654.6L962.2,654.6z M979.2,655v16.8h-2.1V655
	h-6.1v-2h14.3v2H979.2L979.2,655z M1002.4,653v18.8h-2.1v-8.7h-11v8.7h-2.1V653h2.1v8.3h11V653H1002.4L1002.4,653z M1026.4,653v18.8
	h-2.1v-17.2l-4.8,5.3l-1.3-1.3l5.2-5.7H1026.4L1026.4,653z M1047.7,670v1.8h-13.6v-3.5c0-2,0.4-3.3,1.2-3.9c0.8-0.6,2.6-1.1,5.5-1.4
	c2.3-0.3,3.7-0.6,4.2-1c0.5-0.4,0.7-1.6,0.7-3.4c0-1.6-0.3-2.7-0.8-3.1c-0.5-0.5-1.7-0.7-3.5-0.7c-2.3,0-3.7,0.2-4.3,0.6
	c-0.6,0.4-0.9,1.3-0.9,2.8l0,1.4h-2.1l0-1c0-2.2,0.5-3.8,1.4-4.5c1-0.7,2.9-1.1,5.7-1.1c2.5,0,4.2,0.4,5.1,1.2
	c0.9,0.8,1.3,2.4,1.3,4.7c0,2.2-0.4,3.8-1.2,4.5c-0.8,0.8-2.6,1.3-5.3,1.5c-2.4,0.2-3.8,0.6-4.3,1c-0.5,0.4-0.7,1.6-0.7,3.6v0.6
	H1047.7L1047.7,670z M1058.6,652.8c3.5,0,5.6,0.5,6.3,1.4c0.7,0.9,1.1,3.7,1.1,8.2c0,4.3-0.3,6.9-1,7.9c-0.9,1.2-3,1.8-6.4,1.8
	c-3.4,0-5.5-0.6-6.4-1.8c-0.7-0.9-1-3.8-1-8.5c0-4.1,0.4-6.6,1.1-7.6C1053.1,653.3,1055.2,652.8,1058.6,652.8L1058.6,652.8z
	 M1058.6,654.6c-2.6,0-4.2,0.3-4.7,1c-0.5,0.7-0.7,2.9-0.7,6.8c0,3.8,0.2,6.1,0.7,6.8c0.5,0.7,2,1,4.7,1c2.6,0,4.2-0.3,4.6-1
	c0.5-0.7,0.7-2.9,0.7-6.8c0-3.8-0.2-6.1-0.7-6.8C1062.8,655,1061.2,654.6,1058.6,654.6L1058.6,654.6z M1068.9,658.7h1.9l0,2l0,0
	c0.7-1.5,2.2-2.2,4.3-2.2c2.2,0,3.6,0.7,4.1,2.2h0.1c0.8-1.5,2.3-2.2,4.5-2.2c3.1,0,4.7,1.6,4.7,4.8v8.6h-1.9V663
	c0-1.2-0.2-1.9-0.6-2.4c-0.4-0.4-1.2-0.6-2.3-0.6c-1.5,0-2.6,0.3-3.1,0.9c-0.5,0.6-0.8,1.7-0.8,3.3v7.6h-1.9v-8.6l0-0.6
	c0-1.7-1-2.5-2.9-2.5c-2.6,0-3.9,1.4-3.9,4.3v7.5h-1.9V658.7L1068.9,658.7z M1092.2,658.7h1.9l0,2l0,0c0.7-1.5,2.2-2.2,4.3-2.2
	c2.2,0,3.6,0.7,4.1,2.2h0.1c0.8-1.5,2.3-2.2,4.5-2.2c3.1,0,4.7,1.6,4.7,4.8v8.6h-1.9V663c0-1.2-0.2-1.9-0.6-2.4
	c-0.4-0.4-1.2-0.6-2.3-0.6c-1.5,0-2.6,0.3-3.1,0.9c-0.5,0.6-0.8,1.7-0.8,3.3v7.6h-1.9v-8.6l0-0.6c0-1.7-1-2.5-2.9-2.5
	c-2.6,0-3.9,1.4-3.9,4.3v7.5h-1.9V658.7L1092.2,658.7z M1138.3,667.9h-9.5l-1.4,4h-2.2l6.9-18.8h3l7,18.8h-2.2L1138.3,667.9
	L1138.3,667.9z M1137.7,666.3l-4.2-11.5l-4.1,11.5H1137.7L1137.7,666.3z M1160,653v18.8h-3.5l-7.9-12.8l-1.3-2.1l-0.6-1l-0.6-1h-0.1
	l0,0.7l0,0.7v1.4v14.2h-2.1V653h3.5l6.9,11.2l1.8,3l0.9,1.5l0.9,1.5h0.1l0-0.7l0-0.7v-1.4V653H1160L1160,653z M1163.6,671.8V653h8.7
	c2.7,0,4.5,0.6,5.5,1.8c1,1.2,1.4,3.5,1.4,6.8c0,4.1-0.4,6.8-1.3,8.2c-0.9,1.4-2.5,2.1-5.1,2.1H1163.6L1163.6,671.8z M1165.7,670
	h6.1c2.2,0,3.7-0.5,4.4-1.4c0.7-0.9,1-2.9,1-6c0-3.4-0.3-5.6-0.8-6.5c-0.6-0.9-1.9-1.4-4.1-1.4h-6.6V670L1165.7,670z M1192.8,667h2
	l0,0.6c0,1.2,0.3,1.9,0.8,2.2c0.6,0.3,1.9,0.5,3.9,0.5c2.4,0,3.8-0.2,4.3-0.7c0.5-0.5,0.8-1.8,0.8-3.9v-2.8h0
	c-0.7,1.1-2.6,1.7-5.6,1.7c-2.4,0-4-0.4-4.8-1.1c-0.8-0.8-1.2-2.2-1.2-4.4c0-2.5,0.4-4.2,1.3-5c0.9-0.8,2.7-1.2,5.5-1.2
	c2.9,0,4.8,0.4,5.7,1.2c0.9,0.8,1.4,2.5,1.4,5l0.1,5.1l0,1.9c0,2.4-0.5,4-1.4,4.8s-2.8,1.2-5.6,1.2c-2.8,0-4.7-0.3-5.6-0.9
	c-1-0.6-1.5-1.7-1.5-3.3C1192.7,667.7,1192.8,667.4,1192.8,667L1192.8,667z M1199.5,654.6c-2,0-3.3,0.2-3.8,0.7
	c-0.5,0.4-0.8,1.6-0.8,3.4c0,1.8,0.2,2.9,0.7,3.4c0.5,0.5,1.7,0.7,3.6,0.7c2.4,0,3.9-0.2,4.5-0.6c0.6-0.4,0.9-1.4,0.9-2.9
	c0-2.1-0.3-3.4-0.8-3.9C1203.3,654.9,1201.9,654.6,1199.5,654.6L1199.5,654.6z M1217.3,652.8c3.5,0,5.6,0.5,6.3,1.4
	c0.7,0.9,1.1,3.7,1.1,8.2c0,4.3-0.3,6.9-1,7.9c-0.9,1.2-3,1.8-6.4,1.8c-3.4,0-5.5-0.6-6.4-1.8c-0.7-0.9-1-3.8-1-8.5
	c0-4.1,0.4-6.6,1.1-7.6C1211.8,653.3,1213.9,652.8,1217.3,652.8L1217.3,652.8z M1217.3,654.6c-2.6,0-4.2,0.3-4.7,1
	c-0.5,0.7-0.7,2.9-0.7,6.8c0,3.8,0.2,6.1,0.7,6.8c0.5,0.7,2,1,4.7,1c2.6,0,4.2-0.3,4.6-1c0.5-0.7,0.7-2.9,0.7-6.8
	c0-3.8-0.2-6.1-0.7-6.8C1221.5,655,1220,654.6,1217.3,654.6z"/>
<path style="&st5;" d="M1227.7,658.7h1.9l0,2l0,0c0.7-1.5,2.2-2.2,4.3-2.2c2.2,0,3.6,0.7,4.1,2.2h0.1c0.8-1.5,2.3-2.2,4.5-2.2
	c3.1,0,4.7,1.6,4.7,4.8v8.6h-1.9V663c0-1.2-0.2-1.9-0.6-2.4c-0.4-0.4-1.2-0.6-2.3-0.6c-1.5,0-2.6,0.3-3.1,0.9
	c-0.5,0.6-0.8,1.7-0.8,3.3v7.6h-1.9v-8.6l0-0.6c0-1.7-1-2.5-2.9-2.5c-2.6,0-3.9,1.4-3.9,4.3v7.5h-1.9V658.7L1227.7,658.7z
	 M1251,658.7h1.9l0,2l0,0c0.7-1.5,2.2-2.2,4.3-2.2c2.2,0,3.6,0.7,4.1,2.2h0.1c0.8-1.5,2.3-2.2,4.5-2.2c3.1,0,4.7,1.6,4.7,4.8v8.6
	h-1.9V663c0-1.2-0.2-1.9-0.6-2.4c-0.4-0.4-1.2-0.6-2.3-0.6c-1.5,0-2.6,0.3-3.1,0.9c-0.5,0.6-0.8,1.7-0.8,3.3v7.6h-1.9v-8.6l0-0.6
	c0-1.7-1-2.5-2.9-2.5c-2.6,0-3.9,1.4-3.9,4.3v7.5h-1.9V658.7L1251,658.7z M265.8,681.9v18.8h-2.1v-15v-1.1l0-0.6l0-0.6h-0.1
	l-0.2,0.4c-0.1,0.2-0.1,0.4-0.2,0.4l-0.4,0.9l-6.4,15.6h-2.1l-6.4-15.4l-0.4-0.9l-0.2-0.4c0-0.1-0.1-0.2-0.2-0.4h-0.1l0,0.5l0,0.5v1
	v15h-2.1v-18.8h3.7l5,12.2l0.8,2l0.4,1l0.4,1h0.1l0.4-1c0.2-0.5,0.3-0.8,0.4-1l0.8-2l5-12.2H265.8L265.8,681.9z M276.3,681.7
	c3.6,0,5.8,0.5,6.7,1.6c0.9,1,1.3,3.6,1.3,7.8c0,4.5-0.4,7.2-1.3,8.3c-0.9,1-3.1,1.6-6.7,1.6c-3.6,0-5.9-0.5-6.7-1.6
	c-0.9-1-1.3-3.7-1.3-8.1v-1.3l0-1.8c0-2.5,0.6-4.2,1.7-5.1C271.1,682.1,273.2,681.7,276.3,681.7L276.3,681.7z M276.2,683.5
	c-3,0-4.7,0.3-5.2,1c-0.5,0.7-0.8,2.9-0.8,6.8c0,3.9,0.3,6.2,0.8,6.8c0.5,0.7,2.2,1,5.2,1c3,0,4.7-0.3,5.2-1
	c0.5-0.7,0.8-2.9,0.8-6.8V690l0-1.8c0-2.1-0.3-3.4-1-4C280.5,683.7,278.8,683.5,276.2,683.5L276.2,683.5z M286.7,700.7v-18.8h8.7
	c2.7,0,4.5,0.6,5.5,1.8c1,1.2,1.4,3.5,1.4,6.8c0,4.1-0.4,6.8-1.3,8.2c-0.9,1.4-2.5,2.1-5.1,2.1H286.7L286.7,700.7z M288.8,698.9h6.1
	c2.2,0,3.7-0.5,4.4-1.3c0.7-0.9,1-2.9,1-6c0-3.4-0.3-5.6-0.8-6.5c-0.6-0.9-1.9-1.4-4.1-1.4h-6.6V698.9L288.8,698.9z M306.5,683.7
	v6.4h9.6v1.8h-9.6v7h10v1.8h-12.1v-18.8h12.1v1.8H306.5L306.5,683.7z M321.3,681.9v16.8h9.7v2h-11.8v-18.8H321.3L321.3,681.9z
	 M345.8,687h-2.1c0-1.5-0.3-2.5-0.8-2.9c-0.5-0.4-1.7-0.6-3.6-0.6c-2.2,0-3.7,0.2-4.3,0.6c-0.6,0.4-1,1.3-1,2.6
	c0,1.5,0.3,2.4,0.8,2.8c0.5,0.3,2,0.6,4.5,0.7c2.9,0.1,4.8,0.5,5.6,1.1c0.8,0.6,1.2,2,1.2,4.1c0,2.3-0.5,3.8-1.4,4.5
	c-0.9,0.7-2.9,1-6.1,1c-2.7,0-4.5-0.3-5.4-1c-0.9-0.7-1.3-2.1-1.3-4.1l0-0.8h2.1v0.5c0,1.7,0.3,2.7,0.8,3.1c0.5,0.4,1.8,0.6,4,0.6
	c2.4,0,3.9-0.2,4.5-0.6c0.6-0.4,0.8-1.5,0.8-3.3c0-1.1-0.2-1.9-0.6-2.3c-0.4-0.4-1.2-0.6-2.4-0.7l-2.2-0.1l-2.1-0.1
	c-3.2-0.2-4.8-1.9-4.8-5c0-2.1,0.5-3.6,1.4-4.3c0.9-0.7,2.8-1.1,5.6-1.1c2.8,0,4.6,0.3,5.5,1C345.4,683.3,345.8,684.8,345.8,687
	L345.8,687z M367.3,696.7h-9.5l-1.4,4h-2.2l6.9-18.8h3l7,18.8h-2.2L367.3,696.7L367.3,696.7z M366.7,695.1l-4.2-11.5l-4.1,11.5
	H366.7L366.7,695.1z M389,681.9v18.8h-3.5l-7.9-12.8l-1.3-2.1l-0.6-1l-0.6-1H375l0,0.7l0,0.7v1.4v14.2h-2.1v-18.8h3.5l6.9,11.2
	l1.8,2.9l0.9,1.5l0.9,1.5h0.1l0-0.7l0-0.7v-1.4v-14.3H389L389,681.9z M392.6,700.7v-18.8h8.7c2.7,0,4.5,0.6,5.5,1.8
	c1,1.2,1.4,3.5,1.4,6.8c0,4.1-0.4,6.8-1.3,8.2c-0.9,1.4-2.5,2.1-5.1,2.1H392.6L392.6,700.7z M394.7,698.9h6.1c2.2,0,3.7-0.5,4.4-1.3
	c0.7-0.9,1-2.9,1-6c0-3.4-0.3-5.6-0.8-6.5s-1.9-1.4-4.1-1.4h-6.6V698.9L394.7,698.9z M429.6,696.7h-9.5l-1.4,4h-2.2l6.9-18.8h3
	l7,18.8h-2.2L429.6,696.7L429.6,696.7z M429,695.1l-4.2-11.5l-4.1,11.5H429L429,695.1z M435.2,700.7v-18.8h9c2,0,3.4,0.4,4.3,1.2
	c0.8,0.8,1.2,2.2,1.2,4.2c0,1.7-0.2,2.9-0.7,3.6c-0.4,0.7-1.3,1.1-2.6,1.3v0c2,0.1,3,1.4,3,3.6v4.8h-2.1v-4.3c0-2.2-1-3.3-2.9-3.3
	h-0.7h-6.4v7.6H435.2L435.2,700.7z M437.4,691.3h6.1c1.6,0,2.7-0.2,3.3-0.7c0.6-0.5,0.9-1.4,0.9-2.8c0-1.7-0.2-2.8-0.7-3.3
	c-0.4-0.5-1.4-0.8-2.8-0.8h-6.9V691.3L437.4,691.3z M454.2,683.7v6.4h9.6v1.8h-9.6v7h10v1.8h-12.1v-18.8h12.1v1.8H454.2L454.2,683.7
	z M476.1,683.7v6.6h9.2v1.8h-9.2v8.7h-2.1v-18.8h11.5v1.8H476.1L476.1,683.7z M489.9,681.9v18.8h-2.1v-18.8H489.9L489.9,681.9z
	 M500.1,683.8v16.8h-2.1v-16.8h-6.1v-2h14.3v2H500.1L500.1,683.8z M514.6,683.8v16.8h-2.1v-16.8h-6.1v-2h14.3v2H514.6L514.6,683.8z
	 M523.9,683.7v6.4h9.6v1.8h-9.6v7h10v1.8h-12.1v-18.8h12.1v1.8H523.9L523.9,683.7z M536.6,700.7v-18.8h8.7c2.7,0,4.5,0.6,5.5,1.8
	c1,1.2,1.4,3.5,1.4,6.8c0,4.1-0.4,6.8-1.3,8.2c-0.9,1.4-2.5,2.1-5.1,2.1H536.6L536.6,700.7z M538.7,698.9h6.1c2.2,0,3.7-0.5,4.4-1.3
	c0.7-0.9,1-2.9,1-6c0-3.4-0.3-5.6-0.8-6.5c-0.6-0.9-1.9-1.4-4.1-1.4h-6.6V698.9L538.7,698.9z M588.5,681.9l-5.9,18.8h-3.2l-4-13.5
	l-0.5-1.7c0-0.1-0.1-0.4-0.2-0.8l-0.2-0.9h0l-0.2,0.9l-0.2,0.9l-0.5,1.7l-4,13.5h-3.2l-5.8-18.8h2.2l4.1,13.5l0.6,1.8
	c0,0.1,0.1,0.4,0.3,0.9l0.3,0.9h0l0.3-0.9l0.3-0.9l0.5-1.8l4-13.5h3.1l4,13.6l0.5,1.8l0.2,0.9l0.3,0.9h0l0.3-0.9l0.3-0.9l0.6-1.8
	l4.1-13.5H588.5L588.5,681.9z M592.4,681.9v18.8h-2.1v-18.8H592.4L592.4,681.9z M602.6,683.8v16.8h-2.1v-16.8h-6.1v-2h14.3v2H602.6
	L602.6,683.8z M625.8,681.9v18.8h-2.1V692h-11v8.7h-2.1v-18.8h2.1v8.3h11v-8.3H625.8L625.8,681.9z M651.7,681.9v18.8h-2.1V692h-11
	v8.7h-2.1v-18.8h2.1v8.3h11v-8.3H651.7L651.7,681.9z M656.6,683.7v6.4h9.6v1.8h-9.6v7h10v1.8h-12.1v-18.8h12.1v1.8H656.6
	L656.6,683.7z M680.9,696.7h-9.5l-1.4,4h-2.2l6.9-18.8h3l7,18.8h-2.2L680.9,696.7L680.9,696.7z M680.3,695.1l-4.2-11.5l-4.1,11.5
	H680.3L680.3,695.1z M698.7,681.9l-4.9,14.2c-0.3,1-0.6,1.9-0.9,2.9h-0.1c-0.1-0.4-0.3-0.9-0.5-1.4l-0.5-1.4l-5-14.2h-2.3l6.7,18.8
	h3l6.7-18.8H698.7L698.7,681.9z M716.9,681.9l-7.1,11v7.9h-2.1v-7.9l-6.9-11h2.5l4,6.4l0.8,1.2c0.1,0.1,0.2,0.3,0.4,0.6l0.4,0.6h0.1
	c0.2-0.3,0.3-0.5,0.4-0.6l0.4-0.6l0.8-1.2l4-6.4H716.9L716.9,681.9z M725.6,700.7v-18.8h8.7c2.7,0,4.5,0.6,5.5,1.8s1.4,3.5,1.4,6.8
	c0,4.1-0.4,6.8-1.3,8.2c-0.9,1.4-2.5,2.1-5.1,2.1H725.6L725.6,700.7z M727.7,698.9h6.1c2.2,0,3.7-0.5,4.4-1.3c0.7-0.9,1-2.9,1-6
	c0-3.4-0.3-5.6-0.8-6.5c-0.6-0.9-1.9-1.4-4.1-1.4h-6.6V698.9L727.7,698.9z M756.8,681.9h2.1V695c0,2.4-0.5,4-1.4,4.7
	c-1,0.7-3,1.1-6,1.1c-2.9,0-4.8-0.4-5.9-1.1c-1-0.7-1.6-2.1-1.6-4.1V695v-13.2h2.1V695c0,1.8,0.3,2.9,0.9,3.4c0.6,0.5,2,0.7,4.3,0.7
	c2.5,0,4-0.2,4.6-0.7c0.6-0.4,0.9-1.6,0.9-3.4V681.9L756.8,681.9z M769.1,683.8v16.8h-2.1v-16.8h-6.1v-2h14.3v2H769.1L769.1,683.8z
	 M791.3,681.9h-2.5l-4,6.4l-0.8,1.2l-0.4,0.6c-0.1,0.1-0.2,0.3-0.4,0.6h-0.1l-0.4-0.6c-0.2-0.3-0.3-0.5-0.4-0.6l-0.8-1.2l-4-6.4
	h-2.5l6.9,11v7.9h2.1v-7.9L791.3,681.9L791.3,681.9z M812.9,687h-2.1c0-1.5-0.3-2.5-0.8-2.9c-0.5-0.4-1.7-0.6-3.6-0.6
	c-2.2,0-3.7,0.2-4.3,0.6s-1,1.3-1,2.6c0,1.5,0.3,2.4,0.8,2.8c0.5,0.3,2,0.6,4.5,0.7c2.9,0.1,4.8,0.5,5.6,1.1c0.8,0.6,1.2,2,1.2,4.1
	c0,2.3-0.5,3.8-1.4,4.5c-0.9,0.7-2.9,1-6.1,1c-2.7,0-4.5-0.3-5.4-1c-0.9-0.7-1.3-2.1-1.3-4.1l0-0.8h2.1v0.5c0,1.7,0.3,2.7,0.8,3.1
	c0.5,0.4,1.8,0.6,4,0.6c2.4,0,3.9-0.2,4.5-0.6c0.6-0.4,0.8-1.5,0.8-3.3c0-1.1-0.2-1.9-0.6-2.3c-0.4-0.4-1.2-0.6-2.4-0.7l-2.2-0.1
	l-2.1-0.1c-3.2-0.2-4.8-1.9-4.8-5c0-2.1,0.5-3.6,1.4-4.3c0.9-0.7,2.8-1.1,5.6-1.1c2.8,0,4.6,0.3,5.5,1
	C812.5,683.3,812.9,684.8,812.9,687L812.9,687z M815.8,700.7v-18.8h7.9h0.7c2.1,0,3.6,0.4,4.3,1.2c0.8,0.8,1.2,2.3,1.2,4.6
	c0,2.1-0.4,3.6-1.2,4.4c-0.8,0.8-2.3,1.2-4.5,1.2l-0.8,0h-5.4v7.4H815.8L815.8,700.7z M817.9,691.5h5c2.1,0,3.5-0.2,4-0.6
	c0.6-0.4,0.9-1.4,0.9-3c0-1.8-0.2-3-0.6-3.5c-0.4-0.5-1.3-0.7-2.8-0.7l-0.8,0h-5.7V691.5L817.9,691.5z M834.5,681.9v16.8h9.7v2
	h-11.8v-18.8H834.5L834.5,681.9z M848.2,681.9v18.8h-2.1v-18.8H848.2L848.2,681.9z M858.4,683.8v16.8h-2.1v-16.8h-6.1v-2h14.3v2
	H858.4L858.4,683.8z M873.4,700.7v-18.8h9c2,0,3.4,0.4,4.3,1.2c0.8,0.8,1.2,2.2,1.2,4.2c0,1.7-0.2,2.9-0.7,3.6
	c-0.4,0.7-1.3,1.1-2.6,1.3v0c2,0.1,3,1.4,3,3.6v4.8h-2.1v-4.3c0-2.2-1-3.3-2.9-3.3H882h-6.4v7.6H873.4L873.4,700.7z M875.6,691.3
	h6.1c1.6,0,2.7-0.2,3.3-0.7c0.6-0.5,0.9-1.4,0.9-2.8c0-1.7-0.2-2.8-0.7-3.3c-0.4-0.5-1.4-0.8-2.8-0.8h-6.9V691.3L875.6,691.3z
	 M893.2,681.9v18.8H891v-18.8H893.2L893.2,681.9z M912.9,681.9v18.8h-3.5l-7.9-12.8l-1.3-2.1l-0.6-1l-0.6-1h-0.1l0,0.7l0,0.7v1.4
	v14.2h-2.1v-18.8h3.5l6.9,11.2l1.8,2.9l0.9,1.5l0.9,1.5h0.1l0-0.7l0-0.7v-1.4v-14.3H912.9L912.9,681.9z M923.2,691.3h8.1
	c0,0.5,0.1,1.2,0.1,2.1c0,3.4-0.4,5.5-1.2,6.3c-0.8,0.8-3,1.2-6.5,1.2c-3.3,0-5.4-0.5-6.4-1.4c-0.9-1-1.4-3.1-1.4-6.4l0-2.8l0-1.7
	c0-2.8,0.5-4.6,1.6-5.6c1.1-0.9,3.2-1.4,6.4-1.4c3.2,0,5.3,0.3,6.2,0.9c0.9,0.6,1.4,1.9,1.4,4v0.7h-2.1v-0.5c0-1.5-0.3-2.5-0.9-2.8
	c-0.6-0.4-2.3-0.5-4.9-0.5c-2.5,0-4,0.3-4.6,0.9c-0.6,0.6-0.9,2-0.9,4.4l0,2.5l0,2.7c0,2.4,0.3,3.8,1,4.4c0.7,0.5,2.5,0.8,5.5,0.8
	c2.3,0,3.7-0.3,4.2-0.8c0.5-0.5,0.8-1.9,0.8-4c0-0.2,0-0.6-0.1-1.2h-6V691.3L923.2,691.3z M946.8,687h-2.1c0-1.5-0.3-2.5-0.8-2.9
	c-0.5-0.4-1.7-0.6-3.6-0.6c-2.2,0-3.7,0.2-4.3,0.6c-0.6,0.4-1,1.3-1,2.6c0,1.5,0.3,2.4,0.8,2.8c0.5,0.3,2,0.6,4.5,0.7
	c2.9,0.1,4.8,0.5,5.6,1.1c0.8,0.6,1.2,2,1.2,4.1c0,2.3-0.5,3.8-1.4,4.5c-0.9,0.7-2.9,1-6.1,1c-2.7,0-4.5-0.3-5.4-1
	c-0.9-0.7-1.3-2.1-1.3-4.1l0-0.8h2.1v0.5c0,1.7,0.3,2.7,0.8,3.1c0.5,0.4,1.8,0.6,4,0.6c2.4,0,3.9-0.2,4.5-0.6
	c0.6-0.4,0.8-1.5,0.8-3.3c0-1.1-0.2-1.9-0.6-2.3c-0.4-0.4-1.2-0.6-2.4-0.7l-2.2-0.1l-2.1-0.1c-3.2-0.2-4.8-1.9-4.8-5
	c0-2.1,0.5-3.6,1.4-4.3c0.9-0.7,2.8-1.1,5.6-1.1c2.8,0,4.6,0.3,5.5,1C946.4,683.3,946.8,684.8,946.8,687L946.8,687z M968.3,696.7
	h-9.5l-1.4,4h-2.3l6.9-18.8h3l7,18.8h-2.2L968.3,696.7L968.3,696.7z M967.7,695.1l-4.2-11.5l-4.1,11.5H967.7L967.7,695.1z
	 M990,681.9v18.8h-3.5l-7.9-12.8l-1.3-2.1l-0.6-1l-0.6-1H976l0,0.7l0,0.7v1.4v14.2h-2.1v-18.8h3.5l6.9,11.2l1.8,2.9l0.9,1.5l0.9,1.5
	h0.1l0-0.7l0-0.7v-1.4v-14.3H990L990,681.9z M993.6,700.7v-18.8h8.7c2.7,0,4.5,0.6,5.5,1.8c1,1.2,1.4,3.5,1.4,6.8
	c0,4.1-0.4,6.8-1.3,8.2c-0.9,1.4-2.5,2.1-5.1,2.1H993.6L993.6,700.7z M995.7,698.9h6.1c2.2,0,3.7-0.5,4.4-1.3c0.7-0.9,1-2.9,1-6
	c0-3.4-0.3-5.6-0.8-6.5c-0.6-0.9-1.9-1.4-4.1-1.4h-6.6V698.9L995.7,698.9z M1034.3,681.9v18.8h-2.1V692h-11v8.7h-2.1v-18.8h2.1v8.3
	h11v-8.3H1034.3L1034.3,681.9z M1039.3,683.7v6.4h9.6v1.8h-9.6v7h10v1.8h-12.1v-18.8h12.1v1.8H1039.3L1039.3,683.7z M1063.5,696.7
	h-9.5l-1.4,4h-2.2l6.9-18.8h3l7,18.8h-2.2L1063.5,696.7L1063.5,696.7z M1062.9,695.1l-4.2-11.5l-4.1,11.5H1062.9L1062.9,695.1z
	 M1081.4,681.9l-4.9,14.2c-0.3,1-0.6,1.9-0.9,2.9h-0.1c-0.1-0.4-0.3-0.9-0.5-1.4l-0.5-1.4l-5-14.2h-2.3l6.7,18.8h3l6.7-18.8H1081.4
	L1081.4,681.9z M1099.5,681.9l-7.1,11v7.9h-2.1v-7.9l-6.9-11h2.5l4,6.4l0.8,1.2c0.1,0.1,0.2,0.3,0.4,0.6l0.4,0.6h0.1
	c0.2-0.3,0.3-0.5,0.4-0.6l0.4-0.6l0.8-1.2l4-6.4H1099.5L1099.5,681.9z M1108.2,700.7v-18.8h8.7c2.7,0,4.5,0.6,5.5,1.8
	c1,1.2,1.4,3.5,1.4,6.8c0,4.1-0.4,6.8-1.3,8.2c-0.8,1.4-2.5,2.1-5.1,2.1H1108.2L1108.2,700.7z M1110.4,698.9h6.1
	c2.2,0,3.7-0.5,4.4-1.3c0.7-0.9,1-2.9,1-6c0-3.4-0.3-5.6-0.8-6.5c-0.6-0.9-1.9-1.4-4.1-1.4h-6.6V698.9L1110.4,698.9z M1139.5,681.9
	h2.1V695c0,2.4-0.5,4-1.4,4.7c-1,0.7-3,1.1-6,1.1c-2.9,0-4.8-0.4-5.9-1.1c-1-0.7-1.6-2.1-1.6-4.1V695v-13.2h2.1V695
	c0,1.8,0.3,2.9,0.9,3.4c0.6,0.5,2,0.7,4.3,0.7c2.5,0,4-0.2,4.6-0.7c0.6-0.4,0.9-1.6,0.9-3.4V681.9L1139.5,681.9z M1151.7,683.8v16.8
	h-2.1v-16.8h-6.1v-2h14.3v2H1151.7L1151.7,683.8z M1173.9,681.9h-2.5l-4,6.4l-0.8,1.2l-0.4,0.6c-0.1,0.1-0.2,0.3-0.4,0.6h-0.1
	l-0.4-0.6c-0.2-0.3-0.3-0.5-0.4-0.6l-0.8-1.2l-4-6.4h-2.5l6.9,11v7.9h2.1v-7.9L1173.9,681.9L1173.9,681.9z M1197.9,681.9v18.8h-2.1
	V692h-11v8.7h-2.1v-18.8h2.1v8.3h11v-8.3H1197.9L1197.9,681.9z M1208.3,681.7c3.6,0,5.8,0.5,6.7,1.6c0.9,1,1.3,3.6,1.3,7.8
	c0,4.5-0.4,7.2-1.3,8.3c-0.9,1-3.1,1.6-6.7,1.6c-3.6,0-5.9-0.5-6.7-1.6c-0.9-1-1.3-3.7-1.3-8.1v-1.3l0-1.8c0-2.5,0.6-4.2,1.7-5.1
	C1203.1,682.1,1205.2,681.7,1208.3,681.7L1208.3,681.7z M1208.3,683.5c-3,0-4.7,0.3-5.2,1c-0.5,0.7-0.8,2.9-0.8,6.8
	c0,3.9,0.3,6.2,0.8,6.8c0.5,0.7,2.2,1,5.2,1c3,0,4.7-0.3,5.2-1c0.5-0.7,0.8-2.9,0.8-6.8V690l0-1.8c0-2.1-0.3-3.4-1-4
	C1212.5,683.7,1210.9,683.5,1208.3,683.5L1208.3,683.5z M1225.6,681.7c3.6,0,5.8,0.5,6.7,1.6c0.9,1,1.3,3.6,1.3,7.8
	c0,4.5-0.4,7.2-1.3,8.3c-0.9,1-3.1,1.6-6.7,1.6c-3.6,0-5.9-0.5-6.7-1.6c-0.9-1-1.3-3.7-1.3-8.1v-1.3l0-1.8c0-2.5,0.6-4.2,1.7-5.1
	C1220.5,682.1,1222.6,681.7,1225.6,681.7L1225.6,681.7z M1225.6,683.5c-3,0-4.7,0.3-5.2,1c-0.5,0.7-0.8,2.9-0.8,6.8
	c0,3.9,0.3,6.2,0.8,6.8c0.5,0.7,2.2,1,5.2,1c3,0,4.7-0.3,5.2-1c0.5-0.7,0.8-2.9,0.8-6.8V690l0-1.8c0-2.1-0.3-3.4-1-4
	C1229.9,683.7,1228.2,683.5,1225.6,683.5L1225.6,683.5z M1238.2,681.9v8.2h1.9l7.7-8.2h2.7l-8.6,9.1l9.7,9.7h-2.9l-8.6-8.8h-1.9v8.8
	h-2.1v-18.8H1238.2L1238.2,681.9z M1266,687h-2.1c0-1.5-0.3-2.5-0.8-2.9c-0.5-0.4-1.7-0.6-3.6-0.6c-2.2,0-3.7,0.2-4.3,0.6
	c-0.6,0.4-1,1.3-1,2.6c0,1.5,0.3,2.4,0.8,2.8c0.5,0.3,2,0.6,4.5,0.7c2.9,0.1,4.8,0.5,5.6,1.1c0.8,0.6,1.2,2,1.2,4.1
	c0,2.3-0.5,3.8-1.4,4.5c-0.9,0.7-2.9,1-6.1,1c-2.7,0-4.5-0.3-5.4-1c-0.9-0.7-1.3-2.1-1.3-4.1l0-0.8h2.1v0.5c0,1.7,0.3,2.7,0.8,3.1
	c0.5,0.4,1.8,0.6,4,0.6c2.4,0,3.9-0.2,4.5-0.6c0.6-0.4,0.8-1.5,0.8-3.3c0-1.1-0.2-1.9-0.6-2.3c-0.4-0.4-1.2-0.6-2.4-0.7l-2.2-0.1
	l-2.1-0.1c-3.2-0.2-4.8-1.9-4.8-5c0-2.1,0.5-3.6,1.4-4.3c0.9-0.7,2.8-1.1,5.6-1.1c2.8,0,4.6,0.3,5.5,1
	C1265.6,683.3,1266,684.8,1266,687L1266,687z M1270.9,698.1v2.5h-2.1v-2.5H1270.9z"/>
<path style="&st5;" d="M410.3,716v18.8h-2.1v-17.2l-4.8,5.3l-1.3-1.3l5.2-5.7H410.3L410.3,716z M431.5,733v1.8H418v-3.5
	c0-2,0.4-3.3,1.2-3.9c0.8-0.6,2.6-1.1,5.5-1.4c2.3-0.3,3.7-0.6,4.2-1c0.5-0.4,0.7-1.6,0.7-3.4c0-1.6-0.3-2.7-0.8-3.1
	c-0.5-0.5-1.7-0.7-3.5-0.7c-2.3,0-3.7,0.2-4.3,0.6c-0.6,0.4-0.9,1.3-0.9,2.8l0,1.4H418l0-1c0-2.3,0.5-3.8,1.4-4.5
	c1-0.7,2.9-1.1,5.7-1.1c2.5,0,4.2,0.4,5.1,1.2c0.9,0.8,1.3,2.4,1.3,4.7c0,2.2-0.4,3.8-1.2,4.5c-0.8,0.8-2.6,1.3-5.3,1.5
	c-2.4,0.2-3.8,0.6-4.3,1c-0.5,0.4-0.7,1.6-0.7,3.6v0.6H431.5L431.5,733z M442.4,715.8c3.5,0,5.6,0.5,6.3,1.4
	c0.7,0.9,1.1,3.7,1.1,8.2c0,4.3-0.3,6.9-1,7.9c-0.9,1.2-3,1.7-6.4,1.7c-3.4,0-5.5-0.6-6.4-1.7c-0.7-0.9-1-3.8-1-8.5
	c0-4.1,0.4-6.6,1.1-7.6C436.9,716.3,439,715.8,442.4,715.8L442.4,715.8z M442.4,717.6c-2.6,0-4.2,0.3-4.7,1
	c-0.5,0.7-0.7,2.9-0.7,6.8c0,3.8,0.2,6.1,0.7,6.8c0.5,0.7,2,1,4.7,1c2.6,0,4.2-0.3,4.6-1c0.5-0.7,0.7-2.9,0.7-6.8
	c0-3.8-0.2-6.1-0.7-6.8C446.6,718,445.1,717.6,442.4,717.6L442.4,717.6z M452.8,721.7h1.9l0,2l0,0c0.7-1.5,2.2-2.2,4.3-2.2
	c2.2,0,3.6,0.7,4.1,2.2h0.1c0.8-1.5,2.3-2.2,4.5-2.2c3.1,0,4.7,1.6,4.7,4.8v8.6h-1.9V726c0-1.2-0.2-1.9-0.6-2.4
	c-0.4-0.4-1.2-0.6-2.3-0.6c-1.5,0-2.6,0.3-3.1,0.9c-0.5,0.6-0.8,1.7-0.8,3.3v7.6h-1.9v-8.6l0-0.6c0-1.7-1-2.5-2.9-2.5
	c-2.6,0-3.9,1.4-3.9,4.3v7.5h-1.9V721.7L452.8,721.7z M476.1,721.7h1.9l0,2l0,0c0.7-1.5,2.2-2.2,4.3-2.2c2.2,0,3.6,0.7,4.1,2.2h0.1
	c0.8-1.5,2.3-2.2,4.5-2.2c3.1,0,4.7,1.6,4.7,4.8v8.6h-1.9V726c0-1.2-0.2-1.9-0.6-2.4c-0.4-0.4-1.2-0.6-2.3-0.6
	c-1.5,0-2.6,0.3-3.1,0.9c-0.5,0.6-0.8,1.7-0.8,3.3v7.6h-1.9v-8.6l0-0.6c0-1.7-1-2.5-2.9-2.5c-2.6,0-3.9,1.4-3.9,4.3v7.5h-1.9V721.7
	L476.1,721.7z M527.2,716v18.8h-2.1v-15.1v-1.1l0-0.6l0-0.6h-0.1l-0.2,0.4c-0.1,0.2-0.1,0.4-0.2,0.4l-0.4,0.9l-6.4,15.6h-2.1
	l-6.4-15.4l-0.4-0.9l-0.2-0.4c0-0.1-0.1-0.2-0.2-0.4h-0.1l0,0.5l0,0.5v1v15.1h-2.1V716h3.7l5,12.2l0.8,2l0.4,1l0.4,1h0.1l0.4-1
	c0.2-0.5,0.3-0.8,0.4-1l0.8-2l5-12.2H527.2L527.2,716z M537.6,715.8c3.6,0,5.8,0.5,6.7,1.6c0.9,1,1.3,3.6,1.3,7.8
	c0,4.5-0.4,7.2-1.3,8.3c-0.9,1.1-3.1,1.6-6.7,1.6c-3.6,0-5.9-0.5-6.7-1.6c-0.9-1-1.3-3.7-1.3-8.1v-1.3l0-1.8c0-2.5,0.6-4.2,1.7-5.1
	C532.5,716.3,534.6,715.8,537.6,715.8L537.6,715.8z M537.6,717.6c-3,0-4.7,0.3-5.2,1c-0.5,0.7-0.8,2.9-0.8,6.8
	c0,3.9,0.3,6.2,0.8,6.8c0.5,0.7,2.2,1,5.2,1c3,0,4.7-0.3,5.2-1c0.5-0.7,0.8-2.9,0.8-6.8v-1.2l0-1.8c0-2.1-0.3-3.4-1-4
	C541.9,717.9,540.2,717.6,537.6,717.6L537.6,717.6z M548.1,734.8V716h8.7c2.7,0,4.5,0.6,5.5,1.8c1,1.2,1.4,3.5,1.4,6.8
	c0,4.1-0.4,6.8-1.3,8.2c-0.9,1.4-2.5,2.1-5.1,2.1H548.1L548.1,734.8z M550.2,733h6.1c2.2,0,3.7-0.5,4.4-1.4c0.7-0.9,1-2.9,1-6
	c0-3.4-0.3-5.6-0.8-6.5c-0.6-0.9-1.9-1.4-4.1-1.4h-6.6V733L550.2,733z M567.9,717.8v6.4h9.6v1.8h-9.6v7h10v1.8h-12.1V716h12.1v1.8
	H567.9L567.9,717.8z M582.7,716v16.8h9.7v2h-11.8V716H582.7L582.7,716z M596.3,732.3v2.5h-2.1v-2.5H596.3L596.3,732.3z M596.3,721.7
	v2.5h-2.1v-2.5H596.3L596.3,721.7z M640.2,716l-5.9,18.8h-3.2l-4-13.6l-0.5-1.7c0-0.1-0.1-0.4-0.2-0.8l-0.2-0.9h0l-0.2,0.9l-0.2,0.9
	l-0.5,1.7l-4,13.5h-3.2l-5.8-18.8h2.2l4.1,13.5l0.6,1.8c0,0.1,0.1,0.4,0.3,0.9l0.3,0.9h0l0.3-0.9l0.3-0.9l0.5-1.8l4-13.5h3.1l4,13.5
	l0.5,1.8l0.2,0.9l0.3,0.9h0l0.3-0.9l0.3-0.9l0.6-1.8L638,716H640.2L640.2,716z M643.5,717.8v6.4h9.6v1.8h-9.6v7h10v1.8h-12.1V716
	h12.1v1.8H643.5L643.5,717.8z M658.3,716v18.8h-2.1V716H658.3L658.3,716z M668.6,725.5h8.1c0,0.5,0.1,1.2,0.1,2.1
	c0,3.4-0.4,5.5-1.2,6.3c-0.8,0.8-3,1.2-6.5,1.2c-3.3,0-5.4-0.5-6.4-1.4c-0.9-0.9-1.4-3.1-1.4-6.4l0-2.8l0-1.7c0-2.8,0.5-4.6,1.6-5.6
	c1.1-0.9,3.2-1.4,6.4-1.4c3.2,0,5.3,0.3,6.2,0.9c0.9,0.6,1.4,1.9,1.4,4v0.7h-2.1V721c0-1.5-0.3-2.5-0.9-2.8
	c-0.6-0.4-2.3-0.5-4.9-0.5c-2.5,0-4,0.3-4.6,0.9c-0.6,0.6-0.9,2-0.9,4.4l0,2.5l0,2.7c0,2.4,0.3,3.8,1,4.4c0.7,0.5,2.5,0.8,5.5,0.8
	c2.3,0,3.7-0.3,4.2-0.8c0.5-0.5,0.8-1.9,0.8-4c0-0.2,0-0.6-0.1-1.2h-6V725.5L668.6,725.5z M694.6,716v18.8h-2.1v-8.7h-11v8.7h-2.1
	V716h2.1v8.3h11V716H694.6L694.6,716z M704.8,718v16.8h-2.1V718h-6.1v-2h14.3v2H704.8L704.8,718z M732.8,716v1.8h-10.6l-0.1,5.7h0
	c0.7-1,2.4-1.6,4.9-1.6c2.5,0,4.2,0.4,5.1,1.3c0.9,0.9,1.4,2.5,1.4,4.8c0,2.9-0.4,4.8-1.3,5.6c-0.9,0.9-2.7,1.3-5.5,1.3
	c-2.8,0-4.6-0.3-5.6-1c-0.9-0.7-1.4-1.9-1.4-3.9v-0.7h2c0,1.7,0.3,2.8,0.8,3.2c0.5,0.4,1.9,0.6,4,0.6c2.3,0,3.7-0.3,4.2-0.8
	c0.5-0.5,0.8-2,0.8-4.3c0-1.9-0.3-3.1-0.8-3.6c-0.6-0.5-1.9-0.8-3.9-0.8c-2.9,0-4.4,0.6-4.7,1.8h-1.9V716H732.8L732.8,716z
	 M744,715.8c3.5,0,5.6,0.5,6.3,1.4c0.7,0.9,1.1,3.7,1.1,8.2c0,4.3-0.3,6.9-1,7.9c-0.9,1.2-3,1.7-6.4,1.7c-3.4,0-5.5-0.6-6.4-1.7
	c-0.7-0.9-1-3.8-1-8.5c0-4.1,0.4-6.6,1.1-7.6C738.5,716.3,740.5,715.8,744,715.8L744,715.8z M744,717.6c-2.6,0-4.2,0.3-4.7,1
	c-0.5,0.7-0.7,2.9-0.7,6.8c0,3.8,0.2,6.1,0.7,6.8c0.5,0.7,2,1,4.7,1c2.6,0,4.2-0.3,4.7-1c0.5-0.7,0.7-2.9,0.7-6.8
	c0-3.8-0.2-6.1-0.7-6.8C748.1,718,746.6,717.6,744,717.6L744,717.6z M765.3,721.7v14c0,1.9-0.4,3.2-1.2,3.9
	c-0.8,0.7-2.3,1.1-4.5,1.1c-2,0-3.3-0.3-4-0.9c-0.7-0.6-1.1-1.7-1.1-3.4h1.9c0,1.1,0.2,1.9,0.6,2.2c0.4,0.3,1.3,0.5,2.7,0.5
	c1.5,0,2.5-0.2,3-0.7c0.5-0.4,0.8-1.3,0.8-2.6v-2.6l0,0c-0.5,1.2-1.9,1.8-4.3,1.8c-1.9,0-3.3-0.5-4-1.4c-0.7-1-1.1-2.7-1.1-5.3
	c0-2.6,0.4-4.4,1.1-5.4c0.7-1,2.1-1.5,4.2-1.5c2.2,0,3.6,0.7,4.2,2l0,0l-0.1-1.8H765.3L765.3,721.7z M759.6,723.1
	c-1.5,0-2.5,0.3-2.9,1c-0.5,0.6-0.7,2-0.7,4.2c0,2.2,0.2,3.6,0.7,4.2c0.4,0.6,1.4,1,2.9,1c1.5,0,2.5-0.4,3-1.1
	c0.5-0.7,0.7-2.2,0.7-4.4c0-2-0.2-3.3-0.7-3.9C762.1,723.4,761.1,723.1,759.6,723.1L759.6,723.1z M774.1,727.1h5.8v1.8h-5.9
	L774.1,727.1L774.1,727.1z M802.1,733v1.8h-13.6v-3.5c0-2,0.4-3.3,1.2-3.9c0.8-0.6,2.6-1.1,5.5-1.4c2.3-0.3,3.7-0.6,4.2-1
	c0.5-0.4,0.7-1.6,0.7-3.4c0-1.6-0.3-2.7-0.8-3.1c-0.5-0.5-1.7-0.7-3.5-0.7c-2.3,0-3.7,0.2-4.3,0.6c-0.6,0.4-0.9,1.3-0.9,2.8l0,1.4
	h-2.1l0-1c0-2.3,0.5-3.8,1.4-4.5c0.9-0.7,2.9-1.1,5.7-1.1c2.5,0,4.2,0.4,5.1,1.2c0.9,0.8,1.3,2.4,1.3,4.7c0,2.2-0.4,3.8-1.2,4.5
	c-0.8,0.8-2.6,1.3-5.3,1.5c-2.4,0.2-3.8,0.6-4.3,1c-0.5,0.4-0.7,1.6-0.7,3.6v0.6H802.1L802.1,733z M820.6,716L804,740.5h-1.6
	L819,716H820.6L820.6,716z M831.2,715.8c3.5,0,5.6,0.5,6.3,1.4c0.7,0.9,1.1,3.7,1.1,8.2c0,4.3-0.3,6.9-1,7.9c-0.9,1.2-3,1.7-6.4,1.7
	c-3.4,0-5.5-0.6-6.4-1.7c-0.7-0.9-1-3.8-1-8.5c0-4.1,0.4-6.6,1.1-7.6C825.7,716.3,827.8,715.8,831.2,715.8L831.2,715.8z
	 M831.2,717.6c-2.6,0-4.2,0.3-4.7,1c-0.5,0.7-0.7,2.9-0.7,6.8c0,3.8,0.2,6.1,0.7,6.8c0.5,0.7,2,1,4.7,1c2.6,0,4.2-0.3,4.6-1
	c0.5-0.7,0.7-2.9,0.7-6.8c0-3.8-0.2-6.1-0.7-6.8C835.4,718,833.8,717.6,831.2,717.6L831.2,717.6z M864,716v18.8h-2.1v-8.7h-11v8.7
	h-2.1V716h2.1v8.3h11V716H864L864,716z M874.4,715.8c3.6,0,5.8,0.5,6.7,1.6c0.9,1,1.3,3.6,1.3,7.8c0,4.5-0.4,7.2-1.3,8.3
	c-0.9,1.1-3.1,1.6-6.7,1.6c-3.6,0-5.9-0.5-6.7-1.6c-0.9-1-1.3-3.7-1.3-8.1v-1.3l0-1.8c0-2.5,0.6-4.2,1.7-5.1
	C869.2,716.3,871.3,715.8,874.4,715.8L874.4,715.8z M874.4,717.6c-3,0-4.7,0.3-5.2,1c-0.5,0.7-0.8,2.9-0.8,6.8
	c0,3.9,0.3,6.2,0.8,6.8s2.2,1,5.2,1c3,0,4.7-0.3,5.2-1s0.8-2.9,0.8-6.8v-1.2l0-1.8c0-2.1-0.3-3.4-1-4
	C878.6,717.9,877,717.6,874.4,717.6L874.4,717.6z M891.7,715.8c3.6,0,5.8,0.5,6.7,1.6c0.9,1,1.3,3.6,1.3,7.8c0,4.5-0.4,7.2-1.3,8.3
	c-0.9,1.1-3.1,1.6-6.7,1.6c-3.6,0-5.9-0.5-6.7-1.6c-0.9-1-1.3-3.7-1.3-8.1v-1.3l0-1.8c0-2.5,0.6-4.2,1.7-5.1
	C886.5,716.3,888.6,715.8,891.7,715.8L891.7,715.8z M891.7,717.6c-3,0-4.7,0.3-5.2,1c-0.5,0.7-0.8,2.9-0.8,6.8
	c0,3.9,0.3,6.2,0.8,6.8s2.2,1,5.2,1c3,0,4.7-0.3,5.2-1c0.5-0.7,0.8-2.9,0.8-6.8v-1.2l0-1.8c0-2.1-0.3-3.4-1-4
	C895.9,717.9,894.3,717.6,891.7,717.6L891.7,717.6z M904.3,716v8.2h1.9l7.7-8.2h2.7l-8.6,9.1l9.7,9.7h-2.9l-8.6-8.8h-1.9v8.8h-2.1
	V716H904.3L904.3,716z M932.1,721.1H930c0-1.5-0.3-2.5-0.8-2.9c-0.5-0.4-1.7-0.6-3.6-0.6c-2.2,0-3.7,0.2-4.3,0.6s-1,1.3-1,2.6
	c0,1.5,0.3,2.4,0.8,2.8c0.5,0.3,2,0.6,4.5,0.7c2.9,0.1,4.8,0.5,5.6,1.1c0.8,0.6,1.2,2,1.2,4.1c0,2.3-0.5,3.8-1.4,4.5
	c-0.9,0.7-2.9,1-6.1,1c-2.7,0-4.5-0.3-5.4-1c-0.9-0.7-1.3-2.1-1.3-4.1l0-0.8h2.1v0.5c0,1.7,0.3,2.7,0.8,3.1c0.5,0.4,1.8,0.6,4,0.6
	c2.4,0,3.9-0.2,4.5-0.6c0.6-0.4,0.8-1.5,0.8-3.3c0-1.1-0.2-1.9-0.6-2.3c-0.4-0.4-1.2-0.6-2.4-0.7l-2.2-0.1l-2.1-0.1
	c-3.2-0.2-4.8-1.9-4.8-5c0-2.1,0.5-3.6,1.4-4.3c0.9-0.7,2.8-1.1,5.6-1.1c2.8,0,4.6,0.3,5.5,1C931.7,717.5,932.1,718.9,932.1,721.1
	L932.1,721.1z M940.3,727.1h5.8v1.8h-5.9L940.3,727.1L940.3,727.1z M954.9,734.8V716h8.7c2.7,0,4.5,0.6,5.5,1.8
	c1,1.2,1.4,3.5,1.4,6.8c0,4.1-0.4,6.8-1.3,8.2c-0.9,1.4-2.5,2.1-5.1,2.1H954.9L954.9,734.8z M957.1,733h6.1c2.2,0,3.7-0.5,4.4-1.4
	s1-2.9,1-6c0-3.4-0.3-5.6-0.8-6.5c-0.6-0.9-1.9-1.4-4.1-1.4h-6.6V733L957.1,733z M975.5,716v18.8h-2.1V716H975.5L975.5,716z
	 M991.4,716h2.3l-6.7,18.8h-3l-6.7-18.8h2.3l5,14.2l0.5,1.4c0.2,0.6,0.3,1,0.5,1.4h0.1c0.3-0.9,0.6-1.9,0.9-2.9L991.4,716L991.4,716
	z M996.7,717.8v6.4h9.6v1.8h-9.6v7h10v1.8h-12.1V716h12.1v1.8H996.7L996.7,717.8z M1022.2,721.1h-2.1c0-1.5-0.3-2.5-0.8-2.9
	c-0.5-0.4-1.7-0.6-3.6-0.6c-2.2,0-3.7,0.2-4.3,0.6c-0.6,0.4-1,1.3-1,2.6c0,1.5,0.3,2.4,0.8,2.8c0.5,0.3,2,0.6,4.5,0.7
	c2.9,0.1,4.8,0.5,5.6,1.1c0.8,0.6,1.2,2,1.2,4.1c0,2.3-0.5,3.8-1.4,4.5c-0.9,0.7-2.9,1-6.1,1c-2.7,0-4.5-0.3-5.4-1
	c-0.9-0.7-1.3-2.1-1.3-4.1l0-0.8h2.1v0.5c0,1.7,0.3,2.7,0.8,3.1c0.5,0.4,1.8,0.6,4,0.6c2.4,0,3.9-0.2,4.5-0.6
	c0.6-0.4,0.8-1.5,0.8-3.3c0-1.1-0.2-1.9-0.6-2.3c-0.4-0.4-1.2-0.6-2.4-0.7l-2.2-0.1l-2.1-0.1c-3.2-0.2-4.8-1.9-4.8-5
	c0-2.1,0.5-3.6,1.4-4.3c0.9-0.7,2.8-1.1,5.6-1.1c2.8,0,4.6,0.3,5.5,1C1021.8,717.5,1022.2,718.9,1022.2,721.1L1022.2,721.1z
	 M1038.8,718v16.8h-2.1V718h-6.1v-2h14.3v2H1038.8L1038.8,718z M1053.6,715.8c3.6,0,5.8,0.5,6.7,1.6c0.9,1,1.3,3.6,1.3,7.8
	c0,4.5-0.4,7.2-1.3,8.3c-0.9,1.1-3.1,1.6-6.7,1.6c-3.6,0-5.9-0.5-6.7-1.6c-0.9-1-1.3-3.7-1.3-8.1v-1.3l0-1.8c0-2.5,0.6-4.2,1.7-5.1
	C1048.4,716.3,1050.5,715.8,1053.6,715.8L1053.6,715.8z M1053.6,717.6c-3,0-4.7,0.3-5.2,1c-0.5,0.7-0.8,2.9-0.8,6.8
	c0,3.9,0.3,6.2,0.8,6.8s2.2,1,5.2,1c3,0,4.7-0.3,5.2-1c0.5-0.7,0.8-2.9,0.8-6.8v-1.2l0-1.8c0-2.1-0.3-3.4-1-4
	C1057.8,717.9,1056.2,717.6,1053.6,717.6L1053.6,717.6z M1081.6,725.1L1081.6,725.1c1.3,0.3,2.2,0.7,2.6,1.3
	c0.4,0.6,0.6,1.6,0.6,3.1c0,2.3-0.4,3.8-1.3,4.5c-0.9,0.7-2.7,1.1-5.5,1.1c-3.1,0-5-0.3-5.9-1c-0.9-0.7-1.3-2.1-1.3-4.4
	c0-1.6,0.2-2.8,0.6-3.4c0.4-0.6,1.3-1,2.6-1.3v0c-1.2-0.3-2.1-0.7-2.4-1.2c-0.4-0.6-0.6-1.6-0.6-3.1c0-2,0.4-3.3,1.3-3.9
	c0.8-0.6,2.6-0.9,5.3-0.9c3,0,4.9,0.3,5.7,0.9c0.8,0.6,1.3,2,1.3,4.1c0,1.4-0.2,2.4-0.6,3C1083.6,724.4,1082.8,724.8,1081.6,725.1
	L1081.6,725.1z M1077.6,717.6c-2.1,0-3.4,0.2-3.9,0.5c-0.5,0.3-0.7,1.3-0.7,2.8c0,1.5,0.3,2.4,0.9,2.8c0.6,0.3,2.1,0.5,4.7,0.5
	c1.7,0,2.8-0.2,3.3-0.6c0.5-0.4,0.7-1.4,0.7-2.9c0-1.4-0.3-2.3-0.8-2.6C1081.3,717.8,1079.9,717.6,1077.6,717.6L1077.6,717.6z
	 M1077.6,726c-2.2,0-3.5,0.2-4.1,0.6c-0.5,0.4-0.8,1.4-0.8,3c0,1.5,0.2,2.5,0.6,2.9c0.4,0.5,1.2,0.7,2.5,0.7l2.7,0l1.8-0.1
	c1-0.1,1.7-0.4,2-0.9c0.3-0.5,0.5-1.5,0.5-2.9c0-1.4-0.3-2.3-0.9-2.7C1081.3,726.2,1079.9,726,1077.6,726L1077.6,726z M1109.1,716
	v18.8h-2.1v-15.1v-1.1l0-0.6l0-0.6h-0.1l-0.2,0.4c-0.1,0.2-0.1,0.4-0.2,0.4l-0.4,0.9l-6.4,15.6h-2.1l-6.4-15.4l-0.4-0.9l-0.2-0.4
	c0-0.1-0.1-0.2-0.2-0.4h-0.1l0,0.5l0,0.5v1v15.1h-2.1V716h3.7l5,12.2l0.8,2l0.4,1l0.4,1h0.1l0.4-1c0.2-0.5,0.3-0.8,0.4-1l0.8-2
	l5-12.2H1109.1L1109.1,716z M1114.7,732.3v2.5h-2.1v-2.5H1114.7L1114.7,732.3z M421.9,758.9h2l0,0.5c0,1.2,0.3,1.9,0.8,2.2
	c0.5,0.3,1.9,0.5,3.9,0.5c2.4,0,3.8-0.2,4.3-0.7c0.5-0.5,0.8-1.8,0.8-3.9v-2.8h0c-0.7,1.1-2.6,1.7-5.7,1.7c-2.4,0-4-0.4-4.8-1.1
	c-0.8-0.8-1.2-2.2-1.2-4.4c0-2.5,0.4-4.2,1.3-5c0.9-0.8,2.7-1.2,5.5-1.2c2.9,0,4.8,0.4,5.7,1.2c0.9,0.8,1.4,2.5,1.4,5l0.1,5.1l0,1.9
	c0,2.4-0.5,4-1.4,4.8c-0.9,0.8-2.8,1.2-5.6,1.2c-2.8,0-4.7-0.3-5.6-0.9c-1-0.6-1.5-1.7-1.5-3.3C421.8,759.5,421.8,759.3,421.9,758.9
	L421.9,758.9z M428.6,746.5c-2,0-3.3,0.2-3.8,0.7c-0.5,0.4-0.8,1.6-0.8,3.4c0,1.8,0.2,2.9,0.7,3.4c0.5,0.5,1.7,0.7,3.6,0.7
	c2.4,0,3.9-0.2,4.5-0.6c0.6-0.4,0.9-1.4,0.9-2.9c0-2.1-0.3-3.4-0.8-3.9C432.4,746.7,430.9,746.5,428.6,746.5L428.6,746.5z
	 M446.4,744.7c3.5,0,5.6,0.5,6.3,1.4c0.7,0.9,1.1,3.7,1.1,8.2c0,4.3-0.3,6.9-1,7.9c-0.9,1.2-3,1.8-6.4,1.8c-3.4,0-5.5-0.6-6.4-1.8
	c-0.7-0.9-1-3.8-1-8.5c0-4.1,0.4-6.6,1.1-7.6S443,744.7,446.4,744.7L446.4,744.7z M446.4,746.5c-2.6,0-4.2,0.3-4.7,1
	c-0.5,0.7-0.7,2.9-0.7,6.8c0,3.8,0.2,6.1,0.7,6.8c0.5,0.7,2,1,4.7,1c2.6,0,4.2-0.3,4.6-1c0.5-0.7,0.7-2.9,0.7-6.8
	c0-3.8-0.2-6.1-0.7-6.8C450.6,746.8,449.1,746.5,446.4,746.5L446.4,746.5z M456.8,750.5h1.9l0,2l0,0c0.7-1.5,2.2-2.2,4.3-2.2
	c2.2,0,3.6,0.7,4.1,2.2h0.1c0.8-1.5,2.3-2.2,4.5-2.2c3.1,0,4.7,1.6,4.7,4.8v8.6h-1.9v-8.8c0-1.2-0.2-1.9-0.6-2.4
	c-0.4-0.4-1.2-0.6-2.3-0.6c-1.5,0-2.6,0.3-3.1,0.9c-0.5,0.6-0.8,1.7-0.8,3.3v7.6h-1.9v-8.6l0-0.6c0-1.7-1-2.6-2.9-2.6
	c-2.6,0-3.9,1.4-3.9,4.3v7.5h-1.9V750.5L456.8,750.5z M480.1,750.5h1.9l0,2l0,0c0.7-1.5,2.2-2.2,4.3-2.2c2.2,0,3.6,0.7,4.1,2.2h0.1
	c0.8-1.5,2.3-2.2,4.5-2.2c3.1,0,4.7,1.6,4.7,4.8v8.6h-1.9v-8.8c0-1.2-0.2-1.9-0.6-2.4c-0.4-0.4-1.2-0.6-2.3-0.6
	c-1.5,0-2.6,0.3-3.1,0.9c-0.5,0.6-0.8,1.7-0.8,3.3v7.6h-1.9v-8.6l0-0.6c0-1.7-1-2.6-2.9-2.6c-2.6,0-3.9,1.4-3.9,4.3v7.5h-1.9V750.5
	L480.1,750.5z M531.2,744.9v18.8h-2.1v-15.1v-1.1l0-0.6l0-0.6H529l-0.2,0.4c-0.1,0.2-0.1,0.4-0.2,0.4l-0.4,0.9l-6.4,15.6h-2.1
	l-6.4-15.4l-0.4-0.9l-0.2-0.4c0-0.1-0.1-0.2-0.2-0.4h-0.1l0,0.5l0,0.5v1v15.1h-2.1v-18.8h3.7l5,12.2l0.8,2l0.4,1l0.4,1h0.1l0.4-1
	c0.2-0.5,0.3-0.8,0.4-1l0.8-2l5-12.2H531.2L531.2,744.9z M541.6,744.7c3.6,0,5.8,0.5,6.7,1.6c0.9,1,1.3,3.6,1.3,7.8
	c0,4.5-0.4,7.2-1.3,8.3c-0.9,1-3.1,1.6-6.7,1.6c-3.6,0-5.9-0.5-6.7-1.6c-0.9-1-1.3-3.7-1.3-8.1v-1.3l0-1.8c0-2.5,0.6-4.2,1.7-5.1
	C536.5,745.1,538.6,744.7,541.6,744.7L541.6,744.7z M541.6,746.5c-3,0-4.7,0.3-5.2,1c-0.5,0.7-0.8,2.9-0.8,6.8
	c0,3.9,0.3,6.2,0.8,6.8c0.5,0.7,2.2,1,5.2,1c3,0,4.7-0.3,5.2-1c0.5-0.7,0.8-2.9,0.8-6.8V753l0-1.8c0-2.1-0.3-3.4-1-4
	C545.9,746.7,544.2,746.5,541.6,746.5L541.6,746.5z M552.1,763.7v-18.8h8.7c2.7,0,4.5,0.6,5.5,1.8c1,1.2,1.4,3.5,1.4,6.8
	c0,4.1-0.4,6.8-1.3,8.2s-2.5,2.1-5.1,2.1H552.1L552.1,763.7z M554.2,761.9h6.1c2.2,0,3.7-0.5,4.4-1.3c0.7-0.9,1-2.9,1-6
	c0-3.4-0.3-5.6-0.8-6.5s-1.9-1.4-4.1-1.4h-6.6V761.9L554.2,761.9z M571.9,746.7v6.4h9.6v1.8h-9.6v7h10v1.8h-12.1v-18.8h12.1v1.8
	H571.9L571.9,746.7z M586.7,744.9v16.8h9.7v2h-11.8v-18.8H586.7L586.7,744.9z M600.3,761.1v2.5h-2.1v-2.5H600.3L600.3,761.1z
	 M600.3,750.5v2.5h-2.1v-2.5H600.3L600.3,750.5z M644.2,744.9l-5.9,18.8h-3.2l-4-13.6l-0.5-1.7c0-0.1-0.1-0.4-0.2-0.8l-0.2-0.9h0
	l-0.2,0.9l-0.2,0.9l-0.5,1.7l-4,13.5h-3.2l-5.8-18.8h2.2l4.1,13.5l0.6,1.8c0,0.1,0.1,0.4,0.3,0.9l0.3,0.9h0l0.3-0.9l0.3-0.9l0.5-1.8
	l4-13.5h3.1l4,13.5l0.5,1.8l0.2,0.9l0.3,0.9h0l0.3-0.9l0.3-0.9l0.6-1.8l4.1-13.5H644.2L644.2,744.9z M647.5,746.7v6.4h9.6v1.8h-9.6
	v7h10v1.8h-12.1v-18.8h12.1v1.8H647.5L647.5,746.7z M662.3,744.9v18.8h-2.1v-18.8H662.3L662.3,744.9z M672.6,754.3h8.1
	c0,0.5,0.1,1.2,0.1,2.1c0,3.4-0.4,5.5-1.2,6.3c-0.8,0.8-3,1.2-6.5,1.2c-3.3,0-5.4-0.5-6.4-1.4c-0.9-1-1.4-3.1-1.4-6.4l0-2.8l0-1.7
	c0-2.8,0.5-4.6,1.6-5.6c1.1-0.9,3.2-1.4,6.4-1.4c3.2,0,5.3,0.3,6.2,0.9c0.9,0.6,1.4,1.9,1.4,4v0.7h-2.1v-0.5c0-1.5-0.3-2.5-0.9-2.8
	c-0.6-0.4-2.3-0.5-4.9-0.5c-2.5,0-4,0.3-4.6,0.9s-0.9,2-0.9,4.4l0,2.5l0,2.7c0,2.4,0.3,3.8,1,4.4c0.7,0.5,2.5,0.8,5.5,0.8
	c2.3,0,3.7-0.3,4.2-0.8c0.5-0.5,0.8-1.9,0.8-4c0-0.2,0-0.6-0.1-1.2h-6V754.3L672.6,754.3z M698.6,744.9v18.8h-2.1V755h-11v8.7h-2.1
	v-18.8h2.1v8.3h11v-8.3H698.6L698.6,744.9z M708.7,746.8v16.8h-2.1v-16.8h-6.1v-2h14.3v2H708.7L708.7,746.8z M737.1,761.9v1.8h-13.6
	v-3.5c0-2,0.4-3.3,1.2-3.9c0.8-0.6,2.6-1.1,5.5-1.4c2.3-0.3,3.7-0.6,4.2-1c0.5-0.4,0.7-1.6,0.7-3.4c0-1.6-0.3-2.7-0.8-3.1
	c-0.5-0.5-1.7-0.7-3.5-0.7c-2.3,0-3.7,0.2-4.3,0.6c-0.6,0.4-0.9,1.3-0.9,2.8l0,1.4h-2.1l0-1c0-2.3,0.5-3.8,1.4-4.5
	c1-0.7,2.9-1.1,5.7-1.1c2.5,0,4.2,0.4,5.1,1.2c0.9,0.8,1.3,2.4,1.3,4.7c0,2.3-0.4,3.8-1.2,4.5c-0.8,0.8-2.6,1.3-5.3,1.5
	c-2.4,0.2-3.8,0.6-4.3,1c-0.5,0.4-0.7,1.6-0.7,3.6v0.6H737.1L737.1,761.9z M754.4,744.9v2.7l-9.1,16.1h-2.5l9.9-17h-12v-1.8H754.4
	L754.4,744.9z M769.3,750.5v14c0,1.9-0.4,3.2-1.2,3.9c-0.8,0.7-2.3,1.1-4.5,1.1c-2,0-3.3-0.3-4-0.9c-0.7-0.6-1.1-1.7-1.1-3.4h1.9
	c0,1.1,0.2,1.9,0.6,2.2c0.4,0.3,1.3,0.5,2.7,0.5c1.5,0,2.5-0.2,3-0.7c0.5-0.4,0.8-1.3,0.8-2.6V762l0,0c-0.5,1.2-1.9,1.8-4.3,1.8
	c-1.9,0-3.3-0.5-4-1.4c-0.7-1-1.1-2.7-1.1-5.3c0-2.6,0.4-4.4,1.1-5.4c0.7-1,2.1-1.5,4.2-1.5c2.2,0,3.6,0.7,4.2,2l0,0l-0.1-1.8H769.3
	L769.3,750.5z M763.6,751.9c-1.5,0-2.5,0.3-2.9,1c-0.5,0.6-0.7,2-0.7,4.2c0,2.2,0.2,3.6,0.7,4.2c0.4,0.7,1.4,1,2.9,1
	c1.5,0,2.5-0.4,3-1.1c0.5-0.7,0.7-2.2,0.7-4.4c0-2-0.2-3.3-0.7-3.9C766.1,752.2,765.1,751.9,763.6,751.9L763.6,751.9z M778.1,755.9
	h5.8v1.8h-5.9L778.1,755.9L778.1,755.9z M806.2,756.4l-0.2,1.3h-3.3l-0.9,6h-1.5l0.9-6H797l-0.9,6h-1.5l0.9-6h-3.3l0.2-1.3h3.3
	l0.7-4.4h-3.3l0.2-1.3h3.3l0.9-5.9h1.5l-0.9,5.9h4.2l0.9-5.9h1.5l-0.9,5.9h3.2l-0.2,1.3h-3.2l-0.7,4.4H806.2L806.2,756.4z
	 M802.1,752h-4.2l-0.7,4.4h4.2L802.1,752z"/>
<path style="&st5;" d="M823.4,761.9v1.8h-13.6v-3.5c0-2,0.4-3.3,1.2-3.9c0.8-0.6,2.6-1.1,5.5-1.4c2.3-0.3,3.7-0.6,4.2-1
	c0.5-0.4,0.7-1.6,0.7-3.4c0-1.6-0.3-2.7-0.8-3.1c-0.5-0.5-1.7-0.7-3.5-0.7c-2.3,0-3.7,0.2-4.3,0.6c-0.6,0.4-0.9,1.3-0.9,2.8l0,1.4
	h-2.1l0-1c0-2.3,0.5-3.8,1.4-4.5c1-0.7,2.9-1.1,5.7-1.1c2.5,0,4.2,0.4,5.1,1.2c0.9,0.8,1.3,2.4,1.3,4.7c0,2.3-0.4,3.8-1.2,4.5
	c-0.8,0.8-2.6,1.3-5.3,1.5c-2.4,0.2-3.8,0.6-4.3,1c-0.5,0.4-0.7,1.6-0.7,3.6v0.6H823.4L823.4,761.9z M849.7,744.9v18.8h-2.1V755h-11
	v8.7h-2.1v-18.8h2.1v8.3h11v-8.3H849.7L849.7,744.9z M860.2,744.7c3.6,0,5.8,0.5,6.7,1.6c0.9,1,1.3,3.6,1.3,7.8
	c0,4.5-0.4,7.2-1.3,8.3c-0.9,1-3.1,1.6-6.7,1.6c-3.6,0-5.9-0.5-6.7-1.6c-0.9-1-1.3-3.7-1.3-8.1v-1.3l0-1.8c0-2.5,0.6-4.2,1.7-5.1
	C855,745.1,857.1,744.7,860.2,744.7L860.2,744.7z M860.2,746.5c-3,0-4.7,0.3-5.2,1c-0.5,0.7-0.8,2.9-0.8,6.8c0,3.9,0.3,6.2,0.8,6.8
	c0.5,0.7,2.2,1,5.2,1c3,0,4.7-0.3,5.2-1c0.5-0.7,0.8-2.9,0.8-6.8V753l0-1.8c0-2.1-0.3-3.4-1-4C864.4,746.7,862.7,746.5,860.2,746.5
	L860.2,746.5z M877.5,744.7c3.6,0,5.8,0.5,6.7,1.6c0.9,1,1.3,3.6,1.3,7.8c0,4.5-0.4,7.2-1.3,8.3c-0.9,1-3.1,1.6-6.7,1.6
	c-3.6,0-5.9-0.5-6.7-1.6c-0.9-1-1.3-3.7-1.3-8.1v-1.3l0-1.8c0-2.5,0.6-4.2,1.7-5.1C872.3,745.1,874.4,744.7,877.5,744.7L877.5,744.7
	z M877.5,746.5c-3,0-4.7,0.3-5.2,1c-0.5,0.7-0.8,2.9-0.8,6.8c0,3.9,0.3,6.2,0.8,6.8c0.5,0.7,2.2,1,5.2,1c3,0,4.7-0.3,5.2-1
	c0.5-0.7,0.8-2.9,0.8-6.8V753l0-1.8c0-2.1-0.3-3.4-1-4C881.7,746.7,880.1,746.5,877.5,746.5L877.5,746.5z M890,744.9v8.2h1.9
	l7.7-8.2h2.7l-8.6,9.1l9.6,9.7h-2.9l-8.6-8.8H890v8.8h-2.1v-18.8H890L890,744.9z M917.8,750h-2.1c0-1.5-0.3-2.5-0.8-2.9
	c-0.5-0.4-1.7-0.6-3.6-0.6c-2.2,0-3.7,0.2-4.3,0.6c-0.6,0.4-1,1.3-1,2.6c0,1.5,0.3,2.4,0.8,2.8c0.5,0.3,2,0.6,4.5,0.7
	c2.9,0.1,4.8,0.5,5.6,1.1c0.8,0.6,1.2,2,1.2,4.1c0,2.3-0.5,3.8-1.4,4.5c-0.9,0.7-2.9,1-6.1,1c-2.7,0-4.5-0.3-5.4-1
	c-0.9-0.7-1.3-2.1-1.3-4.1l0-0.8h2.1v0.5c0,1.7,0.3,2.7,0.8,3.1c0.5,0.4,1.8,0.6,4,0.6c2.4,0,3.9-0.2,4.5-0.6
	c0.6-0.4,0.8-1.5,0.8-3.3c0-1.1-0.2-1.9-0.6-2.3c-0.4-0.4-1.2-0.6-2.4-0.7l-2.2-0.1l-2.1-0.1c-3.2-0.2-4.8-1.9-4.8-5
	c0-2.1,0.5-3.6,1.4-4.3c0.9-0.7,2.8-1.1,5.6-1.1c2.8,0,4.6,0.3,5.5,1C917.4,746.3,917.8,747.8,917.8,750L917.8,750z M926,755.9h5.8
	v1.8H926L926,755.9L926,755.9z M940.7,763.7v-18.8h8.7c2.7,0,4.5,0.6,5.5,1.8c1,1.2,1.4,3.5,1.4,6.8c0,4.1-0.4,6.8-1.3,8.2
	c-0.9,1.4-2.5,2.1-5.1,2.1H940.7L940.7,763.7z M942.8,761.9h6.1c2.2,0,3.7-0.5,4.4-1.3c0.7-0.9,1-2.9,1-6c0-3.4-0.3-5.6-0.8-6.5
	c-0.6-0.9-1.9-1.4-4.1-1.4h-6.6V761.9L942.8,761.9z M961.3,744.9v18.8h-2.1v-18.8H961.3L961.3,744.9z M977.1,744.9h2.3l-6.7,18.8h-3
	l-6.7-18.8h2.3l5,14.2l0.5,1.4c0.2,0.6,0.3,1,0.5,1.4h0c0.3-0.9,0.6-1.9,0.9-2.9L977.1,744.9L977.1,744.9z M982.4,746.7v6.4h9.6v1.8
	h-9.6v7h10v1.8h-12.1v-18.8h12.1v1.8H982.4L982.4,746.7z M1008,750h-2.1c0-1.5-0.3-2.5-0.8-2.9c-0.5-0.4-1.7-0.6-3.6-0.6
	c-2.2,0-3.7,0.2-4.3,0.6c-0.6,0.4-1,1.3-1,2.6c0,1.5,0.3,2.4,0.8,2.8c0.5,0.3,2,0.6,4.5,0.7c2.9,0.1,4.8,0.5,5.6,1.1
	c0.8,0.6,1.2,2,1.2,4.1c0,2.3-0.5,3.8-1.4,4.5c-0.9,0.7-2.9,1-6.1,1c-2.7,0-4.5-0.3-5.4-1c-0.9-0.7-1.3-2.1-1.3-4.1l0-0.8h2.1v0.5
	c0,1.7,0.3,2.7,0.8,3.1c0.5,0.4,1.8,0.6,4,0.6c2.4,0,3.9-0.2,4.5-0.6c0.6-0.4,0.8-1.5,0.8-3.3c0-1.1-0.2-1.9-0.6-2.3
	c-0.4-0.4-1.2-0.6-2.4-0.7l-2.2-0.1l-2.1-0.1c-3.2-0.2-4.8-1.9-4.8-5c0-2.1,0.5-3.6,1.4-4.3c0.9-0.7,2.8-1.1,5.6-1.1
	c2.8,0,4.6,0.3,5.5,1C1007.6,746.3,1008,747.8,1008,750L1008,750z M1024.5,746.8v16.8h-2.1v-16.8h-6.1v-2h14.3v2H1024.5
	L1024.5,746.8z M1039.4,744.7c3.6,0,5.8,0.5,6.7,1.6c0.9,1,1.3,3.6,1.3,7.8c0,4.5-0.4,7.2-1.3,8.3c-0.9,1-3.1,1.6-6.7,1.6
	c-3.6,0-5.9-0.5-6.7-1.6c-0.9-1-1.3-3.7-1.3-8.1v-1.3l0-1.8c0-2.5,0.6-4.2,1.7-5.1C1034.2,745.1,1036.3,744.7,1039.4,744.7
	L1039.4,744.7z M1039.4,746.5c-3,0-4.7,0.3-5.2,1c-0.5,0.7-0.8,2.9-0.8,6.8c0,3.9,0.3,6.2,0.8,6.8c0.5,0.7,2.2,1,5.2,1
	c3,0,4.7-0.3,5.2-1c0.5-0.7,0.8-2.9,0.8-6.8V753l0-1.8c0-2.1-0.3-3.4-1-4C1043.6,746.7,1041.9,746.5,1039.4,746.5L1039.4,746.5z
	 M1069.9,744.9v1.8h-10.6l-0.1,5.7h0c0.7-1,2.4-1.6,5-1.6c2.5,0,4.2,0.4,5.1,1.3c0.9,0.9,1.4,2.5,1.4,4.8c0,2.9-0.4,4.8-1.3,5.6
	c-0.9,0.9-2.7,1.3-5.5,1.3c-2.8,0-4.6-0.3-5.6-1c-0.9-0.7-1.4-1.9-1.4-3.9v-0.7h2c0,1.7,0.3,2.8,0.8,3.2c0.5,0.4,1.9,0.6,4,0.6
	c2.3,0,3.7-0.3,4.2-0.8s0.8-2,0.8-4.3c0-1.9-0.3-3.1-0.8-3.6c-0.6-0.5-1.9-0.8-3.9-0.8c-2.9,0-4.4,0.6-4.7,1.8h-1.9v-9.5H1069.9
	L1069.9,744.9z M1094.8,744.9v18.8h-2.1v-15.1v-1.1l0-0.6l0-0.6h-0.1l-0.2,0.4c-0.1,0.2-0.1,0.4-0.2,0.4l-0.4,0.9l-6.4,15.6h-2.1
	l-6.4-15.4l-0.4-0.9l-0.2-0.4c0-0.1-0.1-0.2-0.2-0.4h-0.1l0,0.5l0,0.5v1v15.1h-2.1v-18.8h3.7l5,12.2l0.8,2l0.4,1l0.4,1h0.1l0.4-1
	c0.2-0.5,0.3-0.8,0.4-1l0.8-2l5-12.2H1094.8L1094.8,744.9z M1100.4,761.1v2.5h-2.1v-2.5H1100.4z"/>
</svg>
