<?xml version="1.0" encoding="utf-8"?>
<!-- Generator: Adobe Illustrator 13.0.0, SVG Export Plug-In  -->
<!DOCTYPE svg PUBLIC "-//W3C//DTD SVG 1.1//EN" "http://www.w3.org/Graphics/SVG/1.1/DTD/svg11.dtd" [
	<!ENTITY ns_flows "http://ns.adobe.com/Flows/1.0/">
	<!ENTITY st0 "fill-rule:evenodd;clip-rule:evenodd;fill:#00AEEF;stroke:#231F20;stroke-width:1.008;stroke-miterlimit:22.9256;">
	<!ENTITY st1 "fill:#EC1C24;">
	<!ENTITY st2 "fill:#231F20;">
	<!ENTITY st3 "fill-rule:evenodd;clip-rule:evenodd;fill:#B8D4F0;">
	<!ENTITY st4 "fill:#FFFFFF;">
	<!ENTITY st5 "fill-rule:evenodd;clip-rule:evenodd;fill:#231F20;">
	<!ENTITY st6 "filter:url(#filter2832);">
]>
<svg version="1.1"
	 xmlns="http://www.w3.org/2000/svg" xmlns:xlink="http://www.w3.org/1999/xlink" xmlns:a="http://ns.adobe.com/AdobeSVGViewerExtensions/3.0/"
	 x="0px" y="0px" width="1300px" height="700px" viewBox="-48.5 -26.4 1300 700"
	 style="enable-background:new -48.5 -26.4 1300 700;" xml:space="preserve">
<defs>
</defs>
<filter  height="1.5" width="1.5" x="-0.25" y="-0.25" id="filter2832" color-interpolation-filters="sRGB">
	<feGaussianBlur  in="SourceAlpha" id="feGaussianBlur2834" result="blur" stdDeviation="9.000000"></feGaussianBlur>
	
		<feColorMatrix  type="matrix" values="1 0 0 0 0 0 1 0 0 0 0 0 1 0 0 0 0 0 0.690000 0 " id="feColorMatrix2836" result="bluralpha">
		</feColorMatrix>
	<feOffset  dx="0.000000" dy="4.000000" in="bluralpha" id="feOffset2838" result="offsetBlur"></feOffset>
	<feMerge  id="feMerge2840">
		<feMergeNode  in="offsetBlur" id="feMergeNode2842"></feMergeNode>
		<feMergeNode  in="SourceGraphic" id="feMergeNode2844"></feMergeNode>
	</feMerge>
</filter>
<g id="rect2830_2_" style="&st6;">
	<path style="&st4;" d="M59.4,1.6h1087.2c31.2,0,56.4,17.7,56.4,39.2v567.6c0,21.8-25.3,39.2-56.4,39.2H59.4
		C28.2,647.7,3,630.1,3,608.5V40.9C2.8,19.1,28.2,1.6,59.4,1.6z"/>
</g>
<path style="&st1;" d="M109.4,109.8c-0.5,0-1.2-0.3-2.1-0.8c-0.9-0.5-2.2-1.4-4-2.6c-1.7-1.2-3.7-2.6-5.9-4.1L65.8,81l-9.4,12.4
	c0,1.1-0.1,1.9-0.4,2.4c-0.3,0.5-0.9,1.3-1.8,2.2c-2.2,2.2-4,3.9-5.5,5.1c-1.5,1.2-2.9,1.8-4.1,1.8c-0.6,0-1.1-0.2-1.5-0.7
	c-0.4-0.5-0.6-1.1-0.6-1.8c0-0.9,0.5-2.2,1.6-3.8l17.2-21.3c-1-1.6-1.5-3.2-1.5-4.9c0-1.7,0.5-3.2,1.4-4.4c1-1.2,2.1-2.2,3.3-2.9
	c1.3-0.7,4.7-2.6,10.4-5.6C83,48.7,87,42.7,87,41.4c0-0.9-0.5-1.3-1.5-1.3c-1.1,0-3.4,0.6-7,1.9c-3.6,1.2-8.4,3.2-14.3,5.8
	c-5.9,2.6-12.8,5.9-20.9,10c-0.7,0.4-1.4,0.5-2.3,0.4c-0.8-0.1-1.6-0.4-2.1-1c-0.6-0.6-0.9-1.4-0.9-2.4c0-0.3,0.1-0.7,0.2-1.1
	c0.1-0.4,0.4-1.1,0.7-2c0.3-0.9,0.6-1.7,0.8-2.4c0.1-0.2,0.3-1.1,0.6-2.5c0.3-1.5,0.8-2.8,1.5-4c0.7-1.2,1.9-2.5,3.6-4
	c1.7-1.4,4.1-3,7.3-4.6c0.6-0.3,1.1-0.6,1.6-0.7c0.5-0.1,0.8,0,0.8,0.4c0,0.1-0.6,0.6-1.7,1.4c-1.1,0.8-2.4,2.2-3.8,4.1
	c11.4-4,19.8-6.8,25.3-8.4c5.4-1.6,9.7-2.4,13-2.4c1.8,0,3.3,1.2,4.5,3.7c1.2,2.4,1.8,4,1.8,4.8c0,1.1-0.4,2.3-1.3,3.7l-9.4,14.1
	c7.4-3.7,13.2-6.6,17.3-8.8c4.1-2.2,8.6-4.5,13.4-7.1c4.8-2.6,7.9-4.2,9.2-4.8c1.3-0.6,2.1-1,2.5-1c0.9,0,1.3,0.4,1.3,1.2
	c0,0.5-0.7,1.8-2,3.8c-1.3,2.1-2.8,4-4.5,5.6c-1.6,1.7-3,2.5-4.1,2.5c-0.3,0-0.6-0.1-1-0.2c-0.4-0.1-0.8-0.3-1.1-0.4
	c-5.3,2.7-11.7,6-19.4,9.7c-7.6,3.8-13.7,6.7-18.1,8.8l-5,7.6l29.7,20.2c2.7,1.8,4.7,3.3,6,4.4c1.2,1.1,2.1,2.3,2.7,3.6
	c0.6,1.3,0.9,2.9,0.9,4.9C111.5,108.2,110.8,109.8,109.4,109.8z"/>
<path style="&st2;" d="M127,68.9V72c-2,1.8-3.7,3.1-4.9,3.7c-1.2,0.6-3,0.9-5.3,0.7c-4,4.7-7.5,7.1-10.6,7.1c-1.7,0-3.3-0.6-4.7-1.7
	c-1.4-1.1-2.6-2.7-3.4-4.7c-0.8-2-1.3-4.2-1.3-6.6c0-2,0.6-4.2,2-6.5s3-4.6,5.1-6.7c2.1-2.1,4.3-3.7,6.7-5c2.4-1.3,4.5-1.9,6.6-1.9
	c1.4,0,2.6,0.2,3.4,0.7c0.8,0.5,1.2,1.1,1.2,1.9c0,0.6-0.3,1.3-1.1,2.1c1.2,0.2,2,0.6,2.4,1.2c0.4,0.6,0.6,1.6,0.6,3.1
	c0,1.5-0.3,3.3-1,5.6c-0.7,2.2-1.6,4.3-2.8,6.3l0.8,0.8h0.7c0.5,0,1-0.1,1.5-0.4c0.5-0.3,1-0.5,1.4-0.8
	C124.8,70.6,125.6,69.9,127,68.9L127,68.9z M117.5,56.8c-2.5,1.5-4.7,2.9-6.5,4.2c-1.8,1.2-3.4,2.5-4.6,3.8
	c-1.3,1.3-2.1,2.6-2.5,3.9c-0.8,3.4-1.2,5.3-1.2,5.6c0,2,1.4,3,4.2,3c1.3,0,3.5-1.1,6.6-3.4c-0.5-1.4-0.8-2.8-0.8-4.2
	c0-1.9,0.4-3.9,1.2-5.9C114.7,61.7,115.9,59.4,117.5,56.8z"/>
<path style="&st2;" d="M156.6,68.9V72c-2,1.8-3.7,3.1-4.9,3.7c-1.2,0.6-3,0.9-5.3,0.7c-4,4.7-7.5,7.1-10.6,7.1
	c-1.7,0-3.3-0.6-4.7-1.7c-1.4-1.1-2.5-2.7-3.4-4.7c-0.9-2-1.3-4.2-1.3-6.6c0-2,0.6-4.2,2-6.5c1.3-2.4,3-4.6,5.1-6.7
	c2.1-2.1,4.3-3.7,6.7-5c2.4-1.3,4.5-1.9,6.6-1.9c1.4,0,2.6,0.2,3.4,0.7c0.8,0.5,1.2,1.1,1.2,1.9c0,0.6-0.3,1.3-1.1,2.1
	c1.2,0.2,2,0.6,2.4,1.2c0.4,0.6,0.6,1.6,0.6,3.1c0,1.5-0.3,3.3-1,5.6c-0.7,2.2-1.6,4.3-2.8,6.3l0.8,0.8h0.7c0.5,0,1-0.1,1.5-0.4
	c0.5-0.3,1-0.5,1.4-0.8C154.3,70.6,155.2,69.9,156.6,68.9L156.6,68.9z M147.1,56.8c-2.5,1.5-4.7,2.9-6.5,4.2
	c-1.8,1.2-3.4,2.5-4.6,3.8c-1.3,1.3-2.1,2.6-2.5,3.9c-0.8,3.4-1.1,5.3-1.1,5.6c0,2,1.4,3,4.2,3c1.3,0,3.5-1.1,6.6-3.4
	c-0.5-1.4-0.8-2.8-0.8-4.2c0-1.9,0.4-3.9,1.2-5.9C144.3,61.7,145.5,59.4,147.1,56.8z"/>
<path style="&st2;" d="M178.5,68.5v3.4c-6.4,8.5-11.6,12.8-15.7,12.8c-2.2,0-3.9-1.2-5.1-3.6c-1.2-2.4-1.9-5.5-1.9-9.4
	c0-3.1,0.7-6.9,2.2-11.2c1.5-4.3,3.4-8.7,5.9-13.1c2.5-4.4,5-8.3,7.7-11.6s5.1-5.6,7.4-6.9c0.9-0.6,1.6-0.8,2.2-0.8
	c0.6,0,1.1,0.3,1.3,0.9c0.2,0.6,0.3,1.5,0.3,2.9c0,4.3-1.7,9.5-5.2,15.8c-3.5,6.2-8.3,12.6-14.5,19.1c-0.3,1.6-0.5,2.8-0.5,3.7
	c0,2,0.4,3.6,1.3,4.8c0.9,1.2,2,1.8,3.5,1.8c0.8,0,1.6-0.3,2.5-0.9c0.9-0.6,1.8-1.4,2.8-2.2C173.7,72.9,175.6,71.1,178.5,68.5
	L178.5,68.5z M164.7,60.2c1.6-1.6,3.1-3.4,4.6-5.4c1.5-2,2.9-4.1,4.2-6.4c1.3-2.3,2.3-4.3,3.1-6.1c0.8-1.8,1.1-3.2,1.1-4.1
	c0-0.7-0.3-1.1-0.7-1.1c-0.2,0-0.5,0.2-1.1,0.5c-1.9,1.5-4,4.5-6.3,9C167.4,51.1,165.7,55.7,164.7,60.2z"/>
<path style="&st2;" d="M183.5,60.8c4.7-4.2,9.2-7.4,13.6-9.5c4.4-2.1,7.8-3.1,10.2-3.1c0.6,0,1.2,0.3,1.8,0.8c0.6,0.5,1,1.2,1.3,1.9
	c0.3,0.7,0.5,1.2,0.5,1.6c0,0.6-0.2,1-0.6,1.2c-0.4,0.3-1.2,0.6-2.3,0.9c0.2,0.5,0.5,1.1,0.8,1.9c0.3,0.8,0.6,1.4,0.8,1.9
	c0.2,0.5,0.3,0.9,0.3,1.3c0,0.7-0.7,2.1-2.2,4.1c-1.5,2-2.5,3.5-3.1,4.4c-0.6,1-0.9,2.1-0.9,3.5c0,2.3,1,3.4,3.1,3.4
	c2.2,0,5.5-2,10.1-6v2.8c-7.8,8.6-13.3,13-16.7,13c-1.2,0-2-0.4-2.6-1.2c-0.5-0.8-0.8-1.9-0.8-3.5c0-2.4,0.9-5.9,2.6-10.6
	c-4.5,5-7.8,8.5-10,10.6c-2.2,2.1-4,3.2-5.4,3.2c-0.7,0-1.5-0.6-2.5-1.7c-1-1.2-1.9-2.7-2.7-4.5c-0.8-1.9-1.2-3.8-1.2-5.8
	c0-1.4,0.1-2.7,0.4-3.6c0.3-1,0.8-2,1.6-3C180.5,63.7,181.8,62.4,183.5,60.8L183.5,60.8z M205.6,55.7c-8,3.7-13.7,6.8-17.1,9.3
	c-3.4,2.5-5.1,5.2-5.1,7.9c0,1,0.2,1.8,0.5,2.4c0.3,0.6,0.8,0.9,1.4,0.9c0.3,0,0.9-0.2,1.8-0.6c3.2-1.9,6.2-4.4,8.9-7.4
	C198.6,65.1,201.8,60.9,205.6,55.7z"/>
<path style="&st2;" d="M247,69.1v3c-3.2,2-5.7,3.1-7.6,3.1c-1,0-2.1-0.2-3.2-0.5c-2.8,3.5-5.1,6.1-7.1,7.7c-2,1.6-4,2.4-6,2.4
	c-2.3,0-4.1-1.2-5.3-3.6c-1.2-2.4-1.9-5.4-1.9-9.1c0-4.9,1.5-10.2,4.4-16c3-5.8,6.5-11.2,10.7-16.2c4.2-5,8.2-9.2,12.1-12.5
	c3.9-3.3,6.5-4.9,7.9-4.9c1.3,0,2,0.9,2,2.7c0,8.1-10.3,22.1-31,42.1c-0.1,0.6-0.1,1.7-0.1,3.3c0,4.2,1.1,6.4,3.4,6.4
	c0.9,0,1.8-0.4,2.7-1.1c0.9-0.7,2.3-2.1,4.2-4.1c-0.7-1.7-1.1-2.9-1.1-3.7c0-1.7,0.7-3.5,2.1-5.5c1.4-2,3-3.7,4.7-5.1
	c1.8-1.4,3.1-2.1,3.9-2.1c1.3,0,1.9,0.9,1.9,2.7c0,1.4-0.4,3-1.1,5c-0.7,1.9-1.8,4.2-3.2,6.6c0.5,0.4,0.9,0.7,1.3,0.9
	c0.3,0.2,0.8,0.3,1.4,0.3C243.4,71,245.1,70.4,247,69.1L247,69.1z M223.5,62.2c1.6-1.4,3.2-3,4.8-4.9c1.6-1.9,4-4.8,7.1-8.7
	c3-3.7,5.3-6.9,7-9.4c1.7-2.5,3-4.6,3.9-6.2c0.9-1.7,1.3-2.8,1.3-3.4c0-0.5-0.1-0.7-0.4-0.7c-0.7,0-2.1,1.1-4.2,3.3
	c-2.1,2.2-4.6,5.3-7.3,9.2c-3.8,5.4-6.5,9.4-8.2,12.1C225.8,56.1,224.5,59,223.5,62.2z"/>
<path style="&st2;" d="M268.7,65.9c-4.5,5.9-7.9,10.1-10.2,12.6c-2.3,2.5-4.2,3.7-5.7,3.7c-1.2,0-2.2-0.5-3.2-1.4
	c-1-1-1.7-2.3-2.3-3.9c-0.5-1.7-0.8-3.4-0.8-5.3c0-1.2,0.1-2.3,0.3-3.3c0.2-1,0.7-2.1,1.3-3.2c0.6-1.2,1.5-2.5,2.6-3.9
	s2.4-3,3.9-4.7c0.9-1.1,1.7-2,2.3-2.7c0.6-0.7,1.2-1.2,1.8-1.5c0.6-0.3,1.6-0.4,2.9-0.4c1,0,1.9,0.1,2.8,0.4
	c0.9,0.3,1.3,0.5,1.3,0.8c0,0.6-0.5,1.6-1.4,3c-0.9,1.4-2.4,3.2-4.4,5.3c-2,2.1-4.3,4.1-7,6.1c-0.6,1.8-0.9,3.2-0.9,4.2
	c0,1.3,0.5,2,1.5,2c0.4,0,1-0.3,1.8-0.9c0.8-0.6,2.3-1.8,4.4-3.6c2-1.8,3.9-3.4,5.5-4.8c1.2-1.1,2.6-2.6,4.2-4.7
	c1.6-2.1,2.9-3.6,3.8-4.7c2.3-2.4,3.8-4,4.7-4.7c0.8-0.7,1.6-1.1,2.4-1.1c0.7,0,1.2,0.2,1.5,0.7c0.3,0.5,0.4,1.4,0.4,2.8
	c0,0.6-0.1,1.2-0.2,1.6c-0.1,0.4-0.4,0.9-0.8,1.5c-0.4,0.6-1.2,1.8-2.3,3.5c-1.2,1.7-2.6,3.7-4.2,6c-0.9,1.2-1.6,2.6-2.3,4
	c-0.6,1.5-1,2.6-1,3.3c0,1.6,0.6,2.4,1.9,2.4c1.1,0,2.3-0.4,3.7-1.3c1.4-0.9,3.5-2.4,6.4-4.7V72c-3.6,3.3-6.3,5.7-8,7.2
	c-1.7,1.5-3.2,2.6-4.5,3.4c-1.3,0.8-2.5,1.2-3.6,1.2c-2.6,0-3.9-1.5-3.9-4.6c0-1.2,0.4-2.8,1.1-4.7
	C265.7,72.5,266.9,69.6,268.7,65.9z"/>
<path style="&st2;" d="M314.4,60.7c-5.4,6-8.1,10.2-8.1,12.6c0,1.3,0.5,2,1.6,2c0.9,0,2.1-0.5,3.5-1.4c1.4-0.9,3.7-2.6,6.7-5V72
	c-4.4,4.3-7.7,7.4-10,9.3s-4.2,2.9-5.7,2.9c-2.5,0-3.8-1.7-3.8-5c0-1,0.2-2,0.5-2.9c0.3-1,0.7-2,1.3-3c0.5-1,1.4-2.5,2.5-4.4
	c1.1-1.9,2.4-4.1,3.8-6.5c-1.7,0.9-4,2.7-6.6,5.3c-1.7,1.7-3.2,3.2-4.4,4.7c-1.2,1.5-2.5,3.1-3.8,5c-1.4,1.8-2.4,3.1-3,3.7
	c-0.6,0.6-1.3,0.9-1.9,0.9c-1,0-1.9-1-2.7-3.1c-0.8-2.1-1.2-4.5-1.2-7.2c0-1.7,0.2-3,0.6-4c0.4-1,1.1-2.3,2.3-4.1
	c2.1-3.3,4-5.7,5.5-7.2c1.5-1.5,3-2.3,4.4-2.3c1,0,1.8,0.2,2.4,0.5c0.6,0.3,0.9,0.8,0.9,1.6c0,0.3-0.1,0.6-0.3,1
	c-0.2,0.3-0.4,0.6-0.6,0.9c-0.2,0.3-0.7,0.8-1.4,1.6c-4.9,5.4-7.3,8.9-7.3,10.5c0,0.9,0.3,1.3,0.9,1.3c0.4,0,1.1-0.6,2.1-1.8
	c1.1-1.2,2.4-2.7,4.1-4.7c1.7-1.9,3.7-3.9,6-6c2.3-2.1,4.9-4.1,7.8-6c1.6-1.1,3-1.7,4-1.7c0.5,0,1,0.7,1.5,2
	c0.5,1.4,0.7,2.7,0.7,4.1C316.4,58.2,315.7,59.3,314.4,60.7z"/>
<path style="&st2;" d="M354.4,72.1l-15.3,12.6c-4.3,7.4-8.2,13-11.8,16.7s-6.2,5.5-7.9,5.5c-0.9,0-1.4-0.6-1.4-1.7
	c0-2.2,1.1-5.1,3.4-8.5c0.9-1.4,1.9-2.7,3.1-4c1.1-1.3,2.2-2.4,3.3-3.4c1-0.9,2.4-2.1,4.1-3.5c1.7-1.4,2.8-2.4,3.5-2.9
	c3.1-6.3,5.3-11.1,6.6-14.4c-2.9,3.1-5.4,5.6-7.6,7.6c-2.1,2-4.1,3.5-5.9,4.5c-1.8,1.1-3.4,1.6-4.9,1.6c-1.6,0-3-1.3-4.3-3.8
	c-1.3-2.5-2-5.1-2-7.7c0-1.2,0.3-2.5,0.8-3.9c0.6-1.4,1.5-2.8,2.7-4.3c1.2-1.5,2.8-3.1,4.6-4.7c1.9-1.6,4.1-3.2,6.6-4.7
	c4.8-3,8.5-4.5,11.1-4.5c2,0,3,0.7,3,2.2c0,2-2.1,4-6.4,5.9c-2.6,1.1-5.2,2.6-7.8,4.5c-2.6,1.9-4.6,3.9-6.2,6
	c-1.6,2.1-2.4,4-2.4,5.7c0,0.8,0.2,1.5,0.6,2c0.4,0.5,0.9,0.7,1.6,0.7c1.1,0,2.3-0.5,3.7-1.5c1.4-1,3.4-2.7,6.1-5.2
	c1.2-1.1,2.9-3,4.9-5.5c2-2.5,3.7-4.5,5.1-5.8c1.3-1.3,2.6-2,3.6-2c0.6,0,1.1,0.2,1.5,0.6c0.4,0.4,0.6,0.9,0.6,1.7
	c0,1.4-0.6,3.5-1.7,6.1c-1.1,2.7-3.1,7.1-6.1,13.2l11.2-8.1V72.1z"/>
<polygon style="&st1;" points="203,93.3 203,115.3 215.4,115.3 215.4,119.8 197.9,119.8 197.9,93.3 "/>
<path style="&st1;" d="M235,93.3h5v17.6c0,3.7-0.7,6.1-2.1,7.3c-1.4,1.2-4.3,1.8-8.7,1.8c-4.6,0-7.7-0.6-9.1-1.7s-2.2-3.5-2.2-7.1
	V93.3h5v17.9c0,2,0.4,3.2,1,3.7c0.7,0.5,2.3,0.8,4.9,0.8c2.7,0,4.3-0.3,5-0.8c0.7-0.5,1-1.8,1-3.9V93.3z"/>
<path style="&st1;" d="M244.7,119.8V93.3h13.1c3.3,0,5.5,0.6,6.7,1.7c1.2,1.1,1.8,3.2,1.8,6.1c0,2.7-0.3,4.5-0.9,5.5
	c-0.6,1-1.9,1.7-3.8,2v0.2c2.9,0.2,4.4,1.9,4.4,5.2v5.8h-5V115c0-2.7-1.3-4.1-4-4.1h-7.2v8.9H244.7L244.7,119.8z M249.7,106.6h7.2
	c1.7,0,2.9-0.3,3.4-0.9c0.6-0.6,0.8-1.9,0.8-3.7c0-1.9-0.2-3.1-0.7-3.7c-0.5-0.5-1.5-0.8-3.2-0.8h-7.6V106.6z"/>
<polygon style="&st1;" points="274.9,97.5 274.9,104.4 287.3,104.4 287.3,108.1 274.9,108.1 274.9,115.6 288.1,115.6 288.1,119.8 
	269.8,119.8 269.8,93.3 288,93.3 288,97.5 "/>
<path style="&st1;" d="M311.5,101h-4.9c0-0.2,0-0.4,0-0.5c-0.1-1.5-0.4-2.4-1-2.8c-0.5-0.4-1.8-0.6-3.8-0.6c-2.4,0-3.9,0.2-4.7,0.7
	c-0.7,0.4-1.1,1.4-1.1,2.8c0,1.7,0.3,2.7,0.9,3c0.6,0.3,2.6,0.6,5.9,0.8c4,0.2,6.5,0.8,7.7,1.7c1.2,0.9,1.7,2.8,1.7,5.7
	c0,3.5-0.7,5.8-2,6.8c-1.4,1-4.4,1.5-9,1.5c-4.2,0-6.9-0.5-8.3-1.5c-1.4-1-2.1-3.1-2.1-6.1l0-1h4.9l0,0.6c0,1.9,0.3,3,1,3.4
	c0.6,0.4,2.4,0.6,5.3,0.6c2.3,0,3.7-0.2,4.3-0.7c0.6-0.5,0.9-1.6,0.9-3.3c0-1.3-0.2-2.1-0.7-2.6c-0.5-0.4-1.5-0.7-3.1-0.8l-2.8-0.2
	c-4.2-0.2-6.9-0.8-8-1.7c-1.2-0.9-1.8-2.9-1.8-5.9c0-3.1,0.7-5.2,2.1-6.2c1.4-1,4.2-1.5,8.4-1.5c4,0,6.7,0.5,8.1,1.4
	c1.4,0.9,2.1,2.8,2.1,5.5V101z"/>
<g>
	<defs>
		<rect id="SVGID_3_" x="856.6" y="12.1" width="320.2" height="130.9"/>
	</defs>
	<clipPath id="SVGID_4_">
		<use xlink:href="#SVGID_3_"  style="overflow:visible;"/>
	</clipPath>
	<g transform="matrix(1 0 0 1 2.635596e-005 2.285776e-007)" style="clip-path:url(#SVGID_4_);">
		
			<image style="overflow:visible;" width="1112" height="454" xlink:href="B0C7A322.jpg"  transform="matrix(0.288 0 0 0.2882 856.6426 12.1167)">
		</image>
	</g>
</g>
<path style="&st0;" d="M948.3,80.7c0,1-0.2,2-0.7,3.1c-0.5,1.1-1.2,2.2-2.2,3.3c-1,1.1-2.3,1.9-3.8,2.6c-1.6,0.7-3.4,1-5.4,1
	c-1.6,0-3-0.1-4.3-0.4c-1.3-0.3-2.4-0.8-3.5-1.4c-1.1-0.6-2.1-1.6-3-2.9c-0.7-0.6-1.3-1.6-1.9-2.7c-0.6-1.2-1-2.4-1.2-3.7
	c-0.3-1.3-0.4-2.7-0.4-4.1c0-2.4,0.3-4.5,1-6.4c0.7-1.9,1.7-3.5,3-4.8c1.3-1.3,2.8-2.4,4.6-3.1c1.7-0.7,3.6-1.1,5.6-1.1
	c2.4,0,4.5,0.5,6.4,1.4c1.9,1,3.3,2.2,4.3,3.6c1,1.4,1.5,2.8,1.5,4.1c0,0.8-0.3,1.5-0.8,2.1c-0.5,0.6-1.2,0.9-2,0.9
	c-0.9,0-1.5-0.2-1.9-0.6c-0.4-0.4-0.6-1-0.6-1.8c-1.2-1.5-2.4-2.6-3.3-3.3c-1-0.7-2.2-1-3.6-1c-2.3,0-4.1,0.9-5.4,2.6
	c-1.3,1.7-2,4.2-2,7.5c0,2.2,0.3,4,0.9,5.4c0.6,1.4,1.4,2.5,2.5,3.2c1.1,0.7,2.4,1,3.8,1c1.6,0,2.9-0.4,4-1.2c1.1-0.8,1.9-2,2.5-3.6
	c0.2-0.7,0.6-1.4,1-1.9c0.4-0.5,1.1-0.8,2.1-0.8c0.8,0,1.5,0.3,2.1,0.8C948,79.2,948.3,79.9,948.3,80.7L948.3,80.7z M966.4,60.1
	c3.1,0,5.7,0.6,7.9,1.9c2.2,1.3,3.9,3,5,5.3c1.1,2.3,1.7,5,1.7,8.1c0,2.3-0.3,4.3-0.9,6.2c-0.6,1.9-1.6,3.5-2.8,4.9
	c-1.2,1.4-2.8,2.4-4.6,3.2c-1.8,0.7-3.9,1.1-6.2,1.1s-4.4-0.4-6.2-1.1c-1.8-0.7-3.4-1.8-4.6-3.2c-1.2-1.4-2.2-3-2.8-4.9
	c-0.6-1.9-0.9-4-0.9-6.2c0-2.3,0.3-4.3,1-6.2c0.6-1.9,1.6-3.5,2.8-4.8c1.2-1.3,2.8-2.4,4.5-3.1C962.2,60.5,964.2,60.1,966.4,60.1
	L966.4,60.1z M974.3,75.3c0-2-0.3-3.8-1-5.3c-0.7-1.5-1.6-2.6-2.8-3.3c-1.2-0.8-2.6-1.1-4.1-1.1c-1.1,0-2.1,0.2-3.1,0.6
	c-0.9,0.4-1.7,1-2.4,1.8c-0.7,0.8-1.2,1.8-1.6,3.1c-0.4,1.3-0.6,2.7-0.6,4.3c0,1.6,0.2,3,0.6,4.3c0.4,1.3,0.9,2.3,1.7,3.2
	c0.7,0.8,1.5,1.4,2.4,1.8c0.9,0.4,1.9,0.6,3.1,0.6c1.4,0,2.7-0.3,3.9-1.1c1.2-0.7,2.1-1.8,2.8-3.3C974,79.4,974.3,77.5,974.3,75.3
	L974.3,75.3z M989.9,60.6h7.6c2,0,3.7,0.2,5.2,0.6c1.5,0.4,2.9,1.2,4.1,2.4c3,2.5,4.5,6.4,4.5,11.8c0,1.7-0.2,3.4-0.5,4.8
	c-0.3,1.5-0.8,2.8-1.4,4c-0.6,1.2-1.4,2.2-2.4,2.9c-0.9,0.9-1.8,1.5-2.8,2c-1,0.4-2,0.7-3,0.9c-1.1,0.2-2.3,0.3-3.7,0.3H990
	c-1.1,0-2-0.2-2.6-0.6c-0.6-0.4-1-0.9-1.2-1.5c-0.2-0.6-0.3-1.5-0.3-2.4V64.6c0-1.4,0.3-2.4,1-3C987.5,60.9,988.5,60.6,989.9,60.6
	L989.9,60.6z M992.6,66v18.7h4c1,0,1.7,0,2.2-0.1c0.5,0,1-0.2,1.6-0.4c0.6-0.2,1-0.4,1.3-0.7c1.9-1.7,2.9-4.5,2.9-8.4
	c0-2.8-0.4-4.8-1.2-6.1c-0.8-1.3-1.8-2.2-3-2.6c-1.2-0.4-2.7-0.5-4.4-0.5H992.6L992.6,66z M1029,90.2h-8.8c-1.4,0-2.4-0.3-3-1
	c-0.6-0.6-0.9-1.7-0.9-3V64.6c0-1.4,0.3-2.4,1-3c0.6-0.6,1.6-1,3-1h9.3c1.4,0,2.6,0.1,3.7,0.3c1,0.2,2.1,0.6,3,1.3
	c0.6,0.3,1.2,0.7,1.7,1.4c0.6,0.7,1,1.4,1.3,2.2c0.3,0.8,0.4,1.6,0.4,2.5c0,3.1-1.4,5.1-4.3,6.3c3.8,1.1,5.7,3.4,5.7,7.1
	c0,1.7-0.4,3.2-1.3,4.6c-0.9,1.4-2.1,2.4-3.7,3.1c-0.8,0.4-1.8,0.6-2.9,0.8C1031.9,90.1,1030.5,90.2,1029,90.2L1029,90.2z
	 M1028.5,77.4h-5.7V85h5.9c3.7,0,5.5-1.3,5.5-3.9c0-1.3-0.5-2.3-1.4-2.8C1031.9,77.7,1030.5,77.4,1028.5,77.4L1028.5,77.4z
	 M1022.9,65.8v6.6h4.9c1.4,0,2.5-0.1,3.2-0.4c0.7-0.2,1.3-0.7,1.6-1.4c0.3-0.5,0.4-1,0.4-1.6c0-1.3-0.5-2.1-1.4-2.6
	c-0.9-0.4-2.4-0.6-4.5-0.6H1022.9L1022.9,65.8z M1062.7,86.9l-1.3-3.5h-11.1l-1.3,3.4c-0.6,1.5-1,2.5-1.5,3.1
	c-0.4,0.6-1.1,0.9-2.1,0.9c-0.8,0-1.6-0.3-2.2-0.9c-0.6-0.6-1-1.3-1-2.1c0-0.4,0.1-0.9,0.2-1.3c0.1-0.4,0.4-1,0.7-1.8l7.4-18.7
	c0.2-0.5,0.5-1.2,0.8-2c0.3-0.8,0.6-1.4,1-1.9c0.4-0.5,0.8-1,1.5-1.3c0.6-0.3,1.3-0.5,2.2-0.5c0.9,0,1.6,0.2,2.2,0.5
	c0.6,0.3,1.1,0.8,1.5,1.3c0.4,0.5,0.6,1,0.9,1.6c0.2,0.5,0.5,1.2,0.8,2.1l7.6,18.8c0.6,1.5,0.9,2.5,0.9,3.2c0,0.8-0.3,1.5-1,2.1
	c-0.6,0.6-1.4,1-2.3,1c-0.5,0-1-0.1-1.4-0.3c-0.4-0.2-0.7-0.4-1-0.8c-0.2-0.3-0.5-0.8-0.8-1.5C1063,87.6,1062.8,87.1,1062.7,86.9
	L1062.7,86.9z M1051.9,78.1h7.8l-3.9-11.1L1051.9,78.1L1051.9,78.1z M1074,86.7V64c0-1.3,0.3-2.3,0.9-2.9c0.6-0.7,1.4-1,2.4-1
	c1,0,1.8,0.3,2.4,1c0.6,0.7,0.9,1.6,0.9,2.9v22.7c0,1.3-0.3,2.3-0.9,3c-0.6,0.7-1.4,1-2.4,1c-1,0-1.8-0.3-2.4-1
	C1074.3,89,1074,88,1074,86.7L1074,86.7z M1105.7,66.2h-6v20.5c0,1.3-0.3,2.3-0.9,3c-0.6,0.7-1.4,1-2.4,1c-1,0-1.8-0.3-2.4-1
	c-0.6-0.7-0.9-1.7-0.9-3V66.2h-6c-1.1,0-1.9-0.3-2.5-0.8c-0.6-0.5-0.8-1.2-0.8-2c0-0.9,0.3-1.6,0.9-2.1c0.6-0.5,1.4-0.8,2.5-0.8
	h18.5c1.1,0,2,0.3,2.5,0.8c0.6,0.5,0.9,1.2,0.9,2c0,0.8-0.3,1.5-0.9,2C1107.6,66,1106.8,66.2,1105.7,66.2z"/>
<g>
	<defs>
		<rect id="SVGID_2_" x="42.8" y="166.7" width="580" height="239"/>
	</defs>
	<clipPath id="SVGID_5_">
		<use xlink:href="#SVGID_2_"  style="overflow:visible;"/>
	</clipPath>
	<g transform="matrix(1 0 0 1 -3.700643e-008 1.537981e-005)" style="clip-path:url(#SVGID_5_);">
		
			<image style="overflow:visible;" width="1678" height="692" xlink:href="B0C7A326.jpg"  transform="matrix(0.3456 0 0 0.3454 42.8398 166.6997)">
		</image>
	</g>
</g>
<polygon style="&st2;" points="160.8,276.9 160.8,288.1 158.6,288.1 158.6,278.8 155.7,281.7 154.5,280.3 158.1,276.9 "/>
<path style="&st2;" d="M173.3,286.4v1.7h-8.5v-2.3c0-1.2,0.2-2,0.6-2.4c0.4-0.4,1.4-0.7,3-1c1.3-0.2,2.1-0.5,2.3-0.6
	c0.2-0.2,0.4-0.7,0.4-1.5c0-0.8-0.1-1.3-0.4-1.5c-0.2-0.2-0.8-0.3-1.7-0.3c-0.9,0-1.5,0.1-1.8,0.3s-0.4,0.7-0.4,1.5v0.5h-2.1v-0.5
	c0-1.4,0.3-2.4,0.9-2.8c0.6-0.5,1.7-0.7,3.4-0.7c1.6,0,2.7,0.2,3.3,0.7c0.6,0.5,0.9,1.4,0.9,2.8c0,1.3-0.2,2.2-0.7,2.6
	c-0.4,0.4-1.5,0.8-3.1,1.1c-1.3,0.2-2.1,0.4-2.3,0.6c-0.2,0.2-0.3,0.6-0.3,1.4v0.3H173.3z"/>
<path style="&st2;" d="M179.7,276.8c2.1,0,3.3,0.3,3.8,0.9c0.5,0.6,0.7,2.2,0.7,4.8c0,2.6-0.2,4.2-0.7,4.8c-0.5,0.6-1.8,0.9-3.8,0.9
	c-2.1,0-3.3-0.3-3.8-0.9c-0.5-0.6-0.7-2.2-0.7-4.8c0-2.6,0.2-4.2,0.7-4.8C176.4,277.1,177.6,276.8,179.7,276.8L179.7,276.8z
	 M179.5,278.7c-1,0-1.6,0.1-1.9,0.4c-0.3,0.3-0.4,0.9-0.4,2l0,1.5l0,1.4c0,1.1,0.1,1.8,0.4,2.1c0.3,0.3,0.9,0.4,2,0.4
	c1.1,0,1.8-0.2,2.1-0.6c0.2-0.4,0.3-1.5,0.3-3.4c0-1.9-0.1-3-0.3-3.3C181.6,278.8,180.8,278.7,179.5,278.7z"/>
<path style="&st2;" d="M185.9,280.3h1.9l0,1.2l0,0c0.4-0.9,1.2-1.3,2.4-1.3c1.4,0,2.2,0.5,2.4,1.5h0c0.4-1,1.2-1.5,2.4-1.5
	c1.8,0,2.7,0.9,2.7,2.7v5.2h-1.9v-4.8c0-1.1-0.5-1.7-1.4-1.7c-1.1,0-1.7,0.6-1.7,1.9v4.6h-1.9v-4.9c0-0.6-0.1-1.1-0.3-1.3
	c-0.2-0.2-0.5-0.3-1.1-0.3c-1.2,0-1.7,0.6-1.7,1.9v4.5h-1.9V280.3z"/>
<path style="&st2;" d="M199.6,280.3h1.9l-0.1,1.2l0,0c0.4-0.9,1.2-1.3,2.4-1.3c1.4,0,2.2,0.5,2.4,1.5h0c0.4-1,1.2-1.5,2.4-1.5
	c1.8,0,2.7,0.9,2.7,2.7v5.2h-1.9v-4.8c0-1.1-0.5-1.7-1.4-1.7c-1.1,0-1.7,0.6-1.7,1.9v4.6h-1.9v-4.9c0-0.6-0.1-1.1-0.3-1.3
	c-0.2-0.2-0.5-0.3-1.1-0.3c-1.2,0-1.7,0.6-1.7,1.9v4.5h-1.9V280.3z"/>
<path style="&st2;" d="M230.7,276.9v11.2h-2.1V282c0-0.5,0-1,0-1.7l0-0.8l0-0.8h-0.1l-0.3,0.8l-0.2,0.8c-0.2,0.7-0.4,1.2-0.5,1.6
	l-2.5,6.3h-1.9l-2.5-6.3c-0.1-0.3-0.3-0.9-0.5-1.6l-0.3-0.8l-0.3-0.8h-0.1l0,0.8l0,0.8c0,0.6,0,1.2,0,1.6v6.1h-2.1v-11.2h3.5l2,5.2
	c0.1,0.4,0.3,0.9,0.5,1.6l0.2,0.8l0.3,0.8h0.1l0.2-0.8l0.2-0.8c0.2-0.6,0.4-1.2,0.5-1.5l2-5.2H230.7z"/>
<path style="&st2;" d="M237.3,276.8c2,0,3.3,0.3,3.9,1c0.6,0.7,0.9,2.2,0.9,4.5c0,2.6-0.3,4.2-0.9,4.8c-0.6,0.7-2,1-4.3,1
	c-2,0-3.4-0.3-3.9-1c-0.6-0.7-0.9-2.1-0.9-4.4c0-2.7,0.3-4.3,0.9-5C233.6,277.2,235,276.8,237.3,276.8L237.3,276.8z M237.1,278.6
	c-1.4,0-2.3,0.2-2.5,0.5c-0.2,0.4-0.4,1.6-0.4,3.8c0,1.6,0.1,2.6,0.4,2.9c0.3,0.3,1.1,0.5,2.5,0.5c1.3,0,2.1-0.2,2.4-0.6
	c0.3-0.4,0.4-1.5,0.4-3.4c0-1.9-0.1-3-0.4-3.3C239.3,278.8,238.5,278.6,237.1,278.6z"/>
<path style="&st2;" d="M243.6,288.1v-11.2h5.5c1.6,0,2.7,0.3,3.3,1c0.6,0.7,0.9,1.9,0.9,3.6c0,2.8-0.3,4.6-0.8,5.4
	c-0.5,0.8-1.6,1.2-3.4,1.2H243.6L243.6,288.1z M245.7,286.3h3c1,0,1.7-0.2,2-0.7c0.3-0.5,0.4-1.5,0.4-3.1c0-1.7-0.1-2.7-0.4-3.2
	c-0.3-0.4-0.9-0.7-1.9-0.7h-3.2V286.3z"/>
<polygon style="&st2;" points="256.7,278.7 256.7,281.6 262,281.6 262,283.2 256.7,283.2 256.7,286.3 262.3,286.3 262.3,288.1 
	254.6,288.1 254.6,276.9 262.3,276.9 262.3,278.7 "/>
<polygon style="&st2;" points="266,276.9 266,286.2 271.3,286.2 271.3,288.1 263.9,288.1 263.9,276.9 "/>
<g>
	<defs>
		<rect id="SVGID_1_" x="700.3" y="256.4" width="426.3" height="175.7"/>
	</defs>
	<clipPath id="SVGID_6_">
		<use xlink:href="#SVGID_1_"  style="overflow:visible;"/>
	</clipPath>
	<g transform="matrix(1 0 0 1 -7.520503e-007 -6.064167e-006)" style="clip-path:url(#SVGID_6_);">
		
			<image style="overflow:visible;" width="1234" height="508" xlink:href="B0C7A321.jpg"  transform="matrix(0.3455 0 0 0.3458 700.2705 256.3911)">
		</image>
	</g>
</g>
<path style="&st2;" d="M776.6,349.5h2.1c0,0.7,0.1,1.1,0.3,1.3c0.2,0.2,0.8,0.2,1.8,0.2c1.1,0,1.7-0.1,2-0.3
	c0.2-0.2,0.3-0.9,0.3-1.9v-1.6h0c-0.4,0.7-1.2,1.1-2.6,1.1c-1.5,0-2.6-0.2-3.1-0.6c-0.5-0.4-0.8-1.3-0.8-2.5c0-1.5,0.3-2.5,0.8-3
	c0.6-0.5,1.6-0.8,3.2-0.8c2.1,0,3.4,0.3,3.8,0.9c0.5,0.6,0.7,2.1,0.7,4.6c0,2.7-0.2,4.3-0.7,5c-0.5,0.6-1.7,0.9-3.8,0.9
	c-1.6,0-2.7-0.2-3.3-0.6c-0.6-0.4-0.9-1.2-0.9-2.3V349.5L776.6,349.5z M780.8,343.1c-0.9,0-1.4,0.1-1.7,0.3
	c-0.2,0.2-0.4,0.7-0.4,1.5c0,0.8,0.1,1.3,0.4,1.4c0.2,0.2,0.8,0.3,1.8,0.3c1,0,1.6-0.1,1.9-0.3c0.3-0.2,0.4-0.6,0.4-1.4
	c0-0.8-0.1-1.3-0.4-1.6C782.5,343.2,781.9,343.1,780.8,343.1z"/>
<path style="&st2;" d="M791.6,341.4c2.1,0,3.3,0.3,3.8,0.9c0.5,0.6,0.7,2.2,0.7,4.8c0,2.6-0.2,4.2-0.7,4.8c-0.5,0.6-1.7,0.9-3.8,0.9
	s-3.3-0.3-3.8-0.9c-0.5-0.6-0.7-2.2-0.7-4.8c0-2.6,0.2-4.2,0.7-4.8C788.3,341.7,789.6,341.4,791.6,341.4L791.6,341.4z M791.4,343.2
	c-1,0-1.6,0.1-1.9,0.4c-0.3,0.3-0.4,0.9-0.4,2l0,1.5l0,1.4c0,1.1,0.1,1.8,0.4,2.1c0.3,0.3,0.9,0.4,2,0.4c1.1,0,1.8-0.2,2.1-0.6
	c0.2-0.4,0.3-1.5,0.3-3.4c0-1.9-0.1-3-0.3-3.3C793.5,343.4,792.7,343.2,791.4,343.2z"/>
<path style="&st2;" d="M797.8,344.8h1.9l0,1.2l0,0c0.4-0.9,1.2-1.3,2.4-1.3c1.4,0,2.2,0.5,2.4,1.4h0c0.4-1,1.2-1.4,2.4-1.4
	c1.8,0,2.7,0.9,2.7,2.7v5.2h-1.9v-4.8c0-1.1-0.5-1.7-1.4-1.7c-1.1,0-1.7,0.6-1.7,1.9v4.6h-1.9v-4.9c0-0.6-0.1-1.1-0.3-1.3
	c-0.2-0.2-0.5-0.3-1.1-0.3c-1.2,0-1.7,0.6-1.7,1.9v4.5h-1.9V344.8z"/>
<path style="&st2;" d="M811.5,344.8h1.9l0,1.2l0,0c0.4-0.9,1.2-1.3,2.4-1.3c1.4,0,2.2,0.5,2.4,1.4h0c0.4-1,1.2-1.4,2.4-1.4
	c1.8,0,2.7,0.9,2.7,2.7v5.2h-1.9v-4.8c0-1.1-0.5-1.7-1.4-1.7c-1.1,0-1.7,0.6-1.7,1.9v4.6h-1.9v-4.9c0-0.6-0.1-1.1-0.3-1.3
	c-0.2-0.2-0.5-0.3-1.1-0.3c-1.2,0-1.7,0.6-1.7,1.9v4.5h-1.9V344.8z"/>
<path style="&st2;" d="M842.6,341.5v11.2h-2.1v-6.1c0-0.5,0-1,0-1.7l0-0.8l0-0.8h-0.1l-0.3,0.8l-0.2,0.8c-0.2,0.7-0.4,1.2-0.5,1.5
	l-2.5,6.3h-1.9l-2.5-6.3c-0.1-0.3-0.3-0.9-0.5-1.6l-0.3-0.8l-0.3-0.8h-0.1l0,0.8l0,0.8c0,0.6,0.1,1.2,0.1,1.6v6.1h-2.1v-11.2h3.5
	l2,5.2c0.1,0.4,0.3,0.9,0.5,1.6l0.2,0.8l0.3,0.8h0.1l0.2-0.8l0.2-0.8c0.2-0.6,0.4-1.2,0.5-1.5l2-5.2H842.6z"/>
<path style="&st2;" d="M849.2,341.4c2,0,3.3,0.3,3.9,1c0.6,0.7,0.9,2.2,0.9,4.5c0,2.6-0.3,4.2-0.9,4.8c-0.6,0.7-2,1-4.3,1
	c-2,0-3.4-0.3-3.9-1s-0.9-2.1-0.9-4.4c0-2.7,0.3-4.3,0.9-5C845.5,341.7,846.9,341.4,849.2,341.4L849.2,341.4z M849.1,343.2
	c-1.4,0-2.3,0.2-2.5,0.5c-0.2,0.4-0.4,1.6-0.4,3.8c0,1.6,0.1,2.6,0.4,2.9c0.3,0.3,1.1,0.5,2.5,0.5c1.3,0,2.1-0.2,2.4-0.6
	c0.3-0.4,0.4-1.5,0.4-3.4c0-1.9-0.1-3-0.4-3.3C851.3,343.4,850.4,343.2,849.1,343.2z"/>
<path style="&st2;" d="M855.5,352.7v-11.2h5.5c1.6,0,2.7,0.3,3.3,1c0.6,0.7,0.9,1.9,0.9,3.6c0,2.8-0.3,4.6-0.8,5.4
	c-0.5,0.8-1.6,1.2-3.4,1.2H855.5L855.5,352.7z M857.6,350.9h3c1,0,1.7-0.2,2-0.7c0.3-0.5,0.4-1.5,0.4-3.1c0-1.7-0.1-2.7-0.4-3.1
	c-0.3-0.4-0.9-0.7-1.9-0.7h-3.2V350.9z"/>
<polygon style="&st2;" points="868.7,343.3 868.7,346.2 873.9,346.2 873.9,347.7 868.7,347.7 868.7,350.9 874.2,350.9 874.2,352.7 
	866.5,352.7 866.5,341.5 874.2,341.5 874.2,343.3 "/>
<polygon style="&st2;" points="877.9,341.5 877.9,350.8 883.2,350.8 883.2,352.7 875.8,352.7 875.8,341.5 "/>
<path style="&st3;" d="M214.8,464.8h781.1c20.2,0,36.8,11,36.8,24.4v108.4c0,13.4-16.5,24.4-36.8,24.4H214.8
	c-20.2,0-36.8-11-36.8-24.4V489.2C178,475.8,194.6,464.8,214.8,464.8z"/>
<path style="&st5;" d="M201.4,477.9v13.5h-1.7v-13.5h-4.9v-1.6h11.5v1.6H201.4L201.4,477.9z M219.9,476.3v15.1h-1.7v-7h-8.8v7h-1.7
	v-15.1h1.7v6.6h8.8v-6.6H219.9L219.9,476.3z M223.9,477.7v5.1h7.6v1.4h-7.6v5.6h8v1.4h-9.7v-15.1h9.7v1.4H223.9L223.9,477.7z
	 M253.4,486.3h1.7v0.6c0,2.1-0.4,3.3-1,3.8c-0.7,0.5-2.5,0.8-5.3,0.8c-2.5,0-4.1-0.5-4.8-1.4c-0.7-0.9-1-3-1-6.4
	c0-2.6,0.1-4.3,0.2-4.9s0.6-1.3,1.3-1.8c0.9-0.6,2.7-0.9,5.5-0.9c1.9,0,3.2,0.3,3.9,0.9c0.7,0.6,1,1.7,1,3.5l0,0.4h-1.7l0-0.5
	c0-1.2-0.2-2-0.6-2.3c-0.4-0.3-1.3-0.5-2.7-0.5c-2.4,0-3.9,0.2-4.4,0.6c-0.5,0.4-0.8,1.5-0.8,3.4c0,4.2,0.2,6.7,0.5,7.4
	c0.4,0.7,1.6,1.1,3.7,1.1c2,0,3.2-0.2,3.7-0.5c0.5-0.3,0.7-1.1,0.7-2.4L253.4,486.3L253.4,486.3z M262.5,476.1
	c2.8,0,4.6,0.4,5.3,1.2c0.7,0.8,1.1,2.9,1.1,6.2c0,3.6-0.3,5.8-1,6.6c-0.7,0.8-2.5,1.3-5.4,1.3c-2.9,0-4.7-0.4-5.4-1.2
	c-0.7-0.8-1-3-1-6.4v-1.1l0-1.4c0-2,0.4-3.4,1.3-4.1C258.4,476.5,260.1,476.1,262.5,476.1L262.5,476.1z M262.5,477.6
	c-2.4,0-3.8,0.3-4.2,0.8c-0.4,0.5-0.6,2.3-0.6,5.4c0,3.1,0.2,4.9,0.6,5.5c0.4,0.5,1.8,0.8,4.2,0.8c2.4,0,3.8-0.3,4.2-0.8
	c0.4-0.5,0.6-2.3,0.6-5.5v-1l0-1.4c0-1.7-0.3-2.7-0.8-3.2C265.9,477.8,264.6,477.6,262.5,477.6L262.5,477.6z M270.9,491.3v-15.1h7
	c2.2,0,3.6,0.5,4.4,1.4c0.8,0.9,1.1,2.8,1.1,5.4c0,3.3-0.3,5.4-1,6.5c-0.7,1.1-2,1.6-4.1,1.6H270.9L270.9,491.3z M272.6,489.9h4.9
	c1.8,0,3-0.4,3.5-1.1c0.5-0.7,0.8-2.3,0.8-4.8c0-2.7-0.2-4.5-0.7-5.2s-1.5-1.1-3.2-1.1h-5.3V489.9L272.6,489.9z M285.6,491.3v-15.1
	h6.7c1.8,0,3.1,0.3,3.6,0.8c0.6,0.5,0.9,1.6,0.9,3.2c0,1.7-0.6,2.7-1.9,3.2v0c1.6,0.4,2.4,1.6,2.4,3.5c0,1.6-0.3,2.7-0.9,3.4
	c-0.6,0.6-1.7,1-3.3,1H285.6L285.6,491.3z M287.3,482.9h4.5c1.4,0,2.3-0.2,2.7-0.5c0.4-0.3,0.6-1.1,0.6-2.3c0-1-0.2-1.7-0.5-2
	c-0.4-0.3-1.1-0.4-2.4-0.4h-4.9V482.9L287.3,482.9z M287.3,489.9h3.6l1.5,0c1.3,0,2.1-0.2,2.5-0.5c0.4-0.3,0.6-1,0.6-2.1
	c0-1.3-0.2-2.2-0.6-2.5c-0.4-0.3-1.5-0.5-3.3-0.5h-4.4V489.9L287.3,489.9z M308.8,488.1h-7.6l-1.2,3.2h-1.8l5.5-15.1h2.4l5.6,15.1
	H310L308.8,488.1L308.8,488.1z M308.3,486.9l-3.3-9.2l-3.3,9.2H308.3L308.3,486.9z M315,476.3v15.1h-1.7v-15.1H315L315,476.3z
	 M323.2,477.9v13.5h-1.7v-13.5h-4.9v-1.6H328v1.6H323.2L323.2,477.9z M340.7,476.3v13.5h7.7v1.6H339v-15.1H340.7L340.7,476.3z
	 M360.2,476.3h1.7v10.5c0,1.9-0.4,3.2-1.2,3.8c-0.8,0.6-2.4,0.9-4.8,0.9c-2.3,0-3.9-0.3-4.7-0.9c-0.8-0.6-1.2-1.7-1.2-3.3v-0.5
	v-10.5h1.7v10.5c0,1.4,0.2,2.3,0.7,2.7c0.5,0.4,1.6,0.5,3.4,0.5c2,0,3.2-0.2,3.7-0.5c0.5-0.4,0.7-1.3,0.7-2.7V476.3L360.2,476.3z
	 M364.8,491.3v-15.1h7.2c1.6,0,2.8,0.3,3.4,1c0.7,0.6,1,1.8,1,3.3c0,1.4-0.2,2.4-0.5,2.9c-0.4,0.5-1,0.9-2.1,1.1v0
	c1.6,0.1,2.4,1.1,2.4,2.9v3.8h-1.7v-3.5c0-1.8-0.8-2.6-2.3-2.6h-0.6h-5.1v6.1H364.8L364.8,491.3z M366.5,483.8h4.9
	c1.3,0,2.2-0.2,2.6-0.6c0.5-0.4,0.7-1.1,0.7-2.2c0-1.4-0.2-2.2-0.5-2.7c-0.4-0.4-1.1-0.6-2.2-0.6h-5.5V483.8L366.5,483.8z
	 M379.9,477.7v5.1h7.6v1.4h-7.6v5.6h8v1.4h-9.7v-15.1h9.7v1.4H379.9L379.9,477.7z M411.8,476.3v15.1h-1.7v-7h-8.8v7h-1.7v-15.1h1.7
	v6.6h8.8v-6.6H411.8L411.8,476.3z M423.9,488.1h-7.6l-1.2,3.2h-1.8l5.5-15.1h2.4l5.6,15.1h-1.8L423.9,488.1L423.9,488.1z
	 M423.4,486.9l-3.3-9.2l-3.3,9.2H423.4L423.4,486.9z M438.7,480.4H437c0-1.2-0.2-2-0.6-2.3c-0.4-0.3-1.4-0.5-2.9-0.5
	c-1.8,0-2.9,0.2-3.4,0.5s-0.8,1-0.8,2.1c0,1.2,0.2,2,0.6,2.2c0.4,0.3,1.6,0.4,3.6,0.5c2.3,0.1,3.8,0.4,4.5,0.9c0.6,0.5,1,1.6,1,3.3
	c0,1.9-0.4,3.1-1.1,3.6c-0.7,0.5-2.3,0.8-4.8,0.8c-2.2,0-3.6-0.3-4.3-0.8c-0.7-0.5-1.1-1.7-1.1-3.3l0-0.7h1.7v0.4
	c0,1.3,0.2,2.2,0.6,2.5c0.4,0.3,1.5,0.5,3.2,0.5c1.9,0,3.1-0.2,3.6-0.5c0.4-0.3,0.7-1.2,0.7-2.6c0-0.9-0.2-1.5-0.5-1.8
	c-0.3-0.3-0.9-0.5-1.9-0.5l-1.8-0.1l-1.7-0.1c-2.6-0.2-3.8-1.5-3.8-4c0-1.7,0.4-2.9,1.1-3.4c0.7-0.6,2.2-0.9,4.4-0.9
	c2.2,0,3.7,0.3,4.4,0.8C438.4,477.5,438.7,478.6,438.7,480.4L438.7,480.4z M450.5,491.3v-15.1h6.7c1.8,0,3.1,0.3,3.6,0.8
	c0.6,0.5,0.9,1.6,0.9,3.2c0,1.7-0.6,2.7-1.9,3.2v0c1.6,0.4,2.4,1.6,2.4,3.5c0,1.6-0.3,2.7-0.9,3.4s-1.7,1-3.3,1H450.5L450.5,491.3z
	 M452.2,482.9h4.5c1.4,0,2.3-0.2,2.7-0.5c0.4-0.3,0.6-1.1,0.6-2.3c0-1-0.2-1.7-0.5-2c-0.4-0.3-1.1-0.4-2.4-0.4h-4.9V482.9
	L452.2,482.9z M452.2,489.9h3.6l1.5,0c1.3,0,2.1-0.2,2.5-0.5c0.4-0.3,0.6-1,0.6-2.1c0-1.3-0.2-2.2-0.6-2.5c-0.4-0.3-1.5-0.5-3.3-0.5
	h-4.4V489.9L452.2,489.9z M465.6,477.7v5.1h7.6v1.4h-7.6v5.6h8v1.4h-9.7v-15.1h9.7v1.4H465.6L465.6,477.7z M476.8,477.7v5.1h7.6v1.4
	h-7.6v5.6h8v1.4h-9.7v-15.1h9.7v1.4H476.8L476.8,477.7z M499.8,476.3v15.1H497l-6.3-10.2l-1-1.7l-0.5-0.8l-0.5-0.8h0l0,0.6l0,0.6
	v1.1v11.3H487v-15.1h2.8l5.5,9l1.4,2.4l0.7,1.2l0.7,1.2h0l0-0.6l0-0.6v-1.1v-11.4H499.8L499.8,476.3z M512.2,491.3v-15.1h7
	c2.2,0,3.6,0.5,4.4,1.4c0.8,0.9,1.1,2.8,1.1,5.4c0,3.3-0.3,5.4-1,6.5c-0.7,1.1-2,1.6-4.1,1.6H512.2L512.2,491.3z M513.9,489.9h4.9
	c1.8,0,3-0.4,3.5-1.1c0.5-0.7,0.8-2.3,0.8-4.8c0-2.7-0.2-4.5-0.7-5.2c-0.5-0.7-1.5-1.1-3.2-1.1h-5.3V489.9L513.9,489.9z
	 M528.1,477.7v5.1h7.6v1.4h-7.6v5.6h8v1.4h-9.7v-15.1h9.7v1.4H528.1L528.1,477.7z M548.5,480.4h-1.7c0-1.2-0.2-2-0.6-2.3
	c-0.4-0.3-1.4-0.5-2.9-0.5c-1.8,0-2.9,0.2-3.4,0.5s-0.8,1-0.8,2.1c0,1.2,0.2,2,0.6,2.2c0.4,0.3,1.6,0.4,3.6,0.5
	c2.3,0.1,3.8,0.4,4.5,0.9c0.6,0.5,1,1.6,1,3.3c0,1.9-0.4,3.1-1.1,3.6c-0.7,0.5-2.3,0.8-4.8,0.8c-2.2,0-3.6-0.3-4.3-0.8
	c-0.7-0.5-1.1-1.7-1.1-3.3l0-0.7h1.7v0.4c0,1.3,0.2,2.2,0.6,2.5c0.4,0.3,1.5,0.5,3.2,0.5c1.9,0,3.1-0.2,3.6-0.5
	c0.4-0.3,0.7-1.2,0.7-2.6c0-0.9-0.2-1.5-0.5-1.8c-0.3-0.3-0.9-0.5-1.9-0.5l-1.8-0.1l-1.7-0.1c-2.6-0.2-3.8-1.5-3.8-4
	c0-1.7,0.4-2.9,1.1-3.4c0.7-0.6,2.2-0.9,4.4-0.9c2.2,0,3.7,0.3,4.4,0.8C548.2,477.5,548.5,478.6,548.5,480.4L548.5,480.4z
	 M552.5,476.3v15.1h-1.7v-15.1H552.5L552.5,476.3z M560.8,483.8h6.5c0,0.4,0,0.9,0,1.6c0,2.7-0.3,4.4-1,5s-2.4,1-5.2,1
	c-2.7,0-4.4-0.4-5.1-1.1c-0.8-0.8-1.1-2.5-1.1-5.1l0-2.2l0-1.3c0-2.2,0.4-3.7,1.3-4.4c0.8-0.7,2.5-1.1,5.1-1.1c2.6,0,4.2,0.2,5,0.7
	c0.7,0.5,1.1,1.6,1.1,3.2v0.6h-1.7v-0.4c0-1.2-0.2-2-0.8-2.3c-0.5-0.3-1.8-0.4-3.9-0.4c-2,0-3.2,0.2-3.7,0.7
	c-0.5,0.5-0.7,1.6-0.7,3.5l0,2l0,2.1c0,1.9,0.3,3.1,0.8,3.5c0.5,0.4,2,0.7,4.4,0.7c1.8,0,2.9-0.2,3.4-0.6c0.4-0.4,0.6-1.5,0.6-3.2
	c0-0.1,0-0.4-0.1-0.9h-4.8V483.8L560.8,483.8z M582.3,476.3v15.1h-2.8l-6.3-10.2l-1-1.7l-0.5-0.8l-0.5-0.8h0l0,0.6l0,0.6v1.1v11.3
	h-1.7v-15.1h2.8l5.5,9l1.4,2.4l0.7,1.2l0.7,1.2h0l0-0.6l0-0.6v-1.1v-11.4H582.3L582.3,476.3z M586.2,477.7v5.1h7.6v1.4h-7.6v5.6h8
	v1.4h-9.7v-15.1h9.7v1.4H586.2L586.2,477.7z M596.4,491.3v-15.1h7c2.2,0,3.6,0.5,4.4,1.4c0.8,0.9,1.1,2.8,1.1,5.4
	c0,3.3-0.3,5.4-1,6.5c-0.7,1.1-2,1.6-4.1,1.6H596.4L596.4,491.3z M598.1,489.9h4.9c1.8,0,3-0.4,3.5-1.1c0.5-0.7,0.8-2.3,0.8-4.8
	c0-2.7-0.2-4.5-0.7-5.2c-0.5-0.7-1.5-1.1-3.2-1.1h-5.3V489.9L598.1,489.9z M631,480.4h-1.7c0-1.2-0.2-2-0.6-2.3
	c-0.4-0.3-1.4-0.5-2.9-0.5c-1.8,0-2.9,0.2-3.4,0.5c-0.5,0.3-0.8,1-0.8,2.1c0,1.2,0.2,2,0.6,2.2c0.4,0.3,1.6,0.4,3.6,0.5
	c2.3,0.1,3.8,0.4,4.5,0.9c0.6,0.5,1,1.6,1,3.3c0,1.9-0.4,3.1-1.1,3.6c-0.7,0.5-2.3,0.8-4.8,0.8c-2.2,0-3.6-0.3-4.3-0.8
	c-0.7-0.5-1.1-1.7-1.1-3.3l0-0.7h1.7v0.4c0,1.3,0.2,2.2,0.6,2.5c0.4,0.3,1.5,0.5,3.2,0.5c1.9,0,3.1-0.2,3.6-0.5
	c0.4-0.3,0.7-1.2,0.7-2.6c0-0.9-0.2-1.5-0.5-1.8c-0.3-0.3-0.9-0.5-1.9-0.5l-1.8-0.1l-1.7-0.1c-2.6-0.2-3.8-1.5-3.8-4
	c0-1.7,0.4-2.9,1.1-3.4c0.7-0.6,2.2-0.9,4.4-0.9c2.2,0,3.7,0.3,4.4,0.8C630.6,477.5,631,478.6,631,480.4L631,480.4z M633.3,491.3
	v-15.1h6.3h0.6c1.7,0,2.9,0.3,3.5,1c0.6,0.7,0.9,1.9,0.9,3.7c0,1.7-0.3,2.9-1,3.5c-0.6,0.6-1.9,0.9-3.6,0.9l-0.7,0H635v5.9H633.3
	L633.3,491.3z M635,484h4c1.7,0,2.8-0.2,3.2-0.5c0.5-0.3,0.7-1.1,0.7-2.4c0-1.5-0.2-2.4-0.5-2.8c-0.3-0.4-1.1-0.6-2.3-0.6l-0.7,0
	H635V484L635,484z M647.7,477.7v5.1h7.6v1.4h-7.6v5.6h8v1.4H646v-15.1h9.7v1.4H647.7L647.7,477.7z M667.7,486.3h1.7v0.6
	c0,2.1-0.3,3.3-1,3.8c-0.7,0.5-2.5,0.8-5.3,0.8c-2.5,0-4.1-0.5-4.8-1.4c-0.7-0.9-1-3-1-6.4c0-2.6,0.1-4.3,0.2-4.9
	c0.2-0.7,0.6-1.3,1.3-1.8c0.9-0.6,2.7-0.9,5.5-0.9c1.9,0,3.2,0.3,3.9,0.9c0.7,0.6,1,1.7,1,3.5l0,0.4h-1.7l0-0.5c0-1.2-0.2-2-0.6-2.3
	c-0.4-0.3-1.3-0.5-2.7-0.5c-2.4,0-3.9,0.2-4.4,0.6c-0.5,0.4-0.8,1.5-0.8,3.4c0,4.2,0.2,6.7,0.5,7.4c0.4,0.7,1.6,1.1,3.7,1.1
	c2,0,3.2-0.2,3.7-0.5c0.5-0.3,0.7-1.1,0.7-2.4L667.7,486.3L667.7,486.3z M673,476.3v15.1h-1.7v-15.1H673L673,476.3z M677.6,477.7
	v5.3h7.3v1.4h-7.3v6.9h-1.7v-15.1h9.2v1.4H677.6L677.6,477.7z M688.7,476.3v15.1H687v-15.1H688.7L688.7,476.3z M701.5,486.3h1.7v0.6
	c0,2.1-0.4,3.3-1,3.8c-0.7,0.5-2.5,0.8-5.3,0.8c-2.5,0-4.1-0.5-4.8-1.4c-0.7-0.9-1-3-1-6.4c0-2.6,0.1-4.3,0.2-4.9s0.6-1.3,1.3-1.8
	c0.9-0.6,2.7-0.9,5.5-0.9c1.9,0,3.2,0.3,3.9,0.9c0.7,0.6,1,1.7,1,3.5l0,0.4h-1.7l0-0.5c0-1.2-0.2-2-0.6-2.3
	c-0.4-0.3-1.3-0.5-2.7-0.5c-2.4,0-3.9,0.2-4.4,0.6c-0.5,0.4-0.8,1.5-0.8,3.4c0,4.2,0.2,6.7,0.5,7.4c0.4,0.7,1.6,1.1,3.7,1.1
	c2,0,3.2-0.2,3.7-0.5c0.5-0.3,0.7-1.1,0.7-2.4L701.5,486.3L701.5,486.3z M714.3,488.1h-7.6l-1.2,3.2h-1.8l5.5-15.1h2.4l5.6,15.1
	h-1.8L714.3,488.1L714.3,488.1z M713.8,486.9l-3.3-9.2l-3.3,9.2H713.8L713.8,486.9z M720.5,476.3v13.5h7.7v1.6h-9.4v-15.1H720.5
	L720.5,476.3z M731.4,476.3v13.5h7.7v1.6h-9.4v-15.1H731.4L731.4,476.3z M752.1,476.3h-2l-3.2,5.1l-0.6,1l-0.3,0.5
	c-0.1,0.1-0.2,0.3-0.3,0.5h0l-0.3-0.5c-0.1-0.2-0.2-0.4-0.3-0.5l-0.6-1l-3.2-5.1h-2l5.5,8.8v6.3h1.7V485L752.1,476.3L752.1,476.3z
	 M764.6,477.7v5.3h7.3v1.4h-7.3v6.9h-1.7v-15.1h9.2v1.4H764.6L764.6,477.7z M779.5,476.1c2.8,0,4.6,0.4,5.3,1.2
	c0.7,0.8,1.1,2.9,1.1,6.2c0,3.6-0.3,5.8-1,6.6c-0.7,0.8-2.5,1.3-5.4,1.3c-2.9,0-4.7-0.4-5.4-1.2c-0.7-0.8-1-3-1-6.4v-1.1l0-1.4
	c0-2,0.4-3.4,1.3-4.1C775.3,476.5,777,476.1,779.5,476.1L779.5,476.1z M779.4,477.6c-2.4,0-3.8,0.3-4.2,0.8
	c-0.4,0.5-0.6,2.3-0.6,5.4c0,3.1,0.2,4.9,0.6,5.5c0.4,0.5,1.8,0.8,4.2,0.8c2.4,0,3.8-0.3,4.2-0.8c0.4-0.5,0.6-2.3,0.6-5.5v-1l0-1.4
	c0-1.7-0.3-2.7-0.8-3.2C782.8,477.8,781.5,477.6,779.4,477.6L779.4,477.6z M787.8,491.3v-15.1h7.2c1.6,0,2.8,0.3,3.4,1
	c0.7,0.6,1,1.8,1,3.3c0,1.4-0.2,2.4-0.5,2.9c-0.4,0.5-1,0.9-2.1,1.1v0c1.6,0.1,2.4,1.1,2.4,2.9v3.8h-1.7v-3.5c0-1.8-0.8-2.6-2.3-2.6
	h-0.6h-5.1v6.1H787.8L787.8,491.3z M789.5,483.8h4.9c1.3,0,2.2-0.2,2.6-0.6c0.5-0.4,0.7-1.1,0.7-2.2c0-1.4-0.2-2.2-0.5-2.7
	c-0.4-0.4-1.1-0.6-2.2-0.6h-5.5V483.8L789.5,483.8z M827.9,476.3v15.1h-1.7v-12v-0.9l0-0.5l0-0.5h0l-0.1,0.4
	c-0.1,0.2-0.1,0.3-0.1,0.3l-0.3,0.7l-5.1,12.5h-1.7l-5.1-12.3l-0.3-0.7l-0.1-0.4c0-0.1-0.1-0.2-0.1-0.3h0l0,0.4l0,0.4v0.8v12h-1.7
	v-15.1h2.9l4,9.7l0.6,1.6l0.3,0.8l0.3,0.8h0l0.3-0.8c0.2-0.4,0.3-0.6,0.3-0.8l0.6-1.6l4-9.7H827.9L827.9,476.3z M841,476.3h1.7v10.5
	c0,1.9-0.4,3.2-1.2,3.8c-0.8,0.6-2.4,0.9-4.8,0.9c-2.3,0-3.9-0.3-4.7-0.9c-0.8-0.6-1.2-1.7-1.2-3.3v-0.5v-10.5h1.7v10.5
	c0,1.4,0.2,2.3,0.7,2.7c0.5,0.4,1.6,0.5,3.4,0.5c2,0,3.2-0.2,3.7-0.5c0.5-0.4,0.7-1.3,0.7-2.7V476.3L841,476.3z M845.5,491.3v-15.1
	h7.2c1.6,0,2.8,0.3,3.4,1c0.7,0.6,1,1.8,1,3.3c0,1.4-0.2,2.4-0.5,2.9c-0.4,0.5-1,0.9-2.1,1.1v0c1.6,0.1,2.4,1.1,2.4,2.9v3.8h-1.7
	v-3.5c0-1.8-0.8-2.6-2.3-2.6h-0.6h-5.1v6.1H845.5L845.5,491.3z M847.2,483.8h4.9c1.3,0,2.2-0.2,2.6-0.6c0.5-0.4,0.7-1.1,0.7-2.2
	c0-1.4-0.2-2.2-0.5-2.7c-0.4-0.4-1.1-0.6-2.2-0.6h-5.5V483.8L847.2,483.8z M859.6,491.3v-15.1h7.2c1.6,0,2.8,0.3,3.4,1
	c0.7,0.6,1,1.8,1,3.3c0,1.4-0.2,2.4-0.5,2.9c-0.4,0.5-1,0.9-2.1,1.1v0c1.6,0.1,2.4,1.1,2.4,2.9v3.8h-1.7v-3.5c0-1.8-0.8-2.6-2.3-2.6
	h-0.6h-5.1v6.1H859.6L859.6,491.3z M861.3,483.8h4.9c1.3,0,2.2-0.2,2.6-0.6c0.5-0.4,0.7-1.1,0.7-2.2c0-1.4-0.2-2.2-0.5-2.7
	c-0.4-0.4-1.1-0.6-2.2-0.6h-5.5V483.8L861.3,483.8z M882.9,488.1h-7.6l-1.2,3.2h-1.8l5.5-15.1h2.4l5.6,15.1h-1.8L882.9,488.1
	L882.9,488.1z M882.4,486.9l-3.3-9.2l-3.3,9.2H882.4L882.4,486.9z M898.8,476.3h-2l-3.2,5.1l-0.6,1l-0.3,0.5
	c-0.1,0.1-0.2,0.3-0.3,0.5h0l-0.3-0.5c-0.1-0.2-0.2-0.4-0.3-0.5l-0.6-1l-3.2-5.1h-2l5.5,8.8v6.3h1.7V485L898.8,476.3L898.8,476.3z
	 M919.5,486.3h1.7v0.6c0,2.1-0.4,3.3-1,3.8c-0.7,0.5-2.5,0.8-5.3,0.8c-2.5,0-4.1-0.5-4.8-1.4c-0.7-0.9-1-3-1-6.4
	c0-2.6,0.1-4.3,0.2-4.9s0.6-1.3,1.3-1.8c0.9-0.6,2.7-0.9,5.5-0.9c1.9,0,3.2,0.3,3.9,0.9c0.7,0.6,1,1.7,1,3.5l0,0.4h-1.7l0-0.5
	c0-1.2-0.2-2-0.6-2.3c-0.4-0.3-1.3-0.5-2.7-0.5c-2.4,0-3.9,0.2-4.4,0.6c-0.5,0.4-0.8,1.5-0.8,3.4c0,4.2,0.2,6.7,0.5,7.4
	c0.4,0.7,1.6,1.1,3.7,1.1c2,0,3.2-0.2,3.7-0.5c0.5-0.3,0.7-1.1,0.7-2.4L919.5,486.3L919.5,486.3z M928.6,476.1
	c2.8,0,4.6,0.4,5.3,1.2c0.7,0.8,1.1,2.9,1.1,6.2c0,3.6-0.3,5.8-1,6.6c-0.7,0.8-2.5,1.3-5.4,1.3c-2.9,0-4.7-0.4-5.4-1.2
	c-0.7-0.8-1-3-1-6.4v-1.1l0-1.4c0-2,0.4-3.4,1.3-4.1C924.5,476.5,926.1,476.1,928.6,476.1L928.6,476.1z M928.6,477.6
	c-2.4,0-3.8,0.3-4.2,0.8c-0.4,0.5-0.6,2.3-0.6,5.4c0,3.1,0.2,4.9,0.6,5.5c0.4,0.5,1.8,0.8,4.2,0.8c2.4,0,3.8-0.3,4.2-0.8
	c0.4-0.5,0.6-2.3,0.6-5.5v-1l0-1.4c0-1.7-0.3-2.7-0.8-3.2C932,477.8,930.7,477.6,928.6,477.6L928.6,477.6z M937,491.3v-15.1h7
	c2.2,0,3.6,0.5,4.4,1.4c0.8,0.9,1.1,2.8,1.1,5.4c0,3.3-0.3,5.4-1,6.5c-0.7,1.1-2,1.6-4.1,1.6H937L937,491.3z M938.7,489.9h4.9
	c1.8,0,3-0.4,3.5-1.1c0.5-0.7,0.8-2.3,0.8-4.8c0-2.7-0.2-4.5-0.7-5.2c-0.5-0.7-1.5-1.1-3.2-1.1h-5.3V489.9L938.7,489.9z
	 M953.4,489.3v2.2c0,1.4-0.5,2.1-1.5,2.1c-0.1,0-0.2,0-0.4,0v-0.8c0.6,0,0.9-0.4,0.9-1l0-0.4h-0.7v-2H953.4L953.4,489.3z
	 M986.8,476.3l-4.7,15.1h-2.6l-3.2-10.8l-0.4-1.4c0-0.1-0.1-0.3-0.2-0.7l-0.2-0.7h0l-0.2,0.7l-0.2,0.7l-0.4,1.4l-3.2,10.8h-2.5
	l-4.6-15.1h1.7l3.2,10.8l0.4,1.5c0,0.1,0.1,0.4,0.2,0.7l0.2,0.7h0l0.2-0.7l0.2-0.7l0.4-1.5l3.2-10.8h2.5l3.2,10.8l0.4,1.4l0.2,0.7
	l0.2,0.7h0l0.2-0.7l0.2-0.7l0.5-1.5l3.3-10.8H986.8L986.8,476.3z M989.9,476.3v15.1h-1.7v-15.1H989.9L989.9,476.3z M998.1,477.9
	v13.5h-1.7v-13.5h-4.9v-1.6h11.5v1.6H998.1L998.1,477.9z M1016.7,476.3v15.1h-1.7v-7h-8.8v7h-1.7v-15.1h1.7v6.6h8.8v-6.6H1016.7
	L1016.7,476.3z M205.4,511.2h-7.6l-1.2,3.2h-1.8l5.5-15.1h2.4l5.6,15.1h-1.8L205.4,511.2L205.4,511.2z M204.9,509.9l-3.3-9.2
	l-3.3,9.2H204.9L204.9,509.9z M222.8,514.4v-15.1h7.2c1.6,0,2.8,0.3,3.4,1c0.7,0.6,1,1.8,1,3.3c0,1.4-0.2,2.4-0.5,2.9
	c-0.4,0.5-1,0.9-2.1,1.1v0c1.6,0.1,2.4,1.1,2.4,2.9v3.8h-1.7v-3.5c0-1.8-0.8-2.6-2.3-2.6h-0.6h-5.1v6.1H222.8L222.8,514.4z
	 M224.5,506.9h4.9c1.3,0,2.2-0.2,2.6-0.6c0.5-0.4,0.7-1.1,0.7-2.2c0-1.4-0.2-2.2-0.5-2.7c-0.4-0.4-1.1-0.6-2.2-0.6h-5.5V506.9
	L224.5,506.9z M246.2,511.2h-7.6l-1.2,3.2h-1.8l5.5-15.1h2.4l5.6,15.1h-1.8L246.2,511.2L246.2,511.2z M245.7,509.9l-3.3-9.2
	l-3.3,9.2H245.7L245.7,509.9z M263.5,499.4v15.1h-2.8l-6.3-10.2l-1-1.7l-0.5-0.8l-0.5-0.8h0l0,0.6l0,0.6v1.1v11.3h-1.7v-15.1h2.8
	l5.5,9l1.4,2.4l0.7,1.2l0.7,1.2h0l0-0.6l0-0.6v-1.1v-11.4H263.5L263.5,499.4z M271.7,506.9h6.5c0,0.4,0,0.9,0,1.6c0,2.7-0.3,4.4-1,5
	c-0.7,0.6-2.4,1-5.2,1c-2.7,0-4.4-0.4-5.1-1.1c-0.8-0.8-1.1-2.5-1.1-5.1l0-2.2l0-1.3c0-2.2,0.4-3.7,1.3-4.4c0.8-0.7,2.5-1.1,5.1-1.1
	c2.6,0,4.2,0.2,5,0.7c0.7,0.5,1.1,1.6,1.1,3.2v0.6h-1.7v-0.4c0-1.2-0.2-2-0.8-2.3c-0.5-0.3-1.8-0.4-3.9-0.4c-2,0-3.2,0.2-3.7,0.7
	s-0.7,1.6-0.7,3.5l0,2l0,2.1c0,1.9,0.3,3.1,0.8,3.5c0.5,0.4,2,0.7,4.4,0.7c1.8,0,2.9-0.2,3.4-0.6c0.4-0.4,0.6-1.5,0.6-3.2
	c0-0.1,0-0.4-0.1-0.9h-4.8V506.9L271.7,506.9z M281.5,500.8v5.1h7.6v1.4h-7.6v5.6h8v1.4h-9.7v-15.1h9.7v1.4H281.5L281.5,500.8z
	 M310.1,499.2c2.8,0,4.6,0.4,5.3,1.2c0.7,0.8,1.1,2.9,1.1,6.2c0,3.6-0.3,5.8-1,6.6c-0.7,0.8-2.5,1.3-5.4,1.3c-2.9,0-4.7-0.4-5.4-1.2
	c-0.7-0.8-1-3-1-6.4v-1.1l0-1.4c0-2,0.4-3.4,1.3-4.1C305.9,499.6,307.6,499.2,310.1,499.2L310.1,499.2z M310.1,500.6
	c-2.4,0-3.8,0.3-4.2,0.8c-0.4,0.5-0.6,2.3-0.6,5.4c0,3.1,0.2,4.9,0.6,5.5c0.4,0.5,1.8,0.8,4.2,0.8c2.4,0,3.8-0.3,4.2-0.8
	c0.4-0.5,0.6-2.3,0.6-5.5v-1l0-1.4c0-1.7-0.3-2.7-0.8-3.2C313.5,500.9,312.1,500.6,310.1,500.6L310.1,500.6z M320.1,500.8v5.3h7.3
	v1.4h-7.3v6.9h-1.7v-15.1h9.2v1.4H320.1L320.1,500.8z M352.3,509.4h1.7v0.6c0,2.1-0.4,3.3-1,3.8c-0.7,0.5-2.5,0.8-5.3,0.8
	c-2.5,0-4.1-0.5-4.8-1.4c-0.7-0.9-1-3-1-6.4c0-2.6,0.1-4.2,0.2-4.9s0.6-1.3,1.3-1.8c0.9-0.6,2.7-0.9,5.5-0.9c1.9,0,3.2,0.3,3.9,0.9
	c0.7,0.6,1,1.7,1,3.5l0,0.4h-1.7l0-0.5c0-1.2-0.2-2-0.6-2.3c-0.4-0.3-1.3-0.5-2.7-0.5c-2.4,0-3.9,0.2-4.4,0.6
	c-0.5,0.4-0.8,1.5-0.8,3.4c0,4.2,0.2,6.7,0.5,7.4c0.4,0.7,1.6,1.1,3.7,1.1c2,0,3.2-0.2,3.7-0.5c0.5-0.3,0.7-1.1,0.7-2.4L352.3,509.4
	L352.3,509.4z M361.4,499.2c2.8,0,4.6,0.4,5.3,1.2c0.7,0.8,1.1,2.9,1.1,6.2c0,3.6-0.3,5.8-1,6.6c-0.7,0.8-2.5,1.3-5.4,1.3
	c-2.9,0-4.7-0.4-5.4-1.2c-0.7-0.8-1-3-1-6.4v-1.1l0-1.4c0-2,0.4-3.4,1.3-4.1C357.3,499.6,359,499.2,361.4,499.2L361.4,499.2z
	 M361.4,500.6c-2.4,0-3.8,0.3-4.2,0.8c-0.4,0.5-0.6,2.3-0.6,5.4c0,3.1,0.2,4.9,0.6,5.5c0.4,0.5,1.8,0.8,4.2,0.8
	c2.4,0,3.8-0.3,4.2-0.8c0.4-0.5,0.6-2.3,0.6-5.5v-1l0-1.4c0-1.7-0.3-2.7-0.8-3.2C364.8,500.9,363.5,500.6,361.4,500.6L361.4,500.6z
	 M371.5,499.4v13.5h7.7v1.6h-9.4v-15.1H371.5L371.5,499.4z M386.2,499.2c2.8,0,4.6,0.4,5.3,1.2c0.7,0.8,1.1,2.9,1.1,6.2
	c0,3.6-0.3,5.8-1,6.6c-0.7,0.8-2.5,1.3-5.4,1.3c-2.9,0-4.7-0.4-5.4-1.2c-0.7-0.8-1-3-1-6.4v-1.1l0-1.4c0-2,0.4-3.4,1.3-4.1
	C382.1,499.6,383.8,499.2,386.2,499.2L386.2,499.2z M386.2,500.6c-2.4,0-3.8,0.3-4.2,0.8c-0.4,0.5-0.6,2.3-0.6,5.4
	c0,3.1,0.2,4.9,0.6,5.5c0.4,0.5,1.8,0.8,4.2,0.8c2.4,0,3.8-0.3,4.2-0.8c0.4-0.5,0.6-2.3,0.6-5.5v-1l0-1.4c0-1.7-0.3-2.7-0.8-3.2
	C389.6,500.9,388.3,500.6,386.2,500.6L386.2,500.6z M404.8,499.4h1.7v10.5c0,1.9-0.4,3.2-1.2,3.8c-0.8,0.6-2.4,0.9-4.8,0.9
	c-2.3,0-3.9-0.3-4.7-0.9c-0.8-0.6-1.2-1.7-1.2-3.3v-0.5v-10.5h1.7v10.5c0,1.4,0.2,2.3,0.7,2.7c0.5,0.4,1.6,0.5,3.4,0.5
	c2,0,3.2-0.2,3.7-0.5c0.5-0.4,0.7-1.3,0.7-2.7V499.4L404.8,499.4z M409.4,514.4v-15.1h7.2c1.6,0,2.8,0.3,3.4,1c0.7,0.6,1,1.8,1,3.3
	c0,1.4-0.2,2.4-0.5,2.9c-0.4,0.5-1,0.9-2.1,1.1v0c1.6,0.1,2.4,1.1,2.4,2.9v3.8H419v-3.5c0-1.8-0.8-2.6-2.3-2.6h-0.6h-5.1v6.1H409.4
	L409.4,514.4z M411.1,506.9h4.9c1.3,0,2.2-0.2,2.6-0.6c0.5-0.4,0.7-1.1,0.7-2.2c0-1.4-0.2-2.2-0.5-2.7c-0.4-0.4-1.1-0.6-2.2-0.6
	h-5.5V506.9L411.1,506.9z M433.8,503.4h-1.7c0-1.2-0.2-2-0.6-2.3c-0.4-0.3-1.4-0.5-2.9-0.5c-1.8,0-2.9,0.2-3.4,0.5
	c-0.5,0.3-0.8,1-0.8,2.1c0,1.2,0.2,1.9,0.6,2.2c0.4,0.3,1.6,0.4,3.6,0.5c2.3,0.1,3.8,0.4,4.5,0.9c0.6,0.5,1,1.6,1,3.3
	c0,1.9-0.4,3.1-1.1,3.6c-0.7,0.5-2.3,0.8-4.8,0.8c-2.2,0-3.6-0.3-4.3-0.8c-0.7-0.5-1.1-1.7-1.1-3.3l0-0.7h1.7v0.4
	c0,1.3,0.2,2.2,0.6,2.5c0.4,0.3,1.5,0.5,3.2,0.5c1.9,0,3.1-0.2,3.6-0.5c0.4-0.3,0.7-1.2,0.7-2.6c0-0.9-0.2-1.5-0.5-1.8
	c-0.3-0.3-0.9-0.5-1.9-0.5l-1.8-0.1l-1.7-0.1c-2.6-0.2-3.8-1.5-3.8-4c0-1.7,0.4-2.9,1.1-3.4c0.7-0.6,2.2-0.9,4.4-0.9
	c2.2,0,3.7,0.3,4.4,0.8C433.4,500.5,433.8,501.7,433.8,503.4z"/>
<path style="&st5;" d="M449,514.4v-15.1h7c2.2,0,3.6,0.5,4.4,1.4c0.8,0.9,1.1,2.8,1.1,5.4c0,3.3-0.3,5.4-1,6.5
	c-0.7,1.1-2,1.6-4.1,1.6H449L449,514.4z M450.7,513h4.9c1.8,0,3-0.4,3.5-1.1c0.5-0.7,0.8-2.3,0.8-4.8c0-2.7-0.2-4.5-0.7-5.2
	s-1.5-1.1-3.2-1.1h-5.3V513L450.7,513z M464.9,500.8v5.1h7.6v1.4h-7.6v5.6h8v1.4h-9.7v-15.1h9.7v1.4H464.9L464.9,500.8z
	 M484.8,499.4h1.8l-5.3,15.1h-2.4l-5.4-15.1h1.8l4,11.4l0.4,1.2c0.1,0.4,0.3,0.8,0.4,1.2h0c0.2-0.7,0.5-1.5,0.7-2.3L484.8,499.4
	L484.8,499.4z M489,500.8v5.1h7.6v1.4H489v5.6h8v1.4h-9.7v-15.1h9.7v1.4H489L489,500.8z M500.9,499.4v13.5h7.7v1.6h-9.4v-15.1H500.9
	L500.9,499.4z M515.7,499.2c2.8,0,4.6,0.4,5.3,1.2c0.7,0.8,1.1,2.9,1.1,6.2c0,3.6-0.3,5.8-1,6.6c-0.7,0.8-2.5,1.3-5.4,1.3
	c-2.9,0-4.7-0.4-5.4-1.2c-0.7-0.8-1-3-1-6.4v-1.1l0-1.4c0-2,0.4-3.4,1.3-4.1C511.5,499.6,513.2,499.2,515.7,499.2L515.7,499.2z
	 M515.6,500.6c-2.4,0-3.8,0.3-4.2,0.8c-0.4,0.5-0.6,2.3-0.6,5.4c0,3.1,0.2,4.9,0.6,5.5c0.4,0.5,1.8,0.8,4.2,0.8
	c2.4,0,3.8-0.3,4.2-0.8c0.4-0.5,0.6-2.3,0.6-5.5v-1l0-1.4c0-1.7-0.3-2.7-0.8-3.2C519,500.9,517.7,500.6,515.6,500.6L515.6,500.6z
	 M524,514.4v-15.1h6.3h0.6c1.7,0,2.9,0.3,3.5,1c0.6,0.7,0.9,1.9,0.9,3.7c0,1.7-0.3,2.9-1,3.5c-0.6,0.6-1.9,0.9-3.6,0.9l-0.7,0h-4.3
	v5.9H524L524,514.4z M525.7,507h4c1.7,0,2.8-0.2,3.2-0.5c0.5-0.3,0.7-1.1,0.7-2.4c0-1.5-0.2-2.4-0.5-2.8c-0.3-0.4-1.1-0.6-2.3-0.6
	l-0.7,0h-4.6V507L525.7,507z M538.4,500.8v5.1h7.6v1.4h-7.6v5.6h8v1.4h-9.7v-15.1h9.7v1.4H538.4L538.4,500.8z M548.6,514.4v-15.1h7
	c2.2,0,3.6,0.5,4.4,1.4c0.8,0.9,1.1,2.8,1.1,5.4c0,3.3-0.3,5.4-1,6.5c-0.7,1.1-2,1.6-4.1,1.6H548.6L548.6,514.4z M550.3,513h4.9
	c1.8,0,3-0.4,3.5-1.1c0.5-0.7,0.8-2.3,0.8-4.8c0-2.7-0.2-4.5-0.7-5.2s-1.5-1.1-3.2-1.1h-5.3V513L550.3,513z M585.6,511.2h-7.6
	l-1.2,3.2H575l5.5-15.1h2.4l5.6,15.1h-1.8L585.6,511.2L585.6,511.2z M585.1,509.9l-3.3-9.2l-3.3,9.2H585.1L585.1,509.9z
	 M602.9,499.4v15.1h-2.8l-6.3-10.2l-1-1.7l-0.5-0.8l-0.5-0.8h0l0,0.6l0,0.6v1.1v11.3H590v-15.1h2.8l5.5,9l1.4,2.4l0.7,1.2l0.7,1.2h0
	l0-0.6l0-0.6v-1.1v-11.4H602.9L602.9,499.4z M605.8,514.4v-15.1h7c2.2,0,3.6,0.5,4.4,1.4c0.8,0.9,1.1,2.8,1.1,5.4
	c0,3.3-0.3,5.4-1,6.5s-2,1.6-4.1,1.6H605.8L605.8,514.4z M607.5,513h4.9c1.8,0,3-0.4,3.5-1.1c0.5-0.7,0.8-2.3,0.8-4.8
	c0-2.7-0.2-4.5-0.7-5.2c-0.5-0.7-1.5-1.1-3.2-1.1h-5.3V513L607.5,513z M638.7,500.9v13.5H637v-13.5h-4.9v-1.6h11.5v1.6H638.7
	L638.7,500.9z M646.2,500.8v5.1h7.6v1.4h-7.6v5.6h8v1.4h-9.7v-15.1h9.7v1.4H646.2L646.2,500.8z M666.7,503.4H665
	c0-1.2-0.2-2-0.6-2.3c-0.4-0.3-1.4-0.5-2.9-0.5c-1.8,0-2.9,0.2-3.4,0.5c-0.5,0.3-0.8,1-0.8,2.1c0,1.2,0.2,1.9,0.6,2.2
	c0.4,0.3,1.6,0.4,3.6,0.5c2.3,0.1,3.8,0.4,4.5,0.9s1,1.6,1,3.3c0,1.9-0.4,3.1-1.1,3.6c-0.7,0.5-2.3,0.8-4.8,0.8
	c-2.2,0-3.6-0.3-4.3-0.8c-0.7-0.5-1.1-1.7-1.1-3.3l0-0.7h1.7v0.4c0,1.3,0.2,2.2,0.6,2.5s1.5,0.5,3.2,0.5c1.9,0,3.1-0.2,3.6-0.5
	c0.4-0.3,0.7-1.2,0.7-2.6c0-0.9-0.2-1.5-0.5-1.8c-0.3-0.3-0.9-0.5-1.9-0.5l-1.8-0.1l-1.7-0.1c-2.6-0.2-3.8-1.5-3.8-4
	c0-1.7,0.4-2.9,1.1-3.4c0.7-0.6,2.2-0.9,4.4-0.9c2.2,0,3.7,0.3,4.4,0.8C666.3,500.5,666.7,501.7,666.7,503.4L666.7,503.4z
	 M674.2,500.9v13.5h-1.7v-13.5h-4.9v-1.6h11.5v1.6H674.2L674.2,500.9z M681.7,500.8v5.1h7.6v1.4h-7.6v5.6h8v1.4H680v-15.1h9.7v1.4
	H681.7L681.7,500.8z M691.9,514.4v-15.1h7c2.2,0,3.6,0.5,4.4,1.4c0.8,0.9,1.1,2.8,1.1,5.4c0,3.3-0.3,5.4-1,6.5s-2,1.6-4.1,1.6H691.9
	L691.9,514.4z M693.6,513h4.9c1.8,0,3-0.4,3.5-1.1s0.8-2.3,0.8-4.8c0-2.7-0.2-4.5-0.7-5.2c-0.5-0.7-1.5-1.1-3.2-1.1h-5.3V513
	L693.6,513z M721.3,499.4v15.1h-1.7v-15.1H721.3L721.3,499.4z M737.1,499.4v15.1h-2.8l-6.3-10.2l-1-1.7l-0.5-0.8l-0.5-0.8h0l0,0.6
	l0,0.6v1.1v11.3h-1.7v-15.1h2.8l5.5,9l1.4,2.4l0.7,1.2l0.7,1.2h0l0-0.6l0-0.6v-1.1v-11.4H737.1L737.1,499.4z M762.8,509.4h1.7v0.6
	c0,2.1-0.3,3.3-1,3.8c-0.7,0.5-2.5,0.8-5.3,0.8c-2.5,0-4.1-0.5-4.8-1.4c-0.7-0.9-1-3-1-6.4c0-2.6,0.1-4.2,0.2-4.9
	c0.2-0.7,0.6-1.3,1.3-1.8c0.9-0.6,2.7-0.9,5.5-0.9c1.9,0,3.2,0.3,3.9,0.9c0.7,0.6,1,1.7,1,3.5l0,0.4h-1.7l0-0.5c0-1.2-0.2-2-0.6-2.3
	c-0.4-0.3-1.3-0.5-2.7-0.5c-2.4,0-3.9,0.2-4.4,0.6c-0.5,0.4-0.8,1.5-0.8,3.4c0,4.2,0.2,6.7,0.5,7.4c0.4,0.7,1.6,1.1,3.7,1.1
	c2,0,3.2-0.2,3.7-0.5c0.5-0.3,0.7-1.1,0.7-2.4L762.8,509.4L762.8,509.4z M771.9,499.2c2.8,0,4.6,0.4,5.3,1.2
	c0.7,0.8,1.1,2.9,1.1,6.2c0,3.6-0.3,5.8-1,6.6c-0.7,0.8-2.5,1.3-5.4,1.3c-2.9,0-4.7-0.4-5.4-1.2c-0.7-0.8-1-3-1-6.4v-1.1l0-1.4
	c0-2,0.4-3.4,1.3-4.1C767.7,499.6,769.4,499.2,771.9,499.2L771.9,499.2z M771.9,500.6c-2.4,0-3.8,0.3-4.2,0.8
	c-0.4,0.5-0.6,2.3-0.6,5.4c0,3.1,0.2,4.9,0.6,5.5c0.4,0.5,1.8,0.8,4.2,0.8c2.4,0,3.8-0.3,4.2-0.8c0.4-0.5,0.6-2.3,0.6-5.5v-1l0-1.4
	c0-1.7-0.3-2.7-0.8-3.2C775.3,500.9,773.9,500.6,771.9,500.6L771.9,500.6z M793.1,499.4v15.1h-2.8l-6.3-10.2l-1-1.7l-0.5-0.8
	l-0.5-0.8h0l0,0.6l0,0.6v1.1v11.3h-1.7v-15.1h2.8l5.5,9l1.4,2.4l0.7,1.2l0.7,1.2h0l0-0.6l0-0.6v-1.1v-11.4H793.1L793.1,499.4z
	 M804.4,499.4V510c0,1.8-0.3,3-1,3.6c-0.6,0.6-1.9,1-3.6,1c-1.8,0-3-0.3-3.7-0.8c-0.7-0.5-1-1.6-1-3c0-0.7,0-1.3,0-1.8h1.7v0.3v1.2
	c0,1.2,0.2,2,0.5,2.3c0.3,0.3,1.1,0.5,2.5,0.5c1.3,0,2.1-0.2,2.5-0.6c0.3-0.4,0.5-1.3,0.5-2.8v-10.3H804.4L804.4,499.4z
	 M817.5,499.4h1.7v10.5c0,1.9-0.4,3.2-1.2,3.8c-0.8,0.6-2.4,0.9-4.8,0.9c-2.3,0-3.9-0.3-4.7-0.9c-0.8-0.6-1.2-1.7-1.2-3.3v-0.5
	v-10.5h1.7v10.5c0,1.4,0.2,2.3,0.7,2.7c0.5,0.4,1.6,0.5,3.4,0.5c2,0,3.2-0.2,3.7-0.5s0.7-1.3,0.7-2.7V499.4L817.5,499.4z
	 M834.9,499.4v15.1h-2.8l-6.3-10.2l-1-1.7l-0.5-0.8l-0.5-0.8h0l0,0.6l0,0.6v1.1v11.3h-1.7v-15.1h2.8l5.5,9l1.4,2.4l0.7,1.2l0.7,1.2
	h0l0-0.6l0-0.6v-1.1v-11.4H834.9L834.9,499.4z M847.7,509.4h1.7v0.6c0,2.1-0.4,3.3-1,3.8c-0.7,0.5-2.5,0.8-5.3,0.8
	c-2.5,0-4.1-0.5-4.8-1.4c-0.7-0.9-1-3-1-6.4c0-2.6,0.1-4.2,0.2-4.9s0.6-1.3,1.3-1.8c0.9-0.6,2.7-0.9,5.5-0.9c1.9,0,3.2,0.3,3.9,0.9
	c0.7,0.6,1,1.7,1,3.5l0,0.4h-1.7l0-0.5c0-1.2-0.2-2-0.6-2.3c-0.4-0.3-1.3-0.5-2.7-0.5c-2.4,0-3.9,0.2-4.4,0.6
	c-0.5,0.4-0.8,1.5-0.8,3.4c0,4.2,0.2,6.7,0.5,7.4c0.4,0.7,1.6,1.1,3.7,1.1c2,0,3.2-0.2,3.7-0.5s0.7-1.1,0.7-2.4L847.7,509.4
	L847.7,509.4z M856.5,500.9v13.5h-1.7v-13.5h-4.9v-1.6h11.5v1.6H856.5L856.5,500.9z M864.6,499.4v15.1h-1.7v-15.1H864.6L864.6,499.4
	z M873,499.2c2.8,0,4.6,0.4,5.3,1.2c0.7,0.8,1.1,2.9,1.1,6.2c0,3.6-0.3,5.8-1,6.6c-0.7,0.8-2.5,1.3-5.4,1.3c-2.9,0-4.7-0.4-5.4-1.2
	c-0.7-0.8-1-3-1-6.4v-1.1l0-1.4c0-2,0.4-3.4,1.3-4.1C868.9,499.6,870.5,499.2,873,499.2L873,499.2z M873,500.6
	c-2.4,0-3.8,0.3-4.2,0.8c-0.4,0.5-0.6,2.3-0.6,5.4c0,3.1,0.2,4.9,0.6,5.5c0.4,0.5,1.8,0.8,4.2,0.8c2.4,0,3.8-0.3,4.2-0.8
	c0.4-0.5,0.6-2.3,0.6-5.5v-1l0-1.4c0-1.7-0.3-2.7-0.8-3.2C876.4,500.9,875.1,500.6,873,500.6L873,500.6z M894.2,499.4v15.1h-2.8
	l-6.3-10.2l-1-1.7l-0.5-0.8l-0.5-0.8h0l0,0.6l0,0.6v1.1v11.3h-1.7v-15.1h2.8l5.5,9l1.4,2.4l0.7,1.2l0.7,1.2h0l0-0.6l0-0.6v-1.1
	v-11.4H894.2L894.2,499.4z M931.1,499.4l-4.7,15.1h-2.6l-3.2-10.8l-0.4-1.4c0-0.1-0.1-0.3-0.2-0.7l-0.2-0.7h0l-0.2,0.7l-0.2,0.7
	l-0.4,1.4l-3.2,10.8h-2.5l-4.6-15.1h1.7l3.2,10.8l0.4,1.5c0,0.1,0.1,0.4,0.2,0.7l0.2,0.7h0l0.2-0.7l0.2-0.7l0.4-1.5l3.2-10.8h2.5
	l3.2,10.8l0.4,1.4l0.2,0.7l0.2,0.7h0l0.2-0.7l0.2-0.7l0.5-1.5l3.3-10.8H931.1L931.1,499.4z M934.3,499.4v15.1h-1.7v-15.1H934.3
	L934.3,499.4z M942.4,500.9v13.5h-1.7v-13.5h-4.9v-1.6h11.5v1.6H942.4L942.4,500.9z M961,499.4v15.1h-1.7v-7h-8.8v7h-1.7v-15.1h1.7
	v6.6h8.8v-6.6H961L961,499.4z M976.8,514.4v-15.1h7.2c1.6,0,2.8,0.3,3.4,1c0.7,0.6,1,1.8,1,3.3c0,1.4-0.2,2.4-0.5,2.9
	c-0.4,0.5-1,0.9-2.1,1.1v0c1.6,0.1,2.4,1.1,2.4,2.9v3.8h-1.7v-3.5c0-1.8-0.8-2.6-2.3-2.6h-0.6h-5.1v6.1H976.8L976.8,514.4z
	 M978.5,506.9h4.9c1.3,0,2.2-0.2,2.6-0.6c0.5-0.4,0.7-1.1,0.7-2.2c0-1.4-0.2-2.2-0.5-2.7c-0.4-0.4-1.1-0.6-2.2-0.6h-5.5V506.9
	L978.5,506.9z M996.4,499.2c2.8,0,4.6,0.4,5.3,1.2c0.7,0.8,1.1,2.9,1.1,6.2c0,3.6-0.3,5.8-1,6.6c-0.7,0.8-2.5,1.3-5.4,1.3
	c-2.9,0-4.7-0.4-5.4-1.2c-0.7-0.8-1-3-1-6.4v-1.1l0-1.4c0-2,0.4-3.4,1.3-4.1C992.3,499.6,994,499.2,996.4,499.2L996.4,499.2z
	 M996.4,500.6c-2.4,0-3.8,0.3-4.2,0.8c-0.4,0.5-0.6,2.3-0.6,5.4c0,3.1,0.2,4.9,0.6,5.5c0.4,0.5,1.8,0.8,4.2,0.8
	c2.4,0,3.8-0.3,4.2-0.8c0.4-0.5,0.6-2.3,0.6-5.5v-1l0-1.4c0-1.7-0.3-2.7-0.8-3.2C999.8,500.9,998.5,500.6,996.4,500.6L996.4,500.6z
	 M1004.8,514.4v-15.1h7c2.2,0,3.6,0.5,4.4,1.4c0.8,0.9,1.1,2.8,1.1,5.4c0,3.3-0.3,5.4-1,6.5c-0.7,1.1-2,1.6-4.1,1.6H1004.8
	L1004.8,514.4z M1006.5,513h4.9c1.8,0,3-0.4,3.5-1.1c0.5-0.7,0.8-2.3,0.8-4.8c0-2.7-0.2-4.5-0.7-5.2s-1.5-1.1-3.2-1.1h-5.3V513
	L1006.5,513z M212.7,522.4v15.1H211v-12v-0.9l0-0.5l0-0.5h0l-0.1,0.4c-0.1,0.2-0.1,0.3-0.1,0.3l-0.3,0.7l-5.1,12.5h-1.7l-5.1-12.3
	l-0.3-0.7l-0.1-0.4c0-0.1-0.1-0.2-0.1-0.3h0l0,0.4l0,0.4v0.8v12h-1.7v-15.1h2.9l4,9.7l0.6,1.6l0.3,0.8l0.3,0.8h0l0.3-0.8
	c0.2-0.4,0.3-0.6,0.3-0.8l0.6-1.6l4-9.7H212.7L212.7,522.4z M224.8,534.3h-7.6l-1.2,3.2h-1.8l5.5-15.1h2.4l5.6,15.1h-1.8
	L224.8,534.3L224.8,534.3z M224.3,533l-3.3-9.2l-3.3,9.2H224.3L224.3,533z M239.1,532.4h1.7v0.6c0,2.1-0.4,3.3-1,3.8
	c-0.7,0.5-2.5,0.8-5.3,0.8c-2.5,0-4.1-0.5-4.8-1.4c-0.7-0.9-1-3-1-6.4c0-2.6,0.1-4.3,0.2-4.9c0.2-0.7,0.6-1.3,1.3-1.8
	c0.9-0.6,2.7-0.9,5.5-0.9c1.9,0,3.2,0.3,3.9,0.9c0.7,0.6,1,1.7,1,3.5l0,0.4h-1.7l0-0.5c0-1.2-0.2-2-0.6-2.3
	c-0.4-0.3-1.3-0.5-2.7-0.5c-2.4,0-3.9,0.2-4.4,0.6c-0.5,0.4-0.8,1.5-0.8,3.4c0,4.2,0.2,6.7,0.5,7.4c0.4,0.7,1.6,1.1,3.7,1.1
	c2,0,3.2-0.2,3.7-0.5c0.5-0.3,0.7-1.1,0.7-2.4L239.1,532.4L239.1,532.4z M244.4,522.4v6.6h1.5l6.2-6.6h2.2l-6.9,7.3l7.7,7.8h-2.3
	l-6.9-7h-1.5v7h-1.7v-15.1H244.4L244.4,522.4z M257.4,523.9v5.1h7.6v1.4h-7.6v5.6h8v1.4h-9.7v-15.1h9.7v1.4H257.4L257.4,523.9z
	 M280.4,522.4v15.1h-2.8l-6.3-10.2l-1-1.7l-0.5-0.8l-0.5-0.8h0l0,0.6l0,0.6v1.1v11.3h-1.7v-15.1h2.8l5.5,9l1.4,2.4l0.7,1.2l0.7,1.2
	h0l0-0.6l0-0.6v-1.1v-11.4H280.4L280.4,522.4z M293.9,522.4v1.4l-9.5,12.2v0h9.7v1.4h-11.7V536l9.4-12.1v0h-9.2v-1.4H293.9
	L293.9,522.4z M297.8,522.4v15.1h-1.7v-15.1H297.8L297.8,522.4z M301.8,523.9v5.1h7.6v1.4h-7.6v5.6h8v1.4h-9.7v-15.1h9.7v1.4H301.8
	L301.8,523.9z M322.5,523.9v5.3h7.3v1.4h-7.3v6.9h-1.7v-15.1h9.2v1.4H322.5L322.5,523.9z M331.9,537.5v-15.1h7.2
	c1.6,0,2.8,0.3,3.4,1c0.7,0.6,1,1.8,1,3.3c0,1.4-0.2,2.4-0.5,2.9c-0.4,0.5-1,0.9-2.1,1.1v0c1.6,0.1,2.4,1.1,2.4,2.9v3.8h-1.7V534
	c0-1.8-0.8-2.6-2.3-2.6h-0.6h-5.1v6.1H331.9L331.9,537.5z M333.6,529.9h4.9c1.3,0,2.2-0.2,2.6-0.6c0.5-0.4,0.7-1.1,0.7-2.2
	c0-1.4-0.2-2.2-0.5-2.7c-0.4-0.4-1.1-0.6-2.2-0.6h-5.5V529.9L333.6,529.9z M351.5,522.3c2.8,0,4.6,0.4,5.3,1.2
	c0.7,0.8,1.1,2.9,1.1,6.2c0,3.6-0.3,5.8-1,6.6c-0.7,0.8-2.5,1.3-5.4,1.3c-2.9,0-4.7-0.4-5.4-1.2c-0.7-0.8-1-3-1-6.4v-1.1l0-1.4
	c0-2,0.4-3.4,1.3-4.1C347.3,522.6,349,522.3,351.5,522.3L351.5,522.3z M351.4,523.7c-2.4,0-3.8,0.3-4.2,0.8
	c-0.4,0.5-0.6,2.3-0.6,5.4c0,3.1,0.2,4.9,0.6,5.5s1.8,0.8,4.2,0.8c2.4,0,3.8-0.3,4.2-0.8s0.6-2.3,0.6-5.5v-1l0-1.4
	c0-1.7-0.3-2.7-0.8-3.2C354.8,523.9,353.5,523.7,351.4,523.7L351.4,523.7z M376.3,522.4v15.1h-1.7v-12v-0.9l0-0.5l0-0.5h0l-0.1,0.4
	c-0.1,0.2-0.1,0.3-0.1,0.3l-0.3,0.7l-5.1,12.5h-1.7l-5.1-12.3l-0.3-0.7l-0.1-0.4c0-0.1-0.1-0.2-0.1-0.3h0l0,0.4l0,0.4v0.8v12h-1.7
	v-15.1h2.9l4,9.7l0.6,1.6l0.3,0.8l0.3,0.8h0l0.3-0.8c0.2-0.4,0.3-0.6,0.3-0.8l0.6-1.6l4-9.7H376.3L376.3,522.4z M397.9,532.4h1.7
	v0.6c0,2.1-0.4,3.3-1,3.8c-0.7,0.5-2.5,0.8-5.3,0.8c-2.5,0-4.1-0.5-4.8-1.4c-0.7-0.9-1-3-1-6.4c0-2.6,0.1-4.3,0.2-4.9
	c0.2-0.7,0.6-1.3,1.3-1.8c0.9-0.6,2.7-0.9,5.5-0.9c1.9,0,3.2,0.3,3.9,0.9c0.7,0.6,1,1.7,1,3.5l0,0.4h-1.7l0-0.5c0-1.2-0.2-2-0.6-2.3
	c-0.4-0.3-1.3-0.5-2.7-0.5c-2.4,0-3.9,0.2-4.4,0.6c-0.5,0.4-0.8,1.5-0.8,3.4c0,4.2,0.2,6.7,0.5,7.4c0.4,0.7,1.6,1.1,3.7,1.1
	c2,0,3.2-0.2,3.7-0.5c0.5-0.3,0.7-1.1,0.7-2.4L397.9,532.4L397.9,532.4z M407,522.3c2.8,0,4.6,0.4,5.3,1.2c0.7,0.8,1.1,2.9,1.1,6.2
	c0,3.6-0.3,5.8-1,6.6c-0.7,0.8-2.5,1.3-5.4,1.3c-2.9,0-4.7-0.4-5.4-1.2c-0.7-0.8-1-3-1-6.4v-1.1l0-1.4c0-2,0.4-3.4,1.3-4.1
	C402.9,522.6,404.6,522.3,407,522.3L407,522.3z M407,523.7c-2.4,0-3.8,0.3-4.2,0.8c-0.4,0.5-0.6,2.3-0.6,5.4c0,3.1,0.2,4.9,0.6,5.5
	c0.4,0.5,1.8,0.8,4.2,0.8c2.4,0,3.8-0.3,4.2-0.8c0.4-0.5,0.6-2.3,0.6-5.5v-1l0-1.4c0-1.7-0.3-2.7-0.8-3.2
	C410.4,523.9,409.1,523.7,407,523.7L407,523.7z M415.4,537.5v-15.1h7c2.2,0,3.6,0.5,4.4,1.4c0.8,0.9,1.1,2.8,1.1,5.4
	c0,3.3-0.3,5.4-1,6.5c-0.7,1.1-2,1.6-4.1,1.6H415.4L415.4,537.5z M417.1,536h4.9c1.8,0,3-0.4,3.5-1.1c0.5-0.7,0.8-2.3,0.8-4.8
	c0-2.7-0.2-4.5-0.7-5.2c-0.5-0.7-1.5-1.1-3.2-1.1h-5.3V536L417.1,536z M446.7,522.4v15.1H445v-12v-0.9l0-0.5l0-0.5h0l-0.1,0.4
	c-0.1,0.2-0.1,0.3-0.1,0.3l-0.3,0.7l-5.1,12.5h-1.7l-5.1-12.3l-0.3-0.7l-0.1-0.4c0-0.1-0.1-0.2-0.1-0.3h0l0,0.4l0,0.4v0.8v12h-1.7
	v-15.1h2.9l4,9.7l0.6,1.6l0.3,0.8l0.3,0.8h0l0.3-0.8c0.2-0.4,0.3-0.6,0.3-0.8l0.6-1.6l4-9.7H446.7L446.7,522.4z M458.8,534.3h-7.6
	l-1.2,3.2h-1.8l5.5-15.1h2.4l5.6,15.1h-1.8L458.8,534.3L458.8,534.3z M458.3,533l-3.3-9.2l-3.3,9.2H458.3L458.3,533z M473.1,532.4
	h1.7v0.6c0,2.1-0.4,3.3-1,3.8c-0.7,0.5-2.5,0.8-5.3,0.8c-2.5,0-4.1-0.5-4.8-1.4c-0.7-0.9-1-3-1-6.4c0-2.6,0.1-4.3,0.2-4.9
	s0.6-1.3,1.3-1.8c0.9-0.6,2.7-0.9,5.5-0.9c1.9,0,3.2,0.3,3.9,0.9c0.7,0.6,1,1.7,1,3.5l0,0.4h-1.7l0-0.5c0-1.2-0.2-2-0.6-2.3
	c-0.4-0.3-1.3-0.5-2.7-0.5c-2.4,0-3.9,0.2-4.4,0.6c-0.5,0.4-0.8,1.5-0.8,3.4c0,4.2,0.2,6.7,0.5,7.4c0.4,0.7,1.6,1.1,3.7,1.1
	c2,0,3.2-0.2,3.7-0.5c0.5-0.3,0.7-1.1,0.7-2.4L473.1,532.4L473.1,532.4z M478.4,535.4v2h-1.7v-2H478.4L478.4,535.4z M504.2,524v13.5
	h-1.7V524h-4.9v-1.6H509v1.6H504.2L504.2,524z M522.7,522.4v15.1H521v-7h-8.8v7h-1.7v-15.1h1.7v6.6h8.8v-6.6H522.7L522.7,522.4z
	 M526.7,523.9v5.1h7.6v1.4h-7.6v5.6h8v1.4H525v-15.1h9.7v1.4H526.7L526.7,523.9z M548.2,522.4l-5.7,8.8v6.3h-1.7v-6.3l-5.5-8.8h2
	l3.2,5.1l0.6,1c0.1,0.1,0.2,0.3,0.3,0.5l0.3,0.5h0c0.1-0.2,0.2-0.4,0.3-0.5l0.3-0.5l0.6-1l3.2-5.1H548.2L548.2,522.4z M567.7,534.3
	h-7.6l-1.2,3.2h-1.8l5.5-15.1h2.4l5.6,15.1h-1.8L567.7,534.3L567.7,534.3z M567.2,533l-3.3-9.2l-3.3,9.2H567.2L567.2,533z
	 M572.2,537.5v-15.1h7.2c1.6,0,2.8,0.3,3.4,1c0.7,0.6,1,1.8,1,3.3c0,1.4-0.2,2.4-0.5,2.9c-0.4,0.5-1,0.9-2.1,1.1v0
	c1.6,0.1,2.4,1.1,2.4,2.9v3.8h-1.7V534c0-1.8-0.8-2.6-2.3-2.6H579h-5.1v6.1H572.2L572.2,537.5z M573.9,529.9h4.9
	c1.3,0,2.2-0.2,2.6-0.6c0.5-0.4,0.7-1.1,0.7-2.2c0-1.4-0.2-2.2-0.5-2.7c-0.4-0.4-1.1-0.6-2.2-0.6h-5.5V529.9L573.9,529.9z
	 M587.3,523.9v5.1h7.6v1.4h-7.6v5.6h8v1.4h-9.7v-15.1h9.7v1.4H587.3L587.3,523.9z M615.6,534.3H608l-1.2,3.2h-1.8l5.5-15.1h2.4
	l5.6,15.1h-1.8L615.6,534.3L615.6,534.3z M615.1,533l-3.3-9.2l-3.3,9.2H615.1L615.1,533z M629.9,522.4l-3.9,11.4
	c-0.3,0.8-0.5,1.6-0.7,2.3h0c-0.1-0.3-0.2-0.7-0.4-1.2l-0.4-1.2l-4-11.4h-1.8l5.4,15.1h2.4l5.3-15.1H629.9L629.9,522.4z
	 M642.3,534.3h-7.6l-1.2,3.2h-1.8l5.5-15.1h2.4l5.6,15.1h-1.8L642.3,534.3L642.3,534.3z M641.8,533l-3.3-9.2l-3.3,9.2H641.8
	L641.8,533z M648.5,522.4v15.1h-1.7v-15.1H648.5L648.5,522.4z M653.1,522.4v13.5h7.7v1.6h-9.4v-15.1H653.1L653.1,522.4z
	 M671.6,534.3H664l-1.2,3.2H661l5.5-15.1h2.4l5.6,15.1h-1.8L671.6,534.3L671.6,534.3z M671.1,533l-3.3-9.2l-3.3,9.2H671.1L671.1,533
	z M676.1,537.5v-15.1h6.7c1.8,0,3.1,0.3,3.6,0.8c0.6,0.5,0.9,1.6,0.9,3.2c0,1.7-0.6,2.7-1.9,3.2v0c1.6,0.4,2.4,1.6,2.4,3.5
	c0,1.6-0.3,2.7-0.9,3.4c-0.6,0.6-1.7,1-3.3,1H676.1L676.1,537.5z M677.8,529h4.5c1.4,0,2.3-0.2,2.7-0.5c0.4-0.3,0.6-1.1,0.6-2.3
	c0-1-0.2-1.7-0.5-2c-0.4-0.3-1.1-0.4-2.4-0.4h-4.9V529L677.8,529z M677.8,536h3.6l1.5,0c1.3,0,2.1-0.2,2.5-0.5
	c0.4-0.3,0.6-1,0.6-2.1c0-1.3-0.2-2.2-0.6-2.5c-0.4-0.3-1.5-0.5-3.3-0.5h-4.4V536L677.8,536z M691.7,522.4v13.5h7.7v1.6H690v-15.1
	H691.7L691.7,522.4z M702,523.9v5.1h7.6v1.4H702v5.6h8v1.4h-9.7v-15.1h9.7v1.4H702L702,523.9z M722.8,522.4v15.1h-1.7v-15.1H722.8
	L722.8,522.4z M738.5,522.4v15.1h-2.8l-6.3-10.2l-1-1.7l-0.5-0.8l-0.5-0.8h0l0,0.6l0,0.6v1.1v11.3h-1.7v-15.1h2.8l5.5,9l1.4,2.4
	l0.7,1.2l0.7,1.2h0l0-0.6l0-0.6v-1.1v-11.4H738.5L738.5,522.4z M750.3,537.5v-15.1h6.7c1.8,0,3.1,0.3,3.6,0.8
	c0.6,0.5,0.9,1.6,0.9,3.2c0,1.7-0.6,2.7-1.9,3.2v0c1.6,0.4,2.4,1.6,2.4,3.5c0,1.6-0.3,2.7-0.9,3.4c-0.6,0.6-1.7,1-3.3,1H750.3
	L750.3,537.5z M752,529h4.5c1.4,0,2.3-0.2,2.7-0.5c0.4-0.3,0.6-1.1,0.6-2.3c0-1-0.2-1.7-0.5-2c-0.4-0.3-1.1-0.4-2.4-0.4H752V529
	L752,529z M752,536h3.6l1.5,0c1.3,0,2.1-0.2,2.5-0.5c0.4-0.3,0.6-1,0.6-2.1c0-1.3-0.2-2.2-0.6-2.5c-0.4-0.3-1.5-0.5-3.3-0.5H752V536
	L752,536z M769.7,522.3c2.8,0,4.6,0.4,5.3,1.2c0.7,0.8,1.1,2.9,1.1,6.2c0,3.6-0.3,5.8-1,6.6c-0.7,0.8-2.5,1.3-5.4,1.3
	c-2.9,0-4.7-0.4-5.4-1.2c-0.7-0.8-1-3-1-6.4v-1.1l0-1.4c0-2,0.4-3.4,1.3-4.1C765.6,522.6,767.3,522.3,769.7,522.3L769.7,522.3z
	 M769.7,523.7c-2.4,0-3.8,0.3-4.2,0.8c-0.4,0.5-0.6,2.3-0.6,5.4c0,3.1,0.2,4.9,0.6,5.5c0.4,0.5,1.8,0.8,4.2,0.8
	c2.4,0,3.8-0.3,4.2-0.8c0.4-0.5,0.6-2.3,0.6-5.5v-1l0-1.4c0-1.7-0.3-2.7-0.8-3.2C773.1,523.9,771.8,523.7,769.7,523.7L769.7,523.7z
	 M783.3,524v13.5h-1.7V524h-4.9v-1.6h11.5v1.6H783.3L783.3,524z M801.9,522.4v15.1h-1.7v-7h-8.8v7h-1.7v-15.1h1.7v6.6h8.8v-6.6
	H801.9L801.9,522.4z M821.2,522.4v15.1h-1.7v-13.8l-3.8,4.3l-1.1-1l4.2-4.5H821.2L821.2,522.4z M838.2,536v1.4h-10.8v-2.8
	c0-1.6,0.3-2.6,0.9-3.1c0.6-0.5,2.1-0.9,4.4-1.1c1.9-0.2,3-0.5,3.4-0.8c0.4-0.4,0.6-1.3,0.6-2.7c0-1.3-0.2-2.1-0.6-2.5
	c-0.4-0.4-1.4-0.6-2.8-0.6c-1.8,0-3,0.2-3.4,0.5c-0.5,0.3-0.7,1.1-0.7,2.3l0,1.1h-1.7l0-0.8c0-1.8,0.4-3,1.1-3.6
	c0.8-0.6,2.3-0.9,4.6-0.9c2,0,3.4,0.3,4.1,1c0.7,0.6,1,1.9,1,3.8c0,1.8-0.3,3-1,3.6c-0.7,0.6-2.1,1-4.2,1.2
	c-1.9,0.2-3.1,0.5-3.4,0.8c-0.4,0.3-0.6,1.3-0.6,2.9v0.5H838.2L838.2,536z M846.9,522.3c2.8,0,4.5,0.4,5,1.1
	c0.6,0.7,0.9,2.9,0.9,6.6c0,3.5-0.3,5.6-0.8,6.3c-0.7,0.9-2.4,1.4-5.1,1.4c-2.7,0-4.4-0.5-5.1-1.4c-0.5-0.7-0.8-3-0.8-6.8
	c0-3.3,0.3-5.3,0.9-6C842.5,522.6,844.1,522.3,846.9,522.3L846.9,522.3z M846.9,523.7c-2.1,0-3.4,0.3-3.7,0.8
	c-0.4,0.5-0.6,2.4-0.6,5.4c0,3.1,0.2,4.9,0.6,5.4c0.4,0.5,1.6,0.8,3.7,0.8c2.1,0,3.3-0.3,3.7-0.8c0.4-0.5,0.6-2.4,0.6-5.4
	c0-3.1-0.2-4.9-0.6-5.4C850.2,524,849,523.7,846.9,523.7L846.9,523.7z M855.1,526.9h1.5l0,1.6l0,0c0.6-1.2,1.7-1.8,3.4-1.8
	c1.8,0,2.9,0.6,3.3,1.8h0c0.7-1.2,1.9-1.8,3.6-1.8c2.5,0,3.7,1.3,3.7,3.8v6.9h-1.5v-7c0-0.9-0.2-1.6-0.5-1.9c-0.3-0.3-1-0.5-1.9-0.5
	c-1.2,0-2.1,0.2-2.5,0.7c-0.4,0.5-0.7,1.3-0.7,2.6v6.1h-1.5v-6.9l0-0.5c0-1.4-0.8-2-2.3-2c-2.1,0-3.2,1.1-3.2,3.4v6h-1.5V526.9
	L855.1,526.9z M873.8,526.9h1.5l0,1.6l0,0c0.6-1.2,1.7-1.8,3.4-1.8c1.8,0,2.9,0.6,3.3,1.8h0c0.7-1.2,1.9-1.8,3.6-1.8
	c2.5,0,3.7,1.3,3.7,3.8v6.9h-1.5v-7c0-0.9-0.2-1.6-0.5-1.9s-1-0.5-1.9-0.5c-1.2,0-2.1,0.2-2.5,0.7c-0.4,0.5-0.7,1.3-0.7,2.6v6.1
	h-1.5v-6.9l0-0.5c0-1.4-0.8-2-2.3-2c-2.1,0-3.2,1.1-3.2,3.4v6h-1.5V526.9L873.8,526.9z M910.7,534.3H903l-1.2,3.2h-1.8l5.5-15.1h2.4
	l5.6,15.1h-1.8L910.7,534.3L910.7,534.3z M910.2,533l-3.3-9.2l-3.3,9.2H910.2L910.2,533z M928,522.4v15.1h-2.8l-6.3-10.2l-1-1.7
	l-0.5-0.8l-0.5-0.8h0l0,0.6l0,0.6v1.1v11.3h-1.7v-15.1h2.8l5.5,9l1.4,2.4l0.7,1.2l0.7,1.2h0l0-0.6l0-0.6v-1.1v-11.4H928L928,522.4z
	 M930.9,537.5v-15.1h7c2.2,0,3.6,0.5,4.4,1.4c0.8,0.9,1.1,2.8,1.1,5.4c0,3.3-0.3,5.4-1,6.5c-0.7,1.1-2,1.6-4.1,1.6H930.9
	L930.9,537.5z M932.6,536h4.9c1.8,0,3-0.4,3.5-1.1c0.5-0.7,0.8-2.3,0.8-4.8c0-2.7-0.2-4.5-0.7-5.2c-0.5-0.7-1.5-1.1-3.2-1.1h-5.3
	V536L932.6,536z M954.2,533.6h1.6l0,0.4c0,0.9,0.2,1.5,0.7,1.8c0.4,0.2,1.5,0.4,3.1,0.4c1.9,0,3.1-0.2,3.5-0.6
	c0.4-0.4,0.6-1.4,0.6-3.1v-2.3h0c-0.6,0.9-2.1,1.3-4.5,1.3c-1.9,0-3.2-0.3-3.9-0.9c-0.7-0.6-1-1.8-1-3.5c0-2,0.3-3.3,1-4
	c0.7-0.6,2.2-0.9,4.4-0.9c2.3,0,3.8,0.3,4.6,1c0.7,0.7,1.1,2,1.1,4l0,4l0,1.6c0,1.9-0.4,3.2-1.1,3.8s-2.2,0.9-4.5,0.9
	c-2.2,0-3.7-0.2-4.5-0.7c-0.8-0.5-1.2-1.4-1.2-2.7C954.2,534.1,954.2,533.9,954.2,533.6L954.2,533.6z M959.6,523.7
	c-1.6,0-2.7,0.2-3.1,0.5c-0.4,0.4-0.6,1.3-0.6,2.7c0,1.4,0.2,2.3,0.6,2.7c0.4,0.4,1.3,0.6,2.8,0.6c1.9,0,3.2-0.2,3.6-0.5
	c0.5-0.3,0.7-1.1,0.7-2.3c0-1.7-0.2-2.7-0.7-3.1C962.6,523.9,961.5,523.7,959.6,523.7L959.6,523.7z M973.9,522.3
	c2.8,0,4.5,0.4,5,1.1c0.6,0.7,0.9,2.9,0.9,6.6c0,3.5-0.3,5.6-0.8,6.3c-0.7,0.9-2.4,1.4-5.1,1.4c-2.7,0-4.4-0.5-5.1-1.4
	c-0.5-0.7-0.8-3-0.8-6.8c0-3.3,0.3-5.3,0.9-6C969.5,522.6,971.1,522.3,973.9,522.3L973.9,522.3z M973.9,523.7
	c-2.1,0-3.4,0.3-3.7,0.8c-0.4,0.5-0.6,2.4-0.6,5.4c0,3.1,0.2,4.9,0.6,5.4c0.4,0.5,1.6,0.8,3.7,0.8c2.1,0,3.3-0.3,3.7-0.8
	c0.4-0.5,0.6-2.4,0.6-5.4c0-3.1-0.2-4.9-0.6-5.4C977.2,524,976,523.7,973.9,523.7z"/>
<path style="&st5;" d="M982.2,526.9h1.5l0,1.6l0,0c0.6-1.2,1.7-1.8,3.4-1.8c1.8,0,2.9,0.6,3.3,1.8h0c0.7-1.2,1.9-1.8,3.6-1.8
	c2.5,0,3.7,1.3,3.7,3.8v6.9h-1.5v-7c0-0.9-0.2-1.6-0.5-1.9c-0.3-0.3-1-0.5-1.9-0.5c-1.2,0-2.1,0.2-2.5,0.7c-0.4,0.5-0.7,1.3-0.7,2.6
	v6.1h-1.5v-6.9l0-0.5c0-1.4-0.8-2-2.3-2c-2.1,0-3.2,1.1-3.2,3.4v6h-1.5V526.9L982.2,526.9z M1000.8,526.9h1.5l0,1.6l0,0
	c0.6-1.2,1.7-1.8,3.4-1.8c1.8,0,2.9,0.6,3.3,1.8h0c0.7-1.2,1.9-1.8,3.6-1.8c2.5,0,3.7,1.3,3.7,3.8v6.9h-1.5v-7
	c0-0.9-0.2-1.6-0.5-1.9s-1-0.5-1.9-0.5c-1.2,0-2.1,0.2-2.5,0.7c-0.4,0.5-0.7,1.3-0.7,2.6v6.1h-1.5v-6.9l0-0.5c0-1.4-0.8-2-2.3-2
	c-2.1,0-3.2,1.1-3.2,3.4v6h-1.5V526.9L1000.8,526.9z M212.7,545.5v15.1H211v-12v-0.9l0-0.5l0-0.5h0l-0.1,0.4
	c-0.1,0.2-0.1,0.3-0.1,0.3l-0.3,0.7l-5.1,12.5h-1.7l-5.1-12.3l-0.3-0.7l-0.1-0.4c0-0.1-0.1-0.2-0.1-0.3h0l0,0.4l0,0.4v0.8v12h-1.7
	v-15.1h2.9l4,9.7l0.6,1.6l0.3,0.8l0.3,0.8h0l0.3-0.8c0.2-0.4,0.3-0.6,0.3-0.8l0.6-1.6l4-9.7H212.7L212.7,545.5z M221,545.3
	c2.8,0,4.6,0.4,5.3,1.2c0.7,0.8,1.1,2.9,1.1,6.2c0,3.6-0.3,5.8-1,6.6c-0.7,0.8-2.5,1.3-5.4,1.3c-2.9,0-4.7-0.4-5.4-1.2
	c-0.7-0.8-1-3-1-6.4v-1.1l0-1.4c0-2,0.4-3.4,1.3-4.1C216.9,545.7,218.5,545.3,221,545.3L221,545.3z M221,546.8
	c-2.4,0-3.8,0.3-4.2,0.8c-0.4,0.5-0.6,2.3-0.6,5.4c0,3.1,0.2,4.9,0.6,5.5s1.8,0.8,4.2,0.8c2.4,0,3.8-0.3,4.2-0.8
	c0.4-0.5,0.6-2.3,0.6-5.5v-1l0-1.4c0-1.7-0.3-2.7-0.8-3.2C224.4,547,223.1,546.8,221,546.8L221,546.8z M229.4,560.5v-15.1h7
	c2.2,0,3.6,0.5,4.4,1.4c0.8,0.9,1.1,2.8,1.1,5.4c0,3.3-0.3,5.4-1,6.5s-2,1.6-4.1,1.6H229.4L229.4,560.5z M231.1,559.1h4.9
	c1.8,0,3-0.4,3.5-1.1c0.5-0.7,0.8-2.3,0.8-4.8c0-2.7-0.2-4.5-0.7-5.2c-0.5-0.7-1.5-1.1-3.2-1.1h-5.3V559.1L231.1,559.1z
	 M245.2,546.9v5.1h7.6v1.4h-7.6v5.6h8v1.4h-9.7v-15.1h9.7v1.4H245.2L245.2,546.9z M257.1,545.5V559h7.7v1.6h-9.4v-15.1H257.1
	L257.1,545.5z M276.6,549.6h-1.7c0-1.2-0.2-2-0.6-2.3c-0.4-0.3-1.4-0.5-2.9-0.5c-1.8,0-2.9,0.2-3.4,0.5c-0.5,0.3-0.8,1-0.8,2.1
	c0,1.2,0.2,2,0.6,2.2c0.4,0.3,1.6,0.4,3.6,0.5c2.3,0.1,3.8,0.4,4.5,0.9c0.6,0.5,1,1.6,1,3.3c0,1.9-0.4,3.1-1.1,3.6
	c-0.7,0.5-2.3,0.8-4.8,0.8c-2.2,0-3.6-0.3-4.3-0.8c-0.7-0.5-1.1-1.7-1.1-3.3l0-0.7h1.7v0.4c0,1.3,0.2,2.2,0.6,2.5
	c0.4,0.3,1.5,0.5,3.2,0.5c1.9,0,3.1-0.2,3.6-0.5c0.4-0.3,0.7-1.2,0.7-2.6c0-0.9-0.2-1.5-0.5-1.8c-0.3-0.3-0.9-0.5-1.9-0.5l-1.8-0.1
	l-1.7-0.1c-2.6-0.2-3.8-1.5-3.8-4c0-1.7,0.4-2.9,1.1-3.4c0.7-0.6,2.2-0.9,4.4-0.9c2.2,0,3.7,0.3,4.4,0.8
	C276.3,546.7,276.6,547.8,276.6,549.6L276.6,549.6z M293.8,557.4h-7.6l-1.2,3.2h-1.8l5.5-15.1h2.4l5.6,15.1H295L293.8,557.4
	L293.8,557.4z M293.3,556.1l-3.3-9.2l-3.3,9.2H293.3L293.3,556.1z M311.2,545.5v15.1h-2.8l-6.3-10.2l-1-1.7l-0.5-0.8l-0.5-0.8h0
	l0,0.6l0,0.6v1.1v11.3h-1.7v-15.1h2.8l5.5,9l1.4,2.4l0.7,1.2l0.7,1.2h0l0-0.6l0-0.6v-1.1v-11.4H311.2L311.2,545.5z M314.1,560.5
	v-15.1h7c2.2,0,3.6,0.5,4.4,1.4s1.1,2.8,1.1,5.4c0,3.3-0.3,5.4-1,6.5c-0.7,1.1-2,1.6-4.1,1.6H314.1L314.1,560.5z M315.8,559.1h4.9
	c1.8,0,3-0.4,3.5-1.1c0.5-0.7,0.8-2.3,0.8-4.8c0-2.7-0.2-4.5-0.7-5.2s-1.5-1.1-3.2-1.1h-5.3V559.1L315.8,559.1z M343.7,557.4h-7.6
	l-1.2,3.2h-1.8l5.5-15.1h2.4l5.6,15.1h-1.8L343.7,557.4L343.7,557.4z M343.2,556.1l-3.3-9.2l-3.3,9.2H343.2L343.2,556.1z
	 M348.2,560.5v-15.1h7.2c1.6,0,2.8,0.3,3.4,1c0.7,0.6,1,1.8,1,3.3c0,1.4-0.2,2.4-0.5,2.9c-0.4,0.5-1,0.9-2.1,1.1v0
	c1.6,0.1,2.4,1.1,2.4,2.9v3.8h-1.7v-3.5c0-1.8-0.8-2.6-2.3-2.6H355h-5.1v6.1H348.2L348.2,560.5z M349.9,553h4.9
	c1.3,0,2.2-0.2,2.6-0.6c0.5-0.4,0.7-1.1,0.7-2.2c0-1.4-0.2-2.2-0.5-2.7c-0.4-0.4-1.1-0.6-2.2-0.6h-5.5V553L349.9,553z M363.4,546.9
	v5.1h7.6v1.4h-7.6v5.6h8v1.4h-9.7v-15.1h9.7v1.4H363.4L363.4,546.9z M380.9,546.9v5.3h7.3v1.4h-7.3v6.9h-1.7v-15.1h9.2v1.4H380.9
	L380.9,546.9z M391.9,545.5v15.1h-1.7v-15.1H391.9L391.9,545.5z M400,547.1v13.5h-1.7v-13.5h-4.9v-1.6h11.5v1.6H400L400,547.1z
	 M411.7,547.1v13.5H410v-13.5h-4.9v-1.6h11.5v1.6H411.7L411.7,547.1z M419.1,546.9v5.1h7.6v1.4h-7.6v5.6h8v1.4h-9.7v-15.1h9.7v1.4
	H419.1L419.1,546.9z M429.3,560.5v-15.1h7c2.2,0,3.6,0.5,4.4,1.4c0.8,0.9,1.1,2.8,1.1,5.4c0,3.3-0.3,5.4-1,6.5s-2,1.6-4.1,1.6H429.3
	L429.3,560.5z M431,559.1h4.9c1.8,0,3-0.4,3.5-1.1c0.5-0.7,0.8-2.3,0.8-4.8c0-2.7-0.2-4.5-0.7-5.2c-0.5-0.7-1.5-1.1-3.2-1.1H431
	V559.1L431,559.1z M470.8,545.5l-4.7,15.1h-2.6l-3.2-10.8l-0.4-1.4c0-0.1-0.1-0.3-0.2-0.7l-0.2-0.7h0l-0.2,0.7l-0.2,0.7l-0.4,1.4
	l-3.2,10.8h-2.5l-4.6-15.1h1.7l3.2,10.8l0.4,1.5c0,0.1,0.1,0.4,0.2,0.7l0.2,0.7h0l0.2-0.7l0.2-0.7l0.4-1.5l3.2-10.8h2.5l3.2,10.8
	l0.4,1.4l0.2,0.7l0.2,0.7h0l0.2-0.7l0.2-0.7l0.5-1.5l3.3-10.8H470.8L470.8,545.5z M473.9,545.5v15.1h-1.7v-15.1H473.9L473.9,545.5z
	 M482.1,547.1v13.5h-1.7v-13.5h-4.9v-1.6H487v1.6H482.1L482.1,547.1z M500.7,545.5v15.1H499v-7h-8.8v7h-1.7v-15.1h1.7v6.6h8.8v-6.6
	H500.7L500.7,545.5z M521.4,545.5v15.1h-1.7v-7h-8.8v7h-1.7v-15.1h1.7v6.6h8.8v-6.6H521.4L521.4,545.5z M525.3,546.9v5.1h7.6v1.4
	h-7.6v5.6h8v1.4h-9.7v-15.1h9.7v1.4H525.3L525.3,546.9z M544.7,557.4h-7.6l-1.2,3.2h-1.8l5.5-15.1h2.4l5.6,15.1h-1.8L544.7,557.4
	L544.7,557.4z M544.2,556.1l-3.3-9.2l-3.3,9.2H544.2L544.2,556.1z M559,545.5l-3.9,11.4c-0.3,0.8-0.5,1.6-0.7,2.3h0
	c-0.1-0.3-0.2-0.7-0.4-1.2l-0.4-1.2l-4-11.4h-1.8l5.4,15.1h2.4l5.3-15.1H559L559,545.5z M573.5,545.5l-5.7,8.8v6.3h-1.7v-6.3
	l-5.5-8.8h2l3.2,5.1l0.6,1c0.1,0.1,0.2,0.3,0.3,0.5l0.3,0.5h0c0.1-0.2,0.2-0.4,0.3-0.5l0.3-0.5l0.6-1l3.2-5.1H573.5L573.5,545.5z
	 M580.5,560.5v-15.1h7c2.2,0,3.6,0.5,4.4,1.4s1.1,2.8,1.1,5.4c0,3.3-0.3,5.4-1,6.5c-0.7,1.1-2,1.6-4.1,1.6H580.5L580.5,560.5z
	 M582.2,559.1h4.9c1.8,0,3-0.4,3.5-1.1c0.5-0.7,0.8-2.3,0.8-4.8c0-2.7-0.2-4.5-0.7-5.2c-0.5-0.7-1.5-1.1-3.2-1.1h-5.3V559.1
	L582.2,559.1z M605.5,545.5h1.7V556c0,1.9-0.4,3.2-1.2,3.8c-0.8,0.6-2.4,0.9-4.8,0.9c-2.3,0-3.9-0.3-4.7-0.9
	c-0.8-0.6-1.2-1.7-1.2-3.3V556v-10.5h1.7V556c0,1.4,0.2,2.3,0.7,2.7c0.5,0.4,1.6,0.5,3.4,0.5c2,0,3.2-0.2,3.7-0.5
	c0.5-0.4,0.7-1.3,0.7-2.7V545.5L605.5,545.5z M615.3,547.1v13.5h-1.7v-13.5h-4.9v-1.6h11.5v1.6H615.3L615.3,547.1z M633,545.5h-2
	l-3.2,5.1l-0.6,1l-0.3,0.5c-0.1,0.1-0.2,0.3-0.3,0.5h0l-0.3-0.5c-0.1-0.2-0.2-0.4-0.3-0.5l-0.6-1l-3.2-5.1h-2l5.5,8.8v6.3h1.7v-6.3
	L633,545.5L633,545.5z M650.3,549.6h-1.7c0-1.2-0.2-2-0.6-2.3c-0.4-0.3-1.4-0.5-2.9-0.5c-1.8,0-2.9,0.2-3.4,0.5s-0.8,1-0.8,2.1
	c0,1.2,0.2,2,0.6,2.2c0.4,0.3,1.6,0.4,3.6,0.5c2.3,0.1,3.8,0.4,4.5,0.9c0.6,0.5,1,1.6,1,3.3c0,1.9-0.4,3.1-1.1,3.6
	c-0.7,0.5-2.3,0.8-4.8,0.8c-2.2,0-3.6-0.3-4.3-0.8c-0.7-0.5-1.1-1.7-1.1-3.3l0-0.7h1.7v0.4c0,1.3,0.2,2.2,0.6,2.5s1.5,0.5,3.2,0.5
	c1.9,0,3.1-0.2,3.6-0.5c0.4-0.3,0.7-1.2,0.7-2.6c0-0.9-0.2-1.5-0.5-1.8c-0.3-0.3-0.9-0.5-1.9-0.5l-1.8-0.1l-1.7-0.1
	c-2.6-0.2-3.8-1.5-3.8-4c0-1.7,0.4-2.9,1.1-3.4c0.7-0.6,2.2-0.9,4.4-0.9c2.2,0,3.7,0.3,4.4,0.8C650,546.7,650.3,547.8,650.3,549.6
	L650.3,549.6z M652.6,560.5v-15.1h6.3h0.6c1.7,0,2.9,0.3,3.5,1c0.6,0.7,0.9,1.9,0.9,3.7c0,1.7-0.3,2.9-1,3.5
	c-0.6,0.6-1.9,0.9-3.6,0.9l-0.7,0h-4.3v5.9H652.6L652.6,560.5z M654.3,553.2h4c1.7,0,2.8-0.2,3.2-0.5c0.5-0.3,0.7-1.1,0.7-2.4
	c0-1.5-0.2-2.4-0.5-2.8c-0.3-0.4-1.1-0.6-2.3-0.6l-0.7,0h-4.6V553.2L654.3,553.2z M667.6,545.5V559h7.7v1.6h-9.4v-15.1H667.6
	L667.6,545.5z M678.6,545.5v15.1h-1.7v-15.1H678.6L678.6,545.5z M686.7,547.1v13.5H685v-13.5h-4.9v-1.6h11.5v1.6H686.7L686.7,547.1z
	 M698.8,560.5v-15.1h7.2c1.6,0,2.8,0.3,3.4,1c0.7,0.6,1,1.8,1,3.3c0,1.4-0.2,2.4-0.5,2.9c-0.4,0.5-1,0.9-2.1,1.1v0
	c1.6,0.1,2.4,1.1,2.4,2.9v3.8h-1.7v-3.5c0-1.8-0.8-2.6-2.3-2.6h-0.6h-5.1v6.1H698.8L698.8,560.5z M700.5,553h4.9
	c1.3,0,2.2-0.2,2.6-0.6c0.5-0.4,0.7-1.1,0.7-2.2c0-1.4-0.2-2.2-0.5-2.7c-0.4-0.4-1.1-0.6-2.2-0.6h-5.5V553L700.5,553z M714.5,545.5
	v15.1h-1.7v-15.1H714.5L714.5,545.5z M730.3,545.5v15.1h-2.8l-6.3-10.2l-1-1.7l-0.5-0.8l-0.5-0.8h0l0,0.6l0,0.6v1.1v11.3h-1.7v-15.1
	h2.8l5.5,9l1.4,2.4l0.7,1.2l0.7,1.2h0l0-0.6l0-0.6v-1.1v-11.4H730.3L730.3,545.5z M738.5,553.1h6.5c0,0.4,0,0.9,0,1.6
	c0,2.7-0.3,4.4-1,5c-0.7,0.6-2.4,1-5.2,1c-2.7,0-4.4-0.4-5.1-1.1c-0.8-0.8-1.1-2.5-1.1-5.1l0-2.2l0-1.3c0-2.2,0.4-3.7,1.3-4.4
	c0.8-0.7,2.5-1.1,5.1-1.1c2.6,0,4.2,0.2,5,0.7c0.7,0.5,1.1,1.6,1.1,3.2v0.6h-1.7v-0.4c0-1.2-0.2-2-0.8-2.3c-0.5-0.3-1.8-0.4-3.9-0.4
	c-2,0-3.2,0.2-3.7,0.7c-0.5,0.5-0.7,1.6-0.7,3.5l0,2l0,2.1c0,1.9,0.3,3.1,0.8,3.5c0.5,0.4,2,0.7,4.4,0.7c1.8,0,2.9-0.2,3.4-0.6
	c0.4-0.4,0.6-1.5,0.6-3.2c0-0.1,0-0.4-0.1-0.9h-4.8V553.1L738.5,553.1z M757.5,549.6h-1.7c0-1.2-0.2-2-0.6-2.3
	c-0.4-0.3-1.4-0.5-2.9-0.5c-1.8,0-2.9,0.2-3.4,0.5c-0.5,0.3-0.8,1-0.8,2.1c0,1.2,0.2,2,0.6,2.2c0.4,0.3,1.6,0.4,3.6,0.5
	c2.3,0.1,3.8,0.4,4.5,0.9c0.6,0.5,1,1.6,1,3.3c0,1.9-0.4,3.1-1.1,3.6c-0.7,0.5-2.3,0.8-4.8,0.8c-2.2,0-3.6-0.3-4.3-0.8
	c-0.7-0.5-1.1-1.7-1.1-3.3l0-0.7h1.7v0.4c0,1.3,0.2,2.2,0.6,2.5c0.4,0.3,1.5,0.5,3.2,0.5c1.9,0,3.1-0.2,3.6-0.5
	c0.4-0.3,0.7-1.2,0.7-2.6c0-0.9-0.2-1.5-0.5-1.8c-0.3-0.3-0.9-0.5-1.9-0.5l-1.8-0.1l-1.7-0.1c-2.6-0.2-3.8-1.5-3.8-4
	c0-1.7,0.4-2.9,1.1-3.4c0.7-0.6,2.2-0.9,4.4-0.9c2.2,0,3.7,0.3,4.4,0.8C757.1,546.7,757.5,547.8,757.5,549.6L757.5,549.6z
	 M774.7,557.4H767l-1.2,3.2h-1.8l5.5-15.1h2.4l5.6,15.1h-1.8L774.7,557.4L774.7,557.4z M774.2,556.1l-3.3-9.2l-3.3,9.2H774.2
	L774.2,556.1z M792,545.5v15.1h-2.8l-6.3-10.2l-1-1.7l-0.5-0.8l-0.5-0.8h0l0,0.6l0,0.6v1.1v11.3h-1.7v-15.1h2.8l5.5,9l1.4,2.4
	l0.7,1.2l0.7,1.2h0l0-0.6l0-0.6v-1.1v-11.4H792L792,545.5z M794.9,560.5v-15.1h7c2.2,0,3.6,0.5,4.4,1.4c0.8,0.9,1.1,2.8,1.1,5.4
	c0,3.3-0.3,5.4-1,6.5s-2,1.6-4.1,1.6H794.9L794.9,560.5z M796.6,559.1h4.9c1.8,0,3-0.4,3.5-1.1c0.5-0.7,0.8-2.3,0.8-4.8
	c0-2.7-0.2-4.5-0.7-5.2c-0.5-0.7-1.5-1.1-3.2-1.1h-5.3V559.1L796.6,559.1z M827.5,545.5v15.1h-1.7v-7H817v7h-1.7v-15.1h1.7v6.6h8.8
	v-6.6H827.5L827.5,545.5z M831.4,546.9v5.1h7.6v1.4h-7.6v5.6h8v1.4h-9.7v-15.1h9.7v1.4H831.4L831.4,546.9z M850.8,557.4h-7.6
	l-1.2,3.2h-1.8l5.5-15.1h2.4l5.6,15.1H852L850.8,557.4L850.8,557.4z M850.3,556.1l-3.3-9.2l-3.3,9.2H850.3L850.3,556.1z
	 M865.1,545.5l-3.9,11.4c-0.3,0.8-0.5,1.6-0.7,2.3h0c-0.1-0.3-0.2-0.7-0.4-1.2l-0.4-1.2l-4-11.4h-1.8l5.4,15.1h2.4l5.3-15.1H865.1
	L865.1,545.5z M879.6,545.5l-5.7,8.8v6.3h-1.7v-6.3l-5.5-8.8h2l3.2,5.1l0.6,1c0.1,0.1,0.2,0.3,0.3,0.5l0.3,0.5h0
	c0.1-0.2,0.2-0.4,0.3-0.5l0.3-0.5l0.6-1l3.2-5.1H879.6L879.6,545.5z M886.6,560.5v-15.1h7c2.2,0,3.6,0.5,4.4,1.4
	c0.8,0.9,1.1,2.8,1.1,5.4c0,3.3-0.3,5.4-1,6.5c-0.7,1.1-2,1.6-4.1,1.6H886.6L886.6,560.5z M888.3,559.1h4.9c1.8,0,3-0.4,3.5-1.1
	c0.5-0.7,0.8-2.3,0.8-4.8c0-2.7-0.2-4.5-0.7-5.2c-0.5-0.7-1.5-1.1-3.2-1.1h-5.3V559.1L888.3,559.1z M911.6,545.5h1.7V556
	c0,1.9-0.4,3.2-1.2,3.8c-0.8,0.6-2.4,0.9-4.8,0.9c-2.3,0-3.9-0.3-4.7-0.9c-0.8-0.6-1.2-1.7-1.2-3.3V556v-10.5h1.7V556
	c0,1.4,0.2,2.3,0.7,2.7c0.5,0.4,1.6,0.5,3.4,0.5c2,0,3.2-0.2,3.7-0.5c0.5-0.4,0.7-1.3,0.7-2.7V545.5L911.6,545.5z M921.4,547.1v13.5
	h-1.7v-13.5h-4.9v-1.6h11.5v1.6H921.4L921.4,547.1z M939.1,545.5h-2l-3.2,5.1l-0.6,1L933,552c-0.1,0.1-0.2,0.3-0.3,0.5h0l-0.3-0.5
	c-0.1-0.2-0.2-0.4-0.3-0.5l-0.6-1l-3.2-5.1h-2l5.5,8.8v6.3h1.7v-6.3L939.1,545.5L939.1,545.5z M958.3,545.5v15.1h-1.7v-7h-8.8v7
	h-1.7v-15.1h1.7v6.6h8.8v-6.6H958.3L958.3,545.5z M966.7,545.3c2.8,0,4.6,0.4,5.3,1.2c0.7,0.8,1.1,2.9,1.1,6.2c0,3.6-0.3,5.8-1,6.6
	c-0.7,0.8-2.5,1.3-5.4,1.3c-2.9,0-4.7-0.4-5.4-1.2c-0.7-0.8-1-3-1-6.4v-1.1l0-1.4c0-2,0.4-3.4,1.3-4.1
	C962.5,545.7,964.2,545.3,966.7,545.3L966.7,545.3z M966.6,546.8c-2.4,0-3.8,0.3-4.2,0.8c-0.4,0.5-0.6,2.3-0.6,5.4
	c0,3.1,0.2,4.9,0.6,5.5s1.8,0.8,4.2,0.8c2.4,0,3.8-0.3,4.2-0.8c0.4-0.5,0.6-2.3,0.6-5.5v-1l0-1.4c0-1.7-0.3-2.7-0.8-3.2
	C970,547,968.7,546.8,966.6,546.8L966.6,546.8z M980.5,545.3c2.8,0,4.6,0.4,5.3,1.2c0.7,0.8,1.1,2.9,1.1,6.2c0,3.6-0.3,5.8-1,6.6
	c-0.7,0.8-2.5,1.3-5.4,1.3c-2.9,0-4.7-0.4-5.4-1.2c-0.7-0.8-1-3-1-6.4v-1.1l0-1.4c0-2,0.4-3.4,1.3-4.1
	C976.4,545.7,978,545.3,980.5,545.3L980.5,545.3z M980.5,546.8c-2.4,0-3.8,0.3-4.2,0.8c-0.4,0.5-0.6,2.3-0.6,5.4
	c0,3.1,0.2,4.9,0.6,5.5s1.8,0.8,4.2,0.8c2.4,0,3.8-0.3,4.2-0.8c0.4-0.5,0.6-2.3,0.6-5.5v-1l0-1.4c0-1.7-0.3-2.7-0.8-3.2
	C983.9,547,982.6,546.8,980.5,546.8L980.5,546.8z M990.6,545.5v6.6h1.5l6.2-6.6h2.2l-6.9,7.3l7.7,7.8h-2.3l-6.9-7h-1.5v7h-1.7v-15.1
	H990.6L990.6,545.5z M1012.8,549.6h-1.7c0-1.2-0.2-2-0.6-2.3c-0.4-0.3-1.4-0.5-2.9-0.5c-1.8,0-2.9,0.2-3.4,0.5
	c-0.5,0.3-0.8,1-0.8,2.1c0,1.2,0.2,2,0.6,2.2c0.4,0.3,1.6,0.4,3.6,0.5c2.3,0.1,3.8,0.4,4.5,0.9c0.6,0.5,1,1.6,1,3.3
	c0,1.9-0.4,3.1-1.1,3.6c-0.7,0.5-2.3,0.8-4.8,0.8c-2.2,0-3.6-0.3-4.3-0.8c-0.7-0.5-1.1-1.7-1.1-3.3l0-0.7h1.7v0.4
	c0,1.3,0.2,2.2,0.6,2.5s1.5,0.5,3.2,0.5c1.9,0,3.1-0.2,3.6-0.5c0.4-0.3,0.7-1.2,0.7-2.6c0-0.9-0.2-1.5-0.5-1.8
	c-0.3-0.3-0.9-0.5-1.9-0.5l-1.8-0.1l-1.7-0.1c-2.6-0.2-3.8-1.5-3.8-4c0-1.7,0.4-2.9,1.1-3.4c0.7-0.6,2.2-0.9,4.4-0.9
	c2.2,0,3.7,0.3,4.4,0.8C1012.5,546.7,1012.8,547.8,1012.8,549.6L1012.8,549.6z M1016.7,558.5v2h-1.7v-2H1016.7z"/>
<path style="&st5;" d="M328.2,572.8v15.1h-1.7v-13.8l-3.8,4.3l-1.1-1l4.2-4.5H328.2L328.2,572.8z M345.2,586.4v1.4h-10.8V585
	c0-1.6,0.3-2.6,0.9-3.1c0.6-0.5,2.1-0.9,4.4-1.1c1.9-0.2,3-0.5,3.4-0.8c0.4-0.4,0.6-1.3,0.6-2.7c0-1.3-0.2-2.1-0.6-2.5
	c-0.4-0.4-1.4-0.6-2.8-0.6c-1.8,0-3,0.2-3.4,0.5c-0.5,0.3-0.7,1.1-0.7,2.3l0,1.1h-1.7l0-0.8c0-1.8,0.4-3,1.1-3.6
	c0.8-0.6,2.3-0.9,4.6-0.9c2,0,3.4,0.3,4.1,1c0.7,0.6,1,1.9,1,3.8c0,1.8-0.3,3-1,3.6c-0.7,0.6-2.1,1-4.2,1.2
	c-1.9,0.2-3.1,0.5-3.4,0.8c-0.4,0.3-0.6,1.3-0.6,2.9v0.5H345.2L345.2,586.4z M353.9,572.7c2.8,0,4.5,0.4,5,1.1
	c0.6,0.8,0.9,2.9,0.9,6.6c0,3.5-0.3,5.6-0.8,6.3c-0.7,0.9-2.4,1.4-5.1,1.4c-2.7,0-4.4-0.5-5.1-1.4c-0.5-0.7-0.8-3-0.8-6.8
	c0-3.3,0.3-5.3,0.9-6C349.5,573,351.2,572.7,353.9,572.7L353.9,572.7z M353.9,574.1c-2.1,0-3.4,0.3-3.7,0.8
	c-0.4,0.5-0.6,2.4-0.6,5.4c0,3.1,0.2,4.9,0.6,5.4c0.4,0.5,1.6,0.8,3.7,0.8c2.1,0,3.3-0.3,3.7-0.8c0.4-0.5,0.6-2.4,0.6-5.4
	c0-3.1-0.2-4.9-0.6-5.4C357.3,574.4,356,574.1,353.9,574.1L353.9,574.1z M362.2,577.3h1.5l0,1.6l0,0c0.6-1.2,1.7-1.8,3.4-1.8
	c1.8,0,2.9,0.6,3.3,1.8h0c0.7-1.2,1.9-1.8,3.6-1.8c2.5,0,3.7,1.3,3.7,3.8v6.9h-1.5v-7c0-0.9-0.2-1.6-0.5-1.9c-0.3-0.3-1-0.5-1.9-0.5
	c-1.2,0-2.1,0.2-2.5,0.7c-0.4,0.5-0.7,1.3-0.7,2.6v6.1h-1.5V581l0-0.5c0-1.4-0.8-2-2.3-2c-2.1,0-3.2,1.1-3.2,3.4v6h-1.5V577.3
	L362.2,577.3z M380.9,577.3h1.5l0,1.6l0,0c0.6-1.2,1.7-1.8,3.4-1.8c1.8,0,2.9,0.6,3.3,1.8h0c0.7-1.2,1.9-1.8,3.6-1.8
	c2.5,0,3.7,1.3,3.7,3.8v6.9H395v-7c0-0.9-0.2-1.6-0.5-1.9c-0.3-0.3-1-0.5-1.9-0.5c-1.2,0-2.1,0.2-2.5,0.7c-0.4,0.5-0.7,1.3-0.7,2.6
	v6.1h-1.5V581l0-0.5c0-1.4-0.8-2-2.3-2c-2.1,0-3.2,1.1-3.2,3.4v6h-1.5V577.3L380.9,577.3z M421.8,572.8v15.1h-1.7v-12v-0.9l0-0.5
	l0-0.5h0l-0.1,0.4c-0.1,0.2-0.1,0.3-0.1,0.3l-0.3,0.7l-5.1,12.5h-1.7l-5.1-12.3l-0.3-0.7l-0.1-0.4c0-0.1-0.1-0.2-0.1-0.3h0l0,0.4
	l0,0.4v0.8v12h-1.7v-15.1h2.9l4,9.7l0.6,1.6l0.3,0.8l0.3,0.8h0l0.3-0.8c0.2-0.4,0.3-0.6,0.3-0.8l0.6-1.6l4-9.7H421.8L421.8,572.8z
	 M430.1,572.7c2.8,0,4.6,0.4,5.3,1.2c0.7,0.8,1.1,2.9,1.1,6.2c0,3.6-0.3,5.8-1,6.6c-0.7,0.8-2.5,1.3-5.4,1.3c-2.9,0-4.7-0.4-5.4-1.2
	c-0.7-0.8-1-3-1-6.4v-1.1l0-1.4c0-2,0.4-3.4,1.3-4.1C426,573,427.7,572.7,430.1,572.7L430.1,572.7z M430.1,574.1
	c-2.4,0-3.8,0.3-4.2,0.8c-0.4,0.5-0.6,2.3-0.6,5.4c0,3.1,0.2,4.9,0.6,5.5c0.4,0.5,1.8,0.8,4.2,0.8c2.4,0,3.8-0.3,4.2-0.8
	c0.4-0.5,0.6-2.3,0.6-5.5v-1l0-1.4c0-1.7-0.3-2.7-0.8-3.2C433.5,574.3,432.2,574.1,430.1,574.1L430.1,574.1z M438.5,587.9v-15.1h7
	c2.2,0,3.6,0.5,4.4,1.4c0.8,0.9,1.1,2.8,1.1,5.4c0,3.3-0.3,5.4-1,6.5c-0.7,1.1-2,1.6-4.1,1.6H438.5L438.5,587.9z M440.2,586.4h4.9
	c1.8,0,3-0.4,3.5-1.1c0.5-0.7,0.8-2.3,0.8-4.8c0-2.7-0.2-4.5-0.7-5.2c-0.5-0.7-1.5-1.1-3.2-1.1h-5.3V586.4L440.2,586.4z
	 M454.3,574.3v5.1h7.6v1.4h-7.6v5.6h8v1.4h-9.7v-15.1h9.7v1.4H454.3L454.3,574.3z M466.2,572.8v13.5h7.7v1.6h-9.4v-15.1H466.2
	L466.2,572.8z M477,585.8v2h-1.7v-2H477L477,585.8z M477,577.3v2h-1.7v-2H477L477,577.3z M512.2,572.8l-4.7,15.1h-2.6l-3.2-10.8
	l-0.4-1.4c0-0.1-0.1-0.3-0.2-0.7l-0.2-0.7h0l-0.2,0.7l-0.2,0.7l-0.4,1.4l-3.2,10.8h-2.5l-4.6-15.1h1.7l3.2,10.8l0.4,1.5
	c0,0.1,0.1,0.4,0.2,0.7l0.2,0.7h0l0.2-0.7l0.2-0.7l0.4-1.5l3.2-10.8h2.5l3.2,10.8l0.4,1.4l0.2,0.7l0.2,0.7h0l0.2-0.7l0.2-0.7
	l0.5-1.5l3.3-10.8H512.2L512.2,572.8z M514.8,574.3v5.1h7.6v1.4h-7.6v5.6h8v1.4h-9.7v-15.1h9.7v1.4H514.8L514.8,574.3z M526.6,572.8
	v15.1h-1.7v-15.1H526.6L526.6,572.8z M534.9,580.4h6.5c0,0.4,0,0.9,0,1.6c0,2.7-0.3,4.4-1,5c-0.7,0.6-2.4,1-5.2,1
	c-2.7,0-4.4-0.4-5.1-1.1c-0.8-0.8-1.1-2.5-1.1-5.1l0-2.2l0-1.3c0-2.2,0.4-3.7,1.3-4.4c0.8-0.7,2.5-1.1,5.1-1.1c2.6,0,4.2,0.2,5,0.7
	c0.7,0.5,1.1,1.6,1.1,3.2v0.6h-1.7v-0.4c0-1.2-0.2-2-0.8-2.3c-0.5-0.3-1.8-0.4-3.9-0.4c-2,0-3.2,0.2-3.7,0.7
	c-0.5,0.5-0.7,1.6-0.7,3.5l0,2l0,2.1c0,1.9,0.3,3.1,0.8,3.5c0.5,0.4,2,0.7,4.4,0.7c1.8,0,2.9-0.2,3.4-0.6c0.4-0.4,0.6-1.5,0.6-3.2
	c0-0.1,0-0.4-0.1-0.9h-4.8V580.4L534.9,580.4z M555.7,572.8v15.1H554v-7h-8.8v7h-1.7v-15.1h1.7v6.6h8.8v-6.6H555.7L555.7,572.8z
	 M563.8,574.4v13.5h-1.7v-13.5h-4.9v-1.6h11.5v1.6H563.8L563.8,574.4z M586.3,572.8v1.4h-8.4l-0.1,4.6h0c0.6-0.8,1.9-1.2,4-1.2
	c2,0,3.3,0.3,4.1,1c0.7,0.7,1.1,2,1.1,3.9c0,2.3-0.3,3.8-1,4.5c-0.7,0.7-2.2,1.1-4.4,1.1c-2.2,0-3.7-0.3-4.5-0.8
	c-0.8-0.5-1.1-1.6-1.1-3.1v-0.6h1.6c0,1.4,0.2,2.2,0.6,2.5c0.4,0.3,1.5,0.5,3.2,0.5c1.8,0,2.9-0.2,3.3-0.6c0.4-0.4,0.6-1.6,0.6-3.4
	c0-1.5-0.2-2.5-0.7-2.9c-0.5-0.4-1.5-0.6-3.1-0.6c-2.3,0-3.5,0.5-3.8,1.4h-1.5v-7.6H586.3L586.3,572.8z M595.2,572.7
	c2.8,0,4.5,0.4,5,1.1c0.6,0.8,0.9,2.9,0.9,6.6c0,3.5-0.3,5.6-0.8,6.3c-0.7,0.9-2.4,1.4-5.1,1.4c-2.7,0-4.4-0.5-5.1-1.4
	c-0.5-0.7-0.8-3-0.8-6.8c0-3.3,0.3-5.3,0.9-6C590.8,573,592.4,572.7,595.2,572.7L595.2,572.7z M595.2,574.1c-2.1,0-3.4,0.3-3.7,0.8
	c-0.4,0.5-0.6,2.4-0.6,5.4c0,3.1,0.2,4.9,0.6,5.4c0.4,0.5,1.6,0.8,3.7,0.8c2.1,0,3.3-0.3,3.7-0.8c0.4-0.5,0.6-2.4,0.6-5.4
	c0-3.1-0.2-4.9-0.6-5.4C598.5,574.4,597.3,574.1,595.2,574.1L595.2,574.1z M612.3,577.3v11.2c0,1.5-0.3,2.6-1,3.2
	c-0.7,0.6-1.9,0.9-3.6,0.9c-1.6,0-2.6-0.2-3.2-0.7c-0.6-0.5-0.9-1.4-0.9-2.7h1.5c0,0.9,0.2,1.5,0.5,1.8c0.3,0.3,1.1,0.4,2.2,0.4
	c1.2,0,2-0.2,2.4-0.5c0.4-0.3,0.6-1,0.6-2.1v-2.1l0,0c-0.4,1-1.5,1.5-3.4,1.5c-1.6,0-2.6-0.4-3.2-1.2c-0.6-0.8-0.9-2.2-0.9-4.2
	c0-2.1,0.3-3.6,0.9-4.3c0.6-0.8,1.7-1.2,3.3-1.2c1.7,0,2.9,0.5,3.4,1.6l0,0l-0.1-1.4H612.3L612.3,577.3z M607.7,578.5
	c-1.2,0-2,0.3-2.4,0.8c-0.4,0.5-0.5,1.6-0.5,3.4c0,1.7,0.2,2.9,0.5,3.4c0.4,0.5,1.1,0.8,2.4,0.8c1.2,0,2-0.3,2.4-0.9
	c0.4-0.6,0.6-1.8,0.6-3.6c0-1.6-0.2-2.6-0.6-3.1C609.7,578.7,608.9,578.5,607.7,578.5L607.7,578.5z M619.3,581.7h4.7v1.4h-4.7
	L619.3,581.7L619.3,581.7z M641.7,586.4v1.4h-10.8V585c0-1.6,0.3-2.6,0.9-3.1c0.6-0.5,2.1-0.9,4.4-1.1c1.9-0.2,3-0.5,3.4-0.8
	c0.4-0.4,0.6-1.3,0.6-2.7c0-1.3-0.2-2.1-0.6-2.5c-0.4-0.4-1.4-0.6-2.8-0.6c-1.8,0-3,0.2-3.4,0.5c-0.5,0.3-0.7,1.1-0.7,2.3l0,1.1
	h-1.7l0-0.8c0-1.8,0.4-3,1.1-3.6c0.8-0.6,2.3-0.9,4.6-0.9c2,0,3.4,0.3,4.1,1c0.7,0.6,1,1.9,1,3.8c0,1.8-0.3,3-1,3.6
	c-0.7,0.6-2.1,1-4.2,1.2c-1.9,0.2-3.1,0.5-3.4,0.8c-0.4,0.3-0.6,1.3-0.6,2.9v0.5H641.7L641.7,586.4z M656.5,572.8l-13.2,19.6H642
	l13.2-19.6H656.5L656.5,572.8z M665,572.7c2.8,0,4.5,0.4,5,1.1c0.6,0.8,0.9,2.9,0.9,6.6c0,3.5-0.3,5.6-0.8,6.3
	c-0.7,0.9-2.4,1.4-5.1,1.4c-2.7,0-4.4-0.5-5.1-1.4c-0.5-0.7-0.8-3-0.8-6.8c0-3.3,0.3-5.3,0.9-6C660.6,573,662.2,572.7,665,572.7
	L665,572.7z M665,574.1c-2.1,0-3.4,0.3-3.7,0.8c-0.4,0.5-0.6,2.4-0.6,5.4c0,3.1,0.2,4.9,0.6,5.4c0.4,0.5,1.6,0.8,3.7,0.8
	c2.1,0,3.3-0.3,3.7-0.8c0.4-0.5,0.6-2.4,0.6-5.4c0-3.1-0.2-4.9-0.6-5.4C668.3,574.4,667.1,574.1,665,574.1L665,574.1z M691.2,572.8
	v15.1h-1.7v-7h-8.8v7H679v-15.1h1.7v6.6h8.8v-6.6H691.2L691.2,572.8z M699.5,572.7c2.8,0,4.6,0.4,5.3,1.2c0.7,0.8,1.1,2.9,1.1,6.2
	c0,3.6-0.3,5.8-1,6.6c-0.7,0.8-2.5,1.3-5.4,1.3c-2.9,0-4.7-0.4-5.4-1.2c-0.7-0.8-1-3-1-6.4v-1.1l0-1.4c0-2,0.4-3.4,1.3-4.1
	C695.4,573,697.1,572.7,699.5,572.7L699.5,572.7z M699.5,574.1c-2.4,0-3.8,0.3-4.2,0.8c-0.4,0.5-0.6,2.3-0.6,5.4
	c0,3.1,0.2,4.9,0.6,5.5s1.8,0.8,4.2,0.8c2.4,0,3.8-0.3,4.2-0.8s0.6-2.3,0.6-5.5v-1l0-1.4c0-1.7-0.3-2.7-0.8-3.2
	C702.9,574.3,701.6,574.1,699.5,574.1L699.5,574.1z M713.4,572.7c2.8,0,4.6,0.4,5.3,1.2c0.7,0.8,1.1,2.9,1.1,6.2
	c0,3.6-0.3,5.8-1,6.6c-0.7,0.8-2.5,1.3-5.4,1.3c-2.9,0-4.7-0.4-5.4-1.2c-0.7-0.8-1-3-1-6.4v-1.1l0-1.4c0-2,0.4-3.4,1.3-4.1
	C709.2,573,710.9,572.7,713.4,572.7L713.4,572.7z M713.4,574.1c-2.4,0-3.8,0.3-4.2,0.8c-0.4,0.5-0.6,2.3-0.6,5.4
	c0,3.1,0.2,4.9,0.6,5.5s1.8,0.8,4.2,0.8c2.4,0,3.8-0.3,4.2-0.8c0.4-0.5,0.6-2.3,0.6-5.5v-1l0-1.4c0-1.7-0.3-2.7-0.8-3.2
	C716.8,574.3,715.4,574.1,713.4,574.1L713.4,574.1z M723.4,572.8v6.6h1.5l6.2-6.6h2.2l-6.9,7.3l7.7,7.8h-2.3l-6.9-7h-1.5v7h-1.7
	v-15.1H723.4L723.4,572.8z M745.7,576.9H744c0-1.2-0.2-2-0.6-2.3c-0.4-0.3-1.4-0.5-2.9-0.5c-1.8,0-2.9,0.2-3.4,0.5s-0.8,1-0.8,2.1
	c0,1.2,0.2,1.9,0.6,2.2c0.4,0.3,1.6,0.4,3.6,0.5c2.3,0.1,3.8,0.4,4.5,0.9c0.6,0.5,1,1.6,1,3.3c0,1.9-0.4,3.1-1.1,3.6
	c-0.7,0.5-2.3,0.8-4.8,0.8c-2.2,0-3.6-0.3-4.3-0.8c-0.7-0.5-1.1-1.7-1.1-3.3l0-0.7h1.7v0.4c0,1.3,0.2,2.2,0.6,2.5
	c0.4,0.3,1.5,0.5,3.2,0.5c1.9,0,3.1-0.2,3.6-0.5c0.4-0.3,0.7-1.2,0.7-2.6c0-0.9-0.2-1.5-0.5-1.8c-0.3-0.3-0.9-0.5-1.9-0.5l-1.8-0.1
	l-1.7-0.1c-2.6-0.2-3.8-1.5-3.8-4c0-1.7,0.4-2.9,1.1-3.4c0.7-0.6,2.2-0.9,4.4-0.9c2.2,0,3.7,0.3,4.4,0.8
	C745.3,574,745.7,575.1,745.7,576.9L745.7,576.9z M752.2,581.7h4.7v1.4h-4.7L752.2,581.7L752.2,581.7z M764,587.9v-15.1h7
	c2.2,0,3.6,0.5,4.4,1.4c0.8,0.9,1.1,2.8,1.1,5.4c0,3.3-0.3,5.4-1,6.5c-0.7,1.1-2,1.6-4.1,1.6H764L764,587.9z M765.7,586.4h4.9
	c1.8,0,3-0.4,3.5-1.1s0.8-2.3,0.8-4.8c0-2.7-0.2-4.5-0.7-5.2c-0.5-0.7-1.5-1.1-3.2-1.1h-5.3V586.4L765.7,586.4z M780.4,572.8v15.1
	h-1.7v-15.1H780.4L780.4,572.8z M793.1,572.8h1.8l-5.3,15.1h-2.4l-5.4-15.1h1.8l4,11.4l0.4,1.2c0.1,0.4,0.3,0.8,0.4,1.2h0
	c0.2-0.7,0.5-1.5,0.7-2.3L793.1,572.8L793.1,572.8z M797.3,574.3v5.1h7.6v1.4h-7.6v5.6h8v1.4h-9.7v-15.1h9.7v1.4H797.3L797.3,574.3z
	 M817.8,576.9h-1.7c0-1.2-0.2-2-0.6-2.3c-0.4-0.3-1.4-0.5-2.9-0.5c-1.8,0-2.9,0.2-3.4,0.5c-0.5,0.3-0.8,1-0.8,2.1
	c0,1.2,0.2,1.9,0.6,2.2c0.4,0.3,1.6,0.4,3.6,0.5c2.3,0.1,3.8,0.4,4.5,0.9c0.6,0.5,1,1.6,1,3.3c0,1.9-0.4,3.1-1.1,3.6
	c-0.7,0.5-2.3,0.8-4.8,0.8c-2.2,0-3.6-0.3-4.3-0.8c-0.7-0.5-1.1-1.7-1.1-3.3l0-0.7h1.7v0.4c0,1.3,0.2,2.2,0.6,2.5
	c0.4,0.3,1.5,0.5,3.2,0.5c1.9,0,3.1-0.2,3.6-0.5c0.4-0.3,0.7-1.2,0.7-2.6c0-0.9-0.2-1.5-0.5-1.8c-0.3-0.3-0.9-0.5-1.9-0.5l-1.8-0.1
	l-1.7-0.1c-2.6-0.2-3.8-1.5-3.8-4c0-1.7,0.4-2.9,1.1-3.4c0.7-0.6,2.2-0.9,4.4-0.9c2.2,0,3.7,0.3,4.4,0.8
	C817.5,574,817.8,575.1,817.8,576.9L817.8,576.9z M831,574.4v13.5h-1.7v-13.5h-4.9v-1.6h11.5v1.6H831L831,574.4z M842.9,572.7
	c2.8,0,4.6,0.4,5.3,1.2c0.7,0.8,1.1,2.9,1.1,6.2c0,3.6-0.3,5.8-1,6.6c-0.7,0.8-2.5,1.3-5.4,1.3c-2.9,0-4.7-0.4-5.4-1.2
	c-0.7-0.8-1-3-1-6.4v-1.1l0-1.4c0-2,0.4-3.4,1.3-4.1C838.7,573,840.4,572.7,842.9,572.7L842.9,572.7z M842.9,574.1
	c-2.4,0-3.8,0.3-4.2,0.8c-0.4,0.5-0.6,2.3-0.6,5.4c0,3.1,0.2,4.9,0.6,5.5s1.8,0.8,4.2,0.8c2.4,0,3.8-0.3,4.2-0.8
	c0.4-0.5,0.6-2.3,0.6-5.5v-1l0-1.4c0-1.7-0.3-2.7-0.8-3.2C846.3,574.3,844.9,574.1,842.9,574.1L842.9,574.1z M865.3,580.1
	L865.3,580.1c1.1,0.2,1.8,0.6,2.1,1c0.3,0.4,0.5,1.3,0.5,2.5c0,1.8-0.3,3-1,3.6c-0.7,0.6-2.2,0.9-4.4,0.9c-2.5,0-4-0.3-4.7-0.8
	c-0.7-0.5-1.1-1.7-1.1-3.5c0-1.3,0.2-2.2,0.5-2.7c0.3-0.5,1-0.8,2.1-1v0c-1-0.2-1.6-0.5-2-1c-0.3-0.4-0.5-1.3-0.5-2.5
	c0-1.6,0.3-2.6,1-3.1c0.7-0.5,2.1-0.7,4.3-0.7c2.4,0,3.9,0.2,4.6,0.7c0.7,0.5,1,1.6,1,3.3c0,1.1-0.2,1.9-0.5,2.4
	C866.9,579.5,866.2,579.8,865.3,580.1L865.3,580.1z M862.1,574.1c-1.7,0-2.8,0.1-3.1,0.4c-0.4,0.3-0.5,1-0.5,2.3
	c0,1.2,0.2,2,0.7,2.2c0.5,0.3,1.7,0.4,3.8,0.4c1.4,0,2.2-0.2,2.6-0.5c0.4-0.3,0.6-1.1,0.6-2.3c0-1.1-0.2-1.8-0.6-2.1
	C865,574.2,863.9,574.1,862.1,574.1L862.1,574.1z M862.1,580.8c-1.7,0-2.8,0.2-3.3,0.5c-0.4,0.3-0.6,1.1-0.6,2.4
	c0,1.2,0.2,2,0.5,2.4c0.3,0.4,1,0.6,2,0.6l2.1,0l1.4-0.1c0.8-0.1,1.4-0.4,1.6-0.8c0.3-0.4,0.4-1.2,0.4-2.3c0-1.1-0.2-1.8-0.7-2.1
	C865,581,863.9,580.8,862.1,580.8L862.1,580.8z M887.3,572.8v15.1h-1.7v-12v-0.9l0-0.5l0-0.5h0l-0.1,0.4c-0.1,0.2-0.1,0.3-0.1,0.3
	l-0.3,0.7l-5.1,12.5h-1.7l-5.1-12.3l-0.3-0.7l-0.1-0.4c0-0.1-0.1-0.2-0.1-0.3h0l0,0.4l0,0.4v0.8v12h-1.7v-15.1h2.9l4,9.7l0.6,1.6
	l0.3,0.8l0.3,0.8h0l0.3-0.8c0.2-0.4,0.3-0.6,0.3-0.8l0.6-1.6l4-9.7H887.3L887.3,572.8z M891.7,585.8v2H890v-2H891.7L891.7,585.8z
	 M337.5,607.1h1.6l0,0.4c0,0.9,0.2,1.5,0.7,1.8c0.4,0.2,1.5,0.4,3.2,0.4c1.9,0,3.1-0.2,3.5-0.6c0.4-0.4,0.6-1.4,0.6-3.1v-2.3h0
	c-0.6,0.9-2.1,1.3-4.5,1.3c-1.9,0-3.2-0.3-3.9-0.9c-0.7-0.6-1-1.8-1-3.5c0-2,0.4-3.3,1-4c0.7-0.6,2.2-0.9,4.4-0.9
	c2.3,0,3.8,0.3,4.6,1c0.7,0.7,1.1,2,1.1,4l0,4l0,1.6c0,1.9-0.4,3.2-1.1,3.8c-0.7,0.6-2.2,0.9-4.5,0.9c-2.2,0-3.7-0.2-4.5-0.7
	c-0.8-0.5-1.2-1.4-1.2-2.7C337.5,607.6,337.5,607.4,337.5,607.1L337.5,607.1z M342.9,597.2c-1.6,0-2.7,0.2-3.1,0.5
	c-0.4,0.4-0.6,1.3-0.6,2.7c0,1.4,0.2,2.3,0.6,2.7c0.4,0.4,1.3,0.6,2.8,0.6c1.9,0,3.2-0.2,3.6-0.5c0.5-0.3,0.7-1.1,0.7-2.3
	c0-1.7-0.2-2.7-0.7-3.1C345.9,597.4,344.8,597.2,342.9,597.2L342.9,597.2z M357.1,595.7c2.8,0,4.5,0.4,5,1.1
	c0.6,0.7,0.9,2.9,0.9,6.6c0,3.5-0.3,5.6-0.8,6.3c-0.7,0.9-2.4,1.4-5.1,1.4c-2.7,0-4.4-0.5-5.1-1.4c-0.5-0.7-0.8-3-0.8-6.8
	c0-3.3,0.3-5.3,0.9-6C352.7,596.1,354.4,595.7,357.1,595.7L357.1,595.7z M357.1,597.2c-2.1,0-3.4,0.3-3.7,0.8
	c-0.4,0.5-0.6,2.4-0.6,5.4c0,3.1,0.2,4.9,0.6,5.4c0.4,0.5,1.6,0.8,3.7,0.8c2.1,0,3.3-0.3,3.7-0.8c0.4-0.5,0.6-2.4,0.6-5.4
	c0-3.1-0.2-4.9-0.6-5.4C360.5,597.4,359.2,597.2,357.1,597.2L357.1,597.2z M365.4,600.4h1.5l0,1.6l0,0c0.6-1.2,1.7-1.8,3.4-1.8
	c1.8,0,2.9,0.6,3.3,1.8h0c0.7-1.2,1.9-1.8,3.6-1.8c2.5,0,3.7,1.3,3.7,3.8v6.9h-1.5v-7c0-0.9-0.2-1.6-0.5-1.9c-0.3-0.3-1-0.5-1.9-0.5
	c-1.2,0-2.1,0.2-2.5,0.7c-0.4,0.5-0.7,1.3-0.7,2.6v6.1h-1.5V604l0-0.5c0-1.4-0.8-2-2.3-2c-2.1,0-3.2,1.1-3.2,3.4v6h-1.5V600.4
	L365.4,600.4z M384.1,600.4h1.5l0,1.6l0,0c0.6-1.2,1.7-1.8,3.4-1.8c1.8,0,2.9,0.6,3.3,1.8h0c0.7-1.2,1.9-1.8,3.6-1.8
	c2.5,0,3.7,1.3,3.7,3.8v6.9h-1.5v-7c0-0.9-0.2-1.6-0.5-1.9c-0.3-0.3-1-0.5-1.9-0.5c-1.2,0-2.1,0.2-2.5,0.7c-0.4,0.5-0.7,1.3-0.7,2.6
	v6.1h-1.5V604l0-0.5c0-1.4-0.8-2-2.3-2c-2.1,0-3.2,1.1-3.2,3.4v6h-1.5V600.4L384.1,600.4z M425,595.9v15.1h-1.7v-12V598l0-0.5l0-0.5
	h0l-0.1,0.4c-0.1,0.2-0.1,0.3-0.1,0.3l-0.3,0.7l-5.1,12.5h-1.7l-5.1-12.3l-0.3-0.7l-0.1-0.4c0-0.1-0.1-0.2-0.1-0.3h0l0,0.4l0,0.4
	v0.8v12h-1.7v-15.1h2.9l4,9.7l0.6,1.6l0.3,0.8l0.3,0.8h0l0.3-0.8c0.2-0.4,0.3-0.6,0.3-0.8l0.6-1.6l4-9.7H425L425,595.9z
	 M433.3,595.7c2.8,0,4.6,0.4,5.3,1.2c0.7,0.8,1.1,2.9,1.1,6.2c0,3.6-0.3,5.8-1,6.6c-0.7,0.8-2.5,1.3-5.4,1.3c-2.9,0-4.7-0.4-5.4-1.2
	c-0.7-0.8-1-3-1-6.4v-1.1l0-1.4c0-2,0.4-3.4,1.3-4.1C429.2,596.1,430.9,595.7,433.3,595.7L433.3,595.7z M433.3,597.2
	c-2.4,0-3.8,0.3-4.2,0.8c-0.4,0.5-0.6,2.3-0.6,5.4c0,3.1,0.2,4.9,0.6,5.5c0.4,0.5,1.8,0.8,4.2,0.8c2.4,0,3.8-0.3,4.2-0.8
	c0.4-0.5,0.6-2.3,0.6-5.5v-1l0-1.4c0-1.7-0.3-2.7-0.8-3.2C436.7,597.4,435.4,597.2,433.3,597.2L433.3,597.2z M441.7,610.9v-15.1h7
	c2.2,0,3.6,0.5,4.4,1.4c0.8,0.9,1.1,2.8,1.1,5.4c0,3.3-0.3,5.4-1,6.5s-2,1.6-4.1,1.6H441.7L441.7,610.9z M443.4,609.5h4.9
	c1.8,0,3-0.4,3.5-1.1c0.5-0.7,0.8-2.3,0.8-4.8c0-2.7-0.2-4.5-0.7-5.2s-1.5-1.1-3.2-1.1h-5.3V609.5L443.4,609.5z M457.5,597.3v5.1
	h7.6v1.4h-7.6v5.6h8v1.4h-9.7v-15.1h9.7v1.4H457.5L457.5,597.3z M469.4,595.9v13.5h7.7v1.6h-9.4v-15.1H469.4L469.4,595.9z
	 M480.2,608.9v2h-1.7v-2H480.2L480.2,608.9z M480.2,600.4v2h-1.7v-2H480.2L480.2,600.4z M515.4,595.9l-4.7,15.1h-2.6l-3.2-10.8
	l-0.4-1.4c0-0.1-0.1-0.3-0.2-0.7l-0.2-0.7h0l-0.2,0.7l-0.2,0.7l-0.4,1.4l-3.2,10.8h-2.5l-4.6-15.1h1.7l3.2,10.8l0.4,1.5
	c0,0.1,0.1,0.4,0.2,0.7l0.2,0.7h0l0.2-0.7l0.2-0.7l0.4-1.5l3.2-10.8h2.5l3.2,10.8l0.4,1.4l0.2,0.7l0.2,0.7h0l0.2-0.7l0.2-0.7
	l0.5-1.5l3.3-10.8H515.4L515.4,595.9z M518,597.3v5.1h7.6v1.4H518v5.6h8v1.4h-9.7v-15.1h9.7v1.4H518L518,597.3z M529.8,595.9v15.1
	h-1.7v-15.1H529.8L529.8,595.9z M538.1,603.5h6.5c0,0.4,0,0.9,0,1.6c0,2.7-0.3,4.4-1,5c-0.7,0.6-2.4,1-5.2,1c-2.7,0-4.4-0.4-5.1-1.1
	c-0.8-0.8-1.1-2.5-1.1-5.1l0-2.2l0-1.3c0-2.2,0.4-3.7,1.3-4.4c0.8-0.7,2.5-1.1,5.1-1.1c2.6,0,4.2,0.2,5,0.7c0.7,0.5,1.1,1.6,1.1,3.2
	v0.6h-1.7v-0.4c0-1.2-0.2-2-0.8-2.3s-1.8-0.4-3.9-0.4c-2,0-3.2,0.2-3.7,0.7c-0.5,0.5-0.7,1.6-0.7,3.5l0,2l0,2.1
	c0,1.9,0.3,3.1,0.8,3.5c0.5,0.4,2,0.7,4.4,0.7c1.8,0,2.9-0.2,3.4-0.6c0.4-0.4,0.6-1.5,0.6-3.2c0-0.1,0-0.4-0.1-0.9h-4.8V603.5
	L538.1,603.5z M558.9,595.9v15.1h-1.7v-7h-8.8v7h-1.7v-15.1h1.7v6.6h8.8v-6.6H558.9L558.9,595.9z M567,597.5v13.5h-1.7v-13.5h-4.9
	v-1.6h11.5v1.6H567L567,597.5z M589.7,609.5v1.4h-10.8v-2.8c0-1.6,0.3-2.6,0.9-3.1c0.6-0.5,2.1-0.9,4.4-1.1c1.9-0.2,3-0.5,3.4-0.8
	c0.4-0.4,0.6-1.3,0.6-2.7c0-1.3-0.2-2.1-0.6-2.5c-0.4-0.4-1.4-0.6-2.8-0.6c-1.8,0-3,0.2-3.4,0.5c-0.5,0.3-0.7,1.1-0.7,2.3l0,1.1
	h-1.7l0-0.8c0-1.8,0.4-3,1.1-3.6c0.8-0.6,2.3-0.9,4.6-0.9c2,0,3.4,0.3,4.1,1c0.7,0.6,1,1.9,1,3.8c0,1.8-0.3,3-1,3.6
	c-0.7,0.6-2.1,1-4.2,1.2c-1.9,0.2-3.1,0.5-3.4,0.8c-0.4,0.3-0.6,1.3-0.6,2.9v0.5H589.7L589.7,609.5z M603.5,595.9v2.2l-7.3,12.9h-2
	l7.9-13.6h-9.6v-1.4H603.5L603.5,595.9z M615.5,600.4v11.2c0,1.5-0.3,2.6-1,3.2c-0.7,0.6-1.9,0.9-3.6,0.9c-1.6,0-2.6-0.2-3.2-0.7
	c-0.6-0.5-0.9-1.4-0.9-2.7h1.5c0,0.9,0.2,1.5,0.5,1.8c0.3,0.3,1.1,0.4,2.2,0.4c1.2,0,2-0.2,2.4-0.5c0.4-0.4,0.6-1,0.6-2.1v-2.1l0,0
	c-0.4,1-1.5,1.5-3.4,1.5c-1.6,0-2.6-0.4-3.2-1.2c-0.6-0.8-0.9-2.2-0.9-4.2c0-2.1,0.3-3.6,0.9-4.3c0.6-0.8,1.7-1.2,3.3-1.2
	c1.7,0,2.9,0.5,3.4,1.6l0,0l-0.1-1.4H615.5L615.5,600.4z M610.9,601.5c-1.2,0-2,0.3-2.4,0.8c-0.4,0.5-0.5,1.6-0.5,3.4
	c0,1.7,0.2,2.9,0.5,3.4c0.4,0.5,1.1,0.8,2.4,0.8c1.2,0,2-0.3,2.4-0.9c0.4-0.6,0.6-1.8,0.6-3.6c0-1.6-0.2-2.6-0.6-3.1
	C612.9,601.8,612.1,601.5,610.9,601.5L610.9,601.5z M622.5,604.7h4.7v1.4h-4.7L622.5,604.7L622.5,604.7z M644.9,605.1l-0.2,1h-2.6
	l-0.7,4.8h-1.2l0.8-4.8h-3.4l-0.7,4.8h-1.2l0.8-4.8h-2.6l0.2-1h2.6l0.5-3.5h-2.6l0.2-1h2.6l0.7-4.7h1.2l-0.7,4.7h3.3l0.8-4.7h1.2
	l-0.7,4.7h2.6l-0.2,1h-2.6l-0.5,3.5H644.9L644.9,605.1z M641.7,601.6h-3.3l-0.5,3.5h3.3L641.7,601.6z"/>
<path style="&st5;" d="M658.7,609.5v1.4h-10.8v-2.8c0-1.6,0.3-2.6,0.9-3.1c0.6-0.5,2.1-0.9,4.4-1.1c1.9-0.2,3-0.5,3.4-0.8
	c0.4-0.4,0.6-1.3,0.6-2.7c0-1.3-0.2-2.1-0.6-2.5c-0.4-0.4-1.4-0.6-2.8-0.6c-1.8,0-3,0.2-3.4,0.5c-0.5,0.3-0.7,1.1-0.7,2.3l0,1.1
	h-1.7l0-0.8c0-1.8,0.4-3,1.1-3.6c0.8-0.6,2.3-0.9,4.6-0.9c2,0,3.4,0.3,4.1,1c0.7,0.6,1,1.9,1,3.8c0,1.8-0.3,3-1,3.6
	c-0.7,0.6-2.1,1-4.2,1.2c-1.9,0.2-3.1,0.5-3.4,0.8c-0.4,0.3-0.6,1.3-0.6,2.9v0.5H658.7L658.7,609.5z M679.8,595.9v15.1h-1.7v-7h-8.8
	v7h-1.7v-15.1h1.7v6.6h8.8v-6.6H679.8L679.8,595.9z M688.1,595.7c2.8,0,4.6,0.4,5.3,1.2c0.7,0.8,1.1,2.9,1.1,6.2
	c0,3.6-0.3,5.8-1,6.6c-0.7,0.8-2.5,1.3-5.4,1.3c-2.9,0-4.7-0.4-5.4-1.2c-0.7-0.8-1-3-1-6.4v-1.1l0-1.4c0-2,0.4-3.4,1.3-4.1
	C684,596.1,685.7,595.7,688.1,595.7L688.1,595.7z M688.1,597.2c-2.4,0-3.8,0.3-4.2,0.8c-0.4,0.5-0.6,2.3-0.6,5.4
	c0,3.1,0.2,4.9,0.6,5.5c0.4,0.5,1.8,0.8,4.2,0.8c2.4,0,3.8-0.3,4.2-0.8c0.4-0.5,0.6-2.3,0.6-5.5v-1l0-1.4c0-1.7-0.3-2.7-0.8-3.2
	C691.5,597.4,690.2,597.2,688.1,597.2L688.1,597.2z M702,595.7c2.8,0,4.6,0.4,5.3,1.2c0.7,0.8,1.1,2.9,1.1,6.2c0,3.6-0.3,5.8-1,6.6
	c-0.7,0.8-2.5,1.3-5.4,1.3c-2.9,0-4.7-0.4-5.4-1.2c-0.7-0.8-1-3-1-6.4v-1.1l0-1.4c0-2,0.4-3.4,1.3-4.1
	C697.8,596.1,699.5,595.7,702,595.7L702,595.7z M702,597.2c-2.4,0-3.8,0.3-4.2,0.8c-0.4,0.5-0.6,2.3-0.6,5.4c0,3.1,0.2,4.9,0.6,5.5
	c0.4,0.5,1.8,0.8,4.2,0.8c2.4,0,3.8-0.3,4.2-0.8c0.4-0.5,0.6-2.3,0.6-5.5v-1l0-1.4c0-1.7-0.3-2.7-0.8-3.2
	C705.4,597.4,704,597.2,702,597.2L702,597.2z M712,595.9v6.6h1.5l6.2-6.6h2.2l-6.9,7.3l7.7,7.8h-2.3l-6.9-7H712v7h-1.7v-15.1H712
	L712,595.9z M734.3,600h-1.7c0-1.2-0.2-2-0.6-2.3c-0.4-0.3-1.4-0.5-2.9-0.5c-1.8,0-2.9,0.2-3.4,0.5c-0.5,0.3-0.8,1-0.8,2.1
	c0,1.2,0.2,2,0.6,2.2c0.4,0.3,1.6,0.4,3.6,0.5c2.3,0.1,3.8,0.4,4.5,0.9s1,1.6,1,3.3c0,1.9-0.4,3.1-1.1,3.6c-0.7,0.5-2.3,0.8-4.8,0.8
	c-2.2,0-3.6-0.3-4.3-0.8c-0.7-0.6-1.1-1.7-1.1-3.3l0-0.7h1.7v0.4c0,1.3,0.2,2.2,0.6,2.5c0.4,0.3,1.5,0.5,3.2,0.5
	c1.9,0,3.1-0.2,3.6-0.5c0.4-0.3,0.7-1.2,0.7-2.6c0-0.9-0.2-1.5-0.5-1.8c-0.3-0.3-0.9-0.5-1.9-0.5l-1.8-0.1l-1.7-0.1
	c-2.6-0.2-3.8-1.5-3.8-4c0-1.7,0.4-2.9,1.1-3.4c0.7-0.6,2.2-0.9,4.4-0.9c2.2,0,3.7,0.3,4.4,0.8C733.9,597.1,734.3,598.2,734.3,600
	L734.3,600z M740.8,604.7h4.7v1.4h-4.7L740.8,604.7L740.8,604.7z M752.6,610.9v-15.1h7c2.2,0,3.6,0.5,4.4,1.4
	c0.8,0.9,1.1,2.8,1.1,5.4c0,3.3-0.3,5.4-1,6.5c-0.7,1.1-2,1.6-4.1,1.6H752.6L752.6,610.9z M754.3,609.5h4.9c1.8,0,3-0.4,3.5-1.1
	c0.5-0.7,0.8-2.3,0.8-4.8c0-2.7-0.2-4.5-0.7-5.2c-0.5-0.7-1.5-1.1-3.2-1.1h-5.3V609.5L754.3,609.5z M769,595.9v15.1h-1.7v-15.1H769
	L769,595.9z M781.7,595.9h1.8l-5.3,15.1h-2.4l-5.4-15.1h1.8l4,11.4l0.4,1.2c0.1,0.4,0.3,0.8,0.4,1.2h0c0.2-0.7,0.5-1.5,0.7-2.3
	L781.7,595.9L781.7,595.9z M785.9,597.3v5.1h7.6v1.4h-7.6v5.6h8v1.4h-9.7v-15.1h9.7v1.4H785.9L785.9,597.3z M806.4,600h-1.7
	c0-1.2-0.2-2-0.6-2.3c-0.4-0.3-1.4-0.5-2.9-0.5c-1.8,0-2.9,0.2-3.4,0.5c-0.5,0.3-0.8,1-0.8,2.1c0,1.2,0.2,2,0.6,2.2
	c0.4,0.3,1.6,0.4,3.6,0.5c2.3,0.1,3.8,0.4,4.5,0.9c0.6,0.5,1,1.6,1,3.3c0,1.9-0.4,3.1-1.1,3.6c-0.7,0.5-2.3,0.8-4.8,0.8
	c-2.2,0-3.6-0.3-4.3-0.8c-0.7-0.6-1.1-1.7-1.1-3.3l0-0.7h1.7v0.4c0,1.3,0.2,2.2,0.6,2.5c0.4,0.3,1.5,0.5,3.2,0.5
	c1.9,0,3.1-0.2,3.6-0.5c0.4-0.3,0.7-1.2,0.7-2.6c0-0.9-0.2-1.5-0.5-1.8c-0.3-0.3-0.9-0.5-1.9-0.5l-1.8-0.1l-1.7-0.1
	c-2.6-0.2-3.8-1.5-3.8-4c0-1.7,0.4-2.9,1.1-3.4c0.7-0.6,2.2-0.9,4.4-0.9c2.2,0,3.7,0.3,4.4,0.8C806.1,597.1,806.4,598.2,806.4,600
	L806.4,600z M819.6,597.5v13.5h-1.7v-13.5H813v-1.6h11.5v1.6H819.6L819.6,597.5z M831.5,595.7c2.8,0,4.6,0.4,5.3,1.2
	c0.7,0.8,1.1,2.9,1.1,6.2c0,3.6-0.3,5.8-1,6.6c-0.7,0.8-2.5,1.3-5.4,1.3c-2.9,0-4.7-0.4-5.4-1.2c-0.7-0.8-1-3-1-6.4v-1.1l0-1.4
	c0-2,0.4-3.4,1.3-4.1C827.3,596.1,829,595.7,831.5,595.7L831.5,595.7z M831.5,597.2c-2.4,0-3.8,0.3-4.2,0.8
	c-0.4,0.5-0.6,2.3-0.6,5.4c0,3.1,0.2,4.9,0.6,5.5s1.8,0.8,4.2,0.8c2.4,0,3.8-0.3,4.2-0.8s0.6-2.3,0.6-5.5v-1l0-1.4
	c0-1.7-0.3-2.7-0.8-3.2C834.9,597.4,833.6,597.2,831.5,597.2L831.5,597.2z M855.9,595.9v1.4h-8.4l-0.1,4.6h0c0.6-0.8,1.9-1.2,4-1.2
	c2,0,3.3,0.3,4.1,1c0.7,0.7,1.1,2,1.1,3.9c0,2.3-0.3,3.8-1,4.5c-0.7,0.7-2.2,1.1-4.4,1.1c-2.2,0-3.7-0.3-4.5-0.8
	c-0.8-0.5-1.1-1.6-1.1-3.1v-0.6h1.6c0,1.4,0.2,2.2,0.6,2.5c0.4,0.3,1.5,0.5,3.2,0.5c1.8,0,2.9-0.2,3.3-0.6s0.6-1.6,0.6-3.4
	c0-1.5-0.2-2.5-0.7-2.9c-0.5-0.4-1.5-0.6-3.1-0.6c-2.3,0-3.5,0.5-3.8,1.4h-1.5v-7.6H855.9L855.9,595.9z M875.9,595.9v15.1h-1.7v-12
	V598l0-0.5l0-0.5h0l-0.1,0.4c-0.1,0.2-0.1,0.3-0.1,0.3l-0.3,0.7l-5.1,12.5h-1.7l-5.1-12.3l-0.3-0.7l-0.1-0.4c0-0.1-0.1-0.2-0.1-0.3
	h0l0,0.4l0,0.4v0.8v12h-1.7v-15.1h2.9l4,9.7l0.6,1.6l0.3,0.8l0.3,0.8h0l0.3-0.8c0.2-0.4,0.3-0.6,0.3-0.8l0.6-1.6l4-9.7H875.9
	L875.9,595.9z M880.3,608.9v2h-1.7v-2H880.3z"/>
</svg>
